<?xml version="1.0" encoding="utf-8" standalone="no"?>
<!DOCTYPE svg PUBLIC "-//W3C//DTD SVG 1.1//EN"
  "http://www.w3.org/Graphics/SVG/1.1/DTD/svg11.dtd">
<svg xmlns:xlink="http://www.w3.org/1999/xlink" width="820.21471pt" height="316.066691pt" viewBox="0 0 820.21471 316.066691" xmlns="http://www.w3.org/2000/svg" version="1.1">
 <metadata>
  <rdf:RDF xmlns:dc="http://purl.org/dc/elements/1.1/" xmlns:cc="http://creativecommons.org/ns#" xmlns:rdf="http://www.w3.org/1999/02/22-rdf-syntax-ns#">
   <cc:Work>
    <dc:type rdf:resource="http://purl.org/dc/dcmitype/StillImage"/>
    <dc:date>2026-07-21T22:23:36.768266</dc:date>
    <dc:format>image/svg+xml</dc:format>
    <dc:creator>
     <cc:Agent>
      <dc:title>Matplotlib v3.10.7, https://matplotlib.org/</dc:title>
     </cc:Agent>
    </dc:creator>
   </cc:Work>
  </rdf:RDF>
 </metadata>
 <defs>
  <style type="text/css">*{stroke-linejoin: round; stroke-linecap: butt}</style>
 </defs>
 <g id="figure_1">
  <g id="patch_1">
   <path d="M 0 316.066691 
L 820.21471 316.066691 
L 820.21471 0 
L 0 0 
z
" style="fill: #ffffff"/>
  </g>
  <g id="patch_2">
   <path d="M 7.2 308.16 
L 251.136 308.16 
L 251.136 64.224 
L 7.2 64.224 
z
" style="fill: #ffffff"/>
  </g>
  <g id="pane3d_1">
   <g id="patch_3">
    <path d="M 116.133862 213.708046 
L 230.404192 243.070349 
L 234.112442 108.182165 
L 115.55036 85.365939 
" style="fill: #f2f2f2; opacity: 0.5; stroke: #f2f2f2; stroke-linejoin: miter"/>
   </g>
  </g>
  <g id="pane3d_2">
   <g id="patch_4">
    <path d="M 116.133862 213.708046 
L 32.053107 256.699982 
L 28.151608 118.805136 
L 115.55036 85.365939 
" style="fill: #e6e6e6; opacity: 0.5; stroke: #e6e6e6; stroke-linejoin: miter"/>
   </g>
  </g>
  <g id="pane3d_3">
   <g id="patch_5">
    <path d="M 116.133862 213.708046 
L 32.053107 256.699982 
L 151.278588 291.381424 
L 230.404192 243.070349 
" style="fill: #ececec; opacity: 0.5; stroke: #ececec; stroke-linejoin: miter"/>
   </g>
  </g>
  <g id="grid3d_1">
   <g id="Line3DCollection_1">
    <path d="M 230.404192 243.070349 
L 116.133862 213.708046 
L 115.55036 85.365939 
" style="fill: none; stroke: #b0b0b0; stroke-width: 0.8"/>
    <path d="M 218.131415 250.563639 
L 103.038974 220.403688 
L 101.973302 90.560589 
" style="fill: none; stroke: #b0b0b0; stroke-width: 0.8"/>
    <path d="M 205.513302 258.267777 
L 89.596181 227.277219 
L 88.022284 95.898318 
" style="fill: none; stroke: #b0b0b0; stroke-width: 0.8"/>
    <path d="M 192.535068 266.191791 
L 75.791433 234.335824 
L 73.681642 101.385119 
" style="fill: none; stroke: #b0b0b0; stroke-width: 0.8"/>
    <path d="M 179.181075 274.34523 
L 61.609909 241.587081 
L 58.934821 107.027326 
" style="fill: none; stroke: #b0b0b0; stroke-width: 0.8"/>
    <path d="M 165.434764 282.738203 
L 47.035973 249.038985 
L 43.764319 112.831636 
" style="fill: none; stroke: #b0b0b0; stroke-width: 0.8"/>
    <path d="M 151.278588 291.381424 
L 32.053107 256.699982 
L 28.151608 118.805136 
" style="fill: none; stroke: #b0b0b0; stroke-width: 0.8"/>
   </g>
  </g>
  <g id="grid3d_2">
   <g id="Line3DCollection_2">
    <path d="M 115.55036 85.365939 
L 116.133862 213.708046 
L 32.053107 256.699982 
" style="fill: none; stroke: #b0b0b0; stroke-width: 0.8"/>
    <path d="M 134.374711 88.988519 
L 134.308208 218.378031 
L 50.938324 262.193494 
" style="fill: none; stroke: #b0b0b0; stroke-width: 0.8"/>
    <path d="M 153.559137 92.680392 
L 152.817982 223.134205 
L 70.202016 267.7971 
" style="fill: none; stroke: #b0b0b0; stroke-width: 0.8"/>
    <path d="M 173.11407 96.443566 
L 171.672555 227.978977 
L 89.855676 273.514143 
" style="fill: none; stroke: #b0b0b0; stroke-width: 0.8"/>
    <path d="M 193.050347 100.280127 
L 190.881655 232.914846 
L 109.911267 279.348104 
" style="fill: none; stroke: #b0b0b0; stroke-width: 0.8"/>
    <path d="M 213.379233 104.192242 
L 210.455373 237.944406 
L 130.381245 285.302606 
" style="fill: none; stroke: #b0b0b0; stroke-width: 0.8"/>
    <path d="M 234.112442 108.182165 
L 230.404192 243.070349 
L 151.278588 291.381424 
" style="fill: none; stroke: #b0b0b0; stroke-width: 0.8"/>
   </g>
  </g>
  <g id="grid3d_3">
   <g id="Line3DCollection_3">
    <path d="M 32.053107 256.699982 
L 116.133862 213.708046 
L 230.404192 243.070349 
" style="fill: none; stroke: #b0b0b0; stroke-width: 0.8"/>
    <path d="M 31.423251 234.438325 
L 116.039423 192.936188 
L 231.00333 221.276624 
" style="fill: none; stroke: #b0b0b0; stroke-width: 0.8"/>
    <path d="M 30.785444 211.895621 
L 115.943887 171.922688 
L 231.609843 199.214615 
" style="fill: none; stroke: #b0b0b0; stroke-width: 0.8"/>
    <path d="M 30.139534 189.066514 
L 115.847232 150.663306 
L 232.223868 176.879337 
" style="fill: none; stroke: #b0b0b0; stroke-width: 0.8"/>
    <path d="M 29.485364 165.945512 
L 115.749439 129.153701 
L 232.845547 154.265683 
" style="fill: none; stroke: #b0b0b0; stroke-width: 0.8"/>
    <path d="M 28.822777 142.526979 
L 115.650489 107.389428 
L 233.475022 131.368415 
" style="fill: none; stroke: #b0b0b0; stroke-width: 0.8"/>
    <path d="M 28.151608 118.805136 
L 115.55036 85.365939 
L 234.112442 108.182165 
" style="fill: none; stroke: #b0b0b0; stroke-width: 0.8"/>
   </g>
  </g>
  <g id="axis3d_1">
   <g id="line2d_1">
    <path d="M 230.404192 243.070349 
L 151.278588 291.381424 
" style="fill: none; stroke: #000000; stroke-width: 0.8; stroke-linecap: square"/>
   </g>
   <g id="xtick_1">
    <g id="line2d_2">
     <path d="M 229.437919 242.822061 
L 232.339409 243.567613 
" style="fill: none; stroke: #000000; stroke-width: 0.8; stroke-linecap: square"/>
    </g>
   </g>
   <g id="xtick_2">
    <g id="line2d_3">
     <path d="M 217.157462 250.308415 
L 220.082049 251.074802 
" style="fill: none; stroke: #000000; stroke-width: 0.8; stroke-linecap: square"/>
    </g>
   </g>
   <g id="xtick_3">
    <g id="line2d_4">
     <path d="M 204.531616 258.005323 
L 207.479461 258.793432 
" style="fill: none; stroke: #000000; stroke-width: 0.8; stroke-linecap: square"/>
    </g>
   </g>
   <g id="xtick_4">
    <g id="line2d_5">
     <path d="M 191.545602 265.921795 
L 194.516851 266.732563 
" style="fill: none; stroke: #000000; stroke-width: 0.8; stroke-linecap: square"/>
    </g>
   </g>
   <g id="xtick_5">
    <g id="line2d_6">
     <path d="M 178.183786 274.067361 
L 181.178568 274.901779 
" style="fill: none; stroke: #000000; stroke-width: 0.8; stroke-linecap: square"/>
    </g>
   </g>
   <g id="xtick_6">
    <g id="line2d_7">
     <path d="M 164.429616 282.452113 
L 167.44804 283.311231 
" style="fill: none; stroke: #000000; stroke-width: 0.8; stroke-linecap: square"/>
    </g>
   </g>
   <g id="xtick_7">
    <g id="line2d_8">
     <path d="M 150.265552 291.086742 
L 153.307708 291.971674 
" style="fill: none; stroke: #000000; stroke-width: 0.8; stroke-linecap: square"/>
    </g>
   </g>
  </g>
  <g id="axis3d_2">
   <g id="line2d_9">
    <path d="M 32.053107 256.699982 
L 151.278588 291.381424 
" style="fill: none; stroke: #000000; stroke-width: 0.8; stroke-linecap: square"/>
   </g>
   <g id="xtick_8">
    <g id="line2d_10">
     <path d="M 32.781883 256.327346 
L 30.592605 257.446762 
" style="fill: none; stroke: #000000; stroke-width: 0.8; stroke-linecap: square"/>
    </g>
   </g>
   <g id="xtick_9">
    <g id="line2d_11">
     <path d="M 51.661491 261.81343 
L 49.489036 262.955174 
" style="fill: none; stroke: #000000; stroke-width: 0.8; stroke-linecap: square"/>
    </g>
   </g>
   <g id="xtick_10">
    <g id="line2d_12">
     <path d="M 70.919201 267.409383 
L 68.764687 268.574132 
" style="fill: none; stroke: #000000; stroke-width: 0.8; stroke-linecap: square"/>
    </g>
   </g>
   <g id="xtick_11">
    <g id="line2d_13">
     <path d="M 90.566488 273.118541 
L 88.43109 274.306997 
" style="fill: none; stroke: #000000; stroke-width: 0.8; stroke-linecap: square"/>
    </g>
   </g>
   <g id="xtick_12">
    <g id="line2d_14">
     <path d="M 110.615293 278.944373 
L 108.500249 280.157266 
" style="fill: none; stroke: #000000; stroke-width: 0.8; stroke-linecap: square"/>
    </g>
   </g>
   <g id="xtick_13">
    <g id="line2d_15">
     <path d="M 131.078053 284.890493 
L 128.984664 286.128585 
" style="fill: none; stroke: #000000; stroke-width: 0.8; stroke-linecap: square"/>
    </g>
   </g>
   <g id="xtick_14">
    <g id="line2d_16">
     <path d="M 151.967721 290.960665 
L 149.897358 292.22475 
" style="fill: none; stroke: #000000; stroke-width: 0.8; stroke-linecap: square"/>
    </g>
   </g>
  </g>
  <g id="axis3d_3">
   <g id="line2d_17">
    <path d="M 32.053107 256.699982 
L 28.151608 118.805136 
" style="fill: none; stroke: #000000; stroke-width: 0.8; stroke-linecap: square"/>
   </g>
   <g id="xtick_15">
    <g id="line2d_18">
     <path d="M 32.781883 256.327346 
L 30.592605 257.446762 
" style="fill: none; stroke: #000000; stroke-width: 0.8; stroke-linecap: square"/>
    </g>
   </g>
   <g id="xtick_16">
    <g id="line2d_19">
     <path d="M 32.157023 234.078428 
L 29.952721 235.159583 
" style="fill: none; stroke: #000000; stroke-width: 0.8; stroke-linecap: square"/>
    </g>
   </g>
   <g id="xtick_17">
    <g id="line2d_20">
     <path d="M 31.524279 211.548816 
L 29.304748 212.590652 
" style="fill: none; stroke: #000000; stroke-width: 0.8; stroke-linecap: square"/>
    </g>
   </g>
   <g id="xtick_18">
    <g id="line2d_21">
     <path d="M 30.883501 188.733163 
L 28.648531 189.734591 
" style="fill: none; stroke: #000000; stroke-width: 0.8; stroke-linecap: square"/>
    </g>
   </g>
   <g id="xtick_19">
    <g id="line2d_22">
     <path d="M 30.234537 165.625988 
L 27.983911 166.585885 
" style="fill: none; stroke: #000000; stroke-width: 0.8; stroke-linecap: square"/>
    </g>
   </g>
   <g id="xtick_20">
    <g id="line2d_23">
     <path d="M 29.577227 142.221668 
L 27.310728 143.138877 
" style="fill: none; stroke: #000000; stroke-width: 0.8; stroke-linecap: square"/>
    </g>
   </g>
   <g id="xtick_21">
    <g id="line2d_24">
     <path d="M 28.911409 118.514433 
L 26.628813 119.387766 
" style="fill: none; stroke: #000000; stroke-width: 0.8; stroke-linecap: square"/>
    </g>
   </g>
  </g>
  <g id="axes_1">
   <g id="line2d_25">
    <path d="M 132.464432 182.895568 
L 103.921207 196.83766 
" clip-path="url(#pcec43a344a)" style="fill: none; stroke-dasharray: 5.18,2.24; stroke-dashoffset: 0; stroke: #d62728; stroke-opacity: 0.22; stroke-width: 1.4"/>
   </g>
   <g id="line2d_26">
    <path d="M 132.464432 182.895568 
L 172.876427 192.573637 
" clip-path="url(#pcec43a344a)" style="fill: none; stroke-dasharray: 5.18,2.24; stroke-dashoffset: 0; stroke: #2ca02c; stroke-opacity: 0.22; stroke-width: 1.4"/>
   </g>
   <g id="line2d_27">
    <path d="M 132.464432 182.895568 
L 132.464432 136.875969 
" clip-path="url(#pcec43a344a)" style="fill: none; stroke-dasharray: 5.18,2.24; stroke-dashoffset: 0; stroke: #1f77b4; stroke-opacity: 0.22; stroke-width: 1.4"/>
   </g>
   <g id="line2d_28">
    <path d="M 132.464432 182.895568 
L 103.921207 196.83766 
" clip-path="url(#pcec43a344a)" style="fill: none; stroke: #d62728; stroke-width: 2.6; stroke-linecap: square"/>
   </g>
   <g id="line2d_29">
    <path d="M 132.464432 182.895568 
L 172.876427 192.573637 
" clip-path="url(#pcec43a344a)" style="fill: none; stroke: #2ca02c; stroke-width: 2.6; stroke-linecap: square"/>
   </g>
   <g id="line2d_30">
    <path d="M 132.464432 182.895568 
L 132.464432 136.875969 
" clip-path="url(#pcec43a344a)" style="fill: none; stroke: #1f77b4; stroke-width: 2.6; stroke-linecap: square"/>
   </g>
   <g id="text_1">
    <!-- E -->
    <g style="fill: #d62728" transform="translate(97.540747 201.048775) scale(0.09 -0.09)">
     <defs>
      <path id="DejaVuSans-45" d="M 628 4666 
L 3578 4666 
L 3578 4134 
L 1259 4134 
L 1259 2753 
L 3481 2753 
L 3481 2222 
L 1259 2222 
L 1259 531 
L 3634 531 
L 3634 0 
L 628 0 
L 628 4666 
z
" transform="scale(0.015625)"/>
     </defs>
     <use xlink:href="#DejaVuSans-45"/>
    </g>
   </g>
   <g id="text_2">
    <!-- N -->
    <g style="fill: #2ca02c" transform="translate(174.469098 196.244737) scale(0.09 -0.09)">
     <defs>
      <path id="DejaVuSans-4e" d="M 628 4666 
L 1478 4666 
L 3547 763 
L 3547 4666 
L 4159 4666 
L 4159 0 
L 3309 0 
L 1241 3903 
L 1241 0 
L 628 0 
L 628 4666 
z
" transform="scale(0.015625)"/>
     </defs>
     <use xlink:href="#DejaVuSans-4e"/>
    </g>
   </g>
   <g id="text_3">
    <!-- U -->
    <g style="fill: #1f77b4" transform="translate(129.170995 133.758366) scale(0.09 -0.09)">
     <defs>
      <path id="DejaVuSans-55" d="M 556 4666 
L 1191 4666 
L 1191 1831 
Q 1191 1081 1462 751 
Q 1734 422 2344 422 
Q 2950 422 3222 751 
Q 3494 1081 3494 1831 
L 3494 4666 
L 4128 4666 
L 4128 1753 
Q 4128 841 3676 375 
Q 3225 -91 2344 -91 
Q 1459 -91 1007 375 
Q 556 841 556 1753 
L 556 4666 
z
" transform="scale(0.015625)"/>
     </defs>
     <use xlink:href="#DejaVuSans-55"/>
    </g>
   </g>
   <g id="text_4">
    <!-- ENU (local tangent) -->
    <g transform="translate(85.19175 48.145969) scale(0.09 -0.09)">
     <defs>
      <path id="DejaVuSans-20" transform="scale(0.015625)"/>
      <path id="DejaVuSans-28" d="M 1984 4856 
Q 1566 4138 1362 3434 
Q 1159 2731 1159 2009 
Q 1159 1288 1364 580 
Q 1569 -128 1984 -844 
L 1484 -844 
Q 1016 -109 783 600 
Q 550 1309 550 2009 
Q 550 2706 781 3412 
Q 1013 4119 1484 4856 
L 1984 4856 
z
" transform="scale(0.015625)"/>
      <path id="DejaVuSans-6c" d="M 603 4863 
L 1178 4863 
L 1178 0 
L 603 0 
L 603 4863 
z
" transform="scale(0.015625)"/>
      <path id="DejaVuSans-6f" d="M 1959 3097 
Q 1497 3097 1228 2736 
Q 959 2375 959 1747 
Q 959 1119 1226 758 
Q 1494 397 1959 397 
Q 2419 397 2687 759 
Q 2956 1122 2956 1747 
Q 2956 2369 2687 2733 
Q 2419 3097 1959 3097 
z
M 1959 3584 
Q 2709 3584 3137 3096 
Q 3566 2609 3566 1747 
Q 3566 888 3137 398 
Q 2709 -91 1959 -91 
Q 1206 -91 779 398 
Q 353 888 353 1747 
Q 353 2609 779 3096 
Q 1206 3584 1959 3584 
z
" transform="scale(0.015625)"/>
      <path id="DejaVuSans-63" d="M 3122 3366 
L 3122 2828 
Q 2878 2963 2633 3030 
Q 2388 3097 2138 3097 
Q 1578 3097 1268 2742 
Q 959 2388 959 1747 
Q 959 1106 1268 751 
Q 1578 397 2138 397 
Q 2388 397 2633 464 
Q 2878 531 3122 666 
L 3122 134 
Q 2881 22 2623 -34 
Q 2366 -91 2075 -91 
Q 1284 -91 818 406 
Q 353 903 353 1747 
Q 353 2603 823 3093 
Q 1294 3584 2113 3584 
Q 2378 3584 2631 3529 
Q 2884 3475 3122 3366 
z
" transform="scale(0.015625)"/>
      <path id="DejaVuSans-61" d="M 2194 1759 
Q 1497 1759 1228 1600 
Q 959 1441 959 1056 
Q 959 750 1161 570 
Q 1363 391 1709 391 
Q 2188 391 2477 730 
Q 2766 1069 2766 1631 
L 2766 1759 
L 2194 1759 
z
M 3341 1997 
L 3341 0 
L 2766 0 
L 2766 531 
Q 2569 213 2275 61 
Q 1981 -91 1556 -91 
Q 1019 -91 701 211 
Q 384 513 384 1019 
Q 384 1609 779 1909 
Q 1175 2209 1959 2209 
L 2766 2209 
L 2766 2266 
Q 2766 2663 2505 2880 
Q 2244 3097 1772 3097 
Q 1472 3097 1187 3025 
Q 903 2953 641 2809 
L 641 3341 
Q 956 3463 1253 3523 
Q 1550 3584 1831 3584 
Q 2591 3584 2966 3190 
Q 3341 2797 3341 1997 
z
" transform="scale(0.015625)"/>
      <path id="DejaVuSans-74" d="M 1172 4494 
L 1172 3500 
L 2356 3500 
L 2356 3053 
L 1172 3053 
L 1172 1153 
Q 1172 725 1289 603 
Q 1406 481 1766 481 
L 2356 481 
L 2356 0 
L 1766 0 
Q 1100 0 847 248 
Q 594 497 594 1153 
L 594 3053 
L 172 3053 
L 172 3500 
L 594 3500 
L 594 4494 
L 1172 4494 
z
" transform="scale(0.015625)"/>
      <path id="DejaVuSans-6e" d="M 3513 2113 
L 3513 0 
L 2938 0 
L 2938 2094 
Q 2938 2591 2744 2837 
Q 2550 3084 2163 3084 
Q 1697 3084 1428 2787 
Q 1159 2491 1159 1978 
L 1159 0 
L 581 0 
L 581 3500 
L 1159 3500 
L 1159 2956 
Q 1366 3272 1645 3428 
Q 1925 3584 2291 3584 
Q 2894 3584 3203 3211 
Q 3513 2838 3513 2113 
z
" transform="scale(0.015625)"/>
      <path id="DejaVuSans-67" d="M 2906 1791 
Q 2906 2416 2648 2759 
Q 2391 3103 1925 3103 
Q 1463 3103 1205 2759 
Q 947 2416 947 1791 
Q 947 1169 1205 825 
Q 1463 481 1925 481 
Q 2391 481 2648 825 
Q 2906 1169 2906 1791 
z
M 3481 434 
Q 3481 -459 3084 -895 
Q 2688 -1331 1869 -1331 
Q 1566 -1331 1297 -1286 
Q 1028 -1241 775 -1147 
L 775 -588 
Q 1028 -725 1275 -790 
Q 1522 -856 1778 -856 
Q 2344 -856 2625 -561 
Q 2906 -266 2906 331 
L 2906 616 
Q 2728 306 2450 153 
Q 2172 0 1784 0 
Q 1141 0 747 490 
Q 353 981 353 1791 
Q 353 2603 747 3093 
Q 1141 3584 1784 3584 
Q 2172 3584 2450 3431 
Q 2728 3278 2906 2969 
L 2906 3500 
L 3481 3500 
L 3481 434 
z
" transform="scale(0.015625)"/>
      <path id="DejaVuSans-65" d="M 3597 1894 
L 3597 1613 
L 953 1613 
Q 991 1019 1311 708 
Q 1631 397 2203 397 
Q 2534 397 2845 478 
Q 3156 559 3463 722 
L 3463 178 
Q 3153 47 2828 -22 
Q 2503 -91 2169 -91 
Q 1331 -91 842 396 
Q 353 884 353 1716 
Q 353 2575 817 3079 
Q 1281 3584 2069 3584 
Q 2775 3584 3186 3129 
Q 3597 2675 3597 1894 
z
M 3022 2063 
Q 3016 2534 2758 2815 
Q 2500 3097 2075 3097 
Q 1594 3097 1305 2825 
Q 1016 2553 972 2059 
L 3022 2063 
z
" transform="scale(0.015625)"/>
      <path id="DejaVuSans-29" d="M 513 4856 
L 1013 4856 
Q 1481 4119 1714 3412 
Q 1947 2706 1947 2009 
Q 1947 1309 1714 600 
Q 1481 -109 1013 -844 
L 513 -844 
Q 928 -128 1133 580 
Q 1338 1288 1338 2009 
Q 1338 2731 1133 3434 
Q 928 4138 513 4856 
z
" transform="scale(0.015625)"/>
     </defs>
     <use xlink:href="#DejaVuSans-45"/>
     <use xlink:href="#DejaVuSans-4e" transform="translate(63.183594 0)"/>
     <use xlink:href="#DejaVuSans-55" transform="translate(137.988281 0)"/>
     <use xlink:href="#DejaVuSans-20" transform="translate(211.181641 0)"/>
     <use xlink:href="#DejaVuSans-28" transform="translate(242.96875 0)"/>
     <use xlink:href="#DejaVuSans-6c" transform="translate(281.982422 0)"/>
     <use xlink:href="#DejaVuSans-6f" transform="translate(309.765625 0)"/>
     <use xlink:href="#DejaVuSans-63" transform="translate(370.947266 0)"/>
     <use xlink:href="#DejaVuSans-61" transform="translate(425.927734 0)"/>
     <use xlink:href="#DejaVuSans-6c" transform="translate(487.207031 0)"/>
     <use xlink:href="#DejaVuSans-20" transform="translate(514.990234 0)"/>
     <use xlink:href="#DejaVuSans-74" transform="translate(546.777344 0)"/>
     <use xlink:href="#DejaVuSans-61" transform="translate(585.986328 0)"/>
     <use xlink:href="#DejaVuSans-6e" transform="translate(647.265625 0)"/>
     <use xlink:href="#DejaVuSans-67" transform="translate(710.644531 0)"/>
     <use xlink:href="#DejaVuSans-65" transform="translate(774.121094 0)"/>
     <use xlink:href="#DejaVuSans-6e" transform="translate(835.644531 0)"/>
     <use xlink:href="#DejaVuSans-74" transform="translate(899.023438 0)"/>
     <use xlink:href="#DejaVuSans-29" transform="translate(938.232422 0)"/>
    </g>
    <!-- East, North, Up -->
    <g transform="translate(95.00175 58.224) scale(0.09 -0.09)">
     <defs>
      <path id="DejaVuSans-73" d="M 2834 3397 
L 2834 2853 
Q 2591 2978 2328 3040 
Q 2066 3103 1784 3103 
Q 1356 3103 1142 2972 
Q 928 2841 928 2578 
Q 928 2378 1081 2264 
Q 1234 2150 1697 2047 
L 1894 2003 
Q 2506 1872 2764 1633 
Q 3022 1394 3022 966 
Q 3022 478 2636 193 
Q 2250 -91 1575 -91 
Q 1294 -91 989 -36 
Q 684 19 347 128 
L 347 722 
Q 666 556 975 473 
Q 1284 391 1588 391 
Q 1994 391 2212 530 
Q 2431 669 2431 922 
Q 2431 1156 2273 1281 
Q 2116 1406 1581 1522 
L 1381 1569 
Q 847 1681 609 1914 
Q 372 2147 372 2553 
Q 372 3047 722 3315 
Q 1072 3584 1716 3584 
Q 2034 3584 2315 3537 
Q 2597 3491 2834 3397 
z
" transform="scale(0.015625)"/>
      <path id="DejaVuSans-2c" d="M 750 794 
L 1409 794 
L 1409 256 
L 897 -744 
L 494 -744 
L 750 256 
L 750 794 
z
" transform="scale(0.015625)"/>
      <path id="DejaVuSans-72" d="M 2631 2963 
Q 2534 3019 2420 3045 
Q 2306 3072 2169 3072 
Q 1681 3072 1420 2755 
Q 1159 2438 1159 1844 
L 1159 0 
L 581 0 
L 581 3500 
L 1159 3500 
L 1159 2956 
Q 1341 3275 1631 3429 
Q 1922 3584 2338 3584 
Q 2397 3584 2469 3576 
Q 2541 3569 2628 3553 
L 2631 2963 
z
" transform="scale(0.015625)"/>
      <path id="DejaVuSans-68" d="M 3513 2113 
L 3513 0 
L 2938 0 
L 2938 2094 
Q 2938 2591 2744 2837 
Q 2550 3084 2163 3084 
Q 1697 3084 1428 2787 
Q 1159 2491 1159 1978 
L 1159 0 
L 581 0 
L 581 4863 
L 1159 4863 
L 1159 2956 
Q 1366 3272 1645 3428 
Q 1925 3584 2291 3584 
Q 2894 3584 3203 3211 
Q 3513 2838 3513 2113 
z
" transform="scale(0.015625)"/>
      <path id="DejaVuSans-70" d="M 1159 525 
L 1159 -1331 
L 581 -1331 
L 581 3500 
L 1159 3500 
L 1159 2969 
Q 1341 3281 1617 3432 
Q 1894 3584 2278 3584 
Q 2916 3584 3314 3078 
Q 3713 2572 3713 1747 
Q 3713 922 3314 415 
Q 2916 -91 2278 -91 
Q 1894 -91 1617 61 
Q 1341 213 1159 525 
z
M 3116 1747 
Q 3116 2381 2855 2742 
Q 2594 3103 2138 3103 
Q 1681 3103 1420 2742 
Q 1159 2381 1159 1747 
Q 1159 1113 1420 752 
Q 1681 391 2138 391 
Q 2594 391 2855 752 
Q 3116 1113 3116 1747 
z
" transform="scale(0.015625)"/>
     </defs>
     <use xlink:href="#DejaVuSans-45"/>
     <use xlink:href="#DejaVuSans-61" transform="translate(63.183594 0)"/>
     <use xlink:href="#DejaVuSans-73" transform="translate(124.462891 0)"/>
     <use xlink:href="#DejaVuSans-74" transform="translate(176.5625 0)"/>
     <use xlink:href="#DejaVuSans-2c" transform="translate(215.771484 0)"/>
     <use xlink:href="#DejaVuSans-20" transform="translate(247.558594 0)"/>
     <use xlink:href="#DejaVuSans-4e" transform="translate(279.345703 0)"/>
     <use xlink:href="#DejaVuSans-6f" transform="translate(354.150391 0)"/>
     <use xlink:href="#DejaVuSans-72" transform="translate(415.332031 0)"/>
     <use xlink:href="#DejaVuSans-74" transform="translate(456.445312 0)"/>
     <use xlink:href="#DejaVuSans-68" transform="translate(495.654297 0)"/>
     <use xlink:href="#DejaVuSans-2c" transform="translate(559.033203 0)"/>
     <use xlink:href="#DejaVuSans-20" transform="translate(590.820312 0)"/>
     <use xlink:href="#DejaVuSans-55" transform="translate(622.607422 0)"/>
     <use xlink:href="#DejaVuSans-70" transform="translate(695.800781 0)"/>
    </g>
   </g>
  </g>
  <g id="patch_6">
   <path d="M 288.139355 308.16 
L 532.075355 308.16 
L 532.075355 64.224 
L 288.139355 64.224 
z
" style="fill: #ffffff"/>
  </g>
  <g id="pane3d_4">
   <g id="patch_7">
    <path d="M 397.073217 213.708046 
L 511.343547 243.070349 
L 515.051797 108.182165 
L 396.489715 85.365939 
" style="fill: #f2f2f2; opacity: 0.5; stroke: #f2f2f2; stroke-linejoin: miter"/>
   </g>
  </g>
  <g id="pane3d_5">
   <g id="patch_8">
    <path d="M 397.073217 213.708046 
L 312.992462 256.699982 
L 309.090963 118.805136 
L 396.489715 85.365939 
" style="fill: #e6e6e6; opacity: 0.5; stroke: #e6e6e6; stroke-linejoin: miter"/>
   </g>
  </g>
  <g id="pane3d_6">
   <g id="patch_9">
    <path d="M 397.073217 213.708046 
L 312.992462 256.699982 
L 432.217943 291.381424 
L 511.343547 243.070349 
" style="fill: #ececec; opacity: 0.5; stroke: #ececec; stroke-linejoin: miter"/>
   </g>
  </g>
  <g id="grid3d_4">
   <g id="Line3DCollection_4">
    <path d="M 511.343547 243.070349 
L 397.073217 213.708046 
L 396.489715 85.365939 
" style="fill: none; stroke: #b0b0b0; stroke-width: 0.8"/>
    <path d="M 499.07077 250.563639 
L 383.978329 220.403688 
L 382.912656 90.560589 
" style="fill: none; stroke: #b0b0b0; stroke-width: 0.8"/>
    <path d="M 486.452656 258.267777 
L 370.535536 227.277219 
L 368.961639 95.898318 
" style="fill: none; stroke: #b0b0b0; stroke-width: 0.8"/>
    <path d="M 473.474423 266.191791 
L 356.730787 234.335824 
L 354.620997 101.385119 
" style="fill: none; stroke: #b0b0b0; stroke-width: 0.8"/>
    <path d="M 460.12043 274.34523 
L 342.549264 241.587081 
L 339.874176 107.027326 
" style="fill: none; stroke: #b0b0b0; stroke-width: 0.8"/>
    <path d="M 446.374119 282.738203 
L 327.975327 249.038985 
L 324.703673 112.831636 
" style="fill: none; stroke: #b0b0b0; stroke-width: 0.8"/>
    <path d="M 432.217943 291.381424 
L 312.992462 256.699982 
L 309.090963 118.805136 
" style="fill: none; stroke: #b0b0b0; stroke-width: 0.8"/>
   </g>
  </g>
  <g id="grid3d_5">
   <g id="Line3DCollection_5">
    <path d="M 396.489715 85.365939 
L 397.073217 213.708046 
L 312.992462 256.699982 
" style="fill: none; stroke: #b0b0b0; stroke-width: 0.8"/>
    <path d="M 415.314066 88.988519 
L 415.247563 218.378031 
L 331.877679 262.193494 
" style="fill: none; stroke: #b0b0b0; stroke-width: 0.8"/>
    <path d="M 434.498492 92.680392 
L 433.757336 223.134205 
L 351.141371 267.7971 
" style="fill: none; stroke: #b0b0b0; stroke-width: 0.8"/>
    <path d="M 454.053425 96.443566 
L 452.61191 227.978977 
L 370.795031 273.514143 
" style="fill: none; stroke: #b0b0b0; stroke-width: 0.8"/>
    <path d="M 473.989702 100.280127 
L 471.82101 232.914846 
L 390.850622 279.348104 
" style="fill: none; stroke: #b0b0b0; stroke-width: 0.8"/>
    <path d="M 494.318588 104.192242 
L 491.394728 237.944406 
L 411.3206 285.302606 
" style="fill: none; stroke: #b0b0b0; stroke-width: 0.8"/>
    <path d="M 515.051797 108.182165 
L 511.343547 243.070349 
L 432.217943 291.381424 
" style="fill: none; stroke: #b0b0b0; stroke-width: 0.8"/>
   </g>
  </g>
  <g id="grid3d_6">
   <g id="Line3DCollection_6">
    <path d="M 312.992462 256.699982 
L 397.073217 213.708046 
L 511.343547 243.070349 
" style="fill: none; stroke: #b0b0b0; stroke-width: 0.8"/>
    <path d="M 312.362606 234.438325 
L 396.978778 192.936188 
L 511.942685 221.276624 
" style="fill: none; stroke: #b0b0b0; stroke-width: 0.8"/>
    <path d="M 311.724799 211.895621 
L 396.883241 171.922688 
L 512.549198 199.214615 
" style="fill: none; stroke: #b0b0b0; stroke-width: 0.8"/>
    <path d="M 311.078888 189.066514 
L 396.786587 150.663306 
L 513.163223 176.879337 
" style="fill: none; stroke: #b0b0b0; stroke-width: 0.8"/>
    <path d="M 310.424719 165.945512 
L 396.688794 129.153701 
L 513.784902 154.265683 
" style="fill: none; stroke: #b0b0b0; stroke-width: 0.8"/>
    <path d="M 309.762132 142.526979 
L 396.589844 107.389428 
L 514.414377 131.368415 
" style="fill: none; stroke: #b0b0b0; stroke-width: 0.8"/>
    <path d="M 309.090963 118.805136 
L 396.489715 85.365939 
L 515.051797 108.182165 
" style="fill: none; stroke: #b0b0b0; stroke-width: 0.8"/>
   </g>
  </g>
  <g id="axis3d_4">
   <g id="line2d_31">
    <path d="M 511.343547 243.070349 
L 432.217943 291.381424 
" style="fill: none; stroke: #000000; stroke-width: 0.8; stroke-linecap: square"/>
   </g>
   <g id="xtick_22">
    <g id="line2d_32">
     <path d="M 510.377273 242.822061 
L 513.278764 243.567613 
" style="fill: none; stroke: #000000; stroke-width: 0.8; stroke-linecap: square"/>
    </g>
   </g>
   <g id="xtick_23">
    <g id="line2d_33">
     <path d="M 498.096816 250.308415 
L 501.021404 251.074802 
" style="fill: none; stroke: #000000; stroke-width: 0.8; stroke-linecap: square"/>
    </g>
   </g>
   <g id="xtick_24">
    <g id="line2d_34">
     <path d="M 485.470971 258.005323 
L 488.418816 258.793432 
" style="fill: none; stroke: #000000; stroke-width: 0.8; stroke-linecap: square"/>
    </g>
   </g>
   <g id="xtick_25">
    <g id="line2d_35">
     <path d="M 472.484957 265.921795 
L 475.456206 266.732563 
" style="fill: none; stroke: #000000; stroke-width: 0.8; stroke-linecap: square"/>
    </g>
   </g>
   <g id="xtick_26">
    <g id="line2d_36">
     <path d="M 459.123141 274.067361 
L 462.117923 274.901779 
" style="fill: none; stroke: #000000; stroke-width: 0.8; stroke-linecap: square"/>
    </g>
   </g>
   <g id="xtick_27">
    <g id="line2d_37">
     <path d="M 445.368971 282.452113 
L 448.387395 283.311231 
" style="fill: none; stroke: #000000; stroke-width: 0.8; stroke-linecap: square"/>
    </g>
   </g>
   <g id="xtick_28">
    <g id="line2d_38">
     <path d="M 431.204907 291.086742 
L 434.247063 291.971674 
" style="fill: none; stroke: #000000; stroke-width: 0.8; stroke-linecap: square"/>
    </g>
   </g>
  </g>
  <g id="axis3d_5">
   <g id="line2d_39">
    <path d="M 312.992462 256.699982 
L 432.217943 291.381424 
" style="fill: none; stroke: #000000; stroke-width: 0.8; stroke-linecap: square"/>
   </g>
   <g id="xtick_29">
    <g id="line2d_40">
     <path d="M 313.721238 256.327346 
L 311.53196 257.446762 
" style="fill: none; stroke: #000000; stroke-width: 0.8; stroke-linecap: square"/>
    </g>
   </g>
   <g id="xtick_30">
    <g id="line2d_41">
     <path d="M 332.600845 261.81343 
L 330.42839 262.955174 
" style="fill: none; stroke: #000000; stroke-width: 0.8; stroke-linecap: square"/>
    </g>
   </g>
   <g id="xtick_31">
    <g id="line2d_42">
     <path d="M 351.858556 267.409383 
L 349.704041 268.574132 
" style="fill: none; stroke: #000000; stroke-width: 0.8; stroke-linecap: square"/>
    </g>
   </g>
   <g id="xtick_32">
    <g id="line2d_43">
     <path d="M 371.505843 273.118541 
L 369.370445 274.306997 
" style="fill: none; stroke: #000000; stroke-width: 0.8; stroke-linecap: square"/>
    </g>
   </g>
   <g id="xtick_33">
    <g id="line2d_44">
     <path d="M 391.554648 278.944373 
L 389.439604 280.157266 
" style="fill: none; stroke: #000000; stroke-width: 0.8; stroke-linecap: square"/>
    </g>
   </g>
   <g id="xtick_34">
    <g id="line2d_45">
     <path d="M 412.017408 284.890493 
L 409.924019 286.128585 
" style="fill: none; stroke: #000000; stroke-width: 0.8; stroke-linecap: square"/>
    </g>
   </g>
   <g id="xtick_35">
    <g id="line2d_46">
     <path d="M 432.907076 290.960665 
L 430.836713 292.22475 
" style="fill: none; stroke: #000000; stroke-width: 0.8; stroke-linecap: square"/>
    </g>
   </g>
  </g>
  <g id="axis3d_6">
   <g id="line2d_47">
    <path d="M 312.992462 256.699982 
L 309.090963 118.805136 
" style="fill: none; stroke: #000000; stroke-width: 0.8; stroke-linecap: square"/>
   </g>
   <g id="xtick_36">
    <g id="line2d_48">
     <path d="M 313.721238 256.327346 
L 311.53196 257.446762 
" style="fill: none; stroke: #000000; stroke-width: 0.8; stroke-linecap: square"/>
    </g>
   </g>
   <g id="xtick_37">
    <g id="line2d_49">
     <path d="M 313.096378 234.078428 
L 310.892076 235.159583 
" style="fill: none; stroke: #000000; stroke-width: 0.8; stroke-linecap: square"/>
    </g>
   </g>
   <g id="xtick_38">
    <g id="line2d_50">
     <path d="M 312.463634 211.548816 
L 310.244103 212.590652 
" style="fill: none; stroke: #000000; stroke-width: 0.8; stroke-linecap: square"/>
    </g>
   </g>
   <g id="xtick_39">
    <g id="line2d_51">
     <path d="M 311.822856 188.733163 
L 309.587885 189.734591 
" style="fill: none; stroke: #000000; stroke-width: 0.8; stroke-linecap: square"/>
    </g>
   </g>
   <g id="xtick_40">
    <g id="line2d_52">
     <path d="M 311.173891 165.625988 
L 308.923266 166.585885 
" style="fill: none; stroke: #000000; stroke-width: 0.8; stroke-linecap: square"/>
    </g>
   </g>
   <g id="xtick_41">
    <g id="line2d_53">
     <path d="M 310.516581 142.221668 
L 308.250082 143.138877 
" style="fill: none; stroke: #000000; stroke-width: 0.8; stroke-linecap: square"/>
    </g>
   </g>
   <g id="xtick_42">
    <g id="line2d_54">
     <path d="M 309.850764 118.514433 
L 307.568168 119.387766 
" style="fill: none; stroke: #000000; stroke-width: 0.8; stroke-linecap: square"/>
    </g>
   </g>
  </g>
  <g id="axes_2">
   <g id="line2d_55">
    <path d="M 413.403787 182.895568 
L 384.860562 196.83766 
" clip-path="url(#pb5f3503d52)" style="fill: none; stroke-dasharray: 5.18,2.24; stroke-dashoffset: 0; stroke: #d62728; stroke-opacity: 0.22; stroke-width: 1.4"/>
   </g>
   <g id="line2d_56">
    <path d="M 413.403787 182.895568 
L 453.815782 192.573637 
" clip-path="url(#pb5f3503d52)" style="fill: none; stroke-dasharray: 5.18,2.24; stroke-dashoffset: 0; stroke: #2ca02c; stroke-opacity: 0.22; stroke-width: 1.4"/>
   </g>
   <g id="line2d_57">
    <path d="M 413.403787 182.895568 
L 413.403787 136.875969 
" clip-path="url(#pb5f3503d52)" style="fill: none; stroke-dasharray: 5.18,2.24; stroke-dashoffset: 0; stroke: #1f77b4; stroke-opacity: 0.22; stroke-width: 1.4"/>
   </g>
   <g id="line2d_58">
    <path d="M 413.403787 182.895568 
L 453.815782 192.573637 
" clip-path="url(#pb5f3503d52)" style="fill: none; stroke: #d62728; stroke-width: 2.6; stroke-linecap: square"/>
   </g>
   <g id="line2d_59">
    <path d="M 413.403787 182.895568 
L 384.860562 196.83766 
" clip-path="url(#pb5f3503d52)" style="fill: none; stroke: #2ca02c; stroke-width: 2.6; stroke-linecap: square"/>
   </g>
   <g id="line2d_60">
    <path d="M 413.403787 182.895568 
L 413.403787 227.774965 
" clip-path="url(#pb5f3503d52)" style="fill: none; stroke: #1f77b4; stroke-width: 2.6; stroke-linecap: square"/>
   </g>
   <g id="text_5">
    <!-- N -->
    <g style="fill: #d62728" transform="translate(455.408453 196.244737) scale(0.09 -0.09)">
     <use xlink:href="#DejaVuSans-4e"/>
    </g>
   </g>
   <g id="text_6">
    <!-- E -->
    <g style="fill: #2ca02c" transform="translate(378.480102 201.048775) scale(0.09 -0.09)">
     <use xlink:href="#DejaVuSans-45"/>
    </g>
   </g>
   <g id="text_7">
    <!-- D -->
    <g style="fill: #1f77b4" transform="translate(409.938787 235.569318) scale(0.09 -0.09)">
     <defs>
      <path id="DejaVuSans-44" d="M 1259 4147 
L 1259 519 
L 2022 519 
Q 2988 519 3436 956 
Q 3884 1394 3884 2338 
Q 3884 3275 3436 3711 
Q 2988 4147 2022 4147 
L 1259 4147 
z
M 628 4666 
L 1925 4666 
Q 3281 4666 3915 4102 
Q 4550 3538 4550 2338 
Q 4550 1131 3912 565 
Q 3275 0 1925 0 
L 628 0 
L 628 4666 
z
" transform="scale(0.015625)"/>
     </defs>
     <use xlink:href="#DejaVuSans-44"/>
    </g>
   </g>
   <g id="text_8">
    <!-- NED, Eq. (2.5) -->
    <g transform="translate(378.343683 48.145969) scale(0.09 -0.09)">
     <defs>
      <path id="DejaVuSans-71" d="M 947 1747 
Q 947 1113 1208 752 
Q 1469 391 1925 391 
Q 2381 391 2643 752 
Q 2906 1113 2906 1747 
Q 2906 2381 2643 2742 
Q 2381 3103 1925 3103 
Q 1469 3103 1208 2742 
Q 947 2381 947 1747 
z
M 2906 525 
Q 2725 213 2448 61 
Q 2172 -91 1784 -91 
Q 1150 -91 751 415 
Q 353 922 353 1747 
Q 353 2572 751 3078 
Q 1150 3584 1784 3584 
Q 2172 3584 2448 3432 
Q 2725 3281 2906 2969 
L 2906 3500 
L 3481 3500 
L 3481 -1331 
L 2906 -1331 
L 2906 525 
z
" transform="scale(0.015625)"/>
      <path id="DejaVuSans-2e" d="M 684 794 
L 1344 794 
L 1344 0 
L 684 0 
L 684 794 
z
" transform="scale(0.015625)"/>
      <path id="DejaVuSans-32" d="M 1228 531 
L 3431 531 
L 3431 0 
L 469 0 
L 469 531 
Q 828 903 1448 1529 
Q 2069 2156 2228 2338 
Q 2531 2678 2651 2914 
Q 2772 3150 2772 3378 
Q 2772 3750 2511 3984 
Q 2250 4219 1831 4219 
Q 1534 4219 1204 4116 
Q 875 4013 500 3803 
L 500 4441 
Q 881 4594 1212 4672 
Q 1544 4750 1819 4750 
Q 2544 4750 2975 4387 
Q 3406 4025 3406 3419 
Q 3406 3131 3298 2873 
Q 3191 2616 2906 2266 
Q 2828 2175 2409 1742 
Q 1991 1309 1228 531 
z
" transform="scale(0.015625)"/>
      <path id="DejaVuSans-35" d="M 691 4666 
L 3169 4666 
L 3169 4134 
L 1269 4134 
L 1269 2991 
Q 1406 3038 1543 3061 
Q 1681 3084 1819 3084 
Q 2600 3084 3056 2656 
Q 3513 2228 3513 1497 
Q 3513 744 3044 326 
Q 2575 -91 1722 -91 
Q 1428 -91 1123 -41 
Q 819 9 494 109 
L 494 744 
Q 775 591 1075 516 
Q 1375 441 1709 441 
Q 2250 441 2565 725 
Q 2881 1009 2881 1497 
Q 2881 1984 2565 2268 
Q 2250 2553 1709 2553 
Q 1456 2553 1204 2497 
Q 953 2441 691 2322 
L 691 4666 
z
" transform="scale(0.015625)"/>
     </defs>
     <use xlink:href="#DejaVuSans-4e"/>
     <use xlink:href="#DejaVuSans-45" transform="translate(74.804688 0)"/>
     <use xlink:href="#DejaVuSans-44" transform="translate(137.988281 0)"/>
     <use xlink:href="#DejaVuSans-2c" transform="translate(214.990234 0)"/>
     <use xlink:href="#DejaVuSans-20" transform="translate(246.777344 0)"/>
     <use xlink:href="#DejaVuSans-45" transform="translate(278.564453 0)"/>
     <use xlink:href="#DejaVuSans-71" transform="translate(341.748047 0)"/>
     <use xlink:href="#DejaVuSans-2e" transform="translate(405.224609 0)"/>
     <use xlink:href="#DejaVuSans-20" transform="translate(437.011719 0)"/>
     <use xlink:href="#DejaVuSans-28" transform="translate(468.798828 0)"/>
     <use xlink:href="#DejaVuSans-32" transform="translate(507.8125 0)"/>
     <use xlink:href="#DejaVuSans-2e" transform="translate(571.435547 0)"/>
     <use xlink:href="#DejaVuSans-35" transform="translate(603.222656 0)"/>
     <use xlink:href="#DejaVuSans-29" transform="translate(666.845703 0)"/>
    </g>
    <!-- North, East, Down -->
    <g transform="translate(369.34087 58.224) scale(0.09 -0.09)">
     <defs>
      <path id="DejaVuSans-77" d="M 269 3500 
L 844 3500 
L 1563 769 
L 2278 3500 
L 2956 3500 
L 3675 769 
L 4391 3500 
L 4966 3500 
L 4050 0 
L 3372 0 
L 2619 2869 
L 1863 0 
L 1184 0 
L 269 3500 
z
" transform="scale(0.015625)"/>
     </defs>
     <use xlink:href="#DejaVuSans-4e"/>
     <use xlink:href="#DejaVuSans-6f" transform="translate(74.804688 0)"/>
     <use xlink:href="#DejaVuSans-72" transform="translate(135.986328 0)"/>
     <use xlink:href="#DejaVuSans-74" transform="translate(177.099609 0)"/>
     <use xlink:href="#DejaVuSans-68" transform="translate(216.308594 0)"/>
     <use xlink:href="#DejaVuSans-2c" transform="translate(279.6875 0)"/>
     <use xlink:href="#DejaVuSans-20" transform="translate(311.474609 0)"/>
     <use xlink:href="#DejaVuSans-45" transform="translate(343.261719 0)"/>
     <use xlink:href="#DejaVuSans-61" transform="translate(406.445312 0)"/>
     <use xlink:href="#DejaVuSans-73" transform="translate(467.724609 0)"/>
     <use xlink:href="#DejaVuSans-74" transform="translate(519.824219 0)"/>
     <use xlink:href="#DejaVuSans-2c" transform="translate(559.033203 0)"/>
     <use xlink:href="#DejaVuSans-20" transform="translate(590.820312 0)"/>
     <use xlink:href="#DejaVuSans-44" transform="translate(622.607422 0)"/>
     <use xlink:href="#DejaVuSans-6f" transform="translate(699.609375 0)"/>
     <use xlink:href="#DejaVuSans-77" transform="translate(760.791016 0)"/>
     <use xlink:href="#DejaVuSans-6e" transform="translate(842.578125 0)"/>
    </g>
   </g>
  </g>
  <g id="patch_10">
   <path d="M 569.07871 308.16 
L 813.01471 308.16 
L 813.01471 64.224 
L 569.07871 64.224 
z
" style="fill: #ffffff"/>
  </g>
  <g id="pane3d_7">
   <g id="patch_11">
    <path d="M 678.012571 213.708046 
L 792.282902 243.070349 
L 795.991152 108.182165 
L 677.42907 85.365939 
" style="fill: #f2f2f2; opacity: 0.5; stroke: #f2f2f2; stroke-linejoin: miter"/>
   </g>
  </g>
  <g id="pane3d_8">
   <g id="patch_12">
    <path d="M 678.012571 213.708046 
L 593.931817 256.699982 
L 590.030318 118.805136 
L 677.42907 85.365939 
" style="fill: #e6e6e6; opacity: 0.5; stroke: #e6e6e6; stroke-linejoin: miter"/>
   </g>
  </g>
  <g id="pane3d_9">
   <g id="patch_13">
    <path d="M 678.012571 213.708046 
L 593.931817 256.699982 
L 713.157297 291.381424 
L 792.282902 243.070349 
" style="fill: #ececec; opacity: 0.5; stroke: #ececec; stroke-linejoin: miter"/>
   </g>
  </g>
  <g id="grid3d_7">
   <g id="Line3DCollection_7">
    <path d="M 792.282902 243.070349 
L 678.012571 213.708046 
L 677.42907 85.365939 
" style="fill: none; stroke: #b0b0b0; stroke-width: 0.8"/>
    <path d="M 780.010125 250.563639 
L 664.917684 220.403688 
L 663.852011 90.560589 
" style="fill: none; stroke: #b0b0b0; stroke-width: 0.8"/>
    <path d="M 767.392011 258.267777 
L 651.474891 227.277219 
L 649.900994 95.898318 
" style="fill: none; stroke: #b0b0b0; stroke-width: 0.8"/>
    <path d="M 754.413778 266.191791 
L 637.670142 234.335824 
L 635.560351 101.385119 
" style="fill: none; stroke: #b0b0b0; stroke-width: 0.8"/>
    <path d="M 741.059785 274.34523 
L 623.488619 241.587081 
L 620.813531 107.027326 
" style="fill: none; stroke: #b0b0b0; stroke-width: 0.8"/>
    <path d="M 727.313474 282.738203 
L 608.914682 249.038985 
L 605.643028 112.831636 
" style="fill: none; stroke: #b0b0b0; stroke-width: 0.8"/>
    <path d="M 713.157297 291.381424 
L 593.931817 256.699982 
L 590.030318 118.805136 
" style="fill: none; stroke: #b0b0b0; stroke-width: 0.8"/>
   </g>
  </g>
  <g id="grid3d_8">
   <g id="Line3DCollection_8">
    <path d="M 677.42907 85.365939 
L 678.012571 213.708046 
L 593.931817 256.699982 
" style="fill: none; stroke: #b0b0b0; stroke-width: 0.8"/>
    <path d="M 696.253421 88.988519 
L 696.186917 218.378031 
L 612.817034 262.193494 
" style="fill: none; stroke: #b0b0b0; stroke-width: 0.8"/>
    <path d="M 715.437847 92.680392 
L 714.696691 223.134205 
L 632.080726 267.7971 
" style="fill: none; stroke: #b0b0b0; stroke-width: 0.8"/>
    <path d="M 734.992779 96.443566 
L 733.551265 227.978977 
L 651.734386 273.514143 
" style="fill: none; stroke: #b0b0b0; stroke-width: 0.8"/>
    <path d="M 754.929057 100.280127 
L 752.760364 232.914846 
L 671.789977 279.348104 
" style="fill: none; stroke: #b0b0b0; stroke-width: 0.8"/>
    <path d="M 775.257943 104.192242 
L 772.334083 237.944406 
L 692.259955 285.302606 
" style="fill: none; stroke: #b0b0b0; stroke-width: 0.8"/>
    <path d="M 795.991152 108.182165 
L 792.282902 243.070349 
L 713.157297 291.381424 
" style="fill: none; stroke: #b0b0b0; stroke-width: 0.8"/>
   </g>
  </g>
  <g id="grid3d_9">
   <g id="Line3DCollection_9">
    <path d="M 593.931817 256.699982 
L 678.012571 213.708046 
L 792.282902 243.070349 
" style="fill: none; stroke: #b0b0b0; stroke-width: 0.8"/>
    <path d="M 593.301961 234.438325 
L 677.918133 192.936188 
L 792.88204 221.276624 
" style="fill: none; stroke: #b0b0b0; stroke-width: 0.8"/>
    <path d="M 592.664154 211.895621 
L 677.822596 171.922688 
L 793.488553 199.214615 
" style="fill: none; stroke: #b0b0b0; stroke-width: 0.8"/>
    <path d="M 592.018243 189.066514 
L 677.725941 150.663306 
L 794.102578 176.879337 
" style="fill: none; stroke: #b0b0b0; stroke-width: 0.8"/>
    <path d="M 591.364074 165.945512 
L 677.628149 129.153701 
L 794.724257 154.265683 
" style="fill: none; stroke: #b0b0b0; stroke-width: 0.8"/>
    <path d="M 590.701487 142.526979 
L 677.529199 107.389428 
L 795.353732 131.368415 
" style="fill: none; stroke: #b0b0b0; stroke-width: 0.8"/>
    <path d="M 590.030318 118.805136 
L 677.42907 85.365939 
L 795.991152 108.182165 
" style="fill: none; stroke: #b0b0b0; stroke-width: 0.8"/>
   </g>
  </g>
  <g id="axis3d_7">
   <g id="line2d_61">
    <path d="M 792.282902 243.070349 
L 713.157297 291.381424 
" style="fill: none; stroke: #000000; stroke-width: 0.8; stroke-linecap: square"/>
   </g>
   <g id="xtick_43">
    <g id="line2d_62">
     <path d="M 791.316628 242.822061 
L 794.218119 243.567613 
" style="fill: none; stroke: #000000; stroke-width: 0.8; stroke-linecap: square"/>
    </g>
   </g>
   <g id="xtick_44">
    <g id="line2d_63">
     <path d="M 779.036171 250.308415 
L 781.960759 251.074802 
" style="fill: none; stroke: #000000; stroke-width: 0.8; stroke-linecap: square"/>
    </g>
   </g>
   <g id="xtick_45">
    <g id="line2d_64">
     <path d="M 766.410325 258.005323 
L 769.358171 258.793432 
" style="fill: none; stroke: #000000; stroke-width: 0.8; stroke-linecap: square"/>
    </g>
   </g>
   <g id="xtick_46">
    <g id="line2d_65">
     <path d="M 753.424312 265.921795 
L 756.395561 266.732563 
" style="fill: none; stroke: #000000; stroke-width: 0.8; stroke-linecap: square"/>
    </g>
   </g>
   <g id="xtick_47">
    <g id="line2d_66">
     <path d="M 740.062496 274.067361 
L 743.057277 274.901779 
" style="fill: none; stroke: #000000; stroke-width: 0.8; stroke-linecap: square"/>
    </g>
   </g>
   <g id="xtick_48">
    <g id="line2d_67">
     <path d="M 726.308326 282.452113 
L 729.32675 283.311231 
" style="fill: none; stroke: #000000; stroke-width: 0.8; stroke-linecap: square"/>
    </g>
   </g>
   <g id="xtick_49">
    <g id="line2d_68">
     <path d="M 712.144262 291.086742 
L 715.186418 291.971674 
" style="fill: none; stroke: #000000; stroke-width: 0.8; stroke-linecap: square"/>
    </g>
   </g>
  </g>
  <g id="axis3d_8">
   <g id="line2d_69">
    <path d="M 593.931817 256.699982 
L 713.157297 291.381424 
" style="fill: none; stroke: #000000; stroke-width: 0.8; stroke-linecap: square"/>
   </g>
   <g id="xtick_50">
    <g id="line2d_70">
     <path d="M 594.660593 256.327346 
L 592.471315 257.446762 
" style="fill: none; stroke: #000000; stroke-width: 0.8; stroke-linecap: square"/>
    </g>
   </g>
   <g id="xtick_51">
    <g id="line2d_71">
     <path d="M 613.5402 261.81343 
L 611.367745 262.955174 
" style="fill: none; stroke: #000000; stroke-width: 0.8; stroke-linecap: square"/>
    </g>
   </g>
   <g id="xtick_52">
    <g id="line2d_72">
     <path d="M 632.797911 267.409383 
L 630.643396 268.574132 
" style="fill: none; stroke: #000000; stroke-width: 0.8; stroke-linecap: square"/>
    </g>
   </g>
   <g id="xtick_53">
    <g id="line2d_73">
     <path d="M 652.445198 273.118541 
L 650.3098 274.306997 
" style="fill: none; stroke: #000000; stroke-width: 0.8; stroke-linecap: square"/>
    </g>
   </g>
   <g id="xtick_54">
    <g id="line2d_74">
     <path d="M 672.494003 278.944373 
L 670.378959 280.157266 
" style="fill: none; stroke: #000000; stroke-width: 0.8; stroke-linecap: square"/>
    </g>
   </g>
   <g id="xtick_55">
    <g id="line2d_75">
     <path d="M 692.956763 284.890493 
L 690.863374 286.128585 
" style="fill: none; stroke: #000000; stroke-width: 0.8; stroke-linecap: square"/>
    </g>
   </g>
   <g id="xtick_56">
    <g id="line2d_76">
     <path d="M 713.846431 290.960665 
L 711.776068 292.22475 
" style="fill: none; stroke: #000000; stroke-width: 0.8; stroke-linecap: square"/>
    </g>
   </g>
  </g>
  <g id="axis3d_9">
   <g id="line2d_77">
    <path d="M 593.931817 256.699982 
L 590.030318 118.805136 
" style="fill: none; stroke: #000000; stroke-width: 0.8; stroke-linecap: square"/>
   </g>
   <g id="xtick_57">
    <g id="line2d_78">
     <path d="M 594.660593 256.327346 
L 592.471315 257.446762 
" style="fill: none; stroke: #000000; stroke-width: 0.8; stroke-linecap: square"/>
    </g>
   </g>
   <g id="xtick_58">
    <g id="line2d_79">
     <path d="M 594.035732 234.078428 
L 591.831431 235.159583 
" style="fill: none; stroke: #000000; stroke-width: 0.8; stroke-linecap: square"/>
    </g>
   </g>
   <g id="xtick_59">
    <g id="line2d_80">
     <path d="M 593.402988 211.548816 
L 591.183457 212.590652 
" style="fill: none; stroke: #000000; stroke-width: 0.8; stroke-linecap: square"/>
    </g>
   </g>
   <g id="xtick_60">
    <g id="line2d_81">
     <path d="M 592.762211 188.733163 
L 590.52724 189.734591 
" style="fill: none; stroke: #000000; stroke-width: 0.8; stroke-linecap: square"/>
    </g>
   </g>
   <g id="xtick_61">
    <g id="line2d_82">
     <path d="M 592.113246 165.625988 
L 589.862621 166.585885 
" style="fill: none; stroke: #000000; stroke-width: 0.8; stroke-linecap: square"/>
    </g>
   </g>
   <g id="xtick_62">
    <g id="line2d_83">
     <path d="M 591.455936 142.221668 
L 589.189437 143.138877 
" style="fill: none; stroke: #000000; stroke-width: 0.8; stroke-linecap: square"/>
    </g>
   </g>
   <g id="xtick_63">
    <g id="line2d_84">
     <path d="M 590.790119 118.514433 
L 588.507522 119.387766 
" style="fill: none; stroke: #000000; stroke-width: 0.8; stroke-linecap: square"/>
    </g>
   </g>
  </g>
  <g id="axes_3">
   <g id="line2d_85">
    <path d="M 694.343142 182.895568 
L 665.799916 196.83766 
" clip-path="url(#p199bd2424d)" style="fill: none; stroke-dasharray: 5.18,2.24; stroke-dashoffset: 0; stroke: #d62728; stroke-opacity: 0.22; stroke-width: 1.4"/>
   </g>
   <g id="line2d_86">
    <path d="M 694.343142 182.895568 
L 734.755136 192.573637 
" clip-path="url(#p199bd2424d)" style="fill: none; stroke-dasharray: 5.18,2.24; stroke-dashoffset: 0; stroke: #2ca02c; stroke-opacity: 0.22; stroke-width: 1.4"/>
   </g>
   <g id="line2d_87">
    <path d="M 694.343142 182.895568 
L 694.343142 136.875969 
" clip-path="url(#p199bd2424d)" style="fill: none; stroke-dasharray: 5.18,2.24; stroke-dashoffset: 0; stroke: #1f77b4; stroke-opacity: 0.22; stroke-width: 1.4"/>
   </g>
   <g id="line2d_88">
    <path d="M 694.343142 182.895568 
L 698.539817 211.425706 
" clip-path="url(#p199bd2424d)" style="fill: none; stroke: #d62728; stroke-width: 2.6; stroke-linecap: square"/>
   </g>
   <g id="line2d_89">
    <path d="M 694.343142 182.895568 
L 742.008239 174.588637 
" clip-path="url(#p199bd2424d)" style="fill: none; stroke: #2ca02c; stroke-width: 2.6; stroke-linecap: square"/>
   </g>
   <g id="line2d_90">
    <path d="M 694.343142 182.895568 
L 686.894018 143.278437 
" clip-path="url(#p199bd2424d)" style="fill: none; stroke: #1f77b4; stroke-width: 2.6; stroke-linecap: square"/>
   </g>
   <g id="text_9">
    <!-- x -->
    <g style="fill: #d62728" transform="translate(696.397438 217.451448) scale(0.09 -0.09)">
     <defs>
      <path id="DejaVuSans-78" d="M 3513 3500 
L 2247 1797 
L 3578 0 
L 2900 0 
L 1881 1375 
L 863 0 
L 184 0 
L 1544 1831 
L 300 3500 
L 978 3500 
L 1906 2253 
L 2834 3500 
L 3513 3500 
z
" transform="scale(0.015625)"/>
     </defs>
     <use xlink:href="#DejaVuSans-78"/>
    </g>
   </g>
   <g id="text_10">
    <!-- y -->
    <g style="fill: #2ca02c" transform="translate(745.06903 176.074473) scale(0.09 -0.09)">
     <defs>
      <path id="DejaVuSans-79" d="M 2059 -325 
Q 1816 -950 1584 -1140 
Q 1353 -1331 966 -1331 
L 506 -1331 
L 506 -850 
L 844 -850 
Q 1081 -850 1212 -737 
Q 1344 -625 1503 -206 
L 1606 56 
L 191 3500 
L 800 3500 
L 1894 763 
L 2988 3500 
L 3597 3500 
L 2059 -325 
z
" transform="scale(0.015625)"/>
     </defs>
     <use xlink:href="#DejaVuSans-79"/>
    </g>
   </g>
   <g id="text_11">
    <!-- z -->
    <g style="fill: #1f77b4" transform="translate(683.616581 140.892168) scale(0.09 -0.09)">
     <defs>
      <path id="DejaVuSans-7a" d="M 353 3500 
L 3084 3500 
L 3084 2975 
L 922 459 
L 3084 459 
L 3084 0 
L 275 0 
L 275 525 
L 2438 3041 
L 353 3041 
L 353 3500 
z
" transform="scale(0.015625)"/>
     </defs>
     <use xlink:href="#DejaVuSans-7a"/>
    </g>
   </g>
   <g id="text_12">
    <!-- Body, Eqs. (2.6)/(2.7) -->
    <g transform="translate(643.068975 48.145969) scale(0.09 -0.09)">
     <defs>
      <path id="DejaVuSans-42" d="M 1259 2228 
L 1259 519 
L 2272 519 
Q 2781 519 3026 730 
Q 3272 941 3272 1375 
Q 3272 1813 3026 2020 
Q 2781 2228 2272 2228 
L 1259 2228 
z
M 1259 4147 
L 1259 2741 
L 2194 2741 
Q 2656 2741 2882 2914 
Q 3109 3088 3109 3444 
Q 3109 3797 2882 3972 
Q 2656 4147 2194 4147 
L 1259 4147 
z
M 628 4666 
L 2241 4666 
Q 2963 4666 3353 4366 
Q 3744 4066 3744 3513 
Q 3744 3084 3544 2831 
Q 3344 2578 2956 2516 
Q 3422 2416 3680 2098 
Q 3938 1781 3938 1306 
Q 3938 681 3513 340 
Q 3088 0 2303 0 
L 628 0 
L 628 4666 
z
" transform="scale(0.015625)"/>
      <path id="DejaVuSans-64" d="M 2906 2969 
L 2906 4863 
L 3481 4863 
L 3481 0 
L 2906 0 
L 2906 525 
Q 2725 213 2448 61 
Q 2172 -91 1784 -91 
Q 1150 -91 751 415 
Q 353 922 353 1747 
Q 353 2572 751 3078 
Q 1150 3584 1784 3584 
Q 2172 3584 2448 3432 
Q 2725 3281 2906 2969 
z
M 947 1747 
Q 947 1113 1208 752 
Q 1469 391 1925 391 
Q 2381 391 2643 752 
Q 2906 1113 2906 1747 
Q 2906 2381 2643 2742 
Q 2381 3103 1925 3103 
Q 1469 3103 1208 2742 
Q 947 2381 947 1747 
z
" transform="scale(0.015625)"/>
      <path id="DejaVuSans-36" d="M 2113 2584 
Q 1688 2584 1439 2293 
Q 1191 2003 1191 1497 
Q 1191 994 1439 701 
Q 1688 409 2113 409 
Q 2538 409 2786 701 
Q 3034 994 3034 1497 
Q 3034 2003 2786 2293 
Q 2538 2584 2113 2584 
z
M 3366 4563 
L 3366 3988 
Q 3128 4100 2886 4159 
Q 2644 4219 2406 4219 
Q 1781 4219 1451 3797 
Q 1122 3375 1075 2522 
Q 1259 2794 1537 2939 
Q 1816 3084 2150 3084 
Q 2853 3084 3261 2657 
Q 3669 2231 3669 1497 
Q 3669 778 3244 343 
Q 2819 -91 2113 -91 
Q 1303 -91 875 529 
Q 447 1150 447 2328 
Q 447 3434 972 4092 
Q 1497 4750 2381 4750 
Q 2619 4750 2861 4703 
Q 3103 4656 3366 4563 
z
" transform="scale(0.015625)"/>
      <path id="DejaVuSans-2f" d="M 1625 4666 
L 2156 4666 
L 531 -594 
L 0 -594 
L 1625 4666 
z
" transform="scale(0.015625)"/>
      <path id="DejaVuSans-37" d="M 525 4666 
L 3525 4666 
L 3525 4397 
L 1831 0 
L 1172 0 
L 2766 4134 
L 525 4134 
L 525 4666 
z
" transform="scale(0.015625)"/>
     </defs>
     <use xlink:href="#DejaVuSans-42"/>
     <use xlink:href="#DejaVuSans-6f" transform="translate(68.603516 0)"/>
     <use xlink:href="#DejaVuSans-64" transform="translate(129.785156 0)"/>
     <use xlink:href="#DejaVuSans-79" transform="translate(193.261719 0)"/>
     <use xlink:href="#DejaVuSans-2c" transform="translate(252.441406 0)"/>
     <use xlink:href="#DejaVuSans-20" transform="translate(284.228516 0)"/>
     <use xlink:href="#DejaVuSans-45" transform="translate(316.015625 0)"/>
     <use xlink:href="#DejaVuSans-71" transform="translate(379.199219 0)"/>
     <use xlink:href="#DejaVuSans-73" transform="translate(442.675781 0)"/>
     <use xlink:href="#DejaVuSans-2e" transform="translate(494.775391 0)"/>
     <use xlink:href="#DejaVuSans-20" transform="translate(526.5625 0)"/>
     <use xlink:href="#DejaVuSans-28" transform="translate(558.349609 0)"/>
     <use xlink:href="#DejaVuSans-32" transform="translate(597.363281 0)"/>
     <use xlink:href="#DejaVuSans-2e" transform="translate(660.986328 0)"/>
     <use xlink:href="#DejaVuSans-36" transform="translate(692.773438 0)"/>
     <use xlink:href="#DejaVuSans-29" transform="translate(756.396484 0)"/>
     <use xlink:href="#DejaVuSans-2f" transform="translate(795.410156 0)"/>
     <use xlink:href="#DejaVuSans-28" transform="translate(829.101562 0)"/>
     <use xlink:href="#DejaVuSans-32" transform="translate(868.115234 0)"/>
     <use xlink:href="#DejaVuSans-2e" transform="translate(931.738281 0)"/>
     <use xlink:href="#DejaVuSans-37" transform="translate(963.525391 0)"/>
     <use xlink:href="#DejaVuSans-29" transform="translate(1027.148438 0)"/>
    </g>
    <!-- roll 15, pitch 10, yaw 40 -->
    <g transform="translate(636.555928 58.224) scale(0.09 -0.09)">
     <defs>
      <path id="DejaVuSans-31" d="M 794 531 
L 1825 531 
L 1825 4091 
L 703 3866 
L 703 4441 
L 1819 4666 
L 2450 4666 
L 2450 531 
L 3481 531 
L 3481 0 
L 794 0 
L 794 531 
z
" transform="scale(0.015625)"/>
      <path id="DejaVuSans-69" d="M 603 3500 
L 1178 3500 
L 1178 0 
L 603 0 
L 603 3500 
z
M 603 4863 
L 1178 4863 
L 1178 4134 
L 603 4134 
L 603 4863 
z
" transform="scale(0.015625)"/>
      <path id="DejaVuSans-30" d="M 2034 4250 
Q 1547 4250 1301 3770 
Q 1056 3291 1056 2328 
Q 1056 1369 1301 889 
Q 1547 409 2034 409 
Q 2525 409 2770 889 
Q 3016 1369 3016 2328 
Q 3016 3291 2770 3770 
Q 2525 4250 2034 4250 
z
M 2034 4750 
Q 2819 4750 3233 4129 
Q 3647 3509 3647 2328 
Q 3647 1150 3233 529 
Q 2819 -91 2034 -91 
Q 1250 -91 836 529 
Q 422 1150 422 2328 
Q 422 3509 836 4129 
Q 1250 4750 2034 4750 
z
" transform="scale(0.015625)"/>
      <path id="DejaVuSans-34" d="M 2419 4116 
L 825 1625 
L 2419 1625 
L 2419 4116 
z
M 2253 4666 
L 3047 4666 
L 3047 1625 
L 3713 1625 
L 3713 1100 
L 3047 1100 
L 3047 0 
L 2419 0 
L 2419 1100 
L 313 1100 
L 313 1709 
L 2253 4666 
z
" transform="scale(0.015625)"/>
     </defs>
     <use xlink:href="#DejaVuSans-72"/>
     <use xlink:href="#DejaVuSans-6f" transform="translate(38.863281 0)"/>
     <use xlink:href="#DejaVuSans-6c" transform="translate(100.044922 0)"/>
     <use xlink:href="#DejaVuSans-6c" transform="translate(127.828125 0)"/>
     <use xlink:href="#DejaVuSans-20" transform="translate(155.611328 0)"/>
     <use xlink:href="#DejaVuSans-31" transform="translate(187.398438 0)"/>
     <use xlink:href="#DejaVuSans-35" transform="translate(251.021484 0)"/>
     <use xlink:href="#DejaVuSans-2c" transform="translate(314.644531 0)"/>
     <use xlink:href="#DejaVuSans-20" transform="translate(346.431641 0)"/>
     <use xlink:href="#DejaVuSans-70" transform="translate(378.21875 0)"/>
     <use xlink:href="#DejaVuSans-69" transform="translate(441.695312 0)"/>
     <use xlink:href="#DejaVuSans-74" transform="translate(469.478516 0)"/>
     <use xlink:href="#DejaVuSans-63" transform="translate(508.6875 0)"/>
     <use xlink:href="#DejaVuSans-68" transform="translate(563.667969 0)"/>
     <use xlink:href="#DejaVuSans-20" transform="translate(627.046875 0)"/>
     <use xlink:href="#DejaVuSans-31" transform="translate(658.833984 0)"/>
     <use xlink:href="#DejaVuSans-30" transform="translate(722.457031 0)"/>
     <use xlink:href="#DejaVuSans-2c" transform="translate(786.080078 0)"/>
     <use xlink:href="#DejaVuSans-20" transform="translate(817.867188 0)"/>
     <use xlink:href="#DejaVuSans-79" transform="translate(849.654297 0)"/>
     <use xlink:href="#DejaVuSans-61" transform="translate(908.833984 0)"/>
     <use xlink:href="#DejaVuSans-77" transform="translate(970.113281 0)"/>
     <use xlink:href="#DejaVuSans-20" transform="translate(1051.900391 0)"/>
     <use xlink:href="#DejaVuSans-34" transform="translate(1083.6875 0)"/>
     <use xlink:href="#DejaVuSans-30" transform="translate(1147.310547 0)"/>
    </g>
   </g>
  </g>
  <g id="text_13">
   <!-- Frame chain: dashed ENU reference behind each frame. NED is a handedness-preserving swap-and-flip of ENU, not a rotation. -->
   <g transform="translate(62.811574 15.558281) scale(0.11 -0.11)">
    <defs>
     <path id="DejaVuSans-46" d="M 628 4666 
L 3309 4666 
L 3309 4134 
L 1259 4134 
L 1259 2759 
L 3109 2759 
L 3109 2228 
L 1259 2228 
L 1259 0 
L 628 0 
L 628 4666 
z
" transform="scale(0.015625)"/>
     <path id="DejaVuSans-6d" d="M 3328 2828 
Q 3544 3216 3844 3400 
Q 4144 3584 4550 3584 
Q 5097 3584 5394 3201 
Q 5691 2819 5691 2113 
L 5691 0 
L 5113 0 
L 5113 2094 
Q 5113 2597 4934 2840 
Q 4756 3084 4391 3084 
Q 3944 3084 3684 2787 
Q 3425 2491 3425 1978 
L 3425 0 
L 2847 0 
L 2847 2094 
Q 2847 2600 2669 2842 
Q 2491 3084 2119 3084 
Q 1678 3084 1418 2786 
Q 1159 2488 1159 1978 
L 1159 0 
L 581 0 
L 581 3500 
L 1159 3500 
L 1159 2956 
Q 1356 3278 1631 3431 
Q 1906 3584 2284 3584 
Q 2666 3584 2933 3390 
Q 3200 3197 3328 2828 
z
" transform="scale(0.015625)"/>
     <path id="DejaVuSans-3a" d="M 750 794 
L 1409 794 
L 1409 0 
L 750 0 
L 750 794 
z
M 750 3309 
L 1409 3309 
L 1409 2516 
L 750 2516 
L 750 3309 
z
" transform="scale(0.015625)"/>
     <path id="DejaVuSans-66" d="M 2375 4863 
L 2375 4384 
L 1825 4384 
Q 1516 4384 1395 4259 
Q 1275 4134 1275 3809 
L 1275 3500 
L 2222 3500 
L 2222 3053 
L 1275 3053 
L 1275 0 
L 697 0 
L 697 3053 
L 147 3053 
L 147 3500 
L 697 3500 
L 697 3744 
Q 697 4328 969 4595 
Q 1241 4863 1831 4863 
L 2375 4863 
z
" transform="scale(0.015625)"/>
     <path id="DejaVuSans-62" d="M 3116 1747 
Q 3116 2381 2855 2742 
Q 2594 3103 2138 3103 
Q 1681 3103 1420 2742 
Q 1159 2381 1159 1747 
Q 1159 1113 1420 752 
Q 1681 391 2138 391 
Q 2594 391 2855 752 
Q 3116 1113 3116 1747 
z
M 1159 2969 
Q 1341 3281 1617 3432 
Q 1894 3584 2278 3584 
Q 2916 3584 3314 3078 
Q 3713 2572 3713 1747 
Q 3713 922 3314 415 
Q 2916 -91 2278 -91 
Q 1894 -91 1617 61 
Q 1341 213 1159 525 
L 1159 0 
L 581 0 
L 581 4863 
L 1159 4863 
L 1159 2969 
z
" transform="scale(0.015625)"/>
     <path id="DejaVuSans-2d" d="M 313 2009 
L 1997 2009 
L 1997 1497 
L 313 1497 
L 313 2009 
z
" transform="scale(0.015625)"/>
     <path id="DejaVuSans-76" d="M 191 3500 
L 800 3500 
L 1894 563 
L 2988 3500 
L 3597 3500 
L 2284 0 
L 1503 0 
L 191 3500 
z
" transform="scale(0.015625)"/>
    </defs>
    <use xlink:href="#DejaVuSans-46"/>
    <use xlink:href="#DejaVuSans-72" transform="translate(50.269531 0)"/>
    <use xlink:href="#DejaVuSans-61" transform="translate(91.382812 0)"/>
    <use xlink:href="#DejaVuSans-6d" transform="translate(152.662109 0)"/>
    <use xlink:href="#DejaVuSans-65" transform="translate(250.074219 0)"/>
    <use xlink:href="#DejaVuSans-20" transform="translate(311.597656 0)"/>
    <use xlink:href="#DejaVuSans-63" transform="translate(343.384766 0)"/>
    <use xlink:href="#DejaVuSans-68" transform="translate(398.365234 0)"/>
    <use xlink:href="#DejaVuSans-61" transform="translate(461.744141 0)"/>
    <use xlink:href="#DejaVuSans-69" transform="translate(523.023438 0)"/>
    <use xlink:href="#DejaVuSans-6e" transform="translate(550.806641 0)"/>
    <use xlink:href="#DejaVuSans-3a" transform="translate(614.185547 0)"/>
    <use xlink:href="#DejaVuSans-20" transform="translate(647.876953 0)"/>
    <use xlink:href="#DejaVuSans-64" transform="translate(679.664062 0)"/>
    <use xlink:href="#DejaVuSans-61" transform="translate(743.140625 0)"/>
    <use xlink:href="#DejaVuSans-73" transform="translate(804.419922 0)"/>
    <use xlink:href="#DejaVuSans-68" transform="translate(856.519531 0)"/>
    <use xlink:href="#DejaVuSans-65" transform="translate(919.898438 0)"/>
    <use xlink:href="#DejaVuSans-64" transform="translate(981.421875 0)"/>
    <use xlink:href="#DejaVuSans-20" transform="translate(1044.898438 0)"/>
    <use xlink:href="#DejaVuSans-45" transform="translate(1076.685547 0)"/>
    <use xlink:href="#DejaVuSans-4e" transform="translate(1139.869141 0)"/>
    <use xlink:href="#DejaVuSans-55" transform="translate(1214.673828 0)"/>
    <use xlink:href="#DejaVuSans-20" transform="translate(1287.867188 0)"/>
    <use xlink:href="#DejaVuSans-72" transform="translate(1319.654297 0)"/>
    <use xlink:href="#DejaVuSans-65" transform="translate(1358.517578 0)"/>
    <use xlink:href="#DejaVuSans-66" transform="translate(1420.041016 0)"/>
    <use xlink:href="#DejaVuSans-65" transform="translate(1455.246094 0)"/>
    <use xlink:href="#DejaVuSans-72" transform="translate(1516.769531 0)"/>
    <use xlink:href="#DejaVuSans-65" transform="translate(1555.632812 0)"/>
    <use xlink:href="#DejaVuSans-6e" transform="translate(1617.15625 0)"/>
    <use xlink:href="#DejaVuSans-63" transform="translate(1680.535156 0)"/>
    <use xlink:href="#DejaVuSans-65" transform="translate(1735.515625 0)"/>
    <use xlink:href="#DejaVuSans-20" transform="translate(1797.039062 0)"/>
    <use xlink:href="#DejaVuSans-62" transform="translate(1828.826172 0)"/>
    <use xlink:href="#DejaVuSans-65" transform="translate(1892.302734 0)"/>
    <use xlink:href="#DejaVuSans-68" transform="translate(1953.826172 0)"/>
    <use xlink:href="#DejaVuSans-69" transform="translate(2017.205078 0)"/>
    <use xlink:href="#DejaVuSans-6e" transform="translate(2044.988281 0)"/>
    <use xlink:href="#DejaVuSans-64" transform="translate(2108.367188 0)"/>
    <use xlink:href="#DejaVuSans-20" transform="translate(2171.84375 0)"/>
    <use xlink:href="#DejaVuSans-65" transform="translate(2203.630859 0)"/>
    <use xlink:href="#DejaVuSans-61" transform="translate(2265.154297 0)"/>
    <use xlink:href="#DejaVuSans-63" transform="translate(2326.433594 0)"/>
    <use xlink:href="#DejaVuSans-68" transform="translate(2381.414062 0)"/>
    <use xlink:href="#DejaVuSans-20" transform="translate(2444.792969 0)"/>
    <use xlink:href="#DejaVuSans-66" transform="translate(2476.580078 0)"/>
    <use xlink:href="#DejaVuSans-72" transform="translate(2511.785156 0)"/>
    <use xlink:href="#DejaVuSans-61" transform="translate(2552.898438 0)"/>
    <use xlink:href="#DejaVuSans-6d" transform="translate(2614.177734 0)"/>
    <use xlink:href="#DejaVuSans-65" transform="translate(2711.589844 0)"/>
    <use xlink:href="#DejaVuSans-2e" transform="translate(2773.113281 0)"/>
    <use xlink:href="#DejaVuSans-20" transform="translate(2804.900391 0)"/>
    <use xlink:href="#DejaVuSans-4e" transform="translate(2836.6875 0)"/>
    <use xlink:href="#DejaVuSans-45" transform="translate(2911.492188 0)"/>
    <use xlink:href="#DejaVuSans-44" transform="translate(2974.675781 0)"/>
    <use xlink:href="#DejaVuSans-20" transform="translate(3051.677734 0)"/>
    <use xlink:href="#DejaVuSans-69" transform="translate(3083.464844 0)"/>
    <use xlink:href="#DejaVuSans-73" transform="translate(3111.248047 0)"/>
    <use xlink:href="#DejaVuSans-20" transform="translate(3163.347656 0)"/>
    <use xlink:href="#DejaVuSans-61" transform="translate(3195.134766 0)"/>
    <use xlink:href="#DejaVuSans-20" transform="translate(3256.414062 0)"/>
    <use xlink:href="#DejaVuSans-68" transform="translate(3288.201172 0)"/>
    <use xlink:href="#DejaVuSans-61" transform="translate(3351.580078 0)"/>
    <use xlink:href="#DejaVuSans-6e" transform="translate(3412.859375 0)"/>
    <use xlink:href="#DejaVuSans-64" transform="translate(3476.238281 0)"/>
    <use xlink:href="#DejaVuSans-65" transform="translate(3539.714844 0)"/>
    <use xlink:href="#DejaVuSans-64" transform="translate(3601.238281 0)"/>
    <use xlink:href="#DejaVuSans-6e" transform="translate(3664.714844 0)"/>
    <use xlink:href="#DejaVuSans-65" transform="translate(3728.09375 0)"/>
    <use xlink:href="#DejaVuSans-73" transform="translate(3789.617188 0)"/>
    <use xlink:href="#DejaVuSans-73" transform="translate(3841.716797 0)"/>
    <use xlink:href="#DejaVuSans-2d" transform="translate(3893.816406 0)"/>
    <use xlink:href="#DejaVuSans-70" transform="translate(3929.900391 0)"/>
    <use xlink:href="#DejaVuSans-72" transform="translate(3993.376953 0)"/>
    <use xlink:href="#DejaVuSans-65" transform="translate(4032.240234 0)"/>
    <use xlink:href="#DejaVuSans-73" transform="translate(4093.763672 0)"/>
    <use xlink:href="#DejaVuSans-65" transform="translate(4145.863281 0)"/>
    <use xlink:href="#DejaVuSans-72" transform="translate(4207.386719 0)"/>
    <use xlink:href="#DejaVuSans-76" transform="translate(4248.5 0)"/>
    <use xlink:href="#DejaVuSans-69" transform="translate(4307.679688 0)"/>
    <use xlink:href="#DejaVuSans-6e" transform="translate(4335.462891 0)"/>
    <use xlink:href="#DejaVuSans-67" transform="translate(4398.841797 0)"/>
    <use xlink:href="#DejaVuSans-20" transform="translate(4462.318359 0)"/>
    <use xlink:href="#DejaVuSans-73" transform="translate(4494.105469 0)"/>
    <use xlink:href="#DejaVuSans-77" transform="translate(4546.205078 0)"/>
    <use xlink:href="#DejaVuSans-61" transform="translate(4627.992188 0)"/>
    <use xlink:href="#DejaVuSans-70" transform="translate(4689.271484 0)"/>
    <use xlink:href="#DejaVuSans-2d" transform="translate(4752.748047 0)"/>
    <use xlink:href="#DejaVuSans-61" transform="translate(4788.832031 0)"/>
    <use xlink:href="#DejaVuSans-6e" transform="translate(4850.111328 0)"/>
    <use xlink:href="#DejaVuSans-64" transform="translate(4913.490234 0)"/>
    <use xlink:href="#DejaVuSans-2d" transform="translate(4976.966797 0)"/>
    <use xlink:href="#DejaVuSans-66" transform="translate(5013.050781 0)"/>
    <use xlink:href="#DejaVuSans-6c" transform="translate(5048.255859 0)"/>
    <use xlink:href="#DejaVuSans-69" transform="translate(5076.039062 0)"/>
    <use xlink:href="#DejaVuSans-70" transform="translate(5103.822266 0)"/>
    <use xlink:href="#DejaVuSans-20" transform="translate(5167.298828 0)"/>
    <use xlink:href="#DejaVuSans-6f" transform="translate(5199.085938 0)"/>
    <use xlink:href="#DejaVuSans-66" transform="translate(5260.267578 0)"/>
    <use xlink:href="#DejaVuSans-20" transform="translate(5295.472656 0)"/>
    <use xlink:href="#DejaVuSans-45" transform="translate(5327.259766 0)"/>
    <use xlink:href="#DejaVuSans-4e" transform="translate(5390.443359 0)"/>
    <use xlink:href="#DejaVuSans-55" transform="translate(5465.248047 0)"/>
    <use xlink:href="#DejaVuSans-2c" transform="translate(5538.441406 0)"/>
    <use xlink:href="#DejaVuSans-20" transform="translate(5570.228516 0)"/>
    <use xlink:href="#DejaVuSans-6e" transform="translate(5602.015625 0)"/>
    <use xlink:href="#DejaVuSans-6f" transform="translate(5665.394531 0)"/>
    <use xlink:href="#DejaVuSans-74" transform="translate(5726.576172 0)"/>
    <use xlink:href="#DejaVuSans-20" transform="translate(5765.785156 0)"/>
    <use xlink:href="#DejaVuSans-61" transform="translate(5797.572266 0)"/>
    <use xlink:href="#DejaVuSans-20" transform="translate(5858.851562 0)"/>
    <use xlink:href="#DejaVuSans-72" transform="translate(5890.638672 0)"/>
    <use xlink:href="#DejaVuSans-6f" transform="translate(5929.501953 0)"/>
    <use xlink:href="#DejaVuSans-74" transform="translate(5990.683594 0)"/>
    <use xlink:href="#DejaVuSans-61" transform="translate(6029.892578 0)"/>
    <use xlink:href="#DejaVuSans-74" transform="translate(6091.171875 0)"/>
    <use xlink:href="#DejaVuSans-69" transform="translate(6130.380859 0)"/>
    <use xlink:href="#DejaVuSans-6f" transform="translate(6158.164062 0)"/>
    <use xlink:href="#DejaVuSans-6e" transform="translate(6219.345703 0)"/>
    <use xlink:href="#DejaVuSans-2e" transform="translate(6282.724609 0)"/>
   </g>
  </g>
 </g>
 <defs>
  <clipPath id="pcec43a344a">
   <rect x="7.2" y="64.224" width="243.936" height="243.936"/>
  </clipPath>
  <clipPath id="pb5f3503d52">
   <rect x="288.139355" y="64.224" width="243.936" height="243.936"/>
  </clipPath>
  <clipPath id="p199bd2424d">
   <rect x="569.07871" y="64.224" width="243.936" height="243.936"/>
  </clipPath>
 </defs>
</svg>
