<?xml version="1.0" encoding="utf-8" standalone="no"?>
<!DOCTYPE svg PUBLIC "-//W3C//DTD SVG 1.1//EN"
  "http://www.w3.org/Graphics/SVG/1.1/DTD/svg11.dtd">
<svg xmlns:xlink="http://www.w3.org/1999/xlink" width="981.752096pt" height="303.153117pt" viewBox="0 0 981.752096 303.153117" xmlns="http://www.w3.org/2000/svg" version="1.1">
 <metadata>
  <rdf:RDF xmlns:dc="http://purl.org/dc/elements/1.1/" xmlns:cc="http://creativecommons.org/ns#" xmlns:rdf="http://www.w3.org/1999/02/22-rdf-syntax-ns#">
   <cc:Work>
    <dc:type rdf:resource="http://purl.org/dc/dcmitype/StillImage"/>
    <dc:date>2026-07-21T22:23:29.464904</dc:date>
    <dc:format>image/svg+xml</dc:format>
    <dc:creator>
     <cc:Agent>
      <dc:title>Matplotlib v3.10.7, https://matplotlib.org/</dc:title>
     </cc:Agent>
    </dc:creator>
   </cc:Work>
  </rdf:RDF>
 </metadata>
 <defs>
  <style type="text/css">*{stroke-linejoin: round; stroke-linecap: butt}</style>
 </defs>
 <g id="figure_1">
  <g id="patch_1">
   <path d="M 0 303.153117 
L 981.752096 303.153117 
L 981.752096 0 
L 0 0 
z
" style="fill: #ffffff"/>
  </g>
  <g id="patch_2">
   <path d="M 7.2 294.48 
L 240.048 294.48 
L 240.048 61.632 
L 7.2 61.632 
z
" style="fill: #ffffff"/>
  </g>
  <g id="pane3d_1">
   <g id="patch_3">
    <path d="M 111.182323 204.321317 
L 220.258547 232.34897 
L 223.79824 103.592066 
L 110.625344 81.812941 
" style="fill: #f2f2f2; opacity: 0.5; stroke: #f2f2f2; stroke-linejoin: miter"/>
   </g>
  </g>
  <g id="pane3d_2">
   <g id="patch_4">
    <path d="M 111.182323 204.321317 
L 30.92342 245.359074 
L 27.199262 113.732176 
L 110.625344 81.812941 
" style="fill: #e6e6e6; opacity: 0.5; stroke: #e6e6e6; stroke-linejoin: miter"/>
   </g>
  </g>
  <g id="pane3d_3">
   <g id="patch_5">
    <path d="M 111.182323 204.321317 
L 30.92342 245.359074 
L 144.729561 278.464086 
L 220.258547 232.34897 
" style="fill: #ececec; opacity: 0.5; stroke: #ececec; stroke-linejoin: miter"/>
   </g>
  </g>
  <g id="grid3d_1">
   <g id="Line3DCollection_1">
    <path d="M 220.258547 232.34897 
L 111.182323 204.321317 
L 110.625344 81.812941 
" style="fill: none; stroke: #b0b0b0; stroke-width: 0.8"/>
    <path d="M 208.543623 239.501655 
L 98.682657 210.712611 
L 97.665424 86.771471 
" style="fill: none; stroke: #b0b0b0; stroke-width: 0.8"/>
    <path d="M 196.499061 246.855606 
L 85.8509 217.273709 
L 84.348544 91.866576 
" style="fill: none; stroke: #b0b0b0; stroke-width: 0.8"/>
    <path d="M 184.110747 254.419437 
L 72.67364 224.011468 
L 70.659749 97.103977 
" style="fill: none; stroke: #b0b0b0; stroke-width: 0.8"/>
    <path d="M 171.363754 262.202265 
L 59.136731 230.933123 
L 56.583239 102.48972 
" style="fill: none; stroke: #b0b0b0; stroke-width: 0.8"/>
    <path d="M 158.242275 270.213739 
L 45.225246 238.046304 
L 42.102304 108.030198 
" style="fill: none; stroke: #b0b0b0; stroke-width: 0.8"/>
    <path d="M 144.729561 278.464086 
L 30.92342 245.359074 
L 27.199262 113.732176 
" style="fill: none; stroke: #b0b0b0; stroke-width: 0.8"/>
   </g>
  </g>
  <g id="grid3d_2">
   <g id="Line3DCollection_2">
    <path d="M 110.625344 81.812941 
L 111.182323 204.321317 
L 30.92342 245.359074 
" style="fill: none; stroke: #b0b0b0; stroke-width: 0.8"/>
    <path d="M 128.594042 85.270859 
L 128.530562 208.779029 
L 48.950218 250.60288 
" style="fill: none; stroke: #b0b0b0; stroke-width: 0.8"/>
    <path d="M 146.906449 88.79492 
L 146.198982 213.319014 
L 67.338288 255.951777 
" style="fill: none; stroke: #b0b0b0; stroke-width: 0.8"/>
    <path d="M 165.572521 92.387041 
L 164.19653 217.943569 
L 86.0986 261.408955 
" style="fill: none; stroke: #b0b0b0; stroke-width: 0.8"/>
    <path d="M 184.602604 96.049212 
L 182.532489 222.65508 
L 105.242573 266.977736 
" style="fill: none; stroke: #b0b0b0; stroke-width: 0.8"/>
    <path d="M 204.00745 99.783503 
L 201.216493 227.456024 
L 124.782098 272.661579 
" style="fill: none; stroke: #b0b0b0; stroke-width: 0.8"/>
    <path d="M 223.79824 103.592066 
L 220.258547 232.34897 
L 144.729561 278.464086 
" style="fill: none; stroke: #b0b0b0; stroke-width: 0.8"/>
   </g>
  </g>
  <g id="grid3d_3">
   <g id="Line3DCollection_3">
    <path d="M 30.92342 245.359074 
L 111.182323 204.321317 
L 220.258547 232.34897 
" style="fill: none; stroke: #b0b0b0; stroke-width: 0.8"/>
    <path d="M 30.322194 224.10931 
L 111.092177 184.493634 
L 220.830451 211.545868 
" style="fill: none; stroke: #b0b0b0; stroke-width: 0.8"/>
    <path d="M 29.713378 202.591274 
L 111.000983 164.435293 
L 221.409396 190.486678 
" style="fill: none; stroke: #b0b0b0; stroke-width: 0.8"/>
    <path d="M 29.096828 180.799854 
L 110.908721 144.142247 
L 221.995511 169.16664 
" style="fill: none; stroke: #b0b0b0; stroke-width: 0.8"/>
    <path d="M 28.472393 158.729807 
L 110.815374 123.610351 
L 222.588931 147.58088 
" style="fill: none; stroke: #b0b0b0; stroke-width: 0.8"/>
    <path d="M 27.839924 136.375753 
L 110.720921 102.835363 
L 223.189794 125.724397 
" style="fill: none; stroke: #b0b0b0; stroke-width: 0.8"/>
    <path d="M 27.199262 113.732176 
L 110.625344 81.812941 
L 223.79824 103.592066 
" style="fill: none; stroke: #b0b0b0; stroke-width: 0.8"/>
   </g>
  </g>
  <g id="axis3d_1">
   <g id="line2d_1">
    <path d="M 220.258547 232.34897 
L 144.729561 278.464086 
" style="fill: none; stroke: #000000; stroke-width: 0.8; stroke-linecap: square"/>
   </g>
   <g id="xtick_1">
    <g id="line2d_2">
     <path d="M 219.336195 232.111967 
L 222.105799 232.82363 
" style="fill: none; stroke: #000000; stroke-width: 0.8; stroke-linecap: square"/>
    </g>
   </g>
   <g id="xtick_2">
    <g id="line2d_3">
     <path d="M 207.613941 239.258032 
L 210.405593 239.989584 
" style="fill: none; stroke: #000000; stroke-width: 0.8; stroke-linecap: square"/>
    </g>
   </g>
   <g id="xtick_3">
    <g id="line2d_4">
     <path d="M 195.561997 246.605081 
L 198.375849 247.357367 
" style="fill: none; stroke: #000000; stroke-width: 0.8; stroke-linecap: square"/>
    </g>
   </g>
   <g id="xtick_4">
    <g id="line2d_5">
     <path d="M 183.166257 254.161713 
L 186.002449 254.935628 
" style="fill: none; stroke: #000000; stroke-width: 0.8; stroke-linecap: square"/>
    </g>
   </g>
   <g id="xtick_5">
    <g id="line2d_6">
     <path d="M 170.411796 261.937027 
L 173.270451 262.733516 
" style="fill: none; stroke: #000000; stroke-width: 0.8; stroke-linecap: square"/>
    </g>
   </g>
   <g id="xtick_6">
    <g id="line2d_7">
     <path d="M 157.282815 269.940653 
L 160.164038 270.760721 
" style="fill: none; stroke: #000000; stroke-width: 0.8; stroke-linecap: square"/>
    </g>
   </g>
   <g id="xtick_7">
    <g id="line2d_8">
     <path d="M 143.762572 278.1828 
L 146.666448 279.027507 
" style="fill: none; stroke: #000000; stroke-width: 0.8; stroke-linecap: square"/>
    </g>
   </g>
  </g>
  <g id="axis3d_2">
   <g id="line2d_9">
    <path d="M 30.92342 245.359074 
L 144.729561 278.464086 
" style="fill: none; stroke: #000000; stroke-width: 0.8; stroke-linecap: square"/>
   </g>
   <g id="xtick_8">
    <g id="line2d_10">
     <path d="M 31.61907 245.003376 
L 29.529305 246.071909 
" style="fill: none; stroke: #000000; stroke-width: 0.8; stroke-linecap: square"/>
    </g>
   </g>
   <g id="xtick_9">
    <g id="line2d_11">
     <path d="M 49.640514 250.240092 
L 47.566807 251.329939 
" style="fill: none; stroke: #000000; stroke-width: 0.8; stroke-linecap: square"/>
    </g>
   </g>
   <g id="xtick_10">
    <g id="line2d_12">
     <path d="M 68.022874 255.581684 
L 65.966292 256.69349 
" style="fill: none; stroke: #000000; stroke-width: 0.8; stroke-linecap: square"/>
    </g>
   </g>
   <g id="xtick_11">
    <g id="line2d_13">
     <path d="M 86.777102 261.031335 
L 84.738768 262.165769 
" style="fill: none; stroke: #000000; stroke-width: 0.8; stroke-linecap: square"/>
    </g>
   </g>
   <g id="xtick_12">
    <g id="line2d_14">
     <path d="M 105.914598 266.592356 
L 103.895692 267.750118 
" style="fill: none; stroke: #000000; stroke-width: 0.8; stroke-linecap: square"/>
    </g>
   </g>
   <g id="xtick_13">
    <g id="line2d_15">
     <path d="M 125.447232 272.268198 
L 123.448997 273.450013 
" style="fill: none; stroke: #000000; stroke-width: 0.8; stroke-linecap: square"/>
    </g>
   </g>
   <g id="xtick_14">
    <g id="line2d_16">
     <path d="M 145.38737 278.062453 
L 143.411114 279.26908 
" style="fill: none; stroke: #000000; stroke-width: 0.8; stroke-linecap: square"/>
    </g>
   </g>
  </g>
  <g id="axis3d_3">
   <g id="line2d_17">
    <path d="M 30.92342 245.359074 
L 27.199262 113.732176 
" style="fill: none; stroke: #000000; stroke-width: 0.8; stroke-linecap: square"/>
   </g>
   <g id="xtick_15">
    <g id="line2d_18">
     <path d="M 31.61907 245.003376 
L 29.529305 246.071909 
" style="fill: none; stroke: #000000; stroke-width: 0.8; stroke-linecap: square"/>
    </g>
   </g>
   <g id="xtick_16">
    <g id="line2d_19">
     <path d="M 31.022613 223.765772 
L 28.918507 224.797784 
" style="fill: none; stroke: #000000; stroke-width: 0.8; stroke-linecap: square"/>
    </g>
   </g>
   <g id="xtick_17">
    <g id="line2d_20">
     <path d="M 30.41863 202.260233 
L 28.299987 203.254713 
" style="fill: none; stroke: #000000; stroke-width: 0.8; stroke-linecap: square"/>
    </g>
   </g>
   <g id="xtick_18">
    <g id="line2d_21">
     <path d="M 29.806979 180.481656 
L 27.673597 181.437564 
" style="fill: none; stroke: #000000; stroke-width: 0.8; stroke-linecap: square"/>
    </g>
   </g>
   <g id="xtick_19">
    <g id="line2d_22">
     <path d="M 29.187512 158.424807 
L 27.039188 159.341072 
" style="fill: none; stroke: #000000; stroke-width: 0.8; stroke-linecap: square"/>
    </g>
   </g>
   <g id="xtick_20">
    <g id="line2d_23">
     <path d="M 28.56008 136.084319 
L 26.396604 136.959837 
" style="fill: none; stroke: #000000; stroke-width: 0.8; stroke-linecap: square"/>
    </g>
   </g>
   <g id="xtick_21">
    <g id="line2d_24">
     <path d="M 27.924527 113.454686 
L 25.745685 114.288322 
" style="fill: none; stroke: #000000; stroke-width: 0.8; stroke-linecap: square"/>
    </g>
   </g>
  </g>
  <g id="axes_1">
   <g id="line2d_25">
    <path d="M 126.770595 236.682207 
L 126.770595 110.8479 
" clip-path="url(#p1332264a64)" style="fill: none; stroke-dasharray: 2,3.3; stroke-dashoffset: 0; stroke: #404040; stroke-width: 2"/>
   </g>
   <g id="line2d_26">
    <path d="M 126.770595 174.909405 
L 99.524788 188.217766 
" clip-path="url(#p1332264a64)" style="fill: none; stroke-dasharray: 5.18,2.24; stroke-dashoffset: 0; stroke: #d62728; stroke-opacity: 0.22; stroke-width: 1.4"/>
   </g>
   <g id="line2d_27">
    <path d="M 126.770595 174.909405 
L 165.34568 184.147563 
" clip-path="url(#p1332264a64)" style="fill: none; stroke-dasharray: 5.18,2.24; stroke-dashoffset: 0; stroke: #2ca02c; stroke-opacity: 0.22; stroke-width: 1.4"/>
   </g>
   <g id="line2d_28">
    <path d="M 126.770595 174.909405 
L 126.770595 130.981606 
" clip-path="url(#p1332264a64)" style="fill: none; stroke-dasharray: 5.18,2.24; stroke-dashoffset: 0; stroke: #1f77b4; stroke-opacity: 0.22; stroke-width: 1.4"/>
   </g>
   <g id="line2d_29">
    <path d="M 126.770595 174.909405 
L 126.770595 191.260787 
" clip-path="url(#p1332264a64)" style="fill: none; stroke: #d62728; stroke-width: 2.6; stroke-linecap: square"/>
   </g>
   <g id="line2d_30">
    <path d="M 126.770595 174.909405 
L 172.931206 174.909405 
" clip-path="url(#p1332264a64)" style="fill: none; stroke: #2ca02c; stroke-width: 2.6; stroke-linecap: square"/>
   </g>
   <g id="line2d_31">
    <path d="M 126.770595 174.909405 
L 126.770595 130.981606 
" clip-path="url(#p1332264a64)" style="fill: none; stroke: #1f77b4; stroke-width: 2.6; stroke-linecap: square"/>
   </g>
   <g id="text_1">
    <!-- x' -->
    <g style="fill: #d62728" transform="translate(122.87036 195.785168) scale(0.09 -0.09)">
     <defs>
      <path id="DejaVuSans-78" d="M 3513 3500 
L 2247 1797 
L 3578 0 
L 2900 0 
L 1881 1375 
L 863 0 
L 184 0 
L 1544 1831 
L 300 3500 
L 978 3500 
L 1906 2253 
L 2834 3500 
L 3513 3500 
z
" transform="scale(0.015625)"/>
      <path id="DejaVuSans-27" d="M 1147 4666 
L 1147 2931 
L 616 2931 
L 616 4666 
L 1147 4666 
z
" transform="scale(0.015625)"/>
     </defs>
     <use xlink:href="#DejaVuSans-78"/>
     <use xlink:href="#DejaVuSans-27" transform="translate(59.179688 0)"/>
    </g>
   </g>
   <g id="text_2">
    <!-- y' -->
    <g style="fill: #2ca02c" transform="translate(174.570245 177.392843) scale(0.09 -0.09)">
     <defs>
      <path id="DejaVuSans-79" d="M 2059 -325 
Q 1816 -950 1584 -1140 
Q 1353 -1331 966 -1331 
L 506 -1331 
L 506 -850 
L 844 -850 
Q 1081 -850 1212 -737 
Q 1344 -625 1503 -206 
L 1606 56 
L 191 3500 
L 800 3500 
L 1894 763 
L 2988 3500 
L 3597 3500 
L 2059 -325 
z
" transform="scale(0.015625)"/>
     </defs>
     <use xlink:href="#DejaVuSans-79"/>
     <use xlink:href="#DejaVuSans-27" transform="translate(59.179688 0)"/>
    </g>
   </g>
   <g id="text_3">
    <!-- z' -->
    <g style="fill: #1f77b4" transform="translate(123.172001 128.118597) scale(0.09 -0.09)">
     <defs>
      <path id="DejaVuSans-7a" d="M 353 3500 
L 3084 3500 
L 3084 2975 
L 922 459 
L 3084 459 
L 3084 0 
L 275 0 
L 275 525 
L 2438 3041 
L 353 3041 
L 353 3500 
z
" transform="scale(0.015625)"/>
     </defs>
     <use xlink:href="#DejaVuSans-7a"/>
     <use xlink:href="#DejaVuSans-27" transform="translate(52.490234 0)"/>
    </g>
   </g>
   <g id="text_4">
    <!-- Yaw  psi = 35 deg, about Z -->
    <g transform="translate(63.117984 45.553969) scale(0.09 -0.09)">
     <defs>
      <path id="DejaVuSans-59" d="M -13 4666 
L 666 4666 
L 1959 2747 
L 3244 4666 
L 3922 4666 
L 2272 2222 
L 2272 0 
L 1638 0 
L 1638 2222 
L -13 4666 
z
" transform="scale(0.015625)"/>
      <path id="DejaVuSans-61" d="M 2194 1759 
Q 1497 1759 1228 1600 
Q 959 1441 959 1056 
Q 959 750 1161 570 
Q 1363 391 1709 391 
Q 2188 391 2477 730 
Q 2766 1069 2766 1631 
L 2766 1759 
L 2194 1759 
z
M 3341 1997 
L 3341 0 
L 2766 0 
L 2766 531 
Q 2569 213 2275 61 
Q 1981 -91 1556 -91 
Q 1019 -91 701 211 
Q 384 513 384 1019 
Q 384 1609 779 1909 
Q 1175 2209 1959 2209 
L 2766 2209 
L 2766 2266 
Q 2766 2663 2505 2880 
Q 2244 3097 1772 3097 
Q 1472 3097 1187 3025 
Q 903 2953 641 2809 
L 641 3341 
Q 956 3463 1253 3523 
Q 1550 3584 1831 3584 
Q 2591 3584 2966 3190 
Q 3341 2797 3341 1997 
z
" transform="scale(0.015625)"/>
      <path id="DejaVuSans-77" d="M 269 3500 
L 844 3500 
L 1563 769 
L 2278 3500 
L 2956 3500 
L 3675 769 
L 4391 3500 
L 4966 3500 
L 4050 0 
L 3372 0 
L 2619 2869 
L 1863 0 
L 1184 0 
L 269 3500 
z
" transform="scale(0.015625)"/>
      <path id="DejaVuSans-20" transform="scale(0.015625)"/>
      <path id="DejaVuSans-70" d="M 1159 525 
L 1159 -1331 
L 581 -1331 
L 581 3500 
L 1159 3500 
L 1159 2969 
Q 1341 3281 1617 3432 
Q 1894 3584 2278 3584 
Q 2916 3584 3314 3078 
Q 3713 2572 3713 1747 
Q 3713 922 3314 415 
Q 2916 -91 2278 -91 
Q 1894 -91 1617 61 
Q 1341 213 1159 525 
z
M 3116 1747 
Q 3116 2381 2855 2742 
Q 2594 3103 2138 3103 
Q 1681 3103 1420 2742 
Q 1159 2381 1159 1747 
Q 1159 1113 1420 752 
Q 1681 391 2138 391 
Q 2594 391 2855 752 
Q 3116 1113 3116 1747 
z
" transform="scale(0.015625)"/>
      <path id="DejaVuSans-73" d="M 2834 3397 
L 2834 2853 
Q 2591 2978 2328 3040 
Q 2066 3103 1784 3103 
Q 1356 3103 1142 2972 
Q 928 2841 928 2578 
Q 928 2378 1081 2264 
Q 1234 2150 1697 2047 
L 1894 2003 
Q 2506 1872 2764 1633 
Q 3022 1394 3022 966 
Q 3022 478 2636 193 
Q 2250 -91 1575 -91 
Q 1294 -91 989 -36 
Q 684 19 347 128 
L 347 722 
Q 666 556 975 473 
Q 1284 391 1588 391 
Q 1994 391 2212 530 
Q 2431 669 2431 922 
Q 2431 1156 2273 1281 
Q 2116 1406 1581 1522 
L 1381 1569 
Q 847 1681 609 1914 
Q 372 2147 372 2553 
Q 372 3047 722 3315 
Q 1072 3584 1716 3584 
Q 2034 3584 2315 3537 
Q 2597 3491 2834 3397 
z
" transform="scale(0.015625)"/>
      <path id="DejaVuSans-69" d="M 603 3500 
L 1178 3500 
L 1178 0 
L 603 0 
L 603 3500 
z
M 603 4863 
L 1178 4863 
L 1178 4134 
L 603 4134 
L 603 4863 
z
" transform="scale(0.015625)"/>
      <path id="DejaVuSans-3d" d="M 678 2906 
L 4684 2906 
L 4684 2381 
L 678 2381 
L 678 2906 
z
M 678 1631 
L 4684 1631 
L 4684 1100 
L 678 1100 
L 678 1631 
z
" transform="scale(0.015625)"/>
      <path id="DejaVuSans-33" d="M 2597 2516 
Q 3050 2419 3304 2112 
Q 3559 1806 3559 1356 
Q 3559 666 3084 287 
Q 2609 -91 1734 -91 
Q 1441 -91 1130 -33 
Q 819 25 488 141 
L 488 750 
Q 750 597 1062 519 
Q 1375 441 1716 441 
Q 2309 441 2620 675 
Q 2931 909 2931 1356 
Q 2931 1769 2642 2001 
Q 2353 2234 1838 2234 
L 1294 2234 
L 1294 2753 
L 1863 2753 
Q 2328 2753 2575 2939 
Q 2822 3125 2822 3475 
Q 2822 3834 2567 4026 
Q 2313 4219 1838 4219 
Q 1578 4219 1281 4162 
Q 984 4106 628 3988 
L 628 4550 
Q 988 4650 1302 4700 
Q 1616 4750 1894 4750 
Q 2613 4750 3031 4423 
Q 3450 4097 3450 3541 
Q 3450 3153 3228 2886 
Q 3006 2619 2597 2516 
z
" transform="scale(0.015625)"/>
      <path id="DejaVuSans-35" d="M 691 4666 
L 3169 4666 
L 3169 4134 
L 1269 4134 
L 1269 2991 
Q 1406 3038 1543 3061 
Q 1681 3084 1819 3084 
Q 2600 3084 3056 2656 
Q 3513 2228 3513 1497 
Q 3513 744 3044 326 
Q 2575 -91 1722 -91 
Q 1428 -91 1123 -41 
Q 819 9 494 109 
L 494 744 
Q 775 591 1075 516 
Q 1375 441 1709 441 
Q 2250 441 2565 725 
Q 2881 1009 2881 1497 
Q 2881 1984 2565 2268 
Q 2250 2553 1709 2553 
Q 1456 2553 1204 2497 
Q 953 2441 691 2322 
L 691 4666 
z
" transform="scale(0.015625)"/>
      <path id="DejaVuSans-64" d="M 2906 2969 
L 2906 4863 
L 3481 4863 
L 3481 0 
L 2906 0 
L 2906 525 
Q 2725 213 2448 61 
Q 2172 -91 1784 -91 
Q 1150 -91 751 415 
Q 353 922 353 1747 
Q 353 2572 751 3078 
Q 1150 3584 1784 3584 
Q 2172 3584 2448 3432 
Q 2725 3281 2906 2969 
z
M 947 1747 
Q 947 1113 1208 752 
Q 1469 391 1925 391 
Q 2381 391 2643 752 
Q 2906 1113 2906 1747 
Q 2906 2381 2643 2742 
Q 2381 3103 1925 3103 
Q 1469 3103 1208 2742 
Q 947 2381 947 1747 
z
" transform="scale(0.015625)"/>
      <path id="DejaVuSans-65" d="M 3597 1894 
L 3597 1613 
L 953 1613 
Q 991 1019 1311 708 
Q 1631 397 2203 397 
Q 2534 397 2845 478 
Q 3156 559 3463 722 
L 3463 178 
Q 3153 47 2828 -22 
Q 2503 -91 2169 -91 
Q 1331 -91 842 396 
Q 353 884 353 1716 
Q 353 2575 817 3079 
Q 1281 3584 2069 3584 
Q 2775 3584 3186 3129 
Q 3597 2675 3597 1894 
z
M 3022 2063 
Q 3016 2534 2758 2815 
Q 2500 3097 2075 3097 
Q 1594 3097 1305 2825 
Q 1016 2553 972 2059 
L 3022 2063 
z
" transform="scale(0.015625)"/>
      <path id="DejaVuSans-67" d="M 2906 1791 
Q 2906 2416 2648 2759 
Q 2391 3103 1925 3103 
Q 1463 3103 1205 2759 
Q 947 2416 947 1791 
Q 947 1169 1205 825 
Q 1463 481 1925 481 
Q 2391 481 2648 825 
Q 2906 1169 2906 1791 
z
M 3481 434 
Q 3481 -459 3084 -895 
Q 2688 -1331 1869 -1331 
Q 1566 -1331 1297 -1286 
Q 1028 -1241 775 -1147 
L 775 -588 
Q 1028 -725 1275 -790 
Q 1522 -856 1778 -856 
Q 2344 -856 2625 -561 
Q 2906 -266 2906 331 
L 2906 616 
Q 2728 306 2450 153 
Q 2172 0 1784 0 
Q 1141 0 747 490 
Q 353 981 353 1791 
Q 353 2603 747 3093 
Q 1141 3584 1784 3584 
Q 2172 3584 2450 3431 
Q 2728 3278 2906 2969 
L 2906 3500 
L 3481 3500 
L 3481 434 
z
" transform="scale(0.015625)"/>
      <path id="DejaVuSans-2c" d="M 750 794 
L 1409 794 
L 1409 256 
L 897 -744 
L 494 -744 
L 750 256 
L 750 794 
z
" transform="scale(0.015625)"/>
      <path id="DejaVuSans-62" d="M 3116 1747 
Q 3116 2381 2855 2742 
Q 2594 3103 2138 3103 
Q 1681 3103 1420 2742 
Q 1159 2381 1159 1747 
Q 1159 1113 1420 752 
Q 1681 391 2138 391 
Q 2594 391 2855 752 
Q 3116 1113 3116 1747 
z
M 1159 2969 
Q 1341 3281 1617 3432 
Q 1894 3584 2278 3584 
Q 2916 3584 3314 3078 
Q 3713 2572 3713 1747 
Q 3713 922 3314 415 
Q 2916 -91 2278 -91 
Q 1894 -91 1617 61 
Q 1341 213 1159 525 
L 1159 0 
L 581 0 
L 581 4863 
L 1159 4863 
L 1159 2969 
z
" transform="scale(0.015625)"/>
      <path id="DejaVuSans-6f" d="M 1959 3097 
Q 1497 3097 1228 2736 
Q 959 2375 959 1747 
Q 959 1119 1226 758 
Q 1494 397 1959 397 
Q 2419 397 2687 759 
Q 2956 1122 2956 1747 
Q 2956 2369 2687 2733 
Q 2419 3097 1959 3097 
z
M 1959 3584 
Q 2709 3584 3137 3096 
Q 3566 2609 3566 1747 
Q 3566 888 3137 398 
Q 2709 -91 1959 -91 
Q 1206 -91 779 398 
Q 353 888 353 1747 
Q 353 2609 779 3096 
Q 1206 3584 1959 3584 
z
" transform="scale(0.015625)"/>
      <path id="DejaVuSans-75" d="M 544 1381 
L 544 3500 
L 1119 3500 
L 1119 1403 
Q 1119 906 1312 657 
Q 1506 409 1894 409 
Q 2359 409 2629 706 
Q 2900 1003 2900 1516 
L 2900 3500 
L 3475 3500 
L 3475 0 
L 2900 0 
L 2900 538 
Q 2691 219 2414 64 
Q 2138 -91 1772 -91 
Q 1169 -91 856 284 
Q 544 659 544 1381 
z
M 1991 3584 
L 1991 3584 
z
" transform="scale(0.015625)"/>
      <path id="DejaVuSans-74" d="M 1172 4494 
L 1172 3500 
L 2356 3500 
L 2356 3053 
L 1172 3053 
L 1172 1153 
Q 1172 725 1289 603 
Q 1406 481 1766 481 
L 2356 481 
L 2356 0 
L 1766 0 
Q 1100 0 847 248 
Q 594 497 594 1153 
L 594 3053 
L 172 3053 
L 172 3500 
L 594 3500 
L 594 4494 
L 1172 4494 
z
" transform="scale(0.015625)"/>
      <path id="DejaVuSans-5a" d="M 359 4666 
L 4025 4666 
L 4025 4184 
L 1075 531 
L 4097 531 
L 4097 0 
L 288 0 
L 288 481 
L 3238 4134 
L 359 4134 
L 359 4666 
z
" transform="scale(0.015625)"/>
     </defs>
     <use xlink:href="#DejaVuSans-59"/>
     <use xlink:href="#DejaVuSans-61" transform="translate(47.333984 0)"/>
     <use xlink:href="#DejaVuSans-77" transform="translate(108.613281 0)"/>
     <use xlink:href="#DejaVuSans-20" transform="translate(190.400391 0)"/>
     <use xlink:href="#DejaVuSans-20" transform="translate(222.1875 0)"/>
     <use xlink:href="#DejaVuSans-70" transform="translate(253.974609 0)"/>
     <use xlink:href="#DejaVuSans-73" transform="translate(317.451172 0)"/>
     <use xlink:href="#DejaVuSans-69" transform="translate(369.550781 0)"/>
     <use xlink:href="#DejaVuSans-20" transform="translate(397.333984 0)"/>
     <use xlink:href="#DejaVuSans-3d" transform="translate(429.121094 0)"/>
     <use xlink:href="#DejaVuSans-20" transform="translate(512.910156 0)"/>
     <use xlink:href="#DejaVuSans-33" transform="translate(544.697266 0)"/>
     <use xlink:href="#DejaVuSans-35" transform="translate(608.320312 0)"/>
     <use xlink:href="#DejaVuSans-20" transform="translate(671.943359 0)"/>
     <use xlink:href="#DejaVuSans-64" transform="translate(703.730469 0)"/>
     <use xlink:href="#DejaVuSans-65" transform="translate(767.207031 0)"/>
     <use xlink:href="#DejaVuSans-67" transform="translate(828.730469 0)"/>
     <use xlink:href="#DejaVuSans-2c" transform="translate(892.207031 0)"/>
     <use xlink:href="#DejaVuSans-20" transform="translate(923.994141 0)"/>
     <use xlink:href="#DejaVuSans-61" transform="translate(955.78125 0)"/>
     <use xlink:href="#DejaVuSans-62" transform="translate(1017.060547 0)"/>
     <use xlink:href="#DejaVuSans-6f" transform="translate(1080.537109 0)"/>
     <use xlink:href="#DejaVuSans-75" transform="translate(1141.71875 0)"/>
     <use xlink:href="#DejaVuSans-74" transform="translate(1205.097656 0)"/>
     <use xlink:href="#DejaVuSans-20" transform="translate(1244.306641 0)"/>
     <use xlink:href="#DejaVuSans-5a" transform="translate(1276.09375 0)"/>
    </g>
    <!-- Eq. (2.14) -->
    <g transform="translate(101.532516 55.632) scale(0.09 -0.09)">
     <defs>
      <path id="DejaVuSans-45" d="M 628 4666 
L 3578 4666 
L 3578 4134 
L 1259 4134 
L 1259 2753 
L 3481 2753 
L 3481 2222 
L 1259 2222 
L 1259 531 
L 3634 531 
L 3634 0 
L 628 0 
L 628 4666 
z
" transform="scale(0.015625)"/>
      <path id="DejaVuSans-71" d="M 947 1747 
Q 947 1113 1208 752 
Q 1469 391 1925 391 
Q 2381 391 2643 752 
Q 2906 1113 2906 1747 
Q 2906 2381 2643 2742 
Q 2381 3103 1925 3103 
Q 1469 3103 1208 2742 
Q 947 2381 947 1747 
z
M 2906 525 
Q 2725 213 2448 61 
Q 2172 -91 1784 -91 
Q 1150 -91 751 415 
Q 353 922 353 1747 
Q 353 2572 751 3078 
Q 1150 3584 1784 3584 
Q 2172 3584 2448 3432 
Q 2725 3281 2906 2969 
L 2906 3500 
L 3481 3500 
L 3481 -1331 
L 2906 -1331 
L 2906 525 
z
" transform="scale(0.015625)"/>
      <path id="DejaVuSans-2e" d="M 684 794 
L 1344 794 
L 1344 0 
L 684 0 
L 684 794 
z
" transform="scale(0.015625)"/>
      <path id="DejaVuSans-28" d="M 1984 4856 
Q 1566 4138 1362 3434 
Q 1159 2731 1159 2009 
Q 1159 1288 1364 580 
Q 1569 -128 1984 -844 
L 1484 -844 
Q 1016 -109 783 600 
Q 550 1309 550 2009 
Q 550 2706 781 3412 
Q 1013 4119 1484 4856 
L 1984 4856 
z
" transform="scale(0.015625)"/>
      <path id="DejaVuSans-32" d="M 1228 531 
L 3431 531 
L 3431 0 
L 469 0 
L 469 531 
Q 828 903 1448 1529 
Q 2069 2156 2228 2338 
Q 2531 2678 2651 2914 
Q 2772 3150 2772 3378 
Q 2772 3750 2511 3984 
Q 2250 4219 1831 4219 
Q 1534 4219 1204 4116 
Q 875 4013 500 3803 
L 500 4441 
Q 881 4594 1212 4672 
Q 1544 4750 1819 4750 
Q 2544 4750 2975 4387 
Q 3406 4025 3406 3419 
Q 3406 3131 3298 2873 
Q 3191 2616 2906 2266 
Q 2828 2175 2409 1742 
Q 1991 1309 1228 531 
z
" transform="scale(0.015625)"/>
      <path id="DejaVuSans-31" d="M 794 531 
L 1825 531 
L 1825 4091 
L 703 3866 
L 703 4441 
L 1819 4666 
L 2450 4666 
L 2450 531 
L 3481 531 
L 3481 0 
L 794 0 
L 794 531 
z
" transform="scale(0.015625)"/>
      <path id="DejaVuSans-34" d="M 2419 4116 
L 825 1625 
L 2419 1625 
L 2419 4116 
z
M 2253 4666 
L 3047 4666 
L 3047 1625 
L 3713 1625 
L 3713 1100 
L 3047 1100 
L 3047 0 
L 2419 0 
L 2419 1100 
L 313 1100 
L 313 1709 
L 2253 4666 
z
" transform="scale(0.015625)"/>
      <path id="DejaVuSans-29" d="M 513 4856 
L 1013 4856 
Q 1481 4119 1714 3412 
Q 1947 2706 1947 2009 
Q 1947 1309 1714 600 
Q 1481 -109 1013 -844 
L 513 -844 
Q 928 -128 1133 580 
Q 1338 1288 1338 2009 
Q 1338 2731 1133 3434 
Q 928 4138 513 4856 
z
" transform="scale(0.015625)"/>
     </defs>
     <use xlink:href="#DejaVuSans-45"/>
     <use xlink:href="#DejaVuSans-71" transform="translate(63.183594 0)"/>
     <use xlink:href="#DejaVuSans-2e" transform="translate(126.660156 0)"/>
     <use xlink:href="#DejaVuSans-20" transform="translate(158.447266 0)"/>
     <use xlink:href="#DejaVuSans-28" transform="translate(190.234375 0)"/>
     <use xlink:href="#DejaVuSans-32" transform="translate(229.248047 0)"/>
     <use xlink:href="#DejaVuSans-2e" transform="translate(292.871094 0)"/>
     <use xlink:href="#DejaVuSans-31" transform="translate(324.658203 0)"/>
     <use xlink:href="#DejaVuSans-34" transform="translate(388.28125 0)"/>
     <use xlink:href="#DejaVuSans-29" transform="translate(451.904297 0)"/>
    </g>
   </g>
  </g>
  <g id="patch_6">
   <path d="M 252.034699 294.48 
L 484.882699 294.48 
L 484.882699 61.632 
L 252.034699 61.632 
z
" style="fill: #ffffff"/>
  </g>
  <g id="pane3d_4">
   <g id="patch_7">
    <path d="M 356.017021 204.321317 
L 465.093246 232.34897 
L 468.632939 103.592066 
L 355.460043 81.812941 
" style="fill: #f2f2f2; opacity: 0.5; stroke: #f2f2f2; stroke-linejoin: miter"/>
   </g>
  </g>
  <g id="pane3d_5">
   <g id="patch_8">
    <path d="M 356.017021 204.321317 
L 275.758119 245.359074 
L 272.033961 113.732176 
L 355.460043 81.812941 
" style="fill: #e6e6e6; opacity: 0.5; stroke: #e6e6e6; stroke-linejoin: miter"/>
   </g>
  </g>
  <g id="pane3d_6">
   <g id="patch_9">
    <path d="M 356.017021 204.321317 
L 275.758119 245.359074 
L 389.56426 278.464086 
L 465.093246 232.34897 
" style="fill: #ececec; opacity: 0.5; stroke: #ececec; stroke-linejoin: miter"/>
   </g>
  </g>
  <g id="grid3d_4">
   <g id="Line3DCollection_4">
    <path d="M 465.093246 232.34897 
L 356.017021 204.321317 
L 355.460043 81.812941 
" style="fill: none; stroke: #b0b0b0; stroke-width: 0.8"/>
    <path d="M 453.378322 239.501655 
L 343.517356 210.712611 
L 342.500123 86.771471 
" style="fill: none; stroke: #b0b0b0; stroke-width: 0.8"/>
    <path d="M 441.333759 246.855606 
L 330.685599 217.273709 
L 329.183243 91.866576 
" style="fill: none; stroke: #b0b0b0; stroke-width: 0.8"/>
    <path d="M 428.945446 254.419437 
L 317.508339 224.011468 
L 315.494448 97.103977 
" style="fill: none; stroke: #b0b0b0; stroke-width: 0.8"/>
    <path d="M 416.198453 262.202265 
L 303.97143 230.933123 
L 301.417937 102.48972 
" style="fill: none; stroke: #b0b0b0; stroke-width: 0.8"/>
    <path d="M 403.076973 270.213739 
L 290.059945 238.046304 
L 286.937003 108.030198 
" style="fill: none; stroke: #b0b0b0; stroke-width: 0.8"/>
    <path d="M 389.56426 278.464086 
L 275.758119 245.359074 
L 272.033961 113.732176 
" style="fill: none; stroke: #b0b0b0; stroke-width: 0.8"/>
   </g>
  </g>
  <g id="grid3d_5">
   <g id="Line3DCollection_5">
    <path d="M 355.460043 81.812941 
L 356.017021 204.321317 
L 275.758119 245.359074 
" style="fill: none; stroke: #b0b0b0; stroke-width: 0.8"/>
    <path d="M 373.428741 85.270859 
L 373.365261 208.779029 
L 293.784917 250.60288 
" style="fill: none; stroke: #b0b0b0; stroke-width: 0.8"/>
    <path d="M 391.741148 88.79492 
L 391.033681 213.319014 
L 312.172987 255.951777 
" style="fill: none; stroke: #b0b0b0; stroke-width: 0.8"/>
    <path d="M 410.40722 92.387041 
L 409.031229 217.943569 
L 330.933299 261.408955 
" style="fill: none; stroke: #b0b0b0; stroke-width: 0.8"/>
    <path d="M 429.437303 96.049212 
L 427.367187 222.65508 
L 350.077272 266.977736 
" style="fill: none; stroke: #b0b0b0; stroke-width: 0.8"/>
    <path d="M 448.842149 99.783503 
L 446.051191 227.456024 
L 369.616796 272.661579 
" style="fill: none; stroke: #b0b0b0; stroke-width: 0.8"/>
    <path d="M 468.632939 103.592066 
L 465.093246 232.34897 
L 389.56426 278.464086 
" style="fill: none; stroke: #b0b0b0; stroke-width: 0.8"/>
   </g>
  </g>
  <g id="grid3d_6">
   <g id="Line3DCollection_6">
    <path d="M 275.758119 245.359074 
L 356.017021 204.321317 
L 465.093246 232.34897 
" style="fill: none; stroke: #b0b0b0; stroke-width: 0.8"/>
    <path d="M 275.156893 224.10931 
L 355.926876 184.493634 
L 465.66515 211.545868 
" style="fill: none; stroke: #b0b0b0; stroke-width: 0.8"/>
    <path d="M 274.548077 202.591274 
L 355.835681 164.435293 
L 466.244094 190.486678 
" style="fill: none; stroke: #b0b0b0; stroke-width: 0.8"/>
    <path d="M 273.931526 180.799854 
L 355.74342 144.142247 
L 466.83021 169.16664 
" style="fill: none; stroke: #b0b0b0; stroke-width: 0.8"/>
    <path d="M 273.307092 158.729807 
L 355.650073 123.610351 
L 467.42363 147.58088 
" style="fill: none; stroke: #b0b0b0; stroke-width: 0.8"/>
    <path d="M 272.674622 136.375753 
L 355.55562 102.835363 
L 468.024493 125.724397 
" style="fill: none; stroke: #b0b0b0; stroke-width: 0.8"/>
    <path d="M 272.033961 113.732176 
L 355.460043 81.812941 
L 468.632939 103.592066 
" style="fill: none; stroke: #b0b0b0; stroke-width: 0.8"/>
   </g>
  </g>
  <g id="axis3d_4">
   <g id="line2d_32">
    <path d="M 465.093246 232.34897 
L 389.56426 278.464086 
" style="fill: none; stroke: #000000; stroke-width: 0.8; stroke-linecap: square"/>
   </g>
   <g id="xtick_22">
    <g id="line2d_33">
     <path d="M 464.170894 232.111967 
L 466.940498 232.82363 
" style="fill: none; stroke: #000000; stroke-width: 0.8; stroke-linecap: square"/>
    </g>
   </g>
   <g id="xtick_23">
    <g id="line2d_34">
     <path d="M 452.448639 239.258032 
L 455.240291 239.989584 
" style="fill: none; stroke: #000000; stroke-width: 0.8; stroke-linecap: square"/>
    </g>
   </g>
   <g id="xtick_24">
    <g id="line2d_35">
     <path d="M 440.396696 246.605081 
L 443.210548 247.357367 
" style="fill: none; stroke: #000000; stroke-width: 0.8; stroke-linecap: square"/>
    </g>
   </g>
   <g id="xtick_25">
    <g id="line2d_36">
     <path d="M 428.000955 254.161713 
L 430.837147 254.935628 
" style="fill: none; stroke: #000000; stroke-width: 0.8; stroke-linecap: square"/>
    </g>
   </g>
   <g id="xtick_26">
    <g id="line2d_37">
     <path d="M 415.246495 261.937027 
L 418.10515 262.733516 
" style="fill: none; stroke: #000000; stroke-width: 0.8; stroke-linecap: square"/>
    </g>
   </g>
   <g id="xtick_27">
    <g id="line2d_38">
     <path d="M 402.117514 269.940653 
L 404.998737 270.760721 
" style="fill: none; stroke: #000000; stroke-width: 0.8; stroke-linecap: square"/>
    </g>
   </g>
   <g id="xtick_28">
    <g id="line2d_39">
     <path d="M 388.597271 278.1828 
L 391.501147 279.027507 
" style="fill: none; stroke: #000000; stroke-width: 0.8; stroke-linecap: square"/>
    </g>
   </g>
  </g>
  <g id="axis3d_5">
   <g id="line2d_40">
    <path d="M 275.758119 245.359074 
L 389.56426 278.464086 
" style="fill: none; stroke: #000000; stroke-width: 0.8; stroke-linecap: square"/>
   </g>
   <g id="xtick_29">
    <g id="line2d_41">
     <path d="M 276.453769 245.003376 
L 274.364004 246.071909 
" style="fill: none; stroke: #000000; stroke-width: 0.8; stroke-linecap: square"/>
    </g>
   </g>
   <g id="xtick_30">
    <g id="line2d_42">
     <path d="M 294.475213 250.240092 
L 292.401505 251.329939 
" style="fill: none; stroke: #000000; stroke-width: 0.8; stroke-linecap: square"/>
    </g>
   </g>
   <g id="xtick_31">
    <g id="line2d_43">
     <path d="M 312.857573 255.581684 
L 310.800991 256.69349 
" style="fill: none; stroke: #000000; stroke-width: 0.8; stroke-linecap: square"/>
    </g>
   </g>
   <g id="xtick_32">
    <g id="line2d_44">
     <path d="M 331.611801 261.031335 
L 329.573466 262.165769 
" style="fill: none; stroke: #000000; stroke-width: 0.8; stroke-linecap: square"/>
    </g>
   </g>
   <g id="xtick_33">
    <g id="line2d_45">
     <path d="M 350.749297 266.592356 
L 348.730391 267.750118 
" style="fill: none; stroke: #000000; stroke-width: 0.8; stroke-linecap: square"/>
    </g>
   </g>
   <g id="xtick_34">
    <g id="line2d_46">
     <path d="M 370.281931 272.268198 
L 368.283696 273.450013 
" style="fill: none; stroke: #000000; stroke-width: 0.8; stroke-linecap: square"/>
    </g>
   </g>
   <g id="xtick_35">
    <g id="line2d_47">
     <path d="M 390.222069 278.062453 
L 388.245813 279.26908 
" style="fill: none; stroke: #000000; stroke-width: 0.8; stroke-linecap: square"/>
    </g>
   </g>
  </g>
  <g id="axis3d_6">
   <g id="line2d_48">
    <path d="M 275.758119 245.359074 
L 272.033961 113.732176 
" style="fill: none; stroke: #000000; stroke-width: 0.8; stroke-linecap: square"/>
   </g>
   <g id="xtick_36">
    <g id="line2d_49">
     <path d="M 276.453769 245.003376 
L 274.364004 246.071909 
" style="fill: none; stroke: #000000; stroke-width: 0.8; stroke-linecap: square"/>
    </g>
   </g>
   <g id="xtick_37">
    <g id="line2d_50">
     <path d="M 275.857311 223.765772 
L 273.753205 224.797784 
" style="fill: none; stroke: #000000; stroke-width: 0.8; stroke-linecap: square"/>
    </g>
   </g>
   <g id="xtick_38">
    <g id="line2d_51">
     <path d="M 275.253329 202.260233 
L 273.134685 203.254713 
" style="fill: none; stroke: #000000; stroke-width: 0.8; stroke-linecap: square"/>
    </g>
   </g>
   <g id="xtick_39">
    <g id="line2d_52">
     <path d="M 274.641677 180.481656 
L 272.508296 181.437564 
" style="fill: none; stroke: #000000; stroke-width: 0.8; stroke-linecap: square"/>
    </g>
   </g>
   <g id="xtick_40">
    <g id="line2d_53">
     <path d="M 274.022211 158.424807 
L 271.873887 159.341072 
" style="fill: none; stroke: #000000; stroke-width: 0.8; stroke-linecap: square"/>
    </g>
   </g>
   <g id="xtick_41">
    <g id="line2d_54">
     <path d="M 273.394779 136.084319 
L 271.231302 136.959837 
" style="fill: none; stroke: #000000; stroke-width: 0.8; stroke-linecap: square"/>
    </g>
   </g>
   <g id="xtick_42">
    <g id="line2d_55">
     <path d="M 272.759226 113.454686 
L 270.580384 114.288322 
" style="fill: none; stroke: #000000; stroke-width: 0.8; stroke-linecap: square"/>
    </g>
   </g>
  </g>
  <g id="axes_2">
   <g id="line2d_56">
    <path d="M 318.304814 162.144736 
L 428.051398 188.427405 
" clip-path="url(#p23038948c4)" style="fill: none; stroke-dasharray: 2,3.3; stroke-dashoffset: 0; stroke: #404040; stroke-width: 2"/>
   </g>
   <g id="line2d_57">
    <path d="M 371.605293 174.909405 
L 344.359487 188.217766 
" clip-path="url(#p23038948c4)" style="fill: none; stroke-dasharray: 5.18,2.24; stroke-dashoffset: 0; stroke: #d62728; stroke-opacity: 0.22; stroke-width: 1.4"/>
   </g>
   <g id="line2d_58">
    <path d="M 371.605293 174.909405 
L 410.180379 184.147563 
" clip-path="url(#p23038948c4)" style="fill: none; stroke-dasharray: 5.18,2.24; stroke-dashoffset: 0; stroke: #2ca02c; stroke-opacity: 0.22; stroke-width: 1.4"/>
   </g>
   <g id="line2d_59">
    <path d="M 371.605293 174.909405 
L 371.605293 130.981606 
" clip-path="url(#p23038948c4)" style="fill: none; stroke-dasharray: 5.18,2.24; stroke-dashoffset: 0; stroke: #1f77b4; stroke-opacity: 0.22; stroke-width: 1.4"/>
   </g>
   <g id="line2d_60">
    <path d="M 371.605293 174.909405 
L 349.5658 210.957382 
" clip-path="url(#p23038948c4)" style="fill: none; stroke: #d62728; stroke-width: 2.6; stroke-linecap: square"/>
   </g>
   <g id="line2d_61">
    <path d="M 371.605293 174.909405 
L 410.180379 184.147563 
" clip-path="url(#p23038948c4)" style="fill: none; stroke: #2ca02c; stroke-width: 2.6; stroke-linecap: square"/>
   </g>
   <g id="line2d_62">
    <path d="M 371.605293 174.909405 
L 356.006043 146.030742 
" clip-path="url(#p23038948c4)" style="fill: none; stroke: #1f77b4; stroke-width: 2.6; stroke-linecap: square"/>
   </g>
   <g id="text_5">
    <!-- x' -->
    <g style="fill: #d62728" transform="translate(342.972782 217.84516) scale(0.09 -0.09)">
     <use xlink:href="#DejaVuSans-78"/>
     <use xlink:href="#DejaVuSans-27" transform="translate(59.179688 0)"/>
    </g>
   </g>
   <g id="text_6">
    <!-- y' -->
    <g style="fill: #2ca02c" transform="translate(411.013959 187.764678) scale(0.09 -0.09)">
     <use xlink:href="#DejaVuSans-79"/>
     <use xlink:href="#DejaVuSans-27" transform="translate(59.179688 0)"/>
    </g>
   </g>
   <g id="text_7">
    <!-- z' -->
    <g style="fill: #1f77b4" transform="translate(350.478354 144.942873) scale(0.09 -0.09)">
     <use xlink:href="#DejaVuSans-7a"/>
     <use xlink:href="#DejaVuSans-27" transform="translate(52.490234 0)"/>
    </g>
   </g>
   <g id="text_8">
    <!-- Roll  phi = 35 deg, about Y -->
    <g transform="translate(308.168543 45.553969) scale(0.09 -0.09)">
     <defs>
      <path id="DejaVuSans-52" d="M 2841 2188 
Q 3044 2119 3236 1894 
Q 3428 1669 3622 1275 
L 4263 0 
L 3584 0 
L 2988 1197 
Q 2756 1666 2539 1819 
Q 2322 1972 1947 1972 
L 1259 1972 
L 1259 0 
L 628 0 
L 628 4666 
L 2053 4666 
Q 2853 4666 3247 4331 
Q 3641 3997 3641 3322 
Q 3641 2881 3436 2590 
Q 3231 2300 2841 2188 
z
M 1259 4147 
L 1259 2491 
L 2053 2491 
Q 2509 2491 2742 2702 
Q 2975 2913 2975 3322 
Q 2975 3731 2742 3939 
Q 2509 4147 2053 4147 
L 1259 4147 
z
" transform="scale(0.015625)"/>
      <path id="DejaVuSans-6c" d="M 603 4863 
L 1178 4863 
L 1178 0 
L 603 0 
L 603 4863 
z
" transform="scale(0.015625)"/>
      <path id="DejaVuSans-68" d="M 3513 2113 
L 3513 0 
L 2938 0 
L 2938 2094 
Q 2938 2591 2744 2837 
Q 2550 3084 2163 3084 
Q 1697 3084 1428 2787 
Q 1159 2491 1159 1978 
L 1159 0 
L 581 0 
L 581 4863 
L 1159 4863 
L 1159 2956 
Q 1366 3272 1645 3428 
Q 1925 3584 2291 3584 
Q 2894 3584 3203 3211 
Q 3513 2838 3513 2113 
z
" transform="scale(0.015625)"/>
     </defs>
     <use xlink:href="#DejaVuSans-52"/>
     <use xlink:href="#DejaVuSans-6f" transform="translate(64.982422 0)"/>
     <use xlink:href="#DejaVuSans-6c" transform="translate(126.164062 0)"/>
     <use xlink:href="#DejaVuSans-6c" transform="translate(153.947266 0)"/>
     <use xlink:href="#DejaVuSans-20" transform="translate(181.730469 0)"/>
     <use xlink:href="#DejaVuSans-20" transform="translate(213.517578 0)"/>
     <use xlink:href="#DejaVuSans-70" transform="translate(245.304688 0)"/>
     <use xlink:href="#DejaVuSans-68" transform="translate(308.78125 0)"/>
     <use xlink:href="#DejaVuSans-69" transform="translate(372.160156 0)"/>
     <use xlink:href="#DejaVuSans-20" transform="translate(399.943359 0)"/>
     <use xlink:href="#DejaVuSans-3d" transform="translate(431.730469 0)"/>
     <use xlink:href="#DejaVuSans-20" transform="translate(515.519531 0)"/>
     <use xlink:href="#DejaVuSans-33" transform="translate(547.306641 0)"/>
     <use xlink:href="#DejaVuSans-35" transform="translate(610.929688 0)"/>
     <use xlink:href="#DejaVuSans-20" transform="translate(674.552734 0)"/>
     <use xlink:href="#DejaVuSans-64" transform="translate(706.339844 0)"/>
     <use xlink:href="#DejaVuSans-65" transform="translate(769.816406 0)"/>
     <use xlink:href="#DejaVuSans-67" transform="translate(831.339844 0)"/>
     <use xlink:href="#DejaVuSans-2c" transform="translate(894.816406 0)"/>
     <use xlink:href="#DejaVuSans-20" transform="translate(926.603516 0)"/>
     <use xlink:href="#DejaVuSans-61" transform="translate(958.390625 0)"/>
     <use xlink:href="#DejaVuSans-62" transform="translate(1019.669922 0)"/>
     <use xlink:href="#DejaVuSans-6f" transform="translate(1083.146484 0)"/>
     <use xlink:href="#DejaVuSans-75" transform="translate(1144.328125 0)"/>
     <use xlink:href="#DejaVuSans-74" transform="translate(1207.707031 0)"/>
     <use xlink:href="#DejaVuSans-20" transform="translate(1246.916016 0)"/>
     <use xlink:href="#DejaVuSans-59" transform="translate(1278.703125 0)"/>
    </g>
    <!-- Eq. (2.15) -->
    <g transform="translate(346.367214 55.632) scale(0.09 -0.09)">
     <use xlink:href="#DejaVuSans-45"/>
     <use xlink:href="#DejaVuSans-71" transform="translate(63.183594 0)"/>
     <use xlink:href="#DejaVuSans-2e" transform="translate(126.660156 0)"/>
     <use xlink:href="#DejaVuSans-20" transform="translate(158.447266 0)"/>
     <use xlink:href="#DejaVuSans-28" transform="translate(190.234375 0)"/>
     <use xlink:href="#DejaVuSans-32" transform="translate(229.248047 0)"/>
     <use xlink:href="#DejaVuSans-2e" transform="translate(292.871094 0)"/>
     <use xlink:href="#DejaVuSans-31" transform="translate(324.658203 0)"/>
     <use xlink:href="#DejaVuSans-35" transform="translate(388.28125 0)"/>
     <use xlink:href="#DejaVuSans-29" transform="translate(451.904297 0)"/>
    </g>
   </g>
  </g>
  <g id="patch_10">
   <path d="M 496.869398 294.48 
L 729.717398 294.48 
L 729.717398 61.632 
L 496.869398 61.632 
z
" style="fill: #ffffff"/>
  </g>
  <g id="pane3d_7">
   <g id="patch_11">
    <path d="M 600.85172 204.321317 
L 709.927945 232.34897 
L 713.467638 103.592066 
L 600.294742 81.812941 
" style="fill: #f2f2f2; opacity: 0.5; stroke: #f2f2f2; stroke-linejoin: miter"/>
   </g>
  </g>
  <g id="pane3d_8">
   <g id="patch_12">
    <path d="M 600.85172 204.321317 
L 520.592818 245.359074 
L 516.86866 113.732176 
L 600.294742 81.812941 
" style="fill: #e6e6e6; opacity: 0.5; stroke: #e6e6e6; stroke-linejoin: miter"/>
   </g>
  </g>
  <g id="pane3d_9">
   <g id="patch_13">
    <path d="M 600.85172 204.321317 
L 520.592818 245.359074 
L 634.398959 278.464086 
L 709.927945 232.34897 
" style="fill: #ececec; opacity: 0.5; stroke: #ececec; stroke-linejoin: miter"/>
   </g>
  </g>
  <g id="grid3d_7">
   <g id="Line3DCollection_7">
    <path d="M 709.927945 232.34897 
L 600.85172 204.321317 
L 600.294742 81.812941 
" style="fill: none; stroke: #b0b0b0; stroke-width: 0.8"/>
    <path d="M 698.213021 239.501655 
L 588.352055 210.712611 
L 587.334822 86.771471 
" style="fill: none; stroke: #b0b0b0; stroke-width: 0.8"/>
    <path d="M 686.168458 246.855606 
L 575.520298 217.273709 
L 574.017941 91.866576 
" style="fill: none; stroke: #b0b0b0; stroke-width: 0.8"/>
    <path d="M 673.780145 254.419437 
L 562.343038 224.011468 
L 560.329147 97.103977 
" style="fill: none; stroke: #b0b0b0; stroke-width: 0.8"/>
    <path d="M 661.033151 262.202265 
L 548.806129 230.933123 
L 546.252636 102.48972 
" style="fill: none; stroke: #b0b0b0; stroke-width: 0.8"/>
    <path d="M 647.911672 270.213739 
L 534.894644 238.046304 
L 531.771702 108.030198 
" style="fill: none; stroke: #b0b0b0; stroke-width: 0.8"/>
    <path d="M 634.398959 278.464086 
L 520.592818 245.359074 
L 516.86866 113.732176 
" style="fill: none; stroke: #b0b0b0; stroke-width: 0.8"/>
   </g>
  </g>
  <g id="grid3d_8">
   <g id="Line3DCollection_8">
    <path d="M 600.294742 81.812941 
L 600.85172 204.321317 
L 520.592818 245.359074 
" style="fill: none; stroke: #b0b0b0; stroke-width: 0.8"/>
    <path d="M 618.26344 85.270859 
L 618.19996 208.779029 
L 538.619616 250.60288 
" style="fill: none; stroke: #b0b0b0; stroke-width: 0.8"/>
    <path d="M 636.575847 88.79492 
L 635.86838 213.319014 
L 557.007686 255.951777 
" style="fill: none; stroke: #b0b0b0; stroke-width: 0.8"/>
    <path d="M 655.241919 92.387041 
L 653.865928 217.943569 
L 575.767998 261.408955 
" style="fill: none; stroke: #b0b0b0; stroke-width: 0.8"/>
    <path d="M 674.272001 96.049212 
L 672.201886 222.65508 
L 594.911971 266.977736 
" style="fill: none; stroke: #b0b0b0; stroke-width: 0.8"/>
    <path d="M 693.676848 99.783503 
L 690.88589 227.456024 
L 614.451495 272.661579 
" style="fill: none; stroke: #b0b0b0; stroke-width: 0.8"/>
    <path d="M 713.467638 103.592066 
L 709.927945 232.34897 
L 634.398959 278.464086 
" style="fill: none; stroke: #b0b0b0; stroke-width: 0.8"/>
   </g>
  </g>
  <g id="grid3d_9">
   <g id="Line3DCollection_9">
    <path d="M 520.592818 245.359074 
L 600.85172 204.321317 
L 709.927945 232.34897 
" style="fill: none; stroke: #b0b0b0; stroke-width: 0.8"/>
    <path d="M 519.991592 224.10931 
L 600.761575 184.493634 
L 710.499849 211.545868 
" style="fill: none; stroke: #b0b0b0; stroke-width: 0.8"/>
    <path d="M 519.382776 202.591274 
L 600.67038 164.435293 
L 711.078793 190.486678 
" style="fill: none; stroke: #b0b0b0; stroke-width: 0.8"/>
    <path d="M 518.766225 180.799854 
L 600.578119 144.142247 
L 711.664908 169.16664 
" style="fill: none; stroke: #b0b0b0; stroke-width: 0.8"/>
    <path d="M 518.141791 158.729807 
L 600.484772 123.610351 
L 712.258329 147.58088 
" style="fill: none; stroke: #b0b0b0; stroke-width: 0.8"/>
    <path d="M 517.509321 136.375753 
L 600.390319 102.835363 
L 712.859192 125.724397 
" style="fill: none; stroke: #b0b0b0; stroke-width: 0.8"/>
    <path d="M 516.86866 113.732176 
L 600.294742 81.812941 
L 713.467638 103.592066 
" style="fill: none; stroke: #b0b0b0; stroke-width: 0.8"/>
   </g>
  </g>
  <g id="axis3d_7">
   <g id="line2d_63">
    <path d="M 709.927945 232.34897 
L 634.398959 278.464086 
" style="fill: none; stroke: #000000; stroke-width: 0.8; stroke-linecap: square"/>
   </g>
   <g id="xtick_43">
    <g id="line2d_64">
     <path d="M 709.005593 232.111967 
L 711.775197 232.82363 
" style="fill: none; stroke: #000000; stroke-width: 0.8; stroke-linecap: square"/>
    </g>
   </g>
   <g id="xtick_44">
    <g id="line2d_65">
     <path d="M 697.283338 239.258032 
L 700.07499 239.989584 
" style="fill: none; stroke: #000000; stroke-width: 0.8; stroke-linecap: square"/>
    </g>
   </g>
   <g id="xtick_45">
    <g id="line2d_66">
     <path d="M 685.231394 246.605081 
L 688.045247 247.357367 
" style="fill: none; stroke: #000000; stroke-width: 0.8; stroke-linecap: square"/>
    </g>
   </g>
   <g id="xtick_46">
    <g id="line2d_67">
     <path d="M 672.835654 254.161713 
L 675.671846 254.935628 
" style="fill: none; stroke: #000000; stroke-width: 0.8; stroke-linecap: square"/>
    </g>
   </g>
   <g id="xtick_47">
    <g id="line2d_68">
     <path d="M 660.081194 261.937027 
L 662.939849 262.733516 
" style="fill: none; stroke: #000000; stroke-width: 0.8; stroke-linecap: square"/>
    </g>
   </g>
   <g id="xtick_48">
    <g id="line2d_69">
     <path d="M 646.952213 269.940653 
L 649.833436 270.760721 
" style="fill: none; stroke: #000000; stroke-width: 0.8; stroke-linecap: square"/>
    </g>
   </g>
   <g id="xtick_49">
    <g id="line2d_70">
     <path d="M 633.43197 278.1828 
L 636.335846 279.027507 
" style="fill: none; stroke: #000000; stroke-width: 0.8; stroke-linecap: square"/>
    </g>
   </g>
  </g>
  <g id="axis3d_8">
   <g id="line2d_71">
    <path d="M 520.592818 245.359074 
L 634.398959 278.464086 
" style="fill: none; stroke: #000000; stroke-width: 0.8; stroke-linecap: square"/>
   </g>
   <g id="xtick_50">
    <g id="line2d_72">
     <path d="M 521.288468 245.003376 
L 519.198703 246.071909 
" style="fill: none; stroke: #000000; stroke-width: 0.8; stroke-linecap: square"/>
    </g>
   </g>
   <g id="xtick_51">
    <g id="line2d_73">
     <path d="M 539.309911 250.240092 
L 537.236204 251.329939 
" style="fill: none; stroke: #000000; stroke-width: 0.8; stroke-linecap: square"/>
    </g>
   </g>
   <g id="xtick_52">
    <g id="line2d_74">
     <path d="M 557.692271 255.581684 
L 555.635689 256.69349 
" style="fill: none; stroke: #000000; stroke-width: 0.8; stroke-linecap: square"/>
    </g>
   </g>
   <g id="xtick_53">
    <g id="line2d_75">
     <path d="M 576.4465 261.031335 
L 574.408165 262.165769 
" style="fill: none; stroke: #000000; stroke-width: 0.8; stroke-linecap: square"/>
    </g>
   </g>
   <g id="xtick_54">
    <g id="line2d_76">
     <path d="M 595.583996 266.592356 
L 593.56509 267.750118 
" style="fill: none; stroke: #000000; stroke-width: 0.8; stroke-linecap: square"/>
    </g>
   </g>
   <g id="xtick_55">
    <g id="line2d_77">
     <path d="M 615.11663 272.268198 
L 613.118395 273.450013 
" style="fill: none; stroke: #000000; stroke-width: 0.8; stroke-linecap: square"/>
    </g>
   </g>
   <g id="xtick_56">
    <g id="line2d_78">
     <path d="M 635.056768 278.062453 
L 633.080512 279.26908 
" style="fill: none; stroke: #000000; stroke-width: 0.8; stroke-linecap: square"/>
    </g>
   </g>
  </g>
  <g id="axis3d_9">
   <g id="line2d_79">
    <path d="M 520.592818 245.359074 
L 516.86866 113.732176 
" style="fill: none; stroke: #000000; stroke-width: 0.8; stroke-linecap: square"/>
   </g>
   <g id="xtick_57">
    <g id="line2d_80">
     <path d="M 521.288468 245.003376 
L 519.198703 246.071909 
" style="fill: none; stroke: #000000; stroke-width: 0.8; stroke-linecap: square"/>
    </g>
   </g>
   <g id="xtick_58">
    <g id="line2d_81">
     <path d="M 520.69201 223.765772 
L 518.587904 224.797784 
" style="fill: none; stroke: #000000; stroke-width: 0.8; stroke-linecap: square"/>
    </g>
   </g>
   <g id="xtick_59">
    <g id="line2d_82">
     <path d="M 520.088027 202.260233 
L 517.969384 203.254713 
" style="fill: none; stroke: #000000; stroke-width: 0.8; stroke-linecap: square"/>
    </g>
   </g>
   <g id="xtick_60">
    <g id="line2d_83">
     <path d="M 519.476376 180.481656 
L 517.342995 181.437564 
" style="fill: none; stroke: #000000; stroke-width: 0.8; stroke-linecap: square"/>
    </g>
   </g>
   <g id="xtick_61">
    <g id="line2d_84">
     <path d="M 518.85691 158.424807 
L 516.708586 159.341072 
" style="fill: none; stroke: #000000; stroke-width: 0.8; stroke-linecap: square"/>
    </g>
   </g>
   <g id="xtick_62">
    <g id="line2d_85">
     <path d="M 518.229477 136.084319 
L 516.066001 136.959837 
" style="fill: none; stroke: #000000; stroke-width: 0.8; stroke-linecap: square"/>
    </g>
   </g>
   <g id="xtick_63">
    <g id="line2d_86">
     <path d="M 517.593924 113.454686 
L 515.415082 114.288322 
" style="fill: none; stroke: #000000; stroke-width: 0.8; stroke-linecap: square"/>
    </g>
   </g>
  </g>
  <g id="axes_3">
   <g id="line2d_87">
    <path d="M 653.321398 156.894484 
L 576.41027 194.462139 
" clip-path="url(#pe351258c86)" style="fill: none; stroke-dasharray: 2,3.3; stroke-dashoffset: 0; stroke: #404040; stroke-width: 2"/>
   </g>
   <g id="line2d_88">
    <path d="M 616.439992 174.909405 
L 589.194186 188.217766 
" clip-path="url(#pe351258c86)" style="fill: none; stroke-dasharray: 5.18,2.24; stroke-dashoffset: 0; stroke: #d62728; stroke-opacity: 0.22; stroke-width: 1.4"/>
   </g>
   <g id="line2d_89">
    <path d="M 616.439992 174.909405 
L 655.015078 184.147563 
" clip-path="url(#pe351258c86)" style="fill: none; stroke-dasharray: 5.18,2.24; stroke-dashoffset: 0; stroke: #2ca02c; stroke-opacity: 0.22; stroke-width: 1.4"/>
   </g>
   <g id="line2d_90">
    <path d="M 616.439992 174.909405 
L 616.439992 130.981606 
" clip-path="url(#pe351258c86)" style="fill: none; stroke-dasharray: 5.18,2.24; stroke-dashoffset: 0; stroke: #1f77b4; stroke-opacity: 0.22; stroke-width: 1.4"/>
   </g>
   <g id="line2d_91">
    <path d="M 616.439992 174.909405 
L 589.194186 188.217766 
" clip-path="url(#pe351258c86)" style="fill: none; stroke: #d62728; stroke-width: 2.6; stroke-linecap: square"/>
   </g>
   <g id="line2d_92">
    <path d="M 616.439992 174.909405 
L 648.155974 157.029203 
" clip-path="url(#pe351258c86)" style="fill: none; stroke: #2ca02c; stroke-width: 2.6; stroke-linecap: square"/>
   </g>
   <g id="line2d_93">
    <path d="M 616.439992 174.909405 
L 594.774628 134.22642 
" clip-path="url(#pe351258c86)" style="fill: none; stroke: #1f77b4; stroke-width: 2.6; stroke-linecap: square"/>
   </g>
   <g id="text_9">
    <!-- x' -->
    <g style="fill: #d62728" transform="translate(581.917703 192.35035) scale(0.09 -0.09)">
     <use xlink:href="#DejaVuSans-78"/>
     <use xlink:href="#DejaVuSans-27" transform="translate(59.179688 0)"/>
    </g>
   </g>
   <g id="text_10">
    <!-- y' -->
    <g style="fill: #2ca02c" transform="translate(648.16403 157.309303) scale(0.09 -0.09)">
     <use xlink:href="#DejaVuSans-79"/>
     <use xlink:href="#DejaVuSans-27" transform="translate(59.179688 0)"/>
    </g>
   </g>
   <g id="text_11">
    <!-- z' -->
    <g style="fill: #1f77b4" transform="translate(588.579282 131.833704) scale(0.09 -0.09)">
     <use xlink:href="#DejaVuSans-7a"/>
     <use xlink:href="#DejaVuSans-27" transform="translate(52.490234 0)"/>
    </g>
   </g>
   <g id="text_12">
    <!-- Pitch  theta = 35 deg, about X -->
    <g transform="translate(544.946835 45.553969) scale(0.09 -0.09)">
     <defs>
      <path id="DejaVuSans-50" d="M 1259 4147 
L 1259 2394 
L 2053 2394 
Q 2494 2394 2734 2622 
Q 2975 2850 2975 3272 
Q 2975 3691 2734 3919 
Q 2494 4147 2053 4147 
L 1259 4147 
z
M 628 4666 
L 2053 4666 
Q 2838 4666 3239 4311 
Q 3641 3956 3641 3272 
Q 3641 2581 3239 2228 
Q 2838 1875 2053 1875 
L 1259 1875 
L 1259 0 
L 628 0 
L 628 4666 
z
" transform="scale(0.015625)"/>
      <path id="DejaVuSans-63" d="M 3122 3366 
L 3122 2828 
Q 2878 2963 2633 3030 
Q 2388 3097 2138 3097 
Q 1578 3097 1268 2742 
Q 959 2388 959 1747 
Q 959 1106 1268 751 
Q 1578 397 2138 397 
Q 2388 397 2633 464 
Q 2878 531 3122 666 
L 3122 134 
Q 2881 22 2623 -34 
Q 2366 -91 2075 -91 
Q 1284 -91 818 406 
Q 353 903 353 1747 
Q 353 2603 823 3093 
Q 1294 3584 2113 3584 
Q 2378 3584 2631 3529 
Q 2884 3475 3122 3366 
z
" transform="scale(0.015625)"/>
      <path id="DejaVuSans-58" d="M 403 4666 
L 1081 4666 
L 2241 2931 
L 3406 4666 
L 4084 4666 
L 2584 2425 
L 4184 0 
L 3506 0 
L 2194 1984 
L 872 0 
L 191 0 
L 1856 2491 
L 403 4666 
z
" transform="scale(0.015625)"/>
     </defs>
     <use xlink:href="#DejaVuSans-50"/>
     <use xlink:href="#DejaVuSans-69" transform="translate(58.052734 0)"/>
     <use xlink:href="#DejaVuSans-74" transform="translate(85.835938 0)"/>
     <use xlink:href="#DejaVuSans-63" transform="translate(125.044922 0)"/>
     <use xlink:href="#DejaVuSans-68" transform="translate(180.025391 0)"/>
     <use xlink:href="#DejaVuSans-20" transform="translate(243.404297 0)"/>
     <use xlink:href="#DejaVuSans-20" transform="translate(275.191406 0)"/>
     <use xlink:href="#DejaVuSans-74" transform="translate(306.978516 0)"/>
     <use xlink:href="#DejaVuSans-68" transform="translate(346.1875 0)"/>
     <use xlink:href="#DejaVuSans-65" transform="translate(409.566406 0)"/>
     <use xlink:href="#DejaVuSans-74" transform="translate(471.089844 0)"/>
     <use xlink:href="#DejaVuSans-61" transform="translate(510.298828 0)"/>
     <use xlink:href="#DejaVuSans-20" transform="translate(571.578125 0)"/>
     <use xlink:href="#DejaVuSans-3d" transform="translate(603.365234 0)"/>
     <use xlink:href="#DejaVuSans-20" transform="translate(687.154297 0)"/>
     <use xlink:href="#DejaVuSans-33" transform="translate(718.941406 0)"/>
     <use xlink:href="#DejaVuSans-35" transform="translate(782.564453 0)"/>
     <use xlink:href="#DejaVuSans-20" transform="translate(846.1875 0)"/>
     <use xlink:href="#DejaVuSans-64" transform="translate(877.974609 0)"/>
     <use xlink:href="#DejaVuSans-65" transform="translate(941.451172 0)"/>
     <use xlink:href="#DejaVuSans-67" transform="translate(1002.974609 0)"/>
     <use xlink:href="#DejaVuSans-2c" transform="translate(1066.451172 0)"/>
     <use xlink:href="#DejaVuSans-20" transform="translate(1098.238281 0)"/>
     <use xlink:href="#DejaVuSans-61" transform="translate(1130.025391 0)"/>
     <use xlink:href="#DejaVuSans-62" transform="translate(1191.304688 0)"/>
     <use xlink:href="#DejaVuSans-6f" transform="translate(1254.78125 0)"/>
     <use xlink:href="#DejaVuSans-75" transform="translate(1315.962891 0)"/>
     <use xlink:href="#DejaVuSans-74" transform="translate(1379.341797 0)"/>
     <use xlink:href="#DejaVuSans-20" transform="translate(1418.550781 0)"/>
     <use xlink:href="#DejaVuSans-58" transform="translate(1450.337891 0)"/>
    </g>
    <!-- Eq. (2.16) -->
    <g transform="translate(591.201913 55.632) scale(0.09 -0.09)">
     <defs>
      <path id="DejaVuSans-36" d="M 2113 2584 
Q 1688 2584 1439 2293 
Q 1191 2003 1191 1497 
Q 1191 994 1439 701 
Q 1688 409 2113 409 
Q 2538 409 2786 701 
Q 3034 994 3034 1497 
Q 3034 2003 2786 2293 
Q 2538 2584 2113 2584 
z
M 3366 4563 
L 3366 3988 
Q 3128 4100 2886 4159 
Q 2644 4219 2406 4219 
Q 1781 4219 1451 3797 
Q 1122 3375 1075 2522 
Q 1259 2794 1537 2939 
Q 1816 3084 2150 3084 
Q 2853 3084 3261 2657 
Q 3669 2231 3669 1497 
Q 3669 778 3244 343 
Q 2819 -91 2113 -91 
Q 1303 -91 875 529 
Q 447 1150 447 2328 
Q 447 3434 972 4092 
Q 1497 4750 2381 4750 
Q 2619 4750 2861 4703 
Q 3103 4656 3366 4563 
z
" transform="scale(0.015625)"/>
     </defs>
     <use xlink:href="#DejaVuSans-45"/>
     <use xlink:href="#DejaVuSans-71" transform="translate(63.183594 0)"/>
     <use xlink:href="#DejaVuSans-2e" transform="translate(126.660156 0)"/>
     <use xlink:href="#DejaVuSans-20" transform="translate(158.447266 0)"/>
     <use xlink:href="#DejaVuSans-28" transform="translate(190.234375 0)"/>
     <use xlink:href="#DejaVuSans-32" transform="translate(229.248047 0)"/>
     <use xlink:href="#DejaVuSans-2e" transform="translate(292.871094 0)"/>
     <use xlink:href="#DejaVuSans-31" transform="translate(324.658203 0)"/>
     <use xlink:href="#DejaVuSans-36" transform="translate(388.28125 0)"/>
     <use xlink:href="#DejaVuSans-29" transform="translate(451.904297 0)"/>
    </g>
   </g>
  </g>
  <g id="patch_14">
   <path d="M 741.704096 294.48 
L 974.552096 294.48 
L 974.552096 61.632 
L 741.704096 61.632 
z
" style="fill: #ffffff"/>
  </g>
  <g id="pane3d_10">
   <g id="patch_15">
    <path d="M 845.686419 204.321317 
L 954.762644 232.34897 
L 958.302337 103.592066 
L 845.12944 81.812941 
" style="fill: #f2f2f2; opacity: 0.5; stroke: #f2f2f2; stroke-linejoin: miter"/>
   </g>
  </g>
  <g id="pane3d_11">
   <g id="patch_16">
    <path d="M 845.686419 204.321317 
L 765.427517 245.359074 
L 761.703359 113.732176 
L 845.12944 81.812941 
" style="fill: #e6e6e6; opacity: 0.5; stroke: #e6e6e6; stroke-linejoin: miter"/>
   </g>
  </g>
  <g id="pane3d_12">
   <g id="patch_17">
    <path d="M 845.686419 204.321317 
L 765.427517 245.359074 
L 879.233657 278.464086 
L 954.762644 232.34897 
" style="fill: #ececec; opacity: 0.5; stroke: #ececec; stroke-linejoin: miter"/>
   </g>
  </g>
  <g id="grid3d_10">
   <g id="Line3DCollection_10">
    <path d="M 954.762644 232.34897 
L 845.686419 204.321317 
L 845.12944 81.812941 
" style="fill: none; stroke: #b0b0b0; stroke-width: 0.8"/>
    <path d="M 943.04772 239.501655 
L 833.186753 210.712611 
L 832.169521 86.771471 
" style="fill: none; stroke: #b0b0b0; stroke-width: 0.8"/>
    <path d="M 931.003157 246.855606 
L 820.354997 217.273709 
L 818.85264 91.866576 
" style="fill: none; stroke: #b0b0b0; stroke-width: 0.8"/>
    <path d="M 918.614843 254.419437 
L 807.177737 224.011468 
L 805.163845 97.103977 
" style="fill: none; stroke: #b0b0b0; stroke-width: 0.8"/>
    <path d="M 905.86785 262.202265 
L 793.640828 230.933123 
L 791.087335 102.48972 
" style="fill: none; stroke: #b0b0b0; stroke-width: 0.8"/>
    <path d="M 892.746371 270.213739 
L 779.729343 238.046304 
L 776.606401 108.030198 
" style="fill: none; stroke: #b0b0b0; stroke-width: 0.8"/>
    <path d="M 879.233657 278.464086 
L 765.427517 245.359074 
L 761.703359 113.732176 
" style="fill: none; stroke: #b0b0b0; stroke-width: 0.8"/>
   </g>
  </g>
  <g id="grid3d_11">
   <g id="Line3DCollection_11">
    <path d="M 845.12944 81.812941 
L 845.686419 204.321317 
L 765.427517 245.359074 
" style="fill: none; stroke: #b0b0b0; stroke-width: 0.8"/>
    <path d="M 863.098139 85.270859 
L 863.034658 208.779029 
L 783.454315 250.60288 
" style="fill: none; stroke: #b0b0b0; stroke-width: 0.8"/>
    <path d="M 881.410545 88.79492 
L 880.703079 213.319014 
L 801.842385 255.951777 
" style="fill: none; stroke: #b0b0b0; stroke-width: 0.8"/>
    <path d="M 900.076617 92.387041 
L 898.700627 217.943569 
L 820.602697 261.408955 
" style="fill: none; stroke: #b0b0b0; stroke-width: 0.8"/>
    <path d="M 919.1067 96.049212 
L 917.036585 222.65508 
L 839.746669 266.977736 
" style="fill: none; stroke: #b0b0b0; stroke-width: 0.8"/>
    <path d="M 938.511546 99.783503 
L 935.720589 227.456024 
L 859.286194 272.661579 
" style="fill: none; stroke: #b0b0b0; stroke-width: 0.8"/>
    <path d="M 958.302337 103.592066 
L 954.762644 232.34897 
L 879.233657 278.464086 
" style="fill: none; stroke: #b0b0b0; stroke-width: 0.8"/>
   </g>
  </g>
  <g id="grid3d_12">
   <g id="Line3DCollection_12">
    <path d="M 765.427517 245.359074 
L 845.686419 204.321317 
L 954.762644 232.34897 
" style="fill: none; stroke: #b0b0b0; stroke-width: 0.8"/>
    <path d="M 764.826291 224.10931 
L 845.596273 184.493634 
L 955.334548 211.545868 
" style="fill: none; stroke: #b0b0b0; stroke-width: 0.8"/>
    <path d="M 764.217475 202.591274 
L 845.505079 164.435293 
L 955.913492 190.486678 
" style="fill: none; stroke: #b0b0b0; stroke-width: 0.8"/>
    <path d="M 763.600924 180.799854 
L 845.412818 144.142247 
L 956.499607 169.16664 
" style="fill: none; stroke: #b0b0b0; stroke-width: 0.8"/>
    <path d="M 762.97649 158.729807 
L 845.31947 123.610351 
L 957.093027 147.58088 
" style="fill: none; stroke: #b0b0b0; stroke-width: 0.8"/>
    <path d="M 762.34402 136.375753 
L 845.225018 102.835363 
L 957.69389 125.724397 
" style="fill: none; stroke: #b0b0b0; stroke-width: 0.8"/>
    <path d="M 761.703359 113.732176 
L 845.12944 81.812941 
L 958.302337 103.592066 
" style="fill: none; stroke: #b0b0b0; stroke-width: 0.8"/>
   </g>
  </g>
  <g id="axis3d_10">
   <g id="line2d_94">
    <path d="M 954.762644 232.34897 
L 879.233657 278.464086 
" style="fill: none; stroke: #000000; stroke-width: 0.8; stroke-linecap: square"/>
   </g>
   <g id="xtick_64">
    <g id="line2d_95">
     <path d="M 953.840291 232.111967 
L 956.609896 232.82363 
" style="fill: none; stroke: #000000; stroke-width: 0.8; stroke-linecap: square"/>
    </g>
   </g>
   <g id="xtick_65">
    <g id="line2d_96">
     <path d="M 942.118037 239.258032 
L 944.909689 239.989584 
" style="fill: none; stroke: #000000; stroke-width: 0.8; stroke-linecap: square"/>
    </g>
   </g>
   <g id="xtick_66">
    <g id="line2d_97">
     <path d="M 930.066093 246.605081 
L 932.879946 247.357367 
" style="fill: none; stroke: #000000; stroke-width: 0.8; stroke-linecap: square"/>
    </g>
   </g>
   <g id="xtick_67">
    <g id="line2d_98">
     <path d="M 917.670353 254.161713 
L 920.506545 254.935628 
" style="fill: none; stroke: #000000; stroke-width: 0.8; stroke-linecap: square"/>
    </g>
   </g>
   <g id="xtick_68">
    <g id="line2d_99">
     <path d="M 904.915892 261.937027 
L 907.774547 262.733516 
" style="fill: none; stroke: #000000; stroke-width: 0.8; stroke-linecap: square"/>
    </g>
   </g>
   <g id="xtick_69">
    <g id="line2d_100">
     <path d="M 891.786912 269.940653 
L 894.668135 270.760721 
" style="fill: none; stroke: #000000; stroke-width: 0.8; stroke-linecap: square"/>
    </g>
   </g>
   <g id="xtick_70">
    <g id="line2d_101">
     <path d="M 878.266669 278.1828 
L 881.170545 279.027507 
" style="fill: none; stroke: #000000; stroke-width: 0.8; stroke-linecap: square"/>
    </g>
   </g>
  </g>
  <g id="axis3d_11">
   <g id="line2d_102">
    <path d="M 765.427517 245.359074 
L 879.233657 278.464086 
" style="fill: none; stroke: #000000; stroke-width: 0.8; stroke-linecap: square"/>
   </g>
   <g id="xtick_71">
    <g id="line2d_103">
     <path d="M 766.123167 245.003376 
L 764.033401 246.071909 
" style="fill: none; stroke: #000000; stroke-width: 0.8; stroke-linecap: square"/>
    </g>
   </g>
   <g id="xtick_72">
    <g id="line2d_104">
     <path d="M 784.14461 250.240092 
L 782.070903 251.329939 
" style="fill: none; stroke: #000000; stroke-width: 0.8; stroke-linecap: square"/>
    </g>
   </g>
   <g id="xtick_73">
    <g id="line2d_105">
     <path d="M 802.52697 255.581684 
L 800.470388 256.69349 
" style="fill: none; stroke: #000000; stroke-width: 0.8; stroke-linecap: square"/>
    </g>
   </g>
   <g id="xtick_74">
    <g id="line2d_106">
     <path d="M 821.281198 261.031335 
L 819.242864 262.165769 
" style="fill: none; stroke: #000000; stroke-width: 0.8; stroke-linecap: square"/>
    </g>
   </g>
   <g id="xtick_75">
    <g id="line2d_107">
     <path d="M 840.418695 266.592356 
L 838.399789 267.750118 
" style="fill: none; stroke: #000000; stroke-width: 0.8; stroke-linecap: square"/>
    </g>
   </g>
   <g id="xtick_76">
    <g id="line2d_108">
     <path d="M 859.951329 272.268198 
L 857.953094 273.450013 
" style="fill: none; stroke: #000000; stroke-width: 0.8; stroke-linecap: square"/>
    </g>
   </g>
   <g id="xtick_77">
    <g id="line2d_109">
     <path d="M 879.891467 278.062453 
L 877.915211 279.26908 
" style="fill: none; stroke: #000000; stroke-width: 0.8; stroke-linecap: square"/>
    </g>
   </g>
  </g>
  <g id="axis3d_12">
   <g id="line2d_110">
    <path d="M 765.427517 245.359074 
L 761.703359 113.732176 
" style="fill: none; stroke: #000000; stroke-width: 0.8; stroke-linecap: square"/>
   </g>
   <g id="xtick_78">
    <g id="line2d_111">
     <path d="M 766.123167 245.003376 
L 764.033401 246.071909 
" style="fill: none; stroke: #000000; stroke-width: 0.8; stroke-linecap: square"/>
    </g>
   </g>
   <g id="xtick_79">
    <g id="line2d_112">
     <path d="M 765.526709 223.765772 
L 763.422603 224.797784 
" style="fill: none; stroke: #000000; stroke-width: 0.8; stroke-linecap: square"/>
    </g>
   </g>
   <g id="xtick_80">
    <g id="line2d_113">
     <path d="M 764.922726 202.260233 
L 762.804083 203.254713 
" style="fill: none; stroke: #000000; stroke-width: 0.8; stroke-linecap: square"/>
    </g>
   </g>
   <g id="xtick_81">
    <g id="line2d_114">
     <path d="M 764.311075 180.481656 
L 762.177694 181.437564 
" style="fill: none; stroke: #000000; stroke-width: 0.8; stroke-linecap: square"/>
    </g>
   </g>
   <g id="xtick_82">
    <g id="line2d_115">
     <path d="M 763.691609 158.424807 
L 761.543284 159.341072 
" style="fill: none; stroke: #000000; stroke-width: 0.8; stroke-linecap: square"/>
    </g>
   </g>
   <g id="xtick_83">
    <g id="line2d_116">
     <path d="M 763.064176 136.084319 
L 760.9007 136.959837 
" style="fill: none; stroke: #000000; stroke-width: 0.8; stroke-linecap: square"/>
    </g>
   </g>
   <g id="xtick_84">
    <g id="line2d_117">
     <path d="M 762.428623 113.454686 
L 760.249781 114.288322 
" style="fill: none; stroke: #000000; stroke-width: 0.8; stroke-linecap: square"/>
    </g>
   </g>
  </g>
  <g id="axes_4">
   <g id="line2d_118">
    <path d="M 861.274691 174.909405 
L 834.028885 188.217766 
" clip-path="url(#p07fa20b311)" style="fill: none; stroke-dasharray: 5.18,2.24; stroke-dashoffset: 0; stroke: #d62728; stroke-opacity: 0.22; stroke-width: 1.4"/>
   </g>
   <g id="line2d_119">
    <path d="M 861.274691 174.909405 
L 899.849776 184.147563 
" clip-path="url(#p07fa20b311)" style="fill: none; stroke-dasharray: 5.18,2.24; stroke-dashoffset: 0; stroke: #2ca02c; stroke-opacity: 0.22; stroke-width: 1.4"/>
   </g>
   <g id="line2d_120">
    <path d="M 861.274691 174.909405 
L 861.274691 130.981606 
" clip-path="url(#p07fa20b311)" style="fill: none; stroke-dasharray: 5.18,2.24; stroke-dashoffset: 0; stroke: #1f77b4; stroke-opacity: 0.22; stroke-width: 1.4"/>
   </g>
   <g id="line2d_121">
    <path d="M 861.274691 174.909405 
L 861.274691 213.53448 
" clip-path="url(#p07fa20b311)" style="fill: none; stroke: #d62728; stroke-width: 2.6; stroke-linecap: square"/>
   </g>
   <g id="line2d_122">
    <path d="M 861.274691 174.909405 
L 899.750247 159.456755 
" clip-path="url(#p07fa20b311)" style="fill: none; stroke: #2ca02c; stroke-width: 2.6; stroke-linecap: square"/>
   </g>
   <g id="line2d_123">
    <path d="M 861.274691 174.909405 
L 834.13004 152.673809 
" clip-path="url(#p07fa20b311)" style="fill: none; stroke: #1f77b4; stroke-width: 2.6; stroke-linecap: square"/>
   </g>
   <g id="text_13">
    <!-- x' -->
    <g style="fill: #d62728" transform="translate(857.374457 220.764763) scale(0.09 -0.09)">
     <use xlink:href="#DejaVuSans-78"/>
     <use xlink:href="#DejaVuSans-27" transform="translate(59.179688 0)"/>
    </g>
   </g>
   <g id="text_14">
    <!-- y' -->
    <g style="fill: #2ca02c" transform="translate(900.55794 160.049382) scale(0.09 -0.09)">
     <use xlink:href="#DejaVuSans-79"/>
     <use xlink:href="#DejaVuSans-27" transform="translate(59.179688 0)"/>
    </g>
   </g>
   <g id="text_15">
    <!-- z' -->
    <g style="fill: #1f77b4" transform="translate(827.181763 152.413347) scale(0.09 -0.09)">
     <use xlink:href="#DejaVuSans-7a"/>
     <use xlink:href="#DejaVuSans-27" transform="translate(52.490234 0)"/>
    </g>
   </g>
   <g id="text_16">
    <!-- Composed C = Rx(theta) Ry(phi) Rz(psi) -->
    <g transform="translate(767.53255 45.553969) scale(0.09 -0.09)">
     <defs>
      <path id="DejaVuSans-43" d="M 4122 4306 
L 4122 3641 
Q 3803 3938 3442 4084 
Q 3081 4231 2675 4231 
Q 1875 4231 1450 3742 
Q 1025 3253 1025 2328 
Q 1025 1406 1450 917 
Q 1875 428 2675 428 
Q 3081 428 3442 575 
Q 3803 722 4122 1019 
L 4122 359 
Q 3791 134 3420 21 
Q 3050 -91 2638 -91 
Q 1578 -91 968 557 
Q 359 1206 359 2328 
Q 359 3453 968 4101 
Q 1578 4750 2638 4750 
Q 3056 4750 3426 4639 
Q 3797 4528 4122 4306 
z
" transform="scale(0.015625)"/>
      <path id="DejaVuSans-6d" d="M 3328 2828 
Q 3544 3216 3844 3400 
Q 4144 3584 4550 3584 
Q 5097 3584 5394 3201 
Q 5691 2819 5691 2113 
L 5691 0 
L 5113 0 
L 5113 2094 
Q 5113 2597 4934 2840 
Q 4756 3084 4391 3084 
Q 3944 3084 3684 2787 
Q 3425 2491 3425 1978 
L 3425 0 
L 2847 0 
L 2847 2094 
Q 2847 2600 2669 2842 
Q 2491 3084 2119 3084 
Q 1678 3084 1418 2786 
Q 1159 2488 1159 1978 
L 1159 0 
L 581 0 
L 581 3500 
L 1159 3500 
L 1159 2956 
Q 1356 3278 1631 3431 
Q 1906 3584 2284 3584 
Q 2666 3584 2933 3390 
Q 3200 3197 3328 2828 
z
" transform="scale(0.015625)"/>
     </defs>
     <use xlink:href="#DejaVuSans-43"/>
     <use xlink:href="#DejaVuSans-6f" transform="translate(69.824219 0)"/>
     <use xlink:href="#DejaVuSans-6d" transform="translate(131.005859 0)"/>
     <use xlink:href="#DejaVuSans-70" transform="translate(228.417969 0)"/>
     <use xlink:href="#DejaVuSans-6f" transform="translate(291.894531 0)"/>
     <use xlink:href="#DejaVuSans-73" transform="translate(353.076172 0)"/>
     <use xlink:href="#DejaVuSans-65" transform="translate(405.175781 0)"/>
     <use xlink:href="#DejaVuSans-64" transform="translate(466.699219 0)"/>
     <use xlink:href="#DejaVuSans-20" transform="translate(530.175781 0)"/>
     <use xlink:href="#DejaVuSans-43" transform="translate(561.962891 0)"/>
     <use xlink:href="#DejaVuSans-20" transform="translate(631.787109 0)"/>
     <use xlink:href="#DejaVuSans-3d" transform="translate(663.574219 0)"/>
     <use xlink:href="#DejaVuSans-20" transform="translate(747.363281 0)"/>
     <use xlink:href="#DejaVuSans-52" transform="translate(779.150391 0)"/>
     <use xlink:href="#DejaVuSans-78" transform="translate(848.632812 0)"/>
     <use xlink:href="#DejaVuSans-28" transform="translate(907.8125 0)"/>
     <use xlink:href="#DejaVuSans-74" transform="translate(946.826172 0)"/>
     <use xlink:href="#DejaVuSans-68" transform="translate(986.035156 0)"/>
     <use xlink:href="#DejaVuSans-65" transform="translate(1049.414062 0)"/>
     <use xlink:href="#DejaVuSans-74" transform="translate(1110.9375 0)"/>
     <use xlink:href="#DejaVuSans-61" transform="translate(1150.146484 0)"/>
     <use xlink:href="#DejaVuSans-29" transform="translate(1211.425781 0)"/>
     <use xlink:href="#DejaVuSans-20" transform="translate(1250.439453 0)"/>
     <use xlink:href="#DejaVuSans-52" transform="translate(1282.226562 0)"/>
     <use xlink:href="#DejaVuSans-79" transform="translate(1346.208984 0)"/>
     <use xlink:href="#DejaVuSans-28" transform="translate(1405.388672 0)"/>
     <use xlink:href="#DejaVuSans-70" transform="translate(1444.402344 0)"/>
     <use xlink:href="#DejaVuSans-68" transform="translate(1507.878906 0)"/>
     <use xlink:href="#DejaVuSans-69" transform="translate(1571.257812 0)"/>
     <use xlink:href="#DejaVuSans-29" transform="translate(1599.041016 0)"/>
     <use xlink:href="#DejaVuSans-20" transform="translate(1638.054688 0)"/>
     <use xlink:href="#DejaVuSans-52" transform="translate(1669.841797 0)"/>
     <use xlink:href="#DejaVuSans-7a" transform="translate(1739.324219 0)"/>
     <use xlink:href="#DejaVuSans-28" transform="translate(1791.814453 0)"/>
     <use xlink:href="#DejaVuSans-70" transform="translate(1830.828125 0)"/>
     <use xlink:href="#DejaVuSans-73" transform="translate(1894.304688 0)"/>
     <use xlink:href="#DejaVuSans-69" transform="translate(1946.404297 0)"/>
     <use xlink:href="#DejaVuSans-29" transform="translate(1974.1875 0)"/>
    </g>
    <!-- Eq. (2.17) -->
    <g transform="translate(836.036612 55.632) scale(0.09 -0.09)">
     <defs>
      <path id="DejaVuSans-37" d="M 525 4666 
L 3525 4666 
L 3525 4397 
L 1831 0 
L 1172 0 
L 2766 4134 
L 525 4134 
L 525 4666 
z
" transform="scale(0.015625)"/>
     </defs>
     <use xlink:href="#DejaVuSans-45"/>
     <use xlink:href="#DejaVuSans-71" transform="translate(63.183594 0)"/>
     <use xlink:href="#DejaVuSans-2e" transform="translate(126.660156 0)"/>
     <use xlink:href="#DejaVuSans-20" transform="translate(158.447266 0)"/>
     <use xlink:href="#DejaVuSans-28" transform="translate(190.234375 0)"/>
     <use xlink:href="#DejaVuSans-32" transform="translate(229.248047 0)"/>
     <use xlink:href="#DejaVuSans-2e" transform="translate(292.871094 0)"/>
     <use xlink:href="#DejaVuSans-31" transform="translate(324.658203 0)"/>
     <use xlink:href="#DejaVuSans-37" transform="translate(388.28125 0)"/>
     <use xlink:href="#DejaVuSans-29" transform="translate(451.904297 0)"/>
    </g>
   </g>
  </g>
  <g id="text_17">
   <!-- Chapter 2 Euler convention: roll about Y, pitch about X (dashed = reference frame, dotted = axis of rotation) -->
   <g transform="translate(190.701517 15.558281) scale(0.11 -0.11)">
    <defs>
     <path id="DejaVuSans-72" d="M 2631 2963 
Q 2534 3019 2420 3045 
Q 2306 3072 2169 3072 
Q 1681 3072 1420 2755 
Q 1159 2438 1159 1844 
L 1159 0 
L 581 0 
L 581 3500 
L 1159 3500 
L 1159 2956 
Q 1341 3275 1631 3429 
Q 1922 3584 2338 3584 
Q 2397 3584 2469 3576 
Q 2541 3569 2628 3553 
L 2631 2963 
z
" transform="scale(0.015625)"/>
     <path id="DejaVuSans-6e" d="M 3513 2113 
L 3513 0 
L 2938 0 
L 2938 2094 
Q 2938 2591 2744 2837 
Q 2550 3084 2163 3084 
Q 1697 3084 1428 2787 
Q 1159 2491 1159 1978 
L 1159 0 
L 581 0 
L 581 3500 
L 1159 3500 
L 1159 2956 
Q 1366 3272 1645 3428 
Q 1925 3584 2291 3584 
Q 2894 3584 3203 3211 
Q 3513 2838 3513 2113 
z
" transform="scale(0.015625)"/>
     <path id="DejaVuSans-76" d="M 191 3500 
L 800 3500 
L 1894 563 
L 2988 3500 
L 3597 3500 
L 2284 0 
L 1503 0 
L 191 3500 
z
" transform="scale(0.015625)"/>
     <path id="DejaVuSans-3a" d="M 750 794 
L 1409 794 
L 1409 0 
L 750 0 
L 750 794 
z
M 750 3309 
L 1409 3309 
L 1409 2516 
L 750 2516 
L 750 3309 
z
" transform="scale(0.015625)"/>
     <path id="DejaVuSans-66" d="M 2375 4863 
L 2375 4384 
L 1825 4384 
Q 1516 4384 1395 4259 
Q 1275 4134 1275 3809 
L 1275 3500 
L 2222 3500 
L 2222 3053 
L 1275 3053 
L 1275 0 
L 697 0 
L 697 3053 
L 147 3053 
L 147 3500 
L 697 3500 
L 697 3744 
Q 697 4328 969 4595 
Q 1241 4863 1831 4863 
L 2375 4863 
z
" transform="scale(0.015625)"/>
    </defs>
    <use xlink:href="#DejaVuSans-43"/>
    <use xlink:href="#DejaVuSans-68" transform="translate(69.824219 0)"/>
    <use xlink:href="#DejaVuSans-61" transform="translate(133.203125 0)"/>
    <use xlink:href="#DejaVuSans-70" transform="translate(194.482422 0)"/>
    <use xlink:href="#DejaVuSans-74" transform="translate(257.958984 0)"/>
    <use xlink:href="#DejaVuSans-65" transform="translate(297.167969 0)"/>
    <use xlink:href="#DejaVuSans-72" transform="translate(358.691406 0)"/>
    <use xlink:href="#DejaVuSans-20" transform="translate(399.804688 0)"/>
    <use xlink:href="#DejaVuSans-32" transform="translate(431.591797 0)"/>
    <use xlink:href="#DejaVuSans-20" transform="translate(495.214844 0)"/>
    <use xlink:href="#DejaVuSans-45" transform="translate(527.001953 0)"/>
    <use xlink:href="#DejaVuSans-75" transform="translate(590.185547 0)"/>
    <use xlink:href="#DejaVuSans-6c" transform="translate(653.564453 0)"/>
    <use xlink:href="#DejaVuSans-65" transform="translate(681.347656 0)"/>
    <use xlink:href="#DejaVuSans-72" transform="translate(742.871094 0)"/>
    <use xlink:href="#DejaVuSans-20" transform="translate(783.984375 0)"/>
    <use xlink:href="#DejaVuSans-63" transform="translate(815.771484 0)"/>
    <use xlink:href="#DejaVuSans-6f" transform="translate(870.751953 0)"/>
    <use xlink:href="#DejaVuSans-6e" transform="translate(931.933594 0)"/>
    <use xlink:href="#DejaVuSans-76" transform="translate(995.3125 0)"/>
    <use xlink:href="#DejaVuSans-65" transform="translate(1054.492188 0)"/>
    <use xlink:href="#DejaVuSans-6e" transform="translate(1116.015625 0)"/>
    <use xlink:href="#DejaVuSans-74" transform="translate(1179.394531 0)"/>
    <use xlink:href="#DejaVuSans-69" transform="translate(1218.603516 0)"/>
    <use xlink:href="#DejaVuSans-6f" transform="translate(1246.386719 0)"/>
    <use xlink:href="#DejaVuSans-6e" transform="translate(1307.568359 0)"/>
    <use xlink:href="#DejaVuSans-3a" transform="translate(1370.947266 0)"/>
    <use xlink:href="#DejaVuSans-20" transform="translate(1404.638672 0)"/>
    <use xlink:href="#DejaVuSans-72" transform="translate(1436.425781 0)"/>
    <use xlink:href="#DejaVuSans-6f" transform="translate(1475.289062 0)"/>
    <use xlink:href="#DejaVuSans-6c" transform="translate(1536.470703 0)"/>
    <use xlink:href="#DejaVuSans-6c" transform="translate(1564.253906 0)"/>
    <use xlink:href="#DejaVuSans-20" transform="translate(1592.037109 0)"/>
    <use xlink:href="#DejaVuSans-61" transform="translate(1623.824219 0)"/>
    <use xlink:href="#DejaVuSans-62" transform="translate(1685.103516 0)"/>
    <use xlink:href="#DejaVuSans-6f" transform="translate(1748.580078 0)"/>
    <use xlink:href="#DejaVuSans-75" transform="translate(1809.761719 0)"/>
    <use xlink:href="#DejaVuSans-74" transform="translate(1873.140625 0)"/>
    <use xlink:href="#DejaVuSans-20" transform="translate(1912.349609 0)"/>
    <use xlink:href="#DejaVuSans-59" transform="translate(1944.136719 0)"/>
    <use xlink:href="#DejaVuSans-2c" transform="translate(2005.220703 0)"/>
    <use xlink:href="#DejaVuSans-20" transform="translate(2037.007812 0)"/>
    <use xlink:href="#DejaVuSans-70" transform="translate(2068.794922 0)"/>
    <use xlink:href="#DejaVuSans-69" transform="translate(2132.271484 0)"/>
    <use xlink:href="#DejaVuSans-74" transform="translate(2160.054688 0)"/>
    <use xlink:href="#DejaVuSans-63" transform="translate(2199.263672 0)"/>
    <use xlink:href="#DejaVuSans-68" transform="translate(2254.244141 0)"/>
    <use xlink:href="#DejaVuSans-20" transform="translate(2317.623047 0)"/>
    <use xlink:href="#DejaVuSans-61" transform="translate(2349.410156 0)"/>
    <use xlink:href="#DejaVuSans-62" transform="translate(2410.689453 0)"/>
    <use xlink:href="#DejaVuSans-6f" transform="translate(2474.166016 0)"/>
    <use xlink:href="#DejaVuSans-75" transform="translate(2535.347656 0)"/>
    <use xlink:href="#DejaVuSans-74" transform="translate(2598.726562 0)"/>
    <use xlink:href="#DejaVuSans-20" transform="translate(2637.935547 0)"/>
    <use xlink:href="#DejaVuSans-58" transform="translate(2669.722656 0)"/>
    <use xlink:href="#DejaVuSans-20" transform="translate(2738.228516 0)"/>
    <use xlink:href="#DejaVuSans-28" transform="translate(2770.015625 0)"/>
    <use xlink:href="#DejaVuSans-64" transform="translate(2809.029297 0)"/>
    <use xlink:href="#DejaVuSans-61" transform="translate(2872.505859 0)"/>
    <use xlink:href="#DejaVuSans-73" transform="translate(2933.785156 0)"/>
    <use xlink:href="#DejaVuSans-68" transform="translate(2985.884766 0)"/>
    <use xlink:href="#DejaVuSans-65" transform="translate(3049.263672 0)"/>
    <use xlink:href="#DejaVuSans-64" transform="translate(3110.787109 0)"/>
    <use xlink:href="#DejaVuSans-20" transform="translate(3174.263672 0)"/>
    <use xlink:href="#DejaVuSans-3d" transform="translate(3206.050781 0)"/>
    <use xlink:href="#DejaVuSans-20" transform="translate(3289.839844 0)"/>
    <use xlink:href="#DejaVuSans-72" transform="translate(3321.626953 0)"/>
    <use xlink:href="#DejaVuSans-65" transform="translate(3360.490234 0)"/>
    <use xlink:href="#DejaVuSans-66" transform="translate(3422.013672 0)"/>
    <use xlink:href="#DejaVuSans-65" transform="translate(3457.21875 0)"/>
    <use xlink:href="#DejaVuSans-72" transform="translate(3518.742188 0)"/>
    <use xlink:href="#DejaVuSans-65" transform="translate(3557.605469 0)"/>
    <use xlink:href="#DejaVuSans-6e" transform="translate(3619.128906 0)"/>
    <use xlink:href="#DejaVuSans-63" transform="translate(3682.507812 0)"/>
    <use xlink:href="#DejaVuSans-65" transform="translate(3737.488281 0)"/>
    <use xlink:href="#DejaVuSans-20" transform="translate(3799.011719 0)"/>
    <use xlink:href="#DejaVuSans-66" transform="translate(3830.798828 0)"/>
    <use xlink:href="#DejaVuSans-72" transform="translate(3866.003906 0)"/>
    <use xlink:href="#DejaVuSans-61" transform="translate(3907.117188 0)"/>
    <use xlink:href="#DejaVuSans-6d" transform="translate(3968.396484 0)"/>
    <use xlink:href="#DejaVuSans-65" transform="translate(4065.808594 0)"/>
    <use xlink:href="#DejaVuSans-2c" transform="translate(4127.332031 0)"/>
    <use xlink:href="#DejaVuSans-20" transform="translate(4159.119141 0)"/>
    <use xlink:href="#DejaVuSans-64" transform="translate(4190.90625 0)"/>
    <use xlink:href="#DejaVuSans-6f" transform="translate(4254.382812 0)"/>
    <use xlink:href="#DejaVuSans-74" transform="translate(4315.564453 0)"/>
    <use xlink:href="#DejaVuSans-74" transform="translate(4354.773438 0)"/>
    <use xlink:href="#DejaVuSans-65" transform="translate(4393.982422 0)"/>
    <use xlink:href="#DejaVuSans-64" transform="translate(4455.505859 0)"/>
    <use xlink:href="#DejaVuSans-20" transform="translate(4518.982422 0)"/>
    <use xlink:href="#DejaVuSans-3d" transform="translate(4550.769531 0)"/>
    <use xlink:href="#DejaVuSans-20" transform="translate(4634.558594 0)"/>
    <use xlink:href="#DejaVuSans-61" transform="translate(4666.345703 0)"/>
    <use xlink:href="#DejaVuSans-78" transform="translate(4727.625 0)"/>
    <use xlink:href="#DejaVuSans-69" transform="translate(4786.804688 0)"/>
    <use xlink:href="#DejaVuSans-73" transform="translate(4814.587891 0)"/>
    <use xlink:href="#DejaVuSans-20" transform="translate(4866.6875 0)"/>
    <use xlink:href="#DejaVuSans-6f" transform="translate(4898.474609 0)"/>
    <use xlink:href="#DejaVuSans-66" transform="translate(4959.65625 0)"/>
    <use xlink:href="#DejaVuSans-20" transform="translate(4994.861328 0)"/>
    <use xlink:href="#DejaVuSans-72" transform="translate(5026.648438 0)"/>
    <use xlink:href="#DejaVuSans-6f" transform="translate(5065.511719 0)"/>
    <use xlink:href="#DejaVuSans-74" transform="translate(5126.693359 0)"/>
    <use xlink:href="#DejaVuSans-61" transform="translate(5165.902344 0)"/>
    <use xlink:href="#DejaVuSans-74" transform="translate(5227.181641 0)"/>
    <use xlink:href="#DejaVuSans-69" transform="translate(5266.390625 0)"/>
    <use xlink:href="#DejaVuSans-6f" transform="translate(5294.173828 0)"/>
    <use xlink:href="#DejaVuSans-6e" transform="translate(5355.355469 0)"/>
    <use xlink:href="#DejaVuSans-29" transform="translate(5418.734375 0)"/>
   </g>
  </g>
 </g>
 <defs>
  <clipPath id="p1332264a64">
   <rect x="7.2" y="61.632" width="232.848" height="232.848"/>
  </clipPath>
  <clipPath id="p23038948c4">
   <rect x="252.034699" y="61.632" width="232.848" height="232.848"/>
  </clipPath>
  <clipPath id="pe351258c86">
   <rect x="496.869398" y="61.632" width="232.848" height="232.848"/>
  </clipPath>
  <clipPath id="p07fa20b311">
   <rect x="741.704096" y="61.632" width="232.848" height="232.848"/>
  </clipPath>
 </defs>
</svg>
