<?xml version="1.0" encoding="UTF-8" standalone="no"?>
<!DOCTYPE svg PUBLIC "-//W3C//DTD SVG 1.1//EN"
 "http://www.w3.org/Graphics/SVG/1.1/DTD/svg11.dtd">
<!-- Generated by graphviz version 2.43.0 (0)
 -->
<!-- Title: G Pages: 1 -->
<svg width="1475pt" height="972pt"
 viewBox="0.00 0.00 1475.00 972.00" xmlns="http://www.w3.org/2000/svg" xmlns:xlink="http://www.w3.org/1999/xlink">
<g id="graph0" class="graph" transform="scale(1 1) rotate(0) translate(4 968)">
<title>G</title>
<polygon fill="white" stroke="transparent" points="-4,4 -4,-968 1471,-968 1471,4 -4,4"/>
<text text-anchor="middle" x="733.5" y="-947.2" font-family="Helvetica,sans-Serif" font-size="16.00">Chapter 8 (Sensor Fusion) — Component Overview (Simplified)</text>
<g id="clust1" class="cluster">
<title>cluster_ch8</title>
<path fill="white" stroke="#b0c4de" d="M20,-456C20,-456 1447,-456 1447,-456 1453,-456 1459,-462 1459,-468 1459,-468 1459,-918 1459,-918 1459,-924 1453,-930 1447,-930 1447,-930 20,-930 20,-930 14,-930 8,-924 8,-918 8,-918 8,-468 8,-468 8,-462 14,-456 20,-456"/>
<text text-anchor="middle" x="733.5" y="-913.2" font-family="Helvetica,sans-Serif" font-size="16.00">ch8_sensor_fusion/</text>
</g>
<g id="clust2" class="cluster">
<title>cluster_core</title>
<path fill="white" stroke="#c8e6c9" d="M1110,-163C1110,-163 1251,-163 1251,-163 1257,-163 1263,-169 1263,-175 1263,-175 1263,-331 1263,-331 1263,-337 1257,-343 1251,-343 1251,-343 1110,-343 1110,-343 1104,-343 1098,-337 1098,-331 1098,-331 1098,-175 1098,-175 1098,-169 1104,-163 1110,-163"/>
<text text-anchor="middle" x="1180.5" y="-326.2" font-family="Helvetica,sans-Serif" font-size="16.00">core/</text>
</g>
<g id="clust3" class="cluster">
<title>cluster_data</title>
<path fill="white" stroke="#ffd1dc" d="M596,-8C596,-8 686,-8 686,-8 692,-8 698,-14 698,-20 698,-20 698,-74 698,-74 698,-80 692,-86 686,-86 686,-86 596,-86 596,-86 590,-86 584,-80 584,-74 584,-74 584,-20 584,-20 584,-14 590,-8 596,-8"/>
<text text-anchor="middle" x="641" y="-69.2" font-family="Helvetica,sans-Serif" font-size="16.00">data/</text>
</g>
<!-- s_lc -->
<g id="node1" class="node">
<title>s_lc</title>
<path fill="#f7f7f7" stroke="#444444" d="M1058,-751C1058,-751 961,-751 961,-751 955,-751 949,-745 949,-739 949,-739 949,-719 949,-719 949,-713 955,-707 961,-707 961,-707 1058,-707 1058,-707 1064,-707 1070,-713 1070,-719 1070,-719 1070,-739 1070,-739 1070,-745 1064,-751 1058,-751"/>
<text text-anchor="middle" x="1009.5" y="-738.2" font-family="Helvetica,sans-Serif" font-size="11.00">lc_uwb_imu_ekf.py</text>
<text text-anchor="middle" x="1009.5" y="-726.2" font-family="Helvetica,sans-Serif" font-size="11.00">LC fusion demo</text>
<text text-anchor="middle" x="1009.5" y="-714.2" font-family="Helvetica,sans-Serif" font-size="11.00">(tags: fusion, eval)</text>
</g>
<!-- m_lc -->
<g id="node8" class="node">
<title>m_lc</title>
<path fill="#f7f7f7" stroke="#444444" d="M1435,-747C1435,-747 1307,-747 1307,-747 1301,-747 1295,-741 1295,-735 1295,-735 1295,-723 1295,-723 1295,-717 1301,-711 1307,-711 1307,-711 1435,-711 1435,-711 1441,-711 1447,-717 1447,-723 1447,-723 1447,-735 1447,-735 1447,-741 1441,-747 1435,-747"/>
<text text-anchor="middle" x="1371" y="-732.2" font-family="Helvetica,sans-Serif" font-size="11.00">lc_models.py</text>
<text text-anchor="middle" x="1371" y="-720.2" font-family="Helvetica,sans-Serif" font-size="11.00">LC models + WLS solver</text>
</g>
<!-- s_lc&#45;&gt;m_lc -->
<g id="edge1" class="edge">
<title>s_lc&#45;&gt;m_lc</title>
<path fill="none" stroke="#555555" d="M1070.27,-729C1129.34,-729 1220.22,-729 1286.43,-729"/>
<polygon fill="#555555" stroke="#555555" points="1286.78,-731.8 1294.78,-729 1286.78,-726.2 1286.78,-731.8"/>
</g>
<!-- s_tc -->
<g id="node2" class="node">
<title>s_tc</title>
<path fill="#f7f7f7" stroke="#444444" d="M1058,-619C1058,-619 961,-619 961,-619 955,-619 949,-613 949,-607 949,-607 949,-587 949,-587 949,-581 955,-575 961,-575 961,-575 1058,-575 1058,-575 1064,-575 1070,-581 1070,-587 1070,-587 1070,-607 1070,-607 1070,-613 1064,-619 1058,-619"/>
<text text-anchor="middle" x="1009.5" y="-606.2" font-family="Helvetica,sans-Serif" font-size="11.00">tc_uwb_imu_ekf.py</text>
<text text-anchor="middle" x="1009.5" y="-594.2" font-family="Helvetica,sans-Serif" font-size="11.00">TC fusion demo</text>
<text text-anchor="middle" x="1009.5" y="-582.2" font-family="Helvetica,sans-Serif" font-size="11.00">(tags: fusion, eval)</text>
</g>
<!-- m_tc -->
<g id="node9" class="node">
<title>m_tc</title>
<path fill="#f7f7f7" stroke="#444444" d="M1439,-615C1439,-615 1303,-615 1303,-615 1297,-615 1291,-609 1291,-603 1291,-603 1291,-591 1291,-591 1291,-585 1297,-579 1303,-579 1303,-579 1439,-579 1439,-579 1445,-579 1451,-585 1451,-591 1451,-591 1451,-603 1451,-603 1451,-609 1445,-615 1439,-615"/>
<text text-anchor="middle" x="1371" y="-600.2" font-family="Helvetica,sans-Serif" font-size="11.00">tc_models.py</text>
<text text-anchor="middle" x="1371" y="-588.2" font-family="Helvetica,sans-Serif" font-size="11.00">TC models + interpolation</text>
</g>
<!-- s_tc&#45;&gt;m_tc -->
<g id="edge2" class="edge">
<title>s_tc&#45;&gt;m_tc</title>
<path fill="none" stroke="#555555" d="M1070.27,-597C1128.19,-597 1216.69,-597 1282.53,-597"/>
<polygon fill="#555555" stroke="#555555" points="1282.85,-599.8 1290.85,-597 1282.85,-594.2 1282.85,-599.8"/>
</g>
<!-- s_cmp -->
<g id="node3" class="node">
<title>s_cmp</title>
<path fill="#f7f7f7" stroke="#444444" d="M685,-685C685,-685 597,-685 597,-685 591,-685 585,-679 585,-673 585,-673 585,-653 585,-653 585,-647 591,-641 597,-641 597,-641 685,-641 685,-641 691,-641 697,-647 697,-653 697,-653 697,-673 697,-673 697,-679 691,-685 685,-685"/>
<text text-anchor="middle" x="641" y="-672.2" font-family="Helvetica,sans-Serif" font-size="11.00">compare_lc_tc.py</text>
<text text-anchor="middle" x="641" y="-660.2" font-family="Helvetica,sans-Serif" font-size="11.00">comparison</text>
<text text-anchor="middle" x="641" y="-648.2" font-family="Helvetica,sans-Serif" font-size="11.00">(tags: eval)</text>
</g>
<!-- s_cmp&#45;&gt;s_lc -->
<g id="edge5" class="edge">
<title>s_cmp&#45;&gt;s_lc</title>
<path fill="none" stroke="#555555" stroke-dasharray="5,2" d="M697.05,-672.57C751.83,-682.13 838.27,-697.34 913,-711 922.08,-712.66 931.63,-714.43 941.05,-716.19"/>
<polygon fill="#555555" stroke="#555555" points="940.54,-718.94 948.91,-717.66 941.57,-713.44 940.54,-718.94"/>
<text text-anchor="middle" x="840.5" y="-714" font-family="Helvetica,sans-Serif" font-size="10.00">runs</text>
</g>
<!-- s_cmp&#45;&gt;s_tc -->
<g id="edge6" class="edge">
<title>s_cmp&#45;&gt;s_tc</title>
<path fill="none" stroke="#555555" stroke-dasharray="5,2" d="M697.27,-653.05C762.44,-641.31 870.77,-621.8 940.89,-609.18"/>
<polygon fill="#555555" stroke="#555555" points="941.45,-611.92 948.82,-607.75 940.45,-606.41 941.45,-611.92"/>
<text text-anchor="middle" x="840.5" y="-642" font-family="Helvetica,sans-Serif" font-size="10.00">runs</text>
</g>
<!-- s_tune -->
<g id="node4" class="node">
<title>s_tune</title>
<path fill="#f7f7f7" stroke="#444444" d="M901,-508C901,-508 780,-508 780,-508 774,-508 768,-502 768,-496 768,-496 768,-476 768,-476 768,-470 774,-464 780,-464 780,-464 901,-464 901,-464 907,-464 913,-470 913,-476 913,-476 913,-496 913,-496 913,-502 907,-508 901,-508"/>
<text text-anchor="middle" x="840.5" y="-495.2" font-family="Helvetica,sans-Serif" font-size="11.00">tuning_robust_demo.py</text>
<text text-anchor="middle" x="840.5" y="-483.2" font-family="Helvetica,sans-Serif" font-size="11.00">robust tuning</text>
<text text-anchor="middle" x="840.5" y="-471.2" font-family="Helvetica,sans-Serif" font-size="11.00">(tags: fusion, eval, ekf)</text>
</g>
<!-- s_tune&#45;&gt;m_tc -->
<g id="edge3" class="edge">
<title>s_tune&#45;&gt;m_tc</title>
<path fill="none" stroke="#555555" d="M913.05,-501.03C1009.1,-521.2 1179.6,-557.01 1282.97,-578.72"/>
<polygon fill="#555555" stroke="#555555" points="1282.51,-581.49 1290.91,-580.39 1283.66,-576 1282.51,-581.49"/>
</g>
<!-- c_est -->
<g id="node15" class="node">
<title>c_est</title>
<path fill="#f7f7f7" stroke="#444444" d="M1241,-309C1241,-309 1120,-309 1120,-309 1114,-309 1108,-303 1108,-297 1108,-297 1108,-285 1108,-285 1108,-279 1114,-273 1120,-273 1120,-273 1241,-273 1241,-273 1247,-273 1253,-279 1253,-285 1253,-285 1253,-297 1253,-297 1253,-303 1247,-309 1241,-309"/>
<text text-anchor="middle" x="1180.5" y="-294.2" font-family="Helvetica,sans-Serif" font-size="11.00">core/estimators/*</text>
<text text-anchor="middle" x="1180.5" y="-282.2" font-family="Helvetica,sans-Serif" font-size="11.00">(ExtendedKalmanFilter)</text>
</g>
<!-- s_tune&#45;&gt;c_est -->
<g id="edge22" class="edge">
<title>s_tune&#45;&gt;c_est</title>
<path fill="none" stroke="#555555" d="M913.06,-472.04C960.3,-460.54 1022.08,-440.99 1070,-410 1108.74,-384.95 1142.86,-343.03 1162.33,-316.22"/>
<polygon fill="#555555" stroke="#555555" points="1164.82,-317.55 1167.19,-309.41 1160.26,-314.3 1164.82,-317.55"/>
</g>
<!-- s_temp -->
<g id="node5" class="node">
<title>s_temp</title>
<path fill="#f7f7f7" stroke="#444444" d="M720,-598C720,-598 562,-598 562,-598 556,-598 550,-592 550,-586 550,-586 550,-566 550,-566 550,-560 556,-554 562,-554 562,-554 720,-554 720,-554 726,-554 732,-560 732,-566 732,-566 732,-586 732,-586 732,-592 726,-598 720,-598"/>
<text text-anchor="middle" x="641" y="-585.2" font-family="Helvetica,sans-Serif" font-size="11.00">temporal_calibration_demo.py</text>
<text text-anchor="middle" x="641" y="-573.2" font-family="Helvetica,sans-Serif" font-size="11.00">temporal calibration</text>
<text text-anchor="middle" x="641" y="-561.2" font-family="Helvetica,sans-Serif" font-size="11.00">(tags: fusion, eval, ekf)</text>
</g>
<!-- s_temp&#45;&gt;m_tc -->
<g id="edge4" class="edge">
<title>s_temp&#45;&gt;m_tc</title>
<path fill="none" stroke="#555555" d="M732.26,-573.65C786.77,-575.42 856.41,-583.46 913,-609 932.51,-617.81 928.99,-633.39 949,-641 999.27,-660.11 1016.36,-644.91 1070,-641 1142.1,-635.74 1223.18,-623.46 1282.86,-613.21"/>
<polygon fill="#555555" stroke="#555555" points="1283.36,-615.96 1290.76,-611.84 1282.4,-610.44 1283.36,-615.96"/>
</g>
<!-- s_temp&#45;&gt;c_est -->
<g id="edge23" class="edge">
<title>s_temp&#45;&gt;c_est</title>
<path fill="none" stroke="#555555" d="M657.72,-553.94C679.48,-524.84 721.4,-473.74 768,-443 826.32,-404.53 1012.4,-343.13 1113.17,-311.43"/>
<polygon fill="#555555" stroke="#555555" points="1114.07,-314.08 1120.86,-309.01 1112.39,-308.73 1114.07,-314.08"/>
</g>
<!-- s_cal -->
<g id="node6" class="node">
<title>s_cal</title>
<path fill="#f7f7f7" stroke="#444444" d="M693,-896C693,-896 589,-896 589,-896 583,-896 577,-890 577,-884 577,-884 577,-864 577,-864 577,-858 583,-852 589,-852 589,-852 693,-852 693,-852 699,-852 705,-858 705,-864 705,-864 705,-884 705,-884 705,-890 699,-896 693,-896"/>
<text text-anchor="middle" x="641" y="-883.2" font-family="Helvetica,sans-Serif" font-size="11.00">calibration_demo.py</text>
<text text-anchor="middle" x="641" y="-871.2" font-family="Helvetica,sans-Serif" font-size="11.00">intrinsic/extrinsic</text>
<text text-anchor="middle" x="641" y="-859.2" font-family="Helvetica,sans-Serif" font-size="11.00">(tags: standalone)</text>
</g>
<!-- s_obs -->
<g id="node7" class="node">
<title>s_obs</title>
<path fill="#f7f7f7" stroke="#444444" d="M366,-636C366,-636 249,-636 249,-636 243,-636 237,-630 237,-624 237,-624 237,-604 237,-604 237,-598 243,-592 249,-592 249,-592 366,-592 366,-592 372,-592 378,-598 378,-604 378,-604 378,-624 378,-624 378,-630 372,-636 366,-636"/>
<text text-anchor="middle" x="307.5" y="-623.2" font-family="Helvetica,sans-Serif" font-size="11.00">observability_demo.py</text>
<text text-anchor="middle" x="307.5" y="-611.2" font-family="Helvetica,sans-Serif" font-size="11.00">observability</text>
<text text-anchor="middle" x="307.5" y="-599.2" font-family="Helvetica,sans-Serif" font-size="11.00">(tags: ekf)</text>
</g>
<!-- figs -->
<g id="node12" class="node">
<title>figs</title>
<polygon fill="#e6f4ea" stroke="#444444" points="685.5,-809 682.5,-813 661.5,-813 658.5,-809 596.5,-809 596.5,-773 685.5,-773 685.5,-809"/>
<text text-anchor="middle" x="641" y="-794.2" font-family="Helvetica,sans-Serif" font-size="11.00">figs/</text>
<text text-anchor="middle" x="641" y="-782.2" font-family="Helvetica,sans-Serif" font-size="11.00">(saved plots)</text>
</g>
<!-- s_obs&#45;&gt;figs -->
<g id="edge19" class="edge">
<title>s_obs&#45;&gt;figs</title>
<path fill="none" stroke="#555555" d="M322.32,-636.1C344.65,-669.71 392.06,-732.93 450,-763 462.08,-769.27 536.03,-778.93 588.02,-785.11"/>
<polygon fill="#555555" stroke="#555555" points="587.89,-787.91 596.17,-786.07 588.55,-782.35 587.89,-787.91"/>
</g>
<!-- s_obs&#45;&gt;c_est -->
<g id="edge24" class="edge">
<title>s_obs&#45;&gt;c_est</title>
<path fill="none" stroke="#555555" d="M360.44,-591.96C377.64,-584.37 396.78,-575.61 414,-567 575.06,-486.51 601.9,-439.51 768,-370 845.32,-337.64 866.83,-333.54 949,-317 998.62,-307.01 1055.07,-300.57 1099.69,-296.59"/>
<polygon fill="#555555" stroke="#555555" points="1100.15,-299.36 1107.88,-295.88 1099.67,-293.78 1100.15,-299.36"/>
</g>
<!-- fusion_group -->
<g id="node10" class="node">
<title>fusion_group</title>
<polygon fill="#e8f0fe" stroke="#444444" points="414,-545 411,-549 390,-549 387,-545 201,-545 201,-509 414,-509 414,-545"/>
<text text-anchor="middle" x="307.5" y="-530.2" font-family="Helvetica,sans-Serif" font-size="11.00">Fusion scripts</text>
<text text-anchor="middle" x="307.5" y="-518.2" font-family="Helvetica,sans-Serif" font-size="11.00">LC / TC / Compare / Tune / Temporal</text>
</g>
<!-- fusion_group&#45;&gt;s_lc -->
<g id="edge7" class="edge">
<title>fusion_group&#45;&gt;s_lc</title>
<path fill="none" stroke="#555555" stroke-dasharray="1,5" d="M364.22,-545.04C381.01,-551.82 398.96,-560.48 414,-571 433.33,-584.52 433.53,-593.11 450,-610 493.24,-654.32 493.56,-681.53 550,-707 678.32,-764.92 847.89,-753.38 940.67,-740.66"/>
<polygon fill="#555555" stroke="#555555" points="941.32,-743.39 948.85,-739.51 940.54,-737.85 941.32,-743.39"/>
</g>
<!-- fusion_group&#45;&gt;s_tc -->
<g id="edge8" class="edge">
<title>fusion_group&#45;&gt;s_tc</title>
<path fill="none" stroke="#555555" stroke-dasharray="1,5" d="M414.05,-523.8C499.88,-522.33 624.03,-522.76 732,-533 813.33,-540.71 833.83,-544.86 913,-565 922.13,-567.32 931.66,-570.09 941,-573"/>
<polygon fill="#555555" stroke="#555555" points="940.32,-575.73 948.79,-575.48 942.02,-570.39 940.32,-575.73"/>
</g>
<!-- fusion_group&#45;&gt;s_cmp -->
<g id="edge9" class="edge">
<title>fusion_group&#45;&gt;s_cmp</title>
<path fill="none" stroke="#555555" stroke-dasharray="1,5" d="M352.52,-545.06C410.6,-568.89 513.13,-610.95 578.76,-637.87"/>
<polygon fill="#555555" stroke="#555555" points="577.71,-640.47 586.17,-640.92 579.83,-635.29 577.71,-640.47"/>
</g>
<!-- fusion_group&#45;&gt;s_tune -->
<g id="edge10" class="edge">
<title>fusion_group&#45;&gt;s_tune</title>
<path fill="none" stroke="#555555" stroke-dasharray="1,5" d="M387.84,-508.95C408.02,-505.01 429.72,-501.33 450,-499 556.52,-486.76 680.42,-484.7 759.37,-484.9"/>
<polygon fill="#555555" stroke="#555555" points="759.8,-487.7 767.81,-484.93 759.82,-482.1 759.8,-487.7"/>
</g>
<!-- fusion_group&#45;&gt;s_temp -->
<g id="edge11" class="edge">
<title>fusion_group&#45;&gt;s_temp</title>
<path fill="none" stroke="#555555" stroke-dasharray="1,5" d="M414.3,-542.64C455.25,-548.69 501.83,-555.58 542.01,-561.52"/>
<polygon fill="#555555" stroke="#555555" points="541.63,-564.29 549.95,-562.69 542.45,-558.75 541.63,-564.29"/>
</g>
<!-- fusion_group&#45;&gt;figs -->
<g id="edge17" class="edge">
<title>fusion_group&#45;&gt;figs</title>
<path fill="none" stroke="#555555" d="M378.7,-545.09C392.02,-551.37 404.68,-559.78 414,-571 463.05,-630.09 397.14,-684.29 450,-740 451.23,-741.3 532.43,-762.79 588.27,-777.46"/>
<polygon fill="#555555" stroke="#555555" points="587.86,-780.25 596.31,-779.57 589.28,-774.83 587.86,-780.25"/>
</g>
<!-- c_fusion -->
<g id="node14" class="node">
<title>c_fusion</title>
<path fill="#f7f7f7" stroke="#444444" d="M1243,-268C1243,-268 1118,-268 1118,-268 1112,-268 1106,-262 1106,-256 1106,-256 1106,-224 1106,-224 1106,-218 1112,-212 1118,-212 1118,-212 1243,-212 1243,-212 1249,-212 1255,-218 1255,-224 1255,-224 1255,-256 1255,-256 1255,-262 1249,-268 1243,-268"/>
<text text-anchor="middle" x="1180.5" y="-255.2" font-family="Helvetica,sans-Serif" font-size="11.00">core/fusion/*</text>
<text text-anchor="middle" x="1180.5" y="-243.2" font-family="Helvetica,sans-Serif" font-size="11.00">(StampedMeasurement,</text>
<text text-anchor="middle" x="1180.5" y="-231.2" font-family="Helvetica,sans-Serif" font-size="11.00">TimeSyncModel,</text>
<text text-anchor="middle" x="1180.5" y="-219.2" font-family="Helvetica,sans-Serif" font-size="11.00">Gating/robust utils)</text>
</g>
<!-- fusion_group&#45;&gt;c_fusion -->
<g id="edge20" class="edge">
<title>fusion_group&#45;&gt;c_fusion</title>
<path fill="none" stroke="#555555" d="M311.68,-508.72C321.55,-458.24 356.79,-316.86 450,-259 653.63,-132.6 954.66,-182.63 1097.95,-217.37"/>
<polygon fill="#555555" stroke="#555555" points="1097.47,-220.13 1105.91,-219.32 1098.8,-214.7 1097.47,-220.13"/>
</g>
<!-- c_eval -->
<g id="node16" class="node">
<title>c_eval</title>
<path fill="#f7f7f7" stroke="#444444" d="M1217,-207C1217,-207 1144,-207 1144,-207 1138,-207 1132,-201 1132,-195 1132,-195 1132,-183 1132,-183 1132,-177 1138,-171 1144,-171 1144,-171 1217,-171 1217,-171 1223,-171 1229,-177 1229,-183 1229,-183 1229,-195 1229,-195 1229,-201 1223,-207 1217,-207"/>
<text text-anchor="middle" x="1180.5" y="-192.2" font-family="Helvetica,sans-Serif" font-size="11.00">core/eval.py</text>
<text text-anchor="middle" x="1180.5" y="-180.2" font-family="Helvetica,sans-Serif" font-size="11.00">(errors, RMSE)</text>
</g>
<!-- fusion_group&#45;&gt;c_eval -->
<g id="edge21" class="edge">
<title>fusion_group&#45;&gt;c_eval</title>
<path fill="none" stroke="#555555" d="M312.17,-508.7C323.51,-456.4 362.67,-304.42 450,-216 484.51,-181.06 502.12,-179.92 550,-169 757.22,-121.73 1012.7,-157.78 1123.67,-177.87"/>
<polygon fill="#555555" stroke="#555555" points="1123.35,-180.66 1131.73,-179.34 1124.36,-175.15 1123.35,-180.66"/>
</g>
<!-- d_sim -->
<g id="node17" class="node">
<title>d_sim</title>
<polygon fill="#f7f7f7" stroke="#444444" points="690,-52 687,-56 666,-56 663,-52 592,-52 592,-16 690,-16 690,-52"/>
<text text-anchor="middle" x="641" y="-31.2" font-family="Helvetica,sans-Serif" font-size="11.00">data/sim/ch8_*</text>
</g>
<!-- fusion_group&#45;&gt;d_sim -->
<g id="edge25" class="edge">
<title>fusion_group&#45;&gt;d_sim</title>
<path fill="none" stroke="#555555" stroke-dasharray="1,5" d="M308.15,-508.95C307.85,-440.6 316.48,-195.37 450,-74 486.01,-41.26 541.84,-32.73 583.67,-31.51"/>
<polygon fill="#555555" stroke="#555555" points="583.9,-34.31 591.84,-31.36 583.79,-28.71 583.9,-34.31"/>
<text text-anchor="middle" x="482" y="-77" font-family="Helvetica,sans-Serif" font-size="10.00">optional load</text>
</g>
<!-- cal_group -->
<g id="node11" class="node">
<title>cal_group</title>
<polygon fill="#e8f0fe" stroke="#444444" points="382,-801 379,-805 358,-805 355,-801 233,-801 233,-765 382,-765 382,-801"/>
<text text-anchor="middle" x="307.5" y="-786.2" font-family="Helvetica,sans-Serif" font-size="11.00">Calibration scripts</text>
<text text-anchor="middle" x="307.5" y="-774.2" font-family="Helvetica,sans-Serif" font-size="11.00">(calibration + temporal)</text>
</g>
<!-- cal_group&#45;&gt;s_temp -->
<g id="edge13" class="edge">
<title>cal_group&#45;&gt;s_temp</title>
<path fill="none" stroke="#555555" stroke-dasharray="1,5" d="M332.8,-764.93C375.53,-733.54 467.45,-667.73 550,-620 560.87,-613.72 572.76,-607.48 584.24,-601.76"/>
<polygon fill="#555555" stroke="#555555" points="585.77,-604.13 591.71,-598.08 583.3,-599.1 585.77,-604.13"/>
</g>
<!-- cal_group&#45;&gt;s_cal -->
<g id="edge12" class="edge">
<title>cal_group&#45;&gt;s_cal</title>
<path fill="none" stroke="#555555" stroke-dasharray="1,5" d="M374.39,-801.09C430.57,-816.51 511.14,-838.63 568.79,-854.45"/>
<polygon fill="#555555" stroke="#555555" points="568.31,-857.22 576.77,-856.64 569.79,-851.82 568.31,-857.22"/>
</g>
<!-- cal_group&#45;&gt;figs -->
<g id="edge18" class="edge">
<title>cal_group&#45;&gt;figs</title>
<path fill="none" stroke="#555555" d="M382.07,-784.78C444.48,-786.28 532.46,-788.4 587.84,-789.74"/>
<polygon fill="#555555" stroke="#555555" points="588.04,-792.55 596.11,-789.94 588.18,-786.95 588.04,-792.55"/>
</g>
<!-- readme -->
<g id="node13" class="node">
<title>readme</title>
<polygon fill="#fff4e5" stroke="#444444" points="122,-632 16,-632 16,-596 128,-596 128,-626 122,-632"/>
<polyline fill="none" stroke="#444444" points="122,-632 122,-626 "/>
<polyline fill="none" stroke="#444444" points="128,-626 122,-626 "/>
<text text-anchor="middle" x="72" y="-617.2" font-family="Helvetica,sans-Serif" font-size="11.00">README.md</text>
<text text-anchor="middle" x="72" y="-605.2" font-family="Helvetica,sans-Serif" font-size="11.00">(run instructions)</text>
</g>
<!-- readme&#45;&gt;s_obs -->
<g id="edge16" class="edge">
<title>readme&#45;&gt;s_obs</title>
<path fill="none" stroke="#555555" stroke-dasharray="1,5" d="M128.04,-614C158,-614 195.56,-614 228.48,-614"/>
<polygon fill="#555555" stroke="#555555" points="228.75,-616.8 236.75,-614 228.75,-611.2 228.75,-616.8"/>
</g>
<!-- readme&#45;&gt;fusion_group -->
<g id="edge14" class="edge">
<title>readme&#45;&gt;fusion_group</title>
<path fill="none" stroke="#555555" stroke-dasharray="1,5" d="M121.38,-595.97C158.95,-581.98 211.1,-562.54 250.48,-547.87"/>
<polygon fill="#555555" stroke="#555555" points="251.66,-550.42 258.18,-545 249.71,-545.17 251.66,-550.42"/>
</g>
<!-- readme&#45;&gt;cal_group -->
<g id="edge15" class="edge">
<title>readme&#45;&gt;cal_group</title>
<path fill="none" stroke="#555555" stroke-dasharray="1,5" d="M97.99,-632.09C140.71,-663.01 227.72,-725.98 274.71,-759.99"/>
<polygon fill="#555555" stroke="#555555" points="273.22,-762.37 281.34,-764.79 276.5,-757.83 273.22,-762.37"/>
</g>
</g>
</svg>
