<?xml version="1.0" encoding="UTF-8" standalone="no"?>
<!DOCTYPE svg PUBLIC "-//W3C//DTD SVG 1.1//EN"
 "http://www.w3.org/Graphics/SVG/1.1/DTD/svg11.dtd">
<!-- Generated by graphviz version 2.43.0 (0)
 -->
<!-- Title: CH7_COMPONENT Pages: 1 -->
<svg width="1382pt" height="633pt"
 viewBox="0.00 0.00 1382.00 633.13" xmlns="http://www.w3.org/2000/svg" xmlns:xlink="http://www.w3.org/1999/xlink">
<g id="graph0" class="graph" transform="scale(1 1) rotate(0) translate(4 629.13)">
<title>CH7_COMPONENT</title>
<polygon fill="white" stroke="transparent" points="-4,4 -4,-629.13 1378,-629.13 1378,4 -4,4"/>
<text text-anchor="middle" x="687" y="-606.73" font-family="Times,serif" font-size="18.00">IPIN Examples — Chapter 7 (SLAM) — Component / Repo Architecture (Clean)</text>
<g id="clust1" class="cluster">
<title>cluster_ch7</title>
<path fill="none" stroke="#cccccc" d="M20,-27.13C20,-27.13 278,-27.13 278,-27.13 284,-27.13 290,-33.13 290,-39.13 290,-39.13 290,-203.13 290,-203.13 290,-209.13 284,-215.13 278,-215.13 278,-215.13 20,-215.13 20,-215.13 14,-215.13 8,-209.13 8,-203.13 8,-203.13 8,-39.13 8,-39.13 8,-33.13 14,-27.13 20,-27.13"/>
<text text-anchor="middle" x="149" y="-196.73" font-family="Times,serif" font-size="18.00">Chapter 7 (Entry Points)</text>
</g>
<g id="clust2" class="cluster">
<title>cluster_core_slam</title>
<path fill="none" stroke="#cccccc" d="M491,-239.13C491,-239.13 911,-239.13 911,-239.13 917,-239.13 923,-245.13 923,-251.13 923,-251.13 923,-577.13 923,-577.13 923,-583.13 917,-589.13 911,-589.13 911,-589.13 491,-589.13 491,-589.13 485,-589.13 479,-583.13 479,-577.13 479,-577.13 479,-251.13 479,-251.13 479,-245.13 485,-239.13 491,-239.13"/>
<text text-anchor="middle" x="701" y="-570.73" font-family="Times,serif" font-size="18.00">core/slam (Reusable SLAM building blocks)</text>
</g>
<g id="clust3" class="cluster">
<title>cluster_core_estimators</title>
<path fill="none" stroke="#cccccc" d="M1058,-87.13C1058,-87.13 1362,-87.13 1362,-87.13 1368,-87.13 1374,-93.13 1374,-99.13 1374,-99.13 1374,-155.13 1374,-155.13 1374,-161.13 1368,-167.13 1362,-167.13 1362,-167.13 1058,-167.13 1058,-167.13 1052,-167.13 1046,-161.13 1046,-155.13 1046,-155.13 1046,-99.13 1046,-99.13 1046,-93.13 1052,-87.13 1058,-87.13"/>
<text text-anchor="middle" x="1210" y="-148.73" font-family="Times,serif" font-size="18.00">core/estimators (Nonlinear solver)</text>
</g>
<g id="clust4" class="cluster">
<title>cluster_data</title>
<path fill="none" stroke="#cccccc" d="M422,-97.13C422,-97.13 629,-97.13 629,-97.13 635,-97.13 641,-103.13 641,-109.13 641,-109.13 641,-219.13 641,-219.13 641,-225.13 635,-231.13 629,-231.13 629,-231.13 422,-231.13 422,-231.13 416,-231.13 410,-225.13 410,-219.13 410,-219.13 410,-109.13 410,-109.13 410,-103.13 416,-97.13 422,-97.13"/>
<text text-anchor="middle" x="525.5" y="-212.73" font-family="Times,serif" font-size="18.00">Data (optional)</text>
</g>
<g id="clust5" class="cluster">
<title>cluster_out</title>
<path fill="none" stroke="#cccccc" d="M479,-9.13C479,-9.13 572,-9.13 572,-9.13 578,-9.13 584,-15.13 584,-21.13 584,-21.13 584,-77.13 584,-77.13 584,-83.13 578,-89.13 572,-89.13 572,-89.13 479,-89.13 479,-89.13 473,-89.13 467,-83.13 467,-77.13 467,-77.13 467,-21.13 467,-21.13 467,-15.13 473,-9.13 479,-9.13"/>
<text text-anchor="middle" x="525.5" y="-70.73" font-family="Times,serif" font-size="18.00">Outputs</text>
</g>
<!-- ch7_readme -->
<g id="node1" class="node">
<title>ch7_readme</title>
<path fill="#ffffff" stroke="black" d="M212.5,-179.13C212.5,-179.13 85.5,-179.13 85.5,-179.13 79.5,-179.13 73.5,-173.13 73.5,-167.13 73.5,-167.13 73.5,-155.13 73.5,-155.13 73.5,-149.13 79.5,-143.13 85.5,-143.13 85.5,-143.13 212.5,-143.13 212.5,-143.13 218.5,-143.13 224.5,-149.13 224.5,-155.13 224.5,-155.13 224.5,-167.13 224.5,-167.13 224.5,-173.13 218.5,-179.13 212.5,-179.13"/>
<text text-anchor="middle" x="149" y="-158.03" font-family="Helvetica,sans-Serif" font-size="12.00">ch7_slam/README.md</text>
</g>
<!-- ch7_pg -->
<g id="node2" class="node">
<title>ch7_pg</title>
<path fill="#f7f7f7" stroke="black" d="M265.5,-125.13C265.5,-125.13 32.5,-125.13 32.5,-125.13 26.5,-125.13 20.5,-119.13 20.5,-113.13 20.5,-113.13 20.5,-101.13 20.5,-101.13 20.5,-95.13 26.5,-89.13 32.5,-89.13 32.5,-89.13 265.5,-89.13 265.5,-89.13 271.5,-89.13 277.5,-95.13 277.5,-101.13 277.5,-101.13 277.5,-113.13 277.5,-113.13 277.5,-119.13 271.5,-125.13 265.5,-125.13"/>
<text text-anchor="middle" x="149" y="-104.03" font-family="Helvetica,sans-Serif" font-size="12.00">ch7_slam/example_pose_graph_slam.py</text>
</g>
<!-- core_init -->
<g id="node10" class="node">
<title>core_init</title>
<path fill="#f7f7f7" stroke="black" d="M552,-364.13C552,-364.13 499,-364.13 499,-364.13 493,-364.13 487,-358.13 487,-352.13 487,-352.13 487,-340.13 487,-340.13 487,-334.13 493,-328.13 499,-328.13 499,-328.13 552,-328.13 552,-328.13 558,-328.13 564,-334.13 564,-340.13 564,-340.13 564,-352.13 564,-352.13 564,-358.13 558,-364.13 552,-364.13"/>
<text text-anchor="middle" x="525.5" y="-349.53" font-family="Helvetica,sans-Serif" font-size="12.00">__init__.py</text>
<text text-anchor="middle" x="525.5" y="-336.53" font-family="Helvetica,sans-Serif" font-size="12.00">public API</text>
</g>
<!-- ch7_pg&#45;&gt;core_init -->
<g id="edge1" class="edge">
<title>ch7_pg&#45;&gt;core_init</title>
<path fill="none" stroke="#555555" d="M277.64,-123.7C282.08,-126.74 286.24,-130.2 290,-134.13 311.11,-156.21 283.43,-176.47 300,-202.13 341.96,-267.14 424.8,-308.63 477.27,-329.62"/>
<polygon fill="#555555" stroke="#555555" points="476.1,-332.92 486.69,-333.3 478.65,-326.4 476.1,-332.92"/>
<text text-anchor="middle" x="350" y="-291.33" font-family="Helvetica,sans-Serif" font-size="11.00">imports core.slam</text>
</g>
<!-- d1 -->
<g id="node12" class="node">
<title>d1</title>
<path fill="#f7f7f7" stroke="black" d="M613.5,-195.13C613.5,-195.13 437.5,-195.13 437.5,-195.13 431.5,-195.13 425.5,-189.13 425.5,-183.13 425.5,-183.13 425.5,-171.13 425.5,-171.13 425.5,-165.13 431.5,-159.13 437.5,-159.13 437.5,-159.13 613.5,-159.13 613.5,-159.13 619.5,-159.13 625.5,-165.13 625.5,-171.13 625.5,-171.13 625.5,-183.13 625.5,-183.13 625.5,-189.13 619.5,-195.13 613.5,-195.13"/>
<text text-anchor="middle" x="525.5" y="-174.03" font-family="Helvetica,sans-Serif" font-size="12.00">data/sim/ch7_slam_2d_square/</text>
</g>
<!-- ch7_pg&#45;&gt;d1 -->
<g id="edge11" class="edge">
<title>ch7_pg&#45;&gt;d1</title>
<path fill="none" stroke="#555555" stroke-dasharray="5,2" d="M276.28,-125.22C281.09,-127.84 285.69,-130.8 290,-134.13 298.18,-140.46 291.54,-149.19 300,-155.13 333.03,-178.32 375.83,-186.4 415.2,-187.79"/>
<polygon fill="#555555" stroke="#555555" points="415.32,-191.29 425.39,-188 415.47,-184.29 415.32,-191.29"/>
<text text-anchor="middle" x="350" y="-189.33" font-family="Helvetica,sans-Serif" font-size="11.00">&#45;&#45;data_dir</text>
</g>
<!-- d2 -->
<g id="node13" class="node">
<title>d2</title>
<path fill="#f7f7f7" stroke="black" d="M621,-141.13C621,-141.13 430,-141.13 430,-141.13 424,-141.13 418,-135.13 418,-129.13 418,-129.13 418,-117.13 418,-117.13 418,-111.13 424,-105.13 430,-105.13 430,-105.13 621,-105.13 621,-105.13 627,-105.13 633,-111.13 633,-117.13 633,-117.13 633,-129.13 633,-129.13 633,-135.13 627,-141.13 621,-141.13"/>
<text text-anchor="middle" x="525.5" y="-120.03" font-family="Helvetica,sans-Serif" font-size="12.00">data/sim/ch7_slam_2d_high_drift/</text>
</g>
<!-- ch7_pg&#45;&gt;d2 -->
<g id="edge12" class="edge">
<title>ch7_pg&#45;&gt;d2</title>
<path fill="none" stroke="#555555" stroke-dasharray="5,2" d="M277.6,-104.8C316.89,-104.84 360.25,-105.67 400,-108.13 402.57,-108.29 405.16,-108.47 407.78,-108.66"/>
<polygon fill="#555555" stroke="#555555" points="407.7,-112.17 417.95,-109.47 408.26,-105.19 407.7,-112.17"/>
<text text-anchor="middle" x="350" y="-111.33" font-family="Helvetica,sans-Serif" font-size="11.00">&#45;&#45;data_dir</text>
</g>
<!-- figs -->
<g id="node14" class="node">
<title>figs</title>
<path fill="#ffffff" stroke="black" d="M564,-53.13C564,-53.13 487,-53.13 487,-53.13 481,-53.13 475,-47.13 475,-41.13 475,-41.13 475,-29.13 475,-29.13 475,-23.13 481,-17.13 487,-17.13 487,-17.13 564,-17.13 564,-17.13 570,-17.13 576,-23.13 576,-29.13 576,-29.13 576,-41.13 576,-41.13 576,-47.13 570,-53.13 564,-53.13"/>
<text text-anchor="middle" x="525.5" y="-38.53" font-family="Helvetica,sans-Serif" font-size="12.00">ch7_slam/figs/</text>
<text text-anchor="middle" x="525.5" y="-25.53" font-family="Helvetica,sans-Serif" font-size="12.00">*.svg, *.png</text>
</g>
<!-- ch7_pg&#45;&gt;figs -->
<g id="edge13" class="edge">
<title>ch7_pg&#45;&gt;figs</title>
<path fill="none" stroke="#555555" d="M244.02,-89.06C313.35,-75.73 405.58,-58 465,-46.57"/>
<polygon fill="#555555" stroke="#555555" points="465.81,-49.98 474.97,-44.66 464.49,-43.11 465.81,-49.98"/>
<text text-anchor="middle" x="350" y="-80.33" font-family="Helvetica,sans-Serif" font-size="11.00">saves</text>
</g>
<!-- ch7_ba -->
<g id="node3" class="node">
<title>ch7_ba</title>
<path fill="#f7f7f7" stroke="black" d="M270,-71.13C270,-71.13 28,-71.13 28,-71.13 22,-71.13 16,-65.13 16,-59.13 16,-59.13 16,-47.13 16,-47.13 16,-41.13 22,-35.13 28,-35.13 28,-35.13 270,-35.13 270,-35.13 276,-35.13 282,-41.13 282,-47.13 282,-47.13 282,-59.13 282,-59.13 282,-65.13 276,-71.13 270,-71.13"/>
<text text-anchor="middle" x="149" y="-50.03" font-family="Helvetica,sans-Serif" font-size="12.00">ch7_slam/example_bundle_adjustment.py</text>
</g>
<!-- ch7_ba&#45;&gt;core_init -->
<g id="edge2" class="edge">
<title>ch7_ba&#45;&gt;core_init</title>
<path fill="none" stroke="#555555" d="M278.71,-71.19C282.71,-73.84 286.5,-76.81 290,-80.13 303.31,-92.73 286.74,-107.49 300,-120.13 332.8,-151.41 369.47,-106.64 400,-140.13 414.3,-155.82 400.71,-216.05 410,-235.13 427.55,-271.19 461.88,-301.97 488.4,-321.91"/>
<polygon fill="#555555" stroke="#555555" points="486.57,-324.91 496.7,-328 490.71,-319.26 486.57,-324.91"/>
<text text-anchor="middle" x="350" y="-143.33" font-family="Helvetica,sans-Serif" font-size="11.00">imports core.slam</text>
</g>
<!-- fg -->
<g id="node11" class="node">
<title>fg</title>
<path fill="#f7f7f7" stroke="black" d="M1271,-131.13C1271,-131.13 1148,-131.13 1148,-131.13 1142,-131.13 1136,-125.13 1136,-119.13 1136,-119.13 1136,-107.13 1136,-107.13 1136,-101.13 1142,-95.13 1148,-95.13 1148,-95.13 1271,-95.13 1271,-95.13 1277,-95.13 1283,-101.13 1283,-107.13 1283,-107.13 1283,-119.13 1283,-119.13 1283,-125.13 1277,-131.13 1271,-131.13"/>
<text text-anchor="middle" x="1209.5" y="-116.53" font-family="Helvetica,sans-Serif" font-size="12.00">factor_graph.py</text>
<text text-anchor="middle" x="1209.5" y="-103.53" font-family="Helvetica,sans-Serif" font-size="12.00">FactorGraph + GN/LM</text>
</g>
<!-- ch7_ba&#45;&gt;fg -->
<g id="edge3" class="edge">
<title>ch7_ba&#45;&gt;fg</title>
<path fill="none" stroke="#555555" d="M226.85,-35.13C278.34,-24.01 347.83,-10.82 410,-5.13 679.37,19.52 997.36,-54.68 1136.85,-92.47"/>
<polygon fill="#555555" stroke="#555555" points="1136.02,-95.87 1146.59,-95.13 1137.86,-89.12 1136.02,-95.87"/>
<text text-anchor="middle" x="699.5" y="-16.33" font-family="Helvetica,sans-Serif" font-size="11.00">uses FactorGraph</text>
</g>
<!-- ch7_ba&#45;&gt;figs -->
<g id="edge14" class="edge">
<title>ch7_ba&#45;&gt;figs</title>
<path fill="none" stroke="#555555" d="M282.05,-39.29C288.12,-38.86 294.12,-38.47 300,-38.13 355.78,-34.98 419.48,-34.41 464.74,-34.53"/>
<polygon fill="#555555" stroke="#555555" points="464.95,-38.03 474.97,-34.57 464.98,-31.03 464.95,-38.03"/>
<text text-anchor="middle" x="350" y="-41.33" font-family="Helvetica,sans-Serif" font-size="11.00">saves</text>
</g>
<!-- se2 -->
<g id="node4" class="node">
<title>se2</title>
<path fill="#f7f7f7" stroke="black" d="M865,-499.13C865,-499.13 816,-499.13 816,-499.13 810,-499.13 804,-493.13 804,-487.13 804,-487.13 804,-475.13 804,-475.13 804,-469.13 810,-463.13 816,-463.13 816,-463.13 865,-463.13 865,-463.13 871,-463.13 877,-469.13 877,-475.13 877,-475.13 877,-487.13 877,-487.13 877,-493.13 871,-499.13 865,-499.13"/>
<text text-anchor="middle" x="840.5" y="-484.53" font-family="Helvetica,sans-Serif" font-size="12.00">se2.py</text>
<text text-anchor="middle" x="840.5" y="-471.53" font-family="Helvetica,sans-Serif" font-size="12.00">SE(2) ops</text>
</g>
<!-- scan -->
<g id="node5" class="node">
<title>scan</title>
<path fill="#f7f7f7" stroke="black" d="M891,-553.13C891,-553.13 790,-553.13 790,-553.13 784,-553.13 778,-547.13 778,-541.13 778,-541.13 778,-529.13 778,-529.13 778,-523.13 784,-517.13 790,-517.13 790,-517.13 891,-517.13 891,-517.13 897,-517.13 903,-523.13 903,-529.13 903,-529.13 903,-541.13 903,-541.13 903,-547.13 897,-553.13 891,-553.13"/>
<text text-anchor="middle" x="840.5" y="-538.53" font-family="Helvetica,sans-Serif" font-size="12.00">scan_matching.py</text>
<text text-anchor="middle" x="840.5" y="-525.53" font-family="Helvetica,sans-Serif" font-size="12.00">ICP helpers</text>
</g>
<!-- ndt -->
<g id="node6" class="node">
<title>ndt</title>
<path fill="#f7f7f7" stroke="black" d="M896,-283.13C896,-283.13 785,-283.13 785,-283.13 779,-283.13 773,-277.13 773,-271.13 773,-271.13 773,-259.13 773,-259.13 773,-253.13 779,-247.13 785,-247.13 785,-247.13 896,-247.13 896,-247.13 902,-247.13 908,-253.13 908,-259.13 908,-259.13 908,-271.13 908,-271.13 908,-277.13 902,-283.13 896,-283.13"/>
<text text-anchor="middle" x="840.5" y="-268.53" font-family="Helvetica,sans-Serif" font-size="12.00">ndt.py</text>
<text text-anchor="middle" x="840.5" y="-255.53" font-family="Helvetica,sans-Serif" font-size="12.00">NDT align (optional)</text>
</g>
<!-- cam -->
<g id="node7" class="node">
<title>cam</title>
<path fill="#f7f7f7" stroke="black" d="M903,-337.13C903,-337.13 778,-337.13 778,-337.13 772,-337.13 766,-331.13 766,-325.13 766,-325.13 766,-313.13 766,-313.13 766,-307.13 772,-301.13 778,-301.13 778,-301.13 903,-301.13 903,-301.13 909,-301.13 915,-307.13 915,-313.13 915,-313.13 915,-325.13 915,-325.13 915,-331.13 909,-337.13 903,-337.13"/>
<text text-anchor="middle" x="840.5" y="-322.53" font-family="Helvetica,sans-Serif" font-size="12.00">camera.py</text>
<text text-anchor="middle" x="840.5" y="-309.53" font-family="Helvetica,sans-Serif" font-size="12.00">projection + distortion</text>
</g>
<!-- factors -->
<g id="node8" class="node">
<title>factors</title>
<path fill="#f7f7f7" stroke="black" d="M894,-391.13C894,-391.13 787,-391.13 787,-391.13 781,-391.13 775,-385.13 775,-379.13 775,-379.13 775,-367.13 775,-367.13 775,-361.13 781,-355.13 787,-355.13 787,-355.13 894,-355.13 894,-355.13 900,-355.13 906,-361.13 906,-367.13 906,-367.13 906,-379.13 906,-379.13 906,-385.13 900,-391.13 894,-391.13"/>
<text text-anchor="middle" x="840.5" y="-376.53" font-family="Helvetica,sans-Serif" font-size="12.00">factors.py</text>
<text text-anchor="middle" x="840.5" y="-363.53" font-family="Helvetica,sans-Serif" font-size="12.00">factor constructors</text>
</g>
<!-- factors&#45;&gt;fg -->
<g id="edge10" class="edge">
<title>factors&#45;&gt;fg</title>
<path fill="none" stroke="#555555" d="M903.92,-355.1C910.51,-352.42 916.99,-349.43 923,-346.13 1030.57,-287.06 1137.23,-185.7 1183.95,-138.58"/>
<polygon fill="#555555" stroke="#555555" points="1186.66,-140.82 1191.18,-131.24 1181.67,-135.91 1186.66,-140.82"/>
<text text-anchor="middle" x="984.5" y="-339.33" font-family="Helvetica,sans-Serif" font-size="11.00">creates factors for</text>
</g>
<!-- types -->
<g id="node9" class="node">
<title>types</title>
<path fill="#f7f7f7" stroke="black" d="M886.5,-445.13C886.5,-445.13 794.5,-445.13 794.5,-445.13 788.5,-445.13 782.5,-439.13 782.5,-433.13 782.5,-433.13 782.5,-421.13 782.5,-421.13 782.5,-415.13 788.5,-409.13 794.5,-409.13 794.5,-409.13 886.5,-409.13 886.5,-409.13 892.5,-409.13 898.5,-415.13 898.5,-421.13 898.5,-421.13 898.5,-433.13 898.5,-433.13 898.5,-439.13 892.5,-445.13 886.5,-445.13"/>
<text text-anchor="middle" x="840.5" y="-430.53" font-family="Helvetica,sans-Serif" font-size="12.00">types.py</text>
<text text-anchor="middle" x="840.5" y="-417.53" font-family="Helvetica,sans-Serif" font-size="12.00">Pose2 / intrinsics</text>
</g>
<!-- core_init&#45;&gt;se2 -->
<g id="edge4" class="edge">
<title>core_init&#45;&gt;se2</title>
<path fill="none" stroke="#555555" d="M564.3,-364.19C611.19,-386.36 693.8,-424.64 766,-454.13 775.06,-457.83 784.84,-461.59 794.21,-465.07"/>
<polygon fill="#555555" stroke="#555555" points="793.19,-468.43 803.79,-468.6 795.61,-461.86 793.19,-468.43"/>
</g>
<!-- core_init&#45;&gt;scan -->
<g id="edge5" class="edge">
<title>core_init&#45;&gt;scan</title>
<path fill="none" stroke="#555555" d="M549.12,-364.21C590.3,-396.48 681.11,-464.65 766,-508.13 769.28,-509.81 772.69,-511.44 776.16,-513"/>
<polygon fill="#555555" stroke="#555555" points="774.89,-516.27 785.46,-517 777.65,-509.84 774.89,-516.27"/>
</g>
<!-- core_init&#45;&gt;ndt -->
<g id="edge9" class="edge">
<title>core_init&#45;&gt;ndt</title>
<path fill="none" stroke="#555555" stroke-dasharray="5,2" d="M564.24,-334.72C588.86,-327.4 621.74,-317.85 651,-310.13 687.57,-300.49 728.36,-290.64 762.63,-282.62"/>
<polygon fill="#555555" stroke="#555555" points="763.63,-285.98 772.57,-280.3 762.04,-279.16 763.63,-285.98"/>
<text text-anchor="middle" x="699.5" y="-313.33" font-family="Helvetica,sans-Serif" font-size="11.00">optional</text>
</g>
<!-- core_init&#45;&gt;cam -->
<g id="edge6" class="edge">
<title>core_init&#45;&gt;cam</title>
<path fill="none" stroke="#555555" d="M564.26,-342.88C611.39,-338.81 693.37,-331.74 755.64,-326.37"/>
<polygon fill="#555555" stroke="#555555" points="756.18,-329.83 765.85,-325.49 755.58,-322.86 756.18,-329.83"/>
</g>
<!-- core_init&#45;&gt;factors -->
<g id="edge7" class="edge">
<title>core_init&#45;&gt;factors</title>
<path fill="none" stroke="#555555" d="M564.26,-349.39C613.7,-353.65 701.49,-361.23 764.65,-366.68"/>
<polygon fill="#555555" stroke="#555555" points="764.69,-370.19 774.96,-367.57 765.29,-363.22 764.69,-370.19"/>
</g>
<!-- core_init&#45;&gt;types -->
<g id="edge8" class="edge">
<title>core_init&#45;&gt;types</title>
<path fill="none" stroke="#555555" d="M564.26,-355.9C615.73,-369.22 708.77,-393.3 772.3,-409.74"/>
<polygon fill="#555555" stroke="#555555" points="771.68,-413.2 782.24,-412.31 773.43,-406.42 771.68,-413.2"/>
</g>
</g>
</svg>
