<?xml version="1.0" encoding="UTF-8" standalone="no"?>
<!DOCTYPE svg PUBLIC "-//W3C//DTD SVG 1.1//EN"
 "http://www.w3.org/Graphics/SVG/1.1/DTD/svg11.dtd">
<!-- Generated by graphviz version 2.43.0 (0)
 -->
<!-- Title: ch5_component Pages: 1 -->
<svg width="817pt" height="762pt"
 viewBox="0.00 0.00 817.00 762.00" xmlns="http://www.w3.org/2000/svg" xmlns:xlink="http://www.w3.org/1999/xlink">
<g id="graph0" class="graph" transform="scale(1 1) rotate(0) translate(4 758)">
<title>ch5_component</title>
<polygon fill="white" stroke="transparent" points="-4,4 -4,-758 813,-758 813,4 -4,4"/>
<text text-anchor="middle" x="404.5" y="-735.6" font-family="Helvetica,sans-Serif" font-size="18.00">Chapter 5 (Fingerprinting) — Component Overview</text>
<g id="clust1" class="cluster">
<title>cluster_ch5</title>
<polygon fill="none" stroke="#bbbbbb" points="8,-368 8,-718 801,-718 801,-368 8,-368"/>
<text text-anchor="middle" x="404.5" y="-699.6" font-family="Helvetica,sans-Serif" font-size="18.00">ch5_fingerprinting/</text>
</g>
<g id="clust2" class="cluster">
<title>cluster_core</title>
<polygon fill="none" stroke="#bbbbbb" points="464.5,-204 464.5,-360 631.5,-360 631.5,-204 464.5,-204"/>
<text text-anchor="middle" x="548" y="-341.6" font-family="Helvetica,sans-Serif" font-size="18.00">core/</text>
</g>
<g id="clust3" class="cluster">
<title>cluster_data</title>
<polygon fill="none" stroke="#bbbbbb" points="429.5,-8 429.5,-196 666.5,-196 666.5,-8 429.5,-8"/>
<text text-anchor="middle" x="548" y="-177.6" font-family="Helvetica,sans-Serif" font-size="18.00">data/sim/</text>
</g>
<!-- readme -->
<g id="node1" class="node">
<title>readme</title>
<path fill="none" stroke="black" d="M95,-466C95,-466 28,-466 28,-466 22,-466 16,-460 16,-454 16,-454 16,-442 16,-442 16,-436 22,-430 28,-430 28,-430 95,-430 95,-430 101,-430 107,-436 107,-442 107,-442 107,-454 107,-454 107,-460 101,-466 95,-466"/>
<text text-anchor="middle" x="61.5" y="-444.9" font-family="Helvetica,sans-Serif" font-size="12.00">README.md</text>
</g>
<!-- det -->
<g id="node2" class="node">
<title>det</title>
<path fill="none" stroke="black" d="M321.5,-574C321.5,-574 175.5,-574 175.5,-574 169.5,-574 163.5,-568 163.5,-562 163.5,-562 163.5,-550 163.5,-550 163.5,-544 169.5,-538 175.5,-538 175.5,-538 321.5,-538 321.5,-538 327.5,-538 333.5,-544 333.5,-550 333.5,-550 333.5,-562 333.5,-562 333.5,-568 327.5,-574 321.5,-574"/>
<text text-anchor="middle" x="248.5" y="-552.9" font-family="Helvetica,sans-Serif" font-size="12.00">example_deterministic.py</text>
</g>
<!-- readme&#45;&gt;det -->
<g id="edge1" class="edge">
<title>readme&#45;&gt;det</title>
<path fill="none" stroke="black" d="M76.04,-466.26C90.75,-484.8 115.93,-512.98 144,-529 147.26,-530.86 150.64,-532.59 154.12,-534.21"/>
<polygon fill="black" stroke="black" points="152.93,-537.51 163.5,-538.22 155.68,-531.07 152.93,-537.51"/>
</g>
<!-- prob -->
<g id="node3" class="node">
<title>prob</title>
<path fill="none" stroke="black" d="M318.5,-520C318.5,-520 178.5,-520 178.5,-520 172.5,-520 166.5,-514 166.5,-508 166.5,-508 166.5,-496 166.5,-496 166.5,-490 172.5,-484 178.5,-484 178.5,-484 318.5,-484 318.5,-484 324.5,-484 330.5,-490 330.5,-496 330.5,-496 330.5,-508 330.5,-508 330.5,-514 324.5,-520 318.5,-520"/>
<text text-anchor="middle" x="248.5" y="-498.9" font-family="Helvetica,sans-Serif" font-size="12.00">example_probabilistic.py</text>
</g>
<!-- readme&#45;&gt;prob -->
<g id="edge2" class="edge">
<title>readme&#45;&gt;prob</title>
<path fill="none" stroke="black" d="M107.17,-463.38C119.09,-467.32 131.99,-471.45 144,-475 151.12,-477.11 158.54,-479.21 165.99,-481.27"/>
<polygon fill="black" stroke="black" points="165.22,-484.68 175.79,-483.94 167.06,-477.93 165.22,-484.68"/>
</g>
<!-- pr -->
<g id="node4" class="node">
<title>pr</title>
<path fill="none" stroke="black" d="M341,-466C341,-466 156,-466 156,-466 150,-466 144,-460 144,-454 144,-454 144,-442 144,-442 144,-436 150,-430 156,-430 156,-430 341,-430 341,-430 347,-430 353,-436 353,-442 353,-442 353,-454 353,-454 353,-460 347,-466 341,-466"/>
<text text-anchor="middle" x="248.5" y="-444.9" font-family="Helvetica,sans-Serif" font-size="12.00">example_pattern_recognition.py</text>
</g>
<!-- readme&#45;&gt;pr -->
<g id="edge3" class="edge">
<title>readme&#45;&gt;pr</title>
<path fill="none" stroke="black" d="M107.28,-448C115.53,-448 124.47,-448 133.71,-448"/>
<polygon fill="black" stroke="black" points="133.84,-451.5 143.84,-448 133.84,-444.5 133.84,-451.5"/>
</g>
<!-- cls -->
<g id="node5" class="node">
<title>cls</title>
<path fill="none" stroke="black" d="M321,-628C321,-628 176,-628 176,-628 170,-628 164,-622 164,-616 164,-616 164,-604 164,-604 164,-598 170,-592 176,-592 176,-592 321,-592 321,-592 327,-592 333,-598 333,-604 333,-604 333,-616 333,-616 333,-622 327,-628 321,-628"/>
<text text-anchor="middle" x="248.5" y="-606.9" font-family="Helvetica,sans-Serif" font-size="12.00">example_classification.py</text>
</g>
<!-- readme&#45;&gt;cls -->
<g id="edge4" class="edge">
<title>readme&#45;&gt;cls</title>
<path fill="none" stroke="black" d="M68.46,-466.4C78.93,-495.69 103.42,-552.7 144,-583 147.39,-585.53 151,-587.83 154.75,-589.91"/>
<polygon fill="black" stroke="black" points="153.25,-593.07 163.76,-594.38 156.36,-586.8 153.25,-593.07"/>
</g>
<!-- cmp -->
<g id="node6" class="node">
<title>cmp</title>
<path fill="none" stroke="black" d="M318,-412C318,-412 179,-412 179,-412 173,-412 167,-406 167,-400 167,-400 167,-388 167,-388 167,-382 173,-376 179,-376 179,-376 318,-376 318,-376 324,-376 330,-382 330,-388 330,-388 330,-400 330,-400 330,-406 324,-412 318,-412"/>
<text text-anchor="middle" x="248.5" y="-390.9" font-family="Helvetica,sans-Serif" font-size="12.00">example_comparison.py</text>
</g>
<!-- readme&#45;&gt;cmp -->
<g id="edge5" class="edge">
<title>readme&#45;&gt;cmp</title>
<path fill="none" stroke="black" d="M107.17,-432.62C119.09,-428.68 131.99,-424.55 144,-421 151.12,-418.89 158.54,-416.79 165.99,-414.73"/>
<polygon fill="black" stroke="black" points="167.06,-418.07 175.79,-412.06 165.22,-411.32 167.06,-418.07"/>
</g>
<!-- ddense -->
<g id="node16" class="node">
<title>ddense</title>
<path fill="none" stroke="black" d="M625.5,-52C625.5,-52 470.5,-52 470.5,-52 464.5,-52 458.5,-46 458.5,-40 458.5,-40 458.5,-28 458.5,-28 458.5,-22 464.5,-16 470.5,-16 470.5,-16 625.5,-16 625.5,-16 631.5,-16 637.5,-22 637.5,-28 637.5,-28 637.5,-40 637.5,-40 637.5,-46 631.5,-52 625.5,-52"/>
<text text-anchor="middle" x="548" y="-30.9" font-family="Helvetica,sans-Serif" font-size="12.00">ch5_wifi_fingerprint_dense/</text>
</g>
<!-- readme&#45;&gt;ddense -->
<g id="edge15" class="edge">
<title>readme&#45;&gt;ddense</title>
<path fill="none" stroke="black" stroke-dasharray="5,2" d="M64.39,-429.79C71.31,-366.67 97.33,-158.69 144,-114 224.7,-36.73 357.5,-24.07 448.45,-25.88"/>
<polygon fill="black" stroke="black" points="448.41,-29.38 458.5,-26.14 448.59,-22.38 448.41,-29.38"/>
<text text-anchor="middle" x="248.5" y="-117" font-family="Helvetica,sans-Serif" font-size="10.00">alternative dataset</text>
</g>
<!-- dsparse -->
<g id="node17" class="node">
<title>dsparse</title>
<path fill="none" stroke="black" d="M627.5,-106C627.5,-106 468.5,-106 468.5,-106 462.5,-106 456.5,-100 456.5,-94 456.5,-94 456.5,-82 456.5,-82 456.5,-76 462.5,-70 468.5,-70 468.5,-70 627.5,-70 627.5,-70 633.5,-70 639.5,-76 639.5,-82 639.5,-82 639.5,-94 639.5,-94 639.5,-100 633.5,-106 627.5,-106"/>
<text text-anchor="middle" x="548" y="-84.9" font-family="Helvetica,sans-Serif" font-size="12.00">ch5_wifi_fingerprint_sparse/</text>
</g>
<!-- readme&#45;&gt;dsparse -->
<g id="edge16" class="edge">
<title>readme&#45;&gt;dsparse</title>
<path fill="none" stroke="black" stroke-dasharray="5,2" d="M73.24,-429.92C108.01,-373.16 223.89,-197.59 371,-119 393.83,-106.8 420.47,-99.26 446.02,-94.64"/>
<polygon fill="black" stroke="black" points="446.83,-98.05 456.12,-92.95 445.68,-91.15 446.83,-98.05"/>
<text text-anchor="middle" x="248.5" y="-330" font-family="Helvetica,sans-Serif" font-size="10.00">alternative dataset</text>
</g>
<!-- f_det -->
<g id="node8" class="node">
<title>f_det</title>
<path fill="none" stroke="black" d="M631.5,-574C631.5,-574 464.5,-574 464.5,-574 458.5,-574 452.5,-568 452.5,-562 452.5,-562 452.5,-550 452.5,-550 452.5,-544 458.5,-538 464.5,-538 464.5,-538 631.5,-538 631.5,-538 637.5,-538 643.5,-544 643.5,-550 643.5,-550 643.5,-562 643.5,-562 643.5,-568 637.5,-574 631.5,-574"/>
<text text-anchor="middle" x="548" y="-552.9" font-family="Helvetica,sans-Serif" font-size="12.00">deterministic_positioning.png</text>
</g>
<!-- det&#45;&gt;f_det -->
<g id="edge17" class="edge">
<title>det&#45;&gt;f_det</title>
<path fill="none" stroke="black" d="M333.56,-556C367.26,-556 406.46,-556 442.01,-556"/>
<polygon fill="black" stroke="black" points="442.42,-559.5 452.42,-556 442.42,-552.5 442.42,-559.5"/>
<text text-anchor="middle" x="393" y="-559" font-family="Helvetica,sans-Serif" font-size="10.00">saves</text>
</g>
<!-- fpkg -->
<g id="node14" class="node">
<title>fpkg</title>
<path fill="none" stroke="black" d="M611.5,-324C611.5,-324 484.5,-324 484.5,-324 478.5,-324 472.5,-318 472.5,-312 472.5,-312 472.5,-224 472.5,-224 472.5,-218 478.5,-212 484.5,-212 484.5,-212 611.5,-212 611.5,-212 617.5,-212 623.5,-218 623.5,-224 623.5,-224 623.5,-312 623.5,-312 623.5,-318 617.5,-324 611.5,-324"/>
<text text-anchor="middle" x="548" y="-310.4" font-family="Helvetica,sans-Serif" font-size="12.00">fingerprinting/</text>
<text text-anchor="middle" x="548" y="-297.4" font-family="Helvetica,sans-Serif" font-size="12.00">dataset.py</text>
<text text-anchor="middle" x="548" y="-284.4" font-family="Helvetica,sans-Serif" font-size="12.00">preprocess.py</text>
<text text-anchor="middle" x="548" y="-271.4" font-family="Helvetica,sans-Serif" font-size="12.00">deterministic.py</text>
<text text-anchor="middle" x="548" y="-258.4" font-family="Helvetica,sans-Serif" font-size="12.00">probabilistic.py</text>
<text text-anchor="middle" x="548" y="-245.4" font-family="Helvetica,sans-Serif" font-size="12.00">pattern_recognition.py</text>
<text text-anchor="middle" x="548" y="-232.4" font-family="Helvetica,sans-Serif" font-size="12.00">classification.py</text>
<text text-anchor="middle" x="548" y="-219.4" font-family="Helvetica,sans-Serif" font-size="12.00">types.py</text>
</g>
<!-- det&#45;&gt;fpkg -->
<g id="edge6" class="edge">
<title>det&#45;&gt;fpkg</title>
<path fill="none" stroke="black" d="M333.87,-543.83C341.08,-540.03 347.65,-535.18 353,-529 399.85,-474.91 330.56,-428.04 371,-369 383.47,-350.8 395.72,-356.73 415,-346 430.8,-337.21 447.51,-327.59 463.53,-318.21"/>
<polygon fill="black" stroke="black" points="465.5,-321.11 472.35,-313.02 461.95,-315.07 465.5,-321.11"/>
<text text-anchor="middle" x="393" y="-372" font-family="Helvetica,sans-Serif" font-size="10.00">imports</text>
</g>
<!-- dgrid -->
<g id="node15" class="node">
<title>dgrid</title>
<path fill="none" stroke="black" d="M646.5,-160C646.5,-160 449.5,-160 449.5,-160 443.5,-160 437.5,-154 437.5,-148 437.5,-148 437.5,-136 437.5,-136 437.5,-130 443.5,-124 449.5,-124 449.5,-124 646.5,-124 646.5,-124 652.5,-124 658.5,-130 658.5,-136 658.5,-136 658.5,-148 658.5,-148 658.5,-154 652.5,-160 646.5,-160"/>
<text text-anchor="middle" x="548" y="-138.9" font-family="Helvetica,sans-Serif" font-size="12.00">ch5_wifi_fingerprint_grid/ (default)</text>
</g>
<!-- det&#45;&gt;dgrid -->
<g id="edge11" class="edge">
<title>det&#45;&gt;dgrid</title>
<path fill="none" stroke="black" d="M333.6,-544.27C340.96,-540.4 347.64,-535.41 353,-529 385.9,-489.68 341.98,-341.26 371,-299 383.27,-281.14 401.81,-295.19 415,-278 436.47,-250.03 408.22,-228.11 429.5,-200 441.25,-184.48 458.28,-172.85 475.74,-164.25"/>
<polygon fill="black" stroke="black" points="477.27,-167.4 484.88,-160.03 474.34,-161.04 477.27,-167.4"/>
<text text-anchor="middle" x="393" y="-302" font-family="Helvetica,sans-Serif" font-size="10.00">loads DB</text>
</g>
<!-- f_prob -->
<g id="node9" class="node">
<title>f_prob</title>
<path fill="none" stroke="black" d="M628.5,-520C628.5,-520 467.5,-520 467.5,-520 461.5,-520 455.5,-514 455.5,-508 455.5,-508 455.5,-496 455.5,-496 455.5,-490 461.5,-484 467.5,-484 467.5,-484 628.5,-484 628.5,-484 634.5,-484 640.5,-490 640.5,-496 640.5,-496 640.5,-508 640.5,-508 640.5,-514 634.5,-520 628.5,-520"/>
<text text-anchor="middle" x="548" y="-498.9" font-family="Helvetica,sans-Serif" font-size="12.00">probabilistic_positioning.png</text>
</g>
<!-- prob&#45;&gt;f_prob -->
<g id="edge18" class="edge">
<title>prob&#45;&gt;f_prob</title>
<path fill="none" stroke="black" d="M330.79,-502C366.02,-502 407.65,-502 444.92,-502"/>
<polygon fill="black" stroke="black" points="445.31,-505.5 455.31,-502 445.31,-498.5 445.31,-505.5"/>
<text text-anchor="middle" x="393" y="-505" font-family="Helvetica,sans-Serif" font-size="10.00">saves</text>
</g>
<!-- prob&#45;&gt;fpkg -->
<g id="edge7" class="edge">
<title>prob&#45;&gt;fpkg</title>
<path fill="none" stroke="black" d="M330.53,-491.35C339.03,-487.35 346.8,-482.04 353,-475 394.45,-427.91 332.17,-384.27 371,-335 377.42,-326.85 420.72,-310.32 462.77,-295.72"/>
<polygon fill="black" stroke="black" points="463.95,-299.01 472.27,-292.44 461.67,-292.39 463.95,-299.01"/>
<text text-anchor="middle" x="393" y="-338" font-family="Helvetica,sans-Serif" font-size="10.00">imports</text>
</g>
<!-- prob&#45;&gt;dgrid -->
<g id="edge12" class="edge">
<title>prob&#45;&gt;dgrid</title>
<path fill="none" stroke="black" d="M330.65,-491.78C339.18,-487.72 346.94,-482.28 353,-475 387.67,-433.4 340.85,-276.98 371,-232 383.17,-213.84 396.18,-221.12 415,-210 421.74,-206.02 422.75,-203.97 429.5,-200 451.29,-187.2 476.28,-174.59 497.61,-164.42"/>
<polygon fill="black" stroke="black" points="499.26,-167.5 506.81,-160.06 496.27,-161.17 499.26,-167.5"/>
<text text-anchor="middle" x="393" y="-235" font-family="Helvetica,sans-Serif" font-size="10.00">loads DB</text>
</g>
<!-- f_pr -->
<g id="node10" class="node">
<title>f_pr</title>
<path fill="none" stroke="black" d="M651,-466C651,-466 445,-466 445,-466 439,-466 433,-460 433,-454 433,-454 433,-442 433,-442 433,-436 439,-430 445,-430 445,-430 651,-430 651,-430 657,-430 663,-436 663,-442 663,-442 663,-454 663,-454 663,-460 657,-466 651,-466"/>
<text text-anchor="middle" x="548" y="-444.9" font-family="Helvetica,sans-Serif" font-size="12.00">pattern_recognition_positioning.png</text>
</g>
<!-- pr&#45;&gt;f_pr -->
<g id="edge19" class="edge">
<title>pr&#45;&gt;f_pr</title>
<path fill="none" stroke="black" d="M353.13,-448C375.56,-448 399.49,-448 422.61,-448"/>
<polygon fill="black" stroke="black" points="422.82,-451.5 432.82,-448 422.82,-444.5 422.82,-451.5"/>
<text text-anchor="middle" x="393" y="-451" font-family="Helvetica,sans-Serif" font-size="10.00">saves</text>
</g>
<!-- pr&#45;&gt;fpkg -->
<g id="edge8" class="edge">
<title>pr&#45;&gt;fpkg</title>
<path fill="none" stroke="black" d="M343.23,-429.95C346.79,-427.33 350.07,-424.36 353,-421 375.62,-395.01 345.26,-289.91 371,-267 395.3,-245.37 429.84,-241.91 461.89,-245.24"/>
<polygon fill="black" stroke="black" points="461.83,-248.76 472.19,-246.55 462.71,-241.82 461.83,-248.76"/>
<text text-anchor="middle" x="393" y="-270" font-family="Helvetica,sans-Serif" font-size="10.00">imports</text>
</g>
<!-- pr&#45;&gt;dgrid -->
<g id="edge13" class="edge">
<title>pr&#45;&gt;dgrid</title>
<path fill="none" stroke="black" d="M343.85,-429.77C347.19,-427.19 350.27,-424.28 353,-421 387.67,-379.4 335.24,-218.66 371,-178 385.74,-161.25 405.98,-151.05 427.51,-145.04"/>
<polygon fill="black" stroke="black" points="428.61,-148.38 437.47,-142.57 426.92,-141.58 428.61,-148.38"/>
<text text-anchor="middle" x="393" y="-181" font-family="Helvetica,sans-Serif" font-size="10.00">loads DB</text>
</g>
<!-- f_cls1 -->
<g id="node11" class="node">
<title>f_cls1</title>
<path fill="none" stroke="black" d="M649.5,-682C649.5,-682 446.5,-682 446.5,-682 440.5,-682 434.5,-676 434.5,-670 434.5,-670 434.5,-658 434.5,-658 434.5,-652 440.5,-646 446.5,-646 446.5,-646 649.5,-646 649.5,-646 655.5,-646 661.5,-652 661.5,-658 661.5,-658 661.5,-670 661.5,-670 661.5,-676 655.5,-682 649.5,-682"/>
<text text-anchor="middle" x="548" y="-660.9" font-family="Helvetica,sans-Serif" font-size="12.00">classification_noise_robustness.png</text>
</g>
<!-- cls&#45;&gt;f_cls1 -->
<g id="edge20" class="edge">
<title>cls&#45;&gt;f_cls1</title>
<path fill="none" stroke="black" d="M333.16,-625.19C365.54,-631.06 403.05,-637.87 437.52,-644.13"/>
<polygon fill="black" stroke="black" points="437.17,-647.62 447.63,-645.96 438.42,-640.73 437.17,-647.62"/>
<text text-anchor="middle" x="393" y="-641" font-family="Helvetica,sans-Serif" font-size="10.00">saves</text>
</g>
<!-- f_cls2 -->
<g id="node12" class="node">
<title>f_cls2</title>
<path fill="none" stroke="black" d="M628.5,-628C628.5,-628 467.5,-628 467.5,-628 461.5,-628 455.5,-622 455.5,-616 455.5,-616 455.5,-604 455.5,-604 455.5,-598 461.5,-592 467.5,-592 467.5,-592 628.5,-592 628.5,-592 634.5,-592 640.5,-598 640.5,-604 640.5,-604 640.5,-616 640.5,-616 640.5,-622 634.5,-628 628.5,-628"/>
<text text-anchor="middle" x="548" y="-606.9" font-family="Helvetica,sans-Serif" font-size="12.00">hierarchical_localization.png</text>
</g>
<!-- cls&#45;&gt;f_cls2 -->
<g id="edge21" class="edge">
<title>cls&#45;&gt;f_cls2</title>
<path fill="none" stroke="black" d="M333.16,-610C367.96,-610 408.67,-610 445.18,-610"/>
<polygon fill="black" stroke="black" points="445.36,-613.5 455.36,-610 445.36,-606.5 445.36,-613.5"/>
<text text-anchor="middle" x="393" y="-613" font-family="Helvetica,sans-Serif" font-size="10.00">saves</text>
</g>
<!-- cls&#45;&gt;fpkg -->
<g id="edge9" class="edge">
<title>cls&#45;&gt;fpkg</title>
<path fill="none" stroke="black" d="M333.47,-598.16C340.85,-594.31 347.57,-589.35 353,-583 379.4,-552.1 347.65,-434.26 371,-401 383.45,-383.26 397.62,-392.94 415,-380 422.7,-374.27 422.54,-370.61 429.5,-364 441.2,-352.88 454.04,-341.58 466.79,-330.83"/>
<polygon fill="black" stroke="black" points="469.28,-333.31 474.71,-324.21 464.79,-327.94 469.28,-333.31"/>
<text text-anchor="middle" x="393" y="-404" font-family="Helvetica,sans-Serif" font-size="10.00">imports</text>
</g>
<!-- f_cmp -->
<g id="node13" class="node">
<title>f_cmp</title>
<path fill="none" stroke="black" d="M631.5,-412C631.5,-412 464.5,-412 464.5,-412 458.5,-412 452.5,-406 452.5,-400 452.5,-400 452.5,-388 452.5,-388 452.5,-382 458.5,-376 464.5,-376 464.5,-376 631.5,-376 631.5,-376 637.5,-376 643.5,-382 643.5,-388 643.5,-388 643.5,-400 643.5,-400 643.5,-406 637.5,-412 631.5,-412"/>
<text text-anchor="middle" x="548" y="-390.9" font-family="Helvetica,sans-Serif" font-size="12.00">comparison_all_methods.png</text>
</g>
<!-- cmp&#45;&gt;f_cmp -->
<g id="edge22" class="edge">
<title>cmp&#45;&gt;f_cmp</title>
<path fill="none" stroke="black" d="M330.31,-409.19C343.85,-411.19 357.79,-412.92 371,-414 393.96,-415.88 418.56,-414.94 441.86,-412.68"/>
<polygon fill="black" stroke="black" points="442.54,-416.13 452.11,-411.6 441.8,-409.17 442.54,-416.13"/>
<text text-anchor="middle" x="393" y="-417" font-family="Helvetica,sans-Serif" font-size="10.00">saves</text>
</g>
<!-- cmp&#45;&gt;fpkg -->
<g id="edge10" class="edge">
<title>cmp&#45;&gt;fpkg</title>
<path fill="none" stroke="black" d="M254.3,-375.95C266.15,-335.45 301.08,-237.82 371,-199 388.1,-189.51 396.01,-194.34 415,-199 431.27,-203 447.76,-209.39 463.31,-216.71"/>
<polygon fill="black" stroke="black" points="461.83,-219.88 472.35,-221.11 464.9,-213.59 461.83,-219.88"/>
<text text-anchor="middle" x="393" y="-202" font-family="Helvetica,sans-Serif" font-size="10.00">imports</text>
</g>
<!-- cmp&#45;&gt;dgrid -->
<g id="edge14" class="edge">
<title>cmp&#45;&gt;dgrid</title>
<path fill="none" stroke="black" d="M251.42,-375.67C257.74,-325.76 282.87,-187.37 371,-131 381.43,-124.33 402.83,-122.97 427.23,-124.23"/>
<polygon fill="black" stroke="black" points="427.26,-127.74 437.46,-124.9 427.71,-120.76 427.26,-127.74"/>
<text text-anchor="middle" x="393" y="-134" font-family="Helvetica,sans-Serif" font-size="10.00">loads DB</text>
</g>
<!-- figs -->
<g id="node7" class="node">
<title>figs</title>
<path fill="none" stroke="black" d="M781,-535C781,-535 712,-535 712,-535 706,-535 700,-529 700,-523 700,-523 700,-511 700,-511 700,-505 706,-499 712,-499 712,-499 781,-499 781,-499 787,-499 793,-505 793,-511 793,-511 793,-523 793,-523 793,-529 787,-535 781,-535"/>
<text text-anchor="middle" x="746.5" y="-520.4" font-family="Helvetica,sans-Serif" font-size="12.00">figs/</text>
<text text-anchor="middle" x="746.5" y="-507.4" font-family="Helvetica,sans-Serif" font-size="12.00">(saved plots)</text>
</g>
<!-- f_det&#45;&gt;figs -->
<g id="edge23" class="edge">
<title>f_det&#45;&gt;figs</title>
<path fill="none" stroke="black" stroke-dasharray="5,2" d="M639.77,-537.98C656.85,-534.6 674.23,-531.15 689.83,-528.05"/>
<polygon fill="black" stroke="black" points="690.68,-531.45 699.8,-526.07 689.31,-524.58 690.68,-531.45"/>
</g>
<!-- f_prob&#45;&gt;figs -->
<g id="edge24" class="edge">
<title>f_prob&#45;&gt;figs</title>
<path fill="none" stroke="black" stroke-dasharray="5,2" d="M640.63,-508.99C657.38,-510.27 674.39,-511.57 689.69,-512.74"/>
<polygon fill="black" stroke="black" points="689.75,-516.25 699.99,-513.53 690.28,-509.27 689.75,-516.25"/>
</g>
<!-- f_pr&#45;&gt;figs -->
<g id="edge25" class="edge">
<title>f_pr&#45;&gt;figs</title>
<path fill="none" stroke="black" stroke-dasharray="5,2" d="M638.9,-466.08C648.32,-468.74 657.68,-471.71 666.5,-475 680.2,-480.11 694.51,-487.15 707.13,-494"/>
<polygon fill="black" stroke="black" points="705.54,-497.12 715.98,-498.92 708.94,-491 705.54,-497.12"/>
</g>
<!-- f_cls1&#45;&gt;figs -->
<g id="edge26" class="edge">
<title>f_cls1&#45;&gt;figs</title>
<path fill="none" stroke="black" stroke-dasharray="5,2" d="M650.85,-645.99C656.34,-643.38 661.6,-640.4 666.5,-637 699.52,-614.06 722.28,-572.43 734.61,-544.74"/>
<polygon fill="black" stroke="black" points="737.96,-545.8 738.68,-535.23 731.53,-543.05 737.96,-545.8"/>
</g>
<!-- f_cls2&#45;&gt;figs -->
<g id="edge27" class="edge">
<title>f_cls2&#45;&gt;figs</title>
<path fill="none" stroke="black" stroke-dasharray="5,2" d="M640.62,-593.44C649.57,-590.5 658.35,-587.05 666.5,-583 687.08,-572.78 706.92,-556.17 721.57,-542.18"/>
<polygon fill="black" stroke="black" points="724.05,-544.65 728.73,-535.14 719.14,-539.65 724.05,-544.65"/>
</g>
<!-- f_cmp&#45;&gt;figs -->
<g id="edge28" class="edge">
<title>f_cmp&#45;&gt;figs</title>
<path fill="none" stroke="black" stroke-dasharray="5,2" d="M643.58,-409.82C651.62,-412.91 659.38,-416.59 666.5,-421 694.09,-438.07 716.51,-468.18 730.33,-490.14"/>
<polygon fill="black" stroke="black" points="727.35,-491.98 735.54,-498.7 733.32,-488.34 727.35,-491.98"/>
</g>
</g>
</svg>
