<?xml version="1.0" encoding="UTF-8" standalone="no"?>
<!DOCTYPE svg PUBLIC "-//W3C//DTD SVG 1.1//EN"
 "http://www.w3.org/Graphics/SVG/1.1/DTD/svg11.dtd">
<!-- Generated by graphviz version 2.43.0 (0)
 -->
<!-- Title: ch3_flow Pages: 1 -->
<svg width="1977pt" height="786pt"
 viewBox="0.00 0.00 1977.00 786.00" xmlns="http://www.w3.org/2000/svg" xmlns:xlink="http://www.w3.org/1999/xlink">
<g id="graph0" class="graph" transform="scale(1 1) rotate(0) translate(4 782)">
<title>ch3_flow</title>
<polygon fill="white" stroke="transparent" points="-4,4 -4,-782 1973,-782 1973,4 -4,4"/>
<text text-anchor="middle" x="984.5" y="-759.6" font-family="Helvetica,sans-Serif" font-size="18.00">Chapter 3 (Estimators) — Clean Execution Map</text>
<g id="clust1" class="cluster">
<title>cluster_entry</title>
<polygon fill="none" stroke="#bbbbbb" points="757,-516 757,-742 1031,-742 1031,-516 757,-516"/>
<text text-anchor="middle" x="894" y="-723.6" font-family="Helvetica,sans-Serif" font-size="18.00">Entry</text>
</g>
<g id="clust2" class="cluster">
<title>cluster_ls</title>
<polygon fill="none" stroke="#bbbbbb" points="8,-20 8,-497 336,-497 336,-20 8,-20"/>
<text text-anchor="middle" x="172" y="-478.6" font-family="Helvetica,sans-Serif" font-size="18.00">example_least_squares.py</text>
</g>
<g id="clust3" class="cluster">
<title>cluster_kf</title>
<polygon fill="none" stroke="#bbbbbb" points="344,-20 344,-388 634,-388 634,-20 344,-20"/>
<text text-anchor="middle" x="489" y="-369.6" font-family="Helvetica,sans-Serif" font-size="18.00">example_kalman_1d.py</text>
</g>
<g id="clust4" class="cluster">
<title>cluster_ekf</title>
<polygon fill="none" stroke="#bbbbbb" points="642,-20 642,-497 1041,-497 1041,-20 642,-20"/>
<text text-anchor="middle" x="841.5" y="-478.6" font-family="Helvetica,sans-Serif" font-size="18.00">example_ekf_range_bearing.py</text>
</g>
<g id="clust5" class="cluster">
<title>cluster_iekf</title>
<polygon fill="none" stroke="#bbbbbb" points="1308,-20 1308,-388 1707,-388 1707,-20 1308,-20"/>
<text text-anchor="middle" x="1507.5" y="-369.6" font-family="Helvetica,sans-Serif" font-size="18.00">example_iekf_range_bearing.py</text>
</g>
<g id="clust6" class="cluster">
<title>cluster_cmp</title>
<polygon fill="none" stroke="#bbbbbb" points="1715,-20 1715,-388 1961,-388 1961,-20 1715,-20"/>
<text text-anchor="middle" x="1838" y="-369.6" font-family="Helvetica,sans-Serif" font-size="18.00">example_comparison.py</text>
</g>
<g id="clust7" class="cluster">
<title>cluster_shared</title>
<polygon fill="none" stroke="#bbbbbb" points="1049,-8 1049,-112 1300,-112 1300,-8 1049,-8"/>
<text text-anchor="middle" x="1174.5" y="-93.6" font-family="Helvetica,sans-Serif" font-size="18.00">Shared reusable modules</text>
</g>
<!-- run -->
<g id="node1" class="node">
<title>run</title>
<path fill="none" stroke="black" d="M1011,-706C1011,-706 777,-706 777,-706 771,-706 765,-700 765,-694 765,-694 765,-682 765,-682 765,-676 771,-670 777,-670 777,-670 1011,-670 1011,-670 1017,-670 1023,-676 1023,-682 1023,-682 1023,-694 1023,-694 1023,-700 1017,-706 1011,-706"/>
<text text-anchor="middle" x="894" y="-691.4" font-family="Helvetica,sans-Serif" font-size="12.00">Run one example:</text>
<text text-anchor="middle" x="894" y="-678.4" font-family="Helvetica,sans-Serif" font-size="12.00">python ch3_estimators/&lt;example_*.py&gt;</text>
</g>
<!-- args -->
<g id="node2" class="node">
<title>args</title>
<path fill="none" stroke="black" d="M965,-633C965,-633 823,-633 823,-633 817,-633 811,-627 811,-621 811,-621 811,-609 811,-609 811,-603 817,-597 823,-597 823,-597 965,-597 965,-597 971,-597 977,-603 977,-609 977,-609 977,-621 977,-621 977,-627 971,-633 965,-633"/>
<text text-anchor="middle" x="894" y="-618.4" font-family="Helvetica,sans-Serif" font-size="12.00">argparse / config</text>
<text text-anchor="middle" x="894" y="-605.4" font-family="Helvetica,sans-Serif" font-size="12.00">(&#45;&#45;data only for EKF/IEKF)</text>
</g>
<!-- run&#45;&gt;args -->
<g id="edge1" class="edge">
<title>run&#45;&gt;args</title>
<path fill="none" stroke="black" d="M894,-669.81C894,-661.79 894,-652.05 894,-643.07"/>
<polygon fill="black" stroke="black" points="897.5,-643.03 894,-633.03 890.5,-643.03 897.5,-643.03"/>
</g>
<!-- pick -->
<g id="node3" class="node">
<title>pick</title>
<path fill="none" stroke="black" d="M882.27,-557.48C882.27,-557.48 822.08,-544.52 822.08,-544.52 816.22,-543.26 816.22,-540.74 822.08,-539.48 822.08,-539.48 882.27,-526.52 882.27,-526.52 888.13,-525.26 899.87,-525.26 905.73,-526.52 905.73,-526.52 965.92,-539.48 965.92,-539.48 971.78,-540.74 971.78,-543.26 965.92,-544.52 965.92,-544.52 905.73,-557.48 905.73,-557.48 899.87,-558.74 888.13,-558.74 882.27,-557.48"/>
<text text-anchor="middle" x="894" y="-538.9" font-family="Helvetica,sans-Serif" font-size="12.00">Which script?</text>
</g>
<!-- args&#45;&gt;pick -->
<g id="edge2" class="edge">
<title>args&#45;&gt;pick</title>
<path fill="none" stroke="black" d="M894,-596.81C894,-588.79 894,-579.05 894,-570.07"/>
<polygon fill="black" stroke="black" points="897.5,-570.03 894,-560.03 890.5,-570.03 897.5,-570.03"/>
</g>
<!-- ls1 -->
<g id="node4" class="node">
<title>ls1</title>
<path fill="none" stroke="black" d="M315,-461C315,-461 169,-461 169,-461 163,-461 157,-455 157,-449 157,-449 157,-437 157,-437 157,-431 163,-425 169,-425 169,-425 315,-425 315,-425 321,-425 327,-431 327,-437 327,-437 327,-449 327,-449 327,-455 321,-461 315,-461"/>
<text text-anchor="middle" x="242" y="-439.9" font-family="Helvetica,sans-Serif" font-size="12.00">Setup anchors + true pos</text>
</g>
<!-- pick&#45;&gt;ls1 -->
<g id="edge24" class="edge">
<title>pick&#45;&gt;ls1</title>
<path fill="none" stroke="black" d="M836.7,-536.26C771.45,-530.54 661.75,-519.92 568,-506 487.64,-494.07 396.9,-476.47 331.59,-463.07"/>
<polygon fill="black" stroke="black" points="332.24,-459.63 321.74,-461.04 330.83,-466.48 332.24,-459.63"/>
</g>
<!-- kf1 -->
<g id="node9" class="node">
<title>kf1</title>
<path fill="none" stroke="black" d="M597,-352C597,-352 483,-352 483,-352 477,-352 471,-346 471,-340 471,-340 471,-328 471,-328 471,-322 477,-316 483,-316 483,-316 597,-316 597,-316 603,-316 609,-322 609,-328 609,-328 609,-340 609,-340 609,-346 603,-352 597,-352"/>
<text text-anchor="middle" x="540" y="-337.4" font-family="Helvetica,sans-Serif" font-size="12.00">Define linear model:</text>
<text text-anchor="middle" x="540" y="-324.4" font-family="Helvetica,sans-Serif" font-size="12.00">F,Q,H,R</text>
</g>
<!-- pick&#45;&gt;kf1 -->
<g id="edge25" class="edge">
<title>pick&#45;&gt;kf1</title>
<path fill="none" stroke="black" d="M835.43,-536.57C770.07,-530.66 669.34,-518.37 638,-497 589.59,-463.99 561.09,-398.41 548.23,-361.62"/>
<polygon fill="black" stroke="black" points="551.52,-360.42 545.02,-352.06 544.89,-362.65 551.52,-360.42"/>
</g>
<!-- ekf0 -->
<g id="node13" class="node">
<title>ekf0</title>
<path fill="none" stroke="black" d="M882.19,-458.86C882.19,-458.86 806.32,-445.14 806.32,-445.14 800.41,-444.07 800.41,-441.93 806.32,-440.86 806.32,-440.86 882.19,-427.14 882.19,-427.14 888.1,-426.07 899.9,-426.07 905.81,-427.14 905.81,-427.14 981.68,-440.86 981.68,-440.86 987.59,-441.93 987.59,-444.07 981.68,-445.14 981.68,-445.14 905.81,-458.86 905.81,-458.86 899.9,-459.93 888.1,-459.93 882.19,-458.86"/>
<text text-anchor="middle" x="894" y="-439.9" font-family="Helvetica,sans-Serif" font-size="12.00">&#45;&#45;data provided?</text>
</g>
<!-- pick&#45;&gt;ekf0 -->
<g id="edge26" class="edge">
<title>pick&#45;&gt;ekf0</title>
<path fill="none" stroke="black" d="M894,-523.66C894,-509.18 894,-488.26 894,-471.5"/>
<polygon fill="black" stroke="black" points="897.5,-471.19 894,-461.19 890.5,-471.19 897.5,-471.19"/>
</g>
<!-- iekf0 -->
<g id="node19" class="node">
<title>iekf0</title>
<path fill="none" stroke="black" d="M1403.19,-349.86C1403.19,-349.86 1327.32,-336.14 1327.32,-336.14 1321.41,-335.07 1321.41,-332.93 1327.32,-331.86 1327.32,-331.86 1403.19,-318.14 1403.19,-318.14 1409.1,-317.07 1420.9,-317.07 1426.81,-318.14 1426.81,-318.14 1502.68,-331.86 1502.68,-331.86 1508.59,-332.93 1508.59,-335.07 1502.68,-336.14 1502.68,-336.14 1426.81,-349.86 1426.81,-349.86 1420.9,-350.93 1409.1,-350.93 1403.19,-349.86"/>
<text text-anchor="middle" x="1415" y="-330.9" font-family="Helvetica,sans-Serif" font-size="12.00">&#45;&#45;data provided?</text>
</g>
<!-- pick&#45;&gt;iekf0 -->
<g id="edge27" class="edge">
<title>pick&#45;&gt;iekf0</title>
<path fill="none" stroke="black" d="M930.42,-531.8C961.27,-523.68 1006.5,-510.97 1045,-497 1171.02,-451.27 1315.18,-383.49 1380.09,-352.1"/>
<polygon fill="black" stroke="black" points="1381.98,-355.07 1389.45,-347.56 1378.93,-348.78 1381.98,-355.07"/>
</g>
<!-- c1 -->
<g id="node24" class="node">
<title>c1</title>
<path fill="none" stroke="black" d="M1870,-352C1870,-352 1750,-352 1750,-352 1744,-352 1738,-346 1738,-340 1738,-340 1738,-328 1738,-328 1738,-322 1744,-316 1750,-316 1750,-316 1870,-316 1870,-316 1876,-316 1882,-322 1882,-328 1882,-328 1882,-340 1882,-340 1882,-346 1876,-352 1870,-352"/>
<text text-anchor="middle" x="1810" y="-337.4" font-family="Helvetica,sans-Serif" font-size="12.00">Setup scenario:</text>
<text text-anchor="middle" x="1810" y="-324.4" font-family="Helvetica,sans-Serif" font-size="12.00">2D motion + anchors</text>
</g>
<!-- pick&#45;&gt;c1 -->
<g id="edge28" class="edge">
<title>pick&#45;&gt;c1</title>
<path fill="none" stroke="black" d="M938.38,-533.54C988.93,-524.98 1073.99,-510.4 1147,-497 1398.11,-450.9 1470.41,-473.43 1711,-388 1733.1,-380.15 1756.3,-367.97 1774.67,-357.27"/>
<polygon fill="black" stroke="black" points="1776.47,-360.27 1783.28,-352.16 1772.9,-354.25 1776.47,-360.27"/>
</g>
<!-- ls2 -->
<g id="node5" class="node">
<title>ls2</title>
<path fill="none" stroke="black" d="M302,-352C302,-352 124,-352 124,-352 118,-352 112,-346 112,-340 112,-340 112,-328 112,-328 112,-322 118,-316 124,-316 124,-316 302,-316 302,-316 308,-316 314,-322 314,-328 314,-328 314,-340 314,-340 314,-346 308,-352 302,-352"/>
<text text-anchor="middle" x="213" y="-330.9" font-family="Helvetica,sans-Serif" font-size="12.00">Simulate range measurements</text>
</g>
<!-- ls1&#45;&gt;ls2 -->
<g id="edge3" class="edge">
<title>ls1&#45;&gt;ls2</title>
<path fill="none" stroke="black" d="M237.34,-424.81C232.75,-407.88 225.68,-381.78 220.34,-362.07"/>
<polygon fill="black" stroke="black" points="223.64,-360.88 217.65,-352.15 216.89,-362.72 223.64,-360.88"/>
</g>
<!-- ls3 -->
<g id="node6" class="node">
<title>ls3</title>
<path fill="none" stroke="black" d="M257.5,-269C257.5,-269 140.5,-269 140.5,-269 134.5,-269 128.5,-263 128.5,-257 128.5,-257 128.5,-245 128.5,-245 128.5,-239 134.5,-233 140.5,-233 140.5,-233 257.5,-233 257.5,-233 263.5,-233 269.5,-239 269.5,-245 269.5,-245 269.5,-257 269.5,-257 269.5,-263 263.5,-269 257.5,-269"/>
<text text-anchor="middle" x="199" y="-247.9" font-family="Helvetica,sans-Serif" font-size="12.00">Build h(x) + Jacobian</text>
</g>
<!-- ls2&#45;&gt;ls3 -->
<g id="edge4" class="edge">
<title>ls2&#45;&gt;ls3</title>
<path fill="none" stroke="black" d="M210.03,-315.82C208.19,-305.19 205.79,-291.31 203.7,-279.2"/>
<polygon fill="black" stroke="black" points="207.12,-278.41 201.96,-269.15 200.22,-279.6 207.12,-278.41"/>
</g>
<!-- ls4 -->
<g id="node7" class="node">
<title>ls4</title>
<path fill="none" stroke="black" d="M316,-190.5C316,-190.5 64,-190.5 64,-190.5 58,-190.5 52,-184.5 52,-178.5 52,-178.5 52,-166.5 52,-166.5 52,-160.5 58,-154.5 64,-154.5 64,-154.5 316,-154.5 316,-154.5 322,-154.5 328,-160.5 328,-166.5 328,-166.5 328,-178.5 328,-178.5 328,-184.5 322,-190.5 316,-190.5"/>
<text text-anchor="middle" x="190" y="-175.9" font-family="Helvetica,sans-Serif" font-size="12.00">Solve (choose):</text>
<text text-anchor="middle" x="190" y="-162.9" font-family="Helvetica,sans-Serif" font-size="12.00">LS / WLS / Gauss&#45;Newton / LM / Robust IRLS</text>
</g>
<!-- ls3&#45;&gt;ls4 -->
<g id="edge5" class="edge">
<title>ls3&#45;&gt;ls4</title>
<path fill="none" stroke="black" d="M196.96,-232.64C195.85,-223.19 194.44,-211.27 193.19,-200.62"/>
<polygon fill="black" stroke="black" points="196.65,-200.05 192,-190.53 189.7,-200.87 196.65,-200.05"/>
</g>
<!-- ls5 -->
<g id="node8" class="node">
<title>ls5</title>
<path fill="none" stroke="black" d="M315.5,-64C315.5,-64 28.5,-64 28.5,-64 22.5,-64 16.5,-58 16.5,-52 16.5,-52 16.5,-40 16.5,-40 16.5,-34 22.5,-28 28.5,-28 28.5,-28 315.5,-28 315.5,-28 321.5,-28 327.5,-34 327.5,-40 327.5,-40 327.5,-52 327.5,-52 327.5,-58 321.5,-64 315.5,-64"/>
<text text-anchor="middle" x="172" y="-42.9" font-family="Helvetica,sans-Serif" font-size="12.00">Plot + save figs/ch3_least_squares_examples.png</text>
</g>
<!-- ls4&#45;&gt;ls5 -->
<g id="edge6" class="edge">
<title>ls4&#45;&gt;ls5</title>
<path fill="none" stroke="black" d="M187.53,-154.45C184.55,-133.8 179.48,-98.74 175.95,-74.31"/>
<polygon fill="black" stroke="black" points="179.39,-73.64 174.49,-64.24 172.46,-74.64 179.39,-73.64"/>
</g>
<!-- estim -->
<g id="node28" class="node">
<title>estim</title>
<path fill="none" stroke="black" d="M1165,-76C1165,-76 1069,-76 1069,-76 1063,-76 1057,-70 1057,-64 1057,-64 1057,-28 1057,-28 1057,-22 1063,-16 1069,-16 1069,-16 1165,-16 1165,-16 1171,-16 1177,-22 1177,-28 1177,-28 1177,-64 1177,-64 1177,-70 1171,-76 1165,-76"/>
<text text-anchor="middle" x="1117" y="-62.4" font-family="Helvetica,sans-Serif" font-size="12.00">core.estimators</text>
<text text-anchor="middle" x="1117" y="-49.4" font-family="Helvetica,sans-Serif" font-size="12.00">(LS/WLS/GN/LM,</text>
<text text-anchor="middle" x="1117" y="-36.4" font-family="Helvetica,sans-Serif" font-size="12.00">KF, EKF/IEKF/UKF,</text>
<text text-anchor="middle" x="1117" y="-23.4" font-family="Helvetica,sans-Serif" font-size="12.00">PF, FactorGraph)</text>
</g>
<!-- ls4&#45;&gt;estim -->
<g id="edge29" class="edge">
<title>ls4&#45;&gt;estim</title>
<path fill="none" stroke="black" stroke-dasharray="5,2" d="M222.37,-154.43C247.42,-142.2 283.41,-126.74 317,-120 356.66,-112.04 1007.33,-126.73 1045,-112 1060.44,-105.96 1074.65,-94.96 1086.3,-83.7"/>
<polygon fill="black" stroke="black" points="1089.05,-85.9 1093.56,-76.31 1084.06,-80.99 1089.05,-85.9"/>
<text text-anchor="middle" x="328.5" y="-123" font-family="Helvetica,sans-Serif" font-size="10.00">calls</text>
</g>
<!-- kf2 -->
<g id="node10" class="node">
<title>kf2</title>
<path fill="none" stroke="black" d="M613.5,-269C613.5,-269 364.5,-269 364.5,-269 358.5,-269 352.5,-263 352.5,-257 352.5,-257 352.5,-245 352.5,-245 352.5,-239 358.5,-233 364.5,-233 364.5,-233 613.5,-233 613.5,-233 619.5,-233 625.5,-239 625.5,-245 625.5,-245 625.5,-257 625.5,-257 625.5,-263 619.5,-269 613.5,-269"/>
<text text-anchor="middle" x="489" y="-247.9" font-family="Helvetica,sans-Serif" font-size="12.00">Simulate trajectory + noisy measurements</text>
</g>
<!-- kf1&#45;&gt;kf2 -->
<g id="edge7" class="edge">
<title>kf1&#45;&gt;kf2</title>
<path fill="none" stroke="black" d="M529.18,-315.82C522.22,-304.76 513.04,-290.18 505.21,-277.75"/>
<polygon fill="black" stroke="black" points="508.09,-275.75 499.8,-269.15 502.17,-279.48 508.09,-275.75"/>
</g>
<!-- kf3 -->
<g id="node11" class="node">
<title>kf3</title>
<path fill="none" stroke="black" d="M560,-190.5C560,-190.5 460,-190.5 460,-190.5 454,-190.5 448,-184.5 448,-178.5 448,-178.5 448,-166.5 448,-166.5 448,-160.5 454,-154.5 460,-154.5 460,-154.5 560,-154.5 560,-154.5 566,-154.5 572,-160.5 572,-166.5 572,-166.5 572,-178.5 572,-178.5 572,-184.5 566,-190.5 560,-190.5"/>
<text text-anchor="middle" x="510" y="-175.9" font-family="Helvetica,sans-Serif" font-size="12.00">KalmanFilter loop:</text>
<text text-anchor="middle" x="510" y="-162.9" font-family="Helvetica,sans-Serif" font-size="12.00">predict → update</text>
</g>
<!-- kf2&#45;&gt;kf3 -->
<g id="edge8" class="edge">
<title>kf2&#45;&gt;kf3</title>
<path fill="none" stroke="black" d="M493.77,-232.64C496.39,-223.09 499.7,-211.02 502.65,-200.29"/>
<polygon fill="black" stroke="black" points="506.05,-201.1 505.33,-190.53 499.3,-199.24 506.05,-201.1"/>
</g>
<!-- kf4 -->
<g id="node12" class="node">
<title>kf4</title>
<path fill="none" stroke="black" d="M605.5,-64C605.5,-64 414.5,-64 414.5,-64 408.5,-64 402.5,-58 402.5,-52 402.5,-52 402.5,-40 402.5,-40 402.5,-34 408.5,-28 414.5,-28 414.5,-28 605.5,-28 605.5,-28 611.5,-28 617.5,-34 617.5,-40 617.5,-40 617.5,-52 617.5,-52 617.5,-58 611.5,-64 605.5,-64"/>
<text text-anchor="middle" x="510" y="-49.4" font-family="Helvetica,sans-Serif" font-size="12.00">Errors + plot</text>
<text text-anchor="middle" x="510" y="-36.4" font-family="Helvetica,sans-Serif" font-size="12.00">figs/ch3_kalman_1d_tracking.png</text>
</g>
<!-- kf3&#45;&gt;kf4 -->
<g id="edge9" class="edge">
<title>kf3&#45;&gt;kf4</title>
<path fill="none" stroke="black" d="M510,-154.45C510,-133.8 510,-98.74 510,-74.31"/>
<polygon fill="black" stroke="black" points="513.5,-74.24 510,-64.24 506.5,-74.24 513.5,-74.24"/>
</g>
<!-- kf3&#45;&gt;estim -->
<g id="edge30" class="edge">
<title>kf3&#45;&gt;estim</title>
<path fill="none" stroke="black" stroke-dasharray="5,2" d="M536.39,-154.5C556.91,-142.31 586.58,-126.87 615,-120 661.45,-108.77 1000.56,-129.57 1045,-112 1060.42,-105.91 1074.62,-94.89 1086.27,-83.63"/>
<polygon fill="black" stroke="black" points="1089.02,-85.83 1093.54,-76.25 1084.03,-80.92 1089.02,-85.83"/>
<text text-anchor="middle" x="626.5" y="-123" font-family="Helvetica,sans-Serif" font-size="10.00">calls</text>
</g>
<!-- ekf1 -->
<g id="node14" class="node">
<title>ekf1</title>
<path fill="none" stroke="black" d="M808,-352C808,-352 662,-352 662,-352 656,-352 650,-346 650,-340 650,-340 650,-328 650,-328 650,-322 656,-316 662,-316 662,-316 808,-316 808,-316 814,-316 820,-322 820,-328 820,-328 820,-340 820,-340 820,-346 814,-352 808,-352"/>
<text text-anchor="middle" x="735" y="-337.4" font-family="Helvetica,sans-Serif" font-size="12.00">Load dataset:</text>
<text text-anchor="middle" x="735" y="-324.4" font-family="Helvetica,sans-Serif" font-size="12.00">data/sim/ch3_estimator_*</text>
</g>
<!-- ekf0&#45;&gt;ekf1 -->
<g id="edge10" class="edge">
<title>ekf0&#45;&gt;ekf1</title>
<path fill="none" stroke="black" d="M873.86,-428.45C847.51,-410.71 800.94,-379.38 769.06,-357.92"/>
<polygon fill="black" stroke="black" points="770.73,-354.83 760.48,-352.15 766.82,-360.63 770.73,-354.83"/>
<text text-anchor="middle" x="847" y="-399" font-family="Helvetica,sans-Serif" font-size="10.00">yes</text>
</g>
<!-- ekf2 -->
<g id="node15" class="node">
<title>ekf2</title>
<path fill="none" stroke="black" d="M1021.5,-352C1021.5,-352 850.5,-352 850.5,-352 844.5,-352 838.5,-346 838.5,-340 838.5,-340 838.5,-328 838.5,-328 838.5,-322 844.5,-316 850.5,-316 850.5,-316 1021.5,-316 1021.5,-316 1027.5,-316 1033.5,-322 1033.5,-328 1033.5,-328 1033.5,-340 1033.5,-340 1033.5,-346 1027.5,-352 1021.5,-352"/>
<text text-anchor="middle" x="936" y="-337.4" font-family="Helvetica,sans-Serif" font-size="12.00">OR simulate trajectory +</text>
<text text-anchor="middle" x="936" y="-324.4" font-family="Helvetica,sans-Serif" font-size="12.00">range/bearing measurements</text>
</g>
<!-- ekf0&#45;&gt;ekf2 -->
<g id="edge11" class="edge">
<title>ekf0&#45;&gt;ekf2</title>
<path fill="none" stroke="black" d="M900.38,-425.75C907.05,-408.74 917.64,-381.77 925.54,-361.65"/>
<polygon fill="black" stroke="black" points="928.89,-362.7 929.28,-352.11 922.37,-360.14 928.89,-362.7"/>
<text text-anchor="middle" x="917.5" y="-399" font-family="Helvetica,sans-Serif" font-size="10.00">no</text>
</g>
<!-- ekf3 -->
<g id="node16" class="node">
<title>ekf3</title>
<path fill="none" stroke="black" d="M1008,-269C1008,-269 864,-269 864,-269 858,-269 852,-263 852,-257 852,-257 852,-245 852,-245 852,-239 858,-233 864,-233 864,-233 1008,-233 1008,-233 1014,-233 1020,-239 1020,-245 1020,-245 1020,-257 1020,-257 1020,-263 1014,-269 1008,-269"/>
<text text-anchor="middle" x="936" y="-254.4" font-family="Helvetica,sans-Serif" font-size="12.00">Sanity checks:</text>
<text text-anchor="middle" x="936" y="-241.4" font-family="Helvetica,sans-Serif" font-size="12.00">geometry + observability</text>
</g>
<!-- ekf1&#45;&gt;ekf3 -->
<g id="edge12" class="edge">
<title>ekf1&#45;&gt;ekf3</title>
<path fill="none" stroke="black" d="M777.63,-315.82C808.78,-303.27 851.18,-286.18 884.27,-272.85"/>
<polygon fill="black" stroke="black" points="885.81,-276 893.78,-269.01 883.2,-269.51 885.81,-276"/>
</g>
<!-- ekf2&#45;&gt;ekf3 -->
<g id="edge13" class="edge">
<title>ekf2&#45;&gt;ekf3</title>
<path fill="none" stroke="black" d="M936,-315.82C936,-305.19 936,-291.31 936,-279.2"/>
<polygon fill="black" stroke="black" points="939.5,-279.15 936,-269.15 932.5,-279.15 939.5,-279.15"/>
</g>
<!-- ekf4 -->
<g id="node17" class="node">
<title>ekf4</title>
<path fill="none" stroke="black" d="M1018,-196C1018,-196 860,-196 860,-196 854,-196 848,-190 848,-184 848,-184 848,-161 848,-161 848,-155 854,-149 860,-149 860,-149 1018,-149 1018,-149 1024,-149 1030,-155 1030,-161 1030,-161 1030,-184 1030,-184 1030,-190 1024,-196 1018,-196"/>
<text text-anchor="middle" x="939" y="-182.4" font-family="Helvetica,sans-Serif" font-size="12.00">EKF loop:</text>
<text text-anchor="middle" x="939" y="-169.4" font-family="Helvetica,sans-Serif" font-size="12.00">predict → update</text>
<text text-anchor="middle" x="939" y="-156.4" font-family="Helvetica,sans-Serif" font-size="12.00">(angle&#45;wrapped innovation)</text>
</g>
<!-- ekf3&#45;&gt;ekf4 -->
<g id="edge14" class="edge">
<title>ekf3&#45;&gt;ekf4</title>
<path fill="none" stroke="black" d="M936.68,-232.64C936.99,-224.76 937.37,-215.18 937.72,-206.04"/>
<polygon fill="black" stroke="black" points="941.22,-206.15 938.12,-196.02 934.23,-205.88 941.22,-206.15"/>
</g>
<!-- ekf5 -->
<g id="node18" class="node">
<title>ekf5</title>
<path fill="none" stroke="black" d="M1020.5,-64C1020.5,-64 837.5,-64 837.5,-64 831.5,-64 825.5,-58 825.5,-52 825.5,-52 825.5,-40 825.5,-40 825.5,-34 831.5,-28 837.5,-28 837.5,-28 1020.5,-28 1020.5,-28 1026.5,-28 1032.5,-34 1032.5,-40 1032.5,-40 1032.5,-52 1032.5,-52 1032.5,-58 1026.5,-64 1020.5,-64"/>
<text text-anchor="middle" x="929" y="-49.4" font-family="Helvetica,sans-Serif" font-size="12.00">Plot + save</text>
<text text-anchor="middle" x="929" y="-36.4" font-family="Helvetica,sans-Serif" font-size="12.00">figs/ch3_ekf_range_bearing.png</text>
</g>
<!-- ekf4&#45;&gt;ekf5 -->
<g id="edge15" class="edge">
<title>ekf4&#45;&gt;ekf5</title>
<path fill="none" stroke="black" d="M937.19,-148.95C935.51,-128 933,-96.74 931.2,-74.36"/>
<polygon fill="black" stroke="black" points="934.67,-73.86 930.38,-64.17 927.69,-74.42 934.67,-73.86"/>
</g>
<!-- ekf4&#45;&gt;estim -->
<g id="edge31" class="edge">
<title>ekf4&#45;&gt;estim</title>
<path fill="none" stroke="black" stroke-dasharray="5,2" d="M966.36,-148.88C979.73,-138.79 996.47,-127.51 1013,-120 1026.35,-113.94 1032.06,-118.89 1045,-112 1058.89,-104.6 1072.23,-93.94 1083.57,-83.39"/>
<polygon fill="black" stroke="black" points="1086.32,-85.6 1091.09,-76.14 1081.46,-80.57 1086.32,-85.6"/>
<text text-anchor="middle" x="1024.5" y="-123" font-family="Helvetica,sans-Serif" font-size="10.00">calls</text>
</g>
<!-- utils -->
<g id="node29" class="node">
<title>utils</title>
<path fill="none" stroke="black" d="M1280.5,-76C1280.5,-76 1207.5,-76 1207.5,-76 1201.5,-76 1195.5,-70 1195.5,-64 1195.5,-64 1195.5,-28 1195.5,-28 1195.5,-22 1201.5,-16 1207.5,-16 1207.5,-16 1280.5,-16 1280.5,-16 1286.5,-16 1292.5,-22 1292.5,-28 1292.5,-28 1292.5,-64 1292.5,-64 1292.5,-70 1286.5,-76 1280.5,-76"/>
<text text-anchor="middle" x="1244" y="-62.4" font-family="Helvetica,sans-Serif" font-size="12.00">core.utils</text>
<text text-anchor="middle" x="1244" y="-49.4" font-family="Helvetica,sans-Serif" font-size="12.00">(angle_diff,</text>
<text text-anchor="middle" x="1244" y="-36.4" font-family="Helvetica,sans-Serif" font-size="12.00">geometry,</text>
<text text-anchor="middle" x="1244" y="-23.4" font-family="Helvetica,sans-Serif" font-size="12.00">observability)</text>
</g>
<!-- ekf4&#45;&gt;utils -->
<g id="edge34" class="edge">
<title>ekf4&#45;&gt;utils</title>
<path fill="none" stroke="black" stroke-dasharray="5,2" d="M1030.26,-162.85C1079.17,-155.05 1138.88,-140.2 1186,-112 1197.89,-104.88 1208.7,-94.53 1217.68,-84.17"/>
<polygon fill="black" stroke="black" points="1220.51,-86.24 1224.18,-76.31 1215.11,-81.79 1220.51,-86.24"/>
<text text-anchor="middle" x="1179.5" y="-123" font-family="Helvetica,sans-Serif" font-size="10.00">uses</text>
</g>
<!-- iekf1 -->
<g id="node20" class="node">
<title>iekf1</title>
<path fill="none" stroke="black" d="M1687,-269C1687,-269 1541,-269 1541,-269 1535,-269 1529,-263 1529,-257 1529,-257 1529,-245 1529,-245 1529,-239 1535,-233 1541,-233 1541,-233 1687,-233 1687,-233 1693,-233 1699,-239 1699,-245 1699,-245 1699,-257 1699,-257 1699,-263 1693,-269 1687,-269"/>
<text text-anchor="middle" x="1614" y="-254.4" font-family="Helvetica,sans-Serif" font-size="12.00">Load dataset:</text>
<text text-anchor="middle" x="1614" y="-241.4" font-family="Helvetica,sans-Serif" font-size="12.00">data/sim/ch3_estimator_*</text>
</g>
<!-- iekf0&#45;&gt;iekf1 -->
<g id="edge16" class="edge">
<title>iekf0&#45;&gt;iekf1</title>
<path fill="none" stroke="black" d="M1443.94,-321.22C1475.04,-308.56 1525.1,-288.19 1562.87,-272.81"/>
<polygon fill="black" stroke="black" points="1564.25,-276.03 1572.19,-269.02 1561.61,-269.55 1564.25,-276.03"/>
<text text-anchor="middle" x="1535" y="-290" font-family="Helvetica,sans-Serif" font-size="10.00">yes</text>
</g>
<!-- iekf2 -->
<g id="node21" class="node">
<title>iekf2</title>
<path fill="none" stroke="black" d="M1498.5,-269C1498.5,-269 1327.5,-269 1327.5,-269 1321.5,-269 1315.5,-263 1315.5,-257 1315.5,-257 1315.5,-245 1315.5,-245 1315.5,-239 1321.5,-233 1327.5,-233 1327.5,-233 1498.5,-233 1498.5,-233 1504.5,-233 1510.5,-239 1510.5,-245 1510.5,-245 1510.5,-257 1510.5,-257 1510.5,-263 1504.5,-269 1498.5,-269"/>
<text text-anchor="middle" x="1413" y="-254.4" font-family="Helvetica,sans-Serif" font-size="12.00">OR simulate trajectory +</text>
<text text-anchor="middle" x="1413" y="-241.4" font-family="Helvetica,sans-Serif" font-size="12.00">range/bearing measurements</text>
</g>
<!-- iekf0&#45;&gt;iekf2 -->
<g id="edge17" class="edge">
<title>iekf0&#45;&gt;iekf2</title>
<path fill="none" stroke="black" d="M1414.58,-315.82C1414.31,-305.19 1413.97,-291.31 1413.67,-279.2"/>
<polygon fill="black" stroke="black" points="1417.17,-279.06 1413.42,-269.15 1410.17,-279.24 1417.17,-279.06"/>
<text text-anchor="middle" x="1420.5" y="-290" font-family="Helvetica,sans-Serif" font-size="10.00">no</text>
</g>
<!-- iekf3 -->
<g id="node22" class="node">
<title>iekf3</title>
<path fill="none" stroke="black" d="M1461,-190.5C1461,-190.5 1365,-190.5 1365,-190.5 1359,-190.5 1353,-184.5 1353,-178.5 1353,-178.5 1353,-166.5 1353,-166.5 1353,-160.5 1359,-154.5 1365,-154.5 1365,-154.5 1461,-154.5 1461,-154.5 1467,-154.5 1473,-160.5 1473,-166.5 1473,-166.5 1473,-178.5 1473,-178.5 1473,-184.5 1467,-190.5 1461,-190.5"/>
<text text-anchor="middle" x="1413" y="-175.9" font-family="Helvetica,sans-Serif" font-size="12.00">Run EKF and IEKF</text>
<text text-anchor="middle" x="1413" y="-162.9" font-family="Helvetica,sans-Serif" font-size="12.00">on same data</text>
</g>
<!-- iekf1&#45;&gt;iekf3 -->
<g id="edge18" class="edge">
<title>iekf1&#45;&gt;iekf3</title>
<path fill="none" stroke="black" d="M1569.14,-232.93C1539.05,-221.47 1499.24,-206.32 1467.34,-194.18"/>
<polygon fill="black" stroke="black" points="1468.31,-190.81 1457.72,-190.52 1465.82,-197.35 1468.31,-190.81"/>
</g>
<!-- iekf2&#45;&gt;iekf3 -->
<g id="edge19" class="edge">
<title>iekf2&#45;&gt;iekf3</title>
<path fill="none" stroke="black" d="M1413,-232.64C1413,-223.19 1413,-211.27 1413,-200.62"/>
<polygon fill="black" stroke="black" points="1416.5,-200.53 1413,-190.53 1409.5,-200.53 1416.5,-200.53"/>
</g>
<!-- iekf4 -->
<g id="node23" class="node">
<title>iekf4</title>
<path fill="none" stroke="black" d="M1541.5,-64C1541.5,-64 1328.5,-64 1328.5,-64 1322.5,-64 1316.5,-58 1316.5,-52 1316.5,-52 1316.5,-40 1316.5,-40 1316.5,-34 1322.5,-28 1328.5,-28 1328.5,-28 1541.5,-28 1541.5,-28 1547.5,-28 1553.5,-34 1553.5,-40 1553.5,-40 1553.5,-52 1553.5,-52 1553.5,-58 1547.5,-64 1541.5,-64"/>
<text text-anchor="middle" x="1435" y="-49.4" font-family="Helvetica,sans-Serif" font-size="12.00">Compare + plot</text>
<text text-anchor="middle" x="1435" y="-36.4" font-family="Helvetica,sans-Serif" font-size="12.00">figs/ch3_iekf_vs_ekf_comparison.png</text>
</g>
<!-- iekf3&#45;&gt;iekf4 -->
<g id="edge20" class="edge">
<title>iekf3&#45;&gt;iekf4</title>
<path fill="none" stroke="black" d="M1416.01,-154.45C1419.66,-133.8 1425.86,-98.74 1430.17,-74.31"/>
<polygon fill="black" stroke="black" points="1433.66,-74.7 1431.95,-64.24 1426.77,-73.48 1433.66,-74.7"/>
</g>
<!-- iekf3&#45;&gt;estim -->
<g id="edge32" class="edge">
<title>iekf3&#45;&gt;estim</title>
<path fill="none" stroke="black" stroke-dasharray="5,2" d="M1352.91,-163.88C1305.57,-155.99 1239.08,-140.65 1187,-112 1173.42,-104.53 1160.43,-93.86 1149.41,-83.31"/>
<polygon fill="black" stroke="black" points="1151.67,-80.62 1142.11,-76.07 1146.74,-85.6 1151.67,-80.62"/>
<text text-anchor="middle" x="1238.5" y="-123" font-family="Helvetica,sans-Serif" font-size="10.00">calls</text>
</g>
<!-- iekf3&#45;&gt;utils -->
<g id="edge35" class="edge">
<title>iekf3&#45;&gt;utils</title>
<path fill="none" stroke="black" stroke-dasharray="5,2" d="M1374.82,-154.48C1353.01,-143.85 1325.76,-128.97 1304,-112 1293.49,-103.8 1283.21,-93.69 1274.21,-83.9"/>
<polygon fill="black" stroke="black" points="1276.57,-81.29 1267.29,-76.17 1271.35,-85.96 1276.57,-81.29"/>
<text text-anchor="middle" x="1340.5" y="-123" font-family="Helvetica,sans-Serif" font-size="10.00">uses</text>
</g>
<!-- c2 -->
<g id="node25" class="node">
<title>c2</title>
<path fill="none" stroke="black" d="M1917,-269C1917,-269 1735,-269 1735,-269 1729,-269 1723,-263 1723,-257 1723,-257 1723,-245 1723,-245 1723,-239 1729,-233 1735,-233 1735,-233 1917,-233 1917,-233 1923,-233 1929,-239 1929,-245 1929,-245 1929,-257 1929,-257 1929,-263 1923,-269 1917,-269"/>
<text text-anchor="middle" x="1826" y="-247.9" font-family="Helvetica,sans-Serif" font-size="12.00">Generate range measurements</text>
</g>
<!-- c1&#45;&gt;c2 -->
<g id="edge21" class="edge">
<title>c1&#45;&gt;c2</title>
<path fill="none" stroke="black" d="M1813.39,-315.82C1815.49,-305.19 1818.24,-291.31 1820.63,-279.2"/>
<polygon fill="black" stroke="black" points="1824.11,-279.64 1822.61,-269.15 1817.24,-278.29 1824.11,-279.64"/>
</g>
<!-- c3 -->
<g id="node26" class="node">
<title>c3</title>
<path fill="none" stroke="black" d="M1881.5,-196C1881.5,-196 1770.5,-196 1770.5,-196 1764.5,-196 1758.5,-190 1758.5,-184 1758.5,-184 1758.5,-161 1758.5,-161 1758.5,-155 1764.5,-149 1770.5,-149 1770.5,-149 1881.5,-149 1881.5,-149 1887.5,-149 1893.5,-155 1893.5,-161 1893.5,-161 1893.5,-184 1893.5,-184 1893.5,-190 1887.5,-196 1881.5,-196"/>
<text text-anchor="middle" x="1826" y="-182.4" font-family="Helvetica,sans-Serif" font-size="12.00">Run methods:</text>
<text text-anchor="middle" x="1826" y="-169.4" font-family="Helvetica,sans-Serif" font-size="12.00">EKF / UKF / PF / FGO</text>
<text text-anchor="middle" x="1826" y="-156.4" font-family="Helvetica,sans-Serif" font-size="12.00">(+ timing)</text>
</g>
<!-- c2&#45;&gt;c3 -->
<g id="edge22" class="edge">
<title>c2&#45;&gt;c3</title>
<path fill="none" stroke="black" d="M1826,-232.64C1826,-224.76 1826,-215.18 1826,-206.04"/>
<polygon fill="black" stroke="black" points="1829.5,-206.02 1826,-196.02 1822.5,-206.02 1829.5,-206.02"/>
</g>
<!-- c4 -->
<g id="node27" class="node">
<title>c4</title>
<path fill="none" stroke="black" d="M1941,-64C1941,-64 1735,-64 1735,-64 1729,-64 1723,-58 1723,-52 1723,-52 1723,-40 1723,-40 1723,-34 1729,-28 1735,-28 1735,-28 1941,-28 1941,-28 1947,-28 1953,-34 1953,-40 1953,-40 1953,-52 1953,-52 1953,-58 1947,-64 1941,-64"/>
<text text-anchor="middle" x="1838" y="-49.4" font-family="Helvetica,sans-Serif" font-size="12.00">Compare error &amp; runtime</text>
<text text-anchor="middle" x="1838" y="-36.4" font-family="Helvetica,sans-Serif" font-size="12.00">figs/ch3_estimator_comparison.png</text>
</g>
<!-- c3&#45;&gt;c4 -->
<g id="edge23" class="edge">
<title>c3&#45;&gt;c4</title>
<path fill="none" stroke="black" d="M1828.17,-148.95C1830.19,-128 1833.21,-96.74 1835.36,-74.36"/>
<polygon fill="black" stroke="black" points="1838.87,-74.46 1836.34,-64.17 1831.9,-73.79 1838.87,-74.46"/>
</g>
<!-- c3&#45;&gt;estim -->
<g id="edge33" class="edge">
<title>c3&#45;&gt;estim</title>
<path fill="none" stroke="black" stroke-dasharray="5,2" d="M1786.4,-148.96C1764.84,-137.94 1737.27,-125.82 1711,-120 1682.58,-113.7 1214.02,-122.85 1187,-112 1171.85,-105.92 1158,-94.9 1146.69,-83.65"/>
<polygon fill="black" stroke="black" points="1149.08,-81.08 1139.64,-76.26 1144.02,-85.91 1149.08,-81.08"/>
<text text-anchor="middle" x="1754.5" y="-123" font-family="Helvetica,sans-Serif" font-size="10.00">calls</text>
</g>
</g>
</svg>
