<?xml version="1.0" encoding="UTF-8" standalone="no"?>
<!DOCTYPE svg PUBLIC "-//W3C//DTD SVG 1.1//EN"
 "http://www.w3.org/Graphics/SVG/1.1/DTD/svg11.dtd">
<!-- Generated by graphviz version 2.43.0 (0)
 -->
<!-- Title: IPINRepo2 Pages: 1 -->
<svg width="968pt" height="593pt"
 viewBox="0.00 0.00 968.00 593.00" xmlns="http://www.w3.org/2000/svg" xmlns:xlink="http://www.w3.org/1999/xlink">
<g id="graph0" class="graph" transform="scale(1 1) rotate(0) translate(4 589)">
<title>IPINRepo2</title>
<polygon fill="white" stroke="transparent" points="-4,4 -4,-589 964,-589 964,4 -4,4"/>
<g id="clust1" class="cluster">
<title>cluster_entry</title>
<polygon fill="none" stroke="#999999" points="114,-260 114,-394 338,-394 338,-260 114,-260"/>
<text text-anchor="middle" x="226" y="-380.4" font-family="Helvetica,sans-Serif" font-size="12.00">Entry points</text>
</g>
<g id="clust2" class="cluster">
<title>cluster_chapters</title>
<polygon fill="none" stroke="#999999" points="369,-138 369,-577 537,-577 537,-138 369,-138"/>
<text text-anchor="middle" x="453" y="-563.4" font-family="Helvetica,sans-Serif" font-size="12.00">Chapters (examples)</text>
</g>
<g id="clust3" class="cluster">
<title>cluster_core</title>
<polygon fill="none" stroke="#999999" points="568,-8 568,-325 952,-325 952,-8 568,-8"/>
<text text-anchor="middle" x="760" y="-311.4" font-family="Helvetica,sans-Serif" font-size="12.00">core/ (reusable library)</text>
</g>
<g id="clust4" class="cluster">
<title>cluster_assets</title>
<polygon fill="none" stroke="#999999" points="8,-26 8,-221 199,-221 199,-26 8,-26"/>
<text text-anchor="middle" x="103.5" y="-207.4" font-family="Helvetica,sans-Serif" font-size="12.00">Assets &amp; engineering</text>
</g>
<!-- readme -->
<g id="node1" class="node">
<title>readme</title>
<path fill="#f8f8f8" stroke="#555555" d="M194,-304C194,-304 134,-304 134,-304 128,-304 122,-298 122,-292 122,-292 122,-280 122,-280 122,-274 128,-268 134,-268 134,-268 194,-268 194,-268 200,-268 206,-274 206,-280 206,-280 206,-292 206,-292 206,-298 200,-304 194,-304"/>
<text text-anchor="middle" x="164" y="-283.2" font-family="Helvetica,sans-Serif" font-size="11.00">README.md</text>
</g>
<!-- notebooks2 -->
<g id="node2" class="node">
<title>notebooks2</title>
<path fill="#f8f8f8" stroke="#555555" d="M318,-365C318,-365 265,-365 265,-365 259,-365 253,-359 253,-353 253,-353 253,-341 253,-341 253,-335 259,-329 265,-329 265,-329 318,-329 318,-329 324,-329 330,-335 330,-341 330,-341 330,-353 330,-353 330,-359 324,-365 318,-365"/>
<text text-anchor="middle" x="291.5" y="-344.2" font-family="Helvetica,sans-Serif" font-size="11.00">notebooks/</text>
</g>
<!-- readme&#45;&gt;notebooks2 -->
<g id="edge1" class="edge">
<title>readme&#45;&gt;notebooks2</title>
<path fill="none" stroke="#666666" d="M206.05,-292C231.08,-292 258,-292 258,-292 258,-292 258,-320.99 258,-320.99"/>
<polygon fill="#666666" stroke="#666666" points="255.2,-320.99 258,-328.99 260.8,-320.99 255.2,-320.99"/>
</g>
<!-- scripts2 -->
<g id="node3" class="node">
<title>scripts2</title>
<path fill="#f8f8f8" stroke="#555555" d="M308,-304C308,-304 275,-304 275,-304 269,-304 263,-298 263,-292 263,-292 263,-280 263,-280 263,-274 269,-268 275,-268 275,-268 308,-268 308,-268 314,-268 320,-274 320,-280 320,-280 320,-292 320,-292 320,-298 314,-304 308,-304"/>
<text text-anchor="middle" x="291.5" y="-283.2" font-family="Helvetica,sans-Serif" font-size="11.00">scripts/</text>
</g>
<!-- readme&#45;&gt;scripts2 -->
<g id="edge2" class="edge">
<title>readme&#45;&gt;scripts2</title>
<path fill="none" stroke="#666666" d="M206.1,-280C206.1,-280 254.73,-280 254.73,-280"/>
<polygon fill="#666666" stroke="#666666" points="254.73,-282.8 262.73,-280 254.73,-277.2 254.73,-282.8"/>
</g>
<!-- ch2_coords2 -->
<g id="node4" class="node">
<title>ch2_coords2</title>
<path fill="#f8f8f8" stroke="#555555" d="M482,-304C482,-304 424,-304 424,-304 418,-304 412,-298 412,-292 412,-292 412,-280 412,-280 412,-274 418,-268 424,-268 424,-268 482,-268 482,-268 488,-268 494,-274 494,-280 494,-280 494,-292 494,-292 494,-298 488,-304 482,-304"/>
<text text-anchor="middle" x="453" y="-283.2" font-family="Helvetica,sans-Serif" font-size="11.00">ch2_coords/</text>
</g>
<!-- notebooks2&#45;&gt;ch2_coords2 -->
<g id="edge3" class="edge">
<title>notebooks2&#45;&gt;ch2_coords2</title>
<path fill="none" stroke="#666666" d="M327,-328.88C327,-314.5 327,-296.8 327,-296.8 327,-296.8 403.74,-296.8 403.74,-296.8"/>
<polygon fill="#666666" stroke="#666666" points="403.74,-299.6 411.74,-296.8 403.74,-294 403.74,-299.6"/>
</g>
<!-- ch3_estimators2 -->
<g id="node5" class="node">
<title>ch3_estimators2</title>
<path fill="#f8f8f8" stroke="#555555" d="M493,-365C493,-365 413,-365 413,-365 407,-365 401,-359 401,-353 401,-353 401,-341 401,-341 401,-335 407,-329 413,-329 413,-329 493,-329 493,-329 499,-329 505,-335 505,-341 505,-341 505,-353 505,-353 505,-359 499,-365 493,-365"/>
<text text-anchor="middle" x="453" y="-344.2" font-family="Helvetica,sans-Serif" font-size="11.00">ch3_estimators/</text>
</g>
<!-- notebooks2&#45;&gt;ch3_estimators2 -->
<g id="edge4" class="edge">
<title>notebooks2&#45;&gt;ch3_estimators2</title>
<path fill="none" stroke="#666666" d="M330.18,-347C330.18,-347 392.89,-347 392.89,-347"/>
<polygon fill="#666666" stroke="#666666" points="392.89,-349.8 400.89,-347 392.89,-344.2 392.89,-349.8"/>
</g>
<!-- ch4_rf_point_positioning2 -->
<g id="node6" class="node">
<title>ch4_rf_point_positioning2</title>
<path fill="#f8f8f8" stroke="#555555" d="M517,-182C517,-182 389,-182 389,-182 383,-182 377,-176 377,-170 377,-170 377,-158 377,-158 377,-152 383,-146 389,-146 389,-146 517,-146 517,-146 523,-146 529,-152 529,-158 529,-158 529,-170 529,-170 529,-176 523,-182 517,-182"/>
<text text-anchor="middle" x="453" y="-161.2" font-family="Helvetica,sans-Serif" font-size="11.00">ch4_rf_point_positioning/</text>
</g>
<!-- notebooks2&#45;&gt;ch4_rf_point_positioning2 -->
<g id="edge5" class="edge">
<title>notebooks2&#45;&gt;ch4_rf_point_positioning2</title>
<path fill="none" stroke="#666666" d="M324,-328.95C324,-283.7 324,-169 324,-169 324,-169 368.84,-169 368.84,-169"/>
<polygon fill="#666666" stroke="#666666" points="368.84,-171.8 376.84,-169 368.84,-166.2 368.84,-171.8"/>
</g>
<!-- ch5_fingerprinting2 -->
<g id="node7" class="node">
<title>ch5_fingerprinting2</title>
<path fill="#f8f8f8" stroke="#555555" d="M500.5,-243C500.5,-243 405.5,-243 405.5,-243 399.5,-243 393.5,-237 393.5,-231 393.5,-231 393.5,-219 393.5,-219 393.5,-213 399.5,-207 405.5,-207 405.5,-207 500.5,-207 500.5,-207 506.5,-207 512.5,-213 512.5,-219 512.5,-219 512.5,-231 512.5,-231 512.5,-237 506.5,-243 500.5,-243"/>
<text text-anchor="middle" x="453" y="-222.2" font-family="Helvetica,sans-Serif" font-size="11.00">ch5_fingerprinting/</text>
</g>
<!-- notebooks2&#45;&gt;ch5_fingerprinting2 -->
<g id="edge6" class="edge">
<title>notebooks2&#45;&gt;ch5_fingerprinting2</title>
<path fill="none" stroke="#666666" d="M330.01,-338C360.85,-338 399,-338 399,-338 399,-338 399,-251.16 399,-251.16"/>
<polygon fill="#666666" stroke="#666666" points="401.8,-251.16 399,-243.16 396.2,-251.16 401.8,-251.16"/>
</g>
<!-- ch6_dead_reckoning2 -->
<g id="node8" class="node">
<title>ch6_dead_reckoning2</title>
<path fill="#f8f8f8" stroke="#555555" d="M506.5,-487C506.5,-487 399.5,-487 399.5,-487 393.5,-487 387.5,-481 387.5,-475 387.5,-475 387.5,-463 387.5,-463 387.5,-457 393.5,-451 399.5,-451 399.5,-451 506.5,-451 506.5,-451 512.5,-451 518.5,-457 518.5,-463 518.5,-463 518.5,-475 518.5,-475 518.5,-481 512.5,-487 506.5,-487"/>
<text text-anchor="middle" x="453" y="-466.2" font-family="Helvetica,sans-Serif" font-size="11.00">ch6_dead_reckoning/</text>
</g>
<!-- notebooks2&#45;&gt;ch6_dead_reckoning2 -->
<g id="edge7" class="edge">
<title>notebooks2&#45;&gt;ch6_dead_reckoning2</title>
<path fill="none" stroke="#666666" d="M330.12,-356C359.88,-356 396,-356 396,-356 396,-356 396,-442.84 396,-442.84"/>
<polygon fill="#666666" stroke="#666666" points="393.2,-442.84 396,-450.84 398.8,-442.84 393.2,-442.84"/>
</g>
<!-- ch7_slam2 -->
<g id="node9" class="node">
<title>ch7_slam2</title>
<path fill="#f8f8f8" stroke="#555555" d="M476.5,-426C476.5,-426 429.5,-426 429.5,-426 423.5,-426 417.5,-420 417.5,-414 417.5,-414 417.5,-402 417.5,-402 417.5,-396 423.5,-390 429.5,-390 429.5,-390 476.5,-390 476.5,-390 482.5,-390 488.5,-396 488.5,-402 488.5,-402 488.5,-414 488.5,-414 488.5,-420 482.5,-426 476.5,-426"/>
<text text-anchor="middle" x="453" y="-405.2" font-family="Helvetica,sans-Serif" font-size="11.00">ch7_slam/</text>
</g>
<!-- notebooks2&#45;&gt;ch7_slam2 -->
<g id="edge8" class="edge">
<title>notebooks2&#45;&gt;ch7_slam2</title>
<path fill="none" stroke="#666666" d="M305,-365.3C305,-383.27 305,-408 305,-408 305,-408 409.17,-408 409.17,-408"/>
<polygon fill="#666666" stroke="#666666" points="409.17,-410.8 417.17,-408 409.17,-405.2 409.17,-410.8"/>
</g>
<!-- ch8_sensor_fusion2 -->
<g id="node10" class="node">
<title>ch8_sensor_fusion2</title>
<path fill="#f8f8f8" stroke="#555555" d="M501,-548C501,-548 405,-548 405,-548 399,-548 393,-542 393,-536 393,-536 393,-524 393,-524 393,-518 399,-512 405,-512 405,-512 501,-512 501,-512 507,-512 513,-518 513,-524 513,-524 513,-536 513,-536 513,-542 507,-548 501,-548"/>
<text text-anchor="middle" x="453" y="-527.2" font-family="Helvetica,sans-Serif" font-size="11.00">ch8_sensor_fusion/</text>
</g>
<!-- notebooks2&#45;&gt;ch8_sensor_fusion2 -->
<g id="edge9" class="edge">
<title>notebooks2&#45;&gt;ch8_sensor_fusion2</title>
<path fill="none" stroke="#666666" d="M279,-365.22C279,-411.5 279,-530 279,-530 279,-530 384.63,-530 384.63,-530"/>
<polygon fill="#666666" stroke="#666666" points="384.63,-532.8 392.63,-530 384.63,-527.2 384.63,-532.8"/>
</g>
<!-- scripts2&#45;&gt;ch2_coords2 -->
<g id="edge10" class="edge">
<title>scripts2&#45;&gt;ch2_coords2</title>
<path fill="none" stroke="#666666" d="M320,-282.4C320,-282.4 403.75,-282.4 403.75,-282.4"/>
<polygon fill="#666666" stroke="#666666" points="403.75,-285.2 411.75,-282.4 403.75,-279.6 403.75,-285.2"/>
</g>
<!-- scripts2&#45;&gt;ch3_estimators2 -->
<g id="edge11" class="edge">
<title>scripts2&#45;&gt;ch3_estimators2</title>
<path fill="none" stroke="#666666" d="M320.05,-289.6C354.25,-289.6 407,-289.6 407,-289.6 407,-289.6 407,-320.84 407,-320.84"/>
<polygon fill="#666666" stroke="#666666" points="404.2,-320.84 407,-328.84 409.8,-320.84 404.2,-320.84"/>
</g>
<!-- scripts2&#45;&gt;ch4_rf_point_positioning2 -->
<g id="edge12" class="edge">
<title>scripts2&#45;&gt;ch4_rf_point_positioning2</title>
<path fill="none" stroke="#666666" d="M320.45,-275.2C347.26,-275.2 383,-275.2 383,-275.2 383,-275.2 383,-190.36 383,-190.36"/>
<polygon fill="#666666" stroke="#666666" points="385.8,-190.36 383,-182.36 380.2,-190.36 385.8,-190.36"/>
</g>
<!-- coords2 -->
<g id="node11" class="node">
<title>coords2</title>
<path fill="#f8f8f8" stroke="#555555" d="M636,-296C636,-296 606,-296 606,-296 600,-296 594,-290 594,-284 594,-284 594,-272 594,-272 594,-266 600,-260 606,-260 606,-260 636,-260 636,-260 642,-260 648,-266 648,-272 648,-272 648,-284 648,-284 648,-290 642,-296 636,-296"/>
<text text-anchor="middle" x="621" y="-275.2" font-family="Helvetica,sans-Serif" font-size="11.00">coords</text>
</g>
<!-- ch2_coords2&#45;&gt;coords2 -->
<g id="edge13" class="edge">
<title>ch2_coords2&#45;&gt;coords2</title>
<path fill="none" stroke="#666666" d="M494.1,-282C494.1,-282 585.96,-282 585.96,-282"/>
<polygon fill="#666666" stroke="#666666" points="585.96,-284.8 593.96,-282 585.96,-279.2 585.96,-284.8"/>
</g>
<!-- estimators2 -->
<g id="node12" class="node">
<title>estimators2</title>
<path fill="#f8f8f8" stroke="#555555" d="M786.5,-174C786.5,-174 734.5,-174 734.5,-174 728.5,-174 722.5,-168 722.5,-162 722.5,-162 722.5,-150 722.5,-150 722.5,-144 728.5,-138 734.5,-138 734.5,-138 786.5,-138 786.5,-138 792.5,-138 798.5,-144 798.5,-150 798.5,-150 798.5,-162 798.5,-162 798.5,-168 792.5,-174 786.5,-174"/>
<text text-anchor="middle" x="760.5" y="-153.2" font-family="Helvetica,sans-Serif" font-size="11.00">estimators</text>
</g>
<!-- ch3_estimators2&#45;&gt;estimators2 -->
<g id="edge14" class="edge">
<title>ch3_estimators2&#45;&gt;estimators2</title>
<path fill="none" stroke="#666666" d="M500,-328.59C500,-300.84 500,-251.5 500,-251.5 500,-251.5 730,-251.5 730,-251.5 730,-251.5 730,-182.41 730,-182.41"/>
<polygon fill="#666666" stroke="#666666" points="732.8,-182.41 730,-174.41 727.2,-182.41 732.8,-182.41"/>
</g>
<!-- utils2 -->
<g id="node19" class="node">
<title>utils2</title>
<path fill="#f8f8f8" stroke="#555555" d="M636,-235C636,-235 606,-235 606,-235 600,-235 594,-229 594,-223 594,-223 594,-211 594,-211 594,-205 600,-199 606,-199 606,-199 636,-199 636,-199 642,-199 648,-205 648,-211 648,-211 648,-223 648,-223 648,-229 642,-235 636,-235"/>
<text text-anchor="middle" x="621" y="-214.2" font-family="Helvetica,sans-Serif" font-size="11.00">utils</text>
</g>
<!-- ch3_estimators2&#45;&gt;utils2 -->
<g id="edge15" class="edge">
<title>ch3_estimators2&#45;&gt;utils2</title>
<path fill="none" stroke="#666666" d="M505.05,-347C529.35,-347 553,-347 553,-347 553,-347 553,-225.67 553,-225.67 553,-225.67 585.73,-225.67 585.73,-225.67"/>
<polygon fill="#666666" stroke="#666666" points="585.73,-228.47 593.73,-225.67 585.73,-222.87 585.73,-228.47"/>
</g>
<!-- rf2 -->
<g id="node13" class="node">
<title>rf2</title>
<path fill="#f8f8f8" stroke="#555555" d="M636,-113C636,-113 606,-113 606,-113 600,-113 594,-107 594,-101 594,-101 594,-89 594,-89 594,-83 600,-77 606,-77 606,-77 636,-77 636,-77 642,-77 648,-83 648,-89 648,-89 648,-101 648,-101 648,-107 642,-113 636,-113"/>
<text text-anchor="middle" x="621" y="-92.2" font-family="Helvetica,sans-Serif" font-size="11.00">rf</text>
</g>
<!-- ch4_rf_point_positioning2&#45;&gt;rf2 -->
<g id="edge16" class="edge">
<title>ch4_rf_point_positioning2&#45;&gt;rf2</title>
<path fill="none" stroke="#666666" d="M453,-146C453,-128.32 453,-104 453,-104 453,-104 585.63,-104 585.63,-104"/>
<polygon fill="#666666" stroke="#666666" points="585.63,-106.8 593.63,-104 585.63,-101.2 585.63,-106.8"/>
</g>
<!-- fp2 -->
<g id="node14" class="node">
<title>fp2</title>
<path fill="#f8f8f8" stroke="#555555" d="M654,-174C654,-174 588,-174 588,-174 582,-174 576,-168 576,-162 576,-162 576,-150 576,-150 576,-144 582,-138 588,-138 588,-138 654,-138 654,-138 660,-138 666,-144 666,-150 666,-150 666,-162 666,-162 666,-168 660,-174 654,-174"/>
<text text-anchor="middle" x="621" y="-153.2" font-family="Helvetica,sans-Serif" font-size="11.00">fingerprinting</text>
</g>
<!-- ch5_fingerprinting2&#45;&gt;fp2 -->
<g id="edge17" class="edge">
<title>ch5_fingerprinting2&#45;&gt;fp2</title>
<path fill="none" stroke="#666666" d="M512.82,-216.33C547.75,-216.33 585,-216.33 585,-216.33 585,-216.33 585,-182.1 585,-182.1"/>
<polygon fill="#666666" stroke="#666666" points="587.8,-182.1 585,-174.1 582.2,-182.1 587.8,-182.1"/>
</g>
<!-- sensors_sim2 -->
<g id="node15" class="node">
<title>sensors_sim2</title>
<path fill="#f8f8f8" stroke="#555555" d="M796,-296C796,-296 725,-296 725,-296 719,-296 713,-290 713,-284 713,-284 713,-272 713,-272 713,-266 719,-260 725,-260 725,-260 796,-260 796,-260 802,-260 808,-266 808,-272 808,-272 808,-284 808,-284 808,-290 802,-296 796,-296"/>
<text text-anchor="middle" x="760.5" y="-275.2" font-family="Helvetica,sans-Serif" font-size="11.00">sensors + sim</text>
</g>
<!-- ch6_dead_reckoning2&#45;&gt;sensors_sim2 -->
<g id="edge18" class="edge">
<title>ch6_dead_reckoning2&#45;&gt;sensors_sim2</title>
<path fill="none" stroke="#666666" d="M518.7,-469C609.15,-469 761,-469 761,-469 761,-469 761,-304.31 761,-304.31"/>
<polygon fill="#666666" stroke="#666666" points="763.8,-304.31 761,-296.31 758.2,-304.31 763.8,-304.31"/>
</g>
<!-- ch7_slam2&#45;&gt;estimators2 -->
<g id="edge20" class="edge">
<title>ch7_slam2&#45;&gt;estimators2</title>
<path fill="none" stroke="#666666" d="M488.65,-402C552.1,-402 678,-402 678,-402 678,-402 678,-156 678,-156 678,-156 714.15,-156 714.15,-156"/>
<polygon fill="#666666" stroke="#666666" points="714.15,-158.8 722.15,-156 714.15,-153.2 714.15,-158.8"/>
</g>
<!-- slam2 -->
<g id="node16" class="node">
<title>slam2</title>
<path fill="#f8f8f8" stroke="#555555" d="M775.5,-235C775.5,-235 745.5,-235 745.5,-235 739.5,-235 733.5,-229 733.5,-223 733.5,-223 733.5,-211 733.5,-211 733.5,-205 739.5,-199 745.5,-199 745.5,-199 775.5,-199 775.5,-199 781.5,-199 787.5,-205 787.5,-211 787.5,-211 787.5,-223 787.5,-223 787.5,-229 781.5,-235 775.5,-235"/>
<text text-anchor="middle" x="760.5" y="-214.2" font-family="Helvetica,sans-Serif" font-size="11.00">slam</text>
</g>
<!-- ch7_slam2&#45;&gt;slam2 -->
<g id="edge19" class="edge">
<title>ch7_slam2&#45;&gt;slam2</title>
<path fill="none" stroke="#666666" d="M488.68,-414C557.53,-414 702,-414 702,-414 702,-414 702,-223 702,-223 702,-223 725.31,-223 725.31,-223"/>
<polygon fill="#666666" stroke="#666666" points="725.31,-225.8 733.31,-223 725.31,-220.2 725.31,-225.8"/>
</g>
<!-- ch8_sensor_fusion2&#45;&gt;estimators2 -->
<g id="edge22" class="edge">
<title>ch8_sensor_fusion2&#45;&gt;estimators2</title>
<path fill="none" stroke="#666666" d="M513.11,-524C583.33,-524 690,-524 690,-524 690,-524 690,-165 690,-165 690,-165 714.36,-165 714.36,-165"/>
<polygon fill="#666666" stroke="#666666" points="714.36,-167.8 722.36,-165 714.36,-162.2 714.36,-167.8"/>
</g>
<!-- fusion_eval2 -->
<g id="node17" class="node">
<title>fusion_eval2</title>
<path fill="#f8f8f8" stroke="#555555" d="M932,-296C932,-296 867,-296 867,-296 861,-296 855,-290 855,-284 855,-284 855,-272 855,-272 855,-266 861,-260 867,-260 867,-260 932,-260 932,-260 938,-260 944,-266 944,-272 944,-272 944,-284 944,-284 944,-290 938,-296 932,-296"/>
<text text-anchor="middle" x="899.5" y="-275.2" font-family="Helvetica,sans-Serif" font-size="11.00">fusion + eval</text>
</g>
<!-- ch8_sensor_fusion2&#45;&gt;fusion_eval2 -->
<g id="edge21" class="edge">
<title>ch8_sensor_fusion2&#45;&gt;fusion_eval2</title>
<path fill="none" stroke="#666666" d="M513.28,-536C635.3,-536 900,-536 900,-536 900,-536 900,-304.14 900,-304.14"/>
<polygon fill="#666666" stroke="#666666" points="902.8,-304.14 900,-296.14 897.2,-304.14 902.8,-304.14"/>
</g>
<!-- coords2&#45;&gt;sensors_sim2 -->
<g id="edge29" class="edge">
<title>coords2&#45;&gt;sensors_sim2</title>
<path fill="none" stroke="#666666" stroke-dasharray="5,2" d="M648.23,-278C648.23,-278 705,-278 705,-278"/>
<polygon fill="#666666" stroke="#666666" points="705,-280.8 713,-278 705,-275.2 705,-280.8"/>
</g>
<!-- rf2&#45;&gt;estimators2 -->
<g id="edge23" class="edge">
<title>rf2&#45;&gt;estimators2</title>
<path fill="none" stroke="#666666" stroke-dasharray="5,2" d="M648.15,-95C683.83,-95 742,-95 742,-95 742,-95 742,-129.7 742,-129.7"/>
<polygon fill="#666666" stroke="#666666" points="739.2,-129.7 742,-137.7 744.8,-129.7 739.2,-129.7"/>
</g>
<!-- fp2&#45;&gt;estimators2 -->
<g id="edge24" class="edge">
<title>fp2&#45;&gt;estimators2</title>
<path fill="none" stroke="#666666" stroke-dasharray="5,2" d="M666.29,-147C666.29,-147 714.44,-147 714.44,-147"/>
<polygon fill="#666666" stroke="#666666" points="714.44,-149.8 722.44,-147 714.44,-144.2 714.44,-149.8"/>
</g>
<!-- sensors_sim2&#45;&gt;fusion_eval2 -->
<g id="edge25" class="edge">
<title>sensors_sim2&#45;&gt;fusion_eval2</title>
<path fill="none" stroke="#666666" stroke-dasharray="5,2" d="M808.34,-278C808.34,-278 846.85,-278 846.85,-278"/>
<polygon fill="#666666" stroke="#666666" points="846.85,-280.8 854.85,-278 846.85,-275.2 846.85,-280.8"/>
</g>
<!-- slam2&#45;&gt;fusion_eval2 -->
<g id="edge26" class="edge">
<title>slam2&#45;&gt;fusion_eval2</title>
<path fill="none" stroke="#666666" stroke-dasharray="5,2" d="M787.73,-217C828.33,-217 900,-217 900,-217 900,-217 900,-251.7 900,-251.7"/>
<polygon fill="#666666" stroke="#666666" points="897.2,-251.7 900,-259.7 902.8,-251.7 897.2,-251.7"/>
</g>
<!-- models2 -->
<g id="node18" class="node">
<title>models2</title>
<path fill="#f8f8f8" stroke="#555555" d="M637,-52C637,-52 605,-52 605,-52 599,-52 593,-46 593,-40 593,-40 593,-28 593,-28 593,-22 599,-16 605,-16 605,-16 637,-16 637,-16 643,-16 649,-22 649,-28 649,-28 649,-40 649,-40 649,-46 643,-52 637,-52"/>
<text text-anchor="middle" x="621" y="-31.2" font-family="Helvetica,sans-Serif" font-size="11.00">models</text>
</g>
<!-- models2&#45;&gt;estimators2 -->
<g id="edge27" class="edge">
<title>models2&#45;&gt;estimators2</title>
<path fill="none" stroke="#666666" stroke-dasharray="5,2" d="M649.06,-34C694.71,-34 780,-34 780,-34 780,-34 780,-130 780,-130"/>
<polygon fill="#666666" stroke="#666666" points="777.2,-130 780,-138 782.8,-130 777.2,-130"/>
</g>
<!-- utils2&#45;&gt;estimators2 -->
<g id="edge28" class="edge">
<title>utils2&#45;&gt;estimators2</title>
<path fill="none" stroke="#666666" stroke-dasharray="5,2" d="M648.02,-211C679.43,-211 727,-211 727,-211 727,-211 727,-182.01 727,-182.01"/>
<polygon fill="#666666" stroke="#666666" points="729.8,-182.01 727,-174.01 724.2,-182.01 729.8,-182.01"/>
</g>
<!-- data2 -->
<g id="node20" class="node">
<title>data2</title>
<path fill="#f8f8f8" stroke="#555555" d="M60.5,-131C60.5,-131 30.5,-131 30.5,-131 24.5,-131 18.5,-125 18.5,-119 18.5,-119 18.5,-107 18.5,-107 18.5,-101 24.5,-95 30.5,-95 30.5,-95 60.5,-95 60.5,-95 66.5,-95 72.5,-101 72.5,-107 72.5,-107 72.5,-119 72.5,-119 72.5,-125 66.5,-131 60.5,-131"/>
<text text-anchor="middle" x="45.5" y="-110.2" font-family="Helvetica,sans-Serif" font-size="11.00">data/</text>
</g>
<!-- data2&#45;&gt;fp2 -->
<g id="edge31" class="edge">
<title>data2&#45;&gt;fp2</title>
<path fill="none" stroke="#666666" stroke-dasharray="1,5" d="M72.62,-125C182.03,-125 585,-125 585,-125 585,-125 585,-129.97 585,-129.97"/>
<polygon fill="#666666" stroke="#666666" points="582.2,-129.97 585,-137.97 587.8,-129.97 582.2,-129.97"/>
</g>
<!-- data2&#45;&gt;sensors_sim2 -->
<g id="edge30" class="edge">
<title>data2&#45;&gt;sensors_sim2</title>
<path fill="none" stroke="#666666" stroke-dasharray="1,5" d="M72.7,-119C198.51,-119 718,-119 718,-119 718,-119 718,-251.76 718,-251.76"/>
<polygon fill="#666666" stroke="#666666" points="715.2,-251.76 718,-259.76 720.8,-251.76 715.2,-251.76"/>
</g>
<!-- docs2 -->
<g id="node21" class="node">
<title>docs2</title>
<path fill="#f8f8f8" stroke="#555555" d="M60.5,-192C60.5,-192 30.5,-192 30.5,-192 24.5,-192 18.5,-186 18.5,-180 18.5,-180 18.5,-168 18.5,-168 18.5,-162 24.5,-156 30.5,-156 30.5,-156 60.5,-156 60.5,-156 66.5,-156 72.5,-162 72.5,-168 72.5,-168 72.5,-180 72.5,-180 72.5,-186 66.5,-192 60.5,-192"/>
<text text-anchor="middle" x="45.5" y="-171.2" font-family="Helvetica,sans-Serif" font-size="11.00">docs/</text>
</g>
<!-- docs2&#45;&gt;readme -->
<g id="edge32" class="edge">
<title>docs2&#45;&gt;readme</title>
<path fill="none" stroke="#666666" stroke-dasharray="1,5" d="M72.7,-187C97.4,-187 130,-187 130,-187 130,-187 130,-259.84 130,-259.84"/>
<polygon fill="#666666" stroke="#666666" points="127.2,-259.84 130,-267.84 132.8,-259.84 127.2,-259.84"/>
</g>
<!-- tests2 -->
<g id="node22" class="node">
<title>tests2</title>
<path fill="#f8f8f8" stroke="#555555" d="M179,-70C179,-70 149,-70 149,-70 143,-70 137,-64 137,-58 137,-58 137,-46 137,-46 137,-40 143,-34 149,-34 149,-34 179,-34 179,-34 185,-34 191,-40 191,-46 191,-46 191,-58 191,-58 191,-64 185,-70 179,-70"/>
<text text-anchor="middle" x="164" y="-49.2" font-family="Helvetica,sans-Serif" font-size="11.00">tests/</text>
</g>
<!-- tests2&#45;&gt;estimators2 -->
<g id="edge33" class="edge">
<title>tests2&#45;&gt;estimators2</title>
<path fill="none" stroke="#666666" stroke-dasharray="1,5" d="M191.2,-58C307.99,-58 761,-58 761,-58 761,-58 761,-129.57 761,-129.57"/>
<polygon fill="#666666" stroke="#666666" points="758.2,-129.57 761,-137.57 763.8,-129.57 758.2,-129.57"/>
</g>
<!-- tests2&#45;&gt;rf2 -->
<g id="edge34" class="edge">
<title>tests2&#45;&gt;rf2</title>
<path fill="none" stroke="#666666" stroke-dasharray="1,5" d="M191.22,-64C289.6,-64 621,-64 621,-64 621,-64 621,-68.97 621,-68.97"/>
<polygon fill="#666666" stroke="#666666" points="618.2,-68.97 621,-76.97 623.8,-68.97 618.2,-68.97"/>
</g>
<!-- ci2 -->
<g id="node23" class="node">
<title>ci2</title>
<path fill="#f8f8f8" stroke="#555555" d="M63,-70C63,-70 28,-70 28,-70 22,-70 16,-64 16,-58 16,-58 16,-46 16,-46 16,-40 22,-34 28,-34 28,-34 63,-34 63,-34 69,-34 75,-40 75,-46 75,-46 75,-58 75,-58 75,-64 69,-70 63,-70"/>
<text text-anchor="middle" x="45.5" y="-49.2" font-family="Helvetica,sans-Serif" font-size="11.00">.github/</text>
</g>
<!-- ci2&#45;&gt;tests2 -->
<g id="edge35" class="edge">
<title>ci2&#45;&gt;tests2</title>
<path fill="none" stroke="#666666" stroke-dasharray="1,5" d="M75.1,-52C75.1,-52 128.81,-52 128.81,-52"/>
<polygon fill="#666666" stroke="#666666" points="128.81,-54.8 136.81,-52 128.81,-49.2 128.81,-54.8"/>
</g>
</g>
</svg>
