<?xml version="1.0" encoding="UTF-8" standalone="no"?>
<!DOCTYPE svg PUBLIC "-//W3C//DTD SVG 1.1//EN"
 "http://www.w3.org/Graphics/SVG/1.1/DTD/svg11.dtd">
<!-- Generated by graphviz version 2.43.0 (0)
 -->
<!-- Title: ch6_components Pages: 1 -->
<svg width="727pt" height="760pt"
 viewBox="0.00 0.00 727.00 760.00" xmlns="http://www.w3.org/2000/svg" xmlns:xlink="http://www.w3.org/1999/xlink">
<g id="graph0" class="graph" transform="scale(1 1) rotate(0) translate(4 756)">
<title>ch6_components</title>
<polygon fill="white" stroke="transparent" points="-4,4 -4,-756 723,-756 723,4 -4,4"/>
<text text-anchor="middle" x="359.5" y="-733.6" font-family="Helvetica,sans-Serif" font-size="18.00">Chapter 6 (Dead Reckoning) — Component Overview (Clean)</text>
<g id="clust1" class="cluster">
<title>cluster_ch6</title>
<polygon fill="none" stroke="#bbbbbb" points="74,-312 74,-716 703.5,-716 703.5,-312 74,-312"/>
<text text-anchor="middle" x="388.75" y="-697.6" font-family="Helvetica,sans-Serif" font-size="18.00">ch6_dead_reckoning/</text>
</g>
<g id="clust2" class="cluster">
<title>cluster_core</title>
<polygon fill="none" stroke="#bbbbbb" points="558,-116 558,-304 711,-304 711,-116 558,-116"/>
<text text-anchor="middle" x="634.5" y="-285.6" font-family="Helvetica,sans-Serif" font-size="18.00">core/</text>
</g>
<g id="clust3" class="cluster">
<title>cluster_data</title>
<polygon fill="none" stroke="#bbbbbb" points="0,-8 0,-304 256,-304 256,-8 0,-8"/>
<text text-anchor="middle" x="128" y="-285.6" font-family="Helvetica,sans-Serif" font-size="18.00">data/sim/ (optional inputs)</text>
</g>
<!-- readme -->
<g id="node1" class="node">
<title>readme</title>
<path fill="none" stroke="black" d="M161,-518C161,-518 94,-518 94,-518 88,-518 82,-512 82,-506 82,-506 82,-494 82,-494 82,-488 88,-482 94,-482 94,-482 161,-482 161,-482 167,-482 173,-488 173,-494 173,-494 173,-506 173,-506 173,-512 167,-518 161,-518"/>
<text text-anchor="middle" x="127.5" y="-496.9" font-family="Helvetica,sans-Serif" font-size="12.00">README.md</text>
</g>
<!-- av -->
<g id="node2" class="node">
<title>av</title>
<path fill="none" stroke="black" d="M487,-680C487,-680 332,-680 332,-680 326,-680 320,-674 320,-668 320,-668 320,-656 320,-656 320,-650 326,-644 332,-644 332,-644 487,-644 487,-644 493,-644 499,-650 499,-656 499,-656 499,-668 499,-668 499,-674 493,-680 487,-680"/>
<text text-anchor="middle" x="409.5" y="-658.9" font-family="Helvetica,sans-Serif" font-size="12.00">example_allan_variance.py</text>
</g>
<!-- readme&#45;&gt;av -->
<g id="edge1" class="edge">
<title>readme&#45;&gt;av</title>
<path fill="none" stroke="black" stroke-dasharray="5,2" d="M148.37,-518.17C180.75,-546.89 247.95,-602.79 314,-635 317.84,-636.87 321.83,-638.64 325.91,-640.3"/>
<polygon fill="black" stroke="black" points="324.96,-643.68 335.55,-643.98 327.46,-637.14 324.96,-643.68"/>
</g>
<!-- env -->
<g id="node3" class="node">
<title>env</title>
<path fill="none" stroke="black" d="M481.5,-572C481.5,-572 337.5,-572 337.5,-572 331.5,-572 325.5,-566 325.5,-560 325.5,-560 325.5,-548 325.5,-548 325.5,-542 331.5,-536 337.5,-536 337.5,-536 481.5,-536 481.5,-536 487.5,-536 493.5,-542 493.5,-548 493.5,-548 493.5,-560 493.5,-560 493.5,-566 487.5,-572 481.5,-572"/>
<text text-anchor="middle" x="409.5" y="-550.9" font-family="Helvetica,sans-Serif" font-size="12.00">example_environment.py</text>
</g>
<!-- readme&#45;&gt;env -->
<g id="edge2" class="edge">
<title>readme&#45;&gt;env</title>
<path fill="none" stroke="black" stroke-dasharray="5,2" d="M173.18,-508.62C211.3,-515.97 267.39,-526.79 315.25,-536.02"/>
<polygon fill="black" stroke="black" points="314.84,-539.5 325.32,-537.96 316.17,-532.63 314.84,-539.5"/>
</g>
<!-- strap -->
<g id="node4" class="node">
<title>strap</title>
<path fill="none" stroke="black" d="M489.5,-518C489.5,-518 329.5,-518 329.5,-518 323.5,-518 317.5,-512 317.5,-506 317.5,-506 317.5,-494 317.5,-494 317.5,-488 323.5,-482 329.5,-482 329.5,-482 489.5,-482 489.5,-482 495.5,-482 501.5,-488 501.5,-494 501.5,-494 501.5,-506 501.5,-506 501.5,-512 495.5,-518 489.5,-518"/>
<text text-anchor="middle" x="409.5" y="-496.9" font-family="Helvetica,sans-Serif" font-size="12.00">example_imu_strapdown.py</text>
</g>
<!-- readme&#45;&gt;strap -->
<g id="edge3" class="edge">
<title>readme&#45;&gt;strap</title>
<path fill="none" stroke="black" stroke-dasharray="5,2" d="M173.18,-500C209.21,-500 261.29,-500 307.29,-500"/>
<polygon fill="black" stroke="black" points="307.31,-503.5 317.31,-500 307.31,-496.5 307.31,-503.5"/>
</g>
<!-- zupt -->
<g id="node5" class="node">
<title>zupt</title>
<path fill="none" stroke="black" d="M456.5,-356C456.5,-356 362.5,-356 362.5,-356 356.5,-356 350.5,-350 350.5,-344 350.5,-344 350.5,-332 350.5,-332 350.5,-326 356.5,-320 362.5,-320 362.5,-320 456.5,-320 456.5,-320 462.5,-320 468.5,-326 468.5,-332 468.5,-332 468.5,-344 468.5,-344 468.5,-350 462.5,-356 456.5,-356"/>
<text text-anchor="middle" x="409.5" y="-334.9" font-family="Helvetica,sans-Serif" font-size="12.00">example_zupt.py</text>
</g>
<!-- readme&#45;&gt;zupt -->
<g id="edge4" class="edge">
<title>readme&#45;&gt;zupt</title>
<path fill="none" stroke="black" stroke-dasharray="5,2" d="M148.37,-481.83C180.75,-453.11 247.95,-397.21 314,-365 322.42,-360.89 331.58,-357.3 340.77,-354.2"/>
<polygon fill="black" stroke="black" points="341.87,-357.53 350.33,-351.14 339.74,-350.86 341.87,-357.53"/>
</g>
<!-- wheel -->
<g id="node6" class="node">
<title>wheel</title>
<path fill="none" stroke="black" d="M493,-626C493,-626 326,-626 326,-626 320,-626 314,-620 314,-614 314,-614 314,-602 314,-602 314,-596 320,-590 326,-590 326,-590 493,-590 493,-590 499,-590 505,-596 505,-602 505,-602 505,-614 505,-614 505,-620 499,-626 493,-626"/>
<text text-anchor="middle" x="409.5" y="-604.9" font-family="Helvetica,sans-Serif" font-size="12.00">example_wheel_odometry.py</text>
</g>
<!-- readme&#45;&gt;wheel -->
<g id="edge5" class="edge">
<title>readme&#45;&gt;wheel</title>
<path fill="none" stroke="black" stroke-dasharray="5,2" d="M165.92,-518.1C202.96,-535.6 261.58,-562.16 314,-581 319.61,-583.01 325.44,-584.98 331.34,-586.88"/>
<polygon fill="black" stroke="black" points="330.7,-590.35 341.29,-590 332.79,-583.67 330.7,-590.35"/>
</g>
<!-- pdr -->
<g id="node7" class="node">
<title>pdr</title>
<path fill="none" stroke="black" d="M453,-410C453,-410 366,-410 366,-410 360,-410 354,-404 354,-398 354,-398 354,-386 354,-386 354,-380 360,-374 366,-374 366,-374 453,-374 453,-374 459,-374 465,-380 465,-386 465,-386 465,-398 465,-398 465,-404 459,-410 453,-410"/>
<text text-anchor="middle" x="409.5" y="-388.9" font-family="Helvetica,sans-Serif" font-size="12.00">example_pdr.py</text>
</g>
<!-- readme&#45;&gt;pdr -->
<g id="edge6" class="edge">
<title>readme&#45;&gt;pdr</title>
<path fill="none" stroke="black" stroke-dasharray="5,2" d="M165.92,-481.9C202.96,-464.4 261.58,-437.84 314,-419 323.61,-415.55 333.9,-412.23 344.02,-409.18"/>
<polygon fill="black" stroke="black" points="345.04,-412.53 353.64,-406.34 343.05,-405.81 345.04,-412.53"/>
</g>
<!-- cmp -->
<g id="node8" class="node">
<title>cmp</title>
<path fill="none" stroke="black" d="M479,-464C479,-464 340,-464 340,-464 334,-464 328,-458 328,-452 328,-452 328,-440 328,-440 328,-434 334,-428 340,-428 340,-428 479,-428 479,-428 485,-428 491,-434 491,-440 491,-440 491,-452 491,-452 491,-458 485,-464 479,-464"/>
<text text-anchor="middle" x="409.5" y="-442.9" font-family="Helvetica,sans-Serif" font-size="12.00">example_comparison.py</text>
</g>
<!-- readme&#45;&gt;cmp -->
<g id="edge7" class="edge">
<title>readme&#45;&gt;cmp</title>
<path fill="none" stroke="black" stroke-dasharray="5,2" d="M173.18,-491.38C212.03,-483.89 269.54,-472.8 317.99,-463.46"/>
<polygon fill="black" stroke="black" points="318.7,-466.88 327.86,-461.55 317.38,-460.01 318.7,-466.88"/>
</g>
<!-- figs -->
<g id="node9" class="node">
<title>figs</title>
<path fill="none" stroke="black" d="M683.5,-578C683.5,-578 585.5,-578 585.5,-578 579.5,-578 573.5,-572 573.5,-566 573.5,-566 573.5,-554 573.5,-554 573.5,-548 579.5,-542 585.5,-542 585.5,-542 683.5,-542 683.5,-542 689.5,-542 695.5,-548 695.5,-554 695.5,-554 695.5,-566 695.5,-566 695.5,-572 689.5,-578 683.5,-578"/>
<text text-anchor="middle" x="634.5" y="-556.9" font-family="Helvetica,sans-Serif" font-size="12.00">figs/ (saved plots)</text>
</g>
<!-- av&#45;&gt;figs -->
<g id="edge25" class="edge">
<title>av&#45;&gt;figs</title>
<path fill="none" stroke="black" d="M481.11,-643.94C489.27,-641.23 497.39,-638.25 505,-635 538.15,-620.85 573.35,-599.84 598.5,-583.66"/>
<polygon fill="black" stroke="black" points="600.49,-586.54 606.96,-578.15 596.67,-580.67 600.49,-586.54"/>
<text text-anchor="middle" x="535.5" y="-629" font-family="Helvetica,sans-Serif" font-size="10.00">write</text>
</g>
<!-- sensors -->
<g id="node10" class="node">
<title>sensors</title>
<path fill="none" stroke="black" d="M668.5,-268C668.5,-268 600.5,-268 600.5,-268 594.5,-268 588.5,-262 588.5,-256 588.5,-256 588.5,-244 588.5,-244 588.5,-238 594.5,-232 600.5,-232 600.5,-232 668.5,-232 668.5,-232 674.5,-232 680.5,-238 680.5,-244 680.5,-244 680.5,-256 680.5,-256 680.5,-262 674.5,-268 668.5,-268"/>
<text text-anchor="middle" x="634.5" y="-246.9" font-family="Helvetica,sans-Serif" font-size="12.00">core/sensors</text>
</g>
<!-- av&#45;&gt;sensors -->
<g id="edge8" class="edge">
<title>av&#45;&gt;sensors</title>
<path fill="none" stroke="black" d="M495.82,-643.74C499.19,-641.18 502.28,-638.28 505,-635 532.91,-601.32 505.56,-479.11 523,-439 529.65,-423.7 541.31,-426.28 548,-411 566.45,-368.87 535.7,-348.22 558,-308 565.55,-294.38 577.78,-282.92 590.21,-273.89"/>
<polygon fill="black" stroke="black" points="592.52,-276.55 598.8,-268.02 588.57,-270.77 592.52,-276.55"/>
</g>
<!-- env&#45;&gt;figs -->
<g id="edge26" class="edge">
<title>env&#45;&gt;figs</title>
<path fill="none" stroke="black" d="M493.59,-570.28C511.5,-572.27 530.35,-573.23 548,-572 553.01,-571.65 558.18,-571.19 563.37,-570.64"/>
<polygon fill="black" stroke="black" points="563.81,-574.12 573.35,-569.51 563.02,-567.16 563.81,-574.12"/>
<text text-anchor="middle" x="535.5" y="-575" font-family="Helvetica,sans-Serif" font-size="10.00">write</text>
</g>
<!-- env&#45;&gt;sensors -->
<g id="edge9" class="edge">
<title>env&#45;&gt;sensors</title>
<path fill="none" stroke="black" d="M493.6,-537.09C497.8,-534.22 501.66,-530.88 505,-527 545.37,-480.14 497.26,-445.24 523,-389 529.94,-373.83 540.63,-375.97 548,-361 558.59,-339.5 545.45,-328.42 558,-308 566.23,-294.61 578.76,-283.17 591.26,-274.08"/>
<polygon fill="black" stroke="black" points="593.6,-276.71 599.85,-268.16 589.63,-270.94 593.6,-276.71"/>
</g>
<!-- strap&#45;&gt;figs -->
<g id="edge27" class="edge">
<title>strap&#45;&gt;figs</title>
<path fill="none" stroke="black" d="M481.68,-518.08C489.66,-520.77 497.58,-523.74 505,-527 513.59,-530.77 514.27,-534.59 523,-538 535.75,-542.98 549.8,-546.89 563.47,-549.93"/>
<polygon fill="black" stroke="black" points="562.83,-553.37 573.34,-551.99 564.26,-546.52 562.83,-553.37"/>
<text text-anchor="middle" x="535.5" y="-548" font-family="Helvetica,sans-Serif" font-size="10.00">write</text>
</g>
<!-- strap&#45;&gt;sensors -->
<g id="edge10" class="edge">
<title>strap&#45;&gt;sensors</title>
<path fill="none" stroke="black" d="M495.13,-481.8C498.72,-479.23 502.05,-476.31 505,-473 537.67,-436.35 501.81,-408.29 523,-364 530.2,-348.95 539.48,-350.34 548,-336 554.75,-324.64 550.22,-318.68 558,-308 567.58,-294.85 580.95,-283.23 593.79,-273.92"/>
<polygon fill="black" stroke="black" points="595.89,-276.72 602.1,-268.14 591.89,-270.98 595.89,-276.72"/>
</g>
<!-- sim -->
<g id="node11" class="node">
<title>sim</title>
<path fill="none" stroke="black" d="M656.5,-214C656.5,-214 612.5,-214 612.5,-214 606.5,-214 600.5,-208 600.5,-202 600.5,-202 600.5,-190 600.5,-190 600.5,-184 606.5,-178 612.5,-178 612.5,-178 656.5,-178 656.5,-178 662.5,-178 668.5,-184 668.5,-190 668.5,-190 668.5,-202 668.5,-202 668.5,-208 662.5,-214 656.5,-214"/>
<text text-anchor="middle" x="634.5" y="-192.9" font-family="Helvetica,sans-Serif" font-size="12.00">core/sim</text>
</g>
<!-- strap&#45;&gt;sim -->
<g id="edge11" class="edge">
<title>strap&#45;&gt;sim</title>
<path fill="none" stroke="black" d="M495.25,-481.9C498.81,-479.31 502.1,-476.36 505,-473 544.31,-427.55 503.81,-395.94 523,-339 530.18,-317.69 540.77,-316.3 548,-295 558.39,-264.41 537.62,-248.07 558,-223 566.18,-212.94 578.39,-206.63 590.63,-202.67"/>
<polygon fill="black" stroke="black" points="591.67,-206.01 600.37,-199.97 589.8,-199.27 591.67,-206.01"/>
</g>
<!-- zupt&#45;&gt;figs -->
<g id="edge28" class="edge">
<title>zupt&#45;&gt;figs</title>
<path fill="none" stroke="black" d="M468.96,-347.74C481.64,-351.69 494.41,-357.23 505,-365 564.91,-408.98 604.91,-489.95 622.79,-532.4"/>
<polygon fill="black" stroke="black" points="619.63,-533.9 626.67,-541.82 626.1,-531.24 619.63,-533.9"/>
<text text-anchor="middle" x="535.5" y="-406" font-family="Helvetica,sans-Serif" font-size="10.00">write</text>
</g>
<!-- zupt&#45;&gt;sensors -->
<g id="edge12" class="edge">
<title>zupt&#45;&gt;sensors</title>
<path fill="none" stroke="black" d="M424.04,-319.77C443.05,-295.9 480.16,-255.17 523,-239 540.43,-232.42 560.44,-232.38 578.6,-234.87"/>
<polygon fill="black" stroke="black" points="578.04,-238.32 588.47,-236.49 579.17,-231.42 578.04,-238.32"/>
</g>
<!-- zupt&#45;&gt;sim -->
<g id="edge13" class="edge">
<title>zupt&#45;&gt;sim</title>
<path fill="none" stroke="black" d="M417.63,-319.92C431.86,-286.68 467.29,-216.74 523,-189 543.55,-178.76 568.99,-179.6 590.27,-183.41"/>
<polygon fill="black" stroke="black" points="589.84,-186.9 600.34,-185.49 591.25,-180.04 589.84,-186.9"/>
</g>
<!-- ins -->
<g id="node12" class="node">
<title>ins</title>
<path fill="none" stroke="black" d="M691,-160C691,-160 578,-160 578,-160 572,-160 566,-154 566,-148 566,-148 566,-136 566,-136 566,-130 572,-124 578,-124 578,-124 691,-124 691,-124 697,-124 703,-130 703,-136 703,-136 703,-148 703,-148 703,-154 697,-160 691,-160"/>
<text text-anchor="middle" x="634.5" y="-138.9" font-family="Helvetica,sans-Serif" font-size="12.00">core/sensors/ins_ekf</text>
</g>
<!-- zupt&#45;&gt;ins -->
<g id="edge14" class="edge">
<title>zupt&#45;&gt;ins</title>
<path fill="none" stroke="black" d="M418.49,-319.75C433.89,-286.64 470.84,-216.55 523,-178 532.99,-170.62 544.56,-164.71 556.38,-159.98"/>
<polygon fill="black" stroke="black" points="557.73,-163.21 565.88,-156.44 555.29,-156.65 557.73,-163.21"/>
</g>
<!-- wheel&#45;&gt;figs -->
<g id="edge29" class="edge">
<title>wheel&#45;&gt;figs</title>
<path fill="none" stroke="black" d="M505.17,-595.51C519.59,-593.04 534.24,-590.2 548,-587 555.46,-585.26 563.22,-583.2 570.87,-580.99"/>
<polygon fill="black" stroke="black" points="571.9,-584.34 580.49,-578.14 569.91,-577.63 571.9,-584.34"/>
<text text-anchor="middle" x="535.5" y="-594" font-family="Helvetica,sans-Serif" font-size="10.00">write</text>
</g>
<!-- wheel&#45;&gt;sensors -->
<g id="edge15" class="edge">
<title>wheel&#45;&gt;sensors</title>
<path fill="none" stroke="black" d="M495.35,-590C498.89,-587.38 502.14,-584.39 505,-581 529.04,-552.45 507.84,-448.11 523,-414 529.77,-398.75 541.07,-401.18 548,-386 562.51,-354.2 540.58,-338.3 558,-308 565.76,-294.49 578.04,-283.07 590.46,-274.03"/>
<polygon fill="black" stroke="black" points="592.76,-276.69 599.03,-268.15 588.8,-270.92 592.76,-276.69"/>
</g>
<!-- pdr&#45;&gt;figs -->
<g id="edge30" class="edge">
<title>pdr&#45;&gt;figs</title>
<path fill="none" stroke="black" d="M465.05,-398.33C479.48,-402.31 494.06,-408.71 505,-419 522.51,-435.47 509.17,-450.34 523,-470 524.49,-472.11 570.98,-509.7 603.18,-535.63"/>
<polygon fill="black" stroke="black" points="601.03,-538.4 611.02,-541.94 605.42,-532.94 601.03,-538.4"/>
<text text-anchor="middle" x="535.5" y="-493" font-family="Helvetica,sans-Serif" font-size="10.00">write</text>
</g>
<!-- pdr&#45;&gt;sensors -->
<g id="edge16" class="edge">
<title>pdr&#45;&gt;sensors</title>
<path fill="none" stroke="black" d="M465.34,-386.6C479.95,-382.65 494.56,-376.03 505,-365 529.76,-338.85 498.72,-312.59 523,-286 537.26,-270.38 558.36,-261.52 578.31,-256.5"/>
<polygon fill="black" stroke="black" points="579.29,-259.87 588.29,-254.27 577.76,-253.03 579.29,-259.87"/>
</g>
<!-- pdr&#45;&gt;sim -->
<g id="edge17" class="edge">
<title>pdr&#45;&gt;sim</title>
<path fill="none" stroke="black" d="M465.2,-387.05C479.99,-383.13 494.72,-376.41 505,-365 535.82,-330.81 503.11,-304.52 523,-263 533.21,-241.7 538.47,-236.29 558,-223 567.79,-216.34 579.41,-211.12 590.57,-207.12"/>
<polygon fill="black" stroke="black" points="591.81,-210.4 600.19,-203.92 589.6,-203.76 591.81,-210.4"/>
</g>
<!-- cmp&#45;&gt;figs -->
<g id="edge31" class="edge">
<title>cmp&#45;&gt;figs</title>
<path fill="none" stroke="black" d="M491.04,-464.14C495.98,-466.71 500.69,-469.65 505,-473 517.57,-482.79 511.42,-493.06 523,-504 537.65,-517.83 556.37,-529.04 574.22,-537.69"/>
<polygon fill="black" stroke="black" points="572.91,-540.94 583.45,-541.98 575.86,-534.59 572.91,-540.94"/>
<text text-anchor="middle" x="535.5" y="-525" font-family="Helvetica,sans-Serif" font-size="10.00">write</text>
</g>
<!-- cmp&#45;&gt;sensors -->
<g id="edge18" class="edge">
<title>cmp&#45;&gt;sensors</title>
<path fill="none" stroke="black" d="M491.05,-430.12C496.18,-427.03 500.92,-423.36 505,-419 530.81,-391.46 503.12,-368.08 523,-336 539.29,-309.71 566.69,-288.31 590.13,-273.43"/>
<polygon fill="black" stroke="black" points="592.19,-276.27 598.88,-268.05 588.53,-270.3 592.19,-276.27"/>
</g>
<!-- cmp&#45;&gt;sim -->
<g id="edge19" class="edge">
<title>cmp&#45;&gt;sim</title>
<path fill="none" stroke="black" d="M491.35,-430.39C496.41,-427.24 501.05,-423.48 505,-419 539.79,-379.54 505.22,-351.52 523,-302 530.34,-281.56 539.53,-280 548,-260 554.64,-244.31 546.44,-235.51 558,-223 566.56,-213.73 578.52,-207.64 590.4,-203.64"/>
<polygon fill="black" stroke="black" points="591.67,-206.92 600.29,-200.75 589.71,-200.2 591.67,-206.92"/>
</g>
<!-- d_env -->
<g id="node13" class="node">
<title>d_env</title>
<path fill="none" stroke="black" d="M227,-214C227,-214 28,-214 28,-214 22,-214 16,-208 16,-202 16,-202 16,-190 16,-190 16,-184 22,-178 28,-178 28,-178 227,-178 227,-178 233,-178 239,-184 239,-190 239,-190 239,-202 239,-202 239,-208 233,-214 227,-214"/>
<text text-anchor="middle" x="127.5" y="-192.9" font-family="Helvetica,sans-Serif" font-size="12.00">ch6_env_sensors_heading_altitude</text>
</g>
<!-- d_env&#45;&gt;env -->
<g id="edge20" class="edge">
<title>d_env&#45;&gt;env</title>
<path fill="none" stroke="black" stroke-dasharray="5,2" d="M239.04,-208.09C262.56,-216.5 283.92,-230.12 296,-252 325.6,-305.61 275.54,-479.34 314,-527 315,-528.24 316.06,-529.43 317.17,-530.57"/>
<polygon fill="black" stroke="black" points="315.22,-533.51 325.1,-537.34 319.77,-528.19 315.22,-533.51"/>
<text text-anchor="middle" x="281" y="-255" font-family="Helvetica,sans-Serif" font-size="10.00">&#45;&#45;data</text>
</g>
<!-- d_zupt -->
<g id="node14" class="node">
<title>d_zupt</title>
<path fill="none" stroke="black" d="M182,-52C182,-52 73,-52 73,-52 67,-52 61,-46 61,-40 61,-40 61,-28 61,-28 61,-22 67,-16 73,-16 73,-16 182,-16 182,-16 188,-16 194,-22 194,-28 194,-28 194,-40 194,-40 194,-46 188,-52 182,-52"/>
<text text-anchor="middle" x="127.5" y="-30.9" font-family="Helvetica,sans-Serif" font-size="12.00">ch6_foot_zupt_walk</text>
</g>
<!-- d_zupt&#45;&gt;zupt -->
<g id="edge22" class="edge">
<title>d_zupt&#45;&gt;zupt</title>
<path fill="none" stroke="black" stroke-dasharray="5,2" d="M194.28,-31.85C227.98,-34.03 267.75,-42.09 296,-65 373.8,-128.1 398.37,-253.93 405.65,-309.96"/>
<polygon fill="black" stroke="black" points="402.18,-310.38 406.85,-319.89 409.13,-309.54 402.18,-310.38"/>
<text text-anchor="middle" x="281" y="-68" font-family="Helvetica,sans-Serif" font-size="10.00">&#45;&#45;data</text>
</g>
<!-- d_pdr -->
<g id="node15" class="node">
<title>d_pdr</title>
<path fill="none" stroke="black" d="M191,-106C191,-106 64,-106 64,-106 58,-106 52,-100 52,-94 52,-94 52,-82 52,-82 52,-76 58,-70 64,-70 64,-70 191,-70 191,-70 197,-70 203,-76 203,-82 203,-82 203,-94 203,-94 203,-100 197,-106 191,-106"/>
<text text-anchor="middle" x="127.5" y="-84.9" font-family="Helvetica,sans-Serif" font-size="12.00">ch6_pdr_corridor_walk</text>
</g>
<!-- d_pdr&#45;&gt;pdr -->
<g id="edge24" class="edge">
<title>d_pdr&#45;&gt;pdr</title>
<path fill="none" stroke="black" stroke-dasharray="5,2" d="M203.34,-85.05C236.64,-87.95 273.36,-97.77 296,-124 331.09,-164.66 280.08,-323.36 314,-365 321.66,-374.41 332.35,-380.67 343.81,-384.81"/>
<polygon fill="black" stroke="black" points="342.97,-388.21 353.55,-387.81 345.03,-381.52 342.97,-388.21"/>
<text text-anchor="middle" x="281" y="-127" font-family="Helvetica,sans-Serif" font-size="10.00">&#45;&#45;data</text>
</g>
<!-- d_strap -->
<g id="node16" class="node">
<title>d_strap</title>
<path fill="none" stroke="black" d="M187.5,-160C187.5,-160 67.5,-160 67.5,-160 61.5,-160 55.5,-154 55.5,-148 55.5,-148 55.5,-136 55.5,-136 55.5,-130 61.5,-124 67.5,-124 67.5,-124 187.5,-124 187.5,-124 193.5,-124 199.5,-130 199.5,-136 199.5,-136 199.5,-148 199.5,-148 199.5,-154 193.5,-160 187.5,-160"/>
<text text-anchor="middle" x="127.5" y="-138.9" font-family="Helvetica,sans-Serif" font-size="12.00">ch6_strapdown_basic</text>
</g>
<!-- d_strap&#45;&gt;strap -->
<g id="edge21" class="edge">
<title>d_strap&#45;&gt;strap</title>
<path fill="none" stroke="black" stroke-dasharray="5,2" d="M199.51,-147.4C237.14,-154.61 279.02,-170.86 296,-207 321.2,-260.62 276.74,-426.93 314,-473 314.5,-473.62 315.02,-474.23 315.55,-474.82"/>
<polygon fill="black" stroke="black" points="313.37,-477.58 323.08,-481.82 318.14,-472.45 313.37,-477.58"/>
<text text-anchor="middle" x="281" y="-210" font-family="Helvetica,sans-Serif" font-size="10.00">&#45;&#45;data</text>
</g>
<!-- d_wheel -->
<g id="node17" class="node">
<title>d_wheel</title>
<path fill="none" stroke="black" d="M199,-268C199,-268 56,-268 56,-268 50,-268 44,-262 44,-256 44,-256 44,-244 44,-244 44,-238 50,-232 56,-232 56,-232 199,-232 199,-232 205,-232 211,-238 211,-244 211,-244 211,-256 211,-256 211,-262 205,-268 199,-268"/>
<text text-anchor="middle" x="127.5" y="-246.9" font-family="Helvetica,sans-Serif" font-size="12.00">ch6_wheel_odom_square</text>
</g>
<!-- d_wheel&#45;&gt;wheel -->
<g id="edge23" class="edge">
<title>d_wheel&#45;&gt;wheel</title>
<path fill="none" stroke="black" stroke-dasharray="5,2" d="M197.86,-268.04C219.35,-276.83 241.23,-289.61 256,-308 294.83,-356.36 271.68,-535.66 314,-581 314.79,-581.84 315.6,-582.66 316.43,-583.45"/>
<polygon fill="black" stroke="black" points="314.49,-586.38 324.48,-589.92 318.88,-580.93 314.49,-586.38"/>
<text text-anchor="middle" x="281" y="-542" font-family="Helvetica,sans-Serif" font-size="10.00">&#45;&#45;data</text>
</g>
</g>
</svg>
