<?xml version="1.0" encoding="UTF-8" standalone="no"?>
<!DOCTYPE svg PUBLIC "-//W3C//DTD SVG 1.1//EN"
 "http://www.w3.org/Graphics/SVG/1.1/DTD/svg11.dtd">
<!-- Generated by graphviz version 2.43.0 (0)
 -->
<!-- Title: ch4_flow Pages: 1 -->
<svg width="1920pt" height="868pt"
 viewBox="0.00 0.00 1920.00 868.00" xmlns="http://www.w3.org/2000/svg" xmlns:xlink="http://www.w3.org/1999/xlink">
<g id="graph0" class="graph" transform="scale(1 1) rotate(0) translate(4 864)">
<title>ch4_flow</title>
<polygon fill="white" stroke="transparent" points="-4,4 -4,-864 1916,-864 1916,4 -4,4"/>
<text text-anchor="middle" x="956" y="-841.6" font-family="Helvetica,sans-Serif" font-size="18.00">Chapter 4 (RF Point Positioning) — Clean Execution Map</text>
<g id="clust1" class="cluster">
<title>cluster_entry</title>
<polygon fill="none" stroke="#bbbbbb" points="701,-598 701,-824 1073,-824 1073,-598 701,-598"/>
<text text-anchor="middle" x="887" y="-805.6" font-family="Helvetica,sans-Serif" font-size="18.00">Entry</text>
</g>
<g id="clust2" class="cluster">
<title>cluster_toa</title>
<polygon fill="none" stroke="#bbbbbb" points="328,-93 328,-579 720,-579 720,-93 328,-93"/>
<text text-anchor="middle" x="524" y="-560.6" font-family="Helvetica,sans-Serif" font-size="18.00">example_toa_positioning.py</text>
</g>
<g id="clust3" class="cluster">
<title>cluster_tdoa</title>
<polygon fill="none" stroke="#bbbbbb" points="8,-93 8,-579 320,-579 320,-93 8,-93"/>
<text text-anchor="middle" x="164" y="-560.6" font-family="Helvetica,sans-Serif" font-size="18.00">example_tdoa_positioning.py</text>
</g>
<g id="clust4" class="cluster">
<title>cluster_aoa</title>
<polygon fill="none" stroke="#bbbbbb" points="1058,-93 1058,-579 1438,-579 1438,-93 1058,-93"/>
<text text-anchor="middle" x="1248" y="-560.6" font-family="Helvetica,sans-Serif" font-size="18.00">example_aoa_positioning.py</text>
</g>
<g id="clust5" class="cluster">
<title>cluster_cmp</title>
<polygon fill="none" stroke="#bbbbbb" points="1446,-8 1446,-579 1904,-579 1904,-8 1446,-8"/>
<text text-anchor="middle" x="1675" y="-560.6" font-family="Helvetica,sans-Serif" font-size="18.00">example_comparison.py</text>
</g>
<g id="clust6" class="cluster">
<title>cluster_shared</title>
<polygon fill="none" stroke="#bbbbbb" points="728,-81 728,-185 1050,-185 1050,-81 728,-81"/>
<text text-anchor="middle" x="889" y="-166.6" font-family="Helvetica,sans-Serif" font-size="18.00">Shared reusable modules</text>
</g>
<!-- run -->
<g id="node1" class="node">
<title>run</title>
<path fill="none" stroke="black" d="M1030.5,-788C1030.5,-788 743.5,-788 743.5,-788 737.5,-788 731.5,-782 731.5,-776 731.5,-776 731.5,-764 731.5,-764 731.5,-758 737.5,-752 743.5,-752 743.5,-752 1030.5,-752 1030.5,-752 1036.5,-752 1042.5,-758 1042.5,-764 1042.5,-764 1042.5,-776 1042.5,-776 1042.5,-782 1036.5,-788 1030.5,-788"/>
<text text-anchor="middle" x="887" y="-773.4" font-family="Helvetica,sans-Serif" font-size="12.00">Run one example:</text>
<text text-anchor="middle" x="887" y="-760.4" font-family="Helvetica,sans-Serif" font-size="12.00">python ch4_rf_point_positioning/&lt;example_*.py&gt;</text>
</g>
<!-- args -->
<g id="node2" class="node">
<title>args</title>
<path fill="none" stroke="black" d="M1053,-715C1053,-715 721,-715 721,-715 715,-715 709,-709 709,-703 709,-703 709,-691 709,-691 709,-685 715,-679 721,-679 721,-679 1053,-679 1053,-679 1059,-679 1065,-685 1065,-691 1065,-691 1065,-703 1065,-703 1065,-709 1059,-715 1053,-715"/>
<text text-anchor="middle" x="887" y="-700.4" font-family="Helvetica,sans-Serif" font-size="12.00">argparse / config</text>
<text text-anchor="middle" x="887" y="-687.4" font-family="Helvetica,sans-Serif" font-size="12.00">(only comparison supports &#45;&#45;data / &#45;&#45;compare&#45;geometry)</text>
</g>
<!-- run&#45;&gt;args -->
<g id="edge1" class="edge">
<title>run&#45;&gt;args</title>
<path fill="none" stroke="black" d="M887,-751.81C887,-743.79 887,-734.05 887,-725.07"/>
<polygon fill="black" stroke="black" points="890.5,-725.03 887,-715.03 883.5,-725.03 890.5,-725.03"/>
</g>
<!-- pick -->
<g id="node3" class="node">
<title>pick</title>
<path fill="none" stroke="black" d="M875.27,-639.48C875.27,-639.48 815.08,-626.52 815.08,-626.52 809.22,-625.26 809.22,-622.74 815.08,-621.48 815.08,-621.48 875.27,-608.52 875.27,-608.52 881.13,-607.26 892.87,-607.26 898.73,-608.52 898.73,-608.52 958.92,-621.48 958.92,-621.48 964.78,-622.74 964.78,-625.26 958.92,-626.52 958.92,-626.52 898.73,-639.48 898.73,-639.48 892.87,-640.74 881.13,-640.74 875.27,-639.48"/>
<text text-anchor="middle" x="887" y="-620.9" font-family="Helvetica,sans-Serif" font-size="12.00">Which script?</text>
</g>
<!-- args&#45;&gt;pick -->
<g id="edge2" class="edge">
<title>args&#45;&gt;pick</title>
<path fill="none" stroke="black" d="M887,-678.81C887,-670.79 887,-661.05 887,-652.07"/>
<polygon fill="black" stroke="black" points="890.5,-652.03 887,-642.03 883.5,-652.03 890.5,-652.03"/>
</g>
<!-- t1 -->
<g id="node4" class="node">
<title>t1</title>
<path fill="none" stroke="black" d="M699.5,-543C699.5,-543 472.5,-543 472.5,-543 466.5,-543 460.5,-537 460.5,-531 460.5,-531 460.5,-519 460.5,-519 460.5,-513 466.5,-507 472.5,-507 472.5,-507 699.5,-507 699.5,-507 705.5,-507 711.5,-513 711.5,-519 711.5,-519 711.5,-531 711.5,-531 711.5,-537 705.5,-543 699.5,-543"/>
<text text-anchor="middle" x="586" y="-521.9" font-family="Helvetica,sans-Serif" font-size="12.00">Setup anchor geometry + true position</text>
</g>
<!-- pick&#45;&gt;t1 -->
<g id="edge23" class="edge">
<title>pick&#45;&gt;t1</title>
<path fill="none" stroke="black" d="M855.36,-612.8C806.5,-597.06 711.76,-566.53 648.68,-546.2"/>
<polygon fill="black" stroke="black" points="649.43,-542.77 638.84,-543.03 647.29,-549.43 649.43,-542.77"/>
</g>
<!-- d1 -->
<g id="node9" class="node">
<title>d1</title>
<path fill="none" stroke="black" d="M286.5,-543C286.5,-543 113.5,-543 113.5,-543 107.5,-543 101.5,-537 101.5,-531 101.5,-531 101.5,-519 101.5,-519 101.5,-513 107.5,-507 113.5,-507 113.5,-507 286.5,-507 286.5,-507 292.5,-507 298.5,-513 298.5,-519 298.5,-519 298.5,-531 298.5,-531 298.5,-537 292.5,-543 286.5,-543"/>
<text text-anchor="middle" x="200" y="-521.9" font-family="Helvetica,sans-Serif" font-size="12.00">Setup beacons + true position</text>
</g>
<!-- pick&#45;&gt;d1 -->
<g id="edge24" class="edge">
<title>pick&#45;&gt;d1</title>
<path fill="none" stroke="black" d="M819.68,-620.48C691.34,-615.23 416.23,-601.66 324,-579 295.2,-571.92 264.54,-558.87 240.91,-547.49"/>
<polygon fill="black" stroke="black" points="242.41,-544.33 231.89,-543.07 239.33,-550.61 242.41,-544.33"/>
</g>
<!-- a1 -->
<g id="node14" class="node">
<title>a1</title>
<path fill="none" stroke="black" d="M1299.5,-543C1299.5,-543 1078.5,-543 1078.5,-543 1072.5,-543 1066.5,-537 1066.5,-531 1066.5,-531 1066.5,-519 1066.5,-519 1066.5,-513 1072.5,-507 1078.5,-507 1078.5,-507 1299.5,-507 1299.5,-507 1305.5,-507 1311.5,-513 1311.5,-519 1311.5,-519 1311.5,-531 1311.5,-531 1311.5,-537 1305.5,-543 1299.5,-543"/>
<text text-anchor="middle" x="1189" y="-521.9" font-family="Helvetica,sans-Serif" font-size="12.00">Setup anchors + true position (2D/3D)</text>
</g>
<!-- pick&#45;&gt;a1 -->
<g id="edge25" class="edge">
<title>pick&#45;&gt;a1</title>
<path fill="none" stroke="black" d="M918.75,-612.8C967.77,-597.06 1062.82,-566.53 1126.11,-546.2"/>
<polygon fill="black" stroke="black" points="1127.53,-549.42 1135.98,-543.03 1125.39,-542.76 1127.53,-549.42"/>
</g>
<!-- c0 -->
<g id="node19" class="node">
<title>c0</title>
<path fill="none" stroke="black" d="M1574.11,-541.38C1574.11,-541.38 1465.74,-526.62 1465.74,-526.62 1459.79,-525.81 1459.79,-524.19 1465.74,-523.38 1465.74,-523.38 1574.11,-508.62 1574.11,-508.62 1580.05,-507.81 1591.95,-507.81 1597.89,-508.62 1597.89,-508.62 1706.26,-523.38 1706.26,-523.38 1712.21,-524.19 1712.21,-525.81 1706.26,-526.62 1706.26,-526.62 1597.89,-541.38 1597.89,-541.38 1591.95,-542.19 1580.05,-542.19 1574.11,-541.38"/>
<text text-anchor="middle" x="1586" y="-521.9" font-family="Helvetica,sans-Serif" font-size="12.00">&#45;&#45;compare&#45;geometry ?</text>
</g>
<!-- pick&#45;&gt;c0 -->
<g id="edge26" class="edge">
<title>pick&#45;&gt;c0</title>
<path fill="none" stroke="black" d="M968.44,-623.46C1077.53,-622.51 1276.54,-615.29 1442,-579 1479.17,-570.85 1519.7,-555.29 1548.26,-543.13"/>
<polygon fill="black" stroke="black" points="1549.67,-546.33 1557.46,-539.15 1546.9,-539.91 1549.67,-546.33"/>
</g>
<!-- t2 -->
<g id="node5" class="node">
<title>t2</title>
<path fill="none" stroke="black" d="M659,-460C659,-460 513,-460 513,-460 507,-460 501,-454 501,-448 501,-448 501,-412 501,-412 501,-406 507,-400 513,-400 513,-400 659,-400 659,-400 665,-400 671,-406 671,-412 671,-412 671,-448 671,-448 671,-454 665,-460 659,-460"/>
<text text-anchor="middle" x="586" y="-446.4" font-family="Helvetica,sans-Serif" font-size="12.00">Generate measurements:</text>
<text text-anchor="middle" x="586" y="-433.4" font-family="Helvetica,sans-Serif" font-size="12.00">TOA ranges (± noise)</text>
<text text-anchor="middle" x="586" y="-420.4" font-family="Helvetica,sans-Serif" font-size="12.00">+ optional clock bias</text>
<text text-anchor="middle" x="586" y="-407.4" font-family="Helvetica,sans-Serif" font-size="12.00">+ optional RSS or RTT</text>
</g>
<!-- t1&#45;&gt;t2 -->
<g id="edge3" class="edge">
<title>t1&#45;&gt;t2</title>
<path fill="none" stroke="black" d="M586,-506.94C586,-496.6 586,-482.95 586,-470.08"/>
<polygon fill="black" stroke="black" points="589.5,-470.01 586,-460.01 582.5,-470.01 589.5,-470.01"/>
</g>
<!-- t3 -->
<g id="node6" class="node">
<title>t3</title>
<path fill="none" stroke="black" d="M676.5,-353C676.5,-353 495.5,-353 495.5,-353 489.5,-353 483.5,-347 483.5,-341 483.5,-341 483.5,-318 483.5,-318 483.5,-312 489.5,-306 495.5,-306 495.5,-306 676.5,-306 676.5,-306 682.5,-306 688.5,-312 688.5,-318 688.5,-318 688.5,-341 688.5,-341 688.5,-347 682.5,-353 676.5,-353"/>
<text text-anchor="middle" x="586" y="-339.4" font-family="Helvetica,sans-Serif" font-size="12.00">Solve:</text>
<text text-anchor="middle" x="586" y="-326.4" font-family="Helvetica,sans-Serif" font-size="12.00">TOAPositioner (iterative LS)</text>
<text text-anchor="middle" x="586" y="-313.4" font-family="Helvetica,sans-Serif" font-size="12.00">+ optional joint clock&#45;bias solve</text>
</g>
<!-- t2&#45;&gt;t3 -->
<g id="edge4" class="edge">
<title>t2&#45;&gt;t3</title>
<path fill="none" stroke="black" d="M586,-399.98C586,-388.39 586,-375 586,-363.08"/>
<polygon fill="black" stroke="black" points="589.5,-363.07 586,-353.07 582.5,-363.07 589.5,-363.07"/>
</g>
<!-- t4 -->
<g id="node7" class="node">
<title>t4</title>
<path fill="none" stroke="black" d="M663.5,-263.5C663.5,-263.5 462.5,-263.5 462.5,-263.5 456.5,-263.5 450.5,-257.5 450.5,-251.5 450.5,-251.5 450.5,-239.5 450.5,-239.5 450.5,-233.5 456.5,-227.5 462.5,-227.5 462.5,-227.5 663.5,-227.5 663.5,-227.5 669.5,-227.5 675.5,-233.5 675.5,-239.5 675.5,-239.5 675.5,-251.5 675.5,-251.5 675.5,-257.5 669.5,-263.5 663.5,-263.5"/>
<text text-anchor="middle" x="563" y="-242.4" font-family="Helvetica,sans-Serif" font-size="12.00">Compute error + convergence info</text>
</g>
<!-- t3&#45;&gt;t4 -->
<g id="edge5" class="edge">
<title>t3&#45;&gt;t4</title>
<path fill="none" stroke="black" d="M579.59,-305.66C576.8,-295.71 573.51,-283.97 570.6,-273.58"/>
<polygon fill="black" stroke="black" points="573.91,-272.44 567.84,-263.76 567.17,-274.33 573.91,-272.44"/>
</g>
<!-- rf -->
<g id="node27" class="node">
<title>rf</title>
<path fill="none" stroke="black" d="M1029.5,-149C1029.5,-149 748.5,-149 748.5,-149 742.5,-149 736.5,-143 736.5,-137 736.5,-137 736.5,-101 736.5,-101 736.5,-95 742.5,-89 748.5,-89 748.5,-89 1029.5,-89 1029.5,-89 1035.5,-89 1041.5,-95 1041.5,-101 1041.5,-101 1041.5,-137 1041.5,-137 1041.5,-143 1035.5,-149 1029.5,-149"/>
<text text-anchor="middle" x="889" y="-135.4" font-family="Helvetica,sans-Serif" font-size="12.00">core.rf</text>
<text text-anchor="middle" x="889" y="-122.4" font-family="Helvetica,sans-Serif" font-size="12.00">measurement models (TOA/TDOA/AOA/RSS/RTT)</text>
<text text-anchor="middle" x="889" y="-109.4" font-family="Helvetica,sans-Serif" font-size="12.00">positioning solvers</text>
<text text-anchor="middle" x="889" y="-96.4" font-family="Helvetica,sans-Serif" font-size="12.00">DOP helpers</text>
</g>
<!-- t3&#45;&gt;rf -->
<g id="edge27" class="edge">
<title>t3&#45;&gt;rf</title>
<path fill="none" stroke="black" stroke-dasharray="5,2" d="M625.53,-305.84C643.86,-295.06 665.79,-281.75 685,-269 740.72,-232.01 802.45,-186.22 843.25,-155.24"/>
<polygon fill="black" stroke="black" points="845.54,-157.89 851.37,-149.05 841.3,-152.32 845.54,-157.89"/>
<text text-anchor="middle" x="762.5" y="-243" font-family="Helvetica,sans-Serif" font-size="10.00">calls</text>
</g>
<!-- t5 -->
<g id="node8" class="node">
<title>t5</title>
<path fill="none" stroke="black" d="M699.5,-137C699.5,-137 348.5,-137 348.5,-137 342.5,-137 336.5,-131 336.5,-125 336.5,-125 336.5,-113 336.5,-113 336.5,-107 342.5,-101 348.5,-101 348.5,-101 699.5,-101 699.5,-101 705.5,-101 711.5,-107 711.5,-113 711.5,-113 711.5,-125 711.5,-125 711.5,-131 705.5,-137 699.5,-137"/>
<text text-anchor="middle" x="524" y="-122.4" font-family="Helvetica,sans-Serif" font-size="12.00">Plot geometry + convergence path</text>
<text text-anchor="middle" x="524" y="-109.4" font-family="Helvetica,sans-Serif" font-size="12.00">Save: ch4_rf_point_positioning/toa_positioning_example.png</text>
</g>
<!-- t4&#45;&gt;t5 -->
<g id="edge6" class="edge">
<title>t4&#45;&gt;t5</title>
<path fill="none" stroke="black" d="M557.66,-227.45C551.16,-206.71 540.11,-171.43 532.45,-146.98"/>
<polygon fill="black" stroke="black" points="535.73,-145.74 529.4,-137.24 529.05,-147.83 535.73,-145.74"/>
</g>
<!-- d2 -->
<g id="node10" class="node">
<title>d2</title>
<path fill="none" stroke="black" d="M300,-448C300,-448 28,-448 28,-448 22,-448 16,-442 16,-436 16,-436 16,-424 16,-424 16,-418 22,-412 28,-412 28,-412 300,-412 300,-412 306,-412 312,-418 312,-424 312,-424 312,-436 312,-436 312,-442 306,-448 300,-448"/>
<text text-anchor="middle" x="164" y="-426.9" font-family="Helvetica,sans-Serif" font-size="12.00">Simulate TOA ranges → form TDOA differences</text>
</g>
<!-- d1&#45;&gt;d2 -->
<g id="edge7" class="edge">
<title>d1&#45;&gt;d2</title>
<path fill="none" stroke="black" d="M193.4,-506.94C188.1,-493.26 180.57,-473.81 174.46,-458.02"/>
<polygon fill="black" stroke="black" points="177.56,-456.33 170.68,-448.26 171.03,-458.85 177.56,-456.33"/>
</g>
<!-- d3 -->
<g id="node11" class="node">
<title>d3</title>
<path fill="none" stroke="black" d="M294,-347.5C294,-347.5 46,-347.5 46,-347.5 40,-347.5 34,-341.5 34,-335.5 34,-335.5 34,-323.5 34,-323.5 34,-317.5 40,-311.5 46,-311.5 46,-311.5 294,-311.5 294,-311.5 300,-311.5 306,-317.5 306,-323.5 306,-323.5 306,-335.5 306,-335.5 306,-341.5 300,-347.5 294,-347.5"/>
<text text-anchor="middle" x="170" y="-332.9" font-family="Helvetica,sans-Serif" font-size="12.00">Build TDOA covariance (reference beacon)</text>
<text text-anchor="middle" x="170" y="-319.9" font-family="Helvetica,sans-Serif" font-size="12.00">(+ whitening)</text>
</g>
<!-- d2&#45;&gt;d3 -->
<g id="edge8" class="edge">
<title>d2&#45;&gt;d3</title>
<path fill="none" stroke="black" d="M165.05,-411.84C165.95,-396.96 167.28,-375.16 168.33,-357.87"/>
<polygon fill="black" stroke="black" points="171.83,-357.99 168.95,-347.79 164.85,-357.56 171.83,-357.99"/>
</g>
<!-- d4 -->
<g id="node12" class="node">
<title>d4</title>
<path fill="none" stroke="black" d="M247.5,-269C247.5,-269 98.5,-269 98.5,-269 92.5,-269 86.5,-263 86.5,-257 86.5,-257 86.5,-234 86.5,-234 86.5,-228 92.5,-222 98.5,-222 98.5,-222 247.5,-222 247.5,-222 253.5,-222 259.5,-228 259.5,-234 259.5,-234 259.5,-257 259.5,-257 259.5,-263 253.5,-269 247.5,-269"/>
<text text-anchor="middle" x="173" y="-255.4" font-family="Helvetica,sans-Serif" font-size="12.00">Solve (choose):</text>
<text text-anchor="middle" x="173" y="-242.4" font-family="Helvetica,sans-Serif" font-size="12.00">Closed&#45;form (Fang / Chan)</text>
<text text-anchor="middle" x="173" y="-229.4" font-family="Helvetica,sans-Serif" font-size="12.00">OR Iterative LS</text>
</g>
<!-- d3&#45;&gt;d4 -->
<g id="edge9" class="edge">
<title>d3&#45;&gt;d4</title>
<path fill="none" stroke="black" d="M170.64,-311.11C170.98,-301.85 171.4,-290.15 171.8,-279.25"/>
<polygon fill="black" stroke="black" points="175.3,-279.29 172.17,-269.16 168.31,-279.03 175.3,-279.29"/>
</g>
<!-- d5 -->
<g id="node13" class="node">
<title>d5</title>
<path fill="none" stroke="black" d="M299,-137C299,-137 47,-137 47,-137 41,-137 35,-131 35,-125 35,-125 35,-113 35,-113 35,-107 41,-101 47,-101 47,-101 299,-101 299,-101 305,-101 311,-107 311,-113 311,-113 311,-125 311,-125 311,-131 305,-137 299,-137"/>
<text text-anchor="middle" x="173" y="-122.4" font-family="Helvetica,sans-Serif" font-size="12.00">Compare vs TOA baseline</text>
<text text-anchor="middle" x="173" y="-109.4" font-family="Helvetica,sans-Serif" font-size="12.00">Plot + save to ch4_rf_point_positioning/figs/</text>
</g>
<!-- d4&#45;&gt;d5 -->
<g id="edge10" class="edge">
<title>d4&#45;&gt;d5</title>
<path fill="none" stroke="black" d="M173,-221.95C173,-201 173,-169.74 173,-147.36"/>
<polygon fill="black" stroke="black" points="176.5,-147.17 173,-137.17 169.5,-147.17 176.5,-147.17"/>
</g>
<!-- d4&#45;&gt;rf -->
<g id="edge28" class="edge">
<title>d4&#45;&gt;rf</title>
<path fill="none" stroke="black" stroke-dasharray="5,2" d="M259.53,-230.76C280.59,-227.65 303.08,-224.52 324,-222 501.25,-200.61 550.32,-226.35 724,-185 755.62,-177.47 789.22,-165.1 817.79,-153.16"/>
<polygon fill="black" stroke="black" points="819.44,-156.26 827.27,-149.13 816.7,-149.82 819.44,-156.26"/>
<text text-anchor="middle" x="695.5" y="-196" font-family="Helvetica,sans-Serif" font-size="10.00">calls</text>
</g>
<!-- a2 -->
<g id="node15" class="node">
<title>a2</title>
<path fill="none" stroke="black" d="M1287,-448C1287,-448 1091,-448 1091,-448 1085,-448 1079,-442 1079,-436 1079,-436 1079,-424 1079,-424 1079,-418 1085,-412 1091,-412 1091,-412 1287,-412 1287,-412 1293,-412 1299,-418 1299,-424 1299,-424 1299,-436 1299,-436 1299,-442 1293,-448 1287,-448"/>
<text text-anchor="middle" x="1189" y="-433.4" font-family="Helvetica,sans-Serif" font-size="12.00">Compute AOA (azimuth/elevation)</text>
<text text-anchor="middle" x="1189" y="-420.4" font-family="Helvetica,sans-Serif" font-size="12.00">+ add angle noise</text>
</g>
<!-- a1&#45;&gt;a2 -->
<g id="edge11" class="edge">
<title>a1&#45;&gt;a2</title>
<path fill="none" stroke="black" d="M1189,-506.94C1189,-493.39 1189,-474.18 1189,-458.47"/>
<polygon fill="black" stroke="black" points="1192.5,-458.26 1189,-448.26 1185.5,-458.26 1192.5,-458.26"/>
</g>
<!-- a3 -->
<g id="node16" class="node">
<title>a3</title>
<path fill="none" stroke="black" d="M1289,-353C1289,-353 1089,-353 1089,-353 1083,-353 1077,-347 1077,-341 1077,-341 1077,-318 1077,-318 1077,-312 1083,-306 1089,-306 1089,-306 1289,-306 1289,-306 1295,-306 1301,-312 1301,-318 1301,-318 1301,-341 1301,-341 1301,-347 1295,-353 1289,-353"/>
<text text-anchor="middle" x="1189" y="-339.4" font-family="Helvetica,sans-Serif" font-size="12.00">Solve:</text>
<text text-anchor="middle" x="1189" y="-326.4" font-family="Helvetica,sans-Serif" font-size="12.00">AOAPositioner (iterative WLS)</text>
<text text-anchor="middle" x="1189" y="-313.4" font-family="Helvetica,sans-Serif" font-size="12.00">+ optional closed&#45;form (OVE / PLE)</text>
</g>
<!-- a2&#45;&gt;a3 -->
<g id="edge12" class="edge">
<title>a2&#45;&gt;a3</title>
<path fill="none" stroke="black" d="M1189,-411.84C1189,-398.46 1189,-379.48 1189,-363.21"/>
<polygon fill="black" stroke="black" points="1192.5,-363.01 1189,-353.01 1185.5,-363.01 1192.5,-363.01"/>
</g>
<!-- a4 -->
<g id="node17" class="node">
<title>a4</title>
<path fill="none" stroke="black" d="M1328.5,-263.5C1328.5,-263.5 1121.5,-263.5 1121.5,-263.5 1115.5,-263.5 1109.5,-257.5 1109.5,-251.5 1109.5,-251.5 1109.5,-239.5 1109.5,-239.5 1109.5,-233.5 1115.5,-227.5 1121.5,-227.5 1121.5,-227.5 1328.5,-227.5 1328.5,-227.5 1334.5,-227.5 1340.5,-233.5 1340.5,-239.5 1340.5,-239.5 1340.5,-251.5 1340.5,-251.5 1340.5,-257.5 1334.5,-263.5 1328.5,-263.5"/>
<text text-anchor="middle" x="1225" y="-242.4" font-family="Helvetica,sans-Serif" font-size="12.00">Compute error + compare methods</text>
</g>
<!-- a3&#45;&gt;a4 -->
<g id="edge13" class="edge">
<title>a3&#45;&gt;a4</title>
<path fill="none" stroke="black" d="M1199.03,-305.66C1203.49,-295.5 1208.77,-283.48 1213.4,-272.93"/>
<polygon fill="black" stroke="black" points="1216.61,-274.32 1217.42,-263.76 1210.2,-271.51 1216.61,-274.32"/>
</g>
<!-- a3&#45;&gt;rf -->
<g id="edge29" class="edge">
<title>a3&#45;&gt;rf</title>
<path fill="none" stroke="black" stroke-dasharray="5,2" d="M1142.59,-305.94C1122.29,-295.48 1098.49,-282.42 1078,-269 1024.32,-233.84 967.03,-187.24 929.77,-155.58"/>
<polygon fill="black" stroke="black" points="932.02,-152.9 922.14,-149.07 927.47,-158.22 932.02,-152.9"/>
<text text-anchor="middle" x="1089.5" y="-243" font-family="Helvetica,sans-Serif" font-size="10.00">calls</text>
</g>
<!-- a5 -->
<g id="node18" class="node">
<title>a5</title>
<path fill="none" stroke="black" d="M1418.5,-137C1418.5,-137 1077.5,-137 1077.5,-137 1071.5,-137 1065.5,-131 1065.5,-125 1065.5,-125 1065.5,-113 1065.5,-113 1065.5,-107 1071.5,-101 1077.5,-101 1077.5,-101 1418.5,-101 1418.5,-101 1424.5,-101 1430.5,-107 1430.5,-113 1430.5,-113 1430.5,-125 1430.5,-125 1430.5,-131 1424.5,-137 1418.5,-137"/>
<text text-anchor="middle" x="1248" y="-122.4" font-family="Helvetica,sans-Serif" font-size="12.00">Plot AOA geometry</text>
<text text-anchor="middle" x="1248" y="-109.4" font-family="Helvetica,sans-Serif" font-size="12.00">Save: ch4_rf_point_positioning/figs/ch4_aoa_geometry.png</text>
</g>
<!-- a4&#45;&gt;a5 -->
<g id="edge14" class="edge">
<title>a4&#45;&gt;a5</title>
<path fill="none" stroke="black" d="M1228.15,-227.45C1231.97,-206.8 1238.44,-171.74 1242.95,-147.31"/>
<polygon fill="black" stroke="black" points="1246.44,-147.71 1244.81,-137.24 1239.56,-146.44 1246.44,-147.71"/>
</g>
<!-- cgeom -->
<g id="node20" class="node">
<title>cgeom</title>
<path fill="none" stroke="black" d="M1667.5,-453.5C1667.5,-453.5 1466.5,-453.5 1466.5,-453.5 1460.5,-453.5 1454.5,-447.5 1454.5,-441.5 1454.5,-441.5 1454.5,-418.5 1454.5,-418.5 1454.5,-412.5 1460.5,-406.5 1466.5,-406.5 1466.5,-406.5 1667.5,-406.5 1667.5,-406.5 1673.5,-406.5 1679.5,-412.5 1679.5,-418.5 1679.5,-418.5 1679.5,-441.5 1679.5,-441.5 1679.5,-447.5 1673.5,-453.5 1667.5,-453.5"/>
<text text-anchor="middle" x="1567" y="-439.9" font-family="Helvetica,sans-Serif" font-size="12.00">Geometry study:</text>
<text text-anchor="middle" x="1567" y="-426.9" font-family="Helvetica,sans-Serif" font-size="12.00">compute GDOP for TOA/TDOA/AOA</text>
<text text-anchor="middle" x="1567" y="-413.9" font-family="Helvetica,sans-Serif" font-size="12.00">plot + save figs/</text>
</g>
<!-- c0&#45;&gt;cgeom -->
<g id="edge15" class="edge">
<title>c0&#45;&gt;cgeom</title>
<path fill="none" stroke="black" d="M1582.6,-507.37C1580.12,-495.23 1576.68,-478.38 1573.66,-463.59"/>
<polygon fill="black" stroke="black" points="1577.08,-462.87 1571.65,-453.77 1570.22,-464.27 1577.08,-462.87"/>
<text text-anchor="middle" x="1587" y="-481" font-family="Helvetica,sans-Serif" font-size="10.00">yes</text>
</g>
<!-- cdata -->
<g id="node21" class="node">
<title>cdata</title>
<path fill="none" stroke="black" d="M1785.19,-445.86C1785.19,-445.86 1709.32,-432.14 1709.32,-432.14 1703.41,-431.07 1703.41,-428.93 1709.32,-427.86 1709.32,-427.86 1785.19,-414.14 1785.19,-414.14 1791.1,-413.07 1802.9,-413.07 1808.81,-414.14 1808.81,-414.14 1884.68,-427.86 1884.68,-427.86 1890.59,-428.93 1890.59,-431.07 1884.68,-432.14 1884.68,-432.14 1808.81,-445.86 1808.81,-445.86 1802.9,-446.93 1791.1,-446.93 1785.19,-445.86"/>
<text text-anchor="middle" x="1797" y="-426.9" font-family="Helvetica,sans-Serif" font-size="12.00">&#45;&#45;data provided?</text>
</g>
<!-- c0&#45;&gt;cdata -->
<g id="edge16" class="edge">
<title>c0&#45;&gt;cdata</title>
<path fill="none" stroke="black" d="M1615.78,-510.87C1653.64,-494.19 1719,-465.38 1760.01,-447.3"/>
<polygon fill="black" stroke="black" points="1761.64,-450.41 1769.38,-443.17 1758.82,-444 1761.64,-450.41"/>
<text text-anchor="middle" x="1691.5" y="-481" font-family="Helvetica,sans-Serif" font-size="10.00">no</text>
</g>
<!-- c1 -->
<g id="node22" class="node">
<title>c1</title>
<path fill="none" stroke="black" d="M1666,-347.5C1666,-347.5 1568,-347.5 1568,-347.5 1562,-347.5 1556,-341.5 1556,-335.5 1556,-335.5 1556,-323.5 1556,-323.5 1556,-317.5 1562,-311.5 1568,-311.5 1568,-311.5 1666,-311.5 1666,-311.5 1672,-311.5 1678,-317.5 1678,-323.5 1678,-323.5 1678,-335.5 1678,-335.5 1678,-341.5 1672,-347.5 1666,-347.5"/>
<text text-anchor="middle" x="1617" y="-332.9" font-family="Helvetica,sans-Serif" font-size="12.00">Load dataset:</text>
<text text-anchor="middle" x="1617" y="-319.9" font-family="Helvetica,sans-Serif" font-size="12.00">data/sim/ch4_rf_*</text>
</g>
<!-- cdata&#45;&gt;c1 -->
<g id="edge17" class="edge">
<title>cdata&#45;&gt;c1</title>
<path fill="none" stroke="black" d="M1773.47,-416.12C1743.99,-399.99 1693.01,-372.09 1657.28,-352.54"/>
<polygon fill="black" stroke="black" points="1658.54,-349.24 1648.09,-347.51 1655.18,-355.38 1658.54,-349.24"/>
<text text-anchor="middle" x="1716" y="-374" font-family="Helvetica,sans-Serif" font-size="10.00">yes</text>
</g>
<!-- c2 -->
<g id="node23" class="node">
<title>c2</title>
<path fill="none" stroke="black" d="M1883.5,-347.5C1883.5,-347.5 1708.5,-347.5 1708.5,-347.5 1702.5,-347.5 1696.5,-341.5 1696.5,-335.5 1696.5,-335.5 1696.5,-323.5 1696.5,-323.5 1696.5,-317.5 1702.5,-311.5 1708.5,-311.5 1708.5,-311.5 1883.5,-311.5 1883.5,-311.5 1889.5,-311.5 1895.5,-317.5 1895.5,-323.5 1895.5,-323.5 1895.5,-335.5 1895.5,-335.5 1895.5,-341.5 1889.5,-347.5 1883.5,-347.5"/>
<text text-anchor="middle" x="1796" y="-332.9" font-family="Helvetica,sans-Serif" font-size="12.00">OR generate inline scenario</text>
<text text-anchor="middle" x="1796" y="-319.9" font-family="Helvetica,sans-Serif" font-size="12.00">(simulate TOA/TDOA/AOA/RSS)</text>
</g>
<!-- cdata&#45;&gt;c2 -->
<g id="edge18" class="edge">
<title>cdata&#45;&gt;c2</title>
<path fill="none" stroke="black" d="M1796.83,-411.84C1796.67,-396.96 1796.45,-375.16 1796.28,-357.87"/>
<polygon fill="black" stroke="black" points="1799.78,-357.76 1796.18,-347.79 1792.78,-357.83 1799.78,-357.76"/>
<text text-anchor="middle" x="1802.5" y="-374" font-family="Helvetica,sans-Serif" font-size="10.00">no</text>
</g>
<!-- c3 -->
<g id="node24" class="node">
<title>c3</title>
<path fill="none" stroke="black" d="M1726.5,-269C1726.5,-269 1527.5,-269 1527.5,-269 1521.5,-269 1515.5,-263 1515.5,-257 1515.5,-257 1515.5,-234 1515.5,-234 1515.5,-228 1521.5,-222 1527.5,-222 1527.5,-222 1726.5,-222 1726.5,-222 1732.5,-222 1738.5,-228 1738.5,-234 1738.5,-234 1738.5,-257 1738.5,-257 1738.5,-263 1732.5,-269 1726.5,-269"/>
<text text-anchor="middle" x="1627" y="-255.4" font-family="Helvetica,sans-Serif" font-size="12.00">Run solvers over many test points:</text>
<text text-anchor="middle" x="1627" y="-242.4" font-family="Helvetica,sans-Serif" font-size="12.00">TOA / TDOA / AOA</text>
<text text-anchor="middle" x="1627" y="-229.4" font-family="Helvetica,sans-Serif" font-size="12.00">(+ RSS ranging)</text>
</g>
<!-- c1&#45;&gt;c3 -->
<g id="edge19" class="edge">
<title>c1&#45;&gt;c3</title>
<path fill="none" stroke="black" d="M1619.12,-311.11C1620.25,-301.85 1621.68,-290.15 1623.01,-279.25"/>
<polygon fill="black" stroke="black" points="1626.5,-279.51 1624.24,-269.16 1619.55,-278.67 1626.5,-279.51"/>
</g>
<!-- c2&#45;&gt;c3 -->
<g id="edge20" class="edge">
<title>c2&#45;&gt;c3</title>
<path fill="none" stroke="black" d="M1760.57,-311.31C1738.07,-300.39 1708.47,-286.03 1682.85,-273.6"/>
<polygon fill="black" stroke="black" points="1684.14,-270.33 1673.62,-269.12 1681.08,-276.63 1684.14,-270.33"/>
</g>
<!-- c4 -->
<g id="node25" class="node">
<title>c4</title>
<path fill="none" stroke="black" d="M1741.5,-137C1741.5,-137 1520.5,-137 1520.5,-137 1514.5,-137 1508.5,-131 1508.5,-125 1508.5,-125 1508.5,-113 1508.5,-113 1508.5,-107 1514.5,-101 1520.5,-101 1520.5,-101 1741.5,-101 1741.5,-101 1747.5,-101 1753.5,-107 1753.5,-113 1753.5,-113 1753.5,-125 1753.5,-125 1753.5,-131 1747.5,-137 1741.5,-137"/>
<text text-anchor="middle" x="1631" y="-122.4" font-family="Helvetica,sans-Serif" font-size="12.00">Aggregate errors + convergence stats</text>
<text text-anchor="middle" x="1631" y="-109.4" font-family="Helvetica,sans-Serif" font-size="12.00">(plot CDF / maps)</text>
</g>
<!-- c3&#45;&gt;c4 -->
<g id="edge21" class="edge">
<title>c3&#45;&gt;c4</title>
<path fill="none" stroke="black" d="M1627.72,-221.95C1628.4,-201 1629.4,-169.74 1630.12,-147.36"/>
<polygon fill="black" stroke="black" points="1633.63,-147.28 1630.45,-137.17 1626.63,-147.06 1633.63,-147.28"/>
</g>
<!-- c3&#45;&gt;rf -->
<g id="edge30" class="edge">
<title>c3&#45;&gt;rf</title>
<path fill="none" stroke="black" stroke-dasharray="5,2" d="M1515.04,-230.41C1490.96,-227.51 1465.64,-224.56 1442,-222 1269.78,-203.32 1222.46,-225.36 1054,-185 1022.39,-177.43 988.79,-165.05 960.22,-153.11"/>
<polygon fill="black" stroke="black" points="961.31,-149.77 950.74,-149.09 958.58,-156.21 961.31,-149.77"/>
<text text-anchor="middle" x="1161.5" y="-196" font-family="Helvetica,sans-Serif" font-size="10.00">calls</text>
</g>
<!-- c5 -->
<g id="node26" class="node">
<title>c5</title>
<path fill="none" stroke="black" d="M1808,-52C1808,-52 1466,-52 1466,-52 1460,-52 1454,-46 1454,-40 1454,-40 1454,-28 1454,-28 1454,-22 1460,-16 1466,-16 1466,-16 1808,-16 1808,-16 1814,-16 1820,-22 1820,-28 1820,-28 1820,-40 1820,-40 1820,-46 1814,-52 1808,-52"/>
<text text-anchor="middle" x="1637" y="-30.9" font-family="Helvetica,sans-Serif" font-size="12.00">Save: ch4_rf_point_positioning/figs/ch4_rf_comparison.png</text>
</g>
<!-- c4&#45;&gt;c5 -->
<g id="edge22" class="edge">
<title>c4&#45;&gt;c5</title>
<path fill="none" stroke="black" d="M1632.24,-100.8C1633.05,-89.67 1634.11,-74.94 1635.03,-62.24"/>
<polygon fill="black" stroke="black" points="1638.53,-62.4 1635.76,-52.18 1631.55,-61.9 1638.53,-62.4"/>
</g>
</g>
</svg>
