<?xml version="1.0" encoding="UTF-8" standalone="no"?>
<!DOCTYPE svg PUBLIC "-//W3C//DTD SVG 1.1//EN"
 "http://www.w3.org/Graphics/SVG/1.1/DTD/svg11.dtd">
<!-- Generated by graphviz version 2.43.0 (0)
 -->
<!-- Title: G Pages: 1 -->
<svg width="3436pt" height="598pt"
 viewBox="0.00 0.00 3435.98 598.00" xmlns="http://www.w3.org/2000/svg" xmlns:xlink="http://www.w3.org/1999/xlink">
<g id="graph0" class="graph" transform="scale(1 1) rotate(0) translate(4 594)">
<title>G</title>
<polygon fill="white" stroke="transparent" points="-4,4 -4,-594 3431.98,-594 3431.98,4 -4,4"/>
<text text-anchor="middle" x="1713.99" y="-573.2" font-family="Helvetica,sans-Serif" font-size="16.00">Chapter 8 (Sensor Fusion) — Execution Flow (Clean View)</text>
<g id="clust1" class="cluster">
<title>cluster_fusion</title>
<path fill="white" stroke="#b0c4de" d="M809.48,-262C809.48,-262 3318.98,-262 3318.98,-262 3324.98,-262 3330.98,-268 3330.98,-274 3330.98,-274 3330.98,-544 3330.98,-544 3330.98,-550 3324.98,-556 3318.98,-556 3318.98,-556 809.48,-556 809.48,-556 803.48,-556 797.48,-550 797.48,-544 797.48,-544 797.48,-274 797.48,-274 797.48,-268 803.48,-262 809.48,-262"/>
<text text-anchor="middle" x="2064.23" y="-539.2" font-family="Helvetica,sans-Serif" font-size="16.00">Fusion Demos (IMU + UWB)</text>
</g>
<g id="clust2" class="cluster">
<title>cluster_cal</title>
<path fill="white" stroke="#c8e6c9" d="M810.33,-104C810.33,-104 2621.26,-104 2621.26,-104 2627.26,-104 2633.26,-110 2633.26,-116 2633.26,-116 2633.26,-242 2633.26,-242 2633.26,-248 2627.26,-254 2621.26,-254 2621.26,-254 810.33,-254 810.33,-254 804.33,-254 798.33,-248 798.33,-242 798.33,-242 798.33,-116 798.33,-116 798.33,-110 804.33,-104 810.33,-104"/>
<text text-anchor="middle" x="1715.79" y="-237.2" font-family="Helvetica,sans-Serif" font-size="16.00">Calibration Demos</text>
</g>
<g id="clust3" class="cluster">
<title>cluster_obs</title>
<path fill="white" stroke="#ffd1dc" d="M847.83,-8C847.83,-8 2219.54,-8 2219.54,-8 2225.54,-8 2231.54,-14 2231.54,-20 2231.54,-20 2231.54,-84 2231.54,-84 2231.54,-90 2225.54,-96 2219.54,-96 2219.54,-96 847.83,-96 847.83,-96 841.83,-96 835.83,-90 835.83,-84 835.83,-84 835.83,-20 835.83,-20 835.83,-14 841.83,-8 847.83,-8"/>
<text text-anchor="middle" x="1533.68" y="-79.2" font-family="Helvetica,sans-Serif" font-size="16.00">Observability Demo</text>
</g>
<!-- start -->
<g id="node1" class="node">
<title>start</title>
<ellipse fill="#e8f0fe" stroke="#444444" cx="103.24" cy="-165" rx="103.48" ry="22.76"/>
<text text-anchor="middle" x="103.24" y="-168.2" font-family="Helvetica,sans-Serif" font-size="11.00">Start</text>
<text text-anchor="middle" x="103.24" y="-156.2" font-family="Helvetica,sans-Serif" font-size="11.00">(run a Chapter 8 script)</text>
</g>
<!-- decide -->
<g id="node2" class="node">
<title>decide</title>
<polygon fill="#fff4e5" stroke="#444444" points="473.48,-197 257.48,-165 473.48,-133 689.48,-165 473.48,-197"/>
<text text-anchor="middle" x="473.48" y="-168.2" font-family="Helvetica,sans-Serif" font-size="11.00">Which demo?</text>
<text text-anchor="middle" x="473.48" y="-156.2" font-family="Helvetica,sans-Serif" font-size="11.00">(Fusion / Calibration / Observability)</text>
</g>
<!-- start&#45;&gt;decide -->
<g id="edge1" class="edge">
<title>start&#45;&gt;decide</title>
<path fill="none" stroke="#555555" d="M206.81,-165C220.37,-165 234.66,-165 249.31,-165"/>
<polygon fill="#555555" stroke="#555555" points="249.47,-167.8 257.47,-165 249.47,-162.2 249.47,-167.8"/>
</g>
<!-- f_decide -->
<g id="node3" class="node">
<title>f_decide</title>
<polygon fill="#fff4e5" stroke="#444444" points="914.33,-378 805.62,-360 914.33,-342 1023.04,-360 914.33,-378"/>
<text text-anchor="middle" x="914.33" y="-357.2" font-family="Helvetica,sans-Serif" font-size="11.00">Choose fusion mode</text>
</g>
<!-- decide&#45;&gt;f_decide -->
<g id="edge38" class="edge">
<title>decide&#45;&gt;f_decide</title>
<path fill="none" stroke="#555555" d="M528.29,-188.91C618.68,-229.08 798.72,-309.08 876.32,-343.56"/>
<polygon fill="#555555" stroke="#555555" points="875.5,-346.26 883.95,-346.95 877.78,-341.14 875.5,-346.26"/>
<text text-anchor="middle" x="747.48" y="-299" font-family="Helvetica,sans-Serif" font-size="10.00">Fusion</text>
</g>
<!-- c_decide -->
<g id="node24" class="node">
<title>c_decide</title>
<polygon fill="#fff4e5" stroke="#444444" points="914.33,-183 806.32,-165 914.33,-147 1022.34,-165 914.33,-183"/>
<text text-anchor="middle" x="914.33" y="-162.2" font-family="Helvetica,sans-Serif" font-size="11.00">Intrinsic / Temporal?</text>
</g>
<!-- decide&#45;&gt;c_decide -->
<g id="edge39" class="edge">
<title>decide&#45;&gt;c_decide</title>
<path fill="none" stroke="#555555" d="M689.72,-165C727.03,-165 764.49,-165 797.8,-165"/>
<polygon fill="#555555" stroke="#555555" points="798.18,-167.8 806.18,-165 798.18,-162.2 798.18,-167.8"/>
<text text-anchor="middle" x="747.48" y="-168" font-family="Helvetica,sans-Serif" font-size="10.00">Calibration</text>
</g>
<!-- o_run -->
<g id="node33" class="node">
<title>o_run</title>
<path fill="#f7f7f7" stroke="#444444" d="M972.83,-61C972.83,-61 855.83,-61 855.83,-61 849.83,-61 843.83,-55 843.83,-49 843.83,-49 843.83,-37 843.83,-37 843.83,-31 849.83,-25 855.83,-25 855.83,-25 972.83,-25 972.83,-25 978.83,-25 984.83,-31 984.83,-37 984.83,-37 984.83,-49 984.83,-49 984.83,-55 978.83,-61 972.83,-61"/>
<text text-anchor="middle" x="914.33" y="-40.2" font-family="Helvetica,sans-Serif" font-size="11.00">observability_demo.py</text>
</g>
<!-- decide&#45;&gt;o_run -->
<g id="edge40" class="edge">
<title>decide&#45;&gt;o_run</title>
<path fill="none" stroke="#555555" d="M549.42,-144.17C630.72,-121.57 759.65,-85.72 840.23,-63.32"/>
<polygon fill="#555555" stroke="#555555" points="841.39,-65.9 848.35,-61.06 839.89,-60.51 841.39,-65.9"/>
<text text-anchor="middle" x="747.48" y="-99" font-family="Helvetica,sans-Serif" font-size="10.00">Observability</text>
</g>
<!-- f_lc -->
<g id="node4" class="node">
<title>f_lc</title>
<path fill="#f7f7f7" stroke="#444444" d="M1219.68,-306C1219.68,-306 1110.68,-306 1110.68,-306 1104.68,-306 1098.68,-300 1098.68,-294 1098.68,-294 1098.68,-282 1098.68,-282 1098.68,-276 1104.68,-270 1110.68,-270 1110.68,-270 1219.68,-270 1219.68,-270 1225.68,-270 1231.68,-276 1231.68,-282 1231.68,-282 1231.68,-294 1231.68,-294 1231.68,-300 1225.68,-306 1219.68,-306"/>
<text text-anchor="middle" x="1165.18" y="-291.2" font-family="Helvetica,sans-Serif" font-size="11.00">lc_uwb_imu_ekf.py</text>
<text text-anchor="middle" x="1165.18" y="-279.2" font-family="Helvetica,sans-Serif" font-size="11.00">Loosely Coupled (LC)</text>
</g>
<!-- f_decide&#45;&gt;f_lc -->
<g id="edge2" class="edge">
<title>f_decide&#45;&gt;f_lc</title>
<path fill="none" stroke="#555555" d="M954.76,-348.59C992.07,-337.8 1048.92,-321.35 1093.97,-308.31"/>
<polygon fill="#555555" stroke="#555555" points="1094.76,-311 1101.67,-306.09 1093.2,-305.62 1094.76,-311"/>
</g>
<!-- f_tc -->
<g id="node5" class="node">
<title>f_tc</title>
<path fill="#f7f7f7" stroke="#444444" d="M1217.18,-378C1217.18,-378 1113.18,-378 1113.18,-378 1107.18,-378 1101.18,-372 1101.18,-366 1101.18,-366 1101.18,-354 1101.18,-354 1101.18,-348 1107.18,-342 1113.18,-342 1113.18,-342 1217.18,-342 1217.18,-342 1223.18,-342 1229.18,-348 1229.18,-354 1229.18,-354 1229.18,-366 1229.18,-366 1229.18,-372 1223.18,-378 1217.18,-378"/>
<text text-anchor="middle" x="1165.18" y="-363.2" font-family="Helvetica,sans-Serif" font-size="11.00">tc_uwb_imu_ekf.py</text>
<text text-anchor="middle" x="1165.18" y="-351.2" font-family="Helvetica,sans-Serif" font-size="11.00">Tightly Coupled (TC)</text>
</g>
<!-- f_decide&#45;&gt;f_tc -->
<g id="edge3" class="edge">
<title>f_decide&#45;&gt;f_tc</title>
<path fill="none" stroke="#555555" d="M1023.39,-360C1046.89,-360 1071.18,-360 1092.82,-360"/>
<polygon fill="#555555" stroke="#555555" points="1092.99,-362.8 1100.99,-360 1092.99,-357.2 1092.99,-362.8"/>
</g>
<!-- f_cmp -->
<g id="node6" class="node">
<title>f_cmp</title>
<path fill="#f7f7f7" stroke="#444444" d="M1218.68,-450C1218.68,-450 1111.68,-450 1111.68,-450 1105.68,-450 1099.68,-444 1099.68,-438 1099.68,-438 1099.68,-426 1099.68,-426 1099.68,-420 1105.68,-414 1111.68,-414 1111.68,-414 1218.68,-414 1218.68,-414 1224.68,-414 1230.68,-420 1230.68,-426 1230.68,-426 1230.68,-438 1230.68,-438 1230.68,-444 1224.68,-450 1218.68,-450"/>
<text text-anchor="middle" x="1165.18" y="-435.2" font-family="Helvetica,sans-Serif" font-size="11.00">compare_lc_tc.py</text>
<text text-anchor="middle" x="1165.18" y="-423.2" font-family="Helvetica,sans-Serif" font-size="11.00">LC vs TC comparison</text>
</g>
<!-- f_decide&#45;&gt;f_cmp -->
<g id="edge4" class="edge">
<title>f_decide&#45;&gt;f_cmp</title>
<path fill="none" stroke="#555555" d="M954.76,-371.41C992.07,-382.2 1048.92,-398.65 1093.97,-411.69"/>
<polygon fill="#555555" stroke="#555555" points="1093.2,-414.38 1101.67,-413.91 1094.76,-409 1093.2,-414.38"/>
</g>
<!-- f_tune -->
<g id="node7" class="node">
<title>f_tune</title>
<path fill="#f7f7f7" stroke="#444444" d="M1225.68,-522C1225.68,-522 1104.68,-522 1104.68,-522 1098.68,-522 1092.68,-516 1092.68,-510 1092.68,-510 1092.68,-498 1092.68,-498 1092.68,-492 1098.68,-486 1104.68,-486 1104.68,-486 1225.68,-486 1225.68,-486 1231.68,-486 1237.68,-492 1237.68,-498 1237.68,-498 1237.68,-510 1237.68,-510 1237.68,-516 1231.68,-522 1225.68,-522"/>
<text text-anchor="middle" x="1165.18" y="-507.2" font-family="Helvetica,sans-Serif" font-size="11.00">tuning_robust_demo.py</text>
<text text-anchor="middle" x="1165.18" y="-495.2" font-family="Helvetica,sans-Serif" font-size="11.00">Robust tuning</text>
</g>
<!-- f_decide&#45;&gt;f_tune -->
<g id="edge5" class="edge">
<title>f_decide&#45;&gt;f_tune</title>
<path fill="none" stroke="#555555" d="M934.52,-375.08C963.55,-397.4 1020.89,-439.66 1074.18,-468 1084.11,-473.28 1094.98,-478.25 1105.63,-482.72"/>
<polygon fill="#555555" stroke="#555555" points="1104.86,-485.43 1113.33,-485.88 1106.99,-480.25 1104.86,-485.43"/>
</g>
<!-- lc_load -->
<g id="node8" class="node">
<title>lc_load</title>
<path fill="#f7f7f7" stroke="#444444" d="M1442.68,-306C1442.68,-306 1359.68,-306 1359.68,-306 1353.68,-306 1347.68,-300 1347.68,-294 1347.68,-294 1347.68,-282 1347.68,-282 1347.68,-276 1353.68,-270 1359.68,-270 1359.68,-270 1442.68,-270 1442.68,-270 1448.68,-270 1454.68,-276 1454.68,-282 1454.68,-282 1454.68,-294 1454.68,-294 1454.68,-300 1448.68,-306 1442.68,-306"/>
<text text-anchor="middle" x="1401.18" y="-291.2" font-family="Helvetica,sans-Serif" font-size="11.00">Load dataset</text>
<text text-anchor="middle" x="1401.18" y="-279.2" font-family="Helvetica,sans-Serif" font-size="11.00">(data/sim/ch8_*)</text>
</g>
<!-- f_lc&#45;&gt;lc_load -->
<g id="edge6" class="edge">
<title>f_lc&#45;&gt;lc_load</title>
<path fill="none" stroke="#555555" d="M1231.99,-288C1265.63,-288 1306.32,-288 1339.24,-288"/>
<polygon fill="#555555" stroke="#555555" points="1339.44,-290.8 1347.44,-288 1339.44,-285.2 1339.44,-290.8"/>
</g>
<!-- tc_load -->
<g id="node14" class="node">
<title>tc_load</title>
<path fill="#f7f7f7" stroke="#444444" d="M1442.68,-378C1442.68,-378 1359.68,-378 1359.68,-378 1353.68,-378 1347.68,-372 1347.68,-366 1347.68,-366 1347.68,-354 1347.68,-354 1347.68,-348 1353.68,-342 1359.68,-342 1359.68,-342 1442.68,-342 1442.68,-342 1448.68,-342 1454.68,-348 1454.68,-354 1454.68,-354 1454.68,-366 1454.68,-366 1454.68,-372 1448.68,-378 1442.68,-378"/>
<text text-anchor="middle" x="1401.18" y="-363.2" font-family="Helvetica,sans-Serif" font-size="11.00">Load dataset</text>
<text text-anchor="middle" x="1401.18" y="-351.2" font-family="Helvetica,sans-Serif" font-size="11.00">(data/sim/ch8_*)</text>
</g>
<!-- f_tc&#45;&gt;tc_load -->
<g id="edge12" class="edge">
<title>f_tc&#45;&gt;tc_load</title>
<path fill="none" stroke="#555555" d="M1229.2,-360C1263.27,-360 1305.15,-360 1338.94,-360"/>
<polygon fill="#555555" stroke="#555555" points="1339.35,-362.8 1347.35,-360 1339.35,-357.2 1339.35,-362.8"/>
</g>
<!-- cmp_run -->
<g id="node19" class="node">
<title>cmp_run</title>
<path fill="#f7f7f7" stroke="#444444" d="M1444.18,-450C1444.18,-450 1358.18,-450 1358.18,-450 1352.18,-450 1346.18,-444 1346.18,-438 1346.18,-438 1346.18,-426 1346.18,-426 1346.18,-420 1352.18,-414 1358.18,-414 1358.18,-414 1444.18,-414 1444.18,-414 1450.18,-414 1456.18,-420 1456.18,-426 1456.18,-426 1456.18,-438 1456.18,-438 1456.18,-444 1450.18,-450 1444.18,-450"/>
<text text-anchor="middle" x="1401.18" y="-435.2" font-family="Helvetica,sans-Serif" font-size="11.00">Run LC + TC</text>
<text text-anchor="middle" x="1401.18" y="-423.2" font-family="Helvetica,sans-Serif" font-size="11.00">(reuse functions)</text>
</g>
<!-- f_cmp&#45;&gt;cmp_run -->
<g id="edge17" class="edge">
<title>f_cmp&#45;&gt;cmp_run</title>
<path fill="none" stroke="#555555" d="M1230.74,-432C1264.17,-432 1304.79,-432 1337.88,-432"/>
<polygon fill="#555555" stroke="#555555" points="1338.12,-434.8 1346.12,-432 1338.12,-429.2 1338.12,-434.8"/>
</g>
<!-- tune_grid -->
<g id="node21" class="node">
<title>tune_grid</title>
<path fill="#f7f7f7" stroke="#444444" d="M1457.68,-522C1457.68,-522 1344.68,-522 1344.68,-522 1338.68,-522 1332.68,-516 1332.68,-510 1332.68,-510 1332.68,-498 1332.68,-498 1332.68,-492 1338.68,-486 1344.68,-486 1344.68,-486 1457.68,-486 1457.68,-486 1463.68,-486 1469.68,-492 1469.68,-498 1469.68,-498 1469.68,-510 1469.68,-510 1469.68,-516 1463.68,-522 1457.68,-522"/>
<text text-anchor="middle" x="1401.18" y="-507.2" font-family="Helvetica,sans-Serif" font-size="11.00">Sweep robust params</text>
<text text-anchor="middle" x="1401.18" y="-495.2" font-family="Helvetica,sans-Serif" font-size="11.00">(gate / weights)</text>
</g>
<!-- f_tune&#45;&gt;tune_grid -->
<g id="edge19" class="edge">
<title>f_tune&#45;&gt;tune_grid</title>
<path fill="none" stroke="#555555" d="M1237.98,-504C1265.37,-504 1296.67,-504 1324.41,-504"/>
<polygon fill="#555555" stroke="#555555" points="1324.52,-506.8 1332.52,-504 1324.52,-501.2 1324.52,-506.8"/>
</g>
<!-- lc_init -->
<g id="node9" class="node">
<title>lc_init</title>
<path fill="#f7f7f7" stroke="#444444" d="M1665.68,-306C1665.68,-306 1605.68,-306 1605.68,-306 1599.68,-306 1593.68,-300 1593.68,-294 1593.68,-294 1593.68,-282 1593.68,-282 1593.68,-276 1599.68,-270 1605.68,-270 1605.68,-270 1665.68,-270 1665.68,-270 1671.68,-270 1677.68,-276 1677.68,-282 1677.68,-282 1677.68,-294 1677.68,-294 1677.68,-300 1671.68,-306 1665.68,-306"/>
<text text-anchor="middle" x="1635.68" y="-291.2" font-family="Helvetica,sans-Serif" font-size="11.00">Init EKF</text>
<text text-anchor="middle" x="1635.68" y="-279.2" font-family="Helvetica,sans-Serif" font-size="11.00">(state + P0)</text>
</g>
<!-- lc_load&#45;&gt;lc_init -->
<g id="edge7" class="edge">
<title>lc_load&#45;&gt;lc_init</title>
<path fill="none" stroke="#555555" d="M1454.94,-288C1493.93,-288 1546.66,-288 1584.92,-288"/>
<polygon fill="#555555" stroke="#555555" points="1585.34,-290.8 1593.34,-288 1585.34,-285.2 1585.34,-290.8"/>
</g>
<!-- lc_prop -->
<g id="node10" class="node">
<title>lc_prop</title>
<path fill="#f7f7f7" stroke="#444444" d="M2127.86,-306C2127.86,-306 2044.86,-306 2044.86,-306 2038.86,-306 2032.86,-300 2032.86,-294 2032.86,-294 2032.86,-282 2032.86,-282 2032.86,-276 2038.86,-270 2044.86,-270 2044.86,-270 2127.86,-270 2127.86,-270 2133.86,-270 2139.86,-276 2139.86,-282 2139.86,-282 2139.86,-294 2139.86,-294 2139.86,-300 2133.86,-306 2127.86,-306"/>
<text text-anchor="middle" x="2086.36" y="-291.2" font-family="Helvetica,sans-Serif" font-size="11.00">IMU propagation</text>
<text text-anchor="middle" x="2086.36" y="-279.2" font-family="Helvetica,sans-Serif" font-size="11.00">(high&#45;rate)</text>
</g>
<!-- lc_init&#45;&gt;lc_prop -->
<g id="edge8" class="edge">
<title>lc_init&#45;&gt;lc_prop</title>
<path fill="none" stroke="#555555" d="M1677.69,-288C1756.96,-288 1931.59,-288 2024.47,-288"/>
<polygon fill="#555555" stroke="#555555" points="2024.65,-290.8 2032.65,-288 2024.65,-285.2 2024.65,-290.8"/>
</g>
<!-- lc_solve -->
<g id="node11" class="node">
<title>lc_solve</title>
<path fill="#f7f7f7" stroke="#444444" d="M2578.9,-306C2578.9,-306 2460.9,-306 2460.9,-306 2454.9,-306 2448.9,-300 2448.9,-294 2448.9,-294 2448.9,-282 2448.9,-282 2448.9,-276 2454.9,-270 2460.9,-270 2460.9,-270 2578.9,-270 2578.9,-270 2584.9,-270 2590.9,-276 2590.9,-282 2590.9,-282 2590.9,-294 2590.9,-294 2590.9,-300 2584.9,-306 2578.9,-306"/>
<text text-anchor="middle" x="2519.9" y="-291.2" font-family="Helvetica,sans-Serif" font-size="11.00">Solve UWB position fix</text>
<text text-anchor="middle" x="2519.9" y="-279.2" font-family="Helvetica,sans-Serif" font-size="11.00">(WLS from ranges)</text>
</g>
<!-- lc_prop&#45;&gt;lc_solve -->
<g id="edge9" class="edge">
<title>lc_prop&#45;&gt;lc_solve</title>
<path fill="none" stroke="#555555" d="M2140.28,-288C2215.39,-288 2353.45,-288 2440.48,-288"/>
<polygon fill="#555555" stroke="#555555" points="2440.74,-290.8 2448.74,-288 2440.74,-285.2 2440.74,-290.8"/>
</g>
<!-- lc_gate -->
<g id="node12" class="node">
<title>lc_gate</title>
<path fill="#f7f7f7" stroke="#444444" d="M2777.26,-315C2777.26,-315 2688.26,-315 2688.26,-315 2682.26,-315 2676.26,-309 2676.26,-303 2676.26,-303 2676.26,-291 2676.26,-291 2676.26,-285 2682.26,-279 2688.26,-279 2688.26,-279 2777.26,-279 2777.26,-279 2783.26,-279 2789.26,-285 2789.26,-291 2789.26,-291 2789.26,-303 2789.26,-303 2789.26,-309 2783.26,-315 2777.26,-315"/>
<text text-anchor="middle" x="2732.76" y="-300.2" font-family="Helvetica,sans-Serif" font-size="11.00">Innovation gating</text>
<text text-anchor="middle" x="2732.76" y="-288.2" font-family="Helvetica,sans-Serif" font-size="11.00">(Chi&#45;square / NIS)</text>
</g>
<!-- lc_solve&#45;&gt;lc_gate -->
<g id="edge10" class="edge">
<title>lc_solve&#45;&gt;lc_gate</title>
<path fill="none" stroke="#555555" d="M2591.11,-291C2615.98,-292.06 2643.79,-293.25 2668.08,-294.28"/>
<polygon fill="#555555" stroke="#555555" points="2668.06,-297.08 2676.17,-294.63 2668.3,-291.49 2668.06,-297.08"/>
</g>
<!-- lc_upd -->
<g id="node13" class="node">
<title>lc_upd</title>
<path fill="#f7f7f7" stroke="#444444" d="M3049.26,-321C3049.26,-321 2987.26,-321 2987.26,-321 2981.26,-321 2975.26,-315 2975.26,-309 2975.26,-309 2975.26,-297 2975.26,-297 2975.26,-291 2981.26,-285 2987.26,-285 2987.26,-285 3049.26,-285 3049.26,-285 3055.26,-285 3061.26,-291 3061.26,-297 3061.26,-297 3061.26,-309 3061.26,-309 3061.26,-315 3055.26,-321 3049.26,-321"/>
<text text-anchor="middle" x="3018.26" y="-306.2" font-family="Helvetica,sans-Serif" font-size="11.00">EKF update</text>
<text text-anchor="middle" x="3018.26" y="-294.2" font-family="Helvetica,sans-Serif" font-size="11.00">(position fix)</text>
</g>
<!-- lc_gate&#45;&gt;lc_upd -->
<g id="edge11" class="edge">
<title>lc_gate&#45;&gt;lc_upd</title>
<path fill="none" stroke="#555555" d="M2789.43,-298.18C2841.06,-299.27 2917.21,-300.88 2967.02,-301.94"/>
<polygon fill="#555555" stroke="#555555" points="2967.03,-304.74 2975.09,-302.11 2967.15,-299.14 2967.03,-304.74"/>
</g>
<!-- f_out -->
<g id="node23" class="node">
<title>f_out</title>
<ellipse fill="#e6f4ea" stroke="#444444" cx="3217.62" cy="-360" rx="105.22" ry="22.76"/>
<text text-anchor="middle" x="3217.62" y="-363.2" font-family="Helvetica,sans-Serif" font-size="11.00">Save figures</text>
<text text-anchor="middle" x="3217.62" y="-351.2" font-family="Helvetica,sans-Serif" font-size="11.00">ch8_sensor_fusion/figs/*</text>
</g>
<!-- lc_upd&#45;&gt;f_out -->
<g id="edge21" class="edge">
<title>lc_upd&#45;&gt;f_out</title>
<path fill="none" stroke="#555555" d="M3061.6,-315.23C3086.24,-322.34 3117.92,-331.5 3146.22,-339.67"/>
<polygon fill="#555555" stroke="#555555" points="3145.64,-342.42 3154.11,-341.95 3147.2,-337.04 3145.64,-342.42"/>
</g>
<!-- tc_init -->
<g id="node15" class="node">
<title>tc_init</title>
<path fill="#f7f7f7" stroke="#444444" d="M1665.68,-378C1665.68,-378 1605.68,-378 1605.68,-378 1599.68,-378 1593.68,-372 1593.68,-366 1593.68,-366 1593.68,-354 1593.68,-354 1593.68,-348 1599.68,-342 1605.68,-342 1605.68,-342 1665.68,-342 1665.68,-342 1671.68,-342 1677.68,-348 1677.68,-354 1677.68,-354 1677.68,-366 1677.68,-366 1677.68,-372 1671.68,-378 1665.68,-378"/>
<text text-anchor="middle" x="1635.68" y="-363.2" font-family="Helvetica,sans-Serif" font-size="11.00">Init EKF</text>
<text text-anchor="middle" x="1635.68" y="-351.2" font-family="Helvetica,sans-Serif" font-size="11.00">(state + P0)</text>
</g>
<!-- tc_load&#45;&gt;tc_init -->
<g id="edge13" class="edge">
<title>tc_load&#45;&gt;tc_init</title>
<path fill="none" stroke="#555555" d="M1454.94,-360C1493.93,-360 1546.66,-360 1584.92,-360"/>
<polygon fill="#555555" stroke="#555555" points="1585.34,-362.8 1593.34,-360 1585.34,-357.2 1585.34,-362.8"/>
</g>
<!-- tc_prop -->
<g id="node16" class="node">
<title>tc_prop</title>
<path fill="#f7f7f7" stroke="#444444" d="M2127.86,-378C2127.86,-378 2044.86,-378 2044.86,-378 2038.86,-378 2032.86,-372 2032.86,-366 2032.86,-366 2032.86,-354 2032.86,-354 2032.86,-348 2038.86,-342 2044.86,-342 2044.86,-342 2127.86,-342 2127.86,-342 2133.86,-342 2139.86,-348 2139.86,-354 2139.86,-354 2139.86,-366 2139.86,-366 2139.86,-372 2133.86,-378 2127.86,-378"/>
<text text-anchor="middle" x="2086.36" y="-363.2" font-family="Helvetica,sans-Serif" font-size="11.00">IMU propagation</text>
<text text-anchor="middle" x="2086.36" y="-351.2" font-family="Helvetica,sans-Serif" font-size="11.00">(high&#45;rate)</text>
</g>
<!-- tc_init&#45;&gt;tc_prop -->
<g id="edge14" class="edge">
<title>tc_init&#45;&gt;tc_prop</title>
<path fill="none" stroke="#555555" d="M1677.69,-360C1756.96,-360 1931.59,-360 2024.47,-360"/>
<polygon fill="#555555" stroke="#555555" points="2024.65,-362.8 2032.65,-360 2024.65,-357.2 2024.65,-362.8"/>
</g>
<!-- tc_upd -->
<g id="node17" class="node">
<title>tc_upd</title>
<path fill="#f7f7f7" stroke="#444444" d="M2584.4,-378C2584.4,-378 2455.4,-378 2455.4,-378 2449.4,-378 2443.4,-372 2443.4,-366 2443.4,-366 2443.4,-354 2443.4,-354 2443.4,-348 2449.4,-342 2455.4,-342 2455.4,-342 2584.4,-342 2584.4,-342 2590.4,-342 2596.4,-348 2596.4,-354 2596.4,-354 2596.4,-366 2596.4,-366 2596.4,-372 2590.4,-378 2584.4,-378"/>
<text text-anchor="middle" x="2519.9" y="-363.2" font-family="Helvetica,sans-Serif" font-size="11.00">Per&#45;anchor UWB updates</text>
<text text-anchor="middle" x="2519.9" y="-351.2" font-family="Helvetica,sans-Serif" font-size="11.00">(ranges)</text>
</g>
<!-- tc_prop&#45;&gt;tc_upd -->
<g id="edge15" class="edge">
<title>tc_prop&#45;&gt;tc_upd</title>
<path fill="none" stroke="#555555" d="M2140.28,-360C2213.83,-360 2347.74,-360 2434.99,-360"/>
<polygon fill="#555555" stroke="#555555" points="2435.02,-362.8 2443.02,-360 2435.02,-357.2 2435.02,-362.8"/>
</g>
<!-- tc_rob -->
<g id="node18" class="node">
<title>tc_rob</title>
<path fill="#f7f7f7" stroke="#444444" d="M2938.26,-378C2938.26,-378 2826.26,-378 2826.26,-378 2820.26,-378 2814.26,-372 2814.26,-366 2814.26,-366 2814.26,-354 2814.26,-354 2814.26,-348 2820.26,-342 2826.26,-342 2826.26,-342 2938.26,-342 2938.26,-342 2944.26,-342 2950.26,-348 2950.26,-354 2950.26,-354 2950.26,-366 2950.26,-366 2950.26,-372 2944.26,-378 2938.26,-378"/>
<text text-anchor="middle" x="2882.26" y="-363.2" font-family="Helvetica,sans-Serif" font-size="11.00">Optional robustness</text>
<text text-anchor="middle" x="2882.26" y="-351.2" font-family="Helvetica,sans-Serif" font-size="11.00">(gating / reweighting)</text>
</g>
<!-- tc_upd&#45;&gt;tc_rob -->
<g id="edge16" class="edge">
<title>tc_upd&#45;&gt;tc_rob</title>
<path fill="none" stroke="#555555" d="M2596.44,-360C2657.97,-360 2744.41,-360 2805.89,-360"/>
<polygon fill="#555555" stroke="#555555" points="2806.01,-362.8 2814.01,-360 2806.01,-357.2 2806.01,-362.8"/>
</g>
<!-- tc_rob&#45;&gt;f_out -->
<g id="edge22" class="edge">
<title>tc_rob&#45;&gt;f_out</title>
<path fill="none" stroke="#555555" d="M2950.32,-360C2994.35,-360 3053.04,-360 3104.12,-360"/>
<polygon fill="#555555" stroke="#555555" points="3104.24,-362.8 3112.24,-360 3104.24,-357.2 3104.24,-362.8"/>
</g>
<!-- cmp_eval -->
<g id="node20" class="node">
<title>cmp_eval</title>
<path fill="#f7f7f7" stroke="#444444" d="M1900.18,-445C1900.18,-445 1774.18,-445 1774.18,-445 1768.18,-445 1762.18,-439 1762.18,-433 1762.18,-433 1762.18,-421 1762.18,-421 1762.18,-415 1768.18,-409 1774.18,-409 1774.18,-409 1900.18,-409 1900.18,-409 1906.18,-409 1912.18,-415 1912.18,-421 1912.18,-421 1912.18,-433 1912.18,-433 1912.18,-439 1906.18,-445 1900.18,-445"/>
<text text-anchor="middle" x="1837.18" y="-430.2" font-family="Helvetica,sans-Serif" font-size="11.00">Compute errors + RMSE</text>
<text text-anchor="middle" x="1837.18" y="-418.2" font-family="Helvetica,sans-Serif" font-size="11.00">and overlay plots</text>
</g>
<!-- cmp_run&#45;&gt;cmp_eval -->
<g id="edge18" class="edge">
<title>cmp_run&#45;&gt;cmp_eval</title>
<path fill="none" stroke="#555555" d="M1456.27,-431.38C1531.08,-430.52 1666.76,-428.95 1754.1,-427.95"/>
<polygon fill="#555555" stroke="#555555" points="1754.17,-430.75 1762.14,-427.85 1754.11,-425.15 1754.17,-430.75"/>
</g>
<!-- cmp_eval&#45;&gt;f_out -->
<g id="edge23" class="edge">
<title>cmp_eval&#45;&gt;f_out</title>
<path fill="none" stroke="#555555" d="M1912.58,-426C2006.9,-424.81 2174.54,-423 2318.04,-423 2318.04,-423 2318.04,-423 3019.26,-423 3072.2,-423 3129.5,-402.17 3168.65,-384.47"/>
<polygon fill="#555555" stroke="#555555" points="3170.14,-386.87 3176.23,-380.98 3167.8,-381.78 3170.14,-386.87"/>
</g>
<!-- tune_eval -->
<g id="node22" class="node">
<title>tune_eval</title>
<path fill="#f7f7f7" stroke="#444444" d="M2377.54,-495C2377.54,-495 2260.54,-495 2260.54,-495 2254.54,-495 2248.54,-489 2248.54,-483 2248.54,-483 2248.54,-471 2248.54,-471 2248.54,-465 2254.54,-459 2260.54,-459 2260.54,-459 2377.54,-459 2377.54,-459 2383.54,-459 2389.54,-465 2389.54,-471 2389.54,-471 2389.54,-483 2389.54,-483 2389.54,-489 2383.54,-495 2377.54,-495"/>
<text text-anchor="middle" x="2319.04" y="-480.2" font-family="Helvetica,sans-Serif" font-size="11.00">RMSE / NIS summaries</text>
<text text-anchor="middle" x="2319.04" y="-468.2" font-family="Helvetica,sans-Serif" font-size="11.00">trade&#45;off plots</text>
</g>
<!-- tune_grid&#45;&gt;tune_eval -->
<g id="edge20" class="edge">
<title>tune_grid&#45;&gt;tune_eval</title>
<path fill="none" stroke="#555555" d="M1469.9,-502C1636.21,-497.1 2063.96,-484.49 2240.28,-479.29"/>
<polygon fill="#555555" stroke="#555555" points="2240.57,-482.09 2248.49,-479.05 2240.41,-476.49 2240.57,-482.09"/>
</g>
<!-- tune_eval&#45;&gt;f_out -->
<g id="edge24" class="edge">
<title>tune_eval&#45;&gt;f_out</title>
<path fill="none" stroke="#555555" d="M2389.61,-475.34C2456.44,-473.88 2560.24,-472 2650.26,-472 2650.26,-472 2650.26,-472 3019.26,-472 3087.41,-472 3153.58,-420.86 3189.32,-387.69"/>
<polygon fill="#555555" stroke="#555555" points="3191.32,-389.66 3195.21,-382.13 3187.47,-385.58 3191.32,-389.66"/>
</g>
<!-- end -->
<g id="node38" class="node">
<title>end</title>
<ellipse fill="#e8f0fe" stroke="#444444" cx="3400.98" cy="-145" rx="27" ry="18"/>
<text text-anchor="middle" x="3400.98" y="-142.2" font-family="Helvetica,sans-Serif" font-size="11.00">End</text>
</g>
<!-- f_out&#45;&gt;end -->
<g id="edge41" class="edge">
<title>f_out&#45;&gt;end</title>
<path fill="none" stroke="#888888" d="M3237.68,-337.4C3272.82,-295.75 3347.33,-207.41 3381.79,-166.55"/>
<polygon fill="#888888" stroke="#888888" points="3383.95,-168.34 3386.97,-160.42 3379.67,-164.73 3383.95,-168.34"/>
</g>
<!-- c_intr -->
<g id="node25" class="node">
<title>c_intr</title>
<path fill="#f7f7f7" stroke="#444444" d="M1217.18,-148C1217.18,-148 1113.18,-148 1113.18,-148 1107.18,-148 1101.18,-142 1101.18,-136 1101.18,-136 1101.18,-124 1101.18,-124 1101.18,-118 1107.18,-112 1113.18,-112 1113.18,-112 1217.18,-112 1217.18,-112 1223.18,-112 1229.18,-118 1229.18,-124 1229.18,-124 1229.18,-136 1229.18,-136 1229.18,-142 1223.18,-148 1217.18,-148"/>
<text text-anchor="middle" x="1165.18" y="-133.2" font-family="Helvetica,sans-Serif" font-size="11.00">calibration_demo.py</text>
<text text-anchor="middle" x="1165.18" y="-121.2" font-family="Helvetica,sans-Serif" font-size="11.00">Intrinsic + Extrinsic</text>
</g>
<!-- c_decide&#45;&gt;c_intr -->
<g id="edge25" class="edge">
<title>c_decide&#45;&gt;c_intr</title>
<path fill="none" stroke="#555555" d="M973.67,-156.79C1009.35,-151.78 1055.24,-145.32 1093.04,-140.01"/>
<polygon fill="#555555" stroke="#555555" points="1093.44,-142.78 1100.97,-138.89 1092.66,-137.23 1093.44,-142.78"/>
</g>
<!-- c_temp -->
<g id="node26" class="node">
<title>c_temp</title>
<path fill="#f7f7f7" stroke="#444444" d="M1244.18,-220C1244.18,-220 1086.18,-220 1086.18,-220 1080.18,-220 1074.18,-214 1074.18,-208 1074.18,-208 1074.18,-196 1074.18,-196 1074.18,-190 1080.18,-184 1086.18,-184 1086.18,-184 1244.18,-184 1244.18,-184 1250.18,-184 1256.18,-190 1256.18,-196 1256.18,-196 1256.18,-208 1256.18,-208 1256.18,-214 1250.18,-220 1244.18,-220"/>
<text text-anchor="middle" x="1165.18" y="-205.2" font-family="Helvetica,sans-Serif" font-size="11.00">temporal_calibration_demo.py</text>
<text text-anchor="middle" x="1165.18" y="-193.2" font-family="Helvetica,sans-Serif" font-size="11.00">Temporal calibration</text>
</g>
<!-- c_decide&#45;&gt;c_temp -->
<g id="edge26" class="edge">
<title>c_decide&#45;&gt;c_temp</title>
<path fill="none" stroke="#555555" d="M972.11,-173.44C999.88,-177.57 1034.11,-182.66 1065.95,-187.39"/>
<polygon fill="#555555" stroke="#555555" points="1065.66,-190.18 1073.98,-188.59 1066.48,-184.64 1065.66,-190.18"/>
</g>
<!-- intr_data -->
<g id="node27" class="node">
<title>intr_data</title>
<path fill="#f7f7f7" stroke="#444444" d="M1471.68,-148C1471.68,-148 1330.68,-148 1330.68,-148 1324.68,-148 1318.68,-142 1318.68,-136 1318.68,-136 1318.68,-124 1318.68,-124 1318.68,-118 1324.68,-112 1330.68,-112 1330.68,-112 1471.68,-112 1471.68,-112 1477.68,-112 1483.68,-118 1483.68,-124 1483.68,-124 1483.68,-136 1483.68,-136 1483.68,-142 1477.68,-148 1471.68,-148"/>
<text text-anchor="middle" x="1401.18" y="-133.2" font-family="Helvetica,sans-Serif" font-size="11.00">Generate / load samples</text>
<text text-anchor="middle" x="1401.18" y="-121.2" font-family="Helvetica,sans-Serif" font-size="11.00">(stationary IMU, 2D poses)</text>
</g>
<!-- c_intr&#45;&gt;intr_data -->
<g id="edge27" class="edge">
<title>c_intr&#45;&gt;intr_data</title>
<path fill="none" stroke="#555555" d="M1229.2,-130C1254.1,-130 1283.18,-130 1310.23,-130"/>
<polygon fill="#555555" stroke="#555555" points="1310.55,-132.8 1318.55,-130 1310.55,-127.2 1310.55,-132.8"/>
</g>
<!-- temp_load -->
<g id="node29" class="node">
<title>temp_load</title>
<path fill="#f7f7f7" stroke="#444444" d="M1442.68,-220C1442.68,-220 1359.68,-220 1359.68,-220 1353.68,-220 1347.68,-214 1347.68,-208 1347.68,-208 1347.68,-196 1347.68,-196 1347.68,-190 1353.68,-184 1359.68,-184 1359.68,-184 1442.68,-184 1442.68,-184 1448.68,-184 1454.68,-190 1454.68,-196 1454.68,-196 1454.68,-208 1454.68,-208 1454.68,-214 1448.68,-220 1442.68,-220"/>
<text text-anchor="middle" x="1401.18" y="-205.2" font-family="Helvetica,sans-Serif" font-size="11.00">Load dataset</text>
<text text-anchor="middle" x="1401.18" y="-193.2" font-family="Helvetica,sans-Serif" font-size="11.00">(data/sim/ch8_*)</text>
</g>
<!-- c_temp&#45;&gt;temp_load -->
<g id="edge29" class="edge">
<title>c_temp&#45;&gt;temp_load</title>
<path fill="none" stroke="#555555" d="M1256.32,-202C1284.2,-202 1314.23,-202 1339.61,-202"/>
<polygon fill="#555555" stroke="#555555" points="1339.68,-204.8 1347.68,-202 1339.68,-199.2 1339.68,-204.8"/>
</g>
<!-- intr_est -->
<g id="node28" class="node">
<title>intr_est</title>
<path fill="#f7f7f7" stroke="#444444" d="M1912.18,-150C1912.18,-150 1762.18,-150 1762.18,-150 1756.18,-150 1750.18,-144 1750.18,-138 1750.18,-138 1750.18,-126 1750.18,-126 1750.18,-120 1756.18,-114 1762.18,-114 1762.18,-114 1912.18,-114 1912.18,-114 1918.18,-114 1924.18,-120 1924.18,-126 1924.18,-126 1924.18,-138 1924.18,-138 1924.18,-144 1918.18,-150 1912.18,-150"/>
<text text-anchor="middle" x="1837.18" y="-135.2" font-family="Helvetica,sans-Serif" font-size="11.00">Estimate biases + extrinsics</text>
<text text-anchor="middle" x="1837.18" y="-123.2" font-family="Helvetica,sans-Serif" font-size="11.00">(least squares)</text>
</g>
<!-- intr_data&#45;&gt;intr_est -->
<g id="edge28" class="edge">
<title>intr_data&#45;&gt;intr_est</title>
<path fill="none" stroke="#555555" d="M1483.81,-130.38C1557.14,-130.71 1664.8,-131.21 1741.8,-131.57"/>
<polygon fill="#555555" stroke="#555555" points="1742.07,-134.37 1750.09,-131.6 1742.1,-128.77 1742.07,-134.37"/>
</g>
<!-- c_out -->
<g id="node32" class="node">
<title>c_out</title>
<ellipse fill="#e6f4ea" stroke="#444444" cx="2519.9" cy="-145" rx="105.22" ry="22.76"/>
<text text-anchor="middle" x="2519.9" y="-148.2" font-family="Helvetica,sans-Serif" font-size="11.00">Save figures</text>
<text text-anchor="middle" x="2519.9" y="-136.2" font-family="Helvetica,sans-Serif" font-size="11.00">ch8_sensor_fusion/figs/*</text>
</g>
<!-- intr_est&#45;&gt;c_out -->
<g id="edge32" class="edge">
<title>intr_est&#45;&gt;c_out</title>
<path fill="none" stroke="#555555" d="M1924.4,-133.65C2046.78,-135.98 2271.02,-140.27 2406.37,-142.85"/>
<polygon fill="#555555" stroke="#555555" points="2406.7,-145.66 2414.75,-143.01 2406.81,-140.06 2406.7,-145.66"/>
</g>
<!-- temp_sync -->
<g id="node30" class="node">
<title>temp_sync</title>
<path fill="#f7f7f7" stroke="#444444" d="M1688.18,-219C1688.18,-219 1583.18,-219 1583.18,-219 1577.18,-219 1571.18,-213 1571.18,-207 1571.18,-207 1571.18,-195 1571.18,-195 1571.18,-189 1577.18,-183 1583.18,-183 1583.18,-183 1688.18,-183 1688.18,-183 1694.18,-183 1700.18,-189 1700.18,-195 1700.18,-195 1700.18,-207 1700.18,-207 1700.18,-213 1694.18,-219 1688.18,-219"/>
<text text-anchor="middle" x="1635.68" y="-204.2" font-family="Helvetica,sans-Serif" font-size="11.00">Estimate time offset</text>
<text text-anchor="middle" x="1635.68" y="-192.2" font-family="Helvetica,sans-Serif" font-size="11.00">(TimeSyncModel)</text>
</g>
<!-- temp_load&#45;&gt;temp_sync -->
<g id="edge30" class="edge">
<title>temp_load&#45;&gt;temp_sync</title>
<path fill="none" stroke="#555555" d="M1454.94,-201.77C1486.82,-201.64 1527.88,-201.46 1562.71,-201.31"/>
<polygon fill="#555555" stroke="#555555" points="1562.97,-204.11 1570.96,-201.27 1562.95,-198.51 1562.97,-204.11"/>
</g>
<!-- temp_fuse -->
<g id="node31" class="node">
<title>temp_fuse</title>
<path fill="#f7f7f7" stroke="#444444" d="M2154.36,-213C2154.36,-213 2018.36,-213 2018.36,-213 2012.36,-213 2006.36,-207 2006.36,-201 2006.36,-201 2006.36,-189 2006.36,-189 2006.36,-183 2012.36,-177 2018.36,-177 2018.36,-177 2154.36,-177 2154.36,-177 2160.36,-177 2166.36,-183 2166.36,-189 2166.36,-189 2166.36,-201 2166.36,-201 2166.36,-207 2160.36,-213 2154.36,-213"/>
<text text-anchor="middle" x="2086.36" y="-192.2" font-family="Helvetica,sans-Serif" font-size="11.00">Run EKF with synced data</text>
</g>
<!-- temp_sync&#45;&gt;temp_fuse -->
<g id="edge31" class="edge">
<title>temp_sync&#45;&gt;temp_fuse</title>
<path fill="none" stroke="#555555" d="M1700.49,-200.15C1778.5,-199.1 1910.89,-197.33 1998.23,-196.17"/>
<polygon fill="#555555" stroke="#555555" points="1998.32,-198.96 2006.28,-196.06 1998.24,-193.36 1998.32,-198.96"/>
</g>
<!-- temp_fuse&#45;&gt;c_out -->
<g id="edge33" class="edge">
<title>temp_fuse&#45;&gt;c_out</title>
<path fill="none" stroke="#555555" d="M2166.51,-185.83C2237.41,-177.61 2341.74,-165.53 2418.49,-156.63"/>
<polygon fill="#555555" stroke="#555555" points="2419.15,-159.38 2426.77,-155.67 2418.5,-153.81 2419.15,-159.38"/>
</g>
<!-- c_out&#45;&gt;end -->
<g id="edge42" class="edge">
<title>c_out&#45;&gt;end</title>
<path fill="none" stroke="#888888" d="M2625.47,-145C2659.38,-145 2697.16,-145 2731.76,-145 2731.76,-145 2731.76,-145 3218.62,-145 3269.77,-145 3329.05,-145 3365.53,-145"/>
<polygon fill="#888888" stroke="#888888" points="3365.85,-147.8 3373.85,-145 3365.85,-142.2 3365.85,-147.8"/>
</g>
<!-- o_gen -->
<g id="node34" class="node">
<title>o_gen</title>
<path fill="#f7f7f7" stroke="#444444" d="M1232.18,-59C1232.18,-59 1098.18,-59 1098.18,-59 1092.18,-59 1086.18,-53 1086.18,-47 1086.18,-47 1086.18,-35 1086.18,-35 1086.18,-29 1092.18,-23 1098.18,-23 1098.18,-23 1232.18,-23 1232.18,-23 1238.18,-23 1244.18,-29 1244.18,-35 1244.18,-35 1244.18,-47 1244.18,-47 1244.18,-53 1238.18,-59 1232.18,-59"/>
<text text-anchor="middle" x="1165.18" y="-44.2" font-family="Helvetica,sans-Serif" font-size="11.00">Generate two trajectories</text>
<text text-anchor="middle" x="1165.18" y="-32.2" font-family="Helvetica,sans-Serif" font-size="11.00">(translation offset)</text>
</g>
<!-- o_run&#45;&gt;o_gen -->
<g id="edge34" class="edge">
<title>o_run&#45;&gt;o_gen</title>
<path fill="none" stroke="#555555" d="M984.98,-42.44C1013.75,-42.21 1047.41,-41.94 1077.74,-41.69"/>
<polygon fill="#555555" stroke="#555555" points="1077.81,-44.49 1085.78,-41.63 1077.76,-38.89 1077.81,-44.49"/>
</g>
<!-- o_odo -->
<g id="node35" class="node">
<title>o_odo</title>
<path fill="#f7f7f7" stroke="#444444" d="M1483.18,-58C1483.18,-58 1319.18,-58 1319.18,-58 1313.18,-58 1307.18,-52 1307.18,-46 1307.18,-46 1307.18,-34 1307.18,-34 1307.18,-28 1313.18,-22 1319.18,-22 1319.18,-22 1483.18,-22 1483.18,-22 1489.18,-22 1495.18,-28 1495.18,-34 1495.18,-34 1495.18,-46 1495.18,-46 1495.18,-52 1489.18,-58 1483.18,-58"/>
<text text-anchor="middle" x="1401.18" y="-43.2" font-family="Helvetica,sans-Serif" font-size="11.00">Compute odometry increments</text>
<text text-anchor="middle" x="1401.18" y="-31.2" font-family="Helvetica,sans-Serif" font-size="11.00">(same for both)</text>
</g>
<!-- o_gen&#45;&gt;o_odo -->
<g id="edge35" class="edge">
<title>o_gen&#45;&gt;o_odo</title>
<path fill="none" stroke="#555555" d="M1244.43,-40.67C1261.82,-40.59 1280.51,-40.51 1298.69,-40.43"/>
<polygon fill="#555555" stroke="#555555" points="1299.01,-43.23 1307,-40.4 1298.99,-37.63 1299.01,-43.23"/>
</g>
<!-- o_fix -->
<g id="node36" class="node">
<title>o_fix</title>
<path fill="#f7f7f7" stroke="#444444" d="M1713.18,-57C1713.18,-57 1558.18,-57 1558.18,-57 1552.18,-57 1546.18,-51 1546.18,-45 1546.18,-45 1546.18,-33 1546.18,-33 1546.18,-27 1552.18,-21 1558.18,-21 1558.18,-21 1713.18,-21 1713.18,-21 1719.18,-21 1725.18,-27 1725.18,-33 1725.18,-33 1725.18,-45 1725.18,-45 1725.18,-51 1719.18,-57 1713.18,-57"/>
<text text-anchor="middle" x="1635.68" y="-42.2" font-family="Helvetica,sans-Serif" font-size="11.00">Add occasional absolute fixes</text>
<text text-anchor="middle" x="1635.68" y="-30.2" font-family="Helvetica,sans-Serif" font-size="11.00">(position)</text>
</g>
<!-- o_odo&#45;&gt;o_fix -->
<g id="edge36" class="edge">
<title>o_odo&#45;&gt;o_fix</title>
<path fill="none" stroke="#555555" d="M1495.41,-39.6C1509.35,-39.54 1523.75,-39.48 1537.76,-39.42"/>
<polygon fill="#555555" stroke="#555555" points="1537.98,-42.22 1545.97,-39.38 1537.95,-36.62 1537.98,-42.22"/>
</g>
<!-- o_plot -->
<g id="node37" class="node">
<title>o_plot</title>
<ellipse fill="#e6f4ea" stroke="#444444" cx="2086.36" cy="-39" rx="137.36" ry="22.76"/>
<text text-anchor="middle" x="2086.36" y="-42.2" font-family="Helvetica,sans-Serif" font-size="11.00">Plot unobservable mode</text>
<text text-anchor="middle" x="2086.36" y="-30.2" font-family="Helvetica,sans-Serif" font-size="11.00">and fixes restoring observability</text>
</g>
<!-- o_fix&#45;&gt;o_plot -->
<g id="edge37" class="edge">
<title>o_fix&#45;&gt;o_plot</title>
<path fill="none" stroke="#555555" d="M1725.33,-39C1786.8,-39 1870.06,-39 1941.02,-39"/>
<polygon fill="#555555" stroke="#555555" points="1941.17,-41.8 1949.17,-39 1941.17,-36.2 1941.17,-41.8"/>
</g>
<!-- o_plot&#45;&gt;end -->
<g id="edge43" class="edge">
<title>o_plot&#45;&gt;end</title>
<path fill="none" stroke="#888888" d="M2218.1,-45.45C2303.66,-49.12 2417.89,-53 2518.9,-53 2518.9,-53 2518.9,-53 3218.62,-53 3281.9,-53 3345.48,-98.11 3377.91,-125.15"/>
<polygon fill="#888888" stroke="#888888" points="3376.44,-127.58 3384.35,-130.62 3380.07,-123.31 3376.44,-127.58"/>
</g>
</g>
</svg>
