<?xml version="1.0" encoding="UTF-8" standalone="no"?>
<!DOCTYPE svg PUBLIC "-//W3C//DTD SVG 1.1//EN"
 "http://www.w3.org/Graphics/SVG/1.1/DTD/svg11.dtd">
<!-- Generated by graphviz version 2.43.0 (0)
 -->
<!-- Title: ch6_flow Pages: 1 -->
<svg width="1909pt" height="463pt"
 viewBox="0.00 0.00 1908.92 463.00" xmlns="http://www.w3.org/2000/svg" xmlns:xlink="http://www.w3.org/1999/xlink">
<g id="graph0" class="graph" transform="scale(1 1) rotate(0) translate(4 459)">
<title>ch6_flow</title>
<polygon fill="white" stroke="transparent" points="-4,4 -4,-459 1904.92,-459 1904.92,4 -4,4"/>
<text text-anchor="middle" x="950.46" y="-436.6" font-family="Helvetica,sans-Serif" font-size="18.00">Chapter 6 (Dead Reckoning) — Clean Execution Map</text>
<g id="clust1" class="cluster">
<title>cluster_entry</title>
<polygon fill="none" stroke="#bbbbbb" points="35.92,-240 35.92,-419 339.92,-419 339.92,-240 35.92,-240"/>
<text text-anchor="middle" x="187.92" y="-400.6" font-family="Helvetica,sans-Serif" font-size="18.00">Entry</text>
</g>
<g id="clust2" class="cluster">
<title>cluster_data</title>
<polygon fill="none" stroke="#bbbbbb" points="347.92,-240 347.92,-320 1254.92,-320 1254.92,-240 347.92,-240"/>
<text text-anchor="middle" x="801.42" y="-301.6" font-family="Helvetica,sans-Serif" font-size="18.00">Optional pre&#45;generated datasets (data/sim/)</text>
</g>
<g id="clust3" class="cluster">
<title>cluster_core</title>
<polygon fill="none" stroke="#bbbbbb" points="1262.92,-240 1262.92,-320 1892.92,-320 1892.92,-240 1262.92,-240"/>
<text text-anchor="middle" x="1577.92" y="-301.6" font-family="Helvetica,sans-Serif" font-size="18.00">Core modules used</text>
</g>
<g id="clust4" class="cluster">
<title>cluster_alg</title>
<polygon fill="none" stroke="#bbbbbb" points="524.92,-107 524.92,-211 1752.92,-211 1752.92,-107 524.92,-107"/>
<text text-anchor="middle" x="1138.92" y="-192.6" font-family="Helvetica,sans-Serif" font-size="18.00">Method&#45;specific pipeline</text>
</g>
<g id="clust5" class="cluster">
<title>cluster_out</title>
<polygon fill="none" stroke="#bbbbbb" points="1033.92,-8 1033.92,-88 1247.92,-88 1247.92,-8 1033.92,-8"/>
<text text-anchor="middle" x="1140.92" y="-69.6" font-family="Helvetica,sans-Serif" font-size="18.00">Outputs</text>
</g>
<!-- run -->
<g id="node1" class="node">
<title>run</title>
<path fill="none" stroke="black" d="M320.42,-383C320.42,-383 55.42,-383 55.42,-383 49.42,-383 43.42,-377 43.42,-371 43.42,-371 43.42,-359 43.42,-359 43.42,-353 49.42,-347 55.42,-347 55.42,-347 320.42,-347 320.42,-347 326.42,-347 332.42,-353 332.42,-359 332.42,-359 332.42,-371 332.42,-371 332.42,-377 326.42,-383 320.42,-383"/>
<text text-anchor="middle" x="187.92" y="-368.4" font-family="Helvetica,sans-Serif" font-size="12.00">Run one example:</text>
<text text-anchor="middle" x="187.92" y="-355.4" font-family="Helvetica,sans-Serif" font-size="12.00">python ch6_dead_reckoning/&lt;example_*.py&gt;</text>
</g>
<!-- choose -->
<g id="node2" class="node">
<title>choose</title>
<polygon fill="none" stroke="black" points="247.92,-284 164.27,-266 247.92,-248 331.57,-266 247.92,-284"/>
<text text-anchor="middle" x="247.92" y="-262.9" font-family="Helvetica,sans-Serif" font-size="12.00">Which script?</text>
</g>
<!-- run&#45;&gt;choose -->
<g id="edge1" class="edge">
<title>run&#45;&gt;choose</title>
<path fill="none" stroke="black" d="M198.65,-346.66C208.21,-331.21 222.29,-308.45 232.95,-291.21"/>
<polygon fill="black" stroke="black" points="236.19,-292.62 238.47,-282.28 230.24,-288.94 236.19,-292.62"/>
</g>
<!-- allan -->
<g id="node11" class="node">
<title>allan</title>
<path fill="none" stroke="black" d="M1209.42,-168.5C1209.42,-168.5 1072.42,-168.5 1072.42,-168.5 1066.42,-168.5 1060.42,-162.5 1060.42,-156.5 1060.42,-156.5 1060.42,-133.5 1060.42,-133.5 1060.42,-127.5 1066.42,-121.5 1072.42,-121.5 1072.42,-121.5 1209.42,-121.5 1209.42,-121.5 1215.42,-121.5 1221.42,-127.5 1221.42,-133.5 1221.42,-133.5 1221.42,-156.5 1221.42,-156.5 1221.42,-162.5 1215.42,-168.5 1209.42,-168.5"/>
<text text-anchor="middle" x="1140.92" y="-154.9" font-family="Helvetica,sans-Serif" font-size="12.00">Allan variance:</text>
<text text-anchor="middle" x="1140.92" y="-141.9" font-family="Helvetica,sans-Serif" font-size="12.00">compute Allan deviation</text>
<text text-anchor="middle" x="1140.92" y="-128.9" font-family="Helvetica,sans-Serif" font-size="12.00">(accel + gyro)</text>
</g>
<!-- choose&#45;&gt;allan -->
<g id="edge2" class="edge">
<title>choose&#45;&gt;allan</title>
<path fill="none" stroke="black" d="M282.43,-255.35C300.64,-250.42 323.41,-244.53 343.92,-240 368.18,-234.64 375.29,-237.65 398.92,-230 409.7,-226.51 410.89,-221.58 421.92,-219 455.96,-211.05 1017.74,-221.96 1050.92,-211 1072.94,-203.73 1094.14,-188.93 1110.43,-175.29"/>
<polygon fill="black" stroke="black" points="1112.74,-177.92 1118.02,-168.73 1108.16,-172.63 1112.74,-177.92"/>
<text text-anchor="middle" x="489.42" y="-222" font-family="Helvetica,sans-Serif" font-size="10.00">example_allan_variance.py</text>
</g>
<!-- env -->
<g id="node12" class="node">
<title>env</title>
<path fill="none" stroke="black" d="M666.92,-168.5C666.92,-168.5 544.92,-168.5 544.92,-168.5 538.92,-168.5 532.92,-162.5 532.92,-156.5 532.92,-156.5 532.92,-133.5 532.92,-133.5 532.92,-127.5 538.92,-121.5 544.92,-121.5 544.92,-121.5 666.92,-121.5 666.92,-121.5 672.92,-121.5 678.92,-127.5 678.92,-133.5 678.92,-133.5 678.92,-156.5 678.92,-156.5 678.92,-162.5 672.92,-168.5 666.92,-168.5"/>
<text text-anchor="middle" x="605.92" y="-154.9" font-family="Helvetica,sans-Serif" font-size="12.00">Environment sensors:</text>
<text text-anchor="middle" x="605.92" y="-141.9" font-family="Helvetica,sans-Serif" font-size="12.00">heading (mag/gyro)</text>
<text text-anchor="middle" x="605.92" y="-128.9" font-family="Helvetica,sans-Serif" font-size="12.00">altitude (baro)</text>
</g>
<!-- choose&#45;&gt;env -->
<g id="edge3" class="edge">
<title>choose&#45;&gt;env</title>
<path fill="none" stroke="black" d="M180.51,-262.47C100.01,-258.17 -20.88,-246.99 3.92,-219 37.76,-180.81 365.6,-158.6 522.74,-150.06"/>
<polygon fill="black" stroke="black" points="523.04,-153.55 532.83,-149.52 522.66,-146.56 523.04,-153.55"/>
<text text-anchor="middle" x="66.92" y="-222" font-family="Helvetica,sans-Serif" font-size="10.00">example_environment.py</text>
</g>
<!-- strap -->
<g id="node13" class="node">
<title>strap</title>
<path fill="none" stroke="black" d="M1363.92,-168.5C1363.92,-168.5 1251.92,-168.5 1251.92,-168.5 1245.92,-168.5 1239.92,-162.5 1239.92,-156.5 1239.92,-156.5 1239.92,-133.5 1239.92,-133.5 1239.92,-127.5 1245.92,-121.5 1251.92,-121.5 1251.92,-121.5 1363.92,-121.5 1363.92,-121.5 1369.92,-121.5 1375.92,-127.5 1375.92,-133.5 1375.92,-133.5 1375.92,-156.5 1375.92,-156.5 1375.92,-162.5 1369.92,-168.5 1363.92,-168.5"/>
<text text-anchor="middle" x="1307.92" y="-154.9" font-family="Helvetica,sans-Serif" font-size="12.00">IMU strapdown:</text>
<text text-anchor="middle" x="1307.92" y="-141.9" font-family="Helvetica,sans-Serif" font-size="12.00">attitude + vel + pos</text>
<text text-anchor="middle" x="1307.92" y="-128.9" font-family="Helvetica,sans-Serif" font-size="12.00">(pure integration)</text>
</g>
<!-- choose&#45;&gt;strap -->
<g id="edge4" class="edge">
<title>choose&#45;&gt;strap</title>
<path fill="none" stroke="black" d="M280.01,-254.86C298.5,-249.47 322.3,-243.29 343.92,-240 437.62,-225.76 465.02,-253.13 556.92,-230 567.91,-227.23 568.89,-221.57 579.92,-219 615.15,-210.78 1197.03,-223.63 1230.92,-211 1250.29,-203.78 1268.18,-189.39 1281.83,-175.97"/>
<polygon fill="black" stroke="black" points="1284.47,-178.27 1288.96,-168.68 1279.47,-173.38 1284.47,-178.27"/>
<text text-anchor="middle" x="649.42" y="-222" font-family="Helvetica,sans-Serif" font-size="10.00">example_imu_strapdown.py</text>
</g>
<!-- zupt -->
<g id="node14" class="node">
<title>zupt</title>
<path fill="none" stroke="black" d="M1559.42,-168.5C1559.42,-168.5 1406.42,-168.5 1406.42,-168.5 1400.42,-168.5 1394.42,-162.5 1394.42,-156.5 1394.42,-156.5 1394.42,-133.5 1394.42,-133.5 1394.42,-127.5 1400.42,-121.5 1406.42,-121.5 1406.42,-121.5 1559.42,-121.5 1559.42,-121.5 1565.42,-121.5 1571.42,-127.5 1571.42,-133.5 1571.42,-133.5 1571.42,-156.5 1571.42,-156.5 1571.42,-162.5 1565.42,-168.5 1559.42,-168.5"/>
<text text-anchor="middle" x="1482.92" y="-154.9" font-family="Helvetica,sans-Serif" font-size="12.00">Foot&#45;mounted INS + ZUPT:</text>
<text text-anchor="middle" x="1482.92" y="-141.9" font-family="Helvetica,sans-Serif" font-size="12.00">stance detection</text>
<text text-anchor="middle" x="1482.92" y="-128.9" font-family="Helvetica,sans-Serif" font-size="12.00">+ EKF updates</text>
</g>
<!-- choose&#45;&gt;zupt -->
<g id="edge5" class="edge">
<title>choose&#45;&gt;zupt</title>
<path fill="none" stroke="black" d="M279.99,-254.69C298.47,-249.24 322.27,-243.07 343.92,-240 385.19,-234.15 678.82,-241.35 718.92,-230 728.31,-227.34 728.52,-221.59 737.92,-219 807.24,-199.92 1316.22,-232.18 1384.92,-211 1408.4,-203.76 1431.45,-188.97 1449.3,-175.33"/>
<polygon fill="black" stroke="black" points="1451.94,-177.7 1457.62,-168.76 1447.6,-172.21 1451.94,-177.7"/>
<text text-anchor="middle" x="780.42" y="-222" font-family="Helvetica,sans-Serif" font-size="10.00">example_zupt.py</text>
</g>
<!-- wheel -->
<g id="node15" class="node">
<title>wheel</title>
<path fill="none" stroke="black" d="M1030.42,-168.5C1030.42,-168.5 913.42,-168.5 913.42,-168.5 907.42,-168.5 901.42,-162.5 901.42,-156.5 901.42,-156.5 901.42,-133.5 901.42,-133.5 901.42,-127.5 907.42,-121.5 913.42,-121.5 913.42,-121.5 1030.42,-121.5 1030.42,-121.5 1036.42,-121.5 1042.42,-127.5 1042.42,-133.5 1042.42,-133.5 1042.42,-156.5 1042.42,-156.5 1042.42,-162.5 1036.42,-168.5 1030.42,-168.5"/>
<text text-anchor="middle" x="971.92" y="-154.9" font-family="Helvetica,sans-Serif" font-size="12.00">Wheel odometry:</text>
<text text-anchor="middle" x="971.92" y="-141.9" font-family="Helvetica,sans-Serif" font-size="12.00">integrate wheel ticks</text>
<text text-anchor="middle" x="971.92" y="-128.9" font-family="Helvetica,sans-Serif" font-size="12.00">&#45;&gt; 2D pose</text>
</g>
<!-- choose&#45;&gt;wheel -->
<g id="edge6" class="edge">
<title>choose&#45;&gt;wheel</title>
<path fill="none" stroke="black" d="M245.61,-248.46C245.22,-238.38 246.76,-226.11 254.92,-219 268.27,-207.38 875.29,-217.03 891.92,-211 911.8,-203.8 930.37,-189.41 944.6,-175.99"/>
<polygon fill="black" stroke="black" points="947.35,-178.19 952.04,-168.69 942.45,-173.19 947.35,-178.19"/>
<text text-anchor="middle" x="326.92" y="-222" font-family="Helvetica,sans-Serif" font-size="10.00">example_wheel_odometry.py</text>
</g>
<!-- pdr -->
<g id="node16" class="node">
<title>pdr</title>
<path fill="none" stroke="black" d="M870.92,-168.5C870.92,-168.5 708.92,-168.5 708.92,-168.5 702.92,-168.5 696.92,-162.5 696.92,-156.5 696.92,-156.5 696.92,-133.5 696.92,-133.5 696.92,-127.5 702.92,-121.5 708.92,-121.5 708.92,-121.5 870.92,-121.5 870.92,-121.5 876.92,-121.5 882.92,-127.5 882.92,-133.5 882.92,-133.5 882.92,-156.5 882.92,-156.5 882.92,-162.5 876.92,-168.5 870.92,-168.5"/>
<text text-anchor="middle" x="789.92" y="-154.9" font-family="Helvetica,sans-Serif" font-size="12.00">PDR (step&#45;and&#45;heading):</text>
<text text-anchor="middle" x="789.92" y="-141.9" font-family="Helvetica,sans-Serif" font-size="12.00">step detection + step length</text>
<text text-anchor="middle" x="789.92" y="-128.9" font-family="Helvetica,sans-Serif" font-size="12.00">+ heading &#45;&gt; 2D pos</text>
</g>
<!-- choose&#45;&gt;pdr -->
<g id="edge7" class="edge">
<title>choose&#45;&gt;pdr</title>
<path fill="none" stroke="black" d="M201.97,-257.8C169.09,-250.84 133.76,-238.45 152.92,-219 163.35,-208.41 673.69,-215.27 687.92,-211 712.34,-203.68 736.54,-188.69 755.24,-174.94"/>
<polygon fill="black" stroke="black" points="757.56,-177.57 763.42,-168.74 753.33,-171.99 757.56,-177.57"/>
<text text-anchor="middle" x="192.42" y="-222" font-family="Helvetica,sans-Serif" font-size="10.00">example_pdr.py</text>
</g>
<!-- cmp -->
<g id="node17" class="node">
<title>cmp</title>
<path fill="none" stroke="black" d="M1732.42,-175C1732.42,-175 1601.42,-175 1601.42,-175 1595.42,-175 1589.42,-169 1589.42,-163 1589.42,-163 1589.42,-127 1589.42,-127 1589.42,-121 1595.42,-115 1601.42,-115 1601.42,-115 1732.42,-115 1732.42,-115 1738.42,-115 1744.42,-121 1744.42,-127 1744.42,-127 1744.42,-163 1744.42,-163 1744.42,-169 1738.42,-175 1732.42,-175"/>
<text text-anchor="middle" x="1666.92" y="-161.4" font-family="Helvetica,sans-Serif" font-size="12.00">Comparison:</text>
<text text-anchor="middle" x="1666.92" y="-148.4" font-family="Helvetica,sans-Serif" font-size="12.00">run strapdown / ZUPT /</text>
<text text-anchor="middle" x="1666.92" y="-135.4" font-family="Helvetica,sans-Serif" font-size="12.00">wheel odo / PDR</text>
<text text-anchor="middle" x="1666.92" y="-122.4" font-family="Helvetica,sans-Serif" font-size="12.00">on common trajectory</text>
</g>
<!-- choose&#45;&gt;cmp -->
<g id="edge8" class="edge">
<title>choose&#45;&gt;cmp</title>
<path fill="none" stroke="black" d="M279.53,-254.68C298.07,-249.15 322.07,-242.9 343.92,-240 459.8,-224.6 1280.21,-246.57 1395.92,-230 1413.75,-227.45 1417.16,-221.96 1434.92,-219 1466.98,-213.67 1550.41,-222.17 1580.92,-211 1598.55,-204.55 1615.57,-193.17 1629.75,-181.72"/>
<polygon fill="black" stroke="black" points="1632.34,-184.11 1637.75,-175.01 1627.84,-178.75 1632.34,-184.11"/>
<text text-anchor="middle" x="1495.42" y="-222" font-family="Helvetica,sans-Serif" font-size="10.00">example_comparison.py</text>
</g>
<!-- d_env -->
<g id="node3" class="node">
<title>d_env</title>
<path fill="none" stroke="black" d="M566.42,-284C566.42,-284 367.42,-284 367.42,-284 361.42,-284 355.42,-278 355.42,-272 355.42,-272 355.42,-260 355.42,-260 355.42,-254 361.42,-248 367.42,-248 367.42,-248 566.42,-248 566.42,-248 572.42,-248 578.42,-254 578.42,-260 578.42,-260 578.42,-272 578.42,-272 578.42,-278 572.42,-284 566.42,-284"/>
<text text-anchor="middle" x="466.92" y="-262.9" font-family="Helvetica,sans-Serif" font-size="12.00">ch6_env_sensors_heading_altitude</text>
</g>
<!-- d_env&#45;&gt;env -->
<g id="edge9" class="edge">
<title>d_env&#45;&gt;env</title>
<path fill="none" stroke="black" stroke-dasharray="5,2" d="M539.26,-247.94C554.9,-244.81 571.4,-241.93 586.92,-240 600.17,-238.36 817.69,-239.63 826.92,-230 830.31,-226.47 830.28,-222.55 826.92,-219 816.3,-207.75 702.38,-216.51 687.92,-211 668.01,-203.42 649.14,-189.14 634.52,-175.89"/>
<polygon fill="black" stroke="black" points="636.55,-172.99 626.86,-168.69 631.75,-178.09 636.55,-172.99"/>
<text text-anchor="middle" x="844.92" y="-222" font-family="Helvetica,sans-Serif" font-size="10.00">&#45;&#45;data</text>
</g>
<!-- d_zupt -->
<g id="node4" class="node">
<title>d_zupt</title>
<path fill="none" stroke="black" d="M1234.42,-284C1234.42,-284 1125.42,-284 1125.42,-284 1119.42,-284 1113.42,-278 1113.42,-272 1113.42,-272 1113.42,-260 1113.42,-260 1113.42,-254 1119.42,-248 1125.42,-248 1125.42,-248 1234.42,-248 1234.42,-248 1240.42,-248 1246.42,-254 1246.42,-260 1246.42,-260 1246.42,-272 1246.42,-272 1246.42,-278 1240.42,-284 1234.42,-284"/>
<text text-anchor="middle" x="1179.92" y="-262.9" font-family="Helvetica,sans-Serif" font-size="12.00">ch6_foot_zupt_walk</text>
</g>
<!-- d_zupt&#45;&gt;zupt -->
<g id="edge11" class="edge">
<title>d_zupt&#45;&gt;zupt</title>
<path fill="none" stroke="black" stroke-dasharray="5,2" d="M1231.59,-248C1240.66,-245.2 1250.04,-242.42 1258.92,-240 1314.36,-224.87 1332.13,-233.69 1384.92,-211 1406.68,-201.65 1428.85,-187.42 1446.58,-174.66"/>
<polygon fill="black" stroke="black" points="1448.92,-177.28 1454.91,-168.54 1444.78,-171.64 1448.92,-177.28"/>
<text text-anchor="middle" x="1376.92" y="-222" font-family="Helvetica,sans-Serif" font-size="10.00">&#45;&#45;data</text>
</g>
<!-- d_pdr -->
<g id="node5" class="node">
<title>d_pdr</title>
<path fill="none" stroke="black" d="M735.42,-284C735.42,-284 608.42,-284 608.42,-284 602.42,-284 596.42,-278 596.42,-272 596.42,-272 596.42,-260 596.42,-260 596.42,-254 602.42,-248 608.42,-248 608.42,-248 735.42,-248 735.42,-248 741.42,-248 747.42,-254 747.42,-260 747.42,-260 747.42,-272 747.42,-272 747.42,-278 741.42,-284 735.42,-284"/>
<text text-anchor="middle" x="671.92" y="-262.9" font-family="Helvetica,sans-Serif" font-size="12.00">ch6_pdr_corridor_walk</text>
</g>
<!-- d_pdr&#45;&gt;pdr -->
<g id="edge13" class="edge">
<title>d_pdr&#45;&gt;pdr</title>
<path fill="none" stroke="black" stroke-dasharray="5,2" d="M723.04,-247.94C733.8,-244.87 745.16,-242.01 755.92,-240 769.51,-237.46 870.55,-240.16 879.92,-230 898.23,-210.16 876.56,-189.44 849.9,-173.55"/>
<polygon fill="black" stroke="black" points="851.54,-170.45 841.11,-168.56 848.08,-176.54 851.54,-170.45"/>
<text text-anchor="middle" x="900.92" y="-222" font-family="Helvetica,sans-Serif" font-size="10.00">&#45;&#45;data</text>
</g>
<!-- d_strap -->
<g id="node6" class="node">
<title>d_strap</title>
<path fill="none" stroke="black" d="M1082.92,-284C1082.92,-284 962.92,-284 962.92,-284 956.92,-284 950.92,-278 950.92,-272 950.92,-272 950.92,-260 950.92,-260 950.92,-254 956.92,-248 962.92,-248 962.92,-248 1082.92,-248 1082.92,-248 1088.92,-248 1094.92,-254 1094.92,-260 1094.92,-260 1094.92,-272 1094.92,-272 1094.92,-278 1088.92,-284 1082.92,-284"/>
<text text-anchor="middle" x="1022.92" y="-262.9" font-family="Helvetica,sans-Serif" font-size="12.00">ch6_strapdown_basic</text>
</g>
<!-- d_strap&#45;&gt;strap -->
<g id="edge10" class="edge">
<title>d_strap&#45;&gt;strap</title>
<path fill="none" stroke="black" stroke-dasharray="5,2" d="M1054.57,-247.8C1074.91,-237.59 1102.25,-225.43 1127.92,-219 1172.47,-207.85 1188.44,-228.43 1230.92,-211 1249.91,-203.21 1267.66,-188.92 1281.32,-175.71"/>
<polygon fill="black" stroke="black" points="1283.89,-178.09 1288.47,-168.54 1278.93,-173.15 1283.89,-178.09"/>
<text text-anchor="middle" x="1142.92" y="-222" font-family="Helvetica,sans-Serif" font-size="10.00">&#45;&#45;data</text>
</g>
<!-- d_wheel -->
<g id="node7" class="node">
<title>d_wheel</title>
<path fill="none" stroke="black" d="M920.42,-284C920.42,-284 777.42,-284 777.42,-284 771.42,-284 765.42,-278 765.42,-272 765.42,-272 765.42,-260 765.42,-260 765.42,-254 771.42,-248 777.42,-248 777.42,-248 920.42,-248 920.42,-248 926.42,-248 932.42,-254 932.42,-260 932.42,-260 932.42,-272 932.42,-272 932.42,-278 926.42,-284 920.42,-284"/>
<text text-anchor="middle" x="848.92" y="-262.9" font-family="Helvetica,sans-Serif" font-size="12.00">ch6_wheel_odom_square</text>
</g>
<!-- d_wheel&#45;&gt;wheel -->
<g id="edge12" class="edge">
<title>d_wheel&#45;&gt;wheel</title>
<path fill="none" stroke="black" stroke-dasharray="5,2" d="M893.4,-247.84C902.79,-242.96 912.19,-237.02 919.92,-230 935.89,-215.5 948.71,-194.99 957.63,-177.86"/>
<polygon fill="black" stroke="black" points="960.84,-179.26 962.18,-168.75 954.58,-176.14 960.84,-179.26"/>
<text text-anchor="middle" x="944.92" y="-222" font-family="Helvetica,sans-Serif" font-size="10.00">&#45;&#45;data</text>
</g>
<!-- c_sensors -->
<g id="node8" class="node">
<title>c_sensors</title>
<path fill="none" stroke="black" d="M1522.42,-284C1522.42,-284 1283.42,-284 1283.42,-284 1277.42,-284 1271.42,-278 1271.42,-272 1271.42,-272 1271.42,-260 1271.42,-260 1271.42,-254 1277.42,-248 1283.42,-248 1283.42,-248 1522.42,-248 1522.42,-248 1528.42,-248 1534.42,-254 1534.42,-260 1534.42,-260 1534.42,-272 1534.42,-272 1534.42,-278 1528.42,-284 1522.42,-284"/>
<text text-anchor="middle" x="1402.92" y="-269.4" font-family="Helvetica,sans-Serif" font-size="12.00">core/sensors</text>
<text text-anchor="middle" x="1402.92" y="-256.4" font-family="Helvetica,sans-Serif" font-size="12.00">(IMU models, mag/baro, PDR, wheel odo)</text>
</g>
<!-- c_sensors&#45;&gt;allan -->
<g id="edge14" class="edge">
<title>c_sensors&#45;&gt;allan</title>
<path fill="none" stroke="black" stroke-dasharray="1,5" d="M1381.64,-247.94C1367.55,-237.66 1348.17,-225.35 1328.92,-219 1287.43,-205.3 1271.92,-226.13 1230.92,-211 1209.52,-203.1 1188.67,-188.61 1172.43,-175.31"/>
<polygon fill="black" stroke="black" points="1174.28,-172.29 1164.39,-168.51 1169.76,-177.64 1174.28,-172.29"/>
</g>
<!-- c_sensors&#45;&gt;env -->
<g id="edge15" class="edge">
<title>c_sensors&#45;&gt;env</title>
<path fill="none" stroke="black" stroke-dasharray="1,5" d="M1310.87,-247.97C1287.54,-242.91 1262.65,-236.85 1239.92,-230 1227.12,-226.14 1225.04,-221.59 1211.92,-219 1183.36,-213.36 715.34,-220.79 687.92,-211 667.53,-203.72 648.34,-189.12 633.67,-175.61"/>
<polygon fill="black" stroke="black" points="636.07,-173.06 626.42,-168.68 631.23,-178.12 636.07,-173.06"/>
</g>
<!-- c_sensors&#45;&gt;strap -->
<g id="edge16" class="edge">
<title>c_sensors&#45;&gt;strap</title>
<path fill="none" stroke="black" stroke-dasharray="1,5" d="M1389.31,-247.95C1374.51,-229.41 1350.54,-199.38 1332.44,-176.71"/>
<polygon fill="black" stroke="black" points="1335.04,-174.35 1326.06,-168.72 1329.57,-178.72 1335.04,-174.35"/>
</g>
<!-- c_sensors&#45;&gt;zupt -->
<g id="edge18" class="edge">
<title>c_sensors&#45;&gt;zupt</title>
<path fill="none" stroke="black" stroke-dasharray="1,5" d="M1405.82,-247.65C1407.81,-238.7 1410.99,-227.84 1415.92,-219 1424.67,-203.33 1437.42,-188.3 1449.45,-176"/>
<polygon fill="black" stroke="black" points="1452.17,-178.24 1456.81,-168.71 1447.24,-173.26 1452.17,-178.24"/>
</g>
<!-- c_sensors&#45;&gt;wheel -->
<g id="edge21" class="edge">
<title>c_sensors&#45;&gt;wheel</title>
<path fill="none" stroke="black" stroke-dasharray="1,5" d="M1370.11,-247.88C1348.3,-237.42 1318.67,-224.96 1290.92,-219 1238.75,-207.8 1100.85,-229.84 1050.92,-211 1031.29,-203.59 1012.96,-189.18 998.9,-175.81"/>
<polygon fill="black" stroke="black" points="1001.13,-173.08 991.56,-168.53 996.2,-178.06 1001.13,-173.08"/>
</g>
<!-- c_sensors&#45;&gt;pdr -->
<g id="edge22" class="edge">
<title>c_sensors&#45;&gt;pdr</title>
<path fill="none" stroke="black" stroke-dasharray="1,5" d="M1348.24,-247.97C1309.48,-236.21 1260.79,-222.13 1239.92,-219 1201.68,-213.26 928.93,-222.25 891.92,-211 867.53,-203.58 843.34,-188.58 824.63,-174.86"/>
<polygon fill="black" stroke="black" points="826.54,-171.91 816.45,-168.68 822.32,-177.5 826.54,-171.91"/>
</g>
<!-- c_sensors&#45;&gt;cmp -->
<g id="edge24" class="edge">
<title>c_sensors&#45;&gt;cmp</title>
<path fill="none" stroke="black" stroke-dasharray="1,5" d="M1509.8,-247.94C1527,-243.29 1544.28,-237.41 1559.92,-230 1585.43,-217.91 1610.45,-198.8 1629.87,-181.86"/>
<polygon fill="black" stroke="black" points="1632.43,-184.27 1637.57,-175 1627.77,-179.04 1632.43,-184.27"/>
</g>
<!-- c_sim -->
<g id="node9" class="node">
<title>c_sim</title>
<path fill="none" stroke="black" d="M1680.92,-284C1680.92,-284 1564.92,-284 1564.92,-284 1558.92,-284 1552.92,-278 1552.92,-272 1552.92,-272 1552.92,-260 1552.92,-260 1552.92,-254 1558.92,-248 1564.92,-248 1564.92,-248 1680.92,-248 1680.92,-248 1686.92,-248 1692.92,-254 1692.92,-260 1692.92,-260 1692.92,-272 1692.92,-272 1692.92,-278 1686.92,-284 1680.92,-284"/>
<text text-anchor="middle" x="1622.92" y="-269.4" font-family="Helvetica,sans-Serif" font-size="12.00">core/sim</text>
<text text-anchor="middle" x="1622.92" y="-256.4" font-family="Helvetica,sans-Serif" font-size="12.00">(trajectories + truth)</text>
</g>
<!-- c_sim&#45;&gt;strap -->
<g id="edge17" class="edge">
<title>c_sim&#45;&gt;strap</title>
<path fill="none" stroke="black" stroke-dasharray="1,5" d="M1604.59,-247.95C1592.15,-237.53 1574.78,-225.07 1556.92,-219 1520.91,-206.76 1421.38,-224.78 1385.92,-211 1366.65,-203.51 1348.67,-189.24 1334.84,-175.97"/>
<polygon fill="black" stroke="black" points="1337.15,-173.34 1327.6,-168.76 1332.21,-178.3 1337.15,-173.34"/>
</g>
<!-- c_sim&#45;&gt;zupt -->
<g id="edge19" class="edge">
<title>c_sim&#45;&gt;zupt</title>
<path fill="none" stroke="black" stroke-dasharray="1,5" d="M1608.91,-247.61C1601.33,-238.65 1591.57,-227.79 1581.92,-219 1564.56,-203.18 1543.84,-187.47 1525.86,-174.71"/>
<polygon fill="black" stroke="black" points="1527.47,-171.57 1517.27,-168.69 1523.45,-177.3 1527.47,-171.57"/>
</g>
<!-- c_sim&#45;&gt;cmp -->
<g id="edge23" class="edge">
<title>c_sim&#45;&gt;cmp</title>
<path fill="none" stroke="black" stroke-dasharray="1,5" d="M1629.23,-247.95C1635.29,-231.57 1644.66,-206.22 1652.54,-184.9"/>
<polygon fill="black" stroke="black" points="1655.86,-186.03 1656.04,-175.43 1649.29,-183.6 1655.86,-186.03"/>
</g>
<!-- c_ins -->
<g id="node10" class="node">
<title>c_ins</title>
<path fill="none" stroke="black" d="M1872.42,-284C1872.42,-284 1723.42,-284 1723.42,-284 1717.42,-284 1711.42,-278 1711.42,-272 1711.42,-272 1711.42,-260 1711.42,-260 1711.42,-254 1717.42,-248 1723.42,-248 1723.42,-248 1872.42,-248 1872.42,-248 1878.42,-248 1884.42,-254 1884.42,-260 1884.42,-260 1884.42,-272 1884.42,-272 1884.42,-278 1878.42,-284 1872.42,-284"/>
<text text-anchor="middle" x="1797.92" y="-269.4" font-family="Helvetica,sans-Serif" font-size="12.00">core/sensors/ins_ekf</text>
<text text-anchor="middle" x="1797.92" y="-256.4" font-family="Helvetica,sans-Serif" font-size="12.00">(INS&#45;EKF + ZUPT updates)</text>
</g>
<!-- c_ins&#45;&gt;zupt -->
<g id="edge20" class="edge">
<title>c_ins&#45;&gt;zupt</title>
<path fill="none" stroke="black" stroke-dasharray="1,5" d="M1733.16,-247.95C1722.72,-245.26 1712.03,-242.53 1701.92,-240 1648.27,-226.59 1631.63,-233.07 1580.92,-211 1559.37,-201.62 1537.37,-187.53 1519.7,-174.86"/>
<polygon fill="black" stroke="black" points="1521.53,-171.86 1511.39,-168.78 1517.39,-177.51 1521.53,-171.86"/>
</g>
<!-- c_ins&#45;&gt;cmp -->
<g id="edge25" class="edge">
<title>c_ins&#45;&gt;cmp</title>
<path fill="none" stroke="black" stroke-dasharray="1,5" d="M1779.15,-247.95C1760.32,-230.84 1730.74,-203.97 1706.67,-182.1"/>
<polygon fill="black" stroke="black" points="1708.82,-179.33 1699.07,-175.2 1704.12,-184.51 1708.82,-179.33"/>
</g>
<!-- figs -->
<g id="node18" class="node">
<title>figs</title>
<path fill="none" stroke="black" d="M1227.42,-52C1227.42,-52 1054.42,-52 1054.42,-52 1048.42,-52 1042.42,-46 1042.42,-40 1042.42,-40 1042.42,-28 1042.42,-28 1042.42,-22 1048.42,-16 1054.42,-16 1054.42,-16 1227.42,-16 1227.42,-16 1233.42,-16 1239.42,-22 1239.42,-28 1239.42,-28 1239.42,-40 1239.42,-40 1239.42,-46 1233.42,-52 1227.42,-52"/>
<text text-anchor="middle" x="1140.92" y="-37.4" font-family="Helvetica,sans-Serif" font-size="12.00">Save plots to:</text>
<text text-anchor="middle" x="1140.92" y="-24.4" font-family="Helvetica,sans-Serif" font-size="12.00">ch6_dead_reckoning/figs/*.svg</text>
</g>
<!-- allan&#45;&gt;figs -->
<g id="edge26" class="edge">
<title>allan&#45;&gt;figs</title>
<path fill="none" stroke="black" d="M1140.92,-121.42C1140.92,-104.21 1140.92,-80.46 1140.92,-62.21"/>
<polygon fill="black" stroke="black" points="1144.42,-62.19 1140.92,-52.19 1137.42,-62.19 1144.42,-62.19"/>
</g>
<!-- env&#45;&gt;figs -->
<g id="edge27" class="edge">
<title>env&#45;&gt;figs</title>
<path fill="none" stroke="black" d="M650.21,-121.43C662.21,-116.04 675.35,-110.76 687.92,-107 802.75,-72.64 939.15,-53.79 1032.06,-44.1"/>
<polygon fill="black" stroke="black" points="1032.45,-47.58 1042.04,-43.07 1031.73,-40.61 1032.45,-47.58"/>
</g>
<!-- strap&#45;&gt;figs -->
<g id="edge28" class="edge">
<title>strap&#45;&gt;figs</title>
<path fill="none" stroke="black" d="M1273.32,-121.42C1244.66,-102.71 1204.14,-76.26 1175.49,-57.56"/>
<polygon fill="black" stroke="black" points="1177.29,-54.56 1167.01,-52.02 1173.47,-60.42 1177.29,-54.56"/>
</g>
<!-- zupt&#45;&gt;figs -->
<g id="edge29" class="edge">
<title>zupt&#45;&gt;figs</title>
<path fill="none" stroke="black" d="M1425.4,-121.47C1412.17,-116.51 1398.11,-111.43 1384.92,-107 1327.64,-87.76 1261.89,-68.52 1213.08,-54.78"/>
<polygon fill="black" stroke="black" points="1213.82,-51.35 1203.25,-52.02 1211.93,-58.09 1213.82,-51.35"/>
</g>
<!-- wheel&#45;&gt;figs -->
<g id="edge30" class="edge">
<title>wheel&#45;&gt;figs</title>
<path fill="none" stroke="black" d="M1006.94,-121.42C1035.94,-102.71 1076.95,-76.26 1105.94,-57.56"/>
<polygon fill="black" stroke="black" points="1108.02,-60.39 1114.53,-52.02 1104.23,-54.5 1108.02,-60.39"/>
</g>
<!-- pdr&#45;&gt;figs -->
<g id="edge31" class="edge">
<title>pdr&#45;&gt;figs</title>
<path fill="none" stroke="black" d="M850.1,-121.42C863.79,-116.49 878.31,-111.43 891.92,-107 950.69,-87.87 1018.07,-68.54 1067.91,-54.73"/>
<polygon fill="black" stroke="black" points="1068.93,-58.08 1077.63,-52.05 1067.06,-51.34 1068.93,-58.08"/>
</g>
<!-- cmp&#45;&gt;figs -->
<g id="edge32" class="edge">
<title>cmp&#45;&gt;figs</title>
<path fill="none" stroke="black" d="M1604.16,-114.93C1596.44,-111.97 1588.57,-109.23 1580.92,-107 1470.28,-74.67 1339.47,-55.59 1249.4,-45.29"/>
<polygon fill="black" stroke="black" points="1249.77,-41.81 1239.44,-44.16 1248.99,-48.76 1249.77,-41.81"/>
</g>
</g>
</svg>
