<?xml version="1.0" encoding="UTF-8" standalone="no"?>
<!DOCTYPE svg PUBLIC "-//W3C//DTD SVG 1.1//EN"
 "http://www.w3.org/Graphics/SVG/1.1/DTD/svg11.dtd">
<!-- Generated by graphviz version 2.43.0 (0)
 -->
<!-- Title: CH2_Component Pages: 1 -->
<svg width="1081pt" height="358pt"
 viewBox="0.00 0.00 1081.00 358.00" xmlns="http://www.w3.org/2000/svg" xmlns:xlink="http://www.w3.org/1999/xlink">
<g id="graph0" class="graph" transform="scale(1 1) rotate(0) translate(4 354)">
<title>CH2_Component</title>
<polygon fill="white" stroke="transparent" points="-4,4 -4,-354 1077,-354 1077,4 -4,4"/>
<g id="clust1" class="cluster">
<title>cluster_ch2</title>
<path fill="white" stroke="#bbbbbb" d="M20,-125C20,-125 537,-125 537,-125 543,-125 549,-131 549,-137 549,-137 549,-188 549,-188 549,-194 543,-200 537,-200 537,-200 20,-200 20,-200 14,-200 8,-194 8,-188 8,-188 8,-137 8,-137 8,-131 14,-125 20,-125"/>
<text text-anchor="middle" x="278.5" y="-184.8" font-family="Helvetica,sans-Serif" font-size="14.00">ch2_coords</text>
</g>
<g id="clust2" class="cluster">
<title>cluster_core</title>
<path fill="white" stroke="#bbbbbb" d="M707.5,-159C707.5,-159 1051,-159 1051,-159 1057,-159 1063,-165 1063,-171 1063,-171 1063,-330 1063,-330 1063,-336 1057,-342 1051,-342 1051,-342 707.5,-342 707.5,-342 701.5,-342 695.5,-336 695.5,-330 695.5,-330 695.5,-171 695.5,-171 695.5,-165 701.5,-159 707.5,-159"/>
<text text-anchor="middle" x="879.25" y="-326.8" font-family="Helvetica,sans-Serif" font-size="14.00">core/coords</text>
</g>
<g id="clust3" class="cluster">
<title>cluster_data</title>
<path fill="white" stroke="#bbbbbb" d="M697,-8C697,-8 1053,-8 1053,-8 1059,-8 1065,-14 1065,-20 1065,-20 1065,-139 1065,-139 1065,-145 1059,-151 1053,-151 1053,-151 697,-151 697,-151 691,-151 685,-145 685,-139 685,-139 685,-20 685,-20 685,-14 691,-8 697,-8"/>
<text text-anchor="middle" x="875" y="-135.8" font-family="Helvetica,sans-Serif" font-size="14.00">data/sim (optional)</text>
</g>
<!-- example_coordinate_transforms.py -->
<g id="node1" class="node">
<title>example_coordinate_transforms.py</title>
<path fill="white" stroke="#444444" d="M529,-169C529,-169 343,-169 343,-169 337,-169 331,-163 331,-157 331,-157 331,-145 331,-145 331,-139 337,-133 343,-133 343,-133 529,-133 529,-133 535,-133 541,-139 541,-145 541,-145 541,-157 541,-157 541,-163 535,-169 529,-169"/>
<text text-anchor="middle" x="436" y="-154.2" font-family="Helvetica,sans-Serif" font-size="11.00">example_coordinate_transforms.py</text>
<text text-anchor="middle" x="436" y="-142.2" font-family="Helvetica,sans-Serif" font-size="11.00">(main entry)</text>
</g>
<!-- __init__.py -->
<g id="node3" class="node">
<title>__init__.py</title>
<path fill="white" stroke="#444444" d="M831.5,-230C831.5,-230 715.5,-230 715.5,-230 709.5,-230 703.5,-224 703.5,-218 703.5,-218 703.5,-206 703.5,-206 703.5,-200 709.5,-194 715.5,-194 715.5,-194 831.5,-194 831.5,-194 837.5,-194 843.5,-200 843.5,-206 843.5,-206 843.5,-218 843.5,-218 843.5,-224 837.5,-230 831.5,-230"/>
<text text-anchor="middle" x="773.5" y="-215.2" font-family="Helvetica,sans-Serif" font-size="11.00">__init__.py</text>
<text text-anchor="middle" x="773.5" y="-203.2" font-family="Helvetica,sans-Serif" font-size="11.00">(re&#45;exports public API)</text>
</g>
<!-- example_coordinate_transforms.py&#45;&gt;__init__.py -->
<g id="edge2" class="edge">
<title>example_coordinate_transforms.py&#45;&gt;__init__.py</title>
<path fill="none" stroke="#555555" d="M536.3,-169.05C587.08,-178.29 647.96,-189.36 695.19,-197.94"/>
<polygon fill="#555555" stroke="#555555" points="694.87,-200.73 703.25,-199.41 695.88,-195.22 694.87,-200.73"/>
<text text-anchor="middle" x="617" y="-196" font-family="Helvetica,sans-Serif" font-size="10.00">imports core.coords API</text>
</g>
<!-- ch2_coords_san_francisco -->
<g id="node7" class="node">
<title>ch2_coords_san_francisco</title>
<polygon fill="white" stroke="#444444" points="854,-111 851,-115 830,-115 827,-111 693,-111 693,-75 854,-75 854,-111"/>
<text text-anchor="middle" x="773.5" y="-96.2" font-family="Helvetica,sans-Serif" font-size="11.00">ch2_coords_san_francisco/</text>
<text text-anchor="middle" x="773.5" y="-84.2" font-family="Helvetica,sans-Serif" font-size="11.00">pre&#45;generated data</text>
</g>
<!-- example_coordinate_transforms.py&#45;&gt;ch2_coords_san_francisco -->
<g id="edge6" class="edge">
<title>example_coordinate_transforms.py&#45;&gt;ch2_coords_san_francisco</title>
<path fill="none" stroke="#555555" stroke-dasharray="5,2" d="M541.32,-132.97C587.31,-125.01 640.77,-115.77 684.69,-108.18"/>
<polygon fill="#555555" stroke="#555555" points="685.37,-110.91 692.77,-106.78 684.41,-105.39 685.37,-110.91"/>
<text text-anchor="middle" x="617" y="-131" font-family="Helvetica,sans-Serif" font-size="10.00">&#45;&#45;data option</text>
</g>
<!-- README.md -->
<g id="node2" class="node">
<title>README.md</title>
<polygon fill="white" stroke="#444444" points="231,-169 16,-169 16,-133 237,-133 237,-163 231,-169"/>
<polyline fill="none" stroke="#444444" points="231,-169 231,-163 "/>
<polyline fill="none" stroke="#444444" points="237,-163 231,-163 "/>
<text text-anchor="middle" x="126.5" y="-154.2" font-family="Helvetica,sans-Serif" font-size="11.00">README.md</text>
<text text-anchor="middle" x="126.5" y="-142.2" font-family="Helvetica,sans-Serif" font-size="11.00">(quick start + mapping to equations)</text>
</g>
<!-- README.md&#45;&gt;example_coordinate_transforms.py -->
<g id="edge7" class="edge">
<title>README.md&#45;&gt;example_coordinate_transforms.py</title>
<path fill="none" stroke="#555555" stroke-dasharray="1,5" d="M237.21,-151C265,-151 294.88,-151 322.79,-151"/>
<polygon fill="#555555" stroke="#555555" points="330.99,-151 322.99,-154.6 326.99,-151 322.99,-151 322.99,-151 322.99,-151 326.99,-151 322.99,-147.4 330.99,-151 330.99,-151"/>
<text text-anchor="middle" x="284" y="-154" font-family="Helvetica,sans-Serif" font-size="10.00">instructions</text>
</g>
<!-- transforms.py -->
<g id="node4" class="node">
<title>transforms.py</title>
<path fill="white" stroke="#444444" d="M1027.5,-203C1027.5,-203 956.5,-203 956.5,-203 950.5,-203 944.5,-197 944.5,-191 944.5,-191 944.5,-179 944.5,-179 944.5,-173 950.5,-167 956.5,-167 956.5,-167 1027.5,-167 1027.5,-167 1033.5,-167 1039.5,-173 1039.5,-179 1039.5,-179 1039.5,-191 1039.5,-191 1039.5,-197 1033.5,-203 1027.5,-203"/>
<text text-anchor="middle" x="992" y="-188.2" font-family="Helvetica,sans-Serif" font-size="11.00">transforms.py</text>
<text text-anchor="middle" x="992" y="-176.2" font-family="Helvetica,sans-Serif" font-size="11.00">LLH/ECEF/ENU</text>
</g>
<!-- __init__.py&#45;&gt;transforms.py -->
<g id="edge3" class="edge">
<title>__init__.py&#45;&gt;transforms.py</title>
<path fill="none" stroke="#555555" d="M843.6,-203.38C873.56,-199.65 908.14,-195.33 936.28,-191.82"/>
<polygon fill="#555555" stroke="#555555" points="936.82,-194.58 944.41,-190.81 936.13,-189.02 936.82,-194.58"/>
<text text-anchor="middle" x="890.5" y="-202" font-family="Helvetica,sans-Serif" font-size="10.00">exports</text>
</g>
<!-- rotations.py -->
<g id="node5" class="node">
<title>rotations.py</title>
<path fill="white" stroke="#444444" d="M1023,-257C1023,-257 961,-257 961,-257 955,-257 949,-251 949,-245 949,-245 949,-233 949,-233 949,-227 955,-221 961,-221 961,-221 1023,-221 1023,-221 1029,-221 1035,-227 1035,-233 1035,-233 1035,-245 1035,-245 1035,-251 1029,-257 1023,-257"/>
<text text-anchor="middle" x="992" y="-242.2" font-family="Helvetica,sans-Serif" font-size="11.00">rotations.py</text>
<text text-anchor="middle" x="992" y="-230.2" font-family="Helvetica,sans-Serif" font-size="11.00">Euler/R/Quat</text>
</g>
<!-- __init__.py&#45;&gt;rotations.py -->
<g id="edge4" class="edge">
<title>__init__.py&#45;&gt;rotations.py</title>
<path fill="none" stroke="#555555" d="M843.6,-220.62C875.13,-224.55 911.8,-229.12 940.67,-232.72"/>
<polygon fill="#555555" stroke="#555555" points="940.69,-235.55 948.98,-233.76 941.38,-229.99 940.69,-235.55"/>
<text text-anchor="middle" x="890.5" y="-231" font-family="Helvetica,sans-Serif" font-size="10.00">exports</text>
</g>
<!-- frames.py -->
<g id="node6" class="node">
<title>frames.py</title>
<path fill="white" stroke="#444444" d="M1043,-311C1043,-311 941,-311 941,-311 935,-311 929,-305 929,-299 929,-299 929,-287 929,-287 929,-281 935,-275 941,-275 941,-275 1043,-275 1043,-275 1049,-275 1055,-281 1055,-287 1055,-287 1055,-299 1055,-299 1055,-305 1049,-311 1043,-311"/>
<text text-anchor="middle" x="992" y="-296.2" font-family="Helvetica,sans-Serif" font-size="11.00">frames.py</text>
<text text-anchor="middle" x="992" y="-284.2" font-family="Helvetica,sans-Serif" font-size="11.00">FrameType + Frame</text>
</g>
<!-- __init__.py&#45;&gt;frames.py -->
<g id="edge5" class="edge">
<title>__init__.py&#45;&gt;frames.py</title>
<path fill="none" stroke="#555555" d="M822.82,-230.08C856.07,-242.52 900.34,-259.08 935.11,-272.09"/>
<polygon fill="#555555" stroke="#555555" points="934.36,-274.8 942.83,-274.98 936.32,-269.55 934.36,-274.8"/>
<text text-anchor="middle" x="890.5" y="-265" font-family="Helvetica,sans-Serif" font-size="10.00">exports</text>
</g>
<!-- txt+json -->
<g id="node8" class="node">
<title>txt+json</title>
<polygon fill="white" stroke="#444444" points="1051,-120 927,-120 927,-16 1057,-16 1057,-114 1051,-120"/>
<polyline fill="none" stroke="#444444" points="1051,-120 1051,-114 "/>
<polyline fill="none" stroke="#444444" points="1057,-114 1051,-114 "/>
<text text-anchor="middle" x="992" y="-107.2" font-family="Helvetica,sans-Serif" font-size="11.00">files:</text>
<text text-anchor="middle" x="992" y="-95.2" font-family="Helvetica,sans-Serif" font-size="11.00">llh_coordinates.txt</text>
<text text-anchor="middle" x="992" y="-83.2" font-family="Helvetica,sans-Serif" font-size="11.00">ecef_coordinates.txt</text>
<text text-anchor="middle" x="992" y="-71.2" font-family="Helvetica,sans-Serif" font-size="11.00">en u_coordinates.txt</text>
<text text-anchor="middle" x="992" y="-59.2" font-family="Helvetica,sans-Serif" font-size="11.00">reference_llh.txt</text>
<text text-anchor="middle" x="992" y="-47.2" font-family="Helvetica,sans-Serif" font-size="11.00">euler_angles.txt</text>
<text text-anchor="middle" x="992" y="-35.2" font-family="Helvetica,sans-Serif" font-size="11.00">quaternions.txt</text>
<text text-anchor="middle" x="992" y="-23.2" font-family="Helvetica,sans-Serif" font-size="11.00">config.json</text>
</g>
<!-- ch2_coords_san_francisco&#45;&gt;txt+json -->
<g id="edge1" class="edge">
<title>ch2_coords_san_francisco&#45;&gt;txt+json</title>
<path fill="none" stroke="#555555" stroke-dasharray="1,5" d="M854.19,-83.8C878.07,-81.04 903.94,-78.05 926.69,-75.43"/>
</g>
</g>
</svg>
