<?xml version="1.0" encoding="UTF-8" standalone="no"?>
<!DOCTYPE svg PUBLIC "-//W3C//DTD SVG 1.1//EN"
 "http://www.w3.org/Graphics/SVG/1.1/DTD/svg11.dtd">
<!-- Generated by graphviz version 2.43.0 (0)
 -->
<!-- Title: ch3_component Pages: 1 -->
<svg width="746pt" height="706pt"
 viewBox="0.00 0.00 746.00 706.00" xmlns="http://www.w3.org/2000/svg" xmlns:xlink="http://www.w3.org/1999/xlink">
<g id="graph0" class="graph" transform="scale(1 1) rotate(0) translate(4 702)">
<title>ch3_component</title>
<polygon fill="white" stroke="transparent" points="-4,4 -4,-702 742,-702 742,4 -4,4"/>
<text text-anchor="middle" x="369" y="-679.6" font-family="Helvetica,sans-Serif" font-size="18.00">Chapter 3 (Estimators) — Component Overview</text>
<g id="clust1" class="cluster">
<title>cluster_ch3</title>
<polygon fill="none" stroke="#bbbbbb" points="8,-366 8,-662 649,-662 649,-366 8,-366"/>
<text text-anchor="middle" x="328.5" y="-643.6" font-family="Helvetica,sans-Serif" font-size="18.00">ch3_estimators/</text>
</g>
<g id="clust2" class="cluster">
<title>cluster_core</title>
<polygon fill="none" stroke="#bbbbbb" points="508.5,-150 508.5,-358 680.5,-358 680.5,-150 508.5,-150"/>
<text text-anchor="middle" x="594.5" y="-339.6" font-family="Helvetica,sans-Serif" font-size="18.00">core/</text>
</g>
<g id="clust3" class="cluster">
<title>cluster_data</title>
<polygon fill="none" stroke="#bbbbbb" points="459,-8 459,-142 730,-142 730,-8 459,-8"/>
<text text-anchor="middle" x="594.5" y="-123.6" font-family="Helvetica,sans-Serif" font-size="18.00">data/</text>
</g>
<!-- readme -->
<g id="node1" class="node">
<title>readme</title>
<path fill="none" stroke="black" d="M95,-518C95,-518 28,-518 28,-518 22,-518 16,-512 16,-506 16,-506 16,-494 16,-494 16,-488 22,-482 28,-482 28,-482 95,-482 95,-482 101,-482 107,-488 107,-494 107,-494 107,-506 107,-506 107,-512 101,-518 95,-518"/>
<text text-anchor="middle" x="61.5" y="-496.9" font-family="Helvetica,sans-Serif" font-size="12.00">README.md</text>
</g>
<!-- ls -->
<g id="node2" class="node">
<title>ls</title>
<path fill="none" stroke="black" d="M322,-626C322,-626 173,-626 173,-626 167,-626 161,-620 161,-614 161,-614 161,-602 161,-602 161,-596 167,-590 173,-590 173,-590 322,-590 322,-590 328,-590 334,-596 334,-602 334,-602 334,-614 334,-614 334,-620 328,-626 322,-626"/>
<text text-anchor="middle" x="247.5" y="-604.9" font-family="Helvetica,sans-Serif" font-size="12.00">example_least_squares.py</text>
</g>
<!-- readme&#45;&gt;ls -->
<g id="edge1" class="edge">
<title>readme&#45;&gt;ls</title>
<path fill="none" stroke="black" d="M76.05,-518.25C90.77,-536.77 115.95,-564.94 144,-581 147.05,-582.74 150.21,-584.38 153.45,-585.91"/>
<polygon fill="black" stroke="black" points="152.21,-589.19 162.78,-589.96 155,-582.76 152.21,-589.19"/>
</g>
<!-- kf -->
<g id="node3" class="node">
<title>kf</title>
<path fill="none" stroke="black" d="M314.5,-572C314.5,-572 180.5,-572 180.5,-572 174.5,-572 168.5,-566 168.5,-560 168.5,-560 168.5,-548 168.5,-548 168.5,-542 174.5,-536 180.5,-536 180.5,-536 314.5,-536 314.5,-536 320.5,-536 326.5,-542 326.5,-548 326.5,-548 326.5,-560 326.5,-560 326.5,-566 320.5,-572 314.5,-572"/>
<text text-anchor="middle" x="247.5" y="-550.9" font-family="Helvetica,sans-Serif" font-size="12.00">example_kalman_1d.py</text>
</g>
<!-- readme&#45;&gt;kf -->
<g id="edge2" class="edge">
<title>readme&#45;&gt;kf</title>
<path fill="none" stroke="black" d="M107.18,-515.36C119.1,-519.3 132,-523.43 144,-527 151.11,-529.11 158.53,-531.23 165.98,-533.3"/>
<polygon fill="black" stroke="black" points="165.19,-536.71 175.76,-535.98 167.04,-529.96 165.19,-536.71"/>
</g>
<!-- ekf -->
<g id="node4" class="node">
<title>ekf</title>
<path fill="none" stroke="black" d="M337.5,-464C337.5,-464 157.5,-464 157.5,-464 151.5,-464 145.5,-458 145.5,-452 145.5,-452 145.5,-440 145.5,-440 145.5,-434 151.5,-428 157.5,-428 157.5,-428 337.5,-428 337.5,-428 343.5,-428 349.5,-434 349.5,-440 349.5,-440 349.5,-452 349.5,-452 349.5,-458 343.5,-464 337.5,-464"/>
<text text-anchor="middle" x="247.5" y="-442.9" font-family="Helvetica,sans-Serif" font-size="12.00">example_ekf_range_bearing.py</text>
</g>
<!-- readme&#45;&gt;ekf -->
<g id="edge3" class="edge">
<title>readme&#45;&gt;ekf</title>
<path fill="none" stroke="black" d="M107.18,-484.64C119.1,-480.7 132,-476.57 144,-473 151.11,-470.89 158.53,-468.77 165.98,-466.7"/>
<polygon fill="black" stroke="black" points="167.04,-470.04 175.76,-464.02 165.19,-463.29 167.04,-470.04"/>
</g>
<!-- iekf -->
<g id="node5" class="node">
<title>iekf</title>
<path fill="none" stroke="black" d="M339,-410C339,-410 156,-410 156,-410 150,-410 144,-404 144,-398 144,-398 144,-386 144,-386 144,-380 150,-374 156,-374 156,-374 339,-374 339,-374 345,-374 351,-380 351,-386 351,-386 351,-398 351,-398 351,-404 345,-410 339,-410"/>
<text text-anchor="middle" x="247.5" y="-388.9" font-family="Helvetica,sans-Serif" font-size="12.00">example_iekf_range_bearing.py</text>
</g>
<!-- readme&#45;&gt;iekf -->
<g id="edge4" class="edge">
<title>readme&#45;&gt;iekf</title>
<path fill="none" stroke="black" d="M76.05,-481.75C90.77,-463.23 115.95,-435.06 144,-419 147.05,-417.26 150.21,-415.62 153.45,-414.09"/>
<polygon fill="black" stroke="black" points="155,-417.24 162.78,-410.04 152.21,-410.81 155,-417.24"/>
</g>
<!-- cmp -->
<g id="node6" class="node">
<title>cmp</title>
<path fill="none" stroke="black" d="M317,-518C317,-518 178,-518 178,-518 172,-518 166,-512 166,-506 166,-506 166,-494 166,-494 166,-488 172,-482 178,-482 178,-482 317,-482 317,-482 323,-482 329,-488 329,-494 329,-494 329,-506 329,-506 329,-512 323,-518 317,-518"/>
<text text-anchor="middle" x="247.5" y="-496.9" font-family="Helvetica,sans-Serif" font-size="12.00">example_comparison.py</text>
</g>
<!-- readme&#45;&gt;cmp -->
<g id="edge5" class="edge">
<title>readme&#45;&gt;cmp</title>
<path fill="none" stroke="black" d="M107.04,-500C121.66,-500 138.49,-500 155.27,-500"/>
<polygon fill="black" stroke="black" points="155.7,-503.5 165.7,-500 155.7,-496.5 155.7,-503.5"/>
</g>
<!-- figs -->
<g id="node7" class="node">
<title>figs</title>
<path fill="none" stroke="black" d="M629,-558C629,-558 560,-558 560,-558 554,-558 548,-552 548,-546 548,-546 548,-534 548,-534 548,-528 554,-522 560,-522 560,-522 629,-522 629,-522 635,-522 641,-528 641,-534 641,-534 641,-546 641,-546 641,-552 635,-558 629,-558"/>
<text text-anchor="middle" x="594.5" y="-543.4" font-family="Helvetica,sans-Serif" font-size="12.00">figs/</text>
<text text-anchor="middle" x="594.5" y="-530.4" font-family="Helvetica,sans-Serif" font-size="12.00">(saved plots)</text>
</g>
<!-- ls&#45;&gt;figs -->
<g id="edge17" class="edge">
<title>ls&#45;&gt;figs</title>
<path fill="none" stroke="black" d="M334.38,-591.41C369.87,-584.53 411.43,-576.42 449,-569 478.38,-563.19 511.1,-556.64 537.97,-551.23"/>
<polygon fill="black" stroke="black" points="538.85,-554.62 547.96,-549.21 537.46,-547.76 538.85,-554.62"/>
<text text-anchor="middle" x="409" y="-587" font-family="Helvetica,sans-Serif" font-size="10.00">saves</text>
</g>
<!-- estim -->
<g id="node8" class="node">
<title>estim</title>
<path fill="none" stroke="black" d="M660.5,-322C660.5,-322 528.5,-322 528.5,-322 522.5,-322 516.5,-316 516.5,-310 516.5,-310 516.5,-248 516.5,-248 516.5,-242 522.5,-236 528.5,-236 528.5,-236 660.5,-236 660.5,-236 666.5,-236 672.5,-242 672.5,-248 672.5,-248 672.5,-310 672.5,-310 672.5,-316 666.5,-322 660.5,-322"/>
<text text-anchor="middle" x="594.5" y="-308.4" font-family="Helvetica,sans-Serif" font-size="12.00">estimators/</text>
<text text-anchor="middle" x="594.5" y="-295.4" font-family="Helvetica,sans-Serif" font-size="12.00">&#45; LS/WLS/GN/LM/Robust</text>
<text text-anchor="middle" x="594.5" y="-282.4" font-family="Helvetica,sans-Serif" font-size="12.00">&#45; KalmanFilter</text>
<text text-anchor="middle" x="594.5" y="-269.4" font-family="Helvetica,sans-Serif" font-size="12.00">&#45; EKF / IEKF / UKF</text>
<text text-anchor="middle" x="594.5" y="-256.4" font-family="Helvetica,sans-Serif" font-size="12.00">&#45; ParticleFilter</text>
<text text-anchor="middle" x="594.5" y="-243.4" font-family="Helvetica,sans-Serif" font-size="12.00">&#45; FactorGraph / Factor</text>
</g>
<!-- ls&#45;&gt;estim -->
<g id="edge6" class="edge">
<title>ls&#45;&gt;estim</title>
<path fill="none" stroke="black" d="M334.4,-594.33C340.61,-590.78 346.27,-586.4 351,-581 393.47,-532.46 326.51,-485.52 369,-437 393.22,-409.34 423.98,-442.93 449,-416 465.61,-398.12 445.21,-382.14 459,-362 471.37,-343.94 489.09,-329.07 507.63,-317.17"/>
<polygon fill="black" stroke="black" points="509.5,-320.12 516.19,-311.9 505.84,-314.16 509.5,-320.12"/>
<text text-anchor="middle" x="409" y="-440" font-family="Helvetica,sans-Serif" font-size="10.00">imports</text>
</g>
<!-- kf&#45;&gt;figs -->
<g id="edge18" class="edge">
<title>kf&#45;&gt;figs</title>
<path fill="none" stroke="black" d="M326.62,-554.54C363.71,-554.46 408.66,-553.87 449,-552 478.43,-550.63 511.16,-548.01 538.01,-545.56"/>
<polygon fill="black" stroke="black" points="538.36,-549.04 548,-544.63 537.72,-542.07 538.36,-549.04"/>
<text text-anchor="middle" x="409" y="-557" font-family="Helvetica,sans-Serif" font-size="10.00">saves</text>
</g>
<!-- kf&#45;&gt;estim -->
<g id="edge7" class="edge">
<title>kf&#45;&gt;estim</title>
<path fill="none" stroke="black" d="M326.61,-544.04C335.83,-539.99 344.31,-534.47 351,-527 387.54,-486.15 332.91,-446.25 369,-405 393.36,-377.15 420.55,-405.65 449,-382 456.64,-375.65 452.29,-369.33 459,-362 472.92,-346.77 490.27,-333.33 507.83,-321.94"/>
<polygon fill="black" stroke="black" points="509.86,-324.8 516.46,-316.51 506.13,-318.88 509.86,-324.8"/>
<text text-anchor="middle" x="409" y="-408" font-family="Helvetica,sans-Serif" font-size="10.00">imports</text>
</g>
<!-- ekf&#45;&gt;figs -->
<g id="edge19" class="edge">
<title>ekf&#45;&gt;figs</title>
<path fill="none" stroke="black" d="M326.81,-464.08C335.1,-466.75 343.3,-469.72 351,-473 359.62,-476.68 360.35,-480.38 369,-484 376.9,-487.31 474,-511.08 537.88,-526.57"/>
<polygon fill="black" stroke="black" points="537.29,-530.03 547.83,-528.98 538.94,-523.23 537.29,-530.03"/>
<text text-anchor="middle" x="409" y="-507" font-family="Helvetica,sans-Serif" font-size="10.00">saves</text>
</g>
<!-- ekf&#45;&gt;estim -->
<g id="edge8" class="edge">
<title>ekf&#45;&gt;estim</title>
<path fill="none" stroke="black" d="M340.48,-427.83C344.27,-425.25 347.82,-422.32 351,-419 376.83,-392.07 343.11,-363.86 369,-337 371.55,-334.35 444.39,-315.82 506.41,-300.4"/>
<polygon fill="black" stroke="black" points="507.4,-303.76 516.26,-297.96 505.71,-296.97 507.4,-303.76"/>
<text text-anchor="middle" x="409" y="-340" font-family="Helvetica,sans-Serif" font-size="10.00">imports</text>
</g>
<!-- utils -->
<g id="node9" class="node">
<title>utils</title>
<path fill="none" stroke="black" d="M651,-218C651,-218 538,-218 538,-218 532,-218 526,-212 526,-206 526,-206 526,-170 526,-170 526,-164 532,-158 538,-158 538,-158 651,-158 651,-158 657,-158 663,-164 663,-170 663,-170 663,-206 663,-206 663,-212 657,-218 651,-218"/>
<text text-anchor="middle" x="594.5" y="-204.4" font-family="Helvetica,sans-Serif" font-size="12.00">utils/</text>
<text text-anchor="middle" x="594.5" y="-191.4" font-family="Helvetica,sans-Serif" font-size="12.00">angle_diff</text>
<text text-anchor="middle" x="594.5" y="-178.4" font-family="Helvetica,sans-Serif" font-size="12.00">geometry checks</text>
<text text-anchor="middle" x="594.5" y="-165.4" font-family="Helvetica,sans-Serif" font-size="12.00">observability checks</text>
</g>
<!-- ekf&#45;&gt;utils -->
<g id="edge11" class="edge">
<title>ekf&#45;&gt;utils</title>
<path fill="none" stroke="black" d="M341.19,-427.76C344.75,-425.19 348.05,-422.28 351,-419 386.47,-379.55 333.51,-340.44 369,-301 393.59,-273.67 423.94,-306.89 449,-280 465.34,-262.47 442.88,-244.74 459,-227 473.75,-210.77 494.81,-201.13 515.89,-195.46"/>
<polygon fill="black" stroke="black" points="516.99,-198.8 525.89,-193.05 515.35,-191.99 516.99,-198.8"/>
<text text-anchor="middle" x="409" y="-304" font-family="Helvetica,sans-Serif" font-size="10.00">imports</text>
</g>
<!-- d1 -->
<g id="node10" class="node">
<title>d1</title>
<path fill="none" stroke="black" d="M694.5,-106C694.5,-106 494.5,-106 494.5,-106 488.5,-106 482.5,-100 482.5,-94 482.5,-94 482.5,-82 482.5,-82 482.5,-76 488.5,-70 494.5,-70 494.5,-70 694.5,-70 694.5,-70 700.5,-70 706.5,-76 706.5,-82 706.5,-82 706.5,-94 706.5,-94 706.5,-100 700.5,-106 694.5,-106"/>
<text text-anchor="middle" x="594.5" y="-84.9" font-family="Helvetica,sans-Serif" font-size="12.00">data/sim/ch3_estimator_nonlinear/</text>
</g>
<!-- ekf&#45;&gt;d1 -->
<g id="edge13" class="edge">
<title>ekf&#45;&gt;d1</title>
<path fill="none" stroke="black" stroke-dasharray="5,2" d="M341.33,-427.88C344.85,-425.28 348.1,-422.33 351,-419 395.63,-367.66 324.35,-318.32 369,-267 393.13,-239.27 425.13,-273.95 449,-246 463.5,-229.02 445.81,-164.02 459,-146 470.57,-130.18 487.37,-118.63 505.19,-110.22"/>
<polygon fill="black" stroke="black" points="506.83,-113.32 514.58,-106.09 504.02,-106.91 506.83,-113.32"/>
<text text-anchor="middle" x="409" y="-270" font-family="Helvetica,sans-Serif" font-size="10.00">&#45;&#45;data (optional)</text>
</g>
<!-- d2 -->
<g id="node11" class="node">
<title>d2</title>
<path fill="none" stroke="black" d="M710,-52C710,-52 479,-52 479,-52 473,-52 467,-46 467,-40 467,-40 467,-28 467,-28 467,-22 473,-16 479,-16 479,-16 710,-16 710,-16 716,-16 722,-22 722,-28 722,-28 722,-40 722,-40 722,-46 716,-52 710,-52"/>
<text text-anchor="middle" x="594.5" y="-30.9" font-family="Helvetica,sans-Serif" font-size="12.00">data/sim/ch3_estimator_high_nonlinear/</text>
</g>
<!-- ekf&#45;&gt;d2 -->
<g id="edge14" class="edge">
<title>ekf&#45;&gt;d2</title>
<path fill="none" stroke="black" stroke-dasharray="5,2" d="M341.42,-427.96C344.91,-425.33 348.14,-422.36 351,-419 404.81,-355.74 315.16,-296.24 369,-233 392.83,-205.01 425.6,-240.35 449,-212 470.41,-186.07 436.84,-86.3 459,-61 459.64,-60.28 460.28,-59.57 460.95,-58.87"/>
<polygon fill="black" stroke="black" points="463.43,-61.34 468.5,-52.04 458.74,-56.15 463.43,-61.34"/>
<text text-anchor="middle" x="409" y="-236" font-family="Helvetica,sans-Serif" font-size="10.00">&#45;&#45;data (optional)</text>
</g>
<!-- iekf&#45;&gt;figs -->
<g id="edge20" class="edge">
<title>iekf&#45;&gt;figs</title>
<path fill="none" stroke="black" d="M336.59,-410.02C341.68,-412.62 346.54,-415.6 351,-419 363.67,-428.66 356.32,-440.35 369,-450 398.25,-472.27 414.48,-458.36 449,-471 484.41,-483.97 522.87,-502.57 551.21,-517.19"/>
<polygon fill="black" stroke="black" points="549.92,-520.47 560.41,-521.99 553.15,-514.26 549.92,-520.47"/>
<text text-anchor="middle" x="409" y="-474" font-family="Helvetica,sans-Serif" font-size="10.00">saves</text>
</g>
<!-- iekf&#45;&gt;estim -->
<g id="edge9" class="edge">
<title>iekf&#45;&gt;estim</title>
<path fill="none" stroke="black" d="M253.51,-373.72C265.59,-333.67 300.51,-238.77 369,-201 400.13,-183.83 419.69,-180.87 449,-201 459.21,-208.01 450.25,-218.24 459,-227 472.21,-240.23 489.15,-250.17 506.53,-257.6"/>
<polygon fill="black" stroke="black" points="505.63,-261.01 516.21,-261.49 508.23,-254.52 505.63,-261.01"/>
<text text-anchor="middle" x="409" y="-204" font-family="Helvetica,sans-Serif" font-size="10.00">imports</text>
</g>
<!-- iekf&#45;&gt;utils -->
<g id="edge12" class="edge">
<title>iekf&#45;&gt;utils</title>
<path fill="none" stroke="black" d="M251.91,-373.98C261.34,-329.83 292.34,-216.51 369,-171 412.84,-144.97 470.28,-149.88 516.09,-160.96"/>
<polygon fill="black" stroke="black" points="515.42,-164.4 525.97,-163.48 517.15,-157.61 515.42,-164.4"/>
<text text-anchor="middle" x="409" y="-174" font-family="Helvetica,sans-Serif" font-size="10.00">imports</text>
</g>
<!-- iekf&#45;&gt;d1 -->
<g id="edge15" class="edge">
<title>iekf&#45;&gt;d1</title>
<path fill="none" stroke="black" stroke-dasharray="5,2" d="M251.46,-373.8C260.14,-326.65 290.07,-199.8 369,-137 398.18,-113.78 435.97,-100.99 472.2,-94.1"/>
<polygon fill="black" stroke="black" points="473.13,-97.49 482.37,-92.31 471.92,-90.6 473.13,-97.49"/>
<text text-anchor="middle" x="409" y="-140" font-family="Helvetica,sans-Serif" font-size="10.00">&#45;&#45;data (optional)</text>
</g>
<!-- iekf&#45;&gt;d2 -->
<g id="edge16" class="edge">
<title>iekf&#45;&gt;d2</title>
<path fill="none" stroke="black" stroke-dasharray="5,2" d="M249.99,-373.86C255.34,-320.71 278.45,-164.06 369,-84 393.47,-62.37 425.21,-49.45 457.09,-41.89"/>
<polygon fill="black" stroke="black" points="457.97,-45.29 466.98,-39.72 456.47,-38.45 457.97,-45.29"/>
<text text-anchor="middle" x="409" y="-87" font-family="Helvetica,sans-Serif" font-size="10.00">&#45;&#45;data (optional)</text>
</g>
<!-- cmp&#45;&gt;figs -->
<g id="edge21" class="edge">
<title>cmp&#45;&gt;figs</title>
<path fill="none" stroke="black" d="M329.12,-512.62C342.43,-514.54 356.09,-516.4 369,-518 426.33,-525.09 492.13,-531.31 537.61,-535.31"/>
<polygon fill="black" stroke="black" points="537.58,-538.82 547.85,-536.21 538.19,-531.85 537.58,-538.82"/>
<text text-anchor="middle" x="409" y="-529" font-family="Helvetica,sans-Serif" font-size="10.00">saves</text>
</g>
<!-- cmp&#45;&gt;estim -->
<g id="edge10" class="edge">
<title>cmp&#45;&gt;estim</title>
<path fill="none" stroke="black" d="M329.19,-488.6C337.37,-484.72 344.89,-479.63 351,-473 382.17,-439.13 338.21,-405.22 369,-371 393.75,-343.5 414.41,-361.13 449,-348 468.1,-340.75 488.14,-331.98 507,-323.16"/>
<polygon fill="black" stroke="black" points="508.62,-326.27 516.16,-318.83 505.62,-319.94 508.62,-326.27"/>
<text text-anchor="middle" x="409" y="-374" font-family="Helvetica,sans-Serif" font-size="10.00">imports</text>
</g>
</g>
</svg>
