<?xml version="1.0" encoding="UTF-8" standalone="no"?>
<!DOCTYPE svg PUBLIC "-//W3C//DTD SVG 1.1//EN"
 "http://www.w3.org/Graphics/SVG/1.1/DTD/svg11.dtd">
<!-- Generated by graphviz version 2.43.0 (0)
 -->
<!-- Title: ch4_component Pages: 1 -->
<svg width="665pt" height="656pt"
 viewBox="0.00 0.00 665.00 656.00" xmlns="http://www.w3.org/2000/svg" xmlns:xlink="http://www.w3.org/1999/xlink">
<g id="graph0" class="graph" transform="scale(1 1) rotate(0) translate(4 652)">
<title>ch4_component</title>
<polygon fill="white" stroke="transparent" points="-4,4 -4,-652 661,-652 661,4 -4,4"/>
<text text-anchor="middle" x="328.5" y="-629.6" font-family="Helvetica,sans-Serif" font-size="18.00">Chapter 4 (RF Point Positioning) — Component Overview</text>
<g id="clust1" class="cluster">
<title>cluster_ch4</title>
<polygon fill="none" stroke="#bbbbbb" points="8,-370 8,-612 649,-612 649,-370 8,-370"/>
<text text-anchor="middle" x="328.5" y="-593.6" font-family="Helvetica,sans-Serif" font-size="18.00">ch4_rf_point_positioning/</text>
</g>
<g id="clust2" class="cluster">
<title>cluster_core</title>
<polygon fill="none" stroke="#bbbbbb" points="453.5,-258 453.5,-362 637.5,-362 637.5,-258 453.5,-258"/>
<text text-anchor="middle" x="545.5" y="-343.6" font-family="Helvetica,sans-Serif" font-size="18.00">core/</text>
</g>
<g id="clust3" class="cluster">
<title>cluster_data</title>
<polygon fill="none" stroke="#bbbbbb" points="472.5,-8 472.5,-250 618.5,-250 618.5,-8 472.5,-8"/>
<text text-anchor="middle" x="545.5" y="-231.6" font-family="Helvetica,sans-Serif" font-size="18.00">data/sim/</text>
</g>
<!-- readme -->
<g id="node1" class="node">
<title>readme</title>
<path fill="none" stroke="black" d="M95,-495C95,-495 28,-495 28,-495 22,-495 16,-489 16,-483 16,-483 16,-471 16,-471 16,-465 22,-459 28,-459 28,-459 95,-459 95,-459 101,-459 107,-465 107,-471 107,-471 107,-483 107,-483 107,-489 101,-495 95,-495"/>
<text text-anchor="middle" x="61.5" y="-473.9" font-family="Helvetica,sans-Serif" font-size="12.00">README.md</text>
</g>
<!-- toa -->
<g id="node2" class="node">
<title>toa</title>
<path fill="none" stroke="black" d="M318,-576C318,-576 160,-576 160,-576 154,-576 148,-570 148,-564 148,-564 148,-552 148,-552 148,-546 154,-540 160,-540 160,-540 318,-540 318,-540 324,-540 330,-546 330,-552 330,-552 330,-564 330,-564 330,-570 324,-576 318,-576"/>
<text text-anchor="middle" x="239" y="-554.9" font-family="Helvetica,sans-Serif" font-size="12.00">example_toa_positioning.py</text>
</g>
<!-- readme&#45;&gt;toa -->
<g id="edge1" class="edge">
<title>readme&#45;&gt;toa</title>
<path fill="none" stroke="black" d="M85.62,-495.1C101.35,-506.69 123.04,-521.33 144,-531 148.1,-532.89 152.36,-534.68 156.71,-536.37"/>
<polygon fill="black" stroke="black" points="155.74,-539.74 166.33,-539.91 158.15,-533.17 155.74,-539.74"/>
</g>
<!-- tdoa -->
<g id="node3" class="node">
<title>tdoa</title>
<path fill="none" stroke="black" d="M322,-468C322,-468 156,-468 156,-468 150,-468 144,-462 144,-456 144,-456 144,-444 144,-444 144,-438 150,-432 156,-432 156,-432 322,-432 322,-432 328,-432 334,-438 334,-444 334,-444 334,-456 334,-456 334,-462 328,-468 322,-468"/>
<text text-anchor="middle" x="239" y="-446.9" font-family="Helvetica,sans-Serif" font-size="12.00">example_tdoa_positioning.py</text>
</g>
<!-- readme&#45;&gt;tdoa -->
<g id="edge2" class="edge">
<title>readme&#45;&gt;tdoa</title>
<path fill="none" stroke="black" d="M107.24,-470.12C115.52,-468.84 124.48,-467.47 133.68,-466.05"/>
<polygon fill="black" stroke="black" points="134.41,-469.48 143.76,-464.5 133.34,-462.56 134.41,-469.48"/>
</g>
<!-- aoa -->
<g id="node4" class="node">
<title>aoa</title>
<path fill="none" stroke="black" d="M319.5,-522C319.5,-522 158.5,-522 158.5,-522 152.5,-522 146.5,-516 146.5,-510 146.5,-510 146.5,-498 146.5,-498 146.5,-492 152.5,-486 158.5,-486 158.5,-486 319.5,-486 319.5,-486 325.5,-486 331.5,-492 331.5,-498 331.5,-498 331.5,-510 331.5,-510 331.5,-516 325.5,-522 319.5,-522"/>
<text text-anchor="middle" x="239" y="-500.9" font-family="Helvetica,sans-Serif" font-size="12.00">example_aoa_positioning.py</text>
</g>
<!-- readme&#45;&gt;aoa -->
<g id="edge3" class="edge">
<title>readme&#45;&gt;aoa</title>
<path fill="none" stroke="black" d="M107.24,-483.88C116.23,-485.27 126.02,-486.77 136.06,-488.32"/>
<polygon fill="black" stroke="black" points="135.75,-491.81 146.16,-489.87 136.81,-484.89 135.75,-491.81"/>
</g>
<!-- cmp -->
<g id="node5" class="node">
<title>cmp</title>
<path fill="none" stroke="black" d="M308.5,-414C308.5,-414 169.5,-414 169.5,-414 163.5,-414 157.5,-408 157.5,-402 157.5,-402 157.5,-390 157.5,-390 157.5,-384 163.5,-378 169.5,-378 169.5,-378 308.5,-378 308.5,-378 314.5,-378 320.5,-384 320.5,-390 320.5,-390 320.5,-402 320.5,-402 320.5,-408 314.5,-414 308.5,-414"/>
<text text-anchor="middle" x="239" y="-392.9" font-family="Helvetica,sans-Serif" font-size="12.00">example_comparison.py</text>
</g>
<!-- readme&#45;&gt;cmp -->
<g id="edge4" class="edge">
<title>readme&#45;&gt;cmp</title>
<path fill="none" stroke="black" d="M85.62,-458.9C101.35,-447.31 123.04,-432.67 144,-423 148.1,-421.11 152.36,-419.32 156.71,-417.63"/>
<polygon fill="black" stroke="black" points="158.15,-420.83 166.33,-414.09 155.74,-414.26 158.15,-420.83"/>
</g>
<!-- fig_toa -->
<g id="node7" class="node">
<title>fig_toa</title>
<path fill="none" stroke="black" d="M629,-576C629,-576 462,-576 462,-576 456,-576 450,-570 450,-564 450,-564 450,-552 450,-552 450,-546 456,-540 462,-540 462,-540 629,-540 629,-540 635,-540 641,-546 641,-552 641,-552 641,-564 641,-564 641,-570 635,-576 629,-576"/>
<text text-anchor="middle" x="545.5" y="-561.4" font-family="Helvetica,sans-Serif" font-size="12.00">toa_positioning_example.png</text>
<text text-anchor="middle" x="545.5" y="-548.4" font-family="Helvetica,sans-Serif" font-size="12.00">(saved plot)</text>
</g>
<!-- toa&#45;&gt;fig_toa -->
<g id="edge13" class="edge">
<title>toa&#45;&gt;fig_toa</title>
<path fill="none" stroke="black" d="M330.12,-558C364.44,-558 403.84,-558 439.43,-558"/>
<polygon fill="black" stroke="black" points="439.84,-561.5 449.84,-558 439.84,-554.5 439.84,-561.5"/>
<text text-anchor="middle" x="392" y="-561" font-family="Helvetica,sans-Serif" font-size="10.00">saves</text>
</g>
<!-- rf -->
<g id="node8" class="node">
<title>rf</title>
<path fill="none" stroke="black" d="M617.5,-326C617.5,-326 473.5,-326 473.5,-326 467.5,-326 461.5,-320 461.5,-314 461.5,-314 461.5,-278 461.5,-278 461.5,-272 467.5,-266 473.5,-266 473.5,-266 617.5,-266 617.5,-266 623.5,-266 629.5,-272 629.5,-278 629.5,-278 629.5,-314 629.5,-314 629.5,-320 623.5,-326 617.5,-326"/>
<text text-anchor="middle" x="545.5" y="-312.4" font-family="Helvetica,sans-Serif" font-size="12.00">rf/</text>
<text text-anchor="middle" x="545.5" y="-299.4" font-family="Helvetica,sans-Serif" font-size="12.00">measurement_models.py</text>
<text text-anchor="middle" x="545.5" y="-286.4" font-family="Helvetica,sans-Serif" font-size="12.00">positioning.py</text>
<text text-anchor="middle" x="545.5" y="-273.4" font-family="Helvetica,sans-Serif" font-size="12.00">dop.py</text>
</g>
<!-- toa&#45;&gt;rf -->
<g id="edge5" class="edge">
<title>toa&#45;&gt;rf</title>
<path fill="none" stroke="black" d="M324.26,-539.83C327.81,-537.25 331.1,-534.33 334,-531 370.62,-489.05 317.3,-450.56 352,-407 375.76,-377.17 398.43,-394.08 432,-376 455.17,-363.52 479.17,-347.03 499.01,-332.26"/>
<polygon fill="black" stroke="black" points="501.37,-334.87 507.25,-326.06 497.15,-329.28 501.37,-334.87"/>
<text text-anchor="middle" x="392" y="-410" font-family="Helvetica,sans-Serif" font-size="10.00">imports</text>
</g>
<!-- figs -->
<g id="node6" class="node">
<title>figs</title>
<path fill="none" stroke="black" d="M580,-484C580,-484 511,-484 511,-484 505,-484 499,-478 499,-472 499,-472 499,-460 499,-460 499,-454 505,-448 511,-448 511,-448 580,-448 580,-448 586,-448 592,-454 592,-460 592,-460 592,-472 592,-472 592,-478 586,-484 580,-484"/>
<text text-anchor="middle" x="545.5" y="-469.4" font-family="Helvetica,sans-Serif" font-size="12.00">figs/</text>
<text text-anchor="middle" x="545.5" y="-456.4" font-family="Helvetica,sans-Serif" font-size="12.00">(saved plots)</text>
</g>
<!-- tdoa&#45;&gt;figs -->
<g id="edge14" class="edge">
<title>tdoa&#45;&gt;figs</title>
<path fill="none" stroke="black" d="M334.26,-454.95C384.87,-457.61 445.54,-460.8 488.66,-463.07"/>
<polygon fill="black" stroke="black" points="488.51,-466.56 498.68,-463.59 488.88,-459.57 488.51,-466.56"/>
<text text-anchor="middle" x="392" y="-462" font-family="Helvetica,sans-Serif" font-size="10.00">saves</text>
</g>
<!-- tdoa&#45;&gt;rf -->
<g id="edge6" class="edge">
<title>tdoa&#45;&gt;rf</title>
<path fill="none" stroke="black" d="M323.65,-431.95C327.41,-429.35 330.9,-426.38 334,-423 362.16,-392.29 322.34,-360.26 352,-331 359.59,-323.51 406.03,-314.95 451.39,-308.17"/>
<polygon fill="black" stroke="black" points="451.95,-311.63 461.34,-306.71 450.94,-304.7 451.95,-311.63"/>
<text text-anchor="middle" x="392" y="-334" font-family="Helvetica,sans-Serif" font-size="10.00">imports</text>
</g>
<!-- aoa&#45;&gt;figs -->
<g id="edge15" class="edge">
<title>aoa&#45;&gt;figs</title>
<path fill="none" stroke="black" d="M331.77,-492.55C382.84,-486.17 444.75,-478.45 488.58,-472.98"/>
<polygon fill="black" stroke="black" points="489.26,-476.42 498.75,-471.71 488.4,-469.47 489.26,-476.42"/>
<text text-anchor="middle" x="392" y="-492" font-family="Helvetica,sans-Serif" font-size="10.00">saves</text>
</g>
<!-- aoa&#45;&gt;rf -->
<g id="edge7" class="edge">
<title>aoa&#45;&gt;rf</title>
<path fill="none" stroke="black" d="M324.2,-485.78C327.77,-483.21 331.07,-480.3 334,-477 367.44,-439.27 318.56,-402.73 352,-365 376.54,-337.31 397.05,-354.13 432,-342 442.72,-338.28 453.89,-334.1 464.86,-329.8"/>
<polygon fill="black" stroke="black" points="466.42,-332.95 474.43,-326.01 463.85,-326.44 466.42,-332.95"/>
<text text-anchor="middle" x="392" y="-368" font-family="Helvetica,sans-Serif" font-size="10.00">imports</text>
</g>
<!-- cmp&#45;&gt;figs -->
<g id="edge16" class="edge">
<title>cmp&#45;&gt;figs</title>
<path fill="none" stroke="black" d="M318.42,-414.03C371.88,-426.32 441.38,-442.29 489.13,-453.27"/>
<polygon fill="black" stroke="black" points="488.44,-456.7 498.97,-455.53 490.01,-449.88 488.44,-456.7"/>
<text text-anchor="middle" x="392" y="-442" font-family="Helvetica,sans-Serif" font-size="10.00">saves</text>
</g>
<!-- cmp&#45;&gt;rf -->
<g id="edge8" class="edge">
<title>cmp&#45;&gt;rf</title>
<path fill="none" stroke="black" d="M253.47,-377.81C272.39,-353.97 309.33,-313.28 352,-297 382.85,-285.23 418.56,-282.39 450.79,-283.35"/>
<polygon fill="black" stroke="black" points="450.98,-286.86 461.12,-283.79 451.28,-279.87 450.98,-286.86"/>
<text text-anchor="middle" x="392" y="-300" font-family="Helvetica,sans-Serif" font-size="10.00">imports</text>
</g>
<!-- d1 -->
<g id="node9" class="node">
<title>d1</title>
<path fill="none" stroke="black" d="M596,-106C596,-106 495,-106 495,-106 489,-106 483,-100 483,-94 483,-94 483,-82 483,-82 483,-76 489,-70 495,-70 495,-70 596,-70 596,-70 602,-70 608,-76 608,-82 608,-82 608,-94 608,-94 608,-100 602,-106 596,-106"/>
<text text-anchor="middle" x="545.5" y="-84.9" font-family="Helvetica,sans-Serif" font-size="12.00">ch4_rf_2d_square/</text>
</g>
<!-- cmp&#45;&gt;d1 -->
<g id="edge9" class="edge">
<title>cmp&#45;&gt;d1</title>
<path fill="none" stroke="black" stroke-dasharray="5,2" d="M243.51,-377.7C252.97,-333.11 283.12,-217.74 352,-153 384.82,-122.16 432.78,-105.91 472.63,-97.37"/>
<polygon fill="black" stroke="black" points="473.46,-100.78 482.57,-95.36 472.07,-93.91 473.46,-100.78"/>
<text text-anchor="middle" x="392" y="-156" font-family="Helvetica,sans-Serif" font-size="10.00">&#45;&#45;data (optional)</text>
</g>
<!-- d2 -->
<g id="node10" class="node">
<title>d2</title>
<path fill="none" stroke="black" d="M593,-52C593,-52 498,-52 498,-52 492,-52 486,-46 486,-40 486,-40 486,-28 486,-28 486,-22 492,-16 498,-16 498,-16 593,-16 593,-16 599,-16 605,-22 605,-28 605,-28 605,-40 605,-40 605,-46 599,-52 593,-52"/>
<text text-anchor="middle" x="545.5" y="-30.9" font-family="Helvetica,sans-Serif" font-size="12.00">ch4_rf_2d_linear/</text>
</g>
<!-- cmp&#45;&gt;d2 -->
<g id="edge10" class="edge">
<title>cmp&#45;&gt;d2</title>
<path fill="none" stroke="black" stroke-dasharray="5,2" d="M241.42,-377.8C246.45,-325.89 267.91,-175.57 352,-94 385.01,-61.98 434.83,-47.02 475.52,-40.05"/>
<polygon fill="black" stroke="black" points="476.32,-43.46 485.65,-38.44 475.22,-36.55 476.32,-43.46"/>
<text text-anchor="middle" x="392" y="-97" font-family="Helvetica,sans-Serif" font-size="10.00">&#45;&#45;data (optional)</text>
</g>
<!-- d3 -->
<g id="node11" class="node">
<title>d3</title>
<path fill="none" stroke="black" d="M588,-214C588,-214 503,-214 503,-214 497,-214 491,-208 491,-202 491,-202 491,-190 491,-190 491,-184 497,-178 503,-178 503,-178 588,-178 588,-178 594,-178 600,-184 600,-190 600,-190 600,-202 600,-202 600,-208 594,-214 588,-214"/>
<text text-anchor="middle" x="545.5" y="-192.9" font-family="Helvetica,sans-Serif" font-size="12.00">ch4_rf_2d_nlos/</text>
</g>
<!-- cmp&#45;&gt;d3 -->
<g id="edge11" class="edge">
<title>cmp&#45;&gt;d3</title>
<path fill="none" stroke="black" stroke-dasharray="5,2" d="M251.58,-377.76C269.84,-350.36 307.8,-298.56 352,-268 391.1,-240.97 441.63,-222.57 481.11,-211.15"/>
<polygon fill="black" stroke="black" points="482.22,-214.47 490.89,-208.39 480.32,-207.73 482.22,-214.47"/>
<text text-anchor="middle" x="392" y="-271" font-family="Helvetica,sans-Serif" font-size="10.00">&#45;&#45;data (optional)</text>
</g>
<!-- d4 -->
<g id="node12" class="node">
<title>d4</title>
<path fill="none" stroke="black" d="M598.5,-160C598.5,-160 492.5,-160 492.5,-160 486.5,-160 480.5,-154 480.5,-148 480.5,-148 480.5,-136 480.5,-136 480.5,-130 486.5,-124 492.5,-124 492.5,-124 598.5,-124 598.5,-124 604.5,-124 610.5,-130 610.5,-136 610.5,-136 610.5,-148 610.5,-148 610.5,-154 604.5,-160 598.5,-160"/>
<text text-anchor="middle" x="545.5" y="-138.9" font-family="Helvetica,sans-Serif" font-size="12.00">ch4_rf_2d_optimal/</text>
</g>
<!-- cmp&#45;&gt;d4 -->
<g id="edge12" class="edge">
<title>cmp&#45;&gt;d4</title>
<path fill="none" stroke="black" stroke-dasharray="5,2" d="M246.7,-377.82C260.86,-341.64 297.11,-260.02 352,-212 385.31,-182.86 431.73,-165.51 470.64,-155.37"/>
<polygon fill="black" stroke="black" points="471.5,-158.76 480.35,-152.95 469.8,-151.97 471.5,-158.76"/>
<text text-anchor="middle" x="392" y="-215" font-family="Helvetica,sans-Serif" font-size="10.00">&#45;&#45;data (optional)</text>
</g>
</g>
</svg>
