<?xml version="1.0" encoding="UTF-8" standalone="no"?>
<!DOCTYPE svg PUBLIC "-//W3C//DTD SVG 1.1//EN"
 "http://www.w3.org/Graphics/SVG/1.1/DTD/svg11.dtd">
<!-- Generated by graphviz version 2.43.0 (0)
 -->
<!-- Title: CH2_Flow Pages: 1 -->
<svg width="2346pt" height="344pt"
 viewBox="0.00 0.00 2345.99 344.00" xmlns="http://www.w3.org/2000/svg" xmlns:xlink="http://www.w3.org/1999/xlink">
<g id="graph0" class="graph" transform="scale(1 1) rotate(0) translate(4 340)">
<title>CH2_Flow</title>
<polygon fill="white" stroke="transparent" points="-4,4 -4,-340 2341.99,-340 2341.99,4 -4,4"/>
<g id="clust1" class="cluster">
<title>cluster_entry</title>
<path fill="white" stroke="#bbbbbb" d="M20,-211C20,-211 747.99,-211 747.99,-211 753.99,-211 759.99,-217 759.99,-223 759.99,-223 759.99,-274 759.99,-274 759.99,-280 753.99,-286 747.99,-286 747.99,-286 20,-286 20,-286 14,-286 8,-280 8,-274 8,-274 8,-223 8,-223 8,-217 14,-211 20,-211"/>
<text text-anchor="middle" x="383.99" y="-270.8" font-family="Helvetica,sans-Serif" font-size="14.00">Entry</text>
</g>
<g id="clust2" class="cluster">
<title>cluster_dataset</title>
<path fill="white" stroke="#bbbbbb" d="M809.99,-253C809.99,-253 1434.99,-253 1434.99,-253 1440.99,-253 1446.99,-259 1446.99,-265 1446.99,-265 1446.99,-316 1446.99,-316 1446.99,-322 1440.99,-328 1434.99,-328 1434.99,-328 809.99,-328 809.99,-328 803.99,-328 797.99,-322 797.99,-316 797.99,-316 797.99,-265 797.99,-265 797.99,-259 803.99,-253 809.99,-253"/>
<text text-anchor="middle" x="1122.49" y="-312.8" font-family="Helvetica,sans-Serif" font-size="14.00">Dataset path (optional)</text>
</g>
<g id="clust3" class="cluster">
<title>cluster_inline</title>
<path fill="white" stroke="#bbbbbb" d="M1043.99,-170C1043.99,-170 1184.99,-170 1184.99,-170 1190.99,-170 1196.99,-176 1196.99,-182 1196.99,-182 1196.99,-233 1196.99,-233 1196.99,-239 1190.99,-245 1184.99,-245 1184.99,-245 1043.99,-245 1043.99,-245 1037.99,-245 1031.99,-239 1031.99,-233 1031.99,-233 1031.99,-182 1031.99,-182 1031.99,-176 1037.99,-170 1043.99,-170"/>
<text text-anchor="middle" x="1114.49" y="-229.8" font-family="Helvetica,sans-Serif" font-size="14.00">Inline data (default)</text>
</g>
<g id="clust4" class="cluster">
<title>cluster_demo</title>
<path fill="white" stroke="#bbbbbb" d="M1275.49,-170C1275.49,-170 2025.99,-170 2025.99,-170 2031.99,-170 2037.99,-176 2037.99,-182 2037.99,-182 2037.99,-233 2037.99,-233 2037.99,-239 2031.99,-245 2025.99,-245 2025.99,-245 1275.49,-245 1275.49,-245 1269.49,-245 1263.49,-239 1263.49,-233 1263.49,-233 1263.49,-182 1263.49,-182 1263.49,-176 1269.49,-170 1275.49,-170"/>
<text text-anchor="middle" x="1650.74" y="-229.8" font-family="Helvetica,sans-Serif" font-size="14.00">Chapter 2 demo pipeline</text>
</g>
<g id="clust5" class="cluster">
<title>cluster_core</title>
<path fill="white" stroke="#bbbbbb" d="M2092.99,-8C2092.99,-8 2317.99,-8 2317.99,-8 2323.99,-8 2329.99,-14 2329.99,-20 2329.99,-20 2329.99,-207 2329.99,-207 2329.99,-213 2323.99,-219 2317.99,-219 2317.99,-219 2092.99,-219 2092.99,-219 2086.99,-219 2080.99,-213 2080.99,-207 2080.99,-207 2080.99,-20 2080.99,-20 2080.99,-14 2086.99,-8 2092.99,-8"/>
<text text-anchor="middle" x="2205.49" y="-203.8" font-family="Helvetica,sans-Serif" font-size="14.00">core.coords (reusable)</text>
</g>
<!-- Run script -->
<g id="node1" class="node">
<title>Run script</title>
<path fill="white" stroke="#444444" d="M322,-255C322,-255 28,-255 28,-255 22,-255 16,-249 16,-243 16,-243 16,-231 16,-231 16,-225 22,-219 28,-219 28,-219 322,-219 322,-219 328,-219 334,-225 334,-231 334,-231 334,-243 334,-243 334,-249 328,-255 322,-255"/>
<text text-anchor="middle" x="175" y="-234.2" font-family="Helvetica,sans-Serif" font-size="11.00">python &#45;m ch2_coords.example_coordinate_transforms</text>
</g>
<!-- Parse args -->
<g id="node2" class="node">
<title>Parse args</title>
<path fill="white" stroke="#444444" d="M521,-255C521,-255 383,-255 383,-255 377,-255 371,-249 371,-243 371,-243 371,-231 371,-231 371,-225 377,-219 383,-219 383,-219 521,-219 521,-219 527,-219 533,-225 533,-231 533,-231 533,-243 533,-243 533,-249 527,-255 521,-255"/>
<text text-anchor="middle" x="452" y="-234.2" font-family="Helvetica,sans-Serif" font-size="11.00">argparse: &#45;&#45;data (optional)</text>
</g>
<!-- Run script&#45;&gt;Parse args -->
<g id="edge1" class="edge">
<title>Run script&#45;&gt;Parse args</title>
<path fill="none" stroke="#555555" d="M334.38,-237C344.07,-237 353.63,-237 362.84,-237"/>
<polygon fill="#555555" stroke="#555555" points="362.84,-239.8 370.84,-237 362.84,-234.2 362.84,-239.8"/>
</g>
<!-- Has dataset? -->
<g id="node3" class="node">
<title>Has dataset?</title>
<polygon fill="white" stroke="#444444" points="660.99,-255 570.01,-237 660.99,-219 751.98,-237 660.99,-255"/>
<text text-anchor="middle" x="660.99" y="-234.2" font-family="Helvetica,sans-Serif" font-size="11.00">&#45;&#45;data provided?</text>
</g>
<!-- Parse args&#45;&gt;Has dataset? -->
<g id="edge2" class="edge">
<title>Parse args&#45;&gt;Has dataset?</title>
<path fill="none" stroke="#555555" d="M533.03,-237C542.45,-237 552.15,-237 561.78,-237"/>
<polygon fill="#555555" stroke="#555555" points="561.85,-239.8 569.85,-237 561.85,-234.2 561.85,-239.8"/>
</g>
<!-- Resolve path -->
<g id="node4" class="node">
<title>Resolve path</title>
<path fill="white" stroke="#444444" d="M990.99,-297C990.99,-297 817.99,-297 817.99,-297 811.99,-297 805.99,-291 805.99,-285 805.99,-285 805.99,-273 805.99,-273 805.99,-267 811.99,-261 817.99,-261 817.99,-261 990.99,-261 990.99,-261 996.99,-261 1002.99,-267 1002.99,-273 1002.99,-273 1002.99,-285 1002.99,-285 1002.99,-291 996.99,-297 990.99,-297"/>
<text text-anchor="middle" x="904.49" y="-282.2" font-family="Helvetica,sans-Serif" font-size="11.00">resolve dataset path</text>
<text text-anchor="middle" x="904.49" y="-270.2" font-family="Helvetica,sans-Serif" font-size="11.00">(args.data or data/sim/&lt;name&gt;)</text>
</g>
<!-- Has dataset?&#45;&gt;Resolve path -->
<g id="edge5" class="edge">
<title>Has dataset?&#45;&gt;Resolve path</title>
<path fill="none" stroke="#555555" d="M710,-245.35C735.12,-249.72 766.95,-255.25 797.5,-260.57"/>
<polygon fill="#555555" stroke="#555555" points="797.29,-263.37 805.65,-261.98 798.25,-257.86 797.29,-263.37"/>
<text text-anchor="middle" x="778.99" y="-261" font-family="Helvetica,sans-Serif" font-size="10.00">yes</text>
</g>
<!-- Inline init -->
<g id="node7" class="node">
<title>Inline init</title>
<path fill="white" stroke="#444444" d="M1176.99,-214C1176.99,-214 1051.99,-214 1051.99,-214 1045.99,-214 1039.99,-208 1039.99,-202 1039.99,-202 1039.99,-190 1039.99,-190 1039.99,-184 1045.99,-178 1051.99,-178 1051.99,-178 1176.99,-178 1176.99,-178 1182.99,-178 1188.99,-184 1188.99,-190 1188.99,-190 1188.99,-202 1188.99,-202 1188.99,-208 1182.99,-214 1176.99,-214"/>
<text text-anchor="middle" x="1114.49" y="-199.2" font-family="Helvetica,sans-Serif" font-size="11.00">Define SF reference LLH</text>
<text text-anchor="middle" x="1114.49" y="-187.2" font-family="Helvetica,sans-Serif" font-size="11.00">(lat, lon, h)</text>
</g>
<!-- Has dataset?&#45;&gt;Inline init -->
<g id="edge6" class="edge">
<title>Has dataset?&#45;&gt;Inline init</title>
<path fill="none" stroke="#555555" d="M723.83,-231.39C803.69,-224.13 942.93,-211.49 1031.54,-203.44"/>
<polygon fill="#555555" stroke="#555555" points="1031.97,-206.21 1039.69,-202.7 1031.47,-200.64 1031.97,-206.21"/>
<text text-anchor="middle" x="904.49" y="-227" font-family="Helvetica,sans-Serif" font-size="10.00">no</text>
</g>
<!-- Load dataset -->
<g id="node5" class="node">
<title>Load dataset</title>
<path fill="white" stroke="#444444" d="M1174.49,-297C1174.49,-297 1054.49,-297 1054.49,-297 1048.49,-297 1042.49,-291 1042.49,-285 1042.49,-285 1042.49,-273 1042.49,-273 1042.49,-267 1048.49,-261 1054.49,-261 1054.49,-261 1174.49,-261 1174.49,-261 1180.49,-261 1186.49,-267 1186.49,-273 1186.49,-273 1186.49,-285 1186.49,-285 1186.49,-291 1180.49,-297 1174.49,-297"/>
<text text-anchor="middle" x="1114.49" y="-282.2" font-family="Helvetica,sans-Serif" font-size="11.00">load_dataset():</text>
<text text-anchor="middle" x="1114.49" y="-270.2" font-family="Helvetica,sans-Serif" font-size="11.00">load *.txt + config.json</text>
</g>
<!-- Resolve path&#45;&gt;Load dataset -->
<g id="edge3" class="edge">
<title>Resolve path&#45;&gt;Load dataset</title>
<path fill="none" stroke="#555555" d="M1003.1,-279C1013.51,-279 1024,-279 1034.17,-279"/>
<polygon fill="#555555" stroke="#555555" points="1034.24,-281.8 1042.24,-279 1034.24,-276.2 1034.24,-281.8"/>
</g>
<!-- Dataset files -->
<g id="node6" class="node">
<title>Dataset files</title>
<polygon fill="white" stroke="#444444" points="1438.99,-297 1435.99,-301 1414.99,-301 1411.99,-297 1225.99,-297 1225.99,-261 1438.99,-261 1438.99,-297"/>
<text text-anchor="middle" x="1332.49" y="-282.2" font-family="Helvetica,sans-Serif" font-size="11.00">data/sim/ch2_coords_san_francisco/</text>
<text text-anchor="middle" x="1332.49" y="-270.2" font-family="Helvetica,sans-Serif" font-size="11.00">llh,ecef,enu,ref_llh,euler,quat</text>
</g>
<!-- Load dataset&#45;&gt;Dataset files -->
<g id="edge4" class="edge">
<title>Load dataset&#45;&gt;Dataset files</title>
<path fill="none" stroke="#555555" d="M1186.52,-279C1196.51,-279 1206.98,-279 1217.54,-279"/>
<polygon fill="#555555" stroke="#555555" points="1217.61,-281.8 1225.61,-279 1217.61,-276.2 1217.61,-281.8"/>
</g>
<!-- LLH↔ECEF -->
<g id="node8" class="node">
<title>LLH↔ECEF</title>
<path fill="white" stroke="#444444" d="M1381.49,-214C1381.49,-214 1283.49,-214 1283.49,-214 1277.49,-214 1271.49,-208 1271.49,-202 1271.49,-202 1271.49,-190 1271.49,-190 1271.49,-184 1277.49,-178 1283.49,-178 1283.49,-178 1381.49,-178 1381.49,-178 1387.49,-178 1393.49,-184 1393.49,-190 1393.49,-190 1393.49,-202 1393.49,-202 1393.49,-208 1387.49,-214 1381.49,-214"/>
<text text-anchor="middle" x="1332.49" y="-199.2" font-family="Helvetica,sans-Serif" font-size="11.00">LLH ↔ ECEF</text>
<text text-anchor="middle" x="1332.49" y="-187.2" font-family="Helvetica,sans-Serif" font-size="11.00">(verify / round&#45;trip)</text>
</g>
<!-- Load dataset&#45;&gt;LLH↔ECEF -->
<g id="edge7" class="edge">
<title>Load dataset&#45;&gt;LLH↔ECEF</title>
<path fill="none" stroke="#555555" d="M1165.12,-260.93C1175.66,-257.04 1186.7,-252.92 1196.99,-249 1224.09,-238.67 1254.13,-226.87 1278.93,-217.03"/>
<polygon fill="#555555" stroke="#555555" points="1280.05,-219.6 1286.45,-214.04 1277.98,-214.39 1280.05,-219.6"/>
</g>
<!-- Inline init&#45;&gt;LLH↔ECEF -->
<g id="edge8" class="edge">
<title>Inline init&#45;&gt;LLH↔ECEF</title>
<path fill="none" stroke="#555555" d="M1189.22,-196C1213.16,-196 1239.61,-196 1263.14,-196"/>
<polygon fill="#555555" stroke="#555555" points="1263.34,-198.8 1271.34,-196 1263.34,-193.2 1263.34,-198.8"/>
</g>
<!-- ENU -->
<g id="node9" class="node">
<title>ENU</title>
<path fill="white" stroke="#444444" d="M1591.99,-214C1591.99,-214 1487.99,-214 1487.99,-214 1481.99,-214 1475.99,-208 1475.99,-202 1475.99,-202 1475.99,-190 1475.99,-190 1475.99,-184 1481.99,-178 1487.99,-178 1487.99,-178 1591.99,-178 1591.99,-178 1597.99,-178 1603.99,-184 1603.99,-190 1603.99,-190 1603.99,-202 1603.99,-202 1603.99,-208 1597.99,-214 1591.99,-214"/>
<text text-anchor="middle" x="1539.99" y="-199.2" font-family="Helvetica,sans-Serif" font-size="11.00">ECEF ↔ ENU</text>
<text text-anchor="middle" x="1539.99" y="-187.2" font-family="Helvetica,sans-Serif" font-size="11.00">(local frame wrt ref)</text>
</g>
<!-- LLH↔ECEF&#45;&gt;ENU -->
<g id="edge9" class="edge">
<title>LLH↔ECEF&#45;&gt;ENU</title>
<path fill="none" stroke="#555555" d="M1393.76,-196C1416.95,-196 1443.66,-196 1467.79,-196"/>
<polygon fill="#555555" stroke="#555555" points="1467.86,-198.8 1475.86,-196 1467.86,-193.2 1467.86,-198.8"/>
</g>
<!-- transforms.py -->
<g id="node12" class="node">
<title>transforms.py</title>
<path fill="white" stroke="#444444" d="M2274.49,-114C2274.49,-114 2136.49,-114 2136.49,-114 2130.49,-114 2124.49,-108 2124.49,-102 2124.49,-102 2124.49,-82 2124.49,-82 2124.49,-76 2130.49,-70 2136.49,-70 2136.49,-70 2274.49,-70 2274.49,-70 2280.49,-70 2286.49,-76 2286.49,-82 2286.49,-82 2286.49,-102 2286.49,-102 2286.49,-108 2280.49,-114 2274.49,-114"/>
<text text-anchor="middle" x="2205.49" y="-101.2" font-family="Helvetica,sans-Serif" font-size="11.00">core/coords/transforms.py</text>
<text text-anchor="middle" x="2205.49" y="-89.2" font-family="Helvetica,sans-Serif" font-size="11.00">llh_to_ecef, ecef_to_llh,</text>
<text text-anchor="middle" x="2205.49" y="-77.2" font-family="Helvetica,sans-Serif" font-size="11.00">ecef_to_enu, enu_to_ecef</text>
</g>
<!-- LLH↔ECEF&#45;&gt;transforms.py -->
<g id="edge12" class="edge">
<title>LLH↔ECEF&#45;&gt;transforms.py</title>
<path fill="none" stroke="#555555" stroke-dasharray="5,2" d="M1348.13,-177.92C1379.18,-141.77 1455.67,-64 1538.99,-64 1538.99,-64 1538.99,-64 1938.99,-64 1998.27,-64 2064.6,-70.99 2116.12,-77.98"/>
<polygon fill="#555555" stroke="#555555" points="2115.96,-80.79 2124.26,-79.11 2116.72,-75.24 2115.96,-80.79"/>
<text text-anchor="middle" x="1713.99" y="-67" font-family="Helvetica,sans-Serif" font-size="10.00">calls</text>
</g>
<!-- Rotations -->
<g id="node10" class="node">
<title>Rotations</title>
<path fill="white" stroke="#444444" d="M1774.99,-214C1774.99,-214 1652.99,-214 1652.99,-214 1646.99,-214 1640.99,-208 1640.99,-202 1640.99,-202 1640.99,-190 1640.99,-190 1640.99,-184 1646.99,-178 1652.99,-178 1652.99,-178 1774.99,-178 1774.99,-178 1780.99,-178 1786.99,-184 1786.99,-190 1786.99,-190 1786.99,-202 1786.99,-202 1786.99,-208 1780.99,-214 1774.99,-214"/>
<text text-anchor="middle" x="1713.99" y="-199.2" font-family="Helvetica,sans-Serif" font-size="11.00">Euler ↔ R ↔ Quaternion</text>
<text text-anchor="middle" x="1713.99" y="-187.2" font-family="Helvetica,sans-Serif" font-size="11.00">+ apply R to vector</text>
</g>
<!-- ENU&#45;&gt;Rotations -->
<g id="edge10" class="edge">
<title>ENU&#45;&gt;Rotations</title>
<path fill="none" stroke="#555555" d="M1604.06,-196C1613.42,-196 1623.18,-196 1632.83,-196"/>
<polygon fill="#555555" stroke="#555555" points="1632.91,-198.8 1640.91,-196 1632.91,-193.2 1632.91,-198.8"/>
</g>
<!-- ENU&#45;&gt;transforms.py -->
<g id="edge13" class="edge">
<title>ENU&#45;&gt;transforms.py</title>
<path fill="none" stroke="#555555" stroke-dasharray="5,2" d="M1603.12,-177.94C1615.59,-174.68 1628.66,-171.52 1640.99,-169 1807.33,-135.02 2004.44,-111.95 2115.94,-100.46"/>
<polygon fill="#555555" stroke="#555555" points="2116.47,-103.22 2124.15,-99.62 2115.9,-97.65 2116.47,-103.22"/>
<text text-anchor="middle" x="1816.49" y="-142" font-family="Helvetica,sans-Serif" font-size="10.00">calls</text>
</g>
<!-- Indoor scenario -->
<g id="node11" class="node">
<title>Indoor scenario</title>
<path fill="white" stroke="#444444" d="M2017.99,-214C2017.99,-214 1857.99,-214 1857.99,-214 1851.99,-214 1845.99,-208 1845.99,-202 1845.99,-202 1845.99,-190 1845.99,-190 1845.99,-184 1851.99,-178 1857.99,-178 1857.99,-178 2017.99,-178 2017.99,-178 2023.99,-178 2029.99,-184 2029.99,-190 2029.99,-190 2029.99,-202 2029.99,-202 2029.99,-208 2023.99,-214 2017.99,-214"/>
<text text-anchor="middle" x="1937.99" y="-199.2" font-family="Helvetica,sans-Serif" font-size="11.00">Indoor scenario</text>
<text text-anchor="middle" x="1937.99" y="-187.2" font-family="Helvetica,sans-Serif" font-size="11.00">ENU user poses → ECEF → LLH</text>
</g>
<!-- Rotations&#45;&gt;Indoor scenario -->
<g id="edge11" class="edge">
<title>Rotations&#45;&gt;Indoor scenario</title>
<path fill="none" stroke="#555555" d="M1787.07,-196C1803.17,-196 1820.52,-196 1837.51,-196"/>
<polygon fill="#555555" stroke="#555555" points="1837.82,-198.8 1845.82,-196 1837.82,-193.2 1837.82,-198.8"/>
</g>
<!-- rotations.py -->
<g id="node13" class="node">
<title>rotations.py</title>
<path fill="white" stroke="#444444" d="M2309.99,-188C2309.99,-188 2100.99,-188 2100.99,-188 2094.99,-188 2088.99,-182 2088.99,-176 2088.99,-176 2088.99,-144 2088.99,-144 2088.99,-138 2094.99,-132 2100.99,-132 2100.99,-132 2309.99,-132 2309.99,-132 2315.99,-132 2321.99,-138 2321.99,-144 2321.99,-144 2321.99,-176 2321.99,-176 2321.99,-182 2315.99,-188 2309.99,-188"/>
<text text-anchor="middle" x="2205.49" y="-175.2" font-family="Helvetica,sans-Serif" font-size="11.00">core/coords/rotations.py</text>
<text text-anchor="middle" x="2205.49" y="-163.2" font-family="Helvetica,sans-Serif" font-size="11.00">euler_to_rotation_matrix,</text>
<text text-anchor="middle" x="2205.49" y="-151.2" font-family="Helvetica,sans-Serif" font-size="11.00">euler_to_quat, quat_to_rotation_matrix,</text>
<text text-anchor="middle" x="2205.49" y="-139.2" font-family="Helvetica,sans-Serif" font-size="11.00">rotation_matrix_to_euler</text>
</g>
<!-- Rotations&#45;&gt;rotations.py -->
<g id="edge14" class="edge">
<title>Rotations&#45;&gt;rotations.py</title>
<path fill="none" stroke="#555555" stroke-dasharray="5,2" d="M1764.96,-177.9C1789.09,-170.1 1818.68,-161.88 1845.99,-158 1923.41,-147 2011.19,-147.28 2080.51,-150.41"/>
<polygon fill="#555555" stroke="#555555" points="2080.75,-153.23 2088.87,-150.81 2081.02,-147.63 2080.75,-153.23"/>
<text text-anchor="middle" x="1937.99" y="-161" font-family="Helvetica,sans-Serif" font-size="10.00">calls</text>
</g>
<!-- Indoor scenario&#45;&gt;transforms.py -->
<g id="edge15" class="edge">
<title>Indoor scenario&#45;&gt;transforms.py</title>
<path fill="none" stroke="#555555" stroke-dasharray="5,2" d="M2008.63,-177.9C2018.81,-174.01 2028.91,-169.41 2037.99,-164 2060.68,-150.49 2057.86,-135.75 2080.99,-123 2092.05,-116.9 2104.33,-111.98 2116.73,-108.02"/>
<polygon fill="#555555" stroke="#555555" points="2117.61,-110.68 2124.45,-105.67 2115.98,-105.32 2117.61,-110.68"/>
<text text-anchor="middle" x="2059.49" y="-159" font-family="Helvetica,sans-Serif" font-size="10.00">calls</text>
</g>
<!-- frames.py -->
<g id="node14" class="node">
<title>frames.py</title>
<path fill="white" stroke="#444444" d="M2287.49,-52C2287.49,-52 2123.49,-52 2123.49,-52 2117.49,-52 2111.49,-46 2111.49,-40 2111.49,-40 2111.49,-28 2111.49,-28 2111.49,-22 2117.49,-16 2123.49,-16 2123.49,-16 2287.49,-16 2287.49,-16 2293.49,-16 2299.49,-22 2299.49,-28 2299.49,-28 2299.49,-40 2299.49,-40 2299.49,-46 2293.49,-52 2287.49,-52"/>
<text text-anchor="middle" x="2205.49" y="-37.2" font-family="Helvetica,sans-Serif" font-size="11.00">core/coords/frames.py</text>
<text text-anchor="middle" x="2205.49" y="-25.2" font-family="Helvetica,sans-Serif" font-size="11.00">FrameType, Frame (types only)</text>
</g>
</g>
</svg>
