<?xml version="1.0" encoding="UTF-8" standalone="no"?>
<!DOCTYPE svg PUBLIC "-//W3C//DTD SVG 1.1//EN"
 "http://www.w3.org/Graphics/SVG/1.1/DTD/svg11.dtd">
<!-- Generated by graphviz version 2.43.0 (0)
 -->
<!-- Title: G Pages: 1 -->
<svg width="1051pt" height="443pt"
 viewBox="0.00 0.00 1051.00 443.15" xmlns="http://www.w3.org/2000/svg" xmlns:xlink="http://www.w3.org/1999/xlink">
<g id="graph0" class="graph" transform="scale(1 1) rotate(0) translate(4 439.15)">
<title>G</title>
<polygon fill="white" stroke="transparent" points="-4,4 -4,-439.15 1047,-439.15 1047,4 -4,4"/>
<text text-anchor="middle" x="521.5" y="-418.35" font-family="Times,serif" font-size="16.00">Chapter 8 – Fusion Pipelines (LC vs TC) – Component Overview</text>
<g id="clust1" class="cluster">
<title>cluster_scripts</title>
<path fill="none" stroke="#999999" d="M20,-74.15C20,-74.15 365,-74.15 365,-74.15 371,-74.15 377,-80.15 377,-86.15 377,-86.15 377,-194.15 377,-194.15 377,-200.15 371,-206.15 365,-206.15 365,-206.15 20,-206.15 20,-206.15 14,-206.15 8,-200.15 8,-194.15 8,-194.15 8,-86.15 8,-86.15 8,-80.15 14,-74.15 20,-74.15"/>
<text text-anchor="middle" x="192.5" y="-189.35" font-family="Times,serif" font-size="16.00">Entry scripts (ch8_sensor_fusion/)</text>
</g>
<g id="clust2" class="cluster">
<title>cluster_models</title>
<path fill="none" stroke="#999999" d="M418,-221.15C418,-221.15 730,-221.15 730,-221.15 736,-221.15 742,-227.15 742,-233.15 742,-233.15 742,-389.15 742,-389.15 742,-395.15 736,-401.15 730,-401.15 730,-401.15 418,-401.15 418,-401.15 412,-401.15 406,-395.15 406,-389.15 406,-389.15 406,-233.15 406,-233.15 406,-227.15 412,-221.15 418,-221.15"/>
<text text-anchor="middle" x="574" y="-384.35" font-family="Times,serif" font-size="16.00">Chapter 8 models (ch8_sensor_fusion/)</text>
</g>
<g id="clust3" class="cluster">
<title>cluster_core</title>
<path fill="none" stroke="#999999" d="M858,-102.15C858,-102.15 1023,-102.15 1023,-102.15 1029,-102.15 1035,-108.15 1035,-114.15 1035,-114.15 1035,-314.15 1035,-314.15 1035,-320.15 1029,-326.15 1023,-326.15 1023,-326.15 858,-326.15 858,-326.15 852,-326.15 846,-320.15 846,-314.15 846,-314.15 846,-114.15 846,-114.15 846,-108.15 852,-102.15 858,-102.15"/>
<text text-anchor="middle" x="940.5" y="-309.35" font-family="Times,serif" font-size="16.00">Reusable core/</text>
</g>
<!-- lc -->
<g id="node1" class="node">
<title>lc</title>
<path fill="#ffffff" stroke="black" d="M357,-172.15C357,-172.15 226,-172.15 226,-172.15 220,-172.15 214,-166.15 214,-160.15 214,-160.15 214,-148.15 214,-148.15 214,-142.15 220,-136.15 226,-136.15 226,-136.15 357,-136.15 357,-136.15 363,-136.15 369,-142.15 369,-148.15 369,-148.15 369,-160.15 369,-160.15 369,-166.15 363,-172.15 357,-172.15"/>
<text text-anchor="middle" x="291.5" y="-157.55" font-family="Times,serif" font-size="12.00">lc_uwb_imu_ekf.py</text>
<text text-anchor="middle" x="291.5" y="-144.55" font-family="Times,serif" font-size="12.00">Loosely coupled fusion</text>
</g>
<!-- lc_m -->
<g id="node4" class="node">
<title>lc_m</title>
<path fill="#ffffff" stroke="black" d="M645,-367.15C645,-367.15 502,-367.15 502,-367.15 496,-367.15 490,-361.15 490,-355.15 490,-355.15 490,-319.15 490,-319.15 490,-313.15 496,-307.15 502,-307.15 502,-307.15 645,-307.15 645,-307.15 651,-307.15 657,-313.15 657,-319.15 657,-319.15 657,-355.15 657,-355.15 657,-361.15 651,-367.15 645,-367.15"/>
<text text-anchor="middle" x="573.5" y="-353.55" font-family="Times,serif" font-size="12.00">lc_models.py</text>
<text text-anchor="middle" x="573.5" y="-340.55" font-family="Times,serif" font-size="12.00">&#45; create_lc_fusion_ekf</text>
<text text-anchor="middle" x="573.5" y="-327.55" font-family="Times,serif" font-size="12.00">&#45; solve_uwb_position_wls</text>
<text text-anchor="middle" x="573.5" y="-314.55" font-family="Times,serif" font-size="12.00">&#45; position meas model</text>
</g>
<!-- lc&#45;&gt;lc_m -->
<g id="edge1" class="edge">
<title>lc&#45;&gt;lc_m</title>
<path fill="none" stroke="black" d="M301.58,-172.43C317.97,-203.42 355.51,-266.02 406,-298.15 428,-312.15 454.51,-321.13 479.84,-326.89"/>
<polygon fill="black" stroke="black" points="479.34,-330.36 489.85,-329.02 480.79,-323.52 479.34,-330.36"/>
</g>
<!-- fus -->
<g id="node7" class="node">
<title>fus</title>
<path fill="#ffffff" stroke="black" d="M1015,-237.65C1015,-237.65 866,-237.65 866,-237.65 860,-237.65 854,-231.65 854,-225.65 854,-225.65 854,-176.65 854,-176.65 854,-170.65 860,-164.65 866,-164.65 866,-164.65 1015,-164.65 1015,-164.65 1021,-164.65 1027,-170.65 1027,-176.65 1027,-176.65 1027,-225.65 1027,-225.65 1027,-231.65 1021,-237.65 1015,-237.65"/>
<text text-anchor="middle" x="940.5" y="-224.05" font-family="Times,serif" font-size="12.00">core/fusion</text>
<text text-anchor="middle" x="940.5" y="-211.05" font-family="Times,serif" font-size="12.00">&#45; StampedMeasurement</text>
<text text-anchor="middle" x="940.5" y="-198.05" font-family="Times,serif" font-size="12.00">&#45; innovation, S</text>
<text text-anchor="middle" x="940.5" y="-185.05" font-family="Times,serif" font-size="12.00">&#45; chi&#45;square gate</text>
<text text-anchor="middle" x="940.5" y="-172.05" font-family="Times,serif" font-size="12.00">&#45; AdaptiveGatingManager</text>
</g>
<!-- lc&#45;&gt;fus -->
<g id="edge7" class="edge">
<title>lc&#45;&gt;fus</title>
<path fill="none" stroke="black" d="M369.06,-163.39C375.12,-164.02 381.16,-164.62 387,-165.15 546.9,-179.65 733.36,-190.55 843.64,-196.38"/>
<polygon fill="black" stroke="black" points="843.57,-199.88 853.74,-196.91 843.94,-192.89 843.57,-199.88"/>
</g>
<!-- evalm -->
<g id="node8" class="node">
<title>evalm</title>
<path fill="#ffffff" stroke="black" d="M1007.5,-146.15C1007.5,-146.15 873.5,-146.15 873.5,-146.15 867.5,-146.15 861.5,-140.15 861.5,-134.15 861.5,-134.15 861.5,-122.15 861.5,-122.15 861.5,-116.15 867.5,-110.15 873.5,-110.15 873.5,-110.15 1007.5,-110.15 1007.5,-110.15 1013.5,-110.15 1019.5,-116.15 1019.5,-122.15 1019.5,-122.15 1019.5,-134.15 1019.5,-134.15 1019.5,-140.15 1013.5,-146.15 1007.5,-146.15"/>
<text text-anchor="middle" x="940.5" y="-131.55" font-family="Times,serif" font-size="12.00">core/eval</text>
<text text-anchor="middle" x="940.5" y="-118.55" font-family="Times,serif" font-size="12.00">metrics (errors, RMSE)</text>
</g>
<!-- lc&#45;&gt;evalm -->
<g id="edge10" class="edge">
<title>lc&#45;&gt;evalm</title>
<path fill="none" stroke="black" d="M369.28,-152.44C458.79,-150.3 611.17,-146.16 742,-140.15 777.61,-138.51 816.8,-136.23 850.82,-134.09"/>
<polygon fill="black" stroke="black" points="851.44,-137.56 861.2,-133.44 851,-130.58 851.44,-137.56"/>
</g>
<!-- figs -->
<g id="node10" class="node">
<title>figs</title>
<polygon fill="#ffffff" stroke="black" points="676,-131.15 673,-135.15 652,-135.15 649,-131.15 471,-131.15 471,-95.15 676,-95.15 676,-131.15"/>
<text text-anchor="middle" x="573.5" y="-110.05" font-family="Times,serif" font-size="12.00">ch8_sensor_fusion/figs/ outputs</text>
</g>
<!-- lc&#45;&gt;figs -->
<g id="edge14" class="edge">
<title>lc&#45;&gt;figs</title>
<path fill="none" stroke="black" d="M369.01,-142.94C397.36,-138.79 430.11,-134 460.94,-129.48"/>
<polygon fill="black" stroke="black" points="461.48,-132.94 470.87,-128.03 460.47,-126.01 461.48,-132.94"/>
</g>
<!-- tc -->
<g id="node2" class="node">
<title>tc</title>
<path fill="#ffffff" stroke="black" d="M354.5,-118.15C354.5,-118.15 228.5,-118.15 228.5,-118.15 222.5,-118.15 216.5,-112.15 216.5,-106.15 216.5,-106.15 216.5,-94.15 216.5,-94.15 216.5,-88.15 222.5,-82.15 228.5,-82.15 228.5,-82.15 354.5,-82.15 354.5,-82.15 360.5,-82.15 366.5,-88.15 366.5,-94.15 366.5,-94.15 366.5,-106.15 366.5,-106.15 366.5,-112.15 360.5,-118.15 354.5,-118.15"/>
<text text-anchor="middle" x="291.5" y="-103.55" font-family="Times,serif" font-size="12.00">tc_uwb_imu_ekf.py</text>
<text text-anchor="middle" x="291.5" y="-90.55" font-family="Times,serif" font-size="12.00">Tightly coupled fusion</text>
</g>
<!-- tc_m -->
<g id="node5" class="node">
<title>tc_m</title>
<path fill="#ffffff" stroke="black" d="M635,-289.15C635,-289.15 512,-289.15 512,-289.15 506,-289.15 500,-283.15 500,-277.15 500,-277.15 500,-241.15 500,-241.15 500,-235.15 506,-229.15 512,-229.15 512,-229.15 635,-229.15 635,-229.15 641,-229.15 647,-235.15 647,-241.15 647,-241.15 647,-277.15 647,-277.15 647,-283.15 641,-289.15 635,-289.15"/>
<text text-anchor="middle" x="573.5" y="-275.55" font-family="Times,serif" font-size="12.00">tc_models.py</text>
<text text-anchor="middle" x="573.5" y="-262.55" font-family="Times,serif" font-size="12.00">&#45; create_tc_fusion_ekf</text>
<text text-anchor="middle" x="573.5" y="-249.55" font-family="Times,serif" font-size="12.00">&#45; range meas models</text>
<text text-anchor="middle" x="573.5" y="-236.55" font-family="Times,serif" font-size="12.00">&#45; process model</text>
</g>
<!-- tc&#45;&gt;tc_m -->
<g id="edge2" class="edge">
<title>tc&#45;&gt;tc_m</title>
<path fill="none" stroke="black" d="M356.03,-118.27C363.22,-120.95 370.35,-123.92 377,-127.15 431.47,-153.56 488.22,-193.48 526.45,-222.51"/>
<polygon fill="black" stroke="black" points="524.73,-225.6 534.8,-228.89 528.99,-220.04 524.73,-225.6"/>
</g>
<!-- tc&#45;&gt;fus -->
<g id="edge8" class="edge">
<title>tc&#45;&gt;fus</title>
<path fill="none" stroke="black" d="M366.78,-83.64C457.48,-66.68 614.55,-47.71 742,-86.15 795.11,-102.16 797.9,-127.51 846,-155.15 848.66,-156.67 851.38,-158.2 854.13,-159.72"/>
<polygon fill="black" stroke="black" points="852.58,-162.86 863.04,-164.54 855.91,-156.7 852.58,-162.86"/>
</g>
<!-- tc&#45;&gt;evalm -->
<g id="edge11" class="edge">
<title>tc&#45;&gt;evalm</title>
<path fill="none" stroke="black" d="M326.16,-82.09C348.19,-71.34 377.97,-58.72 406,-53.15 593.44,-15.87 654.21,5.8 836,-53.15 866.24,-62.95 895.05,-85.27 914.56,-103.03"/>
<polygon fill="black" stroke="black" points="912.38,-105.78 922.07,-110.06 917.16,-100.67 912.38,-105.78"/>
</g>
<!-- tc&#45;&gt;figs -->
<g id="edge15" class="edge">
<title>tc&#45;&gt;figs</title>
<path fill="none" stroke="black" d="M366.8,-103.6C395.6,-104.93 429.2,-106.49 460.79,-107.96"/>
<polygon fill="black" stroke="black" points="460.82,-111.46 470.97,-108.43 461.14,-104.47 460.82,-111.46"/>
</g>
<!-- cmp -->
<g id="node3" class="node">
<title>cmp</title>
<path fill="#ffffff" stroke="black" d="M158,-118.15C158,-118.15 28,-118.15 28,-118.15 22,-118.15 16,-112.15 16,-106.15 16,-106.15 16,-94.15 16,-94.15 16,-88.15 22,-82.15 28,-82.15 28,-82.15 158,-82.15 158,-82.15 164,-82.15 170,-88.15 170,-94.15 170,-94.15 170,-106.15 170,-106.15 170,-112.15 164,-118.15 158,-118.15"/>
<text text-anchor="middle" x="93" y="-103.55" font-family="Times,serif" font-size="12.00">compare_lc_tc.py</text>
<text text-anchor="middle" x="93" y="-90.55" font-family="Times,serif" font-size="12.00">Runs both + compares</text>
</g>
<!-- cmp&#45;&gt;lc -->
<g id="edge3" class="edge">
<title>cmp&#45;&gt;lc</title>
<path fill="none" stroke="black" d="M159.7,-118.2C177.48,-123.09 196.87,-128.41 215.13,-133.43"/>
<polygon fill="black" stroke="black" points="214.29,-136.83 224.86,-136.11 216.14,-130.08 214.29,-136.83"/>
</g>
<!-- cmp&#45;&gt;tc -->
<g id="edge4" class="edge">
<title>cmp&#45;&gt;tc</title>
<path fill="none" stroke="black" d="M170.25,-100.15C181.93,-100.15 194.05,-100.15 205.9,-100.15"/>
<polygon fill="black" stroke="black" points="206.23,-103.65 216.23,-100.15 206.23,-96.65 206.23,-103.65"/>
</g>
<!-- cmp&#45;&gt;evalm -->
<g id="edge9" class="edge">
<title>cmp&#45;&gt;evalm</title>
<path fill="none" stroke="black" d="M150.94,-82.09C170.84,-75.91 193.36,-69.07 214,-63.15 298.87,-38.8 318.45,-23.58 406,-12.15 554.08,7.19 593.13,-0.34 742,-12.15 784.17,-15.49 798.2,-8.15 836,-27.15 870.96,-44.72 901.72,-78.33 920.43,-101.94"/>
<polygon fill="black" stroke="black" points="917.88,-104.36 926.76,-110.14 923.42,-100.08 917.88,-104.36"/>
</g>
<!-- cmp&#45;&gt;figs -->
<g id="edge16" class="edge">
<title>cmp&#45;&gt;figs</title>
<path fill="none" stroke="black" d="M162.09,-82.08C178.94,-78.38 197.02,-75.03 214,-73.15 286,-65.15 304.92,-65.85 377,-73.15 415.12,-77.01 456.78,-84.99 491.82,-92.82"/>
<polygon fill="black" stroke="black" points="491.46,-96.33 501.99,-95.14 493.01,-89.51 491.46,-96.33"/>
</g>
<!-- est -->
<g id="node6" class="node">
<title>est</title>
<path fill="#ffffff" stroke="black" d="M1004.5,-292.15C1004.5,-292.15 876.5,-292.15 876.5,-292.15 870.5,-292.15 864.5,-286.15 864.5,-280.15 864.5,-280.15 864.5,-268.15 864.5,-268.15 864.5,-262.15 870.5,-256.15 876.5,-256.15 876.5,-256.15 1004.5,-256.15 1004.5,-256.15 1010.5,-256.15 1016.5,-262.15 1016.5,-268.15 1016.5,-268.15 1016.5,-280.15 1016.5,-280.15 1016.5,-286.15 1010.5,-292.15 1004.5,-292.15"/>
<text text-anchor="middle" x="940.5" y="-277.55" font-family="Times,serif" font-size="12.00">core/estimators</text>
<text text-anchor="middle" x="940.5" y="-264.55" font-family="Times,serif" font-size="12.00">ExtendedKalmanFilter</text>
</g>
<!-- lc_m&#45;&gt;est -->
<g id="edge5" class="edge">
<title>lc_m&#45;&gt;est</title>
<path fill="none" stroke="black" d="M657.23,-339.72C709.26,-339.48 777.4,-335.71 836,-321.15 857.46,-315.81 879.97,-306.14 898.49,-296.95"/>
<polygon fill="black" stroke="black" points="900.19,-300.01 907.51,-292.36 897.01,-293.78 900.19,-300.01"/>
</g>
<!-- lc_m&#45;&gt;fus -->
<g id="edge17" class="edge">
<title>lc_m&#45;&gt;fus</title>
<path fill="none" stroke="black" stroke-dasharray="5,2" d="M657.36,-321.77C684.7,-315.67 715,-307.78 742,-298.15 742.79,-297.86 802.5,-268.53 856.05,-242.19"/>
<polygon fill="black" stroke="black" points="857.84,-245.21 865.27,-237.66 854.75,-238.93 857.84,-245.21"/>
<text text-anchor="middle" x="798" y="-290.35" font-family="Times,serif" font-size="11.00">gating utils</text>
</g>
<!-- tc_m&#45;&gt;est -->
<g id="edge6" class="edge">
<title>tc_m&#45;&gt;est</title>
<path fill="none" stroke="black" d="M647.05,-262.13C706.62,-264.58 791.12,-268.05 853.98,-270.63"/>
<polygon fill="black" stroke="black" points="854.13,-274.14 864.27,-271.05 854.42,-267.15 854.13,-274.14"/>
</g>
<!-- tc_m&#45;&gt;fus -->
<g id="edge18" class="edge">
<title>tc_m&#45;&gt;fus</title>
<path fill="none" stroke="black" stroke-dasharray="5,2" d="M647.05,-247.62C703.47,-238.65 782.25,-226.13 843.83,-216.35"/>
<polygon fill="black" stroke="black" points="844.62,-219.77 853.94,-214.74 843.52,-212.85 844.62,-219.77"/>
<text text-anchor="middle" x="798" y="-231.35" font-family="Times,serif" font-size="11.00">meas helpers</text>
</g>
<!-- data -->
<g id="node9" class="node">
<title>data</title>
<polygon fill="#ffffff" stroke="black" points="177,-250.15 174,-254.15 153,-254.15 150,-250.15 9,-250.15 9,-214.15 177,-214.15 177,-250.15"/>
<text text-anchor="middle" x="93" y="-229.05" font-family="Times,serif" font-size="12.00">data/sim/ch8_* (optional)</text>
</g>
<!-- data&#45;&gt;lc -->
<g id="edge12" class="edge">
<title>data&#45;&gt;lc</title>
<path fill="none" stroke="black" d="M165.82,-214.08C169.62,-212.82 173.37,-211.51 177,-210.15 201.55,-200.94 227.88,-188.15 248.99,-177.11"/>
<polygon fill="black" stroke="black" points="250.8,-180.12 258,-172.35 247.52,-173.93 250.8,-180.12"/>
</g>
<!-- data&#45;&gt;tc -->
<g id="edge13" class="edge">
<title>data&#45;&gt;tc</title>
<path fill="none" stroke="black" d="M172.02,-213.96C173.75,-212.77 175.41,-211.5 177,-210.15 207.75,-183.96 184.32,-154.54 214,-127.15 215.13,-126.1 216.31,-125.1 217.52,-124.13"/>
<polygon fill="black" stroke="black" points="219.74,-126.85 226,-118.29 215.78,-121.08 219.74,-126.85"/>
</g>
</g>
</svg>
