<?xml version="1.0" encoding="utf-8" standalone="no"?>
<!DOCTYPE svg PUBLIC "-//W3C//DTD SVG 1.1//EN"
  "http://www.w3.org/Graphics/SVG/1.1/DTD/svg11.dtd">
<svg xmlns:xlink="http://www.w3.org/1999/xlink" width="712.46125pt" height="459.714531pt" viewBox="0 0 712.46125 459.714531" xmlns="http://www.w3.org/2000/svg" version="1.1">
 <metadata>
  <rdf:RDF xmlns:dc="http://purl.org/dc/elements/1.1/" xmlns:cc="http://creativecommons.org/ns#" xmlns:rdf="http://www.w3.org/1999/02/22-rdf-syntax-ns#">
   <cc:Work>
    <dc:type rdf:resource="http://purl.org/dc/dcmitype/StillImage"/>
    <dc:format>image/svg+xml</dc:format>
    <dc:creator>
     <cc:Agent>
      <dc:title>Matplotlib v3.10.7, https://matplotlib.org/</dc:title>
     </cc:Agent>
    </dc:creator>
   </cc:Work>
  </rdf:RDF>
 </metadata>
 <defs>
  <style type="text/css">*{stroke-linejoin: round; stroke-linecap: butt}</style>
 </defs>
 <g id="figure_1">
  <g id="patch_1">
   <path d="M 0 459.714531 
L 712.46125 459.714531 
L 712.46125 0 
L 0 0 
z
" style="fill: #ffffff"/>
  </g>
  <g id="axes_1">
   <g id="patch_2">
    <path d="M 43.78125 201.124281 
L 705.26125 201.124281 
L 705.26125 21.558281 
L 43.78125 21.558281 
z
" style="fill: #ffffff"/>
   </g>
   <g id="patch_3">
    <path d="M 274.330421 201.124281 
L 354.523181 201.124281 
L 354.523181 21.558281 
L 274.330421 21.558281 
z
" clip-path="url(#p53f26bf0ba)" style="fill: #d9d9d9; stroke: #d9d9d9; stroke-linejoin: miter"/>
   </g>
   <g id="matplotlib.axis_1">
    <g id="xtick_1">
     <g id="line2d_1">
      <path d="M 73.848523 201.124281 
L 73.848523 21.558281 
" clip-path="url(#p53f26bf0ba)" style="fill: none; stroke: #b0b0b0; stroke-opacity: 0.3; stroke-width: 0.8; stroke-linecap: square"/>
     </g>
     <g id="line2d_2">
      <defs>
       <path id="mc8efda8d47" d="M 0 0 
L 0 3.5 
" style="stroke: #000000; stroke-width: 0.8"/>
      </defs>
      <g>
       <use xlink:href="#mc8efda8d47" x="73.848523" y="201.124281" style="stroke: #000000; stroke-width: 0.8"/>
      </g>
     </g>
    </g>
    <g id="xtick_2">
     <g id="line2d_3">
      <path d="M 174.089472 201.124281 
L 174.089472 21.558281 
" clip-path="url(#p53f26bf0ba)" style="fill: none; stroke: #b0b0b0; stroke-opacity: 0.3; stroke-width: 0.8; stroke-linecap: square"/>
     </g>
     <g id="line2d_4">
      <g>
       <use xlink:href="#mc8efda8d47" x="174.089472" y="201.124281" style="stroke: #000000; stroke-width: 0.8"/>
      </g>
     </g>
    </g>
    <g id="xtick_3">
     <g id="line2d_5">
      <path d="M 274.330421 201.124281 
L 274.330421 21.558281 
" clip-path="url(#p53f26bf0ba)" style="fill: none; stroke: #b0b0b0; stroke-opacity: 0.3; stroke-width: 0.8; stroke-linecap: square"/>
     </g>
     <g id="line2d_6">
      <g>
       <use xlink:href="#mc8efda8d47" x="274.330421" y="201.124281" style="stroke: #000000; stroke-width: 0.8"/>
      </g>
     </g>
    </g>
    <g id="xtick_4">
     <g id="line2d_7">
      <path d="M 374.57137 201.124281 
L 374.57137 21.558281 
" clip-path="url(#p53f26bf0ba)" style="fill: none; stroke: #b0b0b0; stroke-opacity: 0.3; stroke-width: 0.8; stroke-linecap: square"/>
     </g>
     <g id="line2d_8">
      <g>
       <use xlink:href="#mc8efda8d47" x="374.57137" y="201.124281" style="stroke: #000000; stroke-width: 0.8"/>
      </g>
     </g>
    </g>
    <g id="xtick_5">
     <g id="line2d_9">
      <path d="M 474.81232 201.124281 
L 474.81232 21.558281 
" clip-path="url(#p53f26bf0ba)" style="fill: none; stroke: #b0b0b0; stroke-opacity: 0.3; stroke-width: 0.8; stroke-linecap: square"/>
     </g>
     <g id="line2d_10">
      <g>
       <use xlink:href="#mc8efda8d47" x="474.81232" y="201.124281" style="stroke: #000000; stroke-width: 0.8"/>
      </g>
     </g>
    </g>
    <g id="xtick_6">
     <g id="line2d_11">
      <path d="M 575.053269 201.124281 
L 575.053269 21.558281 
" clip-path="url(#p53f26bf0ba)" style="fill: none; stroke: #b0b0b0; stroke-opacity: 0.3; stroke-width: 0.8; stroke-linecap: square"/>
     </g>
     <g id="line2d_12">
      <g>
       <use xlink:href="#mc8efda8d47" x="575.053269" y="201.124281" style="stroke: #000000; stroke-width: 0.8"/>
      </g>
     </g>
    </g>
    <g id="xtick_7">
     <g id="line2d_13">
      <path d="M 675.294218 201.124281 
L 675.294218 21.558281 
" clip-path="url(#p53f26bf0ba)" style="fill: none; stroke: #b0b0b0; stroke-opacity: 0.3; stroke-width: 0.8; stroke-linecap: square"/>
     </g>
     <g id="line2d_14">
      <g>
       <use xlink:href="#mc8efda8d47" x="675.294218" y="201.124281" style="stroke: #000000; stroke-width: 0.8"/>
      </g>
     </g>
    </g>
   </g>
   <g id="matplotlib.axis_2">
    <g id="ytick_1">
     <g id="line2d_15">
      <path d="M 43.78125 192.96219 
L 705.26125 192.96219 
" clip-path="url(#p53f26bf0ba)" style="fill: none; stroke: #b0b0b0; stroke-opacity: 0.3; stroke-width: 0.8; stroke-linecap: square"/>
     </g>
     <g id="line2d_16">
      <defs>
       <path id="mefe16d6998" d="M 0 0 
L -3.5 0 
" style="stroke: #000000; stroke-width: 0.8"/>
      </defs>
      <g>
       <use xlink:href="#mefe16d6998" x="43.78125" y="192.96219" style="stroke: #000000; stroke-width: 0.8"/>
      </g>
     </g>
     <g id="text_1">
      <!-- 1.0 -->
      <g transform="translate(20.878125 196.761409) scale(0.1 -0.1)">
       <defs>
        <path id="DejaVuSans-31" d="M 794 531 
L 1825 531 
L 1825 4091 
L 703 3866 
L 703 4441 
L 1819 4666 
L 2450 4666 
L 2450 531 
L 3481 531 
L 3481 0 
L 794 0 
L 794 531 
z
" transform="scale(0.015625)"/>
        <path id="DejaVuSans-2e" d="M 684 794 
L 1344 794 
L 1344 0 
L 684 0 
L 684 794 
z
" transform="scale(0.015625)"/>
        <path id="DejaVuSans-30" d="M 2034 4250 
Q 1547 4250 1301 3770 
Q 1056 3291 1056 2328 
Q 1056 1369 1301 889 
Q 1547 409 2034 409 
Q 2525 409 2770 889 
Q 3016 1369 3016 2328 
Q 3016 3291 2770 3770 
Q 2525 4250 2034 4250 
z
M 2034 4750 
Q 2819 4750 3233 4129 
Q 3647 3509 3647 2328 
Q 3647 1150 3233 529 
Q 2819 -91 2034 -91 
Q 1250 -91 836 529 
Q 422 1150 422 2328 
Q 422 3509 836 4129 
Q 1250 4750 2034 4750 
z
" transform="scale(0.015625)"/>
       </defs>
       <use xlink:href="#DejaVuSans-31"/>
       <use xlink:href="#DejaVuSans-2e" transform="translate(63.623047 0)"/>
       <use xlink:href="#DejaVuSans-30" transform="translate(95.410156 0)"/>
      </g>
     </g>
    </g>
    <g id="ytick_2">
     <g id="line2d_17">
      <path d="M 43.78125 165.755221 
L 705.26125 165.755221 
" clip-path="url(#p53f26bf0ba)" style="fill: none; stroke: #b0b0b0; stroke-opacity: 0.3; stroke-width: 0.8; stroke-linecap: square"/>
     </g>
     <g id="line2d_18">
      <g>
       <use xlink:href="#mefe16d6998" x="43.78125" y="165.755221" style="stroke: #000000; stroke-width: 0.8"/>
      </g>
     </g>
     <g id="text_2">
      <!-- 1.5 -->
      <g transform="translate(20.878125 169.554439) scale(0.1 -0.1)">
       <defs>
        <path id="DejaVuSans-35" d="M 691 4666 
L 3169 4666 
L 3169 4134 
L 1269 4134 
L 1269 2991 
Q 1406 3038 1543 3061 
Q 1681 3084 1819 3084 
Q 2600 3084 3056 2656 
Q 3513 2228 3513 1497 
Q 3513 744 3044 326 
Q 2575 -91 1722 -91 
Q 1428 -91 1123 -41 
Q 819 9 494 109 
L 494 744 
Q 775 591 1075 516 
Q 1375 441 1709 441 
Q 2250 441 2565 725 
Q 2881 1009 2881 1497 
Q 2881 1984 2565 2268 
Q 2250 2553 1709 2553 
Q 1456 2553 1204 2497 
Q 953 2441 691 2322 
L 691 4666 
z
" transform="scale(0.015625)"/>
       </defs>
       <use xlink:href="#DejaVuSans-31"/>
       <use xlink:href="#DejaVuSans-2e" transform="translate(63.623047 0)"/>
       <use xlink:href="#DejaVuSans-35" transform="translate(95.410156 0)"/>
      </g>
     </g>
    </g>
    <g id="ytick_3">
     <g id="line2d_19">
      <path d="M 43.78125 138.548251 
L 705.26125 138.548251 
" clip-path="url(#p53f26bf0ba)" style="fill: none; stroke: #b0b0b0; stroke-opacity: 0.3; stroke-width: 0.8; stroke-linecap: square"/>
     </g>
     <g id="line2d_20">
      <g>
       <use xlink:href="#mefe16d6998" x="43.78125" y="138.548251" style="stroke: #000000; stroke-width: 0.8"/>
      </g>
     </g>
     <g id="text_3">
      <!-- 2.0 -->
      <g transform="translate(20.878125 142.34747) scale(0.1 -0.1)">
       <defs>
        <path id="DejaVuSans-32" d="M 1228 531 
L 3431 531 
L 3431 0 
L 469 0 
L 469 531 
Q 828 903 1448 1529 
Q 2069 2156 2228 2338 
Q 2531 2678 2651 2914 
Q 2772 3150 2772 3378 
Q 2772 3750 2511 3984 
Q 2250 4219 1831 4219 
Q 1534 4219 1204 4116 
Q 875 4013 500 3803 
L 500 4441 
Q 881 4594 1212 4672 
Q 1544 4750 1819 4750 
Q 2544 4750 2975 4387 
Q 3406 4025 3406 3419 
Q 3406 3131 3298 2873 
Q 3191 2616 2906 2266 
Q 2828 2175 2409 1742 
Q 1991 1309 1228 531 
z
" transform="scale(0.015625)"/>
       </defs>
       <use xlink:href="#DejaVuSans-32"/>
       <use xlink:href="#DejaVuSans-2e" transform="translate(63.623047 0)"/>
       <use xlink:href="#DejaVuSans-30" transform="translate(95.410156 0)"/>
      </g>
     </g>
    </g>
    <g id="ytick_4">
     <g id="line2d_21">
      <path d="M 43.78125 111.341281 
L 705.26125 111.341281 
" clip-path="url(#p53f26bf0ba)" style="fill: none; stroke: #b0b0b0; stroke-opacity: 0.3; stroke-width: 0.8; stroke-linecap: square"/>
     </g>
     <g id="line2d_22">
      <g>
       <use xlink:href="#mefe16d6998" x="43.78125" y="111.341281" style="stroke: #000000; stroke-width: 0.8"/>
      </g>
     </g>
     <g id="text_4">
      <!-- 2.5 -->
      <g transform="translate(20.878125 115.1405) scale(0.1 -0.1)">
       <use xlink:href="#DejaVuSans-32"/>
       <use xlink:href="#DejaVuSans-2e" transform="translate(63.623047 0)"/>
       <use xlink:href="#DejaVuSans-35" transform="translate(95.410156 0)"/>
      </g>
     </g>
    </g>
    <g id="ytick_5">
     <g id="line2d_23">
      <path d="M 43.78125 84.134312 
L 705.26125 84.134312 
" clip-path="url(#p53f26bf0ba)" style="fill: none; stroke: #b0b0b0; stroke-opacity: 0.3; stroke-width: 0.8; stroke-linecap: square"/>
     </g>
     <g id="line2d_24">
      <g>
       <use xlink:href="#mefe16d6998" x="43.78125" y="84.134312" style="stroke: #000000; stroke-width: 0.8"/>
      </g>
     </g>
     <g id="text_5">
      <!-- 3.0 -->
      <g transform="translate(20.878125 87.93353) scale(0.1 -0.1)">
       <defs>
        <path id="DejaVuSans-33" d="M 2597 2516 
Q 3050 2419 3304 2112 
Q 3559 1806 3559 1356 
Q 3559 666 3084 287 
Q 2609 -91 1734 -91 
Q 1441 -91 1130 -33 
Q 819 25 488 141 
L 488 750 
Q 750 597 1062 519 
Q 1375 441 1716 441 
Q 2309 441 2620 675 
Q 2931 909 2931 1356 
Q 2931 1769 2642 2001 
Q 2353 2234 1838 2234 
L 1294 2234 
L 1294 2753 
L 1863 2753 
Q 2328 2753 2575 2939 
Q 2822 3125 2822 3475 
Q 2822 3834 2567 4026 
Q 2313 4219 1838 4219 
Q 1578 4219 1281 4162 
Q 984 4106 628 3988 
L 628 4550 
Q 988 4650 1302 4700 
Q 1616 4750 1894 4750 
Q 2613 4750 3031 4423 
Q 3450 4097 3450 3541 
Q 3450 3153 3228 2886 
Q 3006 2619 2597 2516 
z
" transform="scale(0.015625)"/>
       </defs>
       <use xlink:href="#DejaVuSans-33"/>
       <use xlink:href="#DejaVuSans-2e" transform="translate(63.623047 0)"/>
       <use xlink:href="#DejaVuSans-30" transform="translate(95.410156 0)"/>
      </g>
     </g>
    </g>
    <g id="ytick_6">
     <g id="line2d_25">
      <path d="M 43.78125 56.927342 
L 705.26125 56.927342 
" clip-path="url(#p53f26bf0ba)" style="fill: none; stroke: #b0b0b0; stroke-opacity: 0.3; stroke-width: 0.8; stroke-linecap: square"/>
     </g>
     <g id="line2d_26">
      <g>
       <use xlink:href="#mefe16d6998" x="43.78125" y="56.927342" style="stroke: #000000; stroke-width: 0.8"/>
      </g>
     </g>
     <g id="text_6">
      <!-- 3.5 -->
      <g transform="translate(20.878125 60.726561) scale(0.1 -0.1)">
       <use xlink:href="#DejaVuSans-33"/>
       <use xlink:href="#DejaVuSans-2e" transform="translate(63.623047 0)"/>
       <use xlink:href="#DejaVuSans-35" transform="translate(95.410156 0)"/>
      </g>
     </g>
    </g>
    <g id="ytick_7">
     <g id="line2d_27">
      <path d="M 43.78125 29.720372 
L 705.26125 29.720372 
" clip-path="url(#p53f26bf0ba)" style="fill: none; stroke: #b0b0b0; stroke-opacity: 0.3; stroke-width: 0.8; stroke-linecap: square"/>
     </g>
     <g id="line2d_28">
      <g>
       <use xlink:href="#mefe16d6998" x="43.78125" y="29.720372" style="stroke: #000000; stroke-width: 0.8"/>
      </g>
     </g>
     <g id="text_7">
      <!-- 4.0 -->
      <g transform="translate(20.878125 33.519591) scale(0.1 -0.1)">
       <defs>
        <path id="DejaVuSans-34" d="M 2419 4116 
L 825 1625 
L 2419 1625 
L 2419 4116 
z
M 2253 4666 
L 3047 4666 
L 3047 1625 
L 3713 1625 
L 3713 1100 
L 3047 1100 
L 3047 0 
L 2419 0 
L 2419 1100 
L 313 1100 
L 313 1709 
L 2253 4666 
z
" transform="scale(0.015625)"/>
       </defs>
       <use xlink:href="#DejaVuSans-34"/>
       <use xlink:href="#DejaVuSans-2e" transform="translate(63.623047 0)"/>
       <use xlink:href="#DejaVuSans-30" transform="translate(95.410156 0)"/>
      </g>
     </g>
    </g>
    <g id="text_8">
     <!-- anchors visible -->
     <g transform="translate(14.798438 148.782688) rotate(-90) scale(0.1 -0.1)">
      <defs>
       <path id="DejaVuSans-61" d="M 2194 1759 
Q 1497 1759 1228 1600 
Q 959 1441 959 1056 
Q 959 750 1161 570 
Q 1363 391 1709 391 
Q 2188 391 2477 730 
Q 2766 1069 2766 1631 
L 2766 1759 
L 2194 1759 
z
M 3341 1997 
L 3341 0 
L 2766 0 
L 2766 531 
Q 2569 213 2275 61 
Q 1981 -91 1556 -91 
Q 1019 -91 701 211 
Q 384 513 384 1019 
Q 384 1609 779 1909 
Q 1175 2209 1959 2209 
L 2766 2209 
L 2766 2266 
Q 2766 2663 2505 2880 
Q 2244 3097 1772 3097 
Q 1472 3097 1187 3025 
Q 903 2953 641 2809 
L 641 3341 
Q 956 3463 1253 3523 
Q 1550 3584 1831 3584 
Q 2591 3584 2966 3190 
Q 3341 2797 3341 1997 
z
" transform="scale(0.015625)"/>
       <path id="DejaVuSans-6e" d="M 3513 2113 
L 3513 0 
L 2938 0 
L 2938 2094 
Q 2938 2591 2744 2837 
Q 2550 3084 2163 3084 
Q 1697 3084 1428 2787 
Q 1159 2491 1159 1978 
L 1159 0 
L 581 0 
L 581 3500 
L 1159 3500 
L 1159 2956 
Q 1366 3272 1645 3428 
Q 1925 3584 2291 3584 
Q 2894 3584 3203 3211 
Q 3513 2838 3513 2113 
z
" transform="scale(0.015625)"/>
       <path id="DejaVuSans-63" d="M 3122 3366 
L 3122 2828 
Q 2878 2963 2633 3030 
Q 2388 3097 2138 3097 
Q 1578 3097 1268 2742 
Q 959 2388 959 1747 
Q 959 1106 1268 751 
Q 1578 397 2138 397 
Q 2388 397 2633 464 
Q 2878 531 3122 666 
L 3122 134 
Q 2881 22 2623 -34 
Q 2366 -91 2075 -91 
Q 1284 -91 818 406 
Q 353 903 353 1747 
Q 353 2603 823 3093 
Q 1294 3584 2113 3584 
Q 2378 3584 2631 3529 
Q 2884 3475 3122 3366 
z
" transform="scale(0.015625)"/>
       <path id="DejaVuSans-68" d="M 3513 2113 
L 3513 0 
L 2938 0 
L 2938 2094 
Q 2938 2591 2744 2837 
Q 2550 3084 2163 3084 
Q 1697 3084 1428 2787 
Q 1159 2491 1159 1978 
L 1159 0 
L 581 0 
L 581 4863 
L 1159 4863 
L 1159 2956 
Q 1366 3272 1645 3428 
Q 1925 3584 2291 3584 
Q 2894 3584 3203 3211 
Q 3513 2838 3513 2113 
z
" transform="scale(0.015625)"/>
       <path id="DejaVuSans-6f" d="M 1959 3097 
Q 1497 3097 1228 2736 
Q 959 2375 959 1747 
Q 959 1119 1226 758 
Q 1494 397 1959 397 
Q 2419 397 2687 759 
Q 2956 1122 2956 1747 
Q 2956 2369 2687 2733 
Q 2419 3097 1959 3097 
z
M 1959 3584 
Q 2709 3584 3137 3096 
Q 3566 2609 3566 1747 
Q 3566 888 3137 398 
Q 2709 -91 1959 -91 
Q 1206 -91 779 398 
Q 353 888 353 1747 
Q 353 2609 779 3096 
Q 1206 3584 1959 3584 
z
" transform="scale(0.015625)"/>
       <path id="DejaVuSans-72" d="M 2631 2963 
Q 2534 3019 2420 3045 
Q 2306 3072 2169 3072 
Q 1681 3072 1420 2755 
Q 1159 2438 1159 1844 
L 1159 0 
L 581 0 
L 581 3500 
L 1159 3500 
L 1159 2956 
Q 1341 3275 1631 3429 
Q 1922 3584 2338 3584 
Q 2397 3584 2469 3576 
Q 2541 3569 2628 3553 
L 2631 2963 
z
" transform="scale(0.015625)"/>
       <path id="DejaVuSans-73" d="M 2834 3397 
L 2834 2853 
Q 2591 2978 2328 3040 
Q 2066 3103 1784 3103 
Q 1356 3103 1142 2972 
Q 928 2841 928 2578 
Q 928 2378 1081 2264 
Q 1234 2150 1697 2047 
L 1894 2003 
Q 2506 1872 2764 1633 
Q 3022 1394 3022 966 
Q 3022 478 2636 193 
Q 2250 -91 1575 -91 
Q 1294 -91 989 -36 
Q 684 19 347 128 
L 347 722 
Q 666 556 975 473 
Q 1284 391 1588 391 
Q 1994 391 2212 530 
Q 2431 669 2431 922 
Q 2431 1156 2273 1281 
Q 2116 1406 1581 1522 
L 1381 1569 
Q 847 1681 609 1914 
Q 372 2147 372 2553 
Q 372 3047 722 3315 
Q 1072 3584 1716 3584 
Q 2034 3584 2315 3537 
Q 2597 3491 2834 3397 
z
" transform="scale(0.015625)"/>
       <path id="DejaVuSans-20" transform="scale(0.015625)"/>
       <path id="DejaVuSans-76" d="M 191 3500 
L 800 3500 
L 1894 563 
L 2988 3500 
L 3597 3500 
L 2284 0 
L 1503 0 
L 191 3500 
z
" transform="scale(0.015625)"/>
       <path id="DejaVuSans-69" d="M 603 3500 
L 1178 3500 
L 1178 0 
L 603 0 
L 603 3500 
z
M 603 4863 
L 1178 4863 
L 1178 4134 
L 603 4134 
L 603 4863 
z
" transform="scale(0.015625)"/>
       <path id="DejaVuSans-62" d="M 3116 1747 
Q 3116 2381 2855 2742 
Q 2594 3103 2138 3103 
Q 1681 3103 1420 2742 
Q 1159 2381 1159 1747 
Q 1159 1113 1420 752 
Q 1681 391 2138 391 
Q 2594 391 2855 752 
Q 3116 1113 3116 1747 
z
M 1159 2969 
Q 1341 3281 1617 3432 
Q 1894 3584 2278 3584 
Q 2916 3584 3314 3078 
Q 3713 2572 3713 1747 
Q 3713 922 3314 415 
Q 2916 -91 2278 -91 
Q 1894 -91 1617 61 
Q 1341 213 1159 525 
L 1159 0 
L 581 0 
L 581 4863 
L 1159 4863 
L 1159 2969 
z
" transform="scale(0.015625)"/>
       <path id="DejaVuSans-6c" d="M 603 4863 
L 1178 4863 
L 1178 0 
L 603 0 
L 603 4863 
z
" transform="scale(0.015625)"/>
       <path id="DejaVuSans-65" d="M 3597 1894 
L 3597 1613 
L 953 1613 
Q 991 1019 1311 708 
Q 1631 397 2203 397 
Q 2534 397 2845 478 
Q 3156 559 3463 722 
L 3463 178 
Q 3153 47 2828 -22 
Q 2503 -91 2169 -91 
Q 1331 -91 842 396 
Q 353 884 353 1716 
Q 353 2575 817 3079 
Q 1281 3584 2069 3584 
Q 2775 3584 3186 3129 
Q 3597 2675 3597 1894 
z
M 3022 2063 
Q 3016 2534 2758 2815 
Q 2500 3097 2075 3097 
Q 1594 3097 1305 2825 
Q 1016 2553 972 2059 
L 3022 2063 
z
" transform="scale(0.015625)"/>
      </defs>
      <use xlink:href="#DejaVuSans-61"/>
      <use xlink:href="#DejaVuSans-6e" transform="translate(61.279297 0)"/>
      <use xlink:href="#DejaVuSans-63" transform="translate(124.658203 0)"/>
      <use xlink:href="#DejaVuSans-68" transform="translate(179.638672 0)"/>
      <use xlink:href="#DejaVuSans-6f" transform="translate(243.017578 0)"/>
      <use xlink:href="#DejaVuSans-72" transform="translate(304.199219 0)"/>
      <use xlink:href="#DejaVuSans-73" transform="translate(345.3125 0)"/>
      <use xlink:href="#DejaVuSans-20" transform="translate(397.412109 0)"/>
      <use xlink:href="#DejaVuSans-76" transform="translate(429.199219 0)"/>
      <use xlink:href="#DejaVuSans-69" transform="translate(488.378906 0)"/>
      <use xlink:href="#DejaVuSans-73" transform="translate(516.162109 0)"/>
      <use xlink:href="#DejaVuSans-69" transform="translate(568.261719 0)"/>
      <use xlink:href="#DejaVuSans-62" transform="translate(596.044922 0)"/>
      <use xlink:href="#DejaVuSans-6c" transform="translate(659.521484 0)"/>
      <use xlink:href="#DejaVuSans-65" transform="translate(687.304688 0)"/>
     </g>
    </g>
   </g>
   <g id="line2d_29">
    <path d="M 73.848523 29.720372 
L 76.855751 29.720372 
L 76.855751 84.134312 
L 77.858161 84.134312 
L 77.858161 29.720372 
L 85.877437 29.720372 
L 85.877437 84.134312 
L 86.879846 84.134312 
L 86.879846 29.720372 
L 89.887075 29.720372 
L 89.887075 138.548251 
L 90.889484 138.548251 
L 90.889484 29.720372 
L 94.899122 29.720372 
L 94.899122 84.134312 
L 95.901532 84.134312 
L 95.901532 29.720372 
L 100.913579 29.720372 
L 100.913579 84.134312 
L 102.918398 84.134312 
L 102.918398 29.720372 
L 108.932855 29.720372 
L 108.932855 84.134312 
L 109.935264 84.134312 
L 109.935264 29.720372 
L 111.940083 29.720372 
L 111.940083 84.134312 
L 112.942493 84.134312 
L 112.942493 29.720372 
L 114.947312 29.720372 
L 114.947312 84.134312 
L 115.949721 84.134312 
L 115.949721 29.720372 
L 118.95695 29.720372 
L 118.95695 84.134312 
L 120.961769 84.134312 
L 120.961769 29.720372 
L 121.964178 29.720372 
L 121.964178 84.134312 
L 122.966588 84.134312 
L 122.966588 29.720372 
L 144.017187 29.720372 
L 144.017187 84.134312 
L 145.019597 84.134312 
L 145.019597 29.720372 
L 147.024416 29.720372 
L 147.024416 84.134312 
L 148.026825 84.134312 
L 148.026825 29.720372 
L 149.029235 29.720372 
L 149.029235 84.134312 
L 151.034054 84.134312 
L 151.034054 29.720372 
L 160.055739 29.720372 
L 160.055739 84.134312 
L 161.058149 84.134312 
L 161.058149 29.720372 
L 162.060558 29.720372 
L 162.060558 84.134312 
L 163.062968 84.134312 
L 163.062968 29.720372 
L 186.118386 29.720372 
L 186.118386 84.134312 
L 187.120795 84.134312 
L 187.120795 29.720372 
L 196.142481 29.720372 
L 196.142481 84.134312 
L 197.14489 84.134312 
L 197.14489 29.720372 
L 198.1473 29.720372 
L 198.1473 84.134312 
L 199.149709 84.134312 
L 199.149709 29.720372 
L 200.152119 29.720372 
L 200.152119 84.134312 
L 202.156938 84.134312 
L 202.156938 29.720372 
L 203.159347 29.720372 
L 203.159347 138.548251 
L 204.161757 138.548251 
L 204.161757 29.720372 
L 214.185852 29.720372 
L 214.185852 84.134312 
L 215.188261 84.134312 
L 215.188261 29.720372 
L 216.190671 29.720372 
L 216.190671 84.134312 
L 218.19549 84.134312 
L 218.19549 29.720372 
L 220.200309 29.720372 
L 220.200309 84.134312 
L 222.205128 84.134312 
L 222.205128 29.720372 
L 224.209947 29.720372 
L 224.209947 84.134312 
L 225.212356 84.134312 
L 225.212356 29.720372 
L 228.219585 29.720372 
L 228.219585 84.134312 
L 230.224404 84.134312 
L 230.224404 29.720372 
L 232.229223 29.720372 
L 232.229223 84.134312 
L 233.231632 84.134312 
L 233.231632 29.720372 
L 238.243679 29.720372 
L 238.243679 84.134312 
L 239.246089 84.134312 
L 239.246089 29.720372 
L 242.253317 29.720372 
L 242.253317 138.548251 
L 243.255727 138.548251 
L 243.255727 29.720372 
L 249.270184 29.720372 
L 249.270184 84.134312 
L 250.272593 84.134312 
L 250.272593 29.720372 
L 257.28946 29.720372 
L 257.28946 84.134312 
L 258.291869 84.134312 
L 258.291869 29.720372 
L 261.299098 29.720372 
L 261.299098 84.134312 
L 263.303917 84.134312 
L 263.303917 29.720372 
L 265.308736 29.720372 
L 265.308736 84.134312 
L 266.311145 84.134312 
L 266.311145 29.720372 
L 267.313555 29.720372 
L 267.313555 84.134312 
L 268.315964 84.134312 
L 268.315964 29.720372 
L 269.318374 29.720372 
L 269.318374 138.548251 
L 270.320783 138.548251 
L 270.320783 29.720372 
L 273.328012 29.720372 
L 273.328012 84.134312 
L 274.330421 84.134312 
L 274.330421 192.96219 
L 275.332831 192.96219 
L 275.332831 138.548251 
L 283.352107 138.548251 
L 283.352107 192.96219 
L 284.354516 192.96219 
L 284.354516 138.548251 
L 289.366564 138.548251 
L 289.366564 192.96219 
L 290.368973 192.96219 
L 290.368973 138.548251 
L 296.38343 138.548251 
L 296.38343 192.96219 
L 297.38584 192.96219 
L 297.38584 138.548251 
L 298.388249 138.548251 
L 298.388249 192.96219 
L 299.390659 192.96219 
L 299.390659 138.548251 
L 333.472581 138.548251 
L 333.472581 192.96219 
L 334.474991 192.96219 
L 334.474991 138.548251 
L 355.52559 138.548251 
L 355.52559 84.134312 
L 356.528 84.134312 
L 356.528 29.720372 
L 366.552095 29.720372 
L 366.552095 84.134312 
L 367.554504 84.134312 
L 367.554504 29.720372 
L 375.57378 29.720372 
L 375.57378 84.134312 
L 376.576189 84.134312 
L 376.576189 29.720372 
L 388.605103 29.720372 
L 388.605103 84.134312 
L 389.607513 84.134312 
L 389.607513 29.720372 
L 390.609922 29.720372 
L 390.609922 84.134312 
L 391.612332 84.134312 
L 391.612332 29.720372 
L 400.634017 29.720372 
L 400.634017 84.134312 
L 401.636427 84.134312 
L 401.636427 29.720372 
L 403.641246 29.720372 
L 403.641246 84.134312 
L 404.643655 84.134312 
L 404.643655 29.720372 
L 405.646065 29.720372 
L 405.646065 138.548251 
L 406.648474 138.548251 
L 406.648474 29.720372 
L 407.650884 29.720372 
L 407.650884 138.548251 
L 408.653293 138.548251 
L 408.653293 29.720372 
L 415.67016 29.720372 
L 415.67016 84.134312 
L 416.672569 84.134312 
L 416.672569 29.720372 
L 425.694255 29.720372 
L 425.694255 84.134312 
L 426.696664 84.134312 
L 426.696664 29.720372 
L 428.701483 29.720372 
L 428.701483 84.134312 
L 429.703893 84.134312 
L 429.703893 29.720372 
L 432.711121 29.720372 
L 432.711121 84.134312 
L 433.713531 84.134312 
L 433.713531 29.720372 
L 434.71594 29.720372 
L 434.71594 84.134312 
L 436.720759 84.134312 
L 436.720759 29.720372 
L 437.723169 29.720372 
L 437.723169 138.548251 
L 438.725578 138.548251 
L 438.725578 29.720372 
L 440.730397 29.720372 
L 440.730397 138.548251 
L 441.732806 138.548251 
L 441.732806 29.720372 
L 442.735216 29.720372 
L 442.735216 84.134312 
L 443.737625 84.134312 
L 443.737625 29.720372 
L 455.766539 29.720372 
L 455.766539 84.134312 
L 456.768949 84.134312 
L 456.768949 29.720372 
L 457.771358 29.720372 
L 457.771358 84.134312 
L 458.773768 84.134312 
L 458.773768 29.720372 
L 466.793044 29.720372 
L 466.793044 138.548251 
L 467.795453 138.548251 
L 467.795453 29.720372 
L 473.80991 29.720372 
L 473.80991 84.134312 
L 474.81232 84.134312 
L 474.81232 29.720372 
L 475.814729 29.720372 
L 475.814729 84.134312 
L 476.817139 84.134312 
L 476.817139 29.720372 
L 486.841234 29.720372 
L 486.841234 84.134312 
L 487.843643 84.134312 
L 487.843643 29.720372 
L 494.86051 29.720372 
L 494.86051 84.134312 
L 495.862919 84.134312 
L 495.862919 29.720372 
L 496.865329 29.720372 
L 496.865329 84.134312 
L 498.870148 84.134312 
L 498.870148 29.720372 
L 501.877376 29.720372 
L 501.877376 84.134312 
L 502.879786 84.134312 
L 502.879786 29.720372 
L 506.889423 29.720372 
L 506.889423 84.134312 
L 507.891833 84.134312 
L 507.891833 29.720372 
L 518.918337 29.720372 
L 518.918337 84.134312 
L 519.920747 84.134312 
L 519.920747 29.720372 
L 523.930385 29.720372 
L 523.930385 84.134312 
L 524.932794 84.134312 
L 524.932794 29.720372 
L 525.935204 29.720372 
L 525.935204 84.134312 
L 526.937613 84.134312 
L 526.937613 29.720372 
L 532.95207 29.720372 
L 532.95207 84.134312 
L 533.95448 84.134312 
L 533.95448 29.720372 
L 536.961708 29.720372 
L 536.961708 84.134312 
L 537.964118 84.134312 
L 537.964118 29.720372 
L 540.971346 29.720372 
L 540.971346 138.548251 
L 541.973756 138.548251 
L 541.973756 29.720372 
L 542.976165 29.720372 
L 542.976165 84.134312 
L 543.978575 84.134312 
L 543.978575 29.720372 
L 545.983394 29.720372 
L 545.983394 84.134312 
L 546.985803 84.134312 
L 546.985803 29.720372 
L 549.993032 29.720372 
L 549.993032 84.134312 
L 550.995441 84.134312 
L 550.995441 29.720372 
L 553.00026 29.720372 
L 553.00026 84.134312 
L 554.00267 84.134312 
L 554.00267 29.720372 
L 564.026765 29.720372 
L 564.026765 84.134312 
L 565.029174 84.134312 
L 565.029174 29.720372 
L 572.04604 29.720372 
L 572.04604 138.548251 
L 573.04845 138.548251 
L 573.04845 84.134312 
L 574.050859 84.134312 
L 574.050859 29.720372 
L 575.053269 29.720372 
L 575.053269 84.134312 
L 576.055678 84.134312 
L 576.055678 29.720372 
L 580.065316 29.720372 
L 580.065316 84.134312 
L 581.067726 84.134312 
L 581.067726 29.720372 
L 584.074954 29.720372 
L 584.074954 84.134312 
L 585.077364 84.134312 
L 585.077364 29.720372 
L 594.099049 29.720372 
L 594.099049 138.548251 
L 595.101459 138.548251 
L 595.101459 84.134312 
L 596.103868 84.134312 
L 596.103868 29.720372 
L 600.113506 29.720372 
L 600.113506 84.134312 
L 601.115916 84.134312 
L 601.115916 29.720372 
L 604.123144 29.720372 
L 604.123144 84.134312 
L 605.125554 84.134312 
L 605.125554 29.720372 
L 606.127963 29.720372 
L 606.127963 84.134312 
L 608.132782 84.134312 
L 608.132782 29.720372 
L 611.140011 29.720372 
L 611.140011 84.134312 
L 612.14242 84.134312 
L 612.14242 29.720372 
L 617.154468 29.720372 
L 617.154468 84.134312 
L 618.156877 84.134312 
L 618.156877 29.720372 
L 621.164106 29.720372 
L 621.164106 84.134312 
L 622.166515 84.134312 
L 622.166515 29.720372 
L 626.176153 29.720372 
L 626.176153 84.134312 
L 627.178563 84.134312 
L 627.178563 29.720372 
L 629.183382 29.720372 
L 629.183382 84.134312 
L 630.185791 84.134312 
L 630.185791 29.720372 
L 639.207476 29.720372 
L 639.207476 84.134312 
L 640.209886 84.134312 
L 640.209886 29.720372 
L 654.243619 29.720372 
L 654.243619 84.134312 
L 655.246028 84.134312 
L 655.246028 29.720372 
L 670.282171 29.720372 
L 670.282171 84.134312 
L 671.28458 84.134312 
L 671.28458 29.720372 
L 674.291809 29.720372 
L 674.291809 29.720372 
" clip-path="url(#p53f26bf0ba)" style="fill: none; stroke: #404040; stroke-width: 1.6; stroke-linecap: square"/>
   </g>
   <g id="line2d_30">
    <path d="M 43.78125 84.134312 
L 705.26125 84.134312 
" clip-path="url(#p53f26bf0ba)" style="fill: none; stroke-dasharray: 5.18,2.24; stroke-dashoffset: 0; stroke: #ff0000; stroke-width: 1.4"/>
   </g>
   <g id="patch_4">
    <path d="M 43.78125 201.124281 
L 43.78125 21.558281 
" style="fill: none; stroke: #000000; stroke-width: 0.8; stroke-linejoin: miter; stroke-linecap: square"/>
   </g>
   <g id="patch_5">
    <path d="M 705.26125 201.124281 
L 705.26125 21.558281 
" style="fill: none; stroke: #000000; stroke-width: 0.8; stroke-linejoin: miter; stroke-linecap: square"/>
   </g>
   <g id="patch_6">
    <path d="M 43.78125 201.124281 
L 705.26125 201.124281 
" style="fill: none; stroke: #000000; stroke-width: 0.8; stroke-linejoin: miter; stroke-linecap: square"/>
   </g>
   <g id="patch_7">
    <path d="M 43.78125 21.558281 
L 705.26125 21.558281 
" style="fill: none; stroke: #000000; stroke-width: 0.8; stroke-linejoin: miter; stroke-linecap: square"/>
   </g>
   <g id="text_9">
    <!-- Constructed outage: at most 2 of 4 anchors between t = 20 s and 28 s -->
    <g transform="translate(179.627031 15.558281) scale(0.11 -0.11)">
     <defs>
      <path id="DejaVuSans-43" d="M 4122 4306 
L 4122 3641 
Q 3803 3938 3442 4084 
Q 3081 4231 2675 4231 
Q 1875 4231 1450 3742 
Q 1025 3253 1025 2328 
Q 1025 1406 1450 917 
Q 1875 428 2675 428 
Q 3081 428 3442 575 
Q 3803 722 4122 1019 
L 4122 359 
Q 3791 134 3420 21 
Q 3050 -91 2638 -91 
Q 1578 -91 968 557 
Q 359 1206 359 2328 
Q 359 3453 968 4101 
Q 1578 4750 2638 4750 
Q 3056 4750 3426 4639 
Q 3797 4528 4122 4306 
z
" transform="scale(0.015625)"/>
      <path id="DejaVuSans-74" d="M 1172 4494 
L 1172 3500 
L 2356 3500 
L 2356 3053 
L 1172 3053 
L 1172 1153 
Q 1172 725 1289 603 
Q 1406 481 1766 481 
L 2356 481 
L 2356 0 
L 1766 0 
Q 1100 0 847 248 
Q 594 497 594 1153 
L 594 3053 
L 172 3053 
L 172 3500 
L 594 3500 
L 594 4494 
L 1172 4494 
z
" transform="scale(0.015625)"/>
      <path id="DejaVuSans-75" d="M 544 1381 
L 544 3500 
L 1119 3500 
L 1119 1403 
Q 1119 906 1312 657 
Q 1506 409 1894 409 
Q 2359 409 2629 706 
Q 2900 1003 2900 1516 
L 2900 3500 
L 3475 3500 
L 3475 0 
L 2900 0 
L 2900 538 
Q 2691 219 2414 64 
Q 2138 -91 1772 -91 
Q 1169 -91 856 284 
Q 544 659 544 1381 
z
M 1991 3584 
L 1991 3584 
z
" transform="scale(0.015625)"/>
      <path id="DejaVuSans-64" d="M 2906 2969 
L 2906 4863 
L 3481 4863 
L 3481 0 
L 2906 0 
L 2906 525 
Q 2725 213 2448 61 
Q 2172 -91 1784 -91 
Q 1150 -91 751 415 
Q 353 922 353 1747 
Q 353 2572 751 3078 
Q 1150 3584 1784 3584 
Q 2172 3584 2448 3432 
Q 2725 3281 2906 2969 
z
M 947 1747 
Q 947 1113 1208 752 
Q 1469 391 1925 391 
Q 2381 391 2643 752 
Q 2906 1113 2906 1747 
Q 2906 2381 2643 2742 
Q 2381 3103 1925 3103 
Q 1469 3103 1208 2742 
Q 947 2381 947 1747 
z
" transform="scale(0.015625)"/>
      <path id="DejaVuSans-67" d="M 2906 1791 
Q 2906 2416 2648 2759 
Q 2391 3103 1925 3103 
Q 1463 3103 1205 2759 
Q 947 2416 947 1791 
Q 947 1169 1205 825 
Q 1463 481 1925 481 
Q 2391 481 2648 825 
Q 2906 1169 2906 1791 
z
M 3481 434 
Q 3481 -459 3084 -895 
Q 2688 -1331 1869 -1331 
Q 1566 -1331 1297 -1286 
Q 1028 -1241 775 -1147 
L 775 -588 
Q 1028 -725 1275 -790 
Q 1522 -856 1778 -856 
Q 2344 -856 2625 -561 
Q 2906 -266 2906 331 
L 2906 616 
Q 2728 306 2450 153 
Q 2172 0 1784 0 
Q 1141 0 747 490 
Q 353 981 353 1791 
Q 353 2603 747 3093 
Q 1141 3584 1784 3584 
Q 2172 3584 2450 3431 
Q 2728 3278 2906 2969 
L 2906 3500 
L 3481 3500 
L 3481 434 
z
" transform="scale(0.015625)"/>
      <path id="DejaVuSans-3a" d="M 750 794 
L 1409 794 
L 1409 0 
L 750 0 
L 750 794 
z
M 750 3309 
L 1409 3309 
L 1409 2516 
L 750 2516 
L 750 3309 
z
" transform="scale(0.015625)"/>
      <path id="DejaVuSans-6d" d="M 3328 2828 
Q 3544 3216 3844 3400 
Q 4144 3584 4550 3584 
Q 5097 3584 5394 3201 
Q 5691 2819 5691 2113 
L 5691 0 
L 5113 0 
L 5113 2094 
Q 5113 2597 4934 2840 
Q 4756 3084 4391 3084 
Q 3944 3084 3684 2787 
Q 3425 2491 3425 1978 
L 3425 0 
L 2847 0 
L 2847 2094 
Q 2847 2600 2669 2842 
Q 2491 3084 2119 3084 
Q 1678 3084 1418 2786 
Q 1159 2488 1159 1978 
L 1159 0 
L 581 0 
L 581 3500 
L 1159 3500 
L 1159 2956 
Q 1356 3278 1631 3431 
Q 1906 3584 2284 3584 
Q 2666 3584 2933 3390 
Q 3200 3197 3328 2828 
z
" transform="scale(0.015625)"/>
      <path id="DejaVuSans-66" d="M 2375 4863 
L 2375 4384 
L 1825 4384 
Q 1516 4384 1395 4259 
Q 1275 4134 1275 3809 
L 1275 3500 
L 2222 3500 
L 2222 3053 
L 1275 3053 
L 1275 0 
L 697 0 
L 697 3053 
L 147 3053 
L 147 3500 
L 697 3500 
L 697 3744 
Q 697 4328 969 4595 
Q 1241 4863 1831 4863 
L 2375 4863 
z
" transform="scale(0.015625)"/>
      <path id="DejaVuSans-77" d="M 269 3500 
L 844 3500 
L 1563 769 
L 2278 3500 
L 2956 3500 
L 3675 769 
L 4391 3500 
L 4966 3500 
L 4050 0 
L 3372 0 
L 2619 2869 
L 1863 0 
L 1184 0 
L 269 3500 
z
" transform="scale(0.015625)"/>
      <path id="DejaVuSans-3d" d="M 678 2906 
L 4684 2906 
L 4684 2381 
L 678 2381 
L 678 2906 
z
M 678 1631 
L 4684 1631 
L 4684 1100 
L 678 1100 
L 678 1631 
z
" transform="scale(0.015625)"/>
      <path id="DejaVuSans-38" d="M 2034 2216 
Q 1584 2216 1326 1975 
Q 1069 1734 1069 1313 
Q 1069 891 1326 650 
Q 1584 409 2034 409 
Q 2484 409 2743 651 
Q 3003 894 3003 1313 
Q 3003 1734 2745 1975 
Q 2488 2216 2034 2216 
z
M 1403 2484 
Q 997 2584 770 2862 
Q 544 3141 544 3541 
Q 544 4100 942 4425 
Q 1341 4750 2034 4750 
Q 2731 4750 3128 4425 
Q 3525 4100 3525 3541 
Q 3525 3141 3298 2862 
Q 3072 2584 2669 2484 
Q 3125 2378 3379 2068 
Q 3634 1759 3634 1313 
Q 3634 634 3220 271 
Q 2806 -91 2034 -91 
Q 1263 -91 848 271 
Q 434 634 434 1313 
Q 434 1759 690 2068 
Q 947 2378 1403 2484 
z
M 1172 3481 
Q 1172 3119 1398 2916 
Q 1625 2713 2034 2713 
Q 2441 2713 2670 2916 
Q 2900 3119 2900 3481 
Q 2900 3844 2670 4047 
Q 2441 4250 2034 4250 
Q 1625 4250 1398 4047 
Q 1172 3844 1172 3481 
z
" transform="scale(0.015625)"/>
     </defs>
     <use xlink:href="#DejaVuSans-43"/>
     <use xlink:href="#DejaVuSans-6f" transform="translate(69.824219 0)"/>
     <use xlink:href="#DejaVuSans-6e" transform="translate(131.005859 0)"/>
     <use xlink:href="#DejaVuSans-73" transform="translate(194.384766 0)"/>
     <use xlink:href="#DejaVuSans-74" transform="translate(246.484375 0)"/>
     <use xlink:href="#DejaVuSans-72" transform="translate(285.693359 0)"/>
     <use xlink:href="#DejaVuSans-75" transform="translate(326.806641 0)"/>
     <use xlink:href="#DejaVuSans-63" transform="translate(390.185547 0)"/>
     <use xlink:href="#DejaVuSans-74" transform="translate(445.166016 0)"/>
     <use xlink:href="#DejaVuSans-65" transform="translate(484.375 0)"/>
     <use xlink:href="#DejaVuSans-64" transform="translate(545.898438 0)"/>
     <use xlink:href="#DejaVuSans-20" transform="translate(609.375 0)"/>
     <use xlink:href="#DejaVuSans-6f" transform="translate(641.162109 0)"/>
     <use xlink:href="#DejaVuSans-75" transform="translate(702.34375 0)"/>
     <use xlink:href="#DejaVuSans-74" transform="translate(765.722656 0)"/>
     <use xlink:href="#DejaVuSans-61" transform="translate(804.931641 0)"/>
     <use xlink:href="#DejaVuSans-67" transform="translate(866.210938 0)"/>
     <use xlink:href="#DejaVuSans-65" transform="translate(929.6875 0)"/>
     <use xlink:href="#DejaVuSans-3a" transform="translate(991.210938 0)"/>
     <use xlink:href="#DejaVuSans-20" transform="translate(1024.902344 0)"/>
     <use xlink:href="#DejaVuSans-61" transform="translate(1056.689453 0)"/>
     <use xlink:href="#DejaVuSans-74" transform="translate(1117.96875 0)"/>
     <use xlink:href="#DejaVuSans-20" transform="translate(1157.177734 0)"/>
     <use xlink:href="#DejaVuSans-6d" transform="translate(1188.964844 0)"/>
     <use xlink:href="#DejaVuSans-6f" transform="translate(1286.376953 0)"/>
     <use xlink:href="#DejaVuSans-73" transform="translate(1347.558594 0)"/>
     <use xlink:href="#DejaVuSans-74" transform="translate(1399.658203 0)"/>
     <use xlink:href="#DejaVuSans-20" transform="translate(1438.867188 0)"/>
     <use xlink:href="#DejaVuSans-32" transform="translate(1470.654297 0)"/>
     <use xlink:href="#DejaVuSans-20" transform="translate(1534.277344 0)"/>
     <use xlink:href="#DejaVuSans-6f" transform="translate(1566.064453 0)"/>
     <use xlink:href="#DejaVuSans-66" transform="translate(1627.246094 0)"/>
     <use xlink:href="#DejaVuSans-20" transform="translate(1662.451172 0)"/>
     <use xlink:href="#DejaVuSans-34" transform="translate(1694.238281 0)"/>
     <use xlink:href="#DejaVuSans-20" transform="translate(1757.861328 0)"/>
     <use xlink:href="#DejaVuSans-61" transform="translate(1789.648438 0)"/>
     <use xlink:href="#DejaVuSans-6e" transform="translate(1850.927734 0)"/>
     <use xlink:href="#DejaVuSans-63" transform="translate(1914.306641 0)"/>
     <use xlink:href="#DejaVuSans-68" transform="translate(1969.287109 0)"/>
     <use xlink:href="#DejaVuSans-6f" transform="translate(2032.666016 0)"/>
     <use xlink:href="#DejaVuSans-72" transform="translate(2093.847656 0)"/>
     <use xlink:href="#DejaVuSans-73" transform="translate(2134.960938 0)"/>
     <use xlink:href="#DejaVuSans-20" transform="translate(2187.060547 0)"/>
     <use xlink:href="#DejaVuSans-62" transform="translate(2218.847656 0)"/>
     <use xlink:href="#DejaVuSans-65" transform="translate(2282.324219 0)"/>
     <use xlink:href="#DejaVuSans-74" transform="translate(2343.847656 0)"/>
     <use xlink:href="#DejaVuSans-77" transform="translate(2383.056641 0)"/>
     <use xlink:href="#DejaVuSans-65" transform="translate(2464.84375 0)"/>
     <use xlink:href="#DejaVuSans-65" transform="translate(2526.367188 0)"/>
     <use xlink:href="#DejaVuSans-6e" transform="translate(2587.890625 0)"/>
     <use xlink:href="#DejaVuSans-20" transform="translate(2651.269531 0)"/>
     <use xlink:href="#DejaVuSans-74" transform="translate(2683.056641 0)"/>
     <use xlink:href="#DejaVuSans-20" transform="translate(2722.265625 0)"/>
     <use xlink:href="#DejaVuSans-3d" transform="translate(2754.052734 0)"/>
     <use xlink:href="#DejaVuSans-20" transform="translate(2837.841797 0)"/>
     <use xlink:href="#DejaVuSans-32" transform="translate(2869.628906 0)"/>
     <use xlink:href="#DejaVuSans-30" transform="translate(2933.251953 0)"/>
     <use xlink:href="#DejaVuSans-20" transform="translate(2996.875 0)"/>
     <use xlink:href="#DejaVuSans-73" transform="translate(3028.662109 0)"/>
     <use xlink:href="#DejaVuSans-20" transform="translate(3080.761719 0)"/>
     <use xlink:href="#DejaVuSans-61" transform="translate(3112.548828 0)"/>
     <use xlink:href="#DejaVuSans-6e" transform="translate(3173.828125 0)"/>
     <use xlink:href="#DejaVuSans-64" transform="translate(3237.207031 0)"/>
     <use xlink:href="#DejaVuSans-20" transform="translate(3300.683594 0)"/>
     <use xlink:href="#DejaVuSans-32" transform="translate(3332.470703 0)"/>
     <use xlink:href="#DejaVuSans-38" transform="translate(3396.09375 0)"/>
     <use xlink:href="#DejaVuSans-20" transform="translate(3459.716797 0)"/>
     <use xlink:href="#DejaVuSans-73" transform="translate(3491.503906 0)"/>
    </g>
   </g>
   <g id="legend_1">
    <g id="patch_8">
     <path d="M 50.08125 196.624281 
L 166.275469 196.624281 
Q 168.075469 196.624281 168.075469 194.824281 
L 168.075469 182.513969 
Q 168.075469 180.713969 166.275469 180.713969 
L 50.08125 180.713969 
Q 48.28125 180.713969 48.28125 182.513969 
L 48.28125 194.824281 
Q 48.28125 196.624281 50.08125 196.624281 
z
" style="fill: #ffffff; opacity: 0.8; stroke: #cccccc; stroke-linejoin: miter"/>
    </g>
    <g id="line2d_31">
     <path d="M 51.88125 188.002562 
L 60.88125 188.002562 
L 69.88125 188.002562 
" style="fill: none; stroke-dasharray: 5.18,2.24; stroke-dashoffset: 0; stroke: #ff0000; stroke-width: 1.4"/>
    </g>
    <g id="text_10">
     <!-- LC needs 3 for a fix -->
     <g transform="translate(77.08125 191.152562) scale(0.09 -0.09)">
      <defs>
       <path id="DejaVuSans-4c" d="M 628 4666 
L 1259 4666 
L 1259 531 
L 3531 531 
L 3531 0 
L 628 0 
L 628 4666 
z
" transform="scale(0.015625)"/>
       <path id="DejaVuSans-78" d="M 3513 3500 
L 2247 1797 
L 3578 0 
L 2900 0 
L 1881 1375 
L 863 0 
L 184 0 
L 1544 1831 
L 300 3500 
L 978 3500 
L 1906 2253 
L 2834 3500 
L 3513 3500 
z
" transform="scale(0.015625)"/>
      </defs>
      <use xlink:href="#DejaVuSans-4c"/>
      <use xlink:href="#DejaVuSans-43" transform="translate(55.712891 0)"/>
      <use xlink:href="#DejaVuSans-20" transform="translate(125.537109 0)"/>
      <use xlink:href="#DejaVuSans-6e" transform="translate(157.324219 0)"/>
      <use xlink:href="#DejaVuSans-65" transform="translate(220.703125 0)"/>
      <use xlink:href="#DejaVuSans-65" transform="translate(282.226562 0)"/>
      <use xlink:href="#DejaVuSans-64" transform="translate(343.75 0)"/>
      <use xlink:href="#DejaVuSans-73" transform="translate(407.226562 0)"/>
      <use xlink:href="#DejaVuSans-20" transform="translate(459.326172 0)"/>
      <use xlink:href="#DejaVuSans-33" transform="translate(491.113281 0)"/>
      <use xlink:href="#DejaVuSans-20" transform="translate(554.736328 0)"/>
      <use xlink:href="#DejaVuSans-66" transform="translate(586.523438 0)"/>
      <use xlink:href="#DejaVuSans-6f" transform="translate(621.728516 0)"/>
      <use xlink:href="#DejaVuSans-72" transform="translate(682.910156 0)"/>
      <use xlink:href="#DejaVuSans-20" transform="translate(724.023438 0)"/>
      <use xlink:href="#DejaVuSans-61" transform="translate(755.810547 0)"/>
      <use xlink:href="#DejaVuSans-20" transform="translate(817.089844 0)"/>
      <use xlink:href="#DejaVuSans-66" transform="translate(848.876953 0)"/>
      <use xlink:href="#DejaVuSans-69" transform="translate(884.082031 0)"/>
      <use xlink:href="#DejaVuSans-78" transform="translate(911.865234 0)"/>
     </g>
    </g>
   </g>
  </g>
  <g id="axes_2">
   <g id="patch_9">
    <path d="M 43.78125 422.158281 
L 705.26125 422.158281 
L 705.26125 242.592281 
L 43.78125 242.592281 
z
" style="fill: #ffffff"/>
   </g>
   <g id="patch_10">
    <path d="M 274.330421 422.158281 
L 354.523181 422.158281 
L 354.523181 242.592281 
L 274.330421 242.592281 
z
" clip-path="url(#pc348c38e24)" style="fill: #d9d9d9; stroke: #d9d9d9; stroke-linejoin: miter"/>
   </g>
   <g id="matplotlib.axis_3">
    <g id="xtick_8">
     <g id="line2d_32">
      <path d="M 73.848523 422.158281 
L 73.848523 242.592281 
" clip-path="url(#pc348c38e24)" style="fill: none; stroke: #b0b0b0; stroke-opacity: 0.3; stroke-width: 0.8; stroke-linecap: square"/>
     </g>
     <g id="line2d_33">
      <g>
       <use xlink:href="#mc8efda8d47" x="73.848523" y="422.158281" style="stroke: #000000; stroke-width: 0.8"/>
      </g>
     </g>
     <g id="text_11">
      <!-- 0 -->
      <g transform="translate(70.667273 436.756719) scale(0.1 -0.1)">
       <use xlink:href="#DejaVuSans-30"/>
      </g>
     </g>
    </g>
    <g id="xtick_9">
     <g id="line2d_34">
      <path d="M 174.089472 422.158281 
L 174.089472 242.592281 
" clip-path="url(#pc348c38e24)" style="fill: none; stroke: #b0b0b0; stroke-opacity: 0.3; stroke-width: 0.8; stroke-linecap: square"/>
     </g>
     <g id="line2d_35">
      <g>
       <use xlink:href="#mc8efda8d47" x="174.089472" y="422.158281" style="stroke: #000000; stroke-width: 0.8"/>
      </g>
     </g>
     <g id="text_12">
      <!-- 10 -->
      <g transform="translate(167.726972 436.756719) scale(0.1 -0.1)">
       <use xlink:href="#DejaVuSans-31"/>
       <use xlink:href="#DejaVuSans-30" transform="translate(63.623047 0)"/>
      </g>
     </g>
    </g>
    <g id="xtick_10">
     <g id="line2d_36">
      <path d="M 274.330421 422.158281 
L 274.330421 242.592281 
" clip-path="url(#pc348c38e24)" style="fill: none; stroke: #b0b0b0; stroke-opacity: 0.3; stroke-width: 0.8; stroke-linecap: square"/>
     </g>
     <g id="line2d_37">
      <g>
       <use xlink:href="#mc8efda8d47" x="274.330421" y="422.158281" style="stroke: #000000; stroke-width: 0.8"/>
      </g>
     </g>
     <g id="text_13">
      <!-- 20 -->
      <g transform="translate(267.967921 436.756719) scale(0.1 -0.1)">
       <use xlink:href="#DejaVuSans-32"/>
       <use xlink:href="#DejaVuSans-30" transform="translate(63.623047 0)"/>
      </g>
     </g>
    </g>
    <g id="xtick_11">
     <g id="line2d_38">
      <path d="M 374.57137 422.158281 
L 374.57137 242.592281 
" clip-path="url(#pc348c38e24)" style="fill: none; stroke: #b0b0b0; stroke-opacity: 0.3; stroke-width: 0.8; stroke-linecap: square"/>
     </g>
     <g id="line2d_39">
      <g>
       <use xlink:href="#mc8efda8d47" x="374.57137" y="422.158281" style="stroke: #000000; stroke-width: 0.8"/>
      </g>
     </g>
     <g id="text_14">
      <!-- 30 -->
      <g transform="translate(368.20887 436.756719) scale(0.1 -0.1)">
       <use xlink:href="#DejaVuSans-33"/>
       <use xlink:href="#DejaVuSans-30" transform="translate(63.623047 0)"/>
      </g>
     </g>
    </g>
    <g id="xtick_12">
     <g id="line2d_40">
      <path d="M 474.81232 422.158281 
L 474.81232 242.592281 
" clip-path="url(#pc348c38e24)" style="fill: none; stroke: #b0b0b0; stroke-opacity: 0.3; stroke-width: 0.8; stroke-linecap: square"/>
     </g>
     <g id="line2d_41">
      <g>
       <use xlink:href="#mc8efda8d47" x="474.81232" y="422.158281" style="stroke: #000000; stroke-width: 0.8"/>
      </g>
     </g>
     <g id="text_15">
      <!-- 40 -->
      <g transform="translate(468.44982 436.756719) scale(0.1 -0.1)">
       <use xlink:href="#DejaVuSans-34"/>
       <use xlink:href="#DejaVuSans-30" transform="translate(63.623047 0)"/>
      </g>
     </g>
    </g>
    <g id="xtick_13">
     <g id="line2d_42">
      <path d="M 575.053269 422.158281 
L 575.053269 242.592281 
" clip-path="url(#pc348c38e24)" style="fill: none; stroke: #b0b0b0; stroke-opacity: 0.3; stroke-width: 0.8; stroke-linecap: square"/>
     </g>
     <g id="line2d_43">
      <g>
       <use xlink:href="#mc8efda8d47" x="575.053269" y="422.158281" style="stroke: #000000; stroke-width: 0.8"/>
      </g>
     </g>
     <g id="text_16">
      <!-- 50 -->
      <g transform="translate(568.690769 436.756719) scale(0.1 -0.1)">
       <use xlink:href="#DejaVuSans-35"/>
       <use xlink:href="#DejaVuSans-30" transform="translate(63.623047 0)"/>
      </g>
     </g>
    </g>
    <g id="xtick_14">
     <g id="line2d_44">
      <path d="M 675.294218 422.158281 
L 675.294218 242.592281 
" clip-path="url(#pc348c38e24)" style="fill: none; stroke: #b0b0b0; stroke-opacity: 0.3; stroke-width: 0.8; stroke-linecap: square"/>
     </g>
     <g id="line2d_45">
      <g>
       <use xlink:href="#mc8efda8d47" x="675.294218" y="422.158281" style="stroke: #000000; stroke-width: 0.8"/>
      </g>
     </g>
     <g id="text_17">
      <!-- 60 -->
      <g transform="translate(668.931718 436.756719) scale(0.1 -0.1)">
       <defs>
        <path id="DejaVuSans-36" d="M 2113 2584 
Q 1688 2584 1439 2293 
Q 1191 2003 1191 1497 
Q 1191 994 1439 701 
Q 1688 409 2113 409 
Q 2538 409 2786 701 
Q 3034 994 3034 1497 
Q 3034 2003 2786 2293 
Q 2538 2584 2113 2584 
z
M 3366 4563 
L 3366 3988 
Q 3128 4100 2886 4159 
Q 2644 4219 2406 4219 
Q 1781 4219 1451 3797 
Q 1122 3375 1075 2522 
Q 1259 2794 1537 2939 
Q 1816 3084 2150 3084 
Q 2853 3084 3261 2657 
Q 3669 2231 3669 1497 
Q 3669 778 3244 343 
Q 2819 -91 2113 -91 
Q 1303 -91 875 529 
Q 447 1150 447 2328 
Q 447 3434 972 4092 
Q 1497 4750 2381 4750 
Q 2619 4750 2861 4703 
Q 3103 4656 3366 4563 
z
" transform="scale(0.015625)"/>
       </defs>
       <use xlink:href="#DejaVuSans-36"/>
       <use xlink:href="#DejaVuSans-30" transform="translate(63.623047 0)"/>
      </g>
     </g>
    </g>
    <g id="text_18">
     <!-- time [s] -->
     <g transform="translate(355.129844 450.434844) scale(0.1 -0.1)">
      <defs>
       <path id="DejaVuSans-5b" d="M 550 4863 
L 1875 4863 
L 1875 4416 
L 1125 4416 
L 1125 -397 
L 1875 -397 
L 1875 -844 
L 550 -844 
L 550 4863 
z
" transform="scale(0.015625)"/>
       <path id="DejaVuSans-5d" d="M 1947 4863 
L 1947 -844 
L 622 -844 
L 622 -397 
L 1369 -397 
L 1369 4416 
L 622 4416 
L 622 4863 
L 1947 4863 
z
" transform="scale(0.015625)"/>
      </defs>
      <use xlink:href="#DejaVuSans-74"/>
      <use xlink:href="#DejaVuSans-69" transform="translate(39.208984 0)"/>
      <use xlink:href="#DejaVuSans-6d" transform="translate(66.992188 0)"/>
      <use xlink:href="#DejaVuSans-65" transform="translate(164.404297 0)"/>
      <use xlink:href="#DejaVuSans-20" transform="translate(225.927734 0)"/>
      <use xlink:href="#DejaVuSans-5b" transform="translate(257.714844 0)"/>
      <use xlink:href="#DejaVuSans-73" transform="translate(296.728516 0)"/>
      <use xlink:href="#DejaVuSans-5d" transform="translate(348.828125 0)"/>
     </g>
    </g>
   </g>
   <g id="matplotlib.axis_4">
    <g id="ytick_8">
     <g id="line2d_46">
      <path d="M 43.78125 413.99619 
L 705.26125 413.99619 
" clip-path="url(#pc348c38e24)" style="fill: none; stroke: #b0b0b0; stroke-opacity: 0.3; stroke-width: 0.8; stroke-linecap: square"/>
     </g>
     <g id="line2d_47">
      <g>
       <use xlink:href="#mefe16d6998" x="43.78125" y="413.99619" style="stroke: #000000; stroke-width: 0.8"/>
      </g>
     </g>
     <g id="text_19">
      <!-- 0 -->
      <g transform="translate(30.41875 417.795409) scale(0.1 -0.1)">
       <use xlink:href="#DejaVuSans-30"/>
      </g>
     </g>
    </g>
    <g id="ytick_9">
     <g id="line2d_48">
      <path d="M 43.78125 376.832312 
L 705.26125 376.832312 
" clip-path="url(#pc348c38e24)" style="fill: none; stroke: #b0b0b0; stroke-opacity: 0.3; stroke-width: 0.8; stroke-linecap: square"/>
     </g>
     <g id="line2d_49">
      <g>
       <use xlink:href="#mefe16d6998" x="43.78125" y="376.832312" style="stroke: #000000; stroke-width: 0.8"/>
      </g>
     </g>
     <g id="text_20">
      <!-- 10 -->
      <g transform="translate(24.05625 380.631531) scale(0.1 -0.1)">
       <use xlink:href="#DejaVuSans-31"/>
       <use xlink:href="#DejaVuSans-30" transform="translate(63.623047 0)"/>
      </g>
     </g>
    </g>
    <g id="ytick_10">
     <g id="line2d_50">
      <path d="M 43.78125 339.668434 
L 705.26125 339.668434 
" clip-path="url(#pc348c38e24)" style="fill: none; stroke: #b0b0b0; stroke-opacity: 0.3; stroke-width: 0.8; stroke-linecap: square"/>
     </g>
     <g id="line2d_51">
      <g>
       <use xlink:href="#mefe16d6998" x="43.78125" y="339.668434" style="stroke: #000000; stroke-width: 0.8"/>
      </g>
     </g>
     <g id="text_21">
      <!-- 20 -->
      <g transform="translate(24.05625 343.467653) scale(0.1 -0.1)">
       <use xlink:href="#DejaVuSans-32"/>
       <use xlink:href="#DejaVuSans-30" transform="translate(63.623047 0)"/>
      </g>
     </g>
    </g>
    <g id="ytick_11">
     <g id="line2d_52">
      <path d="M 43.78125 302.504557 
L 705.26125 302.504557 
" clip-path="url(#pc348c38e24)" style="fill: none; stroke: #b0b0b0; stroke-opacity: 0.3; stroke-width: 0.8; stroke-linecap: square"/>
     </g>
     <g id="line2d_53">
      <g>
       <use xlink:href="#mefe16d6998" x="43.78125" y="302.504557" style="stroke: #000000; stroke-width: 0.8"/>
      </g>
     </g>
     <g id="text_22">
      <!-- 30 -->
      <g transform="translate(24.05625 306.303775) scale(0.1 -0.1)">
       <use xlink:href="#DejaVuSans-33"/>
       <use xlink:href="#DejaVuSans-30" transform="translate(63.623047 0)"/>
      </g>
     </g>
    </g>
    <g id="ytick_12">
     <g id="line2d_54">
      <path d="M 43.78125 265.340679 
L 705.26125 265.340679 
" clip-path="url(#pc348c38e24)" style="fill: none; stroke: #b0b0b0; stroke-opacity: 0.3; stroke-width: 0.8; stroke-linecap: square"/>
     </g>
     <g id="line2d_55">
      <g>
       <use xlink:href="#mefe16d6998" x="43.78125" y="265.340679" style="stroke: #000000; stroke-width: 0.8"/>
      </g>
     </g>
     <g id="text_23">
      <!-- 40 -->
      <g transform="translate(24.05625 269.139897) scale(0.1 -0.1)">
       <use xlink:href="#DejaVuSans-34"/>
       <use xlink:href="#DejaVuSans-30" transform="translate(63.623047 0)"/>
      </g>
     </g>
    </g>
    <g id="text_24">
     <!-- horizontal position error [m] -->
     <g transform="translate(17.976562 402.759656) rotate(-90) scale(0.1 -0.1)">
      <defs>
       <path id="DejaVuSans-7a" d="M 353 3500 
L 3084 3500 
L 3084 2975 
L 922 459 
L 3084 459 
L 3084 0 
L 275 0 
L 275 525 
L 2438 3041 
L 353 3041 
L 353 3500 
z
" transform="scale(0.015625)"/>
       <path id="DejaVuSans-70" d="M 1159 525 
L 1159 -1331 
L 581 -1331 
L 581 3500 
L 1159 3500 
L 1159 2969 
Q 1341 3281 1617 3432 
Q 1894 3584 2278 3584 
Q 2916 3584 3314 3078 
Q 3713 2572 3713 1747 
Q 3713 922 3314 415 
Q 2916 -91 2278 -91 
Q 1894 -91 1617 61 
Q 1341 213 1159 525 
z
M 3116 1747 
Q 3116 2381 2855 2742 
Q 2594 3103 2138 3103 
Q 1681 3103 1420 2742 
Q 1159 2381 1159 1747 
Q 1159 1113 1420 752 
Q 1681 391 2138 391 
Q 2594 391 2855 752 
Q 3116 1113 3116 1747 
z
" transform="scale(0.015625)"/>
      </defs>
      <use xlink:href="#DejaVuSans-68"/>
      <use xlink:href="#DejaVuSans-6f" transform="translate(63.378906 0)"/>
      <use xlink:href="#DejaVuSans-72" transform="translate(124.560547 0)"/>
      <use xlink:href="#DejaVuSans-69" transform="translate(165.673828 0)"/>
      <use xlink:href="#DejaVuSans-7a" transform="translate(193.457031 0)"/>
      <use xlink:href="#DejaVuSans-6f" transform="translate(245.947266 0)"/>
      <use xlink:href="#DejaVuSans-6e" transform="translate(307.128906 0)"/>
      <use xlink:href="#DejaVuSans-74" transform="translate(370.507812 0)"/>
      <use xlink:href="#DejaVuSans-61" transform="translate(409.716797 0)"/>
      <use xlink:href="#DejaVuSans-6c" transform="translate(470.996094 0)"/>
      <use xlink:href="#DejaVuSans-20" transform="translate(498.779297 0)"/>
      <use xlink:href="#DejaVuSans-70" transform="translate(530.566406 0)"/>
      <use xlink:href="#DejaVuSans-6f" transform="translate(594.042969 0)"/>
      <use xlink:href="#DejaVuSans-73" transform="translate(655.224609 0)"/>
      <use xlink:href="#DejaVuSans-69" transform="translate(707.324219 0)"/>
      <use xlink:href="#DejaVuSans-74" transform="translate(735.107422 0)"/>
      <use xlink:href="#DejaVuSans-69" transform="translate(774.316406 0)"/>
      <use xlink:href="#DejaVuSans-6f" transform="translate(802.099609 0)"/>
      <use xlink:href="#DejaVuSans-6e" transform="translate(863.28125 0)"/>
      <use xlink:href="#DejaVuSans-20" transform="translate(926.660156 0)"/>
      <use xlink:href="#DejaVuSans-65" transform="translate(958.447266 0)"/>
      <use xlink:href="#DejaVuSans-72" transform="translate(1019.970703 0)"/>
      <use xlink:href="#DejaVuSans-72" transform="translate(1059.333984 0)"/>
      <use xlink:href="#DejaVuSans-6f" transform="translate(1098.197266 0)"/>
      <use xlink:href="#DejaVuSans-72" transform="translate(1159.378906 0)"/>
      <use xlink:href="#DejaVuSans-20" transform="translate(1200.492188 0)"/>
      <use xlink:href="#DejaVuSans-5b" transform="translate(1232.279297 0)"/>
      <use xlink:href="#DejaVuSans-6d" transform="translate(1271.292969 0)"/>
      <use xlink:href="#DejaVuSans-5d" transform="translate(1368.705078 0)"/>
     </g>
    </g>
   </g>
   <g id="line2d_56">
    <path d="M 73.848523 413.99619 
L 73.848523 413.965875 
L 73.948764 413.965875 
L 75.151655 413.854624 
L 75.853342 413.851198 
L 75.853342 413.984534 
L 75.953583 413.983591 
L 92.894303 413.906971 
L 92.894303 413.945015 
L 92.994544 413.944462 
L 107.930445 413.976012 
L 108.030686 413.990076 
L 130.785382 413.916969 
L 141.009959 413.883975 
L 141.009959 413.898325 
L 141.1102 413.897297 
L 168.075015 413.716257 
L 168.075015 413.73272 
L 168.175256 413.731224 
L 178.09911 413.681009 
L 178.09911 413.700634 
L 178.199351 413.699245 
L 187.120795 413.68414 
L 187.120795 413.697602 
L 187.221036 413.696381 
L 201.154528 413.628265 
L 201.154528 413.646458 
L 201.254769 413.645039 
L 212.181033 413.582915 
L 212.181033 413.604646 
L 212.281274 413.602956 
L 218.696694 413.606457 
L 232.529945 413.59367 
L 249.270184 413.56325 
L 249.270184 413.590312 
L 249.370425 413.589247 
L 258.291869 413.604233 
L 258.39211 413.621162 
L 266.611868 413.520639 
L 268.315964 413.258674 
L 268.315964 413.363192 
L 268.416205 413.339863 
L 270.320783 412.824598 
L 270.320783 413.035223 
L 270.421024 413.006945 
L 271.323193 412.749852 
L 271.323193 412.940533 
L 271.423434 412.913283 
L 272.325602 412.667298 
L 272.325602 412.888684 
L 272.425843 412.863152 
L 273.328012 412.633689 
L 273.328012 412.86135 
L 273.428253 412.837912 
L 294.27837 407.869101 
L 342.594508 395.989888 
L 357.530409 392.234571 
L 357.530409 395.959464 
L 357.63065 395.942567 
L 358.532819 395.790436 
L 358.532819 412.195266 
L 358.63306 412.193261 
L 359.535228 412.174118 
L 359.535228 412.598968 
L 359.635469 412.597766 
L 360.537638 412.586139 
L 360.537638 412.813771 
L 360.637879 412.812892 
L 361.540047 412.804748 
L 361.540047 412.990357 
L 361.640288 412.989641 
L 363.544866 413.084613 
L 363.544866 413.213534 
L 363.645107 413.212722 
L 365.549685 413.289177 
L 365.549685 413.385993 
L 365.649926 413.385389 
L 367.554504 413.424365 
L 367.554504 413.489035 
L 367.654745 413.488332 
L 372.566551 413.531657 
L 372.566551 413.563857 
L 372.666792 413.562548 
L 377.578599 413.591035 
L 377.578599 413.61608 
L 377.67884 413.614307 
L 385.597875 413.575193 
L 385.597875 413.593749 
L 385.698116 413.591472 
L 391.612332 413.556985 
L 391.612332 413.575238 
L 391.712573 413.573118 
L 397.626789 413.546118 
L 397.626789 413.567112 
L 397.72703 413.564723 
L 404.443173 413.298931 
L 407.650884 412.757043 
L 412.161726 411.57375 
L 413.665341 411.031033 
L 413.665341 411.12544 
L 413.765582 411.082235 
L 415.67016 410.323916 
L 415.67016 410.437768 
L 415.770401 410.389372 
L 417.674979 409.563602 
L 417.674979 409.716103 
L 417.77522 409.664527 
L 418.677388 409.195437 
L 418.677388 409.351095 
L 418.777629 409.298658 
L 421.684617 407.744363 
L 421.684617 408.225994 
L 421.784858 408.172453 
L 424.691845 406.60961 
L 424.691845 407.706707 
L 424.792086 407.654765 
L 427.699074 406.146286 
L 427.699074 406.492081 
L 427.799315 406.440578 
L 428.701483 405.976391 
L 428.701483 406.236959 
L 428.801724 406.18594 
L 429.703893 405.725483 
L 429.703893 405.980081 
L 429.804134 405.929376 
L 430.706302 405.472151 
L 430.706302 405.736405 
L 430.806543 405.686078 
L 431.708712 405.232961 
L 431.708712 405.513109 
L 431.808952 405.463309 
L 432.711121 405.014063 
L 432.711121 405.296406 
L 432.811362 405.246989 
L 433.713531 404.802027 
L 433.713531 405.092996 
L 433.813771 405.044119 
L 434.71594 404.604105 
L 434.71594 404.916496 
L 434.816181 404.868175 
L 436.720759 403.95042 
L 436.720759 404.285942 
L 436.821 404.238334 
L 441.732806 401.905499 
L 441.732806 402.84508 
L 441.833047 402.799285 
L 444.740035 401.472555 
L 444.740035 403.408347 
L 444.840276 403.366314 
L 447.747263 402.147597 
L 447.747263 405.348096 
L 447.847504 405.311717 
L 448.749673 404.984021 
L 448.749673 406.670904 
L 448.849914 406.637454 
L 449.752082 406.336295 
L 449.752082 407.551534 
L 449.852323 407.520146 
L 450.754492 407.237195 
L 450.754492 408.210574 
L 450.854733 408.180734 
L 451.756901 407.91133 
L 451.756901 408.699385 
L 451.857142 408.670612 
L 452.759311 408.412701 
L 452.759311 409.063296 
L 452.859552 409.035673 
L 453.76172 408.78643 
L 453.76172 409.330143 
L 453.861961 409.303257 
L 454.76413 409.061667 
L 454.76413 409.538535 
L 454.864371 409.512405 
L 455.766539 409.275836 
L 455.766539 409.726068 
L 455.86678 409.70046 
L 456.768949 409.470203 
L 456.768949 409.877344 
L 456.86919 409.852331 
L 457.771358 409.6271 
L 457.771358 409.965246 
L 457.871599 409.94068 
L 458.773768 409.719045 
L 458.773768 410.041341 
L 458.874009 410.016994 
L 459.776177 409.79878 
L 459.776177 410.123818 
L 459.876418 410.100065 
L 460.778587 409.886225 
L 460.778587 410.183155 
L 460.878828 410.159884 
L 461.780996 409.949695 
L 461.780996 410.237577 
L 461.881237 410.214665 
L 462.783406 410.008954 
L 462.783406 410.271344 
L 462.883647 410.248954 
L 463.785815 410.047608 
L 463.785815 410.296579 
L 463.886056 410.274598 
L 464.788225 410.077556 
L 464.788225 410.309907 
L 464.888466 410.288282 
L 465.790634 410.09348 
L 465.790634 410.33118 
L 465.890875 410.309898 
L 467.795453 409.905535 
L 467.795453 410.147069 
L 467.895694 410.126122 
L 468.797863 409.937712 
L 468.797863 410.178492 
L 468.898104 410.15796 
L 469.800272 409.972839 
L 469.800272 410.299554 
L 469.900513 410.279384 
L 470.802682 410.097793 
L 470.802682 410.53649 
L 470.902923 410.517046 
L 471.805091 410.343 
L 471.805091 410.890016 
L 471.905332 410.871629 
L 472.807501 410.706571 
L 472.807501 411.320284 
L 472.907742 411.303035 
L 473.80991 411.148113 
L 473.80991 411.591183 
L 473.910151 411.574612 
L 474.81232 411.42631 
L 474.81232 411.791663 
L 474.912561 411.775856 
L 475.814729 411.634835 
L 475.814729 411.899711 
L 475.91497 411.88452 
L 476.817139 411.747821 
L 476.817139 411.999652 
L 476.91738 411.984965 
L 477.819548 411.852759 
L 477.819548 412.085284 
L 477.919789 412.070903 
L 478.821958 411.942077 
L 478.821958 412.145477 
L 478.922199 412.131605 
L 479.824367 412.007227 
L 479.824367 412.207237 
L 479.924608 412.19382 
L 480.826777 412.071519 
L 480.826777 412.235693 
L 480.927018 412.222283 
L 481.829186 412.102052 
L 481.829186 412.252387 
L 481.929427 412.239315 
L 482.831596 412.12131 
L 482.831596 412.26275 
L 482.931837 412.249826 
L 483.834005 412.13486 
L 483.834005 412.282523 
L 483.934246 412.270097 
L 484.836415 412.158514 
L 484.836415 412.273621 
L 484.936656 412.261558 
L 485.838824 412.152006 
L 485.838824 412.288708 
L 485.939065 412.2767 
L 486.841234 412.168907 
L 486.841234 412.28133 
L 486.941475 412.2695 
L 487.843643 412.162965 
L 487.843643 412.28912 
L 487.943884 412.277593 
L 489.848462 412.165657 
L 489.848462 412.290775 
L 489.948703 412.279871 
L 490.850872 412.182865 
L 490.850872 412.30614 
L 490.951113 412.295608 
L 492.855691 412.202799 
L 492.855691 412.286787 
L 492.955932 412.276783 
L 494.86051 412.186953 
L 494.86051 412.320031 
L 494.960751 412.310414 
L 496.865329 412.226737 
L 496.865329 412.32266 
L 496.96557 412.313367 
L 497.867738 412.229734 
L 497.867738 412.362948 
L 497.967979 412.353928 
L 499.872557 412.267881 
L 499.872557 412.358297 
L 499.972798 412.349507 
L 501.877376 412.267171 
L 501.877376 412.351666 
L 501.977617 412.343307 
L 503.882195 412.271771 
L 503.882195 412.359855 
L 503.982436 412.352055 
L 505.887014 412.287124 
L 505.887014 412.365724 
L 505.987255 412.358349 
L 507.891833 412.304549 
L 507.891833 412.391737 
L 507.992074 412.384577 
L 509.896652 412.335345 
L 509.896652 412.41308 
L 509.996893 412.406491 
L 511.901471 412.352915 
L 511.901471 412.434118 
L 512.001712 412.427795 
L 513.90629 412.391616 
L 513.90629 412.478816 
L 514.006531 412.473047 
L 515.911109 412.443887 
L 515.911109 412.515866 
L 516.01135 412.510356 
L 517.915928 412.475192 
L 517.915928 412.545473 
L 518.016169 412.539956 
L 519.920747 412.503006 
L 519.920747 412.574484 
L 520.020988 412.569128 
L 521.925566 412.550873 
L 521.925566 412.617756 
L 522.025807 412.61278 
L 523.930385 412.582245 
L 523.930385 412.633947 
L 524.030626 412.629285 
L 525.935204 412.613469 
L 525.935204 412.668611 
L 526.035445 412.664285 
L 527.940023 412.646469 
L 527.940023 412.702909 
L 528.040264 412.698771 
L 529.944842 412.691017 
L 529.944842 412.747224 
L 530.045083 412.743453 
L 531.949661 412.733178 
L 531.949661 412.787651 
L 532.049902 412.784387 
L 533.95448 412.77685 
L 533.95448 412.842319 
L 534.054721 412.839188 
L 536.961708 412.85116 
L 536.961708 412.897969 
L 537.061949 412.894782 
L 539.968937 412.877821 
L 539.968937 412.936033 
L 540.069178 412.932796 
L 543.978575 412.89002 
L 543.978575 412.941465 
L 544.078816 412.938479 
L 546.985803 412.952613 
L 546.985803 413.002148 
L 547.086044 412.999503 
L 549.993032 413.010889 
L 549.993032 413.064125 
L 550.093273 413.061872 
L 554.00267 413.08194 
L 554.00267 413.120969 
L 554.102911 413.118931 
L 557.009898 413.13395 
L 557.009898 413.172272 
L 557.110139 413.170559 
L 560.017127 413.199699 
L 560.017127 413.232031 
L 565.029174 413.255704 
L 565.029174 413.276519 
L 565.129415 413.275148 
L 570.041222 413.31024 
L 570.041222 413.336422 
L 570.141462 413.335149 
L 576.055678 413.361475 
L 576.055678 413.373497 
L 576.155919 413.372392 
L 581.067726 413.405032 
L 581.067726 413.434117 
L 581.167967 413.433152 
L 588.084592 413.465234 
L 588.084592 413.476552 
L 588.184833 413.47546 
L 596.103868 413.493874 
L 596.103868 413.512126 
L 596.204109 413.511324 
L 600.815193 413.369886 
L 603.321217 412.948039 
L 606.027722 412.111352 
L 608.132782 411.281688 
L 608.132782 411.369754 
L 608.233023 411.319186 
L 610.137601 410.387077 
L 610.137601 410.509143 
L 610.237842 410.451551 
L 611.140011 409.917747 
L 611.140011 410.06075 
L 611.240252 410.000254 
L 612.14242 409.441346 
L 612.14242 409.612637 
L 612.242661 409.549668 
L 615.149649 407.652823 
L 615.149649 408.234549 
L 615.24989 408.16968 
L 618.156877 406.263768 
L 618.156877 407.69716 
L 618.257118 407.63559 
L 621.164106 405.838475 
L 621.164106 406.314727 
L 621.264347 406.254097 
L 622.166515 405.707545 
L 622.166515 406.006256 
L 622.266756 405.946433 
L 623.168925 405.408336 
L 623.168925 405.71462 
L 623.269166 405.655792 
L 624.171334 405.125497 
L 624.171334 405.436315 
L 624.271575 405.378228 
L 625.173744 404.855045 
L 625.173744 405.180794 
L 625.273985 405.123547 
L 627.178563 403.997407 
L 627.178563 404.351456 
L 627.278804 404.295067 
L 628.180972 403.787182 
L 628.180972 404.131488 
L 628.281213 404.075827 
L 631.188201 402.463604 
L 631.188201 403.29668 
L 631.288442 403.242887 
L 634.195429 401.688336 
L 634.195429 403.318285 
L 634.29567 403.267995 
L 637.202658 401.803743 
L 637.202658 404.445083 
L 637.302898 404.398594 
L 638.205067 403.979726 
L 638.205067 405.477108 
L 638.305308 405.432566 
L 639.207476 405.031026 
L 639.207476 406.42719 
L 639.307717 406.383935 
L 640.209886 405.995127 
L 640.209886 406.920721 
L 640.310127 406.878696 
L 641.212295 406.500513 
L 641.212295 407.29614 
L 641.312536 407.255067 
L 642.214705 406.885562 
L 642.214705 407.58959 
L 642.314946 407.549289 
L 643.217114 407.18668 
L 643.217114 407.791455 
L 643.317355 407.751843 
L 644.219524 407.396374 
L 644.219524 407.949708 
L 644.319765 407.91088 
L 645.221933 407.561547 
L 645.221933 408.085015 
L 645.322174 408.046797 
L 646.224343 407.703276 
L 646.224343 408.159651 
L 646.324584 408.122033 
L 647.226752 407.785146 
L 647.226752 408.238248 
L 647.326993 408.201459 
L 648.229162 407.870784 
L 648.229162 408.284403 
L 648.329403 408.248078 
L 649.231571 407.920346 
L 649.231571 408.32438 
L 649.331812 408.288452 
L 650.233981 407.966113 
L 650.233981 408.340922 
L 650.334222 408.305562 
L 651.23639 407.986171 
L 651.23639 408.339573 
L 651.336631 408.304384 
L 652.2388 407.988093 
L 652.2388 408.334407 
L 652.339041 408.299665 
L 653.241209 407.986039 
L 653.241209 408.32613 
L 653.34145 408.291558 
L 654.243619 407.980346 
L 654.243619 408.314279 
L 654.34386 408.280076 
L 655.246028 407.97223 
L 655.246028 408.296047 
L 655.346269 408.262341 
L 656.248438 407.959851 
L 656.248438 408.284009 
L 656.348679 408.250851 
L 657.250847 407.950622 
L 657.250847 408.242992 
L 657.351088 408.209864 
L 658.253257 407.910436 
L 658.253257 408.218332 
L 658.353498 408.185426 
L 659.255666 407.889071 
L 659.255666 408.195568 
L 659.355907 408.163165 
L 660.258076 407.870263 
L 660.258076 408.177035 
L 660.358317 408.144815 
L 661.260485 407.854783 
L 661.260485 408.131677 
L 661.360726 408.099734 
L 662.262895 407.812228 
L 662.262895 408.096519 
L 662.363136 408.065017 
L 663.265304 407.781043 
L 663.265304 408.053806 
L 663.365545 408.022613 
L 664.267714 407.742697 
L 664.267714 408.01729 
L 664.367955 407.986561 
L 665.270123 407.710839 
L 665.270123 407.992139 
L 665.370364 407.961798 
L 666.272533 407.689069 
L 666.272533 407.965307 
L 666.372774 407.935352 
L 667.274942 407.665813 
L 667.274942 407.940861 
L 667.375183 407.911203 
L 668.277352 407.643904 
L 668.277352 407.90159 
L 668.377593 407.872208 
L 669.279761 407.607086 
L 669.279761 407.873295 
L 669.380002 407.844114 
L 670.282171 407.582064 
L 670.282171 407.895854 
L 670.382412 407.867225 
L 671.28458 407.61032 
L 671.28458 407.864138 
L 671.384821 407.835882 
L 672.28699 407.581415 
L 672.28699 407.825238 
L 672.387231 407.797287 
L 673.289399 407.544442 
L 673.289399 407.798457 
L 673.38964 407.770663 
L 674.291809 407.520919 
L 674.291809 407.767827 
L 674.39205 407.740445 
L 675.193977 407.521614 
L 675.193977 407.521614 
" clip-path="url(#pc348c38e24)" style="fill: none; stroke: #1f77b4; stroke-width: 1.6; stroke-linecap: square"/>
   </g>
   <g id="line2d_57">
    <path d="M 73.848523 413.99619 
L 73.848523 413.647182 
L 73.948764 413.959395 
L 74.850932 413.875837 
L 74.850932 413.906598 
L 74.850932 413.727973 
L 74.951173 413.735605 
L 75.853342 413.543394 
L 75.853342 413.855612 
L 75.953583 413.841053 
L 77.858161 413.618088 
L 77.858161 413.919326 
L 77.958402 413.918502 
L 83.872618 413.927635 
L 83.872618 413.978489 
L 90.889484 413.893846 
L 90.889484 413.87593 
L 90.889484 413.91086 
L 90.989725 413.910097 
L 99.91117 413.928759 
L 99.91117 413.947462 
L 99.91117 413.966507 
L 100.01141 413.966485 
L 151.936222 413.861049 
L 163.062968 413.810875 
L 163.062968 413.833927 
L 163.163209 413.832657 
L 170.982003 413.846281 
L 183.111157 413.859952 
L 183.111157 413.866289 
L 183.111157 413.872554 
L 183.211398 413.872187 
L 194.137662 413.926792 
L 194.137662 413.933336 
L 194.137662 413.946653 
L 194.237903 413.946433 
L 263.203676 413.689733 
L 263.303917 413.679101 
L 263.303917 413.774867 
L 263.303917 413.820933 
L 263.404158 413.813049 
L 264.306326 413.730851 
L 264.306326 413.806099 
L 264.306326 413.869016 
L 264.406567 413.856482 
L 267.313555 413.693812 
L 267.313555 413.705859 
L 267.313555 413.802223 
L 267.413796 413.789306 
L 268.315964 413.663316 
L 268.315964 413.766221 
L 268.315964 413.81779 
L 268.416205 413.804258 
L 271.323193 413.415994 
L 271.323193 413.442461 
L 271.323193 413.559969 
L 271.423434 413.543995 
L 273.328012 413.350454 
L 273.328012 413.415505 
L 273.428253 413.401651 
L 292.774756 410.626636 
L 308.412344 408.405957 
L 308.412344 408.441646 
L 308.512585 408.426866 
L 313.424391 407.805851 
L 313.424391 407.84021 
L 313.524632 407.825702 
L 317.434029 407.349656 
L 317.434029 407.386756 
L 317.53427 407.372302 
L 320.441258 407.03748 
L 320.441258 407.080207 
L 320.541499 407.065943 
L 323.448486 406.758753 
L 323.448486 406.804364 
L 323.548727 406.790388 
L 325.453305 406.574846 
L 325.453305 406.574846 
L 325.453305 411.910402 
L 325.553546 411.907728 
L 327.458124 411.775691 
L 327.558365 411.663836 
L 329.462943 411.515989 
L 329.563184 411.392784 
L 330.465353 411.360558 
L 330.565594 255.492202 
L 332.470172 250.754372 
L 332.470172 413.483945 
L 332.570413 413.482083 
L 334.474991 413.463154 
L 334.474991 413.477359 
L 334.474991 413.590291 
L 334.575232 413.58864 
L 335.4774 413.57408 
L 335.4774 413.694035 
L 335.577641 413.692621 
L 337.482219 413.76007 
L 337.482219 413.76317 
L 337.482219 413.823457 
L 337.58246 413.822534 
L 343.496676 413.853708 
L 343.496676 413.918782 
L 343.596917 413.918514 
L 386.600284 413.914784 
L 386.600284 413.92301 
L 386.600284 413.939759 
L 386.700525 413.938938 
L 404.844137 413.687026 
L 407.550643 413.162344 
L 410.45763 412.299019 
L 413.665341 410.968345 
L 413.665341 411.19346 
L 413.665341 412.124076 
L 413.765582 412.085492 
L 414.66775 411.722513 
L 414.66775 411.808951 
L 414.66775 412.610937 
L 414.767991 412.580776 
L 416.672569 411.947969 
L 416.672569 411.961336 
L 416.672569 412.75023 
L 416.77281 412.721585 
L 417.674979 412.418764 
L 417.674979 412.741833 
L 417.77522 412.707638 
L 418.677388 412.390742 
L 418.677388 412.51213 
L 418.677388 413.242429 
L 418.777629 413.213321 
L 419.679798 412.941164 
L 419.679798 412.953276 
L 419.679798 413.335462 
L 419.780039 413.306025 
L 420.682207 413.037537 
L 420.682207 413.038132 
L 420.682207 413.175347 
L 420.782448 413.147152 
L 421.684617 412.890119 
L 421.684617 412.928782 
L 421.684617 413.13548 
L 421.784858 413.108486 
L 422.687026 412.865544 
L 422.687026 412.965785 
L 422.687026 413.07692 
L 422.787267 413.051159 
L 423.689436 412.819638 
L 423.689436 412.892466 
L 423.689436 412.993557 
L 423.789677 412.969308 
L 425.694255 412.590716 
L 425.694255 412.671965 
L 425.794496 412.649129 
L 427.699074 412.311983 
L 427.699074 413.051595 
L 427.799315 413.034492 
L 428.701483 412.880038 
L 428.701483 413.413085 
L 428.801724 413.399477 
L 429.703893 413.253029 
L 429.703893 413.517673 
L 429.804134 413.505577 
L 430.706302 413.395851 
L 430.706302 413.498623 
L 430.706302 413.580654 
L 430.806543 413.569659 
L 432.711121 413.442736 
L 432.711121 413.45947 
L 432.711121 413.54913 
L 432.811362 413.539433 
L 433.713531 413.451611 
L 433.713531 413.556792 
L 433.713531 413.607526 
L 433.813771 413.598788 
L 435.71835 413.528851 
L 435.71835 413.543523 
L 435.71835 413.576311 
L 435.81859 413.568712 
L 437.322205 413.567329 
L 438.725578 413.48266 
L 438.725578 413.696385 
L 438.825819 413.686904 
L 439.727987 413.636856 
L 439.727987 413.747066 
L 439.727987 413.754374 
L 439.828228 413.750165 
L 441.732806 413.674016 
L 441.732806 413.755495 
L 441.732806 413.78966 
L 441.833047 413.786275 
L 444.038348 413.821169 
L 448.749673 413.814497 
L 448.749673 413.815713 
L 448.749673 413.841679 
L 448.849914 413.829365 
L 456.768949 413.789382 
L 456.768949 413.827727 
L 456.86919 413.826273 
L 463.785815 413.810463 
L 463.785815 413.838372 
L 463.886056 413.83211 
L 470.802682 413.853958 
L 470.802682 413.868414 
L 470.802682 413.880957 
L 470.902923 413.880251 
L 478.821958 413.929486 
L 478.821958 413.930198 
L 478.922199 413.94186 
L 492.655209 413.940223 
L 500.975207 413.933843 
L 529.944842 413.827043 
L 529.944842 413.845503 
L 529.944842 413.850698 
L 530.045083 413.850027 
L 541.973756 413.87312 
L 541.973756 413.876153 
L 542.073997 413.876077 
L 551.997851 413.969191 
L 552.098092 413.979636 
L 581.067726 413.905569 
L 581.067726 413.899435 
L 581.067726 413.914839 
L 581.167967 413.91102 
L 600.714952 413.688514 
L 603.72218 413.078282 
L 606.127963 412.239731 
L 606.228204 412.189814 
L 609.836878 410.564732 
L 610.137601 410.400237 
L 610.137601 411.372713 
L 610.237842 411.318712 
L 611.140011 410.913002 
L 611.140011 411.451211 
L 611.240252 411.413269 
L 614.147239 410.213912 
L 614.147239 410.715796 
L 614.24748 410.647768 
L 615.149649 410.300233 
L 615.149649 410.300233 
L 615.149649 411.225726 
L 615.24989 411.185979 
L 617.154468 410.439238 
L 617.154468 411.771344 
L 617.254709 411.644334 
L 618.156877 411.382472 
L 618.156877 411.382472 
L 618.156877 413.286622 
L 618.257118 413.256134 
L 619.159287 412.977172 
L 619.159287 413.349855 
L 619.259528 413.320861 
L 622.166515 412.527031 
L 622.166515 412.558795 
L 622.166515 412.61388 
L 622.266756 412.584507 
L 624.171334 412.083285 
L 624.171334 413.030174 
L 624.271575 413.006269 
L 626.176153 412.64851 
L 626.176153 412.649128 
L 626.176153 412.732973 
L 626.276394 412.709275 
L 627.178563 412.496063 
L 627.178563 412.528998 
L 627.178563 412.620464 
L 627.278804 412.597463 
L 629.183382 412.191531 
L 629.183382 412.897547 
L 629.283623 412.877638 
L 630.185791 412.708022 
L 630.185791 413.247579 
L 630.286032 413.231563 
L 631.188201 413.087207 
L 631.188201 413.360053 
L 631.288442 413.345496 
L 632.19061 413.214574 
L 632.19061 413.326217 
L 632.19061 413.409929 
L 632.290851 413.396578 
L 633.19302 413.277337 
L 633.19302 413.352941 
L 633.19302 413.439907 
L 633.29326 413.427917 
L 634.195429 413.320306 
L 634.195429 413.392359 
L 634.195429 413.489116 
L 634.29567 413.478226 
L 636.200248 413.329998 
L 636.200248 413.463754 
L 636.300489 413.454115 
L 637.202658 413.366111 
L 637.202658 413.445688 
L 637.202658 413.497934 
L 637.302898 413.489146 
L 639.207476 413.410691 
L 639.207476 413.530399 
L 639.307717 413.522726 
L 641.212295 413.450563 
L 641.212295 413.520544 
L 641.312536 413.513927 
L 643.217114 413.478418 
L 643.217114 413.525741 
L 643.317355 413.519889 
L 645.221933 413.481931 
L 645.221933 413.575911 
L 645.322174 413.571273 
L 647.527475 413.580528 
L 649.231571 413.586549 
L 649.231571 413.620606 
L 649.231571 413.667766 
L 649.331812 413.664931 
L 653.241209 413.653101 
L 653.241209 413.709922 
L 653.34145 413.707618 
L 660.458558 413.658232 
L 664.568437 413.686803 
L 670.282171 413.719748 
L 670.282171 413.74053 
L 670.382412 413.739693 
L 675.193977 413.794045 
L 675.193977 413.794045 
" clip-path="url(#pc348c38e24)" style="fill: none; stroke: #ff7f0e; stroke-width: 1.6; stroke-linecap: square"/>
   </g>
   <g id="patch_11">
    <path d="M 43.78125 422.158281 
L 43.78125 242.592281 
" style="fill: none; stroke: #000000; stroke-width: 0.8; stroke-linejoin: miter; stroke-linecap: square"/>
   </g>
   <g id="patch_12">
    <path d="M 705.26125 422.158281 
L 705.26125 242.592281 
" style="fill: none; stroke: #000000; stroke-width: 0.8; stroke-linejoin: miter; stroke-linecap: square"/>
   </g>
   <g id="patch_13">
    <path d="M 43.78125 422.158281 
L 705.26125 422.158281 
" style="fill: none; stroke: #000000; stroke-width: 0.8; stroke-linejoin: miter; stroke-linecap: square"/>
   </g>
   <g id="patch_14">
    <path d="M 43.78125 242.592281 
L 705.26125 242.592281 
" style="fill: none; stroke: #000000; stroke-width: 0.8; stroke-linejoin: miter; stroke-linecap: square"/>
   </g>
   <g id="text_25">
    <!-- In the outage LC dead-reckons (linear ramp) while TC keeps fusing the surviving ranges. -->
    <g transform="translate(131.215 224.274687) scale(0.11 -0.11)">
     <defs>
      <path id="DejaVuSans-49" d="M 628 4666 
L 1259 4666 
L 1259 0 
L 628 0 
L 628 4666 
z
" transform="scale(0.015625)"/>
      <path id="DejaVuSans-2d" d="M 313 2009 
L 1997 2009 
L 1997 1497 
L 313 1497 
L 313 2009 
z
" transform="scale(0.015625)"/>
      <path id="DejaVuSans-6b" d="M 581 4863 
L 1159 4863 
L 1159 1991 
L 2875 3500 
L 3609 3500 
L 1753 1863 
L 3688 0 
L 2938 0 
L 1159 1709 
L 1159 0 
L 581 0 
L 581 4863 
z
" transform="scale(0.015625)"/>
      <path id="DejaVuSans-28" d="M 1984 4856 
Q 1566 4138 1362 3434 
Q 1159 2731 1159 2009 
Q 1159 1288 1364 580 
Q 1569 -128 1984 -844 
L 1484 -844 
Q 1016 -109 783 600 
Q 550 1309 550 2009 
Q 550 2706 781 3412 
Q 1013 4119 1484 4856 
L 1984 4856 
z
" transform="scale(0.015625)"/>
      <path id="DejaVuSans-29" d="M 513 4856 
L 1013 4856 
Q 1481 4119 1714 3412 
Q 1947 2706 1947 2009 
Q 1947 1309 1714 600 
Q 1481 -109 1013 -844 
L 513 -844 
Q 928 -128 1133 580 
Q 1338 1288 1338 2009 
Q 1338 2731 1133 3434 
Q 928 4138 513 4856 
z
" transform="scale(0.015625)"/>
      <path id="DejaVuSans-54" d="M -19 4666 
L 3928 4666 
L 3928 4134 
L 2272 4134 
L 2272 0 
L 1638 0 
L 1638 4134 
L -19 4134 
L -19 4666 
z
" transform="scale(0.015625)"/>
     </defs>
     <use xlink:href="#DejaVuSans-49"/>
     <use xlink:href="#DejaVuSans-6e" transform="translate(29.492188 0)"/>
     <use xlink:href="#DejaVuSans-20" transform="translate(92.871094 0)"/>
     <use xlink:href="#DejaVuSans-74" transform="translate(124.658203 0)"/>
     <use xlink:href="#DejaVuSans-68" transform="translate(163.867188 0)"/>
     <use xlink:href="#DejaVuSans-65" transform="translate(227.246094 0)"/>
     <use xlink:href="#DejaVuSans-20" transform="translate(288.769531 0)"/>
     <use xlink:href="#DejaVuSans-6f" transform="translate(320.556641 0)"/>
     <use xlink:href="#DejaVuSans-75" transform="translate(381.738281 0)"/>
     <use xlink:href="#DejaVuSans-74" transform="translate(445.117188 0)"/>
     <use xlink:href="#DejaVuSans-61" transform="translate(484.326172 0)"/>
     <use xlink:href="#DejaVuSans-67" transform="translate(545.605469 0)"/>
     <use xlink:href="#DejaVuSans-65" transform="translate(609.082031 0)"/>
     <use xlink:href="#DejaVuSans-20" transform="translate(670.605469 0)"/>
     <use xlink:href="#DejaVuSans-4c" transform="translate(702.392578 0)"/>
     <use xlink:href="#DejaVuSans-43" transform="translate(758.105469 0)"/>
     <use xlink:href="#DejaVuSans-20" transform="translate(827.929688 0)"/>
     <use xlink:href="#DejaVuSans-64" transform="translate(859.716797 0)"/>
     <use xlink:href="#DejaVuSans-65" transform="translate(923.193359 0)"/>
     <use xlink:href="#DejaVuSans-61" transform="translate(984.716797 0)"/>
     <use xlink:href="#DejaVuSans-64" transform="translate(1045.996094 0)"/>
     <use xlink:href="#DejaVuSans-2d" transform="translate(1109.472656 0)"/>
     <use xlink:href="#DejaVuSans-72" transform="translate(1145.556641 0)"/>
     <use xlink:href="#DejaVuSans-65" transform="translate(1184.419922 0)"/>
     <use xlink:href="#DejaVuSans-63" transform="translate(1245.943359 0)"/>
     <use xlink:href="#DejaVuSans-6b" transform="translate(1300.923828 0)"/>
     <use xlink:href="#DejaVuSans-6f" transform="translate(1355.208984 0)"/>
     <use xlink:href="#DejaVuSans-6e" transform="translate(1416.390625 0)"/>
     <use xlink:href="#DejaVuSans-73" transform="translate(1479.769531 0)"/>
     <use xlink:href="#DejaVuSans-20" transform="translate(1531.869141 0)"/>
     <use xlink:href="#DejaVuSans-28" transform="translate(1563.65625 0)"/>
     <use xlink:href="#DejaVuSans-6c" transform="translate(1602.669922 0)"/>
     <use xlink:href="#DejaVuSans-69" transform="translate(1630.453125 0)"/>
     <use xlink:href="#DejaVuSans-6e" transform="translate(1658.236328 0)"/>
     <use xlink:href="#DejaVuSans-65" transform="translate(1721.615234 0)"/>
     <use xlink:href="#DejaVuSans-61" transform="translate(1783.138672 0)"/>
     <use xlink:href="#DejaVuSans-72" transform="translate(1844.417969 0)"/>
     <use xlink:href="#DejaVuSans-20" transform="translate(1885.53125 0)"/>
     <use xlink:href="#DejaVuSans-72" transform="translate(1917.318359 0)"/>
     <use xlink:href="#DejaVuSans-61" transform="translate(1958.431641 0)"/>
     <use xlink:href="#DejaVuSans-6d" transform="translate(2019.710938 0)"/>
     <use xlink:href="#DejaVuSans-70" transform="translate(2117.123047 0)"/>
     <use xlink:href="#DejaVuSans-29" transform="translate(2180.599609 0)"/>
     <use xlink:href="#DejaVuSans-20" transform="translate(2219.613281 0)"/>
     <use xlink:href="#DejaVuSans-77" transform="translate(2251.400391 0)"/>
     <use xlink:href="#DejaVuSans-68" transform="translate(2333.1875 0)"/>
     <use xlink:href="#DejaVuSans-69" transform="translate(2396.566406 0)"/>
     <use xlink:href="#DejaVuSans-6c" transform="translate(2424.349609 0)"/>
     <use xlink:href="#DejaVuSans-65" transform="translate(2452.132812 0)"/>
     <use xlink:href="#DejaVuSans-20" transform="translate(2513.65625 0)"/>
     <use xlink:href="#DejaVuSans-54" transform="translate(2545.443359 0)"/>
     <use xlink:href="#DejaVuSans-43" transform="translate(2600.652344 0)"/>
     <use xlink:href="#DejaVuSans-20" transform="translate(2670.476562 0)"/>
     <use xlink:href="#DejaVuSans-6b" transform="translate(2702.263672 0)"/>
     <use xlink:href="#DejaVuSans-65" transform="translate(2756.548828 0)"/>
     <use xlink:href="#DejaVuSans-65" transform="translate(2818.072266 0)"/>
     <use xlink:href="#DejaVuSans-70" transform="translate(2879.595703 0)"/>
     <use xlink:href="#DejaVuSans-73" transform="translate(2943.072266 0)"/>
     <use xlink:href="#DejaVuSans-20" transform="translate(2995.171875 0)"/>
     <use xlink:href="#DejaVuSans-66" transform="translate(3026.958984 0)"/>
     <use xlink:href="#DejaVuSans-75" transform="translate(3062.164062 0)"/>
     <use xlink:href="#DejaVuSans-73" transform="translate(3125.542969 0)"/>
     <use xlink:href="#DejaVuSans-69" transform="translate(3177.642578 0)"/>
     <use xlink:href="#DejaVuSans-6e" transform="translate(3205.425781 0)"/>
     <use xlink:href="#DejaVuSans-67" transform="translate(3268.804688 0)"/>
     <use xlink:href="#DejaVuSans-20" transform="translate(3332.28125 0)"/>
     <use xlink:href="#DejaVuSans-74" transform="translate(3364.068359 0)"/>
     <use xlink:href="#DejaVuSans-68" transform="translate(3403.277344 0)"/>
     <use xlink:href="#DejaVuSans-65" transform="translate(3466.65625 0)"/>
     <use xlink:href="#DejaVuSans-20" transform="translate(3528.179688 0)"/>
     <use xlink:href="#DejaVuSans-73" transform="translate(3559.966797 0)"/>
     <use xlink:href="#DejaVuSans-75" transform="translate(3612.066406 0)"/>
     <use xlink:href="#DejaVuSans-72" transform="translate(3675.445312 0)"/>
     <use xlink:href="#DejaVuSans-76" transform="translate(3716.558594 0)"/>
     <use xlink:href="#DejaVuSans-69" transform="translate(3775.738281 0)"/>
     <use xlink:href="#DejaVuSans-76" transform="translate(3803.521484 0)"/>
     <use xlink:href="#DejaVuSans-69" transform="translate(3862.701172 0)"/>
     <use xlink:href="#DejaVuSans-6e" transform="translate(3890.484375 0)"/>
     <use xlink:href="#DejaVuSans-67" transform="translate(3953.863281 0)"/>
     <use xlink:href="#DejaVuSans-20" transform="translate(4017.339844 0)"/>
     <use xlink:href="#DejaVuSans-72" transform="translate(4049.126953 0)"/>
     <use xlink:href="#DejaVuSans-61" transform="translate(4090.240234 0)"/>
     <use xlink:href="#DejaVuSans-6e" transform="translate(4151.519531 0)"/>
     <use xlink:href="#DejaVuSans-67" transform="translate(4214.898438 0)"/>
     <use xlink:href="#DejaVuSans-65" transform="translate(4278.375 0)"/>
     <use xlink:href="#DejaVuSans-73" transform="translate(4339.898438 0)"/>
     <use xlink:href="#DejaVuSans-2e" transform="translate(4391.998047 0)"/>
    </g>
    <!-- Outside it, at the two outlier events, TC peaks HIGHER: a bad range hits the filter directly. -->
    <g transform="translate(127.974297 236.592281) scale(0.11 -0.11)">
     <defs>
      <path id="DejaVuSans-4f" d="M 2522 4238 
Q 1834 4238 1429 3725 
Q 1025 3213 1025 2328 
Q 1025 1447 1429 934 
Q 1834 422 2522 422 
Q 3209 422 3611 934 
Q 4013 1447 4013 2328 
Q 4013 3213 3611 3725 
Q 3209 4238 2522 4238 
z
M 2522 4750 
Q 3503 4750 4090 4092 
Q 4678 3434 4678 2328 
Q 4678 1225 4090 567 
Q 3503 -91 2522 -91 
Q 1538 -91 948 565 
Q 359 1222 359 2328 
Q 359 3434 948 4092 
Q 1538 4750 2522 4750 
z
" transform="scale(0.015625)"/>
      <path id="DejaVuSans-2c" d="M 750 794 
L 1409 794 
L 1409 256 
L 897 -744 
L 494 -744 
L 750 256 
L 750 794 
z
" transform="scale(0.015625)"/>
      <path id="DejaVuSans-48" d="M 628 4666 
L 1259 4666 
L 1259 2753 
L 3553 2753 
L 3553 4666 
L 4184 4666 
L 4184 0 
L 3553 0 
L 3553 2222 
L 1259 2222 
L 1259 0 
L 628 0 
L 628 4666 
z
" transform="scale(0.015625)"/>
      <path id="DejaVuSans-47" d="M 3809 666 
L 3809 1919 
L 2778 1919 
L 2778 2438 
L 4434 2438 
L 4434 434 
Q 4069 175 3628 42 
Q 3188 -91 2688 -91 
Q 1594 -91 976 548 
Q 359 1188 359 2328 
Q 359 3472 976 4111 
Q 1594 4750 2688 4750 
Q 3144 4750 3555 4637 
Q 3966 4525 4313 4306 
L 4313 3634 
Q 3963 3931 3569 4081 
Q 3175 4231 2741 4231 
Q 1884 4231 1454 3753 
Q 1025 3275 1025 2328 
Q 1025 1384 1454 906 
Q 1884 428 2741 428 
Q 3075 428 3337 486 
Q 3600 544 3809 666 
z
" transform="scale(0.015625)"/>
      <path id="DejaVuSans-45" d="M 628 4666 
L 3578 4666 
L 3578 4134 
L 1259 4134 
L 1259 2753 
L 3481 2753 
L 3481 2222 
L 1259 2222 
L 1259 531 
L 3634 531 
L 3634 0 
L 628 0 
L 628 4666 
z
" transform="scale(0.015625)"/>
      <path id="DejaVuSans-52" d="M 2841 2188 
Q 3044 2119 3236 1894 
Q 3428 1669 3622 1275 
L 4263 0 
L 3584 0 
L 2988 1197 
Q 2756 1666 2539 1819 
Q 2322 1972 1947 1972 
L 1259 1972 
L 1259 0 
L 628 0 
L 628 4666 
L 2053 4666 
Q 2853 4666 3247 4331 
Q 3641 3997 3641 3322 
Q 3641 2881 3436 2590 
Q 3231 2300 2841 2188 
z
M 1259 4147 
L 1259 2491 
L 2053 2491 
Q 2509 2491 2742 2702 
Q 2975 2913 2975 3322 
Q 2975 3731 2742 3939 
Q 2509 4147 2053 4147 
L 1259 4147 
z
" transform="scale(0.015625)"/>
      <path id="DejaVuSans-79" d="M 2059 -325 
Q 1816 -950 1584 -1140 
Q 1353 -1331 966 -1331 
L 506 -1331 
L 506 -850 
L 844 -850 
Q 1081 -850 1212 -737 
Q 1344 -625 1503 -206 
L 1606 56 
L 191 3500 
L 800 3500 
L 1894 763 
L 2988 3500 
L 3597 3500 
L 2059 -325 
z
" transform="scale(0.015625)"/>
     </defs>
     <use xlink:href="#DejaVuSans-4f"/>
     <use xlink:href="#DejaVuSans-75" transform="translate(78.710938 0)"/>
     <use xlink:href="#DejaVuSans-74" transform="translate(142.089844 0)"/>
     <use xlink:href="#DejaVuSans-73" transform="translate(181.298828 0)"/>
     <use xlink:href="#DejaVuSans-69" transform="translate(233.398438 0)"/>
     <use xlink:href="#DejaVuSans-64" transform="translate(261.181641 0)"/>
     <use xlink:href="#DejaVuSans-65" transform="translate(324.658203 0)"/>
     <use xlink:href="#DejaVuSans-20" transform="translate(386.181641 0)"/>
     <use xlink:href="#DejaVuSans-69" transform="translate(417.96875 0)"/>
     <use xlink:href="#DejaVuSans-74" transform="translate(445.751953 0)"/>
     <use xlink:href="#DejaVuSans-2c" transform="translate(484.960938 0)"/>
     <use xlink:href="#DejaVuSans-20" transform="translate(516.748047 0)"/>
     <use xlink:href="#DejaVuSans-61" transform="translate(548.535156 0)"/>
     <use xlink:href="#DejaVuSans-74" transform="translate(609.814453 0)"/>
     <use xlink:href="#DejaVuSans-20" transform="translate(649.023438 0)"/>
     <use xlink:href="#DejaVuSans-74" transform="translate(680.810547 0)"/>
     <use xlink:href="#DejaVuSans-68" transform="translate(720.019531 0)"/>
     <use xlink:href="#DejaVuSans-65" transform="translate(783.398438 0)"/>
     <use xlink:href="#DejaVuSans-20" transform="translate(844.921875 0)"/>
     <use xlink:href="#DejaVuSans-74" transform="translate(876.708984 0)"/>
     <use xlink:href="#DejaVuSans-77" transform="translate(915.917969 0)"/>
     <use xlink:href="#DejaVuSans-6f" transform="translate(997.705078 0)"/>
     <use xlink:href="#DejaVuSans-20" transform="translate(1058.886719 0)"/>
     <use xlink:href="#DejaVuSans-6f" transform="translate(1090.673828 0)"/>
     <use xlink:href="#DejaVuSans-75" transform="translate(1151.855469 0)"/>
     <use xlink:href="#DejaVuSans-74" transform="translate(1215.234375 0)"/>
     <use xlink:href="#DejaVuSans-6c" transform="translate(1254.443359 0)"/>
     <use xlink:href="#DejaVuSans-69" transform="translate(1282.226562 0)"/>
     <use xlink:href="#DejaVuSans-65" transform="translate(1310.009766 0)"/>
     <use xlink:href="#DejaVuSans-72" transform="translate(1371.533203 0)"/>
     <use xlink:href="#DejaVuSans-20" transform="translate(1412.646484 0)"/>
     <use xlink:href="#DejaVuSans-65" transform="translate(1444.433594 0)"/>
     <use xlink:href="#DejaVuSans-76" transform="translate(1505.957031 0)"/>
     <use xlink:href="#DejaVuSans-65" transform="translate(1565.136719 0)"/>
     <use xlink:href="#DejaVuSans-6e" transform="translate(1626.660156 0)"/>
     <use xlink:href="#DejaVuSans-74" transform="translate(1690.039062 0)"/>
     <use xlink:href="#DejaVuSans-73" transform="translate(1729.248047 0)"/>
     <use xlink:href="#DejaVuSans-2c" transform="translate(1781.347656 0)"/>
     <use xlink:href="#DejaVuSans-20" transform="translate(1813.134766 0)"/>
     <use xlink:href="#DejaVuSans-54" transform="translate(1844.921875 0)"/>
     <use xlink:href="#DejaVuSans-43" transform="translate(1900.130859 0)"/>
     <use xlink:href="#DejaVuSans-20" transform="translate(1969.955078 0)"/>
     <use xlink:href="#DejaVuSans-70" transform="translate(2001.742188 0)"/>
     <use xlink:href="#DejaVuSans-65" transform="translate(2065.21875 0)"/>
     <use xlink:href="#DejaVuSans-61" transform="translate(2126.742188 0)"/>
     <use xlink:href="#DejaVuSans-6b" transform="translate(2188.021484 0)"/>
     <use xlink:href="#DejaVuSans-73" transform="translate(2245.931641 0)"/>
     <use xlink:href="#DejaVuSans-20" transform="translate(2298.03125 0)"/>
     <use xlink:href="#DejaVuSans-48" transform="translate(2329.818359 0)"/>
     <use xlink:href="#DejaVuSans-49" transform="translate(2405.013672 0)"/>
     <use xlink:href="#DejaVuSans-47" transform="translate(2434.505859 0)"/>
     <use xlink:href="#DejaVuSans-48" transform="translate(2511.996094 0)"/>
     <use xlink:href="#DejaVuSans-45" transform="translate(2587.191406 0)"/>
     <use xlink:href="#DejaVuSans-52" transform="translate(2650.375 0)"/>
     <use xlink:href="#DejaVuSans-3a" transform="translate(2716.732422 0)"/>
     <use xlink:href="#DejaVuSans-20" transform="translate(2750.423828 0)"/>
     <use xlink:href="#DejaVuSans-61" transform="translate(2782.210938 0)"/>
     <use xlink:href="#DejaVuSans-20" transform="translate(2843.490234 0)"/>
     <use xlink:href="#DejaVuSans-62" transform="translate(2875.277344 0)"/>
     <use xlink:href="#DejaVuSans-61" transform="translate(2938.753906 0)"/>
     <use xlink:href="#DejaVuSans-64" transform="translate(3000.033203 0)"/>
     <use xlink:href="#DejaVuSans-20" transform="translate(3063.509766 0)"/>
     <use xlink:href="#DejaVuSans-72" transform="translate(3095.296875 0)"/>
     <use xlink:href="#DejaVuSans-61" transform="translate(3136.410156 0)"/>
     <use xlink:href="#DejaVuSans-6e" transform="translate(3197.689453 0)"/>
     <use xlink:href="#DejaVuSans-67" transform="translate(3261.068359 0)"/>
     <use xlink:href="#DejaVuSans-65" transform="translate(3324.544922 0)"/>
     <use xlink:href="#DejaVuSans-20" transform="translate(3386.068359 0)"/>
     <use xlink:href="#DejaVuSans-68" transform="translate(3417.855469 0)"/>
     <use xlink:href="#DejaVuSans-69" transform="translate(3481.234375 0)"/>
     <use xlink:href="#DejaVuSans-74" transform="translate(3509.017578 0)"/>
     <use xlink:href="#DejaVuSans-73" transform="translate(3548.226562 0)"/>
     <use xlink:href="#DejaVuSans-20" transform="translate(3600.326172 0)"/>
     <use xlink:href="#DejaVuSans-74" transform="translate(3632.113281 0)"/>
     <use xlink:href="#DejaVuSans-68" transform="translate(3671.322266 0)"/>
     <use xlink:href="#DejaVuSans-65" transform="translate(3734.701172 0)"/>
     <use xlink:href="#DejaVuSans-20" transform="translate(3796.224609 0)"/>
     <use xlink:href="#DejaVuSans-66" transform="translate(3828.011719 0)"/>
     <use xlink:href="#DejaVuSans-69" transform="translate(3863.216797 0)"/>
     <use xlink:href="#DejaVuSans-6c" transform="translate(3891 0)"/>
     <use xlink:href="#DejaVuSans-74" transform="translate(3918.783203 0)"/>
     <use xlink:href="#DejaVuSans-65" transform="translate(3957.992188 0)"/>
     <use xlink:href="#DejaVuSans-72" transform="translate(4019.515625 0)"/>
     <use xlink:href="#DejaVuSans-20" transform="translate(4060.628906 0)"/>
     <use xlink:href="#DejaVuSans-64" transform="translate(4092.416016 0)"/>
     <use xlink:href="#DejaVuSans-69" transform="translate(4155.892578 0)"/>
     <use xlink:href="#DejaVuSans-72" transform="translate(4183.675781 0)"/>
     <use xlink:href="#DejaVuSans-65" transform="translate(4222.539062 0)"/>
     <use xlink:href="#DejaVuSans-63" transform="translate(4284.0625 0)"/>
     <use xlink:href="#DejaVuSans-74" transform="translate(4339.042969 0)"/>
     <use xlink:href="#DejaVuSans-6c" transform="translate(4378.251953 0)"/>
     <use xlink:href="#DejaVuSans-79" transform="translate(4406.035156 0)"/>
     <use xlink:href="#DejaVuSans-2e" transform="translate(4450.964844 0)"/>
    </g>
   </g>
   <g id="legend_2">
    <g id="patch_15">
     <path d="M 50.08125 276.212906 
L 148.933594 276.212906 
Q 150.733594 276.212906 150.733594 274.412906 
L 150.733594 248.892281 
Q 150.733594 247.092281 148.933594 247.092281 
L 50.08125 247.092281 
Q 48.28125 247.092281 48.28125 248.892281 
L 48.28125 274.412906 
Q 48.28125 276.212906 50.08125 276.212906 
z
" style="fill: #ffffff; opacity: 0.8; stroke: #cccccc; stroke-linejoin: miter"/>
    </g>
    <g id="line2d_58">
     <path d="M 51.88125 254.380875 
L 60.88125 254.380875 
L 69.88125 254.380875 
" style="fill: none; stroke: #1f77b4; stroke-width: 1.6; stroke-linecap: square"/>
    </g>
    <g id="text_26">
     <!-- loosely coupled -->
     <g transform="translate(77.08125 257.530875) scale(0.09 -0.09)">
      <use xlink:href="#DejaVuSans-6c"/>
      <use xlink:href="#DejaVuSans-6f" transform="translate(27.783203 0)"/>
      <use xlink:href="#DejaVuSans-6f" transform="translate(88.964844 0)"/>
      <use xlink:href="#DejaVuSans-73" transform="translate(150.146484 0)"/>
      <use xlink:href="#DejaVuSans-65" transform="translate(202.246094 0)"/>
      <use xlink:href="#DejaVuSans-6c" transform="translate(263.769531 0)"/>
      <use xlink:href="#DejaVuSans-79" transform="translate(291.552734 0)"/>
      <use xlink:href="#DejaVuSans-20" transform="translate(350.732422 0)"/>
      <use xlink:href="#DejaVuSans-63" transform="translate(382.519531 0)"/>
      <use xlink:href="#DejaVuSans-6f" transform="translate(437.5 0)"/>
      <use xlink:href="#DejaVuSans-75" transform="translate(498.681641 0)"/>
      <use xlink:href="#DejaVuSans-70" transform="translate(562.060547 0)"/>
      <use xlink:href="#DejaVuSans-6c" transform="translate(625.537109 0)"/>
      <use xlink:href="#DejaVuSans-65" transform="translate(653.320312 0)"/>
      <use xlink:href="#DejaVuSans-64" transform="translate(714.84375 0)"/>
     </g>
    </g>
    <g id="line2d_59">
     <path d="M 51.88125 267.591187 
L 60.88125 267.591187 
L 69.88125 267.591187 
" style="fill: none; stroke: #ff7f0e; stroke-width: 1.6; stroke-linecap: square"/>
    </g>
    <g id="text_27">
     <!-- tightly coupled -->
     <g transform="translate(77.08125 270.741187) scale(0.09 -0.09)">
      <use xlink:href="#DejaVuSans-74"/>
      <use xlink:href="#DejaVuSans-69" transform="translate(39.208984 0)"/>
      <use xlink:href="#DejaVuSans-67" transform="translate(66.992188 0)"/>
      <use xlink:href="#DejaVuSans-68" transform="translate(130.46875 0)"/>
      <use xlink:href="#DejaVuSans-74" transform="translate(193.847656 0)"/>
      <use xlink:href="#DejaVuSans-6c" transform="translate(233.056641 0)"/>
      <use xlink:href="#DejaVuSans-79" transform="translate(260.839844 0)"/>
      <use xlink:href="#DejaVuSans-20" transform="translate(320.019531 0)"/>
      <use xlink:href="#DejaVuSans-63" transform="translate(351.806641 0)"/>
      <use xlink:href="#DejaVuSans-6f" transform="translate(406.787109 0)"/>
      <use xlink:href="#DejaVuSans-75" transform="translate(467.96875 0)"/>
      <use xlink:href="#DejaVuSans-70" transform="translate(531.347656 0)"/>
      <use xlink:href="#DejaVuSans-6c" transform="translate(594.824219 0)"/>
      <use xlink:href="#DejaVuSans-65" transform="translate(622.607422 0)"/>
      <use xlink:href="#DejaVuSans-64" transform="translate(684.130859 0)"/>
     </g>
    </g>
   </g>
  </g>
 </g>
 <defs>
  <clipPath id="p53f26bf0ba">
   <rect x="43.78125" y="21.558281" width="661.48" height="179.566"/>
  </clipPath>
  <clipPath id="pc348c38e24">
   <rect x="43.78125" y="242.592281" width="661.48" height="179.566"/>
  </clipPath>
 </defs>
</svg>
