<?xml version="1.0" encoding="utf-8" standalone="no"?>
<!DOCTYPE svg PUBLIC "-//W3C//DTD SVG 1.1//EN"
  "http://www.w3.org/Graphics/SVG/1.1/DTD/svg11.dtd">
<svg xmlns:xlink="http://www.w3.org/1999/xlink" width="999.543166pt" height="636.593375pt" viewBox="0 0 999.543166 636.593375" xmlns="http://www.w3.org/2000/svg" version="1.1">
 <metadata>
  <rdf:RDF xmlns:dc="http://purl.org/dc/elements/1.1/" xmlns:cc="http://creativecommons.org/ns#" xmlns:rdf="http://www.w3.org/1999/02/22-rdf-syntax-ns#">
   <cc:Work>
    <dc:type rdf:resource="http://purl.org/dc/dcmitype/StillImage"/>
    <dc:date>2026-01-09T17:06:40.214097</dc:date>
    <dc:format>image/svg+xml</dc:format>
    <dc:creator>
     <cc:Agent>
      <dc:title>Matplotlib v3.9.2, https://matplotlib.org/</dc:title>
     </cc:Agent>
    </dc:creator>
   </cc:Work>
  </rdf:RDF>
 </metadata>
 <defs>
  <style type="text/css">*{stroke-linejoin: round; stroke-linecap: butt}</style>
 </defs>
 <g id="figure_1">
  <g id="patch_1">
   <path d="M 0 636.593375 
L 999.543166 636.593375 
L 999.543166 0 
L 0 0 
z
" style="fill: #ffffff"/>
  </g>
  <g id="axes_1">
   <g id="patch_2">
    <path d="M 54.281563 596.032125 
L 983.543166 596.032125 
L 983.543166 39.624125 
L 54.281563 39.624125 
z
" style="fill: #ffffff"/>
   </g>
   <g id="matplotlib.axis_1">
    <g id="xtick_1">
     <g id="line2d_1">
      <path d="M 54.281563 596.032125 
L 54.281563 39.624125 
" clip-path="url(#p8ef4664ea7)" style="fill: none; stroke-dasharray: 0.8,1.32; stroke-dashoffset: 0; stroke: #b0b0b0; stroke-opacity: 0.3; stroke-width: 0.8"/>
     </g>
     <g id="line2d_2">
      <defs>
       <path id="mc91a758040" d="M 0 0 
L 0 3.5 
" style="stroke: #000000; stroke-width: 0.8"/>
      </defs>
      <g>
       <use xlink:href="#mc91a758040" x="54.281563" y="596.032125" style="stroke: #000000; stroke-width: 0.8"/>
      </g>
     </g>
     <g id="text_1">
      <!-- $\mathdefault{10^{0}}$ -->
      <g transform="translate(45.481563 610.630562) scale(0.1 -0.1)">
       <defs>
        <path id="DejaVuSans-31" d="M 794 531 
L 1825 531 
L 1825 4091 
L 703 3866 
L 703 4441 
L 1819 4666 
L 2450 4666 
L 2450 531 
L 3481 531 
L 3481 0 
L 794 0 
L 794 531 
z
" transform="scale(0.015625)"/>
        <path id="DejaVuSans-30" d="M 2034 4250 
Q 1547 4250 1301 3770 
Q 1056 3291 1056 2328 
Q 1056 1369 1301 889 
Q 1547 409 2034 409 
Q 2525 409 2770 889 
Q 3016 1369 3016 2328 
Q 3016 3291 2770 3770 
Q 2525 4250 2034 4250 
z
M 2034 4750 
Q 2819 4750 3233 4129 
Q 3647 3509 3647 2328 
Q 3647 1150 3233 529 
Q 2819 -91 2034 -91 
Q 1250 -91 836 529 
Q 422 1150 422 2328 
Q 422 3509 836 4129 
Q 1250 4750 2034 4750 
z
" transform="scale(0.015625)"/>
       </defs>
       <use xlink:href="#DejaVuSans-31" transform="translate(0 0.765625)"/>
       <use xlink:href="#DejaVuSans-30" transform="translate(63.623047 0.765625)"/>
       <use xlink:href="#DejaVuSans-30" transform="translate(128.203125 39.046875) scale(0.7)"/>
      </g>
     </g>
    </g>
    <g id="xtick_2">
     <g id="line2d_3">
      <path d="M 364.03543 596.032125 
L 364.03543 39.624125 
" clip-path="url(#p8ef4664ea7)" style="fill: none; stroke-dasharray: 0.8,1.32; stroke-dashoffset: 0; stroke: #b0b0b0; stroke-opacity: 0.3; stroke-width: 0.8"/>
     </g>
     <g id="line2d_4">
      <g>
       <use xlink:href="#mc91a758040" x="364.03543" y="596.032125" style="stroke: #000000; stroke-width: 0.8"/>
      </g>
     </g>
     <g id="text_2">
      <!-- $\mathdefault{10^{1}}$ -->
      <g transform="translate(355.23543 610.630562) scale(0.1 -0.1)">
       <use xlink:href="#DejaVuSans-31" transform="translate(0 0.684375)"/>
       <use xlink:href="#DejaVuSans-30" transform="translate(63.623047 0.684375)"/>
       <use xlink:href="#DejaVuSans-31" transform="translate(128.203125 38.965625) scale(0.7)"/>
      </g>
     </g>
    </g>
    <g id="xtick_3">
     <g id="line2d_5">
      <path d="M 673.789298 596.032125 
L 673.789298 39.624125 
" clip-path="url(#p8ef4664ea7)" style="fill: none; stroke-dasharray: 0.8,1.32; stroke-dashoffset: 0; stroke: #b0b0b0; stroke-opacity: 0.3; stroke-width: 0.8"/>
     </g>
     <g id="line2d_6">
      <g>
       <use xlink:href="#mc91a758040" x="673.789298" y="596.032125" style="stroke: #000000; stroke-width: 0.8"/>
      </g>
     </g>
     <g id="text_3">
      <!-- $\mathdefault{10^{2}}$ -->
      <g transform="translate(664.989298 610.630562) scale(0.1 -0.1)">
       <defs>
        <path id="DejaVuSans-32" d="M 1228 531 
L 3431 531 
L 3431 0 
L 469 0 
L 469 531 
Q 828 903 1448 1529 
Q 2069 2156 2228 2338 
Q 2531 2678 2651 2914 
Q 2772 3150 2772 3378 
Q 2772 3750 2511 3984 
Q 2250 4219 1831 4219 
Q 1534 4219 1204 4116 
Q 875 4013 500 3803 
L 500 4441 
Q 881 4594 1212 4672 
Q 1544 4750 1819 4750 
Q 2544 4750 2975 4387 
Q 3406 4025 3406 3419 
Q 3406 3131 3298 2873 
Q 3191 2616 2906 2266 
Q 2828 2175 2409 1742 
Q 1991 1309 1228 531 
z
" transform="scale(0.015625)"/>
       </defs>
       <use xlink:href="#DejaVuSans-31" transform="translate(0 0.765625)"/>
       <use xlink:href="#DejaVuSans-30" transform="translate(63.623047 0.765625)"/>
       <use xlink:href="#DejaVuSans-32" transform="translate(128.203125 39.046875) scale(0.7)"/>
      </g>
     </g>
    </g>
    <g id="xtick_4">
     <g id="line2d_7">
      <path d="M 983.543166 596.032125 
L 983.543166 39.624125 
" clip-path="url(#p8ef4664ea7)" style="fill: none; stroke-dasharray: 0.8,1.32; stroke-dashoffset: 0; stroke: #b0b0b0; stroke-opacity: 0.3; stroke-width: 0.8"/>
     </g>
     <g id="line2d_8">
      <g>
       <use xlink:href="#mc91a758040" x="983.543166" y="596.032125" style="stroke: #000000; stroke-width: 0.8"/>
      </g>
     </g>
     <g id="text_4">
      <!-- $\mathdefault{10^{3}}$ -->
      <g transform="translate(974.743166 610.630562) scale(0.1 -0.1)">
       <defs>
        <path id="DejaVuSans-33" d="M 2597 2516 
Q 3050 2419 3304 2112 
Q 3559 1806 3559 1356 
Q 3559 666 3084 287 
Q 2609 -91 1734 -91 
Q 1441 -91 1130 -33 
Q 819 25 488 141 
L 488 750 
Q 750 597 1062 519 
Q 1375 441 1716 441 
Q 2309 441 2620 675 
Q 2931 909 2931 1356 
Q 2931 1769 2642 2001 
Q 2353 2234 1838 2234 
L 1294 2234 
L 1294 2753 
L 1863 2753 
Q 2328 2753 2575 2939 
Q 2822 3125 2822 3475 
Q 2822 3834 2567 4026 
Q 2313 4219 1838 4219 
Q 1578 4219 1281 4162 
Q 984 4106 628 3988 
L 628 4550 
Q 988 4650 1302 4700 
Q 1616 4750 1894 4750 
Q 2613 4750 3031 4423 
Q 3450 4097 3450 3541 
Q 3450 3153 3228 2886 
Q 3006 2619 2597 2516 
z
" transform="scale(0.015625)"/>
       </defs>
       <use xlink:href="#DejaVuSans-31" transform="translate(0 0.765625)"/>
       <use xlink:href="#DejaVuSans-30" transform="translate(63.623047 0.765625)"/>
       <use xlink:href="#DejaVuSans-33" transform="translate(128.203125 39.046875) scale(0.7)"/>
      </g>
     </g>
    </g>
    <g id="xtick_5">
     <g id="line2d_9">
      <path d="M 147.526768 596.032125 
L 147.526768 39.624125 
" clip-path="url(#p8ef4664ea7)" style="fill: none; stroke-dasharray: 0.8,1.32; stroke-dashoffset: 0; stroke: #b0b0b0; stroke-opacity: 0.3; stroke-width: 0.8"/>
     </g>
     <g id="line2d_10">
      <defs>
       <path id="ma729a062cb" d="M 0 0 
L 0 2 
" style="stroke: #000000; stroke-width: 0.6"/>
      </defs>
      <g>
       <use xlink:href="#ma729a062cb" x="147.526768" y="596.032125" style="stroke: #000000; stroke-width: 0.6"/>
      </g>
     </g>
    </g>
    <g id="xtick_6">
     <g id="line2d_11">
      <path d="M 202.071717 596.032125 
L 202.071717 39.624125 
" clip-path="url(#p8ef4664ea7)" style="fill: none; stroke-dasharray: 0.8,1.32; stroke-dashoffset: 0; stroke: #b0b0b0; stroke-opacity: 0.3; stroke-width: 0.8"/>
     </g>
     <g id="line2d_12">
      <g>
       <use xlink:href="#ma729a062cb" x="202.071717" y="596.032125" style="stroke: #000000; stroke-width: 0.6"/>
      </g>
     </g>
    </g>
    <g id="xtick_7">
     <g id="line2d_13">
      <path d="M 240.771974 596.032125 
L 240.771974 39.624125 
" clip-path="url(#p8ef4664ea7)" style="fill: none; stroke-dasharray: 0.8,1.32; stroke-dashoffset: 0; stroke: #b0b0b0; stroke-opacity: 0.3; stroke-width: 0.8"/>
     </g>
     <g id="line2d_14">
      <g>
       <use xlink:href="#ma729a062cb" x="240.771974" y="596.032125" style="stroke: #000000; stroke-width: 0.6"/>
      </g>
     </g>
    </g>
    <g id="xtick_8">
     <g id="line2d_15">
      <path d="M 270.790225 596.032125 
L 270.790225 39.624125 
" clip-path="url(#p8ef4664ea7)" style="fill: none; stroke-dasharray: 0.8,1.32; stroke-dashoffset: 0; stroke: #b0b0b0; stroke-opacity: 0.3; stroke-width: 0.8"/>
     </g>
     <g id="line2d_16">
      <g>
       <use xlink:href="#ma729a062cb" x="270.790225" y="596.032125" style="stroke: #000000; stroke-width: 0.6"/>
      </g>
     </g>
    </g>
    <g id="xtick_9">
     <g id="line2d_17">
      <path d="M 295.316922 596.032125 
L 295.316922 39.624125 
" clip-path="url(#p8ef4664ea7)" style="fill: none; stroke-dasharray: 0.8,1.32; stroke-dashoffset: 0; stroke: #b0b0b0; stroke-opacity: 0.3; stroke-width: 0.8"/>
     </g>
     <g id="line2d_18">
      <g>
       <use xlink:href="#ma729a062cb" x="295.316922" y="596.032125" style="stroke: #000000; stroke-width: 0.6"/>
      </g>
     </g>
    </g>
    <g id="xtick_10">
     <g id="line2d_19">
      <path d="M 316.053949 596.032125 
L 316.053949 39.624125 
" clip-path="url(#p8ef4664ea7)" style="fill: none; stroke-dasharray: 0.8,1.32; stroke-dashoffset: 0; stroke: #b0b0b0; stroke-opacity: 0.3; stroke-width: 0.8"/>
     </g>
     <g id="line2d_20">
      <g>
       <use xlink:href="#ma729a062cb" x="316.053949" y="596.032125" style="stroke: #000000; stroke-width: 0.6"/>
      </g>
     </g>
    </g>
    <g id="xtick_11">
     <g id="line2d_21">
      <path d="M 334.017179 596.032125 
L 334.017179 39.624125 
" clip-path="url(#p8ef4664ea7)" style="fill: none; stroke-dasharray: 0.8,1.32; stroke-dashoffset: 0; stroke: #b0b0b0; stroke-opacity: 0.3; stroke-width: 0.8"/>
     </g>
     <g id="line2d_22">
      <g>
       <use xlink:href="#ma729a062cb" x="334.017179" y="596.032125" style="stroke: #000000; stroke-width: 0.6"/>
      </g>
     </g>
    </g>
    <g id="xtick_12">
     <g id="line2d_23">
      <path d="M 349.861871 596.032125 
L 349.861871 39.624125 
" clip-path="url(#p8ef4664ea7)" style="fill: none; stroke-dasharray: 0.8,1.32; stroke-dashoffset: 0; stroke: #b0b0b0; stroke-opacity: 0.3; stroke-width: 0.8"/>
     </g>
     <g id="line2d_24">
      <g>
       <use xlink:href="#ma729a062cb" x="349.861871" y="596.032125" style="stroke: #000000; stroke-width: 0.6"/>
      </g>
     </g>
    </g>
    <g id="xtick_13">
     <g id="line2d_25">
      <path d="M 457.280636 596.032125 
L 457.280636 39.624125 
" clip-path="url(#p8ef4664ea7)" style="fill: none; stroke-dasharray: 0.8,1.32; stroke-dashoffset: 0; stroke: #b0b0b0; stroke-opacity: 0.3; stroke-width: 0.8"/>
     </g>
     <g id="line2d_26">
      <g>
       <use xlink:href="#ma729a062cb" x="457.280636" y="596.032125" style="stroke: #000000; stroke-width: 0.6"/>
      </g>
     </g>
    </g>
    <g id="xtick_14">
     <g id="line2d_27">
      <path d="M 511.825585 596.032125 
L 511.825585 39.624125 
" clip-path="url(#p8ef4664ea7)" style="fill: none; stroke-dasharray: 0.8,1.32; stroke-dashoffset: 0; stroke: #b0b0b0; stroke-opacity: 0.3; stroke-width: 0.8"/>
     </g>
     <g id="line2d_28">
      <g>
       <use xlink:href="#ma729a062cb" x="511.825585" y="596.032125" style="stroke: #000000; stroke-width: 0.6"/>
      </g>
     </g>
    </g>
    <g id="xtick_15">
     <g id="line2d_29">
      <path d="M 550.525841 596.032125 
L 550.525841 39.624125 
" clip-path="url(#p8ef4664ea7)" style="fill: none; stroke-dasharray: 0.8,1.32; stroke-dashoffset: 0; stroke: #b0b0b0; stroke-opacity: 0.3; stroke-width: 0.8"/>
     </g>
     <g id="line2d_30">
      <g>
       <use xlink:href="#ma729a062cb" x="550.525841" y="596.032125" style="stroke: #000000; stroke-width: 0.6"/>
      </g>
     </g>
    </g>
    <g id="xtick_16">
     <g id="line2d_31">
      <path d="M 580.544093 596.032125 
L 580.544093 39.624125 
" clip-path="url(#p8ef4664ea7)" style="fill: none; stroke-dasharray: 0.8,1.32; stroke-dashoffset: 0; stroke: #b0b0b0; stroke-opacity: 0.3; stroke-width: 0.8"/>
     </g>
     <g id="line2d_32">
      <g>
       <use xlink:href="#ma729a062cb" x="580.544093" y="596.032125" style="stroke: #000000; stroke-width: 0.6"/>
      </g>
     </g>
    </g>
    <g id="xtick_17">
     <g id="line2d_33">
      <path d="M 605.07079 596.032125 
L 605.07079 39.624125 
" clip-path="url(#p8ef4664ea7)" style="fill: none; stroke-dasharray: 0.8,1.32; stroke-dashoffset: 0; stroke: #b0b0b0; stroke-opacity: 0.3; stroke-width: 0.8"/>
     </g>
     <g id="line2d_34">
      <g>
       <use xlink:href="#ma729a062cb" x="605.07079" y="596.032125" style="stroke: #000000; stroke-width: 0.6"/>
      </g>
     </g>
    </g>
    <g id="xtick_18">
     <g id="line2d_35">
      <path d="M 625.807817 596.032125 
L 625.807817 39.624125 
" clip-path="url(#p8ef4664ea7)" style="fill: none; stroke-dasharray: 0.8,1.32; stroke-dashoffset: 0; stroke: #b0b0b0; stroke-opacity: 0.3; stroke-width: 0.8"/>
     </g>
     <g id="line2d_36">
      <g>
       <use xlink:href="#ma729a062cb" x="625.807817" y="596.032125" style="stroke: #000000; stroke-width: 0.6"/>
      </g>
     </g>
    </g>
    <g id="xtick_19">
     <g id="line2d_37">
      <path d="M 643.771047 596.032125 
L 643.771047 39.624125 
" clip-path="url(#p8ef4664ea7)" style="fill: none; stroke-dasharray: 0.8,1.32; stroke-dashoffset: 0; stroke: #b0b0b0; stroke-opacity: 0.3; stroke-width: 0.8"/>
     </g>
     <g id="line2d_38">
      <g>
       <use xlink:href="#ma729a062cb" x="643.771047" y="596.032125" style="stroke: #000000; stroke-width: 0.6"/>
      </g>
     </g>
    </g>
    <g id="xtick_20">
     <g id="line2d_39">
      <path d="M 659.615739 596.032125 
L 659.615739 39.624125 
" clip-path="url(#p8ef4664ea7)" style="fill: none; stroke-dasharray: 0.8,1.32; stroke-dashoffset: 0; stroke: #b0b0b0; stroke-opacity: 0.3; stroke-width: 0.8"/>
     </g>
     <g id="line2d_40">
      <g>
       <use xlink:href="#ma729a062cb" x="659.615739" y="596.032125" style="stroke: #000000; stroke-width: 0.6"/>
      </g>
     </g>
    </g>
    <g id="xtick_21">
     <g id="line2d_41">
      <path d="M 767.034504 596.032125 
L 767.034504 39.624125 
" clip-path="url(#p8ef4664ea7)" style="fill: none; stroke-dasharray: 0.8,1.32; stroke-dashoffset: 0; stroke: #b0b0b0; stroke-opacity: 0.3; stroke-width: 0.8"/>
     </g>
     <g id="line2d_42">
      <g>
       <use xlink:href="#ma729a062cb" x="767.034504" y="596.032125" style="stroke: #000000; stroke-width: 0.6"/>
      </g>
     </g>
    </g>
    <g id="xtick_22">
     <g id="line2d_43">
      <path d="M 821.579452 596.032125 
L 821.579452 39.624125 
" clip-path="url(#p8ef4664ea7)" style="fill: none; stroke-dasharray: 0.8,1.32; stroke-dashoffset: 0; stroke: #b0b0b0; stroke-opacity: 0.3; stroke-width: 0.8"/>
     </g>
     <g id="line2d_44">
      <g>
       <use xlink:href="#ma729a062cb" x="821.579452" y="596.032125" style="stroke: #000000; stroke-width: 0.6"/>
      </g>
     </g>
    </g>
    <g id="xtick_23">
     <g id="line2d_45">
      <path d="M 860.279709 596.032125 
L 860.279709 39.624125 
" clip-path="url(#p8ef4664ea7)" style="fill: none; stroke-dasharray: 0.8,1.32; stroke-dashoffset: 0; stroke: #b0b0b0; stroke-opacity: 0.3; stroke-width: 0.8"/>
     </g>
     <g id="line2d_46">
      <g>
       <use xlink:href="#ma729a062cb" x="860.279709" y="596.032125" style="stroke: #000000; stroke-width: 0.6"/>
      </g>
     </g>
    </g>
    <g id="xtick_24">
     <g id="line2d_47">
      <path d="M 890.297961 596.032125 
L 890.297961 39.624125 
" clip-path="url(#p8ef4664ea7)" style="fill: none; stroke-dasharray: 0.8,1.32; stroke-dashoffset: 0; stroke: #b0b0b0; stroke-opacity: 0.3; stroke-width: 0.8"/>
     </g>
     <g id="line2d_48">
      <g>
       <use xlink:href="#ma729a062cb" x="890.297961" y="596.032125" style="stroke: #000000; stroke-width: 0.6"/>
      </g>
     </g>
    </g>
    <g id="xtick_25">
     <g id="line2d_49">
      <path d="M 914.824658 596.032125 
L 914.824658 39.624125 
" clip-path="url(#p8ef4664ea7)" style="fill: none; stroke-dasharray: 0.8,1.32; stroke-dashoffset: 0; stroke: #b0b0b0; stroke-opacity: 0.3; stroke-width: 0.8"/>
     </g>
     <g id="line2d_50">
      <g>
       <use xlink:href="#ma729a062cb" x="914.824658" y="596.032125" style="stroke: #000000; stroke-width: 0.6"/>
      </g>
     </g>
    </g>
    <g id="xtick_26">
     <g id="line2d_51">
      <path d="M 935.561685 596.032125 
L 935.561685 39.624125 
" clip-path="url(#p8ef4664ea7)" style="fill: none; stroke-dasharray: 0.8,1.32; stroke-dashoffset: 0; stroke: #b0b0b0; stroke-opacity: 0.3; stroke-width: 0.8"/>
     </g>
     <g id="line2d_52">
      <g>
       <use xlink:href="#ma729a062cb" x="935.561685" y="596.032125" style="stroke: #000000; stroke-width: 0.6"/>
      </g>
     </g>
    </g>
    <g id="xtick_27">
     <g id="line2d_53">
      <path d="M 953.524915 596.032125 
L 953.524915 39.624125 
" clip-path="url(#p8ef4664ea7)" style="fill: none; stroke-dasharray: 0.8,1.32; stroke-dashoffset: 0; stroke: #b0b0b0; stroke-opacity: 0.3; stroke-width: 0.8"/>
     </g>
     <g id="line2d_54">
      <g>
       <use xlink:href="#ma729a062cb" x="953.524915" y="596.032125" style="stroke: #000000; stroke-width: 0.6"/>
      </g>
     </g>
    </g>
    <g id="xtick_28">
     <g id="line2d_55">
      <path d="M 969.369607 596.032125 
L 969.369607 39.624125 
" clip-path="url(#p8ef4664ea7)" style="fill: none; stroke-dasharray: 0.8,1.32; stroke-dashoffset: 0; stroke: #b0b0b0; stroke-opacity: 0.3; stroke-width: 0.8"/>
     </g>
     <g id="line2d_56">
      <g>
       <use xlink:href="#ma729a062cb" x="969.369607" y="596.032125" style="stroke: #000000; stroke-width: 0.6"/>
      </g>
     </g>
    </g>
    <g id="text_5">
     <!-- Averaging Time τ [s] -->
     <g transform="translate(443.128458 626.588219) scale(0.13 -0.13)">
      <defs>
       <path id="DejaVuSans-Bold-41" d="M 3419 850 
L 1538 850 
L 1241 0 
L 31 0 
L 1759 4666 
L 3194 4666 
L 4922 0 
L 3713 0 
L 3419 850 
z
M 1838 1716 
L 3116 1716 
L 2478 3572 
L 1838 1716 
z
" transform="scale(0.015625)"/>
       <path id="DejaVuSans-Bold-76" d="M 97 3500 
L 1216 3500 
L 2088 1081 
L 2956 3500 
L 4078 3500 
L 2700 0 
L 1472 0 
L 97 3500 
z
" transform="scale(0.015625)"/>
       <path id="DejaVuSans-Bold-65" d="M 4031 1759 
L 4031 1441 
L 1416 1441 
Q 1456 1047 1700 850 
Q 1944 653 2381 653 
Q 2734 653 3104 758 
Q 3475 863 3866 1075 
L 3866 213 
Q 3469 63 3072 -14 
Q 2675 -91 2278 -91 
Q 1328 -91 801 392 
Q 275 875 275 1747 
Q 275 2603 792 3093 
Q 1309 3584 2216 3584 
Q 3041 3584 3536 3087 
Q 4031 2591 4031 1759 
z
M 2881 2131 
Q 2881 2450 2695 2645 
Q 2509 2841 2209 2841 
Q 1884 2841 1681 2658 
Q 1478 2475 1428 2131 
L 2881 2131 
z
" transform="scale(0.015625)"/>
       <path id="DejaVuSans-Bold-72" d="M 3138 2547 
Q 2991 2616 2845 2648 
Q 2700 2681 2553 2681 
Q 2122 2681 1889 2404 
Q 1656 2128 1656 1613 
L 1656 0 
L 538 0 
L 538 3500 
L 1656 3500 
L 1656 2925 
Q 1872 3269 2151 3426 
Q 2431 3584 2822 3584 
Q 2878 3584 2943 3579 
Q 3009 3575 3134 3559 
L 3138 2547 
z
" transform="scale(0.015625)"/>
       <path id="DejaVuSans-Bold-61" d="M 2106 1575 
Q 1756 1575 1579 1456 
Q 1403 1338 1403 1106 
Q 1403 894 1545 773 
Q 1688 653 1941 653 
Q 2256 653 2472 879 
Q 2688 1106 2688 1447 
L 2688 1575 
L 2106 1575 
z
M 3816 1997 
L 3816 0 
L 2688 0 
L 2688 519 
Q 2463 200 2181 54 
Q 1900 -91 1497 -91 
Q 953 -91 614 226 
Q 275 544 275 1050 
Q 275 1666 698 1953 
Q 1122 2241 2028 2241 
L 2688 2241 
L 2688 2328 
Q 2688 2594 2478 2717 
Q 2269 2841 1825 2841 
Q 1466 2841 1156 2769 
Q 847 2697 581 2553 
L 581 3406 
Q 941 3494 1303 3539 
Q 1666 3584 2028 3584 
Q 2975 3584 3395 3211 
Q 3816 2838 3816 1997 
z
" transform="scale(0.015625)"/>
       <path id="DejaVuSans-Bold-67" d="M 2919 594 
Q 2688 288 2409 144 
Q 2131 0 1766 0 
Q 1125 0 706 504 
Q 288 1009 288 1791 
Q 288 2575 706 3076 
Q 1125 3578 1766 3578 
Q 2131 3578 2409 3434 
Q 2688 3291 2919 2981 
L 2919 3500 
L 4044 3500 
L 4044 353 
Q 4044 -491 3511 -936 
Q 2978 -1381 1966 -1381 
Q 1638 -1381 1331 -1331 
Q 1025 -1281 716 -1178 
L 716 -306 
Q 1009 -475 1290 -558 
Q 1572 -641 1856 -641 
Q 2406 -641 2662 -400 
Q 2919 -159 2919 353 
L 2919 594 
z
M 2181 2772 
Q 1834 2772 1640 2515 
Q 1447 2259 1447 1791 
Q 1447 1309 1634 1061 
Q 1822 813 2181 813 
Q 2531 813 2725 1069 
Q 2919 1325 2919 1791 
Q 2919 2259 2725 2515 
Q 2531 2772 2181 2772 
z
" transform="scale(0.015625)"/>
       <path id="DejaVuSans-Bold-69" d="M 538 3500 
L 1656 3500 
L 1656 0 
L 538 0 
L 538 3500 
z
M 538 4863 
L 1656 4863 
L 1656 3950 
L 538 3950 
L 538 4863 
z
" transform="scale(0.015625)"/>
       <path id="DejaVuSans-Bold-6e" d="M 4056 2131 
L 4056 0 
L 2931 0 
L 2931 347 
L 2931 1631 
Q 2931 2084 2911 2256 
Q 2891 2428 2841 2509 
Q 2775 2619 2662 2680 
Q 2550 2741 2406 2741 
Q 2056 2741 1856 2470 
Q 1656 2200 1656 1722 
L 1656 0 
L 538 0 
L 538 3500 
L 1656 3500 
L 1656 2988 
Q 1909 3294 2193 3439 
Q 2478 3584 2822 3584 
Q 3428 3584 3742 3212 
Q 4056 2841 4056 2131 
z
" transform="scale(0.015625)"/>
       <path id="DejaVuSans-Bold-20" transform="scale(0.015625)"/>
       <path id="DejaVuSans-Bold-54" d="M 31 4666 
L 4331 4666 
L 4331 3756 
L 2784 3756 
L 2784 0 
L 1581 0 
L 1581 3756 
L 31 3756 
L 31 4666 
z
" transform="scale(0.015625)"/>
       <path id="DejaVuSans-Bold-6d" d="M 3781 2919 
Q 3994 3244 4286 3414 
Q 4578 3584 4928 3584 
Q 5531 3584 5847 3212 
Q 6163 2841 6163 2131 
L 6163 0 
L 5038 0 
L 5038 1825 
Q 5041 1866 5042 1909 
Q 5044 1953 5044 2034 
Q 5044 2406 4934 2573 
Q 4825 2741 4581 2741 
Q 4263 2741 4089 2478 
Q 3916 2216 3909 1719 
L 3909 0 
L 2784 0 
L 2784 1825 
Q 2784 2406 2684 2573 
Q 2584 2741 2328 2741 
Q 2006 2741 1831 2477 
Q 1656 2213 1656 1722 
L 1656 0 
L 531 0 
L 531 3500 
L 1656 3500 
L 1656 2988 
Q 1863 3284 2130 3434 
Q 2397 3584 2719 3584 
Q 3081 3584 3359 3409 
Q 3638 3234 3781 2919 
z
" transform="scale(0.015625)"/>
       <path id="DejaVuSans-Bold-3c4" d="M 134 2700 
L 134 3500 
L 3916 3500 
L 3916 2700 
L 2584 2700 
L 2584 1131 
Q 2584 731 2661 631 
Q 2738 531 2913 531 
Q 3091 531 3191 544 
L 3191 -44 
Q 2997 -122 2334 -122 
Q 2125 -122 1922 -63 
Q 1597 34 1506 319 
Q 1466 459 1466 728 
L 1466 2700 
L 134 2700 
z
" transform="scale(0.015625)"/>
       <path id="DejaVuSans-Bold-5b" d="M 550 4863 
L 2491 4863 
L 2491 4159 
L 1613 4159 
L 1613 -141 
L 2491 -141 
L 2491 -844 
L 550 -844 
L 550 4863 
z
" transform="scale(0.015625)"/>
       <path id="DejaVuSans-Bold-73" d="M 3272 3391 
L 3272 2541 
Q 2913 2691 2578 2766 
Q 2244 2841 1947 2841 
Q 1628 2841 1473 2761 
Q 1319 2681 1319 2516 
Q 1319 2381 1436 2309 
Q 1553 2238 1856 2203 
L 2053 2175 
Q 2913 2066 3209 1816 
Q 3506 1566 3506 1031 
Q 3506 472 3093 190 
Q 2681 -91 1863 -91 
Q 1516 -91 1145 -36 
Q 775 19 384 128 
L 384 978 
Q 719 816 1070 734 
Q 1422 653 1784 653 
Q 2113 653 2278 743 
Q 2444 834 2444 1013 
Q 2444 1163 2330 1236 
Q 2216 1309 1875 1350 
L 1678 1375 
Q 931 1469 631 1722 
Q 331 1975 331 2491 
Q 331 3047 712 3315 
Q 1094 3584 1881 3584 
Q 2191 3584 2531 3537 
Q 2872 3491 3272 3391 
z
" transform="scale(0.015625)"/>
       <path id="DejaVuSans-Bold-5d" d="M 2375 -844 
L 434 -844 
L 434 -141 
L 1313 -141 
L 1313 4159 
L 434 4159 
L 434 4863 
L 2375 4863 
L 2375 -844 
z
" transform="scale(0.015625)"/>
      </defs>
      <use xlink:href="#DejaVuSans-Bold-41"/>
      <use xlink:href="#DejaVuSans-Bold-76" x="73.767578"/>
      <use xlink:href="#DejaVuSans-Bold-65" x="138.953125"/>
      <use xlink:href="#DejaVuSans-Bold-72" x="206.775391"/>
      <use xlink:href="#DejaVuSans-Bold-61" x="256.091797"/>
      <use xlink:href="#DejaVuSans-Bold-67" x="323.572266"/>
      <use xlink:href="#DejaVuSans-Bold-69" x="395.154297"/>
      <use xlink:href="#DejaVuSans-Bold-6e" x="429.431641"/>
      <use xlink:href="#DejaVuSans-Bold-67" x="500.623047"/>
      <use xlink:href="#DejaVuSans-Bold-20" x="572.205078"/>
      <use xlink:href="#DejaVuSans-Bold-54" x="607.019531"/>
      <use xlink:href="#DejaVuSans-Bold-69" x="675.232422"/>
      <use xlink:href="#DejaVuSans-Bold-6d" x="709.509766"/>
      <use xlink:href="#DejaVuSans-Bold-65" x="813.708984"/>
      <use xlink:href="#DejaVuSans-Bold-20" x="881.53125"/>
      <use xlink:href="#DejaVuSans-Bold-3c4" x="916.345703"/>
      <use xlink:href="#DejaVuSans-Bold-20" x="980.164062"/>
      <use xlink:href="#DejaVuSans-Bold-5b" x="1014.978516"/>
      <use xlink:href="#DejaVuSans-Bold-73" x="1060.681641"/>
      <use xlink:href="#DejaVuSans-Bold-5d" x="1120.203125"/>
     </g>
    </g>
   </g>
   <g id="matplotlib.axis_2">
    <g id="ytick_1">
     <g id="line2d_57">
      <path d="M 54.281563 368.825133 
L 983.543166 368.825133 
" clip-path="url(#p8ef4664ea7)" style="fill: none; stroke-dasharray: 0.8,1.32; stroke-dashoffset: 0; stroke: #b0b0b0; stroke-opacity: 0.3; stroke-width: 0.8"/>
     </g>
     <g id="line2d_58">
      <defs>
       <path id="m227890dba8" d="M 0 0 
L -3.5 0 
" style="stroke: #000000; stroke-width: 0.8"/>
      </defs>
      <g>
       <use xlink:href="#m227890dba8" x="54.281563" y="368.825133" style="stroke: #000000; stroke-width: 0.8"/>
      </g>
     </g>
     <g id="text_6">
      <!-- $\mathdefault{10^{-5}}$ -->
      <g transform="translate(23.781563 372.624352) scale(0.1 -0.1)">
       <defs>
        <path id="DejaVuSans-2212" d="M 678 2272 
L 4684 2272 
L 4684 1741 
L 678 1741 
L 678 2272 
z
" transform="scale(0.015625)"/>
        <path id="DejaVuSans-35" d="M 691 4666 
L 3169 4666 
L 3169 4134 
L 1269 4134 
L 1269 2991 
Q 1406 3038 1543 3061 
Q 1681 3084 1819 3084 
Q 2600 3084 3056 2656 
Q 3513 2228 3513 1497 
Q 3513 744 3044 326 
Q 2575 -91 1722 -91 
Q 1428 -91 1123 -41 
Q 819 9 494 109 
L 494 744 
Q 775 591 1075 516 
Q 1375 441 1709 441 
Q 2250 441 2565 725 
Q 2881 1009 2881 1497 
Q 2881 1984 2565 2268 
Q 2250 2553 1709 2553 
Q 1456 2553 1204 2497 
Q 953 2441 691 2322 
L 691 4666 
z
" transform="scale(0.015625)"/>
       </defs>
       <use xlink:href="#DejaVuSans-31" transform="translate(0 0.684375)"/>
       <use xlink:href="#DejaVuSans-30" transform="translate(63.623047 0.684375)"/>
       <use xlink:href="#DejaVuSans-2212" transform="translate(128.203125 38.965625) scale(0.7)"/>
       <use xlink:href="#DejaVuSans-35" transform="translate(186.855469 38.965625) scale(0.7)"/>
      </g>
     </g>
    </g>
    <g id="ytick_2">
     <g id="line2d_59">
      <path d="M 54.281563 107.357745 
L 983.543166 107.357745 
" clip-path="url(#p8ef4664ea7)" style="fill: none; stroke-dasharray: 0.8,1.32; stroke-dashoffset: 0; stroke: #b0b0b0; stroke-opacity: 0.3; stroke-width: 0.8"/>
     </g>
     <g id="line2d_60">
      <g>
       <use xlink:href="#m227890dba8" x="54.281563" y="107.357745" style="stroke: #000000; stroke-width: 0.8"/>
      </g>
     </g>
     <g id="text_7">
      <!-- $\mathdefault{10^{-4}}$ -->
      <g transform="translate(23.781563 111.156963) scale(0.1 -0.1)">
       <defs>
        <path id="DejaVuSans-34" d="M 2419 4116 
L 825 1625 
L 2419 1625 
L 2419 4116 
z
M 2253 4666 
L 3047 4666 
L 3047 1625 
L 3713 1625 
L 3713 1100 
L 3047 1100 
L 3047 0 
L 2419 0 
L 2419 1100 
L 313 1100 
L 313 1709 
L 2253 4666 
z
" transform="scale(0.015625)"/>
       </defs>
       <use xlink:href="#DejaVuSans-31" transform="translate(0 0.684375)"/>
       <use xlink:href="#DejaVuSans-30" transform="translate(63.623047 0.684375)"/>
       <use xlink:href="#DejaVuSans-2212" transform="translate(128.203125 38.965625) scale(0.7)"/>
       <use xlink:href="#DejaVuSans-34" transform="translate(186.855469 38.965625) scale(0.7)"/>
      </g>
     </g>
    </g>
    <g id="ytick_3">
     <g id="line2d_61">
      <path d="M 54.281563 551.582994 
L 983.543166 551.582994 
" clip-path="url(#p8ef4664ea7)" style="fill: none; stroke-dasharray: 0.8,1.32; stroke-dashoffset: 0; stroke: #b0b0b0; stroke-opacity: 0.3; stroke-width: 0.8"/>
     </g>
     <g id="line2d_62">
      <defs>
       <path id="m328a88d804" d="M 0 0 
L -2 0 
" style="stroke: #000000; stroke-width: 0.6"/>
      </defs>
      <g>
       <use xlink:href="#m328a88d804" x="54.281563" y="551.582994" style="stroke: #000000; stroke-width: 0.6"/>
      </g>
     </g>
    </g>
    <g id="ytick_4">
     <g id="line2d_63">
      <path d="M 54.281563 505.540873 
L 983.543166 505.540873 
" clip-path="url(#p8ef4664ea7)" style="fill: none; stroke-dasharray: 0.8,1.32; stroke-dashoffset: 0; stroke: #b0b0b0; stroke-opacity: 0.3; stroke-width: 0.8"/>
     </g>
     <g id="line2d_64">
      <g>
       <use xlink:href="#m328a88d804" x="54.281563" y="505.540873" style="stroke: #000000; stroke-width: 0.6"/>
      </g>
     </g>
    </g>
    <g id="ytick_5">
     <g id="line2d_65">
      <path d="M 54.281563 472.873468 
L 983.543166 472.873468 
" clip-path="url(#p8ef4664ea7)" style="fill: none; stroke-dasharray: 0.8,1.32; stroke-dashoffset: 0; stroke: #b0b0b0; stroke-opacity: 0.3; stroke-width: 0.8"/>
     </g>
     <g id="line2d_66">
      <g>
       <use xlink:href="#m328a88d804" x="54.281563" y="472.873468" style="stroke: #000000; stroke-width: 0.6"/>
      </g>
     </g>
    </g>
    <g id="ytick_6">
     <g id="line2d_67">
      <path d="M 54.281563 447.53466 
L 983.543166 447.53466 
" clip-path="url(#p8ef4664ea7)" style="fill: none; stroke-dasharray: 0.8,1.32; stroke-dashoffset: 0; stroke: #b0b0b0; stroke-opacity: 0.3; stroke-width: 0.8"/>
     </g>
     <g id="line2d_68">
      <g>
       <use xlink:href="#m328a88d804" x="54.281563" y="447.53466" style="stroke: #000000; stroke-width: 0.6"/>
      </g>
     </g>
    </g>
    <g id="ytick_7">
     <g id="line2d_69">
      <path d="M 54.281563 426.831346 
L 983.543166 426.831346 
" clip-path="url(#p8ef4664ea7)" style="fill: none; stroke-dasharray: 0.8,1.32; stroke-dashoffset: 0; stroke: #b0b0b0; stroke-opacity: 0.3; stroke-width: 0.8"/>
     </g>
     <g id="line2d_70">
      <g>
       <use xlink:href="#m328a88d804" x="54.281563" y="426.831346" style="stroke: #000000; stroke-width: 0.6"/>
      </g>
     </g>
    </g>
    <g id="ytick_8">
     <g id="line2d_71">
      <path d="M 54.281563 409.326944 
L 983.543166 409.326944 
" clip-path="url(#p8ef4664ea7)" style="fill: none; stroke-dasharray: 0.8,1.32; stroke-dashoffset: 0; stroke: #b0b0b0; stroke-opacity: 0.3; stroke-width: 0.8"/>
     </g>
     <g id="line2d_72">
      <g>
       <use xlink:href="#m328a88d804" x="54.281563" y="409.326944" style="stroke: #000000; stroke-width: 0.6"/>
      </g>
     </g>
    </g>
    <g id="ytick_9">
     <g id="line2d_73">
      <path d="M 54.281563 394.163941 
L 983.543166 394.163941 
" clip-path="url(#p8ef4664ea7)" style="fill: none; stroke-dasharray: 0.8,1.32; stroke-dashoffset: 0; stroke: #b0b0b0; stroke-opacity: 0.3; stroke-width: 0.8"/>
     </g>
     <g id="line2d_74">
      <g>
       <use xlink:href="#m328a88d804" x="54.281563" y="394.163941" style="stroke: #000000; stroke-width: 0.6"/>
      </g>
     </g>
    </g>
    <g id="ytick_10">
     <g id="line2d_75">
      <path d="M 54.281563 380.789224 
L 983.543166 380.789224 
" clip-path="url(#p8ef4664ea7)" style="fill: none; stroke-dasharray: 0.8,1.32; stroke-dashoffset: 0; stroke: #b0b0b0; stroke-opacity: 0.3; stroke-width: 0.8"/>
     </g>
     <g id="line2d_76">
      <g>
       <use xlink:href="#m328a88d804" x="54.281563" y="380.789224" style="stroke: #000000; stroke-width: 0.6"/>
      </g>
     </g>
    </g>
    <g id="ytick_11">
     <g id="line2d_77">
      <path d="M 54.281563 290.115606 
L 983.543166 290.115606 
" clip-path="url(#p8ef4664ea7)" style="fill: none; stroke-dasharray: 0.8,1.32; stroke-dashoffset: 0; stroke: #b0b0b0; stroke-opacity: 0.3; stroke-width: 0.8"/>
     </g>
     <g id="line2d_78">
      <g>
       <use xlink:href="#m328a88d804" x="54.281563" y="290.115606" style="stroke: #000000; stroke-width: 0.6"/>
      </g>
     </g>
    </g>
    <g id="ytick_12">
     <g id="line2d_79">
      <path d="M 54.281563 244.073485 
L 983.543166 244.073485 
" clip-path="url(#p8ef4664ea7)" style="fill: none; stroke-dasharray: 0.8,1.32; stroke-dashoffset: 0; stroke: #b0b0b0; stroke-opacity: 0.3; stroke-width: 0.8"/>
     </g>
     <g id="line2d_80">
      <g>
       <use xlink:href="#m328a88d804" x="54.281563" y="244.073485" style="stroke: #000000; stroke-width: 0.6"/>
      </g>
     </g>
    </g>
    <g id="ytick_13">
     <g id="line2d_81">
      <path d="M 54.281563 211.406079 
L 983.543166 211.406079 
" clip-path="url(#p8ef4664ea7)" style="fill: none; stroke-dasharray: 0.8,1.32; stroke-dashoffset: 0; stroke: #b0b0b0; stroke-opacity: 0.3; stroke-width: 0.8"/>
     </g>
     <g id="line2d_82">
      <g>
       <use xlink:href="#m328a88d804" x="54.281563" y="211.406079" style="stroke: #000000; stroke-width: 0.6"/>
      </g>
     </g>
    </g>
    <g id="ytick_14">
     <g id="line2d_83">
      <path d="M 54.281563 186.067271 
L 983.543166 186.067271 
" clip-path="url(#p8ef4664ea7)" style="fill: none; stroke-dasharray: 0.8,1.32; stroke-dashoffset: 0; stroke: #b0b0b0; stroke-opacity: 0.3; stroke-width: 0.8"/>
     </g>
     <g id="line2d_84">
      <g>
       <use xlink:href="#m328a88d804" x="54.281563" y="186.067271" style="stroke: #000000; stroke-width: 0.6"/>
      </g>
     </g>
    </g>
    <g id="ytick_15">
     <g id="line2d_85">
      <path d="M 54.281563 165.363958 
L 983.543166 165.363958 
" clip-path="url(#p8ef4664ea7)" style="fill: none; stroke-dasharray: 0.8,1.32; stroke-dashoffset: 0; stroke: #b0b0b0; stroke-opacity: 0.3; stroke-width: 0.8"/>
     </g>
     <g id="line2d_86">
      <g>
       <use xlink:href="#m328a88d804" x="54.281563" y="165.363958" style="stroke: #000000; stroke-width: 0.6"/>
      </g>
     </g>
    </g>
    <g id="ytick_16">
     <g id="line2d_87">
      <path d="M 54.281563 147.859556 
L 983.543166 147.859556 
" clip-path="url(#p8ef4664ea7)" style="fill: none; stroke-dasharray: 0.8,1.32; stroke-dashoffset: 0; stroke: #b0b0b0; stroke-opacity: 0.3; stroke-width: 0.8"/>
     </g>
     <g id="line2d_88">
      <g>
       <use xlink:href="#m328a88d804" x="54.281563" y="147.859556" style="stroke: #000000; stroke-width: 0.6"/>
      </g>
     </g>
    </g>
    <g id="ytick_17">
     <g id="line2d_89">
      <path d="M 54.281563 132.696553 
L 983.543166 132.696553 
" clip-path="url(#p8ef4664ea7)" style="fill: none; stroke-dasharray: 0.8,1.32; stroke-dashoffset: 0; stroke: #b0b0b0; stroke-opacity: 0.3; stroke-width: 0.8"/>
     </g>
     <g id="line2d_90">
      <g>
       <use xlink:href="#m328a88d804" x="54.281563" y="132.696553" style="stroke: #000000; stroke-width: 0.6"/>
      </g>
     </g>
    </g>
    <g id="ytick_18">
     <g id="line2d_91">
      <path d="M 54.281563 119.321836 
L 983.543166 119.321836 
" clip-path="url(#p8ef4664ea7)" style="fill: none; stroke-dasharray: 0.8,1.32; stroke-dashoffset: 0; stroke: #b0b0b0; stroke-opacity: 0.3; stroke-width: 0.8"/>
     </g>
     <g id="line2d_92">
      <g>
       <use xlink:href="#m328a88d804" x="54.281563" y="119.321836" style="stroke: #000000; stroke-width: 0.6"/>
      </g>
     </g>
    </g>
    <g id="text_8">
     <!-- Allan Deviation [rad/s] or [m/s²] -->
     <g transform="translate(17.077969 434.369062) rotate(-90) scale(0.13 -0.13)">
      <defs>
       <path id="DejaVuSans-Bold-6c" d="M 538 4863 
L 1656 4863 
L 1656 0 
L 538 0 
L 538 4863 
z
" transform="scale(0.015625)"/>
       <path id="DejaVuSans-Bold-44" d="M 1791 3756 
L 1791 909 
L 2222 909 
Q 2959 909 3348 1275 
Q 3738 1641 3738 2338 
Q 3738 3031 3350 3393 
Q 2963 3756 2222 3756 
L 1791 3756 
z
M 588 4666 
L 1856 4666 
Q 2919 4666 3439 4514 
Q 3959 4363 4331 4000 
Q 4659 3684 4818 3271 
Q 4978 2859 4978 2338 
Q 4978 1809 4818 1395 
Q 4659 981 4331 666 
Q 3956 303 3431 151 
Q 2906 0 1856 0 
L 588 0 
L 588 4666 
z
" transform="scale(0.015625)"/>
       <path id="DejaVuSans-Bold-74" d="M 1759 4494 
L 1759 3500 
L 2913 3500 
L 2913 2700 
L 1759 2700 
L 1759 1216 
Q 1759 972 1856 886 
Q 1953 800 2241 800 
L 2816 800 
L 2816 0 
L 1856 0 
Q 1194 0 917 276 
Q 641 553 641 1216 
L 641 2700 
L 84 2700 
L 84 3500 
L 641 3500 
L 641 4494 
L 1759 4494 
z
" transform="scale(0.015625)"/>
       <path id="DejaVuSans-Bold-6f" d="M 2203 2784 
Q 1831 2784 1636 2517 
Q 1441 2250 1441 1747 
Q 1441 1244 1636 976 
Q 1831 709 2203 709 
Q 2569 709 2762 976 
Q 2956 1244 2956 1747 
Q 2956 2250 2762 2517 
Q 2569 2784 2203 2784 
z
M 2203 3584 
Q 3106 3584 3614 3096 
Q 4122 2609 4122 1747 
Q 4122 884 3614 396 
Q 3106 -91 2203 -91 
Q 1297 -91 786 396 
Q 275 884 275 1747 
Q 275 2609 786 3096 
Q 1297 3584 2203 3584 
z
" transform="scale(0.015625)"/>
       <path id="DejaVuSans-Bold-64" d="M 2919 2988 
L 2919 4863 
L 4044 4863 
L 4044 0 
L 2919 0 
L 2919 506 
Q 2688 197 2409 53 
Q 2131 -91 1766 -91 
Q 1119 -91 703 423 
Q 288 938 288 1747 
Q 288 2556 703 3070 
Q 1119 3584 1766 3584 
Q 2128 3584 2408 3439 
Q 2688 3294 2919 2988 
z
M 2181 722 
Q 2541 722 2730 984 
Q 2919 1247 2919 1747 
Q 2919 2247 2730 2509 
Q 2541 2772 2181 2772 
Q 1825 2772 1636 2509 
Q 1447 2247 1447 1747 
Q 1447 1247 1636 984 
Q 1825 722 2181 722 
z
" transform="scale(0.015625)"/>
       <path id="DejaVuSans-Bold-2f" d="M 1644 4666 
L 2338 4666 
L 691 -594 
L 0 -594 
L 1644 4666 
z
" transform="scale(0.015625)"/>
       <path id="DejaVuSans-Bold-b2" d="M 1288 2613 
L 2444 2613 
L 2444 2088 
L 341 2088 
L 341 2566 
L 1319 3397 
Q 1509 3563 1590 3688 
Q 1672 3813 1672 3938 
Q 1672 4094 1558 4191 
Q 1444 4288 1259 4288 
Q 1066 4288 844 4217 
Q 622 4147 359 4000 
L 359 4581 
Q 631 4666 886 4708 
Q 1141 4750 1375 4750 
Q 1869 4750 2150 4548 
Q 2431 4347 2431 4000 
Q 2431 3775 2320 3586 
Q 2209 3397 1894 3128 
L 1288 2613 
z
" transform="scale(0.015625)"/>
      </defs>
      <use xlink:href="#DejaVuSans-Bold-41"/>
      <use xlink:href="#DejaVuSans-Bold-6c" x="77.392578"/>
      <use xlink:href="#DejaVuSans-Bold-6c" x="111.669922"/>
      <use xlink:href="#DejaVuSans-Bold-61" x="145.947266"/>
      <use xlink:href="#DejaVuSans-Bold-6e" x="213.427734"/>
      <use xlink:href="#DejaVuSans-Bold-20" x="284.619141"/>
      <use xlink:href="#DejaVuSans-Bold-44" x="319.433594"/>
      <use xlink:href="#DejaVuSans-Bold-65" x="402.441406"/>
      <use xlink:href="#DejaVuSans-Bold-76" x="470.263672"/>
      <use xlink:href="#DejaVuSans-Bold-69" x="535.449219"/>
      <use xlink:href="#DejaVuSans-Bold-61" x="569.726562"/>
      <use xlink:href="#DejaVuSans-Bold-74" x="637.207031"/>
      <use xlink:href="#DejaVuSans-Bold-69" x="685.009766"/>
      <use xlink:href="#DejaVuSans-Bold-6f" x="719.287109"/>
      <use xlink:href="#DejaVuSans-Bold-6e" x="787.988281"/>
      <use xlink:href="#DejaVuSans-Bold-20" x="859.179688"/>
      <use xlink:href="#DejaVuSans-Bold-5b" x="893.994141"/>
      <use xlink:href="#DejaVuSans-Bold-72" x="939.697266"/>
      <use xlink:href="#DejaVuSans-Bold-61" x="989.013672"/>
      <use xlink:href="#DejaVuSans-Bold-64" x="1056.494141"/>
      <use xlink:href="#DejaVuSans-Bold-2f" x="1128.076172"/>
      <use xlink:href="#DejaVuSans-Bold-73" x="1164.599609"/>
      <use xlink:href="#DejaVuSans-Bold-5d" x="1224.121094"/>
      <use xlink:href="#DejaVuSans-Bold-20" x="1269.824219"/>
      <use xlink:href="#DejaVuSans-Bold-6f" x="1304.638672"/>
      <use xlink:href="#DejaVuSans-Bold-72" x="1373.339844"/>
      <use xlink:href="#DejaVuSans-Bold-20" x="1422.65625"/>
      <use xlink:href="#DejaVuSans-Bold-5b" x="1457.470703"/>
      <use xlink:href="#DejaVuSans-Bold-6d" x="1503.173828"/>
      <use xlink:href="#DejaVuSans-Bold-2f" x="1607.373047"/>
      <use xlink:href="#DejaVuSans-Bold-73" x="1643.896484"/>
      <use xlink:href="#DejaVuSans-Bold-b2" x="1703.417969"/>
      <use xlink:href="#DejaVuSans-Bold-5d" x="1747.216797"/>
     </g>
    </g>
   </g>
   <g id="line2d_93">
    <path d="M 54.281563 64.915398 
L 73.246085 72.320103 
L 92.210608 80.441982 
L 111.17513 88.265764 
L 130.139653 96.056519 
L 149.104175 104.141752 
L 168.068698 112.633414 
L 187.03322 120.420318 
L 205.997743 128.733339 
L 224.962265 137.096134 
L 243.926788 144.71589 
L 262.89131 152.596537 
L 281.855833 160.940533 
L 300.820355 169.088918 
L 319.784878 177.51016 
L 338.7494 186.241117 
L 357.713923 194.875207 
L 376.678445 203.356353 
L 395.642968 212.061953 
L 414.60749 221.047186 
L 433.572013 230.300025 
L 452.536536 240.390679 
L 471.501058 249.471813 
L 490.465581 257.292785 
L 509.430103 264.427873 
L 528.394626 271.163658 
L 547.359148 276.108861 
L 566.323671 281.322998 
L 585.288193 286.22194 
L 604.252716 291.676263 
L 623.217238 298.147053 
L 642.181761 305.613817 
L 661.146283 314.753704 
L 680.110806 323.561929 
L 699.075328 334.193173 
L 718.039851 343.518519 
L 737.004373 353.016636 
L 755.968896 360.642654 
L 774.933418 373.061273 
L 793.897941 384.147184 
L 812.862463 391.79225 
L 831.826986 395.851839 
L 850.791509 401.720262 
L 869.756031 406.492768 
L 888.720554 413.652746 
L 907.685076 427.73168 
L 926.649599 457.561539 
L 945.614121 492.555317 
L 964.578644 520.233426 
L 983.543166 522.145837 
" clip-path="url(#p8ef4664ea7)" style="fill: none; stroke: #0000ff; stroke-opacity: 0.8; stroke-width: 2; stroke-linecap: square"/>
   </g>
   <g id="line2d_94">
    <path d="M 371.12221 202.052049 
L 666.702518 326.803697 
" clip-path="url(#p8ef4664ea7)" style="fill: none; stroke-dasharray: 3.7,1.6; stroke-dashoffset: 0; stroke: #0000ff; stroke-opacity: 0.4"/>
   </g>
   <g id="line2d_95">
    <path d="M 54.281563 172.635103 
L 73.246085 172.618853 
L 92.210608 172.539771 
L 111.17513 172.394955 
L 130.139653 172.167335 
L 149.104175 171.963012 
L 168.068698 171.845859 
L 187.03322 171.884698 
L 205.997743 172.141302 
L 224.962265 172.66994 
L 243.926788 173.355871 
L 262.89131 173.914965 
L 281.855833 174.379141 
L 300.820355 174.816033 
L 319.784878 175.129141 
L 338.7494 175.302898 
L 357.713923 175.553622 
L 376.678445 175.72062 
L 395.642968 175.720821 
L 414.60749 175.835373 
L 433.572013 176.123055 
L 452.536536 176.686282 
L 471.501058 177.393563 
L 490.465581 178.704756 
L 509.430103 180.58096 
L 528.394626 182.248135 
L 547.359148 183.712387 
L 566.323671 185.590654 
L 585.288193 186.592301 
L 604.252716 186.322558 
L 623.217238 186.076629 
L 642.181761 185.31967 
L 661.146283 184.35866 
L 680.110806 183.598245 
L 699.075328 182.753872 
L 718.039851 181.334034 
L 737.004373 179.492534 
L 755.968896 177.873004 
L 774.933418 177.388732 
L 793.897941 178.690669 
L 812.862463 181.559303 
L 831.826986 186.116961 
L 850.791509 189.857236 
L 869.756031 190.68467 
L 888.720554 188.987133 
L 907.685076 187.741422 
L 926.649599 187.425272 
L 945.614121 194.710203 
L 964.578644 209.200262 
L 983.543166 236.066911 
" clip-path="url(#p8ef4664ea7)" style="fill: none; stroke: #008000; stroke-opacity: 0.8; stroke-width: 2; stroke-linecap: square"/>
   </g>
   <g id="line2d_96">
    <path d="M 371.12221 180.58096 
L 666.702518 180.58096 
" clip-path="url(#p8ef4664ea7)" style="fill: none; stroke-dasharray: 3.7,1.6; stroke-dashoffset: 0; stroke: #008000; stroke-opacity: 0.4"/>
   </g>
   <g id="line2d_97">
    <path d="M 54.281563 570.740852 
L 73.246085 562.578597 
L 92.210608 554.013473 
L 111.17513 545.674063 
L 130.139653 537.270131 
L 149.104175 528.968783 
L 168.068698 520.350813 
L 187.03322 511.937233 
L 205.997743 503.453136 
L 224.962265 495.079918 
L 243.926788 486.937914 
L 262.89131 478.753806 
L 281.855833 470.609266 
L 300.820355 462.626553 
L 319.784878 454.641764 
L 338.7494 446.7319 
L 357.713923 438.939291 
L 376.678445 431.218234 
L 395.642968 423.762522 
L 414.60749 416.589215 
L 433.572013 409.577063 
L 452.536536 402.661978 
L 471.501058 395.849223 
L 490.465581 389.144353 
L 509.430103 382.601571 
L 528.394626 376.11271 
L 547.359148 369.326953 
L 566.323671 361.841227 
L 585.288193 353.57834 
L 604.252716 344.942127 
L 623.217238 336.517214 
L 642.181761 328.547653 
L 661.146283 321.030137 
L 680.110806 314.041594 
L 699.075328 307.27013 
L 718.039851 300.394198 
L 737.004373 293.163174 
L 755.968896 285.49918 
L 774.933418 276.665927 
L 793.897941 267.031179 
L 812.862463 257.086488 
L 831.826986 246.777297 
L 850.791509 235.918182 
L 869.756031 225.055413 
L 888.720554 214.212793 
L 907.685076 204.255165 
L 926.649599 197.35851 
L 945.614121 196.580674 
L 964.578644 202.425469 
L 983.543166 216.908187 
" clip-path="url(#p8ef4664ea7)" style="fill: none; stroke: #ff0000; stroke-opacity: 0.8; stroke-width: 2; stroke-linecap: square"/>
   </g>
   <g id="line2d_98">
    <path d="M 371.12221 444.977396 
L 666.702518 320.225747 
" clip-path="url(#p8ef4664ea7)" style="fill: none; stroke-dasharray: 3.7,1.6; stroke-dashoffset: 0; stroke: #ff0000; stroke-opacity: 0.4"/>
   </g>
   <g id="patch_3">
    <path d="M 54.281563 596.032125 
L 54.281563 39.624125 
" style="fill: none; stroke: #000000; stroke-width: 0.8; stroke-linejoin: miter; stroke-linecap: square"/>
   </g>
   <g id="patch_4">
    <path d="M 983.543166 596.032125 
L 983.543166 39.624125 
" style="fill: none; stroke: #000000; stroke-width: 0.8; stroke-linejoin: miter; stroke-linecap: square"/>
   </g>
   <g id="patch_5">
    <path d="M 54.281563 596.032125 
L 983.543166 596.032125 
" style="fill: none; stroke: #000000; stroke-width: 0.8; stroke-linejoin: miter; stroke-linecap: square"/>
   </g>
   <g id="patch_6">
    <path d="M 54.281563 39.624125 
L 983.543166 39.624125 
" style="fill: none; stroke: #000000; stroke-width: 0.8; stroke-linejoin: miter; stroke-linecap: square"/>
   </g>
   <g id="text_9">
    <!-- slope = -0.5 -->
    <g style="fill: #0000ff" transform="translate(573.457313 243.724559) scale(0.09 -0.09)">
     <defs>
      <path id="DejaVuSans-Oblique-73" d="M 3200 3397 
L 3091 2853 
Q 2863 2978 2609 3040 
Q 2356 3103 2088 3103 
Q 1634 3103 1373 2948 
Q 1113 2794 1113 2528 
Q 1113 2219 1719 2053 
Q 1766 2041 1788 2034 
L 1972 1978 
Q 2547 1819 2739 1644 
Q 2931 1469 2931 1166 
Q 2931 609 2489 259 
Q 2047 -91 1331 -91 
Q 1053 -91 747 -37 
Q 441 16 72 128 
L 184 722 
Q 500 559 806 475 
Q 1113 391 1394 391 
Q 1816 391 2080 572 
Q 2344 753 2344 1031 
Q 2344 1331 1650 1516 
L 1591 1531 
L 1394 1581 
Q 956 1697 753 1886 
Q 550 2075 550 2369 
Q 550 2928 970 3256 
Q 1391 3584 2113 3584 
Q 2397 3584 2667 3537 
Q 2938 3491 3200 3397 
z
" transform="scale(0.015625)"/>
      <path id="DejaVuSans-Oblique-6c" d="M 1172 4863 
L 1747 4863 
L 800 0 
L 225 0 
L 1172 4863 
z
" transform="scale(0.015625)"/>
      <path id="DejaVuSans-Oblique-6f" d="M 1625 -91 
Q 1009 -91 651 289 
Q 294 669 294 1325 
Q 294 1706 417 2101 
Q 541 2497 738 2766 
Q 1047 3184 1428 3384 
Q 1809 3584 2291 3584 
Q 2888 3584 3255 3212 
Q 3622 2841 3622 2241 
Q 3622 1825 3500 1412 
Q 3378 1000 3181 728 
Q 2875 309 2494 109 
Q 2113 -91 1625 -91 
z
M 891 1344 
Q 891 869 1089 633 
Q 1288 397 1691 397 
Q 2269 397 2648 901 
Q 3028 1406 3028 2181 
Q 3028 2634 2825 2865 
Q 2622 3097 2228 3097 
Q 1903 3097 1650 2945 
Q 1397 2794 1197 2484 
Q 1050 2253 970 1956 
Q 891 1659 891 1344 
z
" transform="scale(0.015625)"/>
      <path id="DejaVuSans-Oblique-70" d="M 3175 2156 
Q 3175 2616 2975 2859 
Q 2775 3103 2400 3103 
Q 2144 3103 1911 2972 
Q 1678 2841 1497 2591 
Q 1319 2344 1212 1994 
Q 1106 1644 1106 1300 
Q 1106 863 1306 627 
Q 1506 391 1875 391 
Q 2147 391 2380 519 
Q 2613 647 2778 891 
Q 2956 1147 3065 1494 
Q 3175 1841 3175 2156 
z
M 1394 2969 
Q 1625 3272 1939 3428 
Q 2253 3584 2638 3584 
Q 3175 3584 3472 3232 
Q 3769 2881 3769 2247 
Q 3769 1728 3584 1258 
Q 3400 788 3053 416 
Q 2822 169 2531 39 
Q 2241 -91 1919 -91 
Q 1547 -91 1294 64 
Q 1041 219 916 525 
L 556 -1331 
L -19 -1331 
L 922 3500 
L 1497 3500 
L 1394 2969 
z
" transform="scale(0.015625)"/>
      <path id="DejaVuSans-Oblique-65" d="M 3078 2063 
Q 3088 2113 3092 2166 
Q 3097 2219 3097 2272 
Q 3097 2653 2873 2875 
Q 2650 3097 2266 3097 
Q 1838 3097 1509 2826 
Q 1181 2556 1013 2059 
L 3078 2063 
z
M 3578 1613 
L 903 1613 
Q 884 1494 878 1425 
Q 872 1356 872 1306 
Q 872 872 1139 634 
Q 1406 397 1894 397 
Q 2269 397 2603 481 
Q 2938 566 3225 728 
L 3116 159 
Q 2806 34 2476 -28 
Q 2147 -91 1806 -91 
Q 1078 -91 686 257 
Q 294 606 294 1247 
Q 294 1794 489 2264 
Q 684 2734 1063 3103 
Q 1306 3334 1642 3459 
Q 1978 3584 2356 3584 
Q 2950 3584 3301 3228 
Q 3653 2872 3653 2272 
Q 3653 2128 3634 1964 
Q 3616 1800 3578 1613 
z
" transform="scale(0.015625)"/>
      <path id="DejaVuSans-Oblique-20" transform="scale(0.015625)"/>
      <path id="DejaVuSans-Oblique-3d" d="M 678 2906 
L 4684 2906 
L 4684 2381 
L 678 2381 
L 678 2906 
z
M 678 1631 
L 4684 1631 
L 4684 1100 
L 678 1100 
L 678 1631 
z
" transform="scale(0.015625)"/>
      <path id="DejaVuSans-Oblique-2d" d="M 391 2009 
L 2075 2009 
L 1978 1497 
L 288 1497 
L 391 2009 
z
" transform="scale(0.015625)"/>
      <path id="DejaVuSans-Oblique-30" d="M 2444 4750 
Q 3078 4750 3414 4328 
Q 3750 3906 3750 3116 
Q 3750 2516 3592 1923 
Q 3434 1331 3150 863 
Q 2859 394 2467 151 
Q 2075 -91 1600 -91 
Q 988 -91 653 334 
Q 319 759 319 1544 
Q 319 2138 480 2733 
Q 641 3328 928 3794 
Q 1216 4263 1602 4506 
Q 1988 4750 2444 4750 
z
M 2406 4250 
Q 2169 4250 1955 4123 
Q 1741 3997 1569 3750 
Q 1281 3338 1111 2720 
Q 941 2103 941 1453 
Q 941 938 1123 673 
Q 1306 409 1663 409 
Q 1913 409 2125 536 
Q 2338 663 2509 909 
Q 2794 1319 2961 1936 
Q 3128 2553 3128 3206 
Q 3128 3722 2945 3986 
Q 2763 4250 2406 4250 
z
" transform="scale(0.015625)"/>
      <path id="DejaVuSans-Oblique-2e" d="M 525 794 
L 1184 794 
L 1031 0 
L 372 0 
L 525 794 
z
" transform="scale(0.015625)"/>
      <path id="DejaVuSans-Oblique-35" d="M 3719 4666 
L 3622 4141 
L 1691 4141 
L 1466 2988 
Q 1609 3034 1757 3056 
Q 1906 3078 2059 3078 
Q 2706 3078 3081 2731 
Q 3456 2384 3456 1791 
Q 3456 1375 3264 994 
Q 3072 613 2719 325 
Q 2469 125 2108 17 
Q 1747 -91 1319 -91 
Q 1038 -91 744 -41 
Q 450 9 128 109 
L 244 697 
Q 531 556 820 486 
Q 1109 416 1403 416 
Q 2013 416 2411 781 
Q 2809 1147 2809 1697 
Q 2809 2103 2548 2328 
Q 2288 2553 1819 2553 
Q 1572 2553 1305 2495 
Q 1038 2438 756 2322 
L 1209 4666 
L 3719 4666 
z
" transform="scale(0.015625)"/>
     </defs>
     <use xlink:href="#DejaVuSans-Oblique-73"/>
     <use xlink:href="#DejaVuSans-Oblique-6c" x="52.099609"/>
     <use xlink:href="#DejaVuSans-Oblique-6f" x="79.882812"/>
     <use xlink:href="#DejaVuSans-Oblique-70" x="141.064453"/>
     <use xlink:href="#DejaVuSans-Oblique-65" x="204.541016"/>
     <use xlink:href="#DejaVuSans-Oblique-20" x="266.064453"/>
     <use xlink:href="#DejaVuSans-Oblique-3d" x="297.851562"/>
     <use xlink:href="#DejaVuSans-Oblique-20" x="381.640625"/>
     <use xlink:href="#DejaVuSans-Oblique-2d" x="413.427734"/>
     <use xlink:href="#DejaVuSans-Oblique-30" x="449.511719"/>
     <use xlink:href="#DejaVuSans-Oblique-2e" x="513.134766"/>
     <use xlink:href="#DejaVuSans-Oblique-35" x="544.921875"/>
    </g>
   </g>
   <g id="text_10">
    <!-- slope = +0.0 -->
    <g style="fill: #008000" transform="translate(573.457313 159.877646) scale(0.09 -0.09)">
     <defs>
      <path id="DejaVuSans-Oblique-2b" d="M 2944 4013 
L 2944 2272 
L 4684 2272 
L 4684 1741 
L 2944 1741 
L 2944 0 
L 2419 0 
L 2419 1741 
L 678 1741 
L 678 2272 
L 2419 2272 
L 2419 4013 
L 2944 4013 
z
" transform="scale(0.015625)"/>
     </defs>
     <use xlink:href="#DejaVuSans-Oblique-73"/>
     <use xlink:href="#DejaVuSans-Oblique-6c" x="52.099609"/>
     <use xlink:href="#DejaVuSans-Oblique-6f" x="79.882812"/>
     <use xlink:href="#DejaVuSans-Oblique-70" x="141.064453"/>
     <use xlink:href="#DejaVuSans-Oblique-65" x="204.541016"/>
     <use xlink:href="#DejaVuSans-Oblique-20" x="266.064453"/>
     <use xlink:href="#DejaVuSans-Oblique-3d" x="297.851562"/>
     <use xlink:href="#DejaVuSans-Oblique-20" x="381.640625"/>
     <use xlink:href="#DejaVuSans-Oblique-2b" x="413.427734"/>
     <use xlink:href="#DejaVuSans-Oblique-30" x="497.216797"/>
     <use xlink:href="#DejaVuSans-Oblique-2e" x="560.839844"/>
     <use xlink:href="#DejaVuSans-Oblique-30" x="592.626953"/>
    </g>
   </g>
   <g id="text_11">
    <!-- slope = +0.5 -->
    <g style="fill: #ff0000" transform="translate(573.457313 361.898258) scale(0.09 -0.09)">
     <use xlink:href="#DejaVuSans-Oblique-73"/>
     <use xlink:href="#DejaVuSans-Oblique-6c" x="52.099609"/>
     <use xlink:href="#DejaVuSans-Oblique-6f" x="79.882812"/>
     <use xlink:href="#DejaVuSans-Oblique-70" x="141.064453"/>
     <use xlink:href="#DejaVuSans-Oblique-65" x="204.541016"/>
     <use xlink:href="#DejaVuSans-Oblique-20" x="266.064453"/>
     <use xlink:href="#DejaVuSans-Oblique-3d" x="297.851562"/>
     <use xlink:href="#DejaVuSans-Oblique-20" x="381.640625"/>
     <use xlink:href="#DejaVuSans-Oblique-2b" x="413.427734"/>
     <use xlink:href="#DejaVuSans-Oblique-30" x="497.216797"/>
     <use xlink:href="#DejaVuSans-Oblique-2e" x="560.839844"/>
     <use xlink:href="#DejaVuSans-Oblique-35" x="592.626953"/>
    </g>
   </g>
   <g id="text_12">
    <!-- Allan Variance Component Analysis: Consumer Gyroscope -->
    <g transform="translate(290.827208 17.837813) scale(0.14 -0.14)">
     <defs>
      <path id="DejaVuSans-Bold-56" d="M 31 4666 
L 1241 4666 
L 2478 1222 
L 3713 4666 
L 4922 4666 
L 3194 0 
L 1759 0 
L 31 4666 
z
" transform="scale(0.015625)"/>
      <path id="DejaVuSans-Bold-63" d="M 3366 3391 
L 3366 2478 
Q 3138 2634 2908 2709 
Q 2678 2784 2431 2784 
Q 1963 2784 1702 2511 
Q 1441 2238 1441 1747 
Q 1441 1256 1702 982 
Q 1963 709 2431 709 
Q 2694 709 2930 787 
Q 3166 866 3366 1019 
L 3366 103 
Q 3103 6 2833 -42 
Q 2563 -91 2291 -91 
Q 1344 -91 809 395 
Q 275 881 275 1747 
Q 275 2613 809 3098 
Q 1344 3584 2291 3584 
Q 2566 3584 2833 3536 
Q 3100 3488 3366 3391 
z
" transform="scale(0.015625)"/>
      <path id="DejaVuSans-Bold-43" d="M 4288 256 
Q 3956 84 3597 -3 
Q 3238 -91 2847 -91 
Q 1681 -91 1000 561 
Q 319 1213 319 2328 
Q 319 3447 1000 4098 
Q 1681 4750 2847 4750 
Q 3238 4750 3597 4662 
Q 3956 4575 4288 4403 
L 4288 3438 
Q 3953 3666 3628 3772 
Q 3303 3878 2944 3878 
Q 2300 3878 1931 3465 
Q 1563 3053 1563 2328 
Q 1563 1606 1931 1193 
Q 2300 781 2944 781 
Q 3303 781 3628 887 
Q 3953 994 4288 1222 
L 4288 256 
z
" transform="scale(0.015625)"/>
      <path id="DejaVuSans-Bold-70" d="M 1656 506 
L 1656 -1331 
L 538 -1331 
L 538 3500 
L 1656 3500 
L 1656 2988 
Q 1888 3294 2169 3439 
Q 2450 3584 2816 3584 
Q 3463 3584 3878 3070 
Q 4294 2556 4294 1747 
Q 4294 938 3878 423 
Q 3463 -91 2816 -91 
Q 2450 -91 2169 54 
Q 1888 200 1656 506 
z
M 2400 2772 
Q 2041 2772 1848 2508 
Q 1656 2244 1656 1747 
Q 1656 1250 1848 986 
Q 2041 722 2400 722 
Q 2759 722 2948 984 
Q 3138 1247 3138 1747 
Q 3138 2247 2948 2509 
Q 2759 2772 2400 2772 
z
" transform="scale(0.015625)"/>
      <path id="DejaVuSans-Bold-79" d="M 78 3500 
L 1197 3500 
L 2138 1125 
L 2938 3500 
L 4056 3500 
L 2584 -331 
Q 2363 -916 2067 -1148 
Q 1772 -1381 1288 -1381 
L 641 -1381 
L 641 -647 
L 991 -647 
Q 1275 -647 1404 -556 
Q 1534 -466 1606 -231 
L 1638 -134 
L 78 3500 
z
" transform="scale(0.015625)"/>
      <path id="DejaVuSans-Bold-3a" d="M 716 3500 
L 1844 3500 
L 1844 2291 
L 716 2291 
L 716 3500 
z
M 716 1209 
L 1844 1209 
L 1844 0 
L 716 0 
L 716 1209 
z
" transform="scale(0.015625)"/>
      <path id="DejaVuSans-Bold-75" d="M 500 1363 
L 500 3500 
L 1625 3500 
L 1625 3150 
Q 1625 2866 1622 2436 
Q 1619 2006 1619 1863 
Q 1619 1441 1641 1255 
Q 1663 1069 1716 984 
Q 1784 875 1895 815 
Q 2006 756 2150 756 
Q 2500 756 2700 1025 
Q 2900 1294 2900 1772 
L 2900 3500 
L 4019 3500 
L 4019 0 
L 2900 0 
L 2900 506 
Q 2647 200 2364 54 
Q 2081 -91 1741 -91 
Q 1134 -91 817 281 
Q 500 653 500 1363 
z
" transform="scale(0.015625)"/>
      <path id="DejaVuSans-Bold-47" d="M 4781 347 
Q 4331 128 3847 18 
Q 3363 -91 2847 -91 
Q 1681 -91 1000 561 
Q 319 1213 319 2328 
Q 319 3456 1012 4103 
Q 1706 4750 2913 4750 
Q 3378 4750 3804 4662 
Q 4231 4575 4609 4403 
L 4609 3438 
Q 4219 3659 3833 3768 
Q 3447 3878 3059 3878 
Q 2341 3878 1952 3476 
Q 1563 3075 1563 2328 
Q 1563 1588 1938 1184 
Q 2313 781 3003 781 
Q 3191 781 3352 804 
Q 3513 828 3641 878 
L 3641 1784 
L 2906 1784 
L 2906 2591 
L 4781 2591 
L 4781 347 
z
" transform="scale(0.015625)"/>
     </defs>
     <use xlink:href="#DejaVuSans-Bold-41"/>
     <use xlink:href="#DejaVuSans-Bold-6c" x="77.392578"/>
     <use xlink:href="#DejaVuSans-Bold-6c" x="111.669922"/>
     <use xlink:href="#DejaVuSans-Bold-61" x="145.947266"/>
     <use xlink:href="#DejaVuSans-Bold-6e" x="213.427734"/>
     <use xlink:href="#DejaVuSans-Bold-20" x="284.619141"/>
     <use xlink:href="#DejaVuSans-Bold-56" x="319.433594"/>
     <use xlink:href="#DejaVuSans-Bold-61" x="391.326172"/>
     <use xlink:href="#DejaVuSans-Bold-72" x="458.806641"/>
     <use xlink:href="#DejaVuSans-Bold-69" x="508.123047"/>
     <use xlink:href="#DejaVuSans-Bold-61" x="542.400391"/>
     <use xlink:href="#DejaVuSans-Bold-6e" x="609.880859"/>
     <use xlink:href="#DejaVuSans-Bold-63" x="681.072266"/>
     <use xlink:href="#DejaVuSans-Bold-65" x="740.349609"/>
     <use xlink:href="#DejaVuSans-Bold-20" x="808.171875"/>
     <use xlink:href="#DejaVuSans-Bold-43" x="842.986328"/>
     <use xlink:href="#DejaVuSans-Bold-6f" x="916.375"/>
     <use xlink:href="#DejaVuSans-Bold-6d" x="985.076172"/>
     <use xlink:href="#DejaVuSans-Bold-70" x="1089.275391"/>
     <use xlink:href="#DejaVuSans-Bold-6f" x="1160.857422"/>
     <use xlink:href="#DejaVuSans-Bold-6e" x="1229.558594"/>
     <use xlink:href="#DejaVuSans-Bold-65" x="1300.75"/>
     <use xlink:href="#DejaVuSans-Bold-6e" x="1368.572266"/>
     <use xlink:href="#DejaVuSans-Bold-74" x="1439.763672"/>
     <use xlink:href="#DejaVuSans-Bold-20" x="1487.566406"/>
     <use xlink:href="#DejaVuSans-Bold-41" x="1522.380859"/>
     <use xlink:href="#DejaVuSans-Bold-6e" x="1599.773438"/>
     <use xlink:href="#DejaVuSans-Bold-61" x="1670.964844"/>
     <use xlink:href="#DejaVuSans-Bold-6c" x="1738.445312"/>
     <use xlink:href="#DejaVuSans-Bold-79" x="1772.722656"/>
     <use xlink:href="#DejaVuSans-Bold-73" x="1837.908203"/>
     <use xlink:href="#DejaVuSans-Bold-69" x="1897.429688"/>
     <use xlink:href="#DejaVuSans-Bold-73" x="1931.707031"/>
     <use xlink:href="#DejaVuSans-Bold-3a" x="1991.228516"/>
     <use xlink:href="#DejaVuSans-Bold-20" x="2031.21875"/>
     <use xlink:href="#DejaVuSans-Bold-43" x="2066.033203"/>
     <use xlink:href="#DejaVuSans-Bold-6f" x="2139.421875"/>
     <use xlink:href="#DejaVuSans-Bold-6e" x="2208.123047"/>
     <use xlink:href="#DejaVuSans-Bold-73" x="2279.314453"/>
     <use xlink:href="#DejaVuSans-Bold-75" x="2338.835938"/>
     <use xlink:href="#DejaVuSans-Bold-6d" x="2410.027344"/>
     <use xlink:href="#DejaVuSans-Bold-65" x="2514.226562"/>
     <use xlink:href="#DejaVuSans-Bold-72" x="2582.048828"/>
     <use xlink:href="#DejaVuSans-Bold-20" x="2631.365234"/>
     <use xlink:href="#DejaVuSans-Bold-47" x="2666.179688"/>
     <use xlink:href="#DejaVuSans-Bold-79" x="2748.259766"/>
     <use xlink:href="#DejaVuSans-Bold-72" x="2813.445312"/>
     <use xlink:href="#DejaVuSans-Bold-6f" x="2862.761719"/>
     <use xlink:href="#DejaVuSans-Bold-73" x="2931.462891"/>
     <use xlink:href="#DejaVuSans-Bold-63" x="2990.984375"/>
     <use xlink:href="#DejaVuSans-Bold-6f" x="3050.261719"/>
     <use xlink:href="#DejaVuSans-Bold-70" x="3118.962891"/>
     <use xlink:href="#DejaVuSans-Bold-65" x="3190.544922"/>
    </g>
    <!-- Debug Mode: Individual Noise Components -->
    <g transform="translate(348.923927 33.624125) scale(0.14 -0.14)">
     <defs>
      <path id="DejaVuSans-Bold-62" d="M 2400 722 
Q 2759 722 2948 984 
Q 3138 1247 3138 1747 
Q 3138 2247 2948 2509 
Q 2759 2772 2400 2772 
Q 2041 2772 1848 2508 
Q 1656 2244 1656 1747 
Q 1656 1250 1848 986 
Q 2041 722 2400 722 
z
M 1656 2988 
Q 1888 3294 2169 3439 
Q 2450 3584 2816 3584 
Q 3463 3584 3878 3070 
Q 4294 2556 4294 1747 
Q 4294 938 3878 423 
Q 3463 -91 2816 -91 
Q 2450 -91 2169 54 
Q 1888 200 1656 506 
L 1656 0 
L 538 0 
L 538 4863 
L 1656 4863 
L 1656 2988 
z
" transform="scale(0.015625)"/>
      <path id="DejaVuSans-Bold-4d" d="M 588 4666 
L 2119 4666 
L 3181 2169 
L 4250 4666 
L 5778 4666 
L 5778 0 
L 4641 0 
L 4641 3413 
L 3566 897 
L 2803 897 
L 1728 3413 
L 1728 0 
L 588 0 
L 588 4666 
z
" transform="scale(0.015625)"/>
      <path id="DejaVuSans-Bold-49" d="M 588 4666 
L 1791 4666 
L 1791 0 
L 588 0 
L 588 4666 
z
" transform="scale(0.015625)"/>
      <path id="DejaVuSans-Bold-4e" d="M 588 4666 
L 1931 4666 
L 3628 1466 
L 3628 4666 
L 4769 4666 
L 4769 0 
L 3425 0 
L 1728 3200 
L 1728 0 
L 588 0 
L 588 4666 
z
" transform="scale(0.015625)"/>
     </defs>
     <use xlink:href="#DejaVuSans-Bold-44"/>
     <use xlink:href="#DejaVuSans-Bold-65" x="83.007812"/>
     <use xlink:href="#DejaVuSans-Bold-62" x="150.830078"/>
     <use xlink:href="#DejaVuSans-Bold-75" x="222.412109"/>
     <use xlink:href="#DejaVuSans-Bold-67" x="293.603516"/>
     <use xlink:href="#DejaVuSans-Bold-20" x="365.185547"/>
     <use xlink:href="#DejaVuSans-Bold-4d" x="400"/>
     <use xlink:href="#DejaVuSans-Bold-6f" x="499.511719"/>
     <use xlink:href="#DejaVuSans-Bold-64" x="568.212891"/>
     <use xlink:href="#DejaVuSans-Bold-65" x="639.794922"/>
     <use xlink:href="#DejaVuSans-Bold-3a" x="707.617188"/>
     <use xlink:href="#DejaVuSans-Bold-20" x="747.607422"/>
     <use xlink:href="#DejaVuSans-Bold-49" x="782.421875"/>
     <use xlink:href="#DejaVuSans-Bold-6e" x="819.628906"/>
     <use xlink:href="#DejaVuSans-Bold-64" x="890.820312"/>
     <use xlink:href="#DejaVuSans-Bold-69" x="962.402344"/>
     <use xlink:href="#DejaVuSans-Bold-76" x="996.679688"/>
     <use xlink:href="#DejaVuSans-Bold-69" x="1061.865234"/>
     <use xlink:href="#DejaVuSans-Bold-64" x="1096.142578"/>
     <use xlink:href="#DejaVuSans-Bold-75" x="1167.724609"/>
     <use xlink:href="#DejaVuSans-Bold-61" x="1238.916016"/>
     <use xlink:href="#DejaVuSans-Bold-6c" x="1306.396484"/>
     <use xlink:href="#DejaVuSans-Bold-20" x="1340.673828"/>
     <use xlink:href="#DejaVuSans-Bold-4e" x="1375.488281"/>
     <use xlink:href="#DejaVuSans-Bold-6f" x="1459.179688"/>
     <use xlink:href="#DejaVuSans-Bold-69" x="1527.880859"/>
     <use xlink:href="#DejaVuSans-Bold-73" x="1562.158203"/>
     <use xlink:href="#DejaVuSans-Bold-65" x="1621.679688"/>
     <use xlink:href="#DejaVuSans-Bold-20" x="1689.501953"/>
     <use xlink:href="#DejaVuSans-Bold-43" x="1724.316406"/>
     <use xlink:href="#DejaVuSans-Bold-6f" x="1797.705078"/>
     <use xlink:href="#DejaVuSans-Bold-6d" x="1866.40625"/>
     <use xlink:href="#DejaVuSans-Bold-70" x="1970.605469"/>
     <use xlink:href="#DejaVuSans-Bold-6f" x="2042.1875"/>
     <use xlink:href="#DejaVuSans-Bold-6e" x="2110.888672"/>
     <use xlink:href="#DejaVuSans-Bold-65" x="2182.080078"/>
     <use xlink:href="#DejaVuSans-Bold-6e" x="2249.902344"/>
     <use xlink:href="#DejaVuSans-Bold-74" x="2321.09375"/>
     <use xlink:href="#DejaVuSans-Bold-73" x="2368.896484"/>
    </g>
   </g>
   <g id="legend_1">
    <g id="patch_7">
     <path d="M 792.785979 96.861938 
L 975.843166 96.861938 
Q 978.043166 96.861938 978.043166 94.661938 
L 978.043166 47.324125 
Q 978.043166 45.124125 975.843166 45.124125 
L 792.785979 45.124125 
Q 790.585979 45.124125 790.585979 47.324125 
L 790.585979 94.661938 
Q 790.585979 96.861938 792.785979 96.861938 
z
" style="fill: #ffffff; opacity: 0.9; stroke: #cccccc; stroke-linejoin: miter"/>
    </g>
    <g id="line2d_99">
     <path d="M 794.985979 54.032406 
L 805.985979 54.032406 
L 816.985979 54.032406 
" style="fill: none; stroke: #0000ff; stroke-opacity: 0.8; stroke-width: 2; stroke-linecap: square"/>
    </g>
    <g id="text_13">
     <!-- ARW (Angle Random Walk) -->
     <g transform="translate(825.785979 57.882406) scale(0.11 -0.11)">
      <defs>
       <path id="DejaVuSans-41" d="M 2188 4044 
L 1331 1722 
L 3047 1722 
L 2188 4044 
z
M 1831 4666 
L 2547 4666 
L 4325 0 
L 3669 0 
L 3244 1197 
L 1141 1197 
L 716 0 
L 50 0 
L 1831 4666 
z
" transform="scale(0.015625)"/>
       <path id="DejaVuSans-52" d="M 2841 2188 
Q 3044 2119 3236 1894 
Q 3428 1669 3622 1275 
L 4263 0 
L 3584 0 
L 2988 1197 
Q 2756 1666 2539 1819 
Q 2322 1972 1947 1972 
L 1259 1972 
L 1259 0 
L 628 0 
L 628 4666 
L 2053 4666 
Q 2853 4666 3247 4331 
Q 3641 3997 3641 3322 
Q 3641 2881 3436 2590 
Q 3231 2300 2841 2188 
z
M 1259 4147 
L 1259 2491 
L 2053 2491 
Q 2509 2491 2742 2702 
Q 2975 2913 2975 3322 
Q 2975 3731 2742 3939 
Q 2509 4147 2053 4147 
L 1259 4147 
z
" transform="scale(0.015625)"/>
       <path id="DejaVuSans-57" d="M 213 4666 
L 850 4666 
L 1831 722 
L 2809 4666 
L 3519 4666 
L 4500 722 
L 5478 4666 
L 6119 4666 
L 4947 0 
L 4153 0 
L 3169 4050 
L 2175 0 
L 1381 0 
L 213 4666 
z
" transform="scale(0.015625)"/>
       <path id="DejaVuSans-20" transform="scale(0.015625)"/>
       <path id="DejaVuSans-28" d="M 1984 4856 
Q 1566 4138 1362 3434 
Q 1159 2731 1159 2009 
Q 1159 1288 1364 580 
Q 1569 -128 1984 -844 
L 1484 -844 
Q 1016 -109 783 600 
Q 550 1309 550 2009 
Q 550 2706 781 3412 
Q 1013 4119 1484 4856 
L 1984 4856 
z
" transform="scale(0.015625)"/>
       <path id="DejaVuSans-6e" d="M 3513 2113 
L 3513 0 
L 2938 0 
L 2938 2094 
Q 2938 2591 2744 2837 
Q 2550 3084 2163 3084 
Q 1697 3084 1428 2787 
Q 1159 2491 1159 1978 
L 1159 0 
L 581 0 
L 581 3500 
L 1159 3500 
L 1159 2956 
Q 1366 3272 1645 3428 
Q 1925 3584 2291 3584 
Q 2894 3584 3203 3211 
Q 3513 2838 3513 2113 
z
" transform="scale(0.015625)"/>
       <path id="DejaVuSans-67" d="M 2906 1791 
Q 2906 2416 2648 2759 
Q 2391 3103 1925 3103 
Q 1463 3103 1205 2759 
Q 947 2416 947 1791 
Q 947 1169 1205 825 
Q 1463 481 1925 481 
Q 2391 481 2648 825 
Q 2906 1169 2906 1791 
z
M 3481 434 
Q 3481 -459 3084 -895 
Q 2688 -1331 1869 -1331 
Q 1566 -1331 1297 -1286 
Q 1028 -1241 775 -1147 
L 775 -588 
Q 1028 -725 1275 -790 
Q 1522 -856 1778 -856 
Q 2344 -856 2625 -561 
Q 2906 -266 2906 331 
L 2906 616 
Q 2728 306 2450 153 
Q 2172 0 1784 0 
Q 1141 0 747 490 
Q 353 981 353 1791 
Q 353 2603 747 3093 
Q 1141 3584 1784 3584 
Q 2172 3584 2450 3431 
Q 2728 3278 2906 2969 
L 2906 3500 
L 3481 3500 
L 3481 434 
z
" transform="scale(0.015625)"/>
       <path id="DejaVuSans-6c" d="M 603 4863 
L 1178 4863 
L 1178 0 
L 603 0 
L 603 4863 
z
" transform="scale(0.015625)"/>
       <path id="DejaVuSans-65" d="M 3597 1894 
L 3597 1613 
L 953 1613 
Q 991 1019 1311 708 
Q 1631 397 2203 397 
Q 2534 397 2845 478 
Q 3156 559 3463 722 
L 3463 178 
Q 3153 47 2828 -22 
Q 2503 -91 2169 -91 
Q 1331 -91 842 396 
Q 353 884 353 1716 
Q 353 2575 817 3079 
Q 1281 3584 2069 3584 
Q 2775 3584 3186 3129 
Q 3597 2675 3597 1894 
z
M 3022 2063 
Q 3016 2534 2758 2815 
Q 2500 3097 2075 3097 
Q 1594 3097 1305 2825 
Q 1016 2553 972 2059 
L 3022 2063 
z
" transform="scale(0.015625)"/>
       <path id="DejaVuSans-61" d="M 2194 1759 
Q 1497 1759 1228 1600 
Q 959 1441 959 1056 
Q 959 750 1161 570 
Q 1363 391 1709 391 
Q 2188 391 2477 730 
Q 2766 1069 2766 1631 
L 2766 1759 
L 2194 1759 
z
M 3341 1997 
L 3341 0 
L 2766 0 
L 2766 531 
Q 2569 213 2275 61 
Q 1981 -91 1556 -91 
Q 1019 -91 701 211 
Q 384 513 384 1019 
Q 384 1609 779 1909 
Q 1175 2209 1959 2209 
L 2766 2209 
L 2766 2266 
Q 2766 2663 2505 2880 
Q 2244 3097 1772 3097 
Q 1472 3097 1187 3025 
Q 903 2953 641 2809 
L 641 3341 
Q 956 3463 1253 3523 
Q 1550 3584 1831 3584 
Q 2591 3584 2966 3190 
Q 3341 2797 3341 1997 
z
" transform="scale(0.015625)"/>
       <path id="DejaVuSans-64" d="M 2906 2969 
L 2906 4863 
L 3481 4863 
L 3481 0 
L 2906 0 
L 2906 525 
Q 2725 213 2448 61 
Q 2172 -91 1784 -91 
Q 1150 -91 751 415 
Q 353 922 353 1747 
Q 353 2572 751 3078 
Q 1150 3584 1784 3584 
Q 2172 3584 2448 3432 
Q 2725 3281 2906 2969 
z
M 947 1747 
Q 947 1113 1208 752 
Q 1469 391 1925 391 
Q 2381 391 2643 752 
Q 2906 1113 2906 1747 
Q 2906 2381 2643 2742 
Q 2381 3103 1925 3103 
Q 1469 3103 1208 2742 
Q 947 2381 947 1747 
z
" transform="scale(0.015625)"/>
       <path id="DejaVuSans-6f" d="M 1959 3097 
Q 1497 3097 1228 2736 
Q 959 2375 959 1747 
Q 959 1119 1226 758 
Q 1494 397 1959 397 
Q 2419 397 2687 759 
Q 2956 1122 2956 1747 
Q 2956 2369 2687 2733 
Q 2419 3097 1959 3097 
z
M 1959 3584 
Q 2709 3584 3137 3096 
Q 3566 2609 3566 1747 
Q 3566 888 3137 398 
Q 2709 -91 1959 -91 
Q 1206 -91 779 398 
Q 353 888 353 1747 
Q 353 2609 779 3096 
Q 1206 3584 1959 3584 
z
" transform="scale(0.015625)"/>
       <path id="DejaVuSans-6d" d="M 3328 2828 
Q 3544 3216 3844 3400 
Q 4144 3584 4550 3584 
Q 5097 3584 5394 3201 
Q 5691 2819 5691 2113 
L 5691 0 
L 5113 0 
L 5113 2094 
Q 5113 2597 4934 2840 
Q 4756 3084 4391 3084 
Q 3944 3084 3684 2787 
Q 3425 2491 3425 1978 
L 3425 0 
L 2847 0 
L 2847 2094 
Q 2847 2600 2669 2842 
Q 2491 3084 2119 3084 
Q 1678 3084 1418 2786 
Q 1159 2488 1159 1978 
L 1159 0 
L 581 0 
L 581 3500 
L 1159 3500 
L 1159 2956 
Q 1356 3278 1631 3431 
Q 1906 3584 2284 3584 
Q 2666 3584 2933 3390 
Q 3200 3197 3328 2828 
z
" transform="scale(0.015625)"/>
       <path id="DejaVuSans-6b" d="M 581 4863 
L 1159 4863 
L 1159 1991 
L 2875 3500 
L 3609 3500 
L 1753 1863 
L 3688 0 
L 2938 0 
L 1159 1709 
L 1159 0 
L 581 0 
L 581 4863 
z
" transform="scale(0.015625)"/>
       <path id="DejaVuSans-29" d="M 513 4856 
L 1013 4856 
Q 1481 4119 1714 3412 
Q 1947 2706 1947 2009 
Q 1947 1309 1714 600 
Q 1481 -109 1013 -844 
L 513 -844 
Q 928 -128 1133 580 
Q 1338 1288 1338 2009 
Q 1338 2731 1133 3434 
Q 928 4138 513 4856 
z
" transform="scale(0.015625)"/>
      </defs>
      <use xlink:href="#DejaVuSans-41"/>
      <use xlink:href="#DejaVuSans-52" x="68.408203"/>
      <use xlink:href="#DejaVuSans-57" x="133.890625"/>
      <use xlink:href="#DejaVuSans-20" x="232.767578"/>
      <use xlink:href="#DejaVuSans-28" x="264.554688"/>
      <use xlink:href="#DejaVuSans-41" x="303.568359"/>
      <use xlink:href="#DejaVuSans-6e" x="371.976562"/>
      <use xlink:href="#DejaVuSans-67" x="435.355469"/>
      <use xlink:href="#DejaVuSans-6c" x="498.832031"/>
      <use xlink:href="#DejaVuSans-65" x="526.615234"/>
      <use xlink:href="#DejaVuSans-20" x="588.138672"/>
      <use xlink:href="#DejaVuSans-52" x="619.925781"/>
      <use xlink:href="#DejaVuSans-61" x="687.158203"/>
      <use xlink:href="#DejaVuSans-6e" x="748.4375"/>
      <use xlink:href="#DejaVuSans-64" x="811.816406"/>
      <use xlink:href="#DejaVuSans-6f" x="875.292969"/>
      <use xlink:href="#DejaVuSans-6d" x="936.474609"/>
      <use xlink:href="#DejaVuSans-20" x="1033.886719"/>
      <use xlink:href="#DejaVuSans-57" x="1065.673828"/>
      <use xlink:href="#DejaVuSans-61" x="1158.175781"/>
      <use xlink:href="#DejaVuSans-6c" x="1219.455078"/>
      <use xlink:href="#DejaVuSans-6b" x="1247.238281"/>
      <use xlink:href="#DejaVuSans-29" x="1305.148438"/>
     </g>
    </g>
    <g id="line2d_100">
     <path d="M 794.985979 70.178344 
L 805.985979 70.178344 
L 816.985979 70.178344 
" style="fill: none; stroke: #008000; stroke-opacity: 0.8; stroke-width: 2; stroke-linecap: square"/>
    </g>
    <g id="text_14">
     <!-- BI (Bias Instability) -->
     <g transform="translate(825.785979 74.028344) scale(0.11 -0.11)">
      <defs>
       <path id="DejaVuSans-42" d="M 1259 2228 
L 1259 519 
L 2272 519 
Q 2781 519 3026 730 
Q 3272 941 3272 1375 
Q 3272 1813 3026 2020 
Q 2781 2228 2272 2228 
L 1259 2228 
z
M 1259 4147 
L 1259 2741 
L 2194 2741 
Q 2656 2741 2882 2914 
Q 3109 3088 3109 3444 
Q 3109 3797 2882 3972 
Q 2656 4147 2194 4147 
L 1259 4147 
z
M 628 4666 
L 2241 4666 
Q 2963 4666 3353 4366 
Q 3744 4066 3744 3513 
Q 3744 3084 3544 2831 
Q 3344 2578 2956 2516 
Q 3422 2416 3680 2098 
Q 3938 1781 3938 1306 
Q 3938 681 3513 340 
Q 3088 0 2303 0 
L 628 0 
L 628 4666 
z
" transform="scale(0.015625)"/>
       <path id="DejaVuSans-49" d="M 628 4666 
L 1259 4666 
L 1259 0 
L 628 0 
L 628 4666 
z
" transform="scale(0.015625)"/>
       <path id="DejaVuSans-69" d="M 603 3500 
L 1178 3500 
L 1178 0 
L 603 0 
L 603 3500 
z
M 603 4863 
L 1178 4863 
L 1178 4134 
L 603 4134 
L 603 4863 
z
" transform="scale(0.015625)"/>
       <path id="DejaVuSans-73" d="M 2834 3397 
L 2834 2853 
Q 2591 2978 2328 3040 
Q 2066 3103 1784 3103 
Q 1356 3103 1142 2972 
Q 928 2841 928 2578 
Q 928 2378 1081 2264 
Q 1234 2150 1697 2047 
L 1894 2003 
Q 2506 1872 2764 1633 
Q 3022 1394 3022 966 
Q 3022 478 2636 193 
Q 2250 -91 1575 -91 
Q 1294 -91 989 -36 
Q 684 19 347 128 
L 347 722 
Q 666 556 975 473 
Q 1284 391 1588 391 
Q 1994 391 2212 530 
Q 2431 669 2431 922 
Q 2431 1156 2273 1281 
Q 2116 1406 1581 1522 
L 1381 1569 
Q 847 1681 609 1914 
Q 372 2147 372 2553 
Q 372 3047 722 3315 
Q 1072 3584 1716 3584 
Q 2034 3584 2315 3537 
Q 2597 3491 2834 3397 
z
" transform="scale(0.015625)"/>
       <path id="DejaVuSans-74" d="M 1172 4494 
L 1172 3500 
L 2356 3500 
L 2356 3053 
L 1172 3053 
L 1172 1153 
Q 1172 725 1289 603 
Q 1406 481 1766 481 
L 2356 481 
L 2356 0 
L 1766 0 
Q 1100 0 847 248 
Q 594 497 594 1153 
L 594 3053 
L 172 3053 
L 172 3500 
L 594 3500 
L 594 4494 
L 1172 4494 
z
" transform="scale(0.015625)"/>
       <path id="DejaVuSans-62" d="M 3116 1747 
Q 3116 2381 2855 2742 
Q 2594 3103 2138 3103 
Q 1681 3103 1420 2742 
Q 1159 2381 1159 1747 
Q 1159 1113 1420 752 
Q 1681 391 2138 391 
Q 2594 391 2855 752 
Q 3116 1113 3116 1747 
z
M 1159 2969 
Q 1341 3281 1617 3432 
Q 1894 3584 2278 3584 
Q 2916 3584 3314 3078 
Q 3713 2572 3713 1747 
Q 3713 922 3314 415 
Q 2916 -91 2278 -91 
Q 1894 -91 1617 61 
Q 1341 213 1159 525 
L 1159 0 
L 581 0 
L 581 4863 
L 1159 4863 
L 1159 2969 
z
" transform="scale(0.015625)"/>
       <path id="DejaVuSans-79" d="M 2059 -325 
Q 1816 -950 1584 -1140 
Q 1353 -1331 966 -1331 
L 506 -1331 
L 506 -850 
L 844 -850 
Q 1081 -850 1212 -737 
Q 1344 -625 1503 -206 
L 1606 56 
L 191 3500 
L 800 3500 
L 1894 763 
L 2988 3500 
L 3597 3500 
L 2059 -325 
z
" transform="scale(0.015625)"/>
      </defs>
      <use xlink:href="#DejaVuSans-42"/>
      <use xlink:href="#DejaVuSans-49" x="68.603516"/>
      <use xlink:href="#DejaVuSans-20" x="98.095703"/>
      <use xlink:href="#DejaVuSans-28" x="129.882812"/>
      <use xlink:href="#DejaVuSans-42" x="168.896484"/>
      <use xlink:href="#DejaVuSans-69" x="237.5"/>
      <use xlink:href="#DejaVuSans-61" x="265.283203"/>
      <use xlink:href="#DejaVuSans-73" x="326.5625"/>
      <use xlink:href="#DejaVuSans-20" x="378.662109"/>
      <use xlink:href="#DejaVuSans-49" x="410.449219"/>
      <use xlink:href="#DejaVuSans-6e" x="439.941406"/>
      <use xlink:href="#DejaVuSans-73" x="503.320312"/>
      <use xlink:href="#DejaVuSans-74" x="555.419922"/>
      <use xlink:href="#DejaVuSans-61" x="594.628906"/>
      <use xlink:href="#DejaVuSans-62" x="655.908203"/>
      <use xlink:href="#DejaVuSans-69" x="719.384766"/>
      <use xlink:href="#DejaVuSans-6c" x="747.167969"/>
      <use xlink:href="#DejaVuSans-69" x="774.951172"/>
      <use xlink:href="#DejaVuSans-74" x="802.734375"/>
      <use xlink:href="#DejaVuSans-79" x="841.943359"/>
      <use xlink:href="#DejaVuSans-29" x="901.123047"/>
     </g>
    </g>
    <g id="line2d_101">
     <path d="M 794.985979 86.324281 
L 805.985979 86.324281 
L 816.985979 86.324281 
" style="fill: none; stroke: #ff0000; stroke-opacity: 0.8; stroke-width: 2; stroke-linecap: square"/>
    </g>
    <g id="text_15">
     <!-- RRW (Rate Random Walk) -->
     <g transform="translate(825.785979 90.174281) scale(0.11 -0.11)">
      <use xlink:href="#DejaVuSans-52"/>
      <use xlink:href="#DejaVuSans-52" x="69.482422"/>
      <use xlink:href="#DejaVuSans-57" x="134.964844"/>
      <use xlink:href="#DejaVuSans-20" x="233.841797"/>
      <use xlink:href="#DejaVuSans-28" x="265.628906"/>
      <use xlink:href="#DejaVuSans-52" x="304.642578"/>
      <use xlink:href="#DejaVuSans-61" x="371.875"/>
      <use xlink:href="#DejaVuSans-74" x="433.154297"/>
      <use xlink:href="#DejaVuSans-65" x="472.363281"/>
      <use xlink:href="#DejaVuSans-20" x="533.886719"/>
      <use xlink:href="#DejaVuSans-52" x="565.673828"/>
      <use xlink:href="#DejaVuSans-61" x="632.90625"/>
      <use xlink:href="#DejaVuSans-6e" x="694.185547"/>
      <use xlink:href="#DejaVuSans-64" x="757.564453"/>
      <use xlink:href="#DejaVuSans-6f" x="821.041016"/>
      <use xlink:href="#DejaVuSans-6d" x="882.222656"/>
      <use xlink:href="#DejaVuSans-20" x="979.634766"/>
      <use xlink:href="#DejaVuSans-57" x="1011.421875"/>
      <use xlink:href="#DejaVuSans-61" x="1103.923828"/>
      <use xlink:href="#DejaVuSans-6c" x="1165.203125"/>
      <use xlink:href="#DejaVuSans-6b" x="1192.986328"/>
      <use xlink:href="#DejaVuSans-29" x="1250.896484"/>
     </g>
    </g>
   </g>
  </g>
 </g>
 <defs>
  <clipPath id="p8ef4664ea7">
   <rect x="54.281563" y="39.624125" width="929.261604" height="556.408"/>
  </clipPath>
 </defs>
</svg>
