<?xml version="1.0" encoding="utf-8" standalone="no"?>
<!DOCTYPE svg PUBLIC "-//W3C//DTD SVG 1.1//EN"
  "http://www.w3.org/Graphics/SVG/1.1/DTD/svg11.dtd">
<svg xmlns:xlink="http://www.w3.org/1999/xlink" width="999.939509pt" height="495.897344pt" viewBox="0 0 999.939509 495.897344" xmlns="http://www.w3.org/2000/svg" version="1.1">
 <metadata>
  <rdf:RDF xmlns:dc="http://purl.org/dc/elements/1.1/" xmlns:cc="http://creativecommons.org/ns#" xmlns:rdf="http://www.w3.org/1999/02/22-rdf-syntax-ns#">
   <cc:Work>
    <dc:type rdf:resource="http://purl.org/dc/dcmitype/StillImage"/>
    <dc:date>2025-12-15T14:13:05.958767</dc:date>
    <dc:format>image/svg+xml</dc:format>
    <dc:creator>
     <cc:Agent>
      <dc:title>Matplotlib v3.9.2, https://matplotlib.org/</dc:title>
     </cc:Agent>
    </dc:creator>
   </cc:Work>
  </rdf:RDF>
 </metadata>
 <defs>
  <style type="text/css">*{stroke-linejoin: round; stroke-linecap: butt}</style>
 </defs>
 <g id="figure_1">
  <g id="patch_1">
   <path d="M 0 495.897344 
L 999.939509 495.897344 
L 999.939509 0 
L 0 0 
z
" style="fill: #ffffff"/>
  </g>
  <g id="axes_1">
   <g id="patch_2">
    <path d="M 54.281563 455.437656 
L 992.739509 455.437656 
L 992.739509 24.597656 
L 54.281563 24.597656 
z
" style="fill: #ffffff"/>
   </g>
   <g id="matplotlib.axis_1">
    <g id="xtick_1">
     <g id="line2d_1">
      <path d="M 54.281563 455.437656 
L 54.281563 24.597656 
" clip-path="url(#pcdb0358bd0)" style="fill: none; stroke: #b0b0b0; stroke-opacity: 0.3; stroke-width: 0.8; stroke-linecap: square"/>
     </g>
     <g id="line2d_2">
      <defs>
       <path id="m8d979eda95" d="M 0 0 
L 0 3.5 
" style="stroke: #000000; stroke-width: 0.8"/>
      </defs>
      <g>
       <use xlink:href="#m8d979eda95" x="54.281563" y="455.437656" style="stroke: #000000; stroke-width: 0.8"/>
      </g>
     </g>
     <g id="text_1">
      <!-- 0 -->
      <g transform="translate(51.100313 470.036094) scale(0.1 -0.1)">
       <defs>
        <path id="DejaVuSans-30" d="M 2034 4250 
Q 1547 4250 1301 3770 
Q 1056 3291 1056 2328 
Q 1056 1369 1301 889 
Q 1547 409 2034 409 
Q 2525 409 2770 889 
Q 3016 1369 3016 2328 
Q 3016 3291 2770 3770 
Q 2525 4250 2034 4250 
z
M 2034 4750 
Q 2819 4750 3233 4129 
Q 3647 3509 3647 2328 
Q 3647 1150 3233 529 
Q 2819 -91 2034 -91 
Q 1250 -91 836 529 
Q 422 1150 422 2328 
Q 422 3509 836 4129 
Q 1250 4750 2034 4750 
z
" transform="scale(0.015625)"/>
       </defs>
       <use xlink:href="#DejaVuSans-30"/>
      </g>
     </g>
    </g>
    <g id="xtick_2">
     <g id="line2d_3">
      <path d="M 210.704255 455.437656 
L 210.704255 24.597656 
" clip-path="url(#pcdb0358bd0)" style="fill: none; stroke: #b0b0b0; stroke-opacity: 0.3; stroke-width: 0.8; stroke-linecap: square"/>
     </g>
     <g id="line2d_4">
      <g>
       <use xlink:href="#m8d979eda95" x="210.704255" y="455.437656" style="stroke: #000000; stroke-width: 0.8"/>
      </g>
     </g>
     <g id="text_2">
      <!-- 20 -->
      <g transform="translate(204.341755 470.036094) scale(0.1 -0.1)">
       <defs>
        <path id="DejaVuSans-32" d="M 1228 531 
L 3431 531 
L 3431 0 
L 469 0 
L 469 531 
Q 828 903 1448 1529 
Q 2069 2156 2228 2338 
Q 2531 2678 2651 2914 
Q 2772 3150 2772 3378 
Q 2772 3750 2511 3984 
Q 2250 4219 1831 4219 
Q 1534 4219 1204 4116 
Q 875 4013 500 3803 
L 500 4441 
Q 881 4594 1212 4672 
Q 1544 4750 1819 4750 
Q 2544 4750 2975 4387 
Q 3406 4025 3406 3419 
Q 3406 3131 3298 2873 
Q 3191 2616 2906 2266 
Q 2828 2175 2409 1742 
Q 1991 1309 1228 531 
z
" transform="scale(0.015625)"/>
       </defs>
       <use xlink:href="#DejaVuSans-32"/>
       <use xlink:href="#DejaVuSans-30" x="63.623047"/>
      </g>
     </g>
    </g>
    <g id="xtick_3">
     <g id="line2d_5">
      <path d="M 367.126948 455.437656 
L 367.126948 24.597656 
" clip-path="url(#pcdb0358bd0)" style="fill: none; stroke: #b0b0b0; stroke-opacity: 0.3; stroke-width: 0.8; stroke-linecap: square"/>
     </g>
     <g id="line2d_6">
      <g>
       <use xlink:href="#m8d979eda95" x="367.126948" y="455.437656" style="stroke: #000000; stroke-width: 0.8"/>
      </g>
     </g>
     <g id="text_3">
      <!-- 40 -->
      <g transform="translate(360.764448 470.036094) scale(0.1 -0.1)">
       <defs>
        <path id="DejaVuSans-34" d="M 2419 4116 
L 825 1625 
L 2419 1625 
L 2419 4116 
z
M 2253 4666 
L 3047 4666 
L 3047 1625 
L 3713 1625 
L 3713 1100 
L 3047 1100 
L 3047 0 
L 2419 0 
L 2419 1100 
L 313 1100 
L 313 1709 
L 2253 4666 
z
" transform="scale(0.015625)"/>
       </defs>
       <use xlink:href="#DejaVuSans-34"/>
       <use xlink:href="#DejaVuSans-30" x="63.623047"/>
      </g>
     </g>
    </g>
    <g id="xtick_4">
     <g id="line2d_7">
      <path d="M 523.549641 455.437656 
L 523.549641 24.597656 
" clip-path="url(#pcdb0358bd0)" style="fill: none; stroke: #b0b0b0; stroke-opacity: 0.3; stroke-width: 0.8; stroke-linecap: square"/>
     </g>
     <g id="line2d_8">
      <g>
       <use xlink:href="#m8d979eda95" x="523.549641" y="455.437656" style="stroke: #000000; stroke-width: 0.8"/>
      </g>
     </g>
     <g id="text_4">
      <!-- 60 -->
      <g transform="translate(517.187141 470.036094) scale(0.1 -0.1)">
       <defs>
        <path id="DejaVuSans-36" d="M 2113 2584 
Q 1688 2584 1439 2293 
Q 1191 2003 1191 1497 
Q 1191 994 1439 701 
Q 1688 409 2113 409 
Q 2538 409 2786 701 
Q 3034 994 3034 1497 
Q 3034 2003 2786 2293 
Q 2538 2584 2113 2584 
z
M 3366 4563 
L 3366 3988 
Q 3128 4100 2886 4159 
Q 2644 4219 2406 4219 
Q 1781 4219 1451 3797 
Q 1122 3375 1075 2522 
Q 1259 2794 1537 2939 
Q 1816 3084 2150 3084 
Q 2853 3084 3261 2657 
Q 3669 2231 3669 1497 
Q 3669 778 3244 343 
Q 2819 -91 2113 -91 
Q 1303 -91 875 529 
Q 447 1150 447 2328 
Q 447 3434 972 4092 
Q 1497 4750 2381 4750 
Q 2619 4750 2861 4703 
Q 3103 4656 3366 4563 
z
" transform="scale(0.015625)"/>
       </defs>
       <use xlink:href="#DejaVuSans-36"/>
       <use xlink:href="#DejaVuSans-30" x="63.623047"/>
      </g>
     </g>
    </g>
    <g id="xtick_5">
     <g id="line2d_9">
      <path d="M 679.972334 455.437656 
L 679.972334 24.597656 
" clip-path="url(#pcdb0358bd0)" style="fill: none; stroke: #b0b0b0; stroke-opacity: 0.3; stroke-width: 0.8; stroke-linecap: square"/>
     </g>
     <g id="line2d_10">
      <g>
       <use xlink:href="#m8d979eda95" x="679.972334" y="455.437656" style="stroke: #000000; stroke-width: 0.8"/>
      </g>
     </g>
     <g id="text_5">
      <!-- 80 -->
      <g transform="translate(673.609834 470.036094) scale(0.1 -0.1)">
       <defs>
        <path id="DejaVuSans-38" d="M 2034 2216 
Q 1584 2216 1326 1975 
Q 1069 1734 1069 1313 
Q 1069 891 1326 650 
Q 1584 409 2034 409 
Q 2484 409 2743 651 
Q 3003 894 3003 1313 
Q 3003 1734 2745 1975 
Q 2488 2216 2034 2216 
z
M 1403 2484 
Q 997 2584 770 2862 
Q 544 3141 544 3541 
Q 544 4100 942 4425 
Q 1341 4750 2034 4750 
Q 2731 4750 3128 4425 
Q 3525 4100 3525 3541 
Q 3525 3141 3298 2862 
Q 3072 2584 2669 2484 
Q 3125 2378 3379 2068 
Q 3634 1759 3634 1313 
Q 3634 634 3220 271 
Q 2806 -91 2034 -91 
Q 1263 -91 848 271 
Q 434 634 434 1313 
Q 434 1759 690 2068 
Q 947 2378 1403 2484 
z
M 1172 3481 
Q 1172 3119 1398 2916 
Q 1625 2713 2034 2713 
Q 2441 2713 2670 2916 
Q 2900 3119 2900 3481 
Q 2900 3844 2670 4047 
Q 2441 4250 2034 4250 
Q 1625 4250 1398 4047 
Q 1172 3844 1172 3481 
z
" transform="scale(0.015625)"/>
       </defs>
       <use xlink:href="#DejaVuSans-38"/>
       <use xlink:href="#DejaVuSans-30" x="63.623047"/>
      </g>
     </g>
    </g>
    <g id="xtick_6">
     <g id="line2d_11">
      <path d="M 836.395027 455.437656 
L 836.395027 24.597656 
" clip-path="url(#pcdb0358bd0)" style="fill: none; stroke: #b0b0b0; stroke-opacity: 0.3; stroke-width: 0.8; stroke-linecap: square"/>
     </g>
     <g id="line2d_12">
      <g>
       <use xlink:href="#m8d979eda95" x="836.395027" y="455.437656" style="stroke: #000000; stroke-width: 0.8"/>
      </g>
     </g>
     <g id="text_6">
      <!-- 100 -->
      <g transform="translate(826.851277 470.036094) scale(0.1 -0.1)">
       <defs>
        <path id="DejaVuSans-31" d="M 794 531 
L 1825 531 
L 1825 4091 
L 703 3866 
L 703 4441 
L 1819 4666 
L 2450 4666 
L 2450 531 
L 3481 531 
L 3481 0 
L 794 0 
L 794 531 
z
" transform="scale(0.015625)"/>
       </defs>
       <use xlink:href="#DejaVuSans-31"/>
       <use xlink:href="#DejaVuSans-30" x="63.623047"/>
       <use xlink:href="#DejaVuSans-30" x="127.246094"/>
      </g>
     </g>
    </g>
    <g id="text_7">
     <!-- Time [s] -->
     <g transform="translate(497.082957 485.99375) scale(0.13 -0.13)">
      <defs>
       <path id="DejaVuSans-54" d="M -19 4666 
L 3928 4666 
L 3928 4134 
L 2272 4134 
L 2272 0 
L 1638 0 
L 1638 4134 
L -19 4134 
L -19 4666 
z
" transform="scale(0.015625)"/>
       <path id="DejaVuSans-69" d="M 603 3500 
L 1178 3500 
L 1178 0 
L 603 0 
L 603 3500 
z
M 603 4863 
L 1178 4863 
L 1178 4134 
L 603 4134 
L 603 4863 
z
" transform="scale(0.015625)"/>
       <path id="DejaVuSans-6d" d="M 3328 2828 
Q 3544 3216 3844 3400 
Q 4144 3584 4550 3584 
Q 5097 3584 5394 3201 
Q 5691 2819 5691 2113 
L 5691 0 
L 5113 0 
L 5113 2094 
Q 5113 2597 4934 2840 
Q 4756 3084 4391 3084 
Q 3944 3084 3684 2787 
Q 3425 2491 3425 1978 
L 3425 0 
L 2847 0 
L 2847 2094 
Q 2847 2600 2669 2842 
Q 2491 3084 2119 3084 
Q 1678 3084 1418 2786 
Q 1159 2488 1159 1978 
L 1159 0 
L 581 0 
L 581 3500 
L 1159 3500 
L 1159 2956 
Q 1356 3278 1631 3431 
Q 1906 3584 2284 3584 
Q 2666 3584 2933 3390 
Q 3200 3197 3328 2828 
z
" transform="scale(0.015625)"/>
       <path id="DejaVuSans-65" d="M 3597 1894 
L 3597 1613 
L 953 1613 
Q 991 1019 1311 708 
Q 1631 397 2203 397 
Q 2534 397 2845 478 
Q 3156 559 3463 722 
L 3463 178 
Q 3153 47 2828 -22 
Q 2503 -91 2169 -91 
Q 1331 -91 842 396 
Q 353 884 353 1716 
Q 353 2575 817 3079 
Q 1281 3584 2069 3584 
Q 2775 3584 3186 3129 
Q 3597 2675 3597 1894 
z
M 3022 2063 
Q 3016 2534 2758 2815 
Q 2500 3097 2075 3097 
Q 1594 3097 1305 2825 
Q 1016 2553 972 2059 
L 3022 2063 
z
" transform="scale(0.015625)"/>
       <path id="DejaVuSans-20" transform="scale(0.015625)"/>
       <path id="DejaVuSans-5b" d="M 550 4863 
L 1875 4863 
L 1875 4416 
L 1125 4416 
L 1125 -397 
L 1875 -397 
L 1875 -844 
L 550 -844 
L 550 4863 
z
" transform="scale(0.015625)"/>
       <path id="DejaVuSans-73" d="M 2834 3397 
L 2834 2853 
Q 2591 2978 2328 3040 
Q 2066 3103 1784 3103 
Q 1356 3103 1142 2972 
Q 928 2841 928 2578 
Q 928 2378 1081 2264 
Q 1234 2150 1697 2047 
L 1894 2003 
Q 2506 1872 2764 1633 
Q 3022 1394 3022 966 
Q 3022 478 2636 193 
Q 2250 -91 1575 -91 
Q 1294 -91 989 -36 
Q 684 19 347 128 
L 347 722 
Q 666 556 975 473 
Q 1284 391 1588 391 
Q 1994 391 2212 530 
Q 2431 669 2431 922 
Q 2431 1156 2273 1281 
Q 2116 1406 1581 1522 
L 1381 1569 
Q 847 1681 609 1914 
Q 372 2147 372 2553 
Q 372 3047 722 3315 
Q 1072 3584 1716 3584 
Q 2034 3584 2315 3537 
Q 2597 3491 2834 3397 
z
" transform="scale(0.015625)"/>
       <path id="DejaVuSans-5d" d="M 1947 4863 
L 1947 -844 
L 622 -844 
L 622 -397 
L 1369 -397 
L 1369 4416 
L 622 4416 
L 622 4863 
L 1947 4863 
z
" transform="scale(0.015625)"/>
      </defs>
      <use xlink:href="#DejaVuSans-54"/>
      <use xlink:href="#DejaVuSans-69" x="57.958984"/>
      <use xlink:href="#DejaVuSans-6d" x="85.742188"/>
      <use xlink:href="#DejaVuSans-65" x="183.154297"/>
      <use xlink:href="#DejaVuSans-20" x="244.677734"/>
      <use xlink:href="#DejaVuSans-5b" x="276.464844"/>
      <use xlink:href="#DejaVuSans-73" x="315.478516"/>
      <use xlink:href="#DejaVuSans-5d" x="367.578125"/>
     </g>
    </g>
   </g>
   <g id="matplotlib.axis_2">
    <g id="ytick_1">
     <g id="line2d_13">
      <path d="M 54.281563 435.435486 
L 992.739509 435.435486 
" clip-path="url(#pcdb0358bd0)" style="fill: none; stroke: #b0b0b0; stroke-opacity: 0.3; stroke-width: 0.8; stroke-linecap: square"/>
     </g>
     <g id="line2d_14">
      <defs>
       <path id="md675b992a9" d="M 0 0 
L -3.5 0 
" style="stroke: #000000; stroke-width: 0.8"/>
      </defs>
      <g>
       <use xlink:href="#md675b992a9" x="54.281563" y="435.435486" style="stroke: #000000; stroke-width: 0.8"/>
      </g>
     </g>
     <g id="text_8">
      <!-- $\mathdefault{10^{-3}}$ -->
      <g transform="translate(23.781563 439.234705) scale(0.1 -0.1)">
       <defs>
        <path id="DejaVuSans-2212" d="M 678 2272 
L 4684 2272 
L 4684 1741 
L 678 1741 
L 678 2272 
z
" transform="scale(0.015625)"/>
        <path id="DejaVuSans-33" d="M 2597 2516 
Q 3050 2419 3304 2112 
Q 3559 1806 3559 1356 
Q 3559 666 3084 287 
Q 2609 -91 1734 -91 
Q 1441 -91 1130 -33 
Q 819 25 488 141 
L 488 750 
Q 750 597 1062 519 
Q 1375 441 1716 441 
Q 2309 441 2620 675 
Q 2931 909 2931 1356 
Q 2931 1769 2642 2001 
Q 2353 2234 1838 2234 
L 1294 2234 
L 1294 2753 
L 1863 2753 
Q 2328 2753 2575 2939 
Q 2822 3125 2822 3475 
Q 2822 3834 2567 4026 
Q 2313 4219 1838 4219 
Q 1578 4219 1281 4162 
Q 984 4106 628 3988 
L 628 4550 
Q 988 4650 1302 4700 
Q 1616 4750 1894 4750 
Q 2613 4750 3031 4423 
Q 3450 4097 3450 3541 
Q 3450 3153 3228 2886 
Q 3006 2619 2597 2516 
z
" transform="scale(0.015625)"/>
       </defs>
       <use xlink:href="#DejaVuSans-31" transform="translate(0 0.765625)"/>
       <use xlink:href="#DejaVuSans-30" transform="translate(63.623047 0.765625)"/>
       <use xlink:href="#DejaVuSans-2212" transform="translate(128.203125 39.046875) scale(0.7)"/>
       <use xlink:href="#DejaVuSans-33" transform="translate(186.855469 39.046875) scale(0.7)"/>
      </g>
     </g>
    </g>
    <g id="ytick_2">
     <g id="line2d_15">
      <path d="M 54.281563 385.586571 
L 992.739509 385.586571 
" clip-path="url(#pcdb0358bd0)" style="fill: none; stroke: #b0b0b0; stroke-opacity: 0.3; stroke-width: 0.8; stroke-linecap: square"/>
     </g>
     <g id="line2d_16">
      <g>
       <use xlink:href="#md675b992a9" x="54.281563" y="385.586571" style="stroke: #000000; stroke-width: 0.8"/>
      </g>
     </g>
     <g id="text_9">
      <!-- $\mathdefault{10^{-2}}$ -->
      <g transform="translate(23.781563 389.385789) scale(0.1 -0.1)">
       <use xlink:href="#DejaVuSans-31" transform="translate(0 0.765625)"/>
       <use xlink:href="#DejaVuSans-30" transform="translate(63.623047 0.765625)"/>
       <use xlink:href="#DejaVuSans-2212" transform="translate(128.203125 39.046875) scale(0.7)"/>
       <use xlink:href="#DejaVuSans-32" transform="translate(186.855469 39.046875) scale(0.7)"/>
      </g>
     </g>
    </g>
    <g id="ytick_3">
     <g id="line2d_17">
      <path d="M 54.281563 335.737656 
L 992.739509 335.737656 
" clip-path="url(#pcdb0358bd0)" style="fill: none; stroke: #b0b0b0; stroke-opacity: 0.3; stroke-width: 0.8; stroke-linecap: square"/>
     </g>
     <g id="line2d_18">
      <g>
       <use xlink:href="#md675b992a9" x="54.281563" y="335.737656" style="stroke: #000000; stroke-width: 0.8"/>
      </g>
     </g>
     <g id="text_10">
      <!-- $\mathdefault{10^{-1}}$ -->
      <g transform="translate(23.781563 339.536874) scale(0.1 -0.1)">
       <use xlink:href="#DejaVuSans-31" transform="translate(0 0.684375)"/>
       <use xlink:href="#DejaVuSans-30" transform="translate(63.623047 0.684375)"/>
       <use xlink:href="#DejaVuSans-2212" transform="translate(128.203125 38.965625) scale(0.7)"/>
       <use xlink:href="#DejaVuSans-31" transform="translate(186.855469 38.965625) scale(0.7)"/>
      </g>
     </g>
    </g>
    <g id="ytick_4">
     <g id="line2d_19">
      <path d="M 54.281563 285.888741 
L 992.739509 285.888741 
" clip-path="url(#pcdb0358bd0)" style="fill: none; stroke: #b0b0b0; stroke-opacity: 0.3; stroke-width: 0.8; stroke-linecap: square"/>
     </g>
     <g id="line2d_20">
      <g>
       <use xlink:href="#md675b992a9" x="54.281563" y="285.888741" style="stroke: #000000; stroke-width: 0.8"/>
      </g>
     </g>
     <g id="text_11">
      <!-- $\mathdefault{10^{0}}$ -->
      <g transform="translate(29.681563 289.687959) scale(0.1 -0.1)">
       <use xlink:href="#DejaVuSans-31" transform="translate(0 0.765625)"/>
       <use xlink:href="#DejaVuSans-30" transform="translate(63.623047 0.765625)"/>
       <use xlink:href="#DejaVuSans-30" transform="translate(128.203125 39.046875) scale(0.7)"/>
      </g>
     </g>
    </g>
    <g id="ytick_5">
     <g id="line2d_21">
      <path d="M 54.281563 236.039826 
L 992.739509 236.039826 
" clip-path="url(#pcdb0358bd0)" style="fill: none; stroke: #b0b0b0; stroke-opacity: 0.3; stroke-width: 0.8; stroke-linecap: square"/>
     </g>
     <g id="line2d_22">
      <g>
       <use xlink:href="#md675b992a9" x="54.281563" y="236.039826" style="stroke: #000000; stroke-width: 0.8"/>
      </g>
     </g>
     <g id="text_12">
      <!-- $\mathdefault{10^{1}}$ -->
      <g transform="translate(29.681563 239.839044) scale(0.1 -0.1)">
       <use xlink:href="#DejaVuSans-31" transform="translate(0 0.684375)"/>
       <use xlink:href="#DejaVuSans-30" transform="translate(63.623047 0.684375)"/>
       <use xlink:href="#DejaVuSans-31" transform="translate(128.203125 38.965625) scale(0.7)"/>
      </g>
     </g>
    </g>
    <g id="ytick_6">
     <g id="line2d_23">
      <path d="M 54.281563 186.190911 
L 992.739509 186.190911 
" clip-path="url(#pcdb0358bd0)" style="fill: none; stroke: #b0b0b0; stroke-opacity: 0.3; stroke-width: 0.8; stroke-linecap: square"/>
     </g>
     <g id="line2d_24">
      <g>
       <use xlink:href="#md675b992a9" x="54.281563" y="186.190911" style="stroke: #000000; stroke-width: 0.8"/>
      </g>
     </g>
     <g id="text_13">
      <!-- $\mathdefault{10^{2}}$ -->
      <g transform="translate(29.681563 189.990129) scale(0.1 -0.1)">
       <use xlink:href="#DejaVuSans-31" transform="translate(0 0.765625)"/>
       <use xlink:href="#DejaVuSans-30" transform="translate(63.623047 0.765625)"/>
       <use xlink:href="#DejaVuSans-32" transform="translate(128.203125 39.046875) scale(0.7)"/>
      </g>
     </g>
    </g>
    <g id="ytick_7">
     <g id="line2d_25">
      <path d="M 54.281563 136.341996 
L 992.739509 136.341996 
" clip-path="url(#pcdb0358bd0)" style="fill: none; stroke: #b0b0b0; stroke-opacity: 0.3; stroke-width: 0.8; stroke-linecap: square"/>
     </g>
     <g id="line2d_26">
      <g>
       <use xlink:href="#md675b992a9" x="54.281563" y="136.341996" style="stroke: #000000; stroke-width: 0.8"/>
      </g>
     </g>
     <g id="text_14">
      <!-- $\mathdefault{10^{3}}$ -->
      <g transform="translate(29.681563 140.141214) scale(0.1 -0.1)">
       <use xlink:href="#DejaVuSans-31" transform="translate(0 0.765625)"/>
       <use xlink:href="#DejaVuSans-30" transform="translate(63.623047 0.765625)"/>
       <use xlink:href="#DejaVuSans-33" transform="translate(128.203125 39.046875) scale(0.7)"/>
      </g>
     </g>
    </g>
    <g id="ytick_8">
     <g id="line2d_27">
      <path d="M 54.281563 86.493081 
L 992.739509 86.493081 
" clip-path="url(#pcdb0358bd0)" style="fill: none; stroke: #b0b0b0; stroke-opacity: 0.3; stroke-width: 0.8; stroke-linecap: square"/>
     </g>
     <g id="line2d_28">
      <g>
       <use xlink:href="#md675b992a9" x="54.281563" y="86.493081" style="stroke: #000000; stroke-width: 0.8"/>
      </g>
     </g>
     <g id="text_15">
      <!-- $\mathdefault{10^{4}}$ -->
      <g transform="translate(29.681563 90.292299) scale(0.1 -0.1)">
       <use xlink:href="#DejaVuSans-31" transform="translate(0 0.684375)"/>
       <use xlink:href="#DejaVuSans-30" transform="translate(63.623047 0.684375)"/>
       <use xlink:href="#DejaVuSans-34" transform="translate(128.203125 38.965625) scale(0.7)"/>
      </g>
     </g>
    </g>
    <g id="ytick_9">
     <g id="line2d_29">
      <path d="M 54.281563 36.644165 
L 992.739509 36.644165 
" clip-path="url(#pcdb0358bd0)" style="fill: none; stroke: #b0b0b0; stroke-opacity: 0.3; stroke-width: 0.8; stroke-linecap: square"/>
     </g>
     <g id="line2d_30">
      <g>
       <use xlink:href="#md675b992a9" x="54.281563" y="36.644165" style="stroke: #000000; stroke-width: 0.8"/>
      </g>
     </g>
     <g id="text_16">
      <!-- $\mathdefault{10^{5}}$ -->
      <g transform="translate(29.681563 40.443384) scale(0.1 -0.1)">
       <defs>
        <path id="DejaVuSans-35" d="M 691 4666 
L 3169 4666 
L 3169 4134 
L 1269 4134 
L 1269 2991 
Q 1406 3038 1543 3061 
Q 1681 3084 1819 3084 
Q 2600 3084 3056 2656 
Q 3513 2228 3513 1497 
Q 3513 744 3044 326 
Q 2575 -91 1722 -91 
Q 1428 -91 1123 -41 
Q 819 9 494 109 
L 494 744 
Q 775 591 1075 516 
Q 1375 441 1709 441 
Q 2250 441 2565 725 
Q 2881 1009 2881 1497 
Q 2881 1984 2565 2268 
Q 2250 2553 1709 2553 
Q 1456 2553 1204 2497 
Q 953 2441 691 2322 
L 691 4666 
z
" transform="scale(0.015625)"/>
       </defs>
       <use xlink:href="#DejaVuSans-31" transform="translate(0 0.684375)"/>
       <use xlink:href="#DejaVuSans-30" transform="translate(63.623047 0.684375)"/>
       <use xlink:href="#DejaVuSans-35" transform="translate(128.203125 38.965625) scale(0.7)"/>
      </g>
     </g>
    </g>
    <g id="ytick_10">
     <g id="line2d_31">
      <defs>
       <path id="m3fbc3b0a5e" d="M 0 0 
L -2 0 
" style="stroke: #000000; stroke-width: 0.6"/>
      </defs>
      <g>
       <use xlink:href="#m3fbc3b0a5e" x="54.281563" y="455.272363" style="stroke: #000000; stroke-width: 0.6"/>
      </g>
     </g>
    </g>
    <g id="ytick_11">
     <g id="line2d_32">
      <g>
       <use xlink:href="#m3fbc3b0a5e" x="54.281563" y="450.441504" style="stroke: #000000; stroke-width: 0.6"/>
      </g>
     </g>
    </g>
    <g id="ytick_12">
     <g id="line2d_33">
      <g>
       <use xlink:href="#m3fbc3b0a5e" x="54.281563" y="446.494405" style="stroke: #000000; stroke-width: 0.6"/>
      </g>
     </g>
    </g>
    <g id="ytick_13">
     <g id="line2d_34">
      <g>
       <use xlink:href="#m3fbc3b0a5e" x="54.281563" y="443.15718" style="stroke: #000000; stroke-width: 0.6"/>
      </g>
     </g>
    </g>
    <g id="ytick_14">
     <g id="line2d_35">
      <g>
       <use xlink:href="#m3fbc3b0a5e" x="54.281563" y="440.266345" style="stroke: #000000; stroke-width: 0.6"/>
      </g>
     </g>
    </g>
    <g id="ytick_15">
     <g id="line2d_36">
      <g>
       <use xlink:href="#m3fbc3b0a5e" x="54.281563" y="437.716447" style="stroke: #000000; stroke-width: 0.6"/>
      </g>
     </g>
    </g>
    <g id="ytick_16">
     <g id="line2d_37">
      <g>
       <use xlink:href="#m3fbc3b0a5e" x="54.281563" y="420.429467" style="stroke: #000000; stroke-width: 0.6"/>
      </g>
     </g>
    </g>
    <g id="ytick_17">
     <g id="line2d_38">
      <g>
       <use xlink:href="#m3fbc3b0a5e" x="54.281563" y="411.651509" style="stroke: #000000; stroke-width: 0.6"/>
      </g>
     </g>
    </g>
    <g id="ytick_18">
     <g id="line2d_39">
      <g>
       <use xlink:href="#m3fbc3b0a5e" x="54.281563" y="405.423448" style="stroke: #000000; stroke-width: 0.6"/>
      </g>
     </g>
    </g>
    <g id="ytick_19">
     <g id="line2d_40">
      <g>
       <use xlink:href="#m3fbc3b0a5e" x="54.281563" y="400.592589" style="stroke: #000000; stroke-width: 0.6"/>
      </g>
     </g>
    </g>
    <g id="ytick_20">
     <g id="line2d_41">
      <g>
       <use xlink:href="#m3fbc3b0a5e" x="54.281563" y="396.64549" style="stroke: #000000; stroke-width: 0.6"/>
      </g>
     </g>
    </g>
    <g id="ytick_21">
     <g id="line2d_42">
      <g>
       <use xlink:href="#m3fbc3b0a5e" x="54.281563" y="393.308265" style="stroke: #000000; stroke-width: 0.6"/>
      </g>
     </g>
    </g>
    <g id="ytick_22">
     <g id="line2d_43">
      <g>
       <use xlink:href="#m3fbc3b0a5e" x="54.281563" y="390.41743" style="stroke: #000000; stroke-width: 0.6"/>
      </g>
     </g>
    </g>
    <g id="ytick_23">
     <g id="line2d_44">
      <g>
       <use xlink:href="#m3fbc3b0a5e" x="54.281563" y="387.867532" style="stroke: #000000; stroke-width: 0.6"/>
      </g>
     </g>
    </g>
    <g id="ytick_24">
     <g id="line2d_45">
      <g>
       <use xlink:href="#m3fbc3b0a5e" x="54.281563" y="370.580552" style="stroke: #000000; stroke-width: 0.6"/>
      </g>
     </g>
    </g>
    <g id="ytick_25">
     <g id="line2d_46">
      <g>
       <use xlink:href="#m3fbc3b0a5e" x="54.281563" y="361.802594" style="stroke: #000000; stroke-width: 0.6"/>
      </g>
     </g>
    </g>
    <g id="ytick_26">
     <g id="line2d_47">
      <g>
       <use xlink:href="#m3fbc3b0a5e" x="54.281563" y="355.574533" style="stroke: #000000; stroke-width: 0.6"/>
      </g>
     </g>
    </g>
    <g id="ytick_27">
     <g id="line2d_48">
      <g>
       <use xlink:href="#m3fbc3b0a5e" x="54.281563" y="350.743674" style="stroke: #000000; stroke-width: 0.6"/>
      </g>
     </g>
    </g>
    <g id="ytick_28">
     <g id="line2d_49">
      <g>
       <use xlink:href="#m3fbc3b0a5e" x="54.281563" y="346.796575" style="stroke: #000000; stroke-width: 0.6"/>
      </g>
     </g>
    </g>
    <g id="ytick_29">
     <g id="line2d_50">
      <g>
       <use xlink:href="#m3fbc3b0a5e" x="54.281563" y="343.45935" style="stroke: #000000; stroke-width: 0.6"/>
      </g>
     </g>
    </g>
    <g id="ytick_30">
     <g id="line2d_51">
      <g>
       <use xlink:href="#m3fbc3b0a5e" x="54.281563" y="340.568515" style="stroke: #000000; stroke-width: 0.6"/>
      </g>
     </g>
    </g>
    <g id="ytick_31">
     <g id="line2d_52">
      <g>
       <use xlink:href="#m3fbc3b0a5e" x="54.281563" y="338.018617" style="stroke: #000000; stroke-width: 0.6"/>
      </g>
     </g>
    </g>
    <g id="ytick_32">
     <g id="line2d_53">
      <g>
       <use xlink:href="#m3fbc3b0a5e" x="54.281563" y="320.731637" style="stroke: #000000; stroke-width: 0.6"/>
      </g>
     </g>
    </g>
    <g id="ytick_33">
     <g id="line2d_54">
      <g>
       <use xlink:href="#m3fbc3b0a5e" x="54.281563" y="311.953679" style="stroke: #000000; stroke-width: 0.6"/>
      </g>
     </g>
    </g>
    <g id="ytick_34">
     <g id="line2d_55">
      <g>
       <use xlink:href="#m3fbc3b0a5e" x="54.281563" y="305.725618" style="stroke: #000000; stroke-width: 0.6"/>
      </g>
     </g>
    </g>
    <g id="ytick_35">
     <g id="line2d_56">
      <g>
       <use xlink:href="#m3fbc3b0a5e" x="54.281563" y="300.894759" style="stroke: #000000; stroke-width: 0.6"/>
      </g>
     </g>
    </g>
    <g id="ytick_36">
     <g id="line2d_57">
      <g>
       <use xlink:href="#m3fbc3b0a5e" x="54.281563" y="296.94766" style="stroke: #000000; stroke-width: 0.6"/>
      </g>
     </g>
    </g>
    <g id="ytick_37">
     <g id="line2d_58">
      <g>
       <use xlink:href="#m3fbc3b0a5e" x="54.281563" y="293.610435" style="stroke: #000000; stroke-width: 0.6"/>
      </g>
     </g>
    </g>
    <g id="ytick_38">
     <g id="line2d_59">
      <g>
       <use xlink:href="#m3fbc3b0a5e" x="54.281563" y="290.7196" style="stroke: #000000; stroke-width: 0.6"/>
      </g>
     </g>
    </g>
    <g id="ytick_39">
     <g id="line2d_60">
      <g>
       <use xlink:href="#m3fbc3b0a5e" x="54.281563" y="288.169702" style="stroke: #000000; stroke-width: 0.6"/>
      </g>
     </g>
    </g>
    <g id="ytick_40">
     <g id="line2d_61">
      <g>
       <use xlink:href="#m3fbc3b0a5e" x="54.281563" y="270.882722" style="stroke: #000000; stroke-width: 0.6"/>
      </g>
     </g>
    </g>
    <g id="ytick_41">
     <g id="line2d_62">
      <g>
       <use xlink:href="#m3fbc3b0a5e" x="54.281563" y="262.104764" style="stroke: #000000; stroke-width: 0.6"/>
      </g>
     </g>
    </g>
    <g id="ytick_42">
     <g id="line2d_63">
      <g>
       <use xlink:href="#m3fbc3b0a5e" x="54.281563" y="255.876703" style="stroke: #000000; stroke-width: 0.6"/>
      </g>
     </g>
    </g>
    <g id="ytick_43">
     <g id="line2d_64">
      <g>
       <use xlink:href="#m3fbc3b0a5e" x="54.281563" y="251.045844" style="stroke: #000000; stroke-width: 0.6"/>
      </g>
     </g>
    </g>
    <g id="ytick_44">
     <g id="line2d_65">
      <g>
       <use xlink:href="#m3fbc3b0a5e" x="54.281563" y="247.098745" style="stroke: #000000; stroke-width: 0.6"/>
      </g>
     </g>
    </g>
    <g id="ytick_45">
     <g id="line2d_66">
      <g>
       <use xlink:href="#m3fbc3b0a5e" x="54.281563" y="243.76152" style="stroke: #000000; stroke-width: 0.6"/>
      </g>
     </g>
    </g>
    <g id="ytick_46">
     <g id="line2d_67">
      <g>
       <use xlink:href="#m3fbc3b0a5e" x="54.281563" y="240.870685" style="stroke: #000000; stroke-width: 0.6"/>
      </g>
     </g>
    </g>
    <g id="ytick_47">
     <g id="line2d_68">
      <g>
       <use xlink:href="#m3fbc3b0a5e" x="54.281563" y="238.320787" style="stroke: #000000; stroke-width: 0.6"/>
      </g>
     </g>
    </g>
    <g id="ytick_48">
     <g id="line2d_69">
      <g>
       <use xlink:href="#m3fbc3b0a5e" x="54.281563" y="221.033807" style="stroke: #000000; stroke-width: 0.6"/>
      </g>
     </g>
    </g>
    <g id="ytick_49">
     <g id="line2d_70">
      <g>
       <use xlink:href="#m3fbc3b0a5e" x="54.281563" y="212.255849" style="stroke: #000000; stroke-width: 0.6"/>
      </g>
     </g>
    </g>
    <g id="ytick_50">
     <g id="line2d_71">
      <g>
       <use xlink:href="#m3fbc3b0a5e" x="54.281563" y="206.027788" style="stroke: #000000; stroke-width: 0.6"/>
      </g>
     </g>
    </g>
    <g id="ytick_51">
     <g id="line2d_72">
      <g>
       <use xlink:href="#m3fbc3b0a5e" x="54.281563" y="201.196929" style="stroke: #000000; stroke-width: 0.6"/>
      </g>
     </g>
    </g>
    <g id="ytick_52">
     <g id="line2d_73">
      <g>
       <use xlink:href="#m3fbc3b0a5e" x="54.281563" y="197.24983" style="stroke: #000000; stroke-width: 0.6"/>
      </g>
     </g>
    </g>
    <g id="ytick_53">
     <g id="line2d_74">
      <g>
       <use xlink:href="#m3fbc3b0a5e" x="54.281563" y="193.912605" style="stroke: #000000; stroke-width: 0.6"/>
      </g>
     </g>
    </g>
    <g id="ytick_54">
     <g id="line2d_75">
      <g>
       <use xlink:href="#m3fbc3b0a5e" x="54.281563" y="191.02177" style="stroke: #000000; stroke-width: 0.6"/>
      </g>
     </g>
    </g>
    <g id="ytick_55">
     <g id="line2d_76">
      <g>
       <use xlink:href="#m3fbc3b0a5e" x="54.281563" y="188.471872" style="stroke: #000000; stroke-width: 0.6"/>
      </g>
     </g>
    </g>
    <g id="ytick_56">
     <g id="line2d_77">
      <g>
       <use xlink:href="#m3fbc3b0a5e" x="54.281563" y="171.184892" style="stroke: #000000; stroke-width: 0.6"/>
      </g>
     </g>
    </g>
    <g id="ytick_57">
     <g id="line2d_78">
      <g>
       <use xlink:href="#m3fbc3b0a5e" x="54.281563" y="162.406934" style="stroke: #000000; stroke-width: 0.6"/>
      </g>
     </g>
    </g>
    <g id="ytick_58">
     <g id="line2d_79">
      <g>
       <use xlink:href="#m3fbc3b0a5e" x="54.281563" y="156.178873" style="stroke: #000000; stroke-width: 0.6"/>
      </g>
     </g>
    </g>
    <g id="ytick_59">
     <g id="line2d_80">
      <g>
       <use xlink:href="#m3fbc3b0a5e" x="54.281563" y="151.348014" style="stroke: #000000; stroke-width: 0.6"/>
      </g>
     </g>
    </g>
    <g id="ytick_60">
     <g id="line2d_81">
      <g>
       <use xlink:href="#m3fbc3b0a5e" x="54.281563" y="147.400915" style="stroke: #000000; stroke-width: 0.6"/>
      </g>
     </g>
    </g>
    <g id="ytick_61">
     <g id="line2d_82">
      <g>
       <use xlink:href="#m3fbc3b0a5e" x="54.281563" y="144.06369" style="stroke: #000000; stroke-width: 0.6"/>
      </g>
     </g>
    </g>
    <g id="ytick_62">
     <g id="line2d_83">
      <g>
       <use xlink:href="#m3fbc3b0a5e" x="54.281563" y="141.172855" style="stroke: #000000; stroke-width: 0.6"/>
      </g>
     </g>
    </g>
    <g id="ytick_63">
     <g id="line2d_84">
      <g>
       <use xlink:href="#m3fbc3b0a5e" x="54.281563" y="138.622957" style="stroke: #000000; stroke-width: 0.6"/>
      </g>
     </g>
    </g>
    <g id="ytick_64">
     <g id="line2d_85">
      <g>
       <use xlink:href="#m3fbc3b0a5e" x="54.281563" y="121.335977" style="stroke: #000000; stroke-width: 0.6"/>
      </g>
     </g>
    </g>
    <g id="ytick_65">
     <g id="line2d_86">
      <g>
       <use xlink:href="#m3fbc3b0a5e" x="54.281563" y="112.558019" style="stroke: #000000; stroke-width: 0.6"/>
      </g>
     </g>
    </g>
    <g id="ytick_66">
     <g id="line2d_87">
      <g>
       <use xlink:href="#m3fbc3b0a5e" x="54.281563" y="106.329958" style="stroke: #000000; stroke-width: 0.6"/>
      </g>
     </g>
    </g>
    <g id="ytick_67">
     <g id="line2d_88">
      <g>
       <use xlink:href="#m3fbc3b0a5e" x="54.281563" y="101.499099" style="stroke: #000000; stroke-width: 0.6"/>
      </g>
     </g>
    </g>
    <g id="ytick_68">
     <g id="line2d_89">
      <g>
       <use xlink:href="#m3fbc3b0a5e" x="54.281563" y="97.552" style="stroke: #000000; stroke-width: 0.6"/>
      </g>
     </g>
    </g>
    <g id="ytick_69">
     <g id="line2d_90">
      <g>
       <use xlink:href="#m3fbc3b0a5e" x="54.281563" y="94.214775" style="stroke: #000000; stroke-width: 0.6"/>
      </g>
     </g>
    </g>
    <g id="ytick_70">
     <g id="line2d_91">
      <g>
       <use xlink:href="#m3fbc3b0a5e" x="54.281563" y="91.32394" style="stroke: #000000; stroke-width: 0.6"/>
      </g>
     </g>
    </g>
    <g id="ytick_71">
     <g id="line2d_92">
      <g>
       <use xlink:href="#m3fbc3b0a5e" x="54.281563" y="88.774042" style="stroke: #000000; stroke-width: 0.6"/>
      </g>
     </g>
    </g>
    <g id="ytick_72">
     <g id="line2d_93">
      <g>
       <use xlink:href="#m3fbc3b0a5e" x="54.281563" y="71.487062" style="stroke: #000000; stroke-width: 0.6"/>
      </g>
     </g>
    </g>
    <g id="ytick_73">
     <g id="line2d_94">
      <g>
       <use xlink:href="#m3fbc3b0a5e" x="54.281563" y="62.709104" style="stroke: #000000; stroke-width: 0.6"/>
      </g>
     </g>
    </g>
    <g id="ytick_74">
     <g id="line2d_95">
      <g>
       <use xlink:href="#m3fbc3b0a5e" x="54.281563" y="56.481043" style="stroke: #000000; stroke-width: 0.6"/>
      </g>
     </g>
    </g>
    <g id="ytick_75">
     <g id="line2d_96">
      <g>
       <use xlink:href="#m3fbc3b0a5e" x="54.281563" y="51.650184" style="stroke: #000000; stroke-width: 0.6"/>
      </g>
     </g>
    </g>
    <g id="ytick_76">
     <g id="line2d_97">
      <g>
       <use xlink:href="#m3fbc3b0a5e" x="54.281563" y="47.703085" style="stroke: #000000; stroke-width: 0.6"/>
      </g>
     </g>
    </g>
    <g id="ytick_77">
     <g id="line2d_98">
      <g>
       <use xlink:href="#m3fbc3b0a5e" x="54.281563" y="44.36586" style="stroke: #000000; stroke-width: 0.6"/>
      </g>
     </g>
    </g>
    <g id="ytick_78">
     <g id="line2d_99">
      <g>
       <use xlink:href="#m3fbc3b0a5e" x="54.281563" y="41.475024" style="stroke: #000000; stroke-width: 0.6"/>
      </g>
     </g>
    </g>
    <g id="ytick_79">
     <g id="line2d_100">
      <g>
       <use xlink:href="#m3fbc3b0a5e" x="54.281563" y="38.925127" style="stroke: #000000; stroke-width: 0.6"/>
      </g>
     </g>
    </g>
    <g id="text_17">
     <!-- Position Error [m] -->
     <g transform="translate(17.077969 296.696641) rotate(-90) scale(0.13 -0.13)">
      <defs>
       <path id="DejaVuSans-50" d="M 1259 4147 
L 1259 2394 
L 2053 2394 
Q 2494 2394 2734 2622 
Q 2975 2850 2975 3272 
Q 2975 3691 2734 3919 
Q 2494 4147 2053 4147 
L 1259 4147 
z
M 628 4666 
L 2053 4666 
Q 2838 4666 3239 4311 
Q 3641 3956 3641 3272 
Q 3641 2581 3239 2228 
Q 2838 1875 2053 1875 
L 1259 1875 
L 1259 0 
L 628 0 
L 628 4666 
z
" transform="scale(0.015625)"/>
       <path id="DejaVuSans-6f" d="M 1959 3097 
Q 1497 3097 1228 2736 
Q 959 2375 959 1747 
Q 959 1119 1226 758 
Q 1494 397 1959 397 
Q 2419 397 2687 759 
Q 2956 1122 2956 1747 
Q 2956 2369 2687 2733 
Q 2419 3097 1959 3097 
z
M 1959 3584 
Q 2709 3584 3137 3096 
Q 3566 2609 3566 1747 
Q 3566 888 3137 398 
Q 2709 -91 1959 -91 
Q 1206 -91 779 398 
Q 353 888 353 1747 
Q 353 2609 779 3096 
Q 1206 3584 1959 3584 
z
" transform="scale(0.015625)"/>
       <path id="DejaVuSans-74" d="M 1172 4494 
L 1172 3500 
L 2356 3500 
L 2356 3053 
L 1172 3053 
L 1172 1153 
Q 1172 725 1289 603 
Q 1406 481 1766 481 
L 2356 481 
L 2356 0 
L 1766 0 
Q 1100 0 847 248 
Q 594 497 594 1153 
L 594 3053 
L 172 3053 
L 172 3500 
L 594 3500 
L 594 4494 
L 1172 4494 
z
" transform="scale(0.015625)"/>
       <path id="DejaVuSans-6e" d="M 3513 2113 
L 3513 0 
L 2938 0 
L 2938 2094 
Q 2938 2591 2744 2837 
Q 2550 3084 2163 3084 
Q 1697 3084 1428 2787 
Q 1159 2491 1159 1978 
L 1159 0 
L 581 0 
L 581 3500 
L 1159 3500 
L 1159 2956 
Q 1366 3272 1645 3428 
Q 1925 3584 2291 3584 
Q 2894 3584 3203 3211 
Q 3513 2838 3513 2113 
z
" transform="scale(0.015625)"/>
       <path id="DejaVuSans-45" d="M 628 4666 
L 3578 4666 
L 3578 4134 
L 1259 4134 
L 1259 2753 
L 3481 2753 
L 3481 2222 
L 1259 2222 
L 1259 531 
L 3634 531 
L 3634 0 
L 628 0 
L 628 4666 
z
" transform="scale(0.015625)"/>
       <path id="DejaVuSans-72" d="M 2631 2963 
Q 2534 3019 2420 3045 
Q 2306 3072 2169 3072 
Q 1681 3072 1420 2755 
Q 1159 2438 1159 1844 
L 1159 0 
L 581 0 
L 581 3500 
L 1159 3500 
L 1159 2956 
Q 1341 3275 1631 3429 
Q 1922 3584 2338 3584 
Q 2397 3584 2469 3576 
Q 2541 3569 2628 3553 
L 2631 2963 
z
" transform="scale(0.015625)"/>
      </defs>
      <use xlink:href="#DejaVuSans-50"/>
      <use xlink:href="#DejaVuSans-6f" x="56.677734"/>
      <use xlink:href="#DejaVuSans-73" x="117.859375"/>
      <use xlink:href="#DejaVuSans-69" x="169.958984"/>
      <use xlink:href="#DejaVuSans-74" x="197.742188"/>
      <use xlink:href="#DejaVuSans-69" x="236.951172"/>
      <use xlink:href="#DejaVuSans-6f" x="264.734375"/>
      <use xlink:href="#DejaVuSans-6e" x="325.916016"/>
      <use xlink:href="#DejaVuSans-20" x="389.294922"/>
      <use xlink:href="#DejaVuSans-45" x="421.082031"/>
      <use xlink:href="#DejaVuSans-72" x="484.265625"/>
      <use xlink:href="#DejaVuSans-72" x="523.628906"/>
      <use xlink:href="#DejaVuSans-6f" x="562.492188"/>
      <use xlink:href="#DejaVuSans-72" x="623.673828"/>
      <use xlink:href="#DejaVuSans-20" x="664.787109"/>
      <use xlink:href="#DejaVuSans-5b" x="696.574219"/>
      <use xlink:href="#DejaVuSans-6d" x="735.587891"/>
      <use xlink:href="#DejaVuSans-5d" x="833"/>
     </g>
    </g>
   </g>
   <g id="line2d_101">
    <path d="M 54.359678 496.897344 
L 54.437985 412.254726 
L 54.750831 370.864097 
L 55.141887 346.906475 
L 55.689367 327.127052 
L 56.393269 310.251736 
L 57.253594 295.104292 
L 58.19213 282.485992 
L 59.130666 272.826576 
L 60.147413 264.591647 
L 61.477006 255.680166 
L 62.806599 248.157426 
L 64.136192 241.866124 
L 65.856842 234.8429 
L 67.49928 229.038094 
L 69.376352 223.275565 
L 71.331636 217.954918 
L 73.443342 212.887472 
L 75.63326 208.176266 
L 78.136023 203.358637 
L 80.560575 199.158518 
L 83.297972 194.85124 
L 86.270003 190.617698 
L 89.320246 186.66623 
L 92.526911 182.866493 
L 95.96821 179.128114 
L 99.644143 175.462211 
L 103.554711 171.875636 
L 107.699912 168.372529 
L 112.157959 164.896732 
L 116.928851 161.462852 
L 122.0908 158.030441 
L 127.487383 154.70956 
L 133.275022 151.411937 
L 139.53193 148.106396 
L 146.179895 144.851492 
L 153.140704 141.68643 
L 160.727205 138.480767 
L 168.861185 135.288169 
L 177.542645 132.121484 
L 186.849795 128.965385 
L 196.782636 125.832751 
L 207.49759 122.689434 
L 218.916447 119.573289 
L 231.117417 116.474381 
L 244.256923 113.368326 
L 258.491388 110.236637 
L 273.586178 107.145928 
L 289.775927 104.059637 
L 307.217057 100.964113 
L 325.909569 97.875366 
L 345.931673 94.794566 
L 367.439794 91.712556 
L 390.512141 88.633562 
L 415.226926 85.561729 
L 441.818784 82.48329 
L 470.287714 79.413192 
L 500.946562 76.333687 
L 533.795328 73.260731 
L 568.990434 70.193614 
L 606.766514 67.126361 
L 647.358203 64.055884 
L 690.921923 60.986046 
L 737.614096 57.921032 
L 787.825781 54.850299 
L 841.713399 51.780044 
L 899.433372 48.71651 
L 961.533181 45.645931 
L 992.739509 44.181293 
L 992.739509 44.181293 
" clip-path="url(#pcdb0358bd0)" style="fill: none; stroke-dasharray: 7.4,3.2; stroke-dashoffset: 0; stroke: #ff0000; stroke-width: 2"/>
   </g>
   <g id="line2d_102">
    <path d="M 54.359678 496.897344 
L 54.437985 412.254726 
L 54.750831 370.864097 
L 55.141887 346.906475 
L 55.689367 327.127052 
L 56.393269 310.251736 
L 57.253594 295.104292 
L 58.19213 282.485992 
L 59.130666 272.826576 
L 60.147413 264.591647 
L 61.477006 255.680166 
L 62.806599 248.157426 
L 64.136192 241.866124 
L 65.856842 234.8429 
L 67.49928 229.038094 
L 69.376352 223.275565 
L 71.331636 217.954918 
L 73.443342 212.887472 
L 75.63326 208.176266 
L 78.136023 203.358637 
L 80.560575 199.158518 
L 83.297972 194.85124 
L 86.270003 190.617698 
L 89.320246 186.66623 
L 92.526911 182.866493 
L 95.96821 179.128114 
L 99.644143 175.462211 
L 103.554711 171.875636 
L 107.699912 168.372529 
L 112.157959 164.896732 
L 116.928851 161.462852 
L 122.0908 158.030441 
L 127.487383 154.70956 
L 133.275022 151.411937 
L 139.53193 148.106396 
L 146.179895 144.851492 
L 153.140704 141.68643 
L 160.727205 138.480767 
L 168.861185 135.288169 
L 177.542645 132.121484 
L 186.849795 128.965385 
L 196.782636 125.832751 
L 207.49759 122.689434 
L 218.916447 119.573289 
L 231.117417 116.474381 
L 244.256923 113.368326 
L 258.491388 110.236637 
L 273.586178 107.145928 
L 289.775927 104.059637 
L 307.217057 100.964113 
L 325.909569 97.875366 
L 345.931673 94.794566 
L 367.439794 91.712556 
L 390.512141 88.633562 
L 415.226926 85.561729 
L 441.818784 82.48329 
L 470.287714 79.413192 
L 500.946562 76.333687 
L 533.795328 73.260731 
L 568.990434 70.193614 
L 606.766514 67.126361 
L 647.358203 64.055884 
L 690.921923 60.986046 
L 737.614096 57.921032 
L 787.825781 54.850299 
L 841.713399 51.780044 
L 899.433372 48.71651 
L 961.533181 45.645931 
L 992.739509 44.181293 
L 992.739509 44.181293 
" clip-path="url(#pcdb0358bd0)" style="fill: none; stroke: #008000; stroke-width: 2; stroke-linecap: square"/>
   </g>
   <g id="line2d_103">
    <path d="M 54.359669 496.897344 
L 54.437985 419.859483 
L 54.672619 404.520502 
L 54.907253 394.704711 
L 55.063676 390.589884 
L 55.376521 384.798911 
L 55.454733 385.600598 
L 55.532944 385.698932 
L 55.767578 382.083153 
L 55.924001 378.040191 
L 56.002212 378.187007 
L 56.862537 370.954748 
L 56.940748 371.158189 
L 57.253594 367.859044 
L 57.722862 362.45262 
L 57.879284 361.33565 
L 57.957496 361.451755 
L 58.270341 359.152517 
L 58.348553 359.003316 
L 58.504975 358.028356 
L 58.583187 358.615946 
L 58.661398 358.553448 
L 59.130666 357.283238 
L 59.287089 355.925179 
L 59.3653 355.916802 
L 60.382048 351.851963 
L 60.929527 349.810409 
L 61.164161 349.007359 
L 61.242372 348.981471 
L 62.102697 346.127944 
L 62.493754 345.309335 
L 62.571965 345.418767 
L 62.728388 345.471313 
L 62.806599 345.425966 
L 62.963022 345.059168 
L 63.041233 345.153506 
L 63.823347 342.589161 
L 63.901558 342.709108 
L 63.979769 342.507895 
L 64.057981 342.699942 
L 64.292615 342.247653 
L 64.527249 342.045013 
L 64.918306 341.105925 
L 64.996517 341.060247 
L 65.15294 340.709326 
L 65.231151 340.822097 
L 65.309362 340.74191 
L 65.543996 340.126181 
L 65.622208 340.103005 
L 65.77863 339.548795 
L 65.856842 339.686058 
L 66.32611 338.625884 
L 66.482533 338.602414 
L 67.030012 337.300365 
L 67.186435 337.051279 
L 67.264646 337.055911 
L 68.437816 334.889804 
L 68.907084 334.300261 
L 68.985296 334.095021 
L 69.063507 334.150731 
L 69.21993 334.085411 
L 69.454564 333.47401 
L 69.689198 333.577093 
L 69.84562 333.383857 
L 70.080254 333.143258 
L 70.158466 333.283737 
L 70.236677 333.259227 
L 70.549523 332.590108 
L 70.627734 332.426062 
L 70.705945 332.479273 
L 71.488059 331.91291 
L 71.800904 331.99131 
L 71.879115 331.841819 
L 71.957327 331.895445 
L 72.191961 331.687704 
L 73.130497 330.449985 
L 73.599765 330.551387 
L 73.677976 330.378541 
L 73.756188 330.429988 
L 74.147244 330.241295 
L 75.085781 329.412327 
L 75.242203 329.513069 
L 75.320415 329.445252 
L 75.398626 329.611136 
L 75.711471 329.105377 
L 75.946105 329.110589 
L 76.18074 328.847448 
L 76.415374 328.989695 
L 76.571796 328.749044 
L 77.432121 328.563949 
L 77.744966 328.210165 
L 77.9796 328.262783 
L 78.292446 328.091353 
L 78.761714 327.6337 
L 78.996348 327.606528 
L 79.074559 327.605141 
L 79.230982 327.516306 
L 79.387405 327.554387 
L 79.70025 327.405859 
L 79.856673 327.325096 
L 80.013095 327.223615 
L 80.091307 327.129212 
L 80.169518 327.202888 
L 80.24773 327.133047 
L 80.325941 327.233372 
L 80.638786 326.944969 
L 80.87342 326.992848 
L 81.108054 326.864531 
L 81.4209 327.018898 
L 81.499111 327.124006 
L 81.733745 326.969746 
L 82.04659 326.817518 
L 82.359436 326.943883 
L 82.906915 326.393501 
L 83.297972 326.086465 
L 83.532606 325.93293 
L 83.689029 325.939933 
L 84.001874 325.737191 
L 84.158297 325.549022 
L 84.31472 325.572663 
L 84.627565 325.34219 
L 84.862199 325.128739 
L 85.018622 325.125425 
L 85.331467 325.166743 
L 85.48789 325.23662 
L 86.191792 324.742355 
L 86.348215 324.666873 
L 87.130328 323.768123 
L 87.443173 323.725722 
L 87.521385 323.863712 
L 87.599596 323.796981 
L 87.677807 323.901871 
L 87.756019 323.807546 
L 87.83423 323.878292 
L 87.912441 323.999697 
L 88.303498 323.661946 
L 88.38171 323.680722 
L 88.772766 323.305734 
L 88.929189 323.261402 
L 89.085612 323.25757 
L 89.867725 322.754167 
L 89.945936 322.853708 
L 90.258782 322.613325 
L 90.571627 322.358067 
L 90.806261 322.174145 
L 91.431952 321.663545 
L 92.135854 321.619259 
L 92.4487 321.450654 
L 92.605122 321.49251 
L 92.839756 321.531583 
L 92.996179 321.510998 
L 93.387236 321.22343 
L 93.62187 321.315822 
L 93.778292 321.233031 
L 94.247561 321.118561 
L 94.325772 321.180332 
L 94.482195 320.988644 
L 94.951463 320.726939 
L 95.186097 320.465455 
L 95.342519 320.434905 
L 96.359267 319.943839 
L 96.437478 319.825545 
L 96.593901 319.92003 
L 96.750324 319.792644 
L 97.845282 319.294706 
L 98.236339 318.935965 
L 98.314551 318.95377 
L 98.627396 318.603437 
L 99.800566 318.270109 
L 100.113412 318.118335 
L 100.269834 318.051794 
L 100.739102 317.853028 
L 100.973736 317.723036 
L 101.443004 317.733572 
L 102.303329 317.130265 
L 102.381541 317.253983 
L 102.459752 317.187554 
L 102.616175 317.305536 
L 103.163654 317.051253 
L 103.476499 317.145448 
L 103.711133 316.939548 
L 103.945767 316.943842 
L 105.040726 316.175862 
L 105.197149 316.108979 
L 105.82284 315.66413 
L 105.979263 315.602297 
L 106.213897 315.413856 
L 106.370319 315.418597 
L 106.917799 315.24159 
L 107.543489 315.024333 
L 108.403814 314.773602 
L 108.638448 314.602144 
L 108.873082 314.601419 
L 109.420562 314.47799 
L 109.655196 314.410393 
L 110.124464 314.183602 
L 110.280887 314.169366 
L 110.515521 314.097332 
L 110.906577 313.763723 
L 111.845113 313.25587 
L 112.079748 313.229721 
L 112.314382 313.057438 
L 112.392593 313.094369 
L 112.627227 312.885642 
L 112.940072 312.785332 
L 113.252918 312.740205 
L 113.722186 312.610405 
L 114.347877 312.060783 
L 114.660722 311.87087 
L 114.817145 311.828366 
L 114.973567 311.756826 
L 115.051779 311.826556 
L 115.442835 311.530777 
L 115.677469 311.534162 
L 116.30316 311.243037 
L 116.537794 311.244047 
L 117.163485 310.783993 
L 117.789176 310.54265 
L 118.02381 310.372283 
L 118.414867 310.315612 
L 118.649501 310.129886 
L 119.040557 309.938127 
L 119.666248 309.624166 
L 120.291939 309.336003 
L 120.91763 309.255242 
L 121.152264 309.106904 
L 121.386898 309.1436 
L 121.856166 308.925935 
L 122.638279 308.58379 
L 122.794702 308.507423 
L 122.951125 308.518431 
L 123.26397 308.318916 
L 123.811449 308.054194 
L 124.280718 307.709669 
L 125.61031 307.24018 
L 126.705269 306.587872 
L 127.565594 306.215889 
L 128.191285 305.760654 
L 128.425919 305.659321 
L 128.816976 305.530373 
L 129.208032 305.289417 
L 129.911935 304.926448 
L 131.006893 304.358724 
L 132.101852 303.99083 
L 132.649332 303.59981 
L 132.883966 303.507993 
L 133.1186 303.348707 
L 133.509656 303.167013 
L 134.448193 302.832211 
L 135.386729 302.607783 
L 135.621363 302.465344 
L 135.934208 302.315846 
L 136.872744 301.827728 
L 137.733069 301.557306 
L 137.967703 301.491226 
L 138.515183 301.211313 
L 138.749817 301.11824 
L 140.392255 300.428939 
L 140.7051 300.29826 
L 140.939734 300.195214 
L 141.330791 300.066213 
L 142.269327 299.620968 
L 142.582173 299.544385 
L 142.816807 299.441502 
L 143.129652 299.330943 
L 143.442497 299.146298 
L 143.833554 299.049973 
L 144.537456 298.836167 
L 149.151926 296.74401 
L 149.621194 296.648115 
L 149.934039 296.417318 
L 150.55973 296.093634 
L 153.45355 295.066698 
L 153.844607 294.973021 
L 154.157452 294.830972 
L 155.408833 294.327555 
L 156.894849 293.75224 
L 157.285906 293.621155 
L 158.068019 293.296837 
L 158.459076 293.065462 
L 158.850133 292.943843 
L 159.319401 292.86636 
L 163.621025 291.28362 
L 164.168504 291.160956 
L 165.028829 290.828856 
L 165.341674 290.76197 
L 166.514845 290.308632 
L 167.688015 290.044191 
L 168.782974 289.719869 
L 169.330453 289.492858 
L 170.89468 289.13799 
L 172.06785 288.771377 
L 172.61533 288.645242 
L 172.928175 288.580413 
L 173.475654 288.406552 
L 174.335979 288.215908 
L 175.430938 287.89076 
L 175.665572 287.852611 
L 176.13484 287.756766 
L 176.525897 287.716156 
L 179.263294 287.095085 
L 179.57614 287.033475 
L 180.123619 286.954435 
L 181.140366 286.740174 
L 184.26882 285.936535 
L 185.833047 285.681597 
L 186.536949 285.579436 
L 187.631908 285.430936 
L 191.22963 284.895387 
L 192.089955 284.827301 
L 193.028491 284.689993 
L 193.810605 284.599719 
L 194.514507 284.487051 
L 195.609466 284.347812 
L 196.939058 284.204118 
L 197.564749 284.159728 
L 198.034017 284.11947 
L 200.849626 283.865742 
L 201.240682 283.825805 
L 202.101007 283.696807 
L 206.246209 283.391431 
L 206.715477 283.385565 
L 208.123281 283.304438 
L 208.592549 283.291877 
L 211.251735 283.166355 
L 211.799214 283.176001 
L 212.190271 283.184385 
L 212.815962 283.17919 
L 213.128807 283.179005 
L 213.754498 283.163633 
L 214.301977 283.178578 
L 216.257261 283.133488 
L 216.80474 283.133107 
L 221.262787 283.017591 
L 222.357746 283.125688 
L 227.285061 283.147925 
L 229.55319 283.276944 
L 230.72636 283.351166 
L 231.27384 283.393473 
L 231.821319 283.441476 
L 232.134164 283.45663 
L 232.759855 283.48675 
L 233.229123 283.568286 
L 233.854814 283.559797 
L 234.636927 283.680125 
L 235.106196 283.660054 
L 235.888309 283.737056 
L 236.670422 283.812487 
L 237.452536 283.928688 
L 237.765381 283.986917 
L 238.234649 284.017091 
L 239.251397 284.116702 
L 240.346356 284.140226 
L 240.737412 284.191729 
L 241.675949 284.23062 
L 242.223428 284.276661 
L 242.614485 284.308169 
L 243.161964 284.37569 
L 243.709444 284.426768 
L 244.569768 284.505933 
L 247.5418 284.857338 
L 249.418872 285.073192 
L 250.670253 285.234415 
L 253.016594 285.510188 
L 253.407651 285.577154 
L 254.424398 285.769917 
L 254.815455 285.884768 
L 256.84895 286.168739 
L 258.804233 286.503601 
L 259.19529 286.534467 
L 262.871223 287.349452 
L 263.653337 287.506941 
L 264.279028 287.631023 
L 264.904718 287.714133 
L 265.295775 287.800153 
L 265.765043 287.938086 
L 266.625368 288.095177 
L 271.39626 289.04565 
L 271.94374 289.135892 
L 272.960487 289.355476 
L 273.273333 289.413407 
L 273.664389 291.648107 
L 274.993982 299.527026 
L 275.854307 304.715396 
L 276.401786 306.773283 
L 276.63642 307.056943 
L 276.714632 307.105647 
L 277.027477 306.620081 
L 277.496745 304.842997 
L 278.200647 300.948907 
L 280.07772 290.079219 
L 281.407313 284.097782 
L 282.42406 280.254139 
L 283.753653 276.08418 
L 285.787148 270.883676 
L 286.803896 268.637035 
L 288.759179 264.959357 
L 290.714463 261.750553 
L 293.608283 257.764926 
L 297.753484 253.124995 
L 300.021613 250.929943 
L 302.524376 248.756133 
L 307.686325 244.861137 
L 310.345511 243.097806 
L 314.256078 240.723199 
L 318.870548 238.23367 
L 322.781115 236.318695 
L 328.099486 233.95014 
L 337.641271 230.230401 
L 349.138339 226.417566 
L 359.69687 223.367822 
L 368.691175 221.049269 
L 375.730196 219.384684 
L 386.99263 216.948688 
L 395.830512 215.20204 
L 403.80807 213.7665 
L 427.115051 213.674675 
L 427.271474 212.537394 
L 449.092439 213.89025 
L 474.198282 215.597044 
L 516.588831 218.523715 
L 556.320195 220.982269 
L 590.029286 222.676785 
L 608.096107 223.409066 
L 625.224392 223.863665 
L 646.419666 224.021699 
L 651.581615 224.423145 
L 658.698848 224.728878 
L 663.235106 224.763561 
L 669.88307 224.584739 
L 680.206968 223.80035 
L 689.905175 222.595365 
L 695.536392 221.741984 
L 712.664677 218.746612 
L 728.776214 215.682016 
L 748.485474 212.004247 
L 772.809202 207.841309 
L 777.267249 207.260528 
L 887.07598 207.23 
L 992.739509 207.186483 
L 992.739509 207.186483 
" clip-path="url(#pcdb0358bd0)" style="fill: none; stroke-dasharray: 12.8,3.2,2,3.2; stroke-dashoffset: 0; stroke: #0000ff; stroke-width: 2"/>
   </g>
   <g id="line2d_104">
    <path d="M 54.359593 496.897344 
L 54.437985 366.633453 
L 54.750831 342.849476 
L 55.141887 329.727176 
L 55.689367 319.065499 
L 56.315058 311.104585 
L 57.097171 304.05948 
L 57.957496 298.287207 
L 58.974243 293.000561 
L 60.069202 288.460298 
L 61.320584 284.222603 
L 62.650177 280.476892 
L 64.136192 276.938279 
L 65.77863 273.601054 
L 67.577491 270.454013 
L 69.532775 267.483731 
L 71.644481 264.676321 
L 73.990822 261.93226 
L 76.493585 259.344214 
L 79.230982 256.828223 
L 82.281225 254.331174 
L 85.566101 251.929604 
L 89.163823 249.573003 
L 93.152602 247.229031 
L 97.532437 244.917599 
L 102.303329 242.652303 
L 107.621701 240.378395 
L 113.40934 238.148283 
L 119.822671 235.918929 
L 126.861692 233.710425 
L 134.604615 231.515952 
L 143.207863 229.313128 
L 152.671436 227.123755 
L 163.073545 224.948025 
L 174.570613 222.773156 
L 187.319063 220.592367 
L 201.318894 218.426255 
L 216.80474 216.258441 
L 233.933025 214.089243 
L 250.044563 212.255849 
L 293.060803 212.145554 
L 313.473965 211.807687 
L 335.138508 211.223086 
L 359.07118 210.349752 
L 387.149053 209.094378 
L 406.389044 208.275392 
L 428.522855 208.383453 
L 469.114544 211.615075 
L 547.560525 217.932427 
L 567.347995 219.242686 
L 583.772378 220.11167 
L 598.3979 220.665653 
L 612.084885 220.963019 
L 625.69366 221.033807 
L 646.732512 221.137973 
L 659.480961 223.377401 
L 671.056241 225.63318 
L 681.45835 227.882631 
L 690.843711 230.134567 
L 699.368748 232.405276 
L 707.03346 234.672412 
L 713.99427 236.959697 
L 720.251178 239.244675 
L 725.960606 241.563603 
L 731.122555 243.89803 
L 735.815235 246.263534 
L 740.038648 248.63882 
L 743.871004 251.045844 
L 747.390515 253.520102 
L 750.518969 255.98522 
L 753.412788 258.546 
L 756.071974 261.200231 
L 758.496526 263.9413 
L 760.686444 266.755961 
L 762.641727 269.621252 
L 764.440588 272.640847 
L 766.083027 275.822098 
L 767.569042 279.168391 
L 768.976846 282.900703 
L 770.228228 286.862894 
L 771.323187 291.046796 
L 772.339934 295.822778 
L 773.200259 300.894759 
L 773.982373 306.836072 
L 774.686275 314.074867 
L 775.233754 322.071184 
L 775.703022 332.524495 
L 776.015868 344.086905 
L 776.250502 360.405392 
L 776.406924 390.41743 
L 776.407092 496.897344 
L 776.407092 496.897344 
" clip-path="url(#pcdb0358bd0)" style="fill: none; stroke-dasharray: 2,3.3; stroke-dashoffset: 0; stroke: #ffa500; stroke-width: 2"/>
   </g>
   <g id="patch_3">
    <path d="M 54.281563 455.437656 
L 54.281563 24.597656 
" style="fill: none; stroke: #000000; stroke-width: 0.8; stroke-linejoin: miter; stroke-linecap: square"/>
   </g>
   <g id="patch_4">
    <path d="M 992.739509 455.437656 
L 992.739509 24.597656 
" style="fill: none; stroke: #000000; stroke-width: 0.8; stroke-linejoin: miter; stroke-linecap: square"/>
   </g>
   <g id="patch_5">
    <path d="M 54.281563 455.437656 
L 992.739509 455.437656 
" style="fill: none; stroke: #000000; stroke-width: 0.8; stroke-linejoin: miter; stroke-linecap: square"/>
   </g>
   <g id="patch_6">
    <path d="M 54.281563 24.597656 
L 992.739509 24.597656 
" style="fill: none; stroke: #000000; stroke-width: 0.8; stroke-linejoin: miter; stroke-linecap: square"/>
   </g>
   <g id="text_18">
    <!-- Chapter 6 Comparison: Position Error vs Time -->
    <g transform="translate(330.210926 18.597656) scale(0.15 -0.15)">
     <defs>
      <path id="DejaVuSans-Bold-43" d="M 4288 256 
Q 3956 84 3597 -3 
Q 3238 -91 2847 -91 
Q 1681 -91 1000 561 
Q 319 1213 319 2328 
Q 319 3447 1000 4098 
Q 1681 4750 2847 4750 
Q 3238 4750 3597 4662 
Q 3956 4575 4288 4403 
L 4288 3438 
Q 3953 3666 3628 3772 
Q 3303 3878 2944 3878 
Q 2300 3878 1931 3465 
Q 1563 3053 1563 2328 
Q 1563 1606 1931 1193 
Q 2300 781 2944 781 
Q 3303 781 3628 887 
Q 3953 994 4288 1222 
L 4288 256 
z
" transform="scale(0.015625)"/>
      <path id="DejaVuSans-Bold-68" d="M 4056 2131 
L 4056 0 
L 2931 0 
L 2931 347 
L 2931 1625 
Q 2931 2084 2911 2256 
Q 2891 2428 2841 2509 
Q 2775 2619 2662 2680 
Q 2550 2741 2406 2741 
Q 2056 2741 1856 2470 
Q 1656 2200 1656 1722 
L 1656 0 
L 538 0 
L 538 4863 
L 1656 4863 
L 1656 2988 
Q 1909 3294 2193 3439 
Q 2478 3584 2822 3584 
Q 3428 3584 3742 3212 
Q 4056 2841 4056 2131 
z
" transform="scale(0.015625)"/>
      <path id="DejaVuSans-Bold-61" d="M 2106 1575 
Q 1756 1575 1579 1456 
Q 1403 1338 1403 1106 
Q 1403 894 1545 773 
Q 1688 653 1941 653 
Q 2256 653 2472 879 
Q 2688 1106 2688 1447 
L 2688 1575 
L 2106 1575 
z
M 3816 1997 
L 3816 0 
L 2688 0 
L 2688 519 
Q 2463 200 2181 54 
Q 1900 -91 1497 -91 
Q 953 -91 614 226 
Q 275 544 275 1050 
Q 275 1666 698 1953 
Q 1122 2241 2028 2241 
L 2688 2241 
L 2688 2328 
Q 2688 2594 2478 2717 
Q 2269 2841 1825 2841 
Q 1466 2841 1156 2769 
Q 847 2697 581 2553 
L 581 3406 
Q 941 3494 1303 3539 
Q 1666 3584 2028 3584 
Q 2975 3584 3395 3211 
Q 3816 2838 3816 1997 
z
" transform="scale(0.015625)"/>
      <path id="DejaVuSans-Bold-70" d="M 1656 506 
L 1656 -1331 
L 538 -1331 
L 538 3500 
L 1656 3500 
L 1656 2988 
Q 1888 3294 2169 3439 
Q 2450 3584 2816 3584 
Q 3463 3584 3878 3070 
Q 4294 2556 4294 1747 
Q 4294 938 3878 423 
Q 3463 -91 2816 -91 
Q 2450 -91 2169 54 
Q 1888 200 1656 506 
z
M 2400 2772 
Q 2041 2772 1848 2508 
Q 1656 2244 1656 1747 
Q 1656 1250 1848 986 
Q 2041 722 2400 722 
Q 2759 722 2948 984 
Q 3138 1247 3138 1747 
Q 3138 2247 2948 2509 
Q 2759 2772 2400 2772 
z
" transform="scale(0.015625)"/>
      <path id="DejaVuSans-Bold-74" d="M 1759 4494 
L 1759 3500 
L 2913 3500 
L 2913 2700 
L 1759 2700 
L 1759 1216 
Q 1759 972 1856 886 
Q 1953 800 2241 800 
L 2816 800 
L 2816 0 
L 1856 0 
Q 1194 0 917 276 
Q 641 553 641 1216 
L 641 2700 
L 84 2700 
L 84 3500 
L 641 3500 
L 641 4494 
L 1759 4494 
z
" transform="scale(0.015625)"/>
      <path id="DejaVuSans-Bold-65" d="M 4031 1759 
L 4031 1441 
L 1416 1441 
Q 1456 1047 1700 850 
Q 1944 653 2381 653 
Q 2734 653 3104 758 
Q 3475 863 3866 1075 
L 3866 213 
Q 3469 63 3072 -14 
Q 2675 -91 2278 -91 
Q 1328 -91 801 392 
Q 275 875 275 1747 
Q 275 2603 792 3093 
Q 1309 3584 2216 3584 
Q 3041 3584 3536 3087 
Q 4031 2591 4031 1759 
z
M 2881 2131 
Q 2881 2450 2695 2645 
Q 2509 2841 2209 2841 
Q 1884 2841 1681 2658 
Q 1478 2475 1428 2131 
L 2881 2131 
z
" transform="scale(0.015625)"/>
      <path id="DejaVuSans-Bold-72" d="M 3138 2547 
Q 2991 2616 2845 2648 
Q 2700 2681 2553 2681 
Q 2122 2681 1889 2404 
Q 1656 2128 1656 1613 
L 1656 0 
L 538 0 
L 538 3500 
L 1656 3500 
L 1656 2925 
Q 1872 3269 2151 3426 
Q 2431 3584 2822 3584 
Q 2878 3584 2943 3579 
Q 3009 3575 3134 3559 
L 3138 2547 
z
" transform="scale(0.015625)"/>
      <path id="DejaVuSans-Bold-20" transform="scale(0.015625)"/>
      <path id="DejaVuSans-Bold-36" d="M 2316 2303 
Q 2000 2303 1842 2098 
Q 1684 1894 1684 1484 
Q 1684 1075 1842 870 
Q 2000 666 2316 666 
Q 2634 666 2792 870 
Q 2950 1075 2950 1484 
Q 2950 1894 2792 2098 
Q 2634 2303 2316 2303 
z
M 3803 4544 
L 3803 3681 
Q 3506 3822 3243 3889 
Q 2981 3956 2731 3956 
Q 2194 3956 1894 3657 
Q 1594 3359 1544 2772 
Q 1750 2925 1990 3001 
Q 2231 3078 2516 3078 
Q 3231 3078 3670 2659 
Q 4109 2241 4109 1563 
Q 4109 813 3618 361 
Q 3128 -91 2303 -91 
Q 1394 -91 895 523 
Q 397 1138 397 2266 
Q 397 3422 980 4083 
Q 1563 4744 2578 4744 
Q 2900 4744 3203 4694 
Q 3506 4644 3803 4544 
z
" transform="scale(0.015625)"/>
      <path id="DejaVuSans-Bold-6f" d="M 2203 2784 
Q 1831 2784 1636 2517 
Q 1441 2250 1441 1747 
Q 1441 1244 1636 976 
Q 1831 709 2203 709 
Q 2569 709 2762 976 
Q 2956 1244 2956 1747 
Q 2956 2250 2762 2517 
Q 2569 2784 2203 2784 
z
M 2203 3584 
Q 3106 3584 3614 3096 
Q 4122 2609 4122 1747 
Q 4122 884 3614 396 
Q 3106 -91 2203 -91 
Q 1297 -91 786 396 
Q 275 884 275 1747 
Q 275 2609 786 3096 
Q 1297 3584 2203 3584 
z
" transform="scale(0.015625)"/>
      <path id="DejaVuSans-Bold-6d" d="M 3781 2919 
Q 3994 3244 4286 3414 
Q 4578 3584 4928 3584 
Q 5531 3584 5847 3212 
Q 6163 2841 6163 2131 
L 6163 0 
L 5038 0 
L 5038 1825 
Q 5041 1866 5042 1909 
Q 5044 1953 5044 2034 
Q 5044 2406 4934 2573 
Q 4825 2741 4581 2741 
Q 4263 2741 4089 2478 
Q 3916 2216 3909 1719 
L 3909 0 
L 2784 0 
L 2784 1825 
Q 2784 2406 2684 2573 
Q 2584 2741 2328 2741 
Q 2006 2741 1831 2477 
Q 1656 2213 1656 1722 
L 1656 0 
L 531 0 
L 531 3500 
L 1656 3500 
L 1656 2988 
Q 1863 3284 2130 3434 
Q 2397 3584 2719 3584 
Q 3081 3584 3359 3409 
Q 3638 3234 3781 2919 
z
" transform="scale(0.015625)"/>
      <path id="DejaVuSans-Bold-69" d="M 538 3500 
L 1656 3500 
L 1656 0 
L 538 0 
L 538 3500 
z
M 538 4863 
L 1656 4863 
L 1656 3950 
L 538 3950 
L 538 4863 
z
" transform="scale(0.015625)"/>
      <path id="DejaVuSans-Bold-73" d="M 3272 3391 
L 3272 2541 
Q 2913 2691 2578 2766 
Q 2244 2841 1947 2841 
Q 1628 2841 1473 2761 
Q 1319 2681 1319 2516 
Q 1319 2381 1436 2309 
Q 1553 2238 1856 2203 
L 2053 2175 
Q 2913 2066 3209 1816 
Q 3506 1566 3506 1031 
Q 3506 472 3093 190 
Q 2681 -91 1863 -91 
Q 1516 -91 1145 -36 
Q 775 19 384 128 
L 384 978 
Q 719 816 1070 734 
Q 1422 653 1784 653 
Q 2113 653 2278 743 
Q 2444 834 2444 1013 
Q 2444 1163 2330 1236 
Q 2216 1309 1875 1350 
L 1678 1375 
Q 931 1469 631 1722 
Q 331 1975 331 2491 
Q 331 3047 712 3315 
Q 1094 3584 1881 3584 
Q 2191 3584 2531 3537 
Q 2872 3491 3272 3391 
z
" transform="scale(0.015625)"/>
      <path id="DejaVuSans-Bold-6e" d="M 4056 2131 
L 4056 0 
L 2931 0 
L 2931 347 
L 2931 1631 
Q 2931 2084 2911 2256 
Q 2891 2428 2841 2509 
Q 2775 2619 2662 2680 
Q 2550 2741 2406 2741 
Q 2056 2741 1856 2470 
Q 1656 2200 1656 1722 
L 1656 0 
L 538 0 
L 538 3500 
L 1656 3500 
L 1656 2988 
Q 1909 3294 2193 3439 
Q 2478 3584 2822 3584 
Q 3428 3584 3742 3212 
Q 4056 2841 4056 2131 
z
" transform="scale(0.015625)"/>
      <path id="DejaVuSans-Bold-3a" d="M 716 3500 
L 1844 3500 
L 1844 2291 
L 716 2291 
L 716 3500 
z
M 716 1209 
L 1844 1209 
L 1844 0 
L 716 0 
L 716 1209 
z
" transform="scale(0.015625)"/>
      <path id="DejaVuSans-Bold-50" d="M 588 4666 
L 2584 4666 
Q 3475 4666 3951 4270 
Q 4428 3875 4428 3144 
Q 4428 2409 3951 2014 
Q 3475 1619 2584 1619 
L 1791 1619 
L 1791 0 
L 588 0 
L 588 4666 
z
M 1791 3794 
L 1791 2491 
L 2456 2491 
Q 2806 2491 2997 2661 
Q 3188 2831 3188 3144 
Q 3188 3456 2997 3625 
Q 2806 3794 2456 3794 
L 1791 3794 
z
" transform="scale(0.015625)"/>
      <path id="DejaVuSans-Bold-45" d="M 588 4666 
L 3834 4666 
L 3834 3756 
L 1791 3756 
L 1791 2888 
L 3713 2888 
L 3713 1978 
L 1791 1978 
L 1791 909 
L 3903 909 
L 3903 0 
L 588 0 
L 588 4666 
z
" transform="scale(0.015625)"/>
      <path id="DejaVuSans-Bold-76" d="M 97 3500 
L 1216 3500 
L 2088 1081 
L 2956 3500 
L 4078 3500 
L 2700 0 
L 1472 0 
L 97 3500 
z
" transform="scale(0.015625)"/>
      <path id="DejaVuSans-Bold-54" d="M 31 4666 
L 4331 4666 
L 4331 3756 
L 2784 3756 
L 2784 0 
L 1581 0 
L 1581 3756 
L 31 3756 
L 31 4666 
z
" transform="scale(0.015625)"/>
     </defs>
     <use xlink:href="#DejaVuSans-Bold-43"/>
     <use xlink:href="#DejaVuSans-Bold-68" x="73.388672"/>
     <use xlink:href="#DejaVuSans-Bold-61" x="144.580078"/>
     <use xlink:href="#DejaVuSans-Bold-70" x="212.060547"/>
     <use xlink:href="#DejaVuSans-Bold-74" x="283.642578"/>
     <use xlink:href="#DejaVuSans-Bold-65" x="331.445312"/>
     <use xlink:href="#DejaVuSans-Bold-72" x="399.267578"/>
     <use xlink:href="#DejaVuSans-Bold-20" x="448.583984"/>
     <use xlink:href="#DejaVuSans-Bold-36" x="483.398438"/>
     <use xlink:href="#DejaVuSans-Bold-20" x="552.978516"/>
     <use xlink:href="#DejaVuSans-Bold-43" x="587.792969"/>
     <use xlink:href="#DejaVuSans-Bold-6f" x="661.181641"/>
     <use xlink:href="#DejaVuSans-Bold-6d" x="729.882812"/>
     <use xlink:href="#DejaVuSans-Bold-70" x="834.082031"/>
     <use xlink:href="#DejaVuSans-Bold-61" x="905.664062"/>
     <use xlink:href="#DejaVuSans-Bold-72" x="973.144531"/>
     <use xlink:href="#DejaVuSans-Bold-69" x="1022.460938"/>
     <use xlink:href="#DejaVuSans-Bold-73" x="1056.738281"/>
     <use xlink:href="#DejaVuSans-Bold-6f" x="1116.259766"/>
     <use xlink:href="#DejaVuSans-Bold-6e" x="1184.960938"/>
     <use xlink:href="#DejaVuSans-Bold-3a" x="1256.152344"/>
     <use xlink:href="#DejaVuSans-Bold-20" x="1296.142578"/>
     <use xlink:href="#DejaVuSans-Bold-50" x="1330.957031"/>
     <use xlink:href="#DejaVuSans-Bold-6f" x="1404.248047"/>
     <use xlink:href="#DejaVuSans-Bold-73" x="1472.949219"/>
     <use xlink:href="#DejaVuSans-Bold-69" x="1532.470703"/>
     <use xlink:href="#DejaVuSans-Bold-74" x="1566.748047"/>
     <use xlink:href="#DejaVuSans-Bold-69" x="1614.550781"/>
     <use xlink:href="#DejaVuSans-Bold-6f" x="1648.828125"/>
     <use xlink:href="#DejaVuSans-Bold-6e" x="1717.529297"/>
     <use xlink:href="#DejaVuSans-Bold-20" x="1788.720703"/>
     <use xlink:href="#DejaVuSans-Bold-45" x="1823.535156"/>
     <use xlink:href="#DejaVuSans-Bold-72" x="1891.845703"/>
     <use xlink:href="#DejaVuSans-Bold-72" x="1941.162109"/>
     <use xlink:href="#DejaVuSans-Bold-6f" x="1990.478516"/>
     <use xlink:href="#DejaVuSans-Bold-72" x="2059.179688"/>
     <use xlink:href="#DejaVuSans-Bold-20" x="2108.496094"/>
     <use xlink:href="#DejaVuSans-Bold-76" x="2143.310547"/>
     <use xlink:href="#DejaVuSans-Bold-73" x="2208.496094"/>
     <use xlink:href="#DejaVuSans-Bold-20" x="2268.017578"/>
     <use xlink:href="#DejaVuSans-Bold-54" x="2302.832031"/>
     <use xlink:href="#DejaVuSans-Bold-69" x="2371.044922"/>
     <use xlink:href="#DejaVuSans-Bold-6d" x="2405.322266"/>
     <use xlink:href="#DejaVuSans-Bold-65" x="2509.521484"/>
    </g>
   </g>
   <g id="legend_1">
    <g id="patch_7">
     <path d="M 61.981563 97.981406 
L 168.205469 97.981406 
Q 170.405469 97.981406 170.405469 95.781406 
L 170.405469 32.297656 
Q 170.405469 30.097656 168.205469 30.097656 
L 61.981563 30.097656 
Q 59.781563 30.097656 59.781563 32.297656 
L 59.781563 95.781406 
Q 59.781563 97.981406 61.981563 97.981406 
z
" style="fill: #ffffff; opacity: 0.8; stroke: #cccccc; stroke-linejoin: miter"/>
    </g>
    <g id="line2d_105">
     <path d="M 64.181563 39.005937 
L 75.181563 39.005937 
L 86.181563 39.005937 
" style="fill: none; stroke-dasharray: 7.4,3.2; stroke-dashoffset: 0; stroke: #ff0000; stroke-width: 2"/>
    </g>
    <g id="text_19">
     <!-- IMU Only -->
     <g transform="translate(94.981563 42.855937) scale(0.11 -0.11)">
      <defs>
       <path id="DejaVuSans-49" d="M 628 4666 
L 1259 4666 
L 1259 0 
L 628 0 
L 628 4666 
z
" transform="scale(0.015625)"/>
       <path id="DejaVuSans-4d" d="M 628 4666 
L 1569 4666 
L 2759 1491 
L 3956 4666 
L 4897 4666 
L 4897 0 
L 4281 0 
L 4281 4097 
L 3078 897 
L 2444 897 
L 1241 4097 
L 1241 0 
L 628 0 
L 628 4666 
z
" transform="scale(0.015625)"/>
       <path id="DejaVuSans-55" d="M 556 4666 
L 1191 4666 
L 1191 1831 
Q 1191 1081 1462 751 
Q 1734 422 2344 422 
Q 2950 422 3222 751 
Q 3494 1081 3494 1831 
L 3494 4666 
L 4128 4666 
L 4128 1753 
Q 4128 841 3676 375 
Q 3225 -91 2344 -91 
Q 1459 -91 1007 375 
Q 556 841 556 1753 
L 556 4666 
z
" transform="scale(0.015625)"/>
       <path id="DejaVuSans-4f" d="M 2522 4238 
Q 1834 4238 1429 3725 
Q 1025 3213 1025 2328 
Q 1025 1447 1429 934 
Q 1834 422 2522 422 
Q 3209 422 3611 934 
Q 4013 1447 4013 2328 
Q 4013 3213 3611 3725 
Q 3209 4238 2522 4238 
z
M 2522 4750 
Q 3503 4750 4090 4092 
Q 4678 3434 4678 2328 
Q 4678 1225 4090 567 
Q 3503 -91 2522 -91 
Q 1538 -91 948 565 
Q 359 1222 359 2328 
Q 359 3434 948 4092 
Q 1538 4750 2522 4750 
z
" transform="scale(0.015625)"/>
       <path id="DejaVuSans-6c" d="M 603 4863 
L 1178 4863 
L 1178 0 
L 603 0 
L 603 4863 
z
" transform="scale(0.015625)"/>
       <path id="DejaVuSans-79" d="M 2059 -325 
Q 1816 -950 1584 -1140 
Q 1353 -1331 966 -1331 
L 506 -1331 
L 506 -850 
L 844 -850 
Q 1081 -850 1212 -737 
Q 1344 -625 1503 -206 
L 1606 56 
L 191 3500 
L 800 3500 
L 1894 763 
L 2988 3500 
L 3597 3500 
L 2059 -325 
z
" transform="scale(0.015625)"/>
      </defs>
      <use xlink:href="#DejaVuSans-49"/>
      <use xlink:href="#DejaVuSans-4d" x="29.492188"/>
      <use xlink:href="#DejaVuSans-55" x="115.771484"/>
      <use xlink:href="#DejaVuSans-20" x="188.964844"/>
      <use xlink:href="#DejaVuSans-4f" x="220.751953"/>
      <use xlink:href="#DejaVuSans-6e" x="299.462891"/>
      <use xlink:href="#DejaVuSans-6c" x="362.841797"/>
      <use xlink:href="#DejaVuSans-79" x="390.625"/>
     </g>
    </g>
    <g id="line2d_106">
     <path d="M 64.181563 55.151875 
L 75.181563 55.151875 
L 86.181563 55.151875 
" style="fill: none; stroke: #008000; stroke-width: 2; stroke-linecap: square"/>
    </g>
    <g id="text_20">
     <!-- IMU + ZUPT -->
     <g transform="translate(94.981563 59.001875) scale(0.11 -0.11)">
      <defs>
       <path id="DejaVuSans-2b" d="M 2944 4013 
L 2944 2272 
L 4684 2272 
L 4684 1741 
L 2944 1741 
L 2944 0 
L 2419 0 
L 2419 1741 
L 678 1741 
L 678 2272 
L 2419 2272 
L 2419 4013 
L 2944 4013 
z
" transform="scale(0.015625)"/>
       <path id="DejaVuSans-5a" d="M 359 4666 
L 4025 4666 
L 4025 4184 
L 1075 531 
L 4097 531 
L 4097 0 
L 288 0 
L 288 481 
L 3238 4134 
L 359 4134 
L 359 4666 
z
" transform="scale(0.015625)"/>
      </defs>
      <use xlink:href="#DejaVuSans-49"/>
      <use xlink:href="#DejaVuSans-4d" x="29.492188"/>
      <use xlink:href="#DejaVuSans-55" x="115.771484"/>
      <use xlink:href="#DejaVuSans-20" x="188.964844"/>
      <use xlink:href="#DejaVuSans-2b" x="220.751953"/>
      <use xlink:href="#DejaVuSans-20" x="304.541016"/>
      <use xlink:href="#DejaVuSans-5a" x="336.328125"/>
      <use xlink:href="#DejaVuSans-55" x="404.833984"/>
      <use xlink:href="#DejaVuSans-50" x="478.027344"/>
      <use xlink:href="#DejaVuSans-54" x="538.330078"/>
     </g>
    </g>
    <g id="line2d_107">
     <path d="M 64.181563 71.297812 
L 75.181563 71.297812 
L 86.181563 71.297812 
" style="fill: none; stroke-dasharray: 12.8,3.2,2,3.2; stroke-dashoffset: 0; stroke: #0000ff; stroke-width: 2"/>
    </g>
    <g id="text_21">
     <!-- Wheel Odom -->
     <g transform="translate(94.981563 75.147812) scale(0.11 -0.11)">
      <defs>
       <path id="DejaVuSans-57" d="M 213 4666 
L 850 4666 
L 1831 722 
L 2809 4666 
L 3519 4666 
L 4500 722 
L 5478 4666 
L 6119 4666 
L 4947 0 
L 4153 0 
L 3169 4050 
L 2175 0 
L 1381 0 
L 213 4666 
z
" transform="scale(0.015625)"/>
       <path id="DejaVuSans-68" d="M 3513 2113 
L 3513 0 
L 2938 0 
L 2938 2094 
Q 2938 2591 2744 2837 
Q 2550 3084 2163 3084 
Q 1697 3084 1428 2787 
Q 1159 2491 1159 1978 
L 1159 0 
L 581 0 
L 581 4863 
L 1159 4863 
L 1159 2956 
Q 1366 3272 1645 3428 
Q 1925 3584 2291 3584 
Q 2894 3584 3203 3211 
Q 3513 2838 3513 2113 
z
" transform="scale(0.015625)"/>
       <path id="DejaVuSans-64" d="M 2906 2969 
L 2906 4863 
L 3481 4863 
L 3481 0 
L 2906 0 
L 2906 525 
Q 2725 213 2448 61 
Q 2172 -91 1784 -91 
Q 1150 -91 751 415 
Q 353 922 353 1747 
Q 353 2572 751 3078 
Q 1150 3584 1784 3584 
Q 2172 3584 2448 3432 
Q 2725 3281 2906 2969 
z
M 947 1747 
Q 947 1113 1208 752 
Q 1469 391 1925 391 
Q 2381 391 2643 752 
Q 2906 1113 2906 1747 
Q 2906 2381 2643 2742 
Q 2381 3103 1925 3103 
Q 1469 3103 1208 2742 
Q 947 2381 947 1747 
z
" transform="scale(0.015625)"/>
      </defs>
      <use xlink:href="#DejaVuSans-57"/>
      <use xlink:href="#DejaVuSans-68" x="98.876953"/>
      <use xlink:href="#DejaVuSans-65" x="162.255859"/>
      <use xlink:href="#DejaVuSans-65" x="223.779297"/>
      <use xlink:href="#DejaVuSans-6c" x="285.302734"/>
      <use xlink:href="#DejaVuSans-20" x="313.085938"/>
      <use xlink:href="#DejaVuSans-4f" x="344.873047"/>
      <use xlink:href="#DejaVuSans-64" x="423.583984"/>
      <use xlink:href="#DejaVuSans-6f" x="487.060547"/>
      <use xlink:href="#DejaVuSans-6d" x="548.242188"/>
     </g>
    </g>
    <g id="line2d_108">
     <path d="M 64.181563 87.44375 
L 75.181563 87.44375 
L 86.181563 87.44375 
" style="fill: none; stroke-dasharray: 2,3.3; stroke-dashoffset: 0; stroke: #ffa500; stroke-width: 2"/>
    </g>
    <g id="text_22">
     <!-- PDR (Mag) -->
     <g transform="translate(94.981563 91.29375) scale(0.11 -0.11)">
      <defs>
       <path id="DejaVuSans-44" d="M 1259 4147 
L 1259 519 
L 2022 519 
Q 2988 519 3436 956 
Q 3884 1394 3884 2338 
Q 3884 3275 3436 3711 
Q 2988 4147 2022 4147 
L 1259 4147 
z
M 628 4666 
L 1925 4666 
Q 3281 4666 3915 4102 
Q 4550 3538 4550 2338 
Q 4550 1131 3912 565 
Q 3275 0 1925 0 
L 628 0 
L 628 4666 
z
" transform="scale(0.015625)"/>
       <path id="DejaVuSans-52" d="M 2841 2188 
Q 3044 2119 3236 1894 
Q 3428 1669 3622 1275 
L 4263 0 
L 3584 0 
L 2988 1197 
Q 2756 1666 2539 1819 
Q 2322 1972 1947 1972 
L 1259 1972 
L 1259 0 
L 628 0 
L 628 4666 
L 2053 4666 
Q 2853 4666 3247 4331 
Q 3641 3997 3641 3322 
Q 3641 2881 3436 2590 
Q 3231 2300 2841 2188 
z
M 1259 4147 
L 1259 2491 
L 2053 2491 
Q 2509 2491 2742 2702 
Q 2975 2913 2975 3322 
Q 2975 3731 2742 3939 
Q 2509 4147 2053 4147 
L 1259 4147 
z
" transform="scale(0.015625)"/>
       <path id="DejaVuSans-28" d="M 1984 4856 
Q 1566 4138 1362 3434 
Q 1159 2731 1159 2009 
Q 1159 1288 1364 580 
Q 1569 -128 1984 -844 
L 1484 -844 
Q 1016 -109 783 600 
Q 550 1309 550 2009 
Q 550 2706 781 3412 
Q 1013 4119 1484 4856 
L 1984 4856 
z
" transform="scale(0.015625)"/>
       <path id="DejaVuSans-61" d="M 2194 1759 
Q 1497 1759 1228 1600 
Q 959 1441 959 1056 
Q 959 750 1161 570 
Q 1363 391 1709 391 
Q 2188 391 2477 730 
Q 2766 1069 2766 1631 
L 2766 1759 
L 2194 1759 
z
M 3341 1997 
L 3341 0 
L 2766 0 
L 2766 531 
Q 2569 213 2275 61 
Q 1981 -91 1556 -91 
Q 1019 -91 701 211 
Q 384 513 384 1019 
Q 384 1609 779 1909 
Q 1175 2209 1959 2209 
L 2766 2209 
L 2766 2266 
Q 2766 2663 2505 2880 
Q 2244 3097 1772 3097 
Q 1472 3097 1187 3025 
Q 903 2953 641 2809 
L 641 3341 
Q 956 3463 1253 3523 
Q 1550 3584 1831 3584 
Q 2591 3584 2966 3190 
Q 3341 2797 3341 1997 
z
" transform="scale(0.015625)"/>
       <path id="DejaVuSans-67" d="M 2906 1791 
Q 2906 2416 2648 2759 
Q 2391 3103 1925 3103 
Q 1463 3103 1205 2759 
Q 947 2416 947 1791 
Q 947 1169 1205 825 
Q 1463 481 1925 481 
Q 2391 481 2648 825 
Q 2906 1169 2906 1791 
z
M 3481 434 
Q 3481 -459 3084 -895 
Q 2688 -1331 1869 -1331 
Q 1566 -1331 1297 -1286 
Q 1028 -1241 775 -1147 
L 775 -588 
Q 1028 -725 1275 -790 
Q 1522 -856 1778 -856 
Q 2344 -856 2625 -561 
Q 2906 -266 2906 331 
L 2906 616 
Q 2728 306 2450 153 
Q 2172 0 1784 0 
Q 1141 0 747 490 
Q 353 981 353 1791 
Q 353 2603 747 3093 
Q 1141 3584 1784 3584 
Q 2172 3584 2450 3431 
Q 2728 3278 2906 2969 
L 2906 3500 
L 3481 3500 
L 3481 434 
z
" transform="scale(0.015625)"/>
       <path id="DejaVuSans-29" d="M 513 4856 
L 1013 4856 
Q 1481 4119 1714 3412 
Q 1947 2706 1947 2009 
Q 1947 1309 1714 600 
Q 1481 -109 1013 -844 
L 513 -844 
Q 928 -128 1133 580 
Q 1338 1288 1338 2009 
Q 1338 2731 1133 3434 
Q 928 4138 513 4856 
z
" transform="scale(0.015625)"/>
      </defs>
      <use xlink:href="#DejaVuSans-50"/>
      <use xlink:href="#DejaVuSans-44" x="60.302734"/>
      <use xlink:href="#DejaVuSans-52" x="137.304688"/>
      <use xlink:href="#DejaVuSans-20" x="206.787109"/>
      <use xlink:href="#DejaVuSans-28" x="238.574219"/>
      <use xlink:href="#DejaVuSans-4d" x="277.587891"/>
      <use xlink:href="#DejaVuSans-61" x="363.867188"/>
      <use xlink:href="#DejaVuSans-67" x="425.146484"/>
      <use xlink:href="#DejaVuSans-29" x="488.623047"/>
     </g>
    </g>
   </g>
  </g>
 </g>
 <defs>
  <clipPath id="pcdb0358bd0">
   <rect x="54.281563" y="24.597656" width="938.457946" height="430.84"/>
  </clipPath>
 </defs>
</svg>
