<?xml version="1.0" encoding="utf-8" standalone="no"?>
<!DOCTYPE svg PUBLIC "-//W3C//DTD SVG 1.1//EN"
  "http://www.w3.org/Graphics/SVG/1.1/DTD/svg11.dtd">
<svg xmlns:xlink="http://www.w3.org/1999/xlink" width="999.804509pt" height="495.897344pt" viewBox="0 0 999.804509 495.897344" xmlns="http://www.w3.org/2000/svg" version="1.1">
 <metadata>
  <rdf:RDF xmlns:dc="http://purl.org/dc/elements/1.1/" xmlns:cc="http://creativecommons.org/ns#" xmlns:rdf="http://www.w3.org/1999/02/22-rdf-syntax-ns#">
   <cc:Work>
    <dc:type rdf:resource="http://purl.org/dc/dcmitype/StillImage"/>
    <dc:date>2026-01-09T17:25:25.639618</dc:date>
    <dc:format>image/svg+xml</dc:format>
    <dc:creator>
     <cc:Agent>
      <dc:title>Matplotlib v3.9.2, https://matplotlib.org/</dc:title>
     </cc:Agent>
    </dc:creator>
   </cc:Work>
  </rdf:RDF>
 </metadata>
 <defs>
  <style type="text/css">*{stroke-linejoin: round; stroke-linecap: butt}</style>
 </defs>
 <g id="figure_1">
  <g id="patch_1">
   <path d="M 0 495.897344 
L 999.804509 495.897344 
L 999.804509 0 
L 0 0 
z
" style="fill: #ffffff"/>
  </g>
  <g id="axes_1">
   <g id="patch_2">
    <path d="M 54.281563 455.437656 
L 992.604509 455.437656 
L 992.604509 24.597656 
L 54.281563 24.597656 
z
" style="fill: #ffffff"/>
   </g>
   <g id="matplotlib.axis_1">
    <g id="xtick_1">
     <g id="line2d_1">
      <path d="M 54.281563 455.437656 
L 54.281563 24.597656 
" clip-path="url(#p99c6517ce5)" style="fill: none; stroke: #b0b0b0; stroke-opacity: 0.3; stroke-width: 0.8; stroke-linecap: square"/>
     </g>
     <g id="line2d_2">
      <defs>
       <path id="m144e5b798b" d="M 0 0 
L 0 3.5 
" style="stroke: #000000; stroke-width: 0.8"/>
      </defs>
      <g>
       <use xlink:href="#m144e5b798b" x="54.281563" y="455.437656" style="stroke: #000000; stroke-width: 0.8"/>
      </g>
     </g>
     <g id="text_1">
      <!-- 0 -->
      <g transform="translate(51.100313 470.036094) scale(0.1 -0.1)">
       <defs>
        <path id="DejaVuSans-30" d="M 2034 4250 
Q 1547 4250 1301 3770 
Q 1056 3291 1056 2328 
Q 1056 1369 1301 889 
Q 1547 409 2034 409 
Q 2525 409 2770 889 
Q 3016 1369 3016 2328 
Q 3016 3291 2770 3770 
Q 2525 4250 2034 4250 
z
M 2034 4750 
Q 2819 4750 3233 4129 
Q 3647 3509 3647 2328 
Q 3647 1150 3233 529 
Q 2819 -91 2034 -91 
Q 1250 -91 836 529 
Q 422 1150 422 2328 
Q 422 3509 836 4129 
Q 1250 4750 2034 4750 
z
" transform="scale(0.015625)"/>
       </defs>
       <use xlink:href="#DejaVuSans-30"/>
      </g>
     </g>
    </g>
    <g id="xtick_2">
     <g id="line2d_3">
      <path d="M 210.681754 455.437656 
L 210.681754 24.597656 
" clip-path="url(#p99c6517ce5)" style="fill: none; stroke: #b0b0b0; stroke-opacity: 0.3; stroke-width: 0.8; stroke-linecap: square"/>
     </g>
     <g id="line2d_4">
      <g>
       <use xlink:href="#m144e5b798b" x="210.681754" y="455.437656" style="stroke: #000000; stroke-width: 0.8"/>
      </g>
     </g>
     <g id="text_2">
      <!-- 20 -->
      <g transform="translate(204.319254 470.036094) scale(0.1 -0.1)">
       <defs>
        <path id="DejaVuSans-32" d="M 1228 531 
L 3431 531 
L 3431 0 
L 469 0 
L 469 531 
Q 828 903 1448 1529 
Q 2069 2156 2228 2338 
Q 2531 2678 2651 2914 
Q 2772 3150 2772 3378 
Q 2772 3750 2511 3984 
Q 2250 4219 1831 4219 
Q 1534 4219 1204 4116 
Q 875 4013 500 3803 
L 500 4441 
Q 881 4594 1212 4672 
Q 1544 4750 1819 4750 
Q 2544 4750 2975 4387 
Q 3406 4025 3406 3419 
Q 3406 3131 3298 2873 
Q 3191 2616 2906 2266 
Q 2828 2175 2409 1742 
Q 1991 1309 1228 531 
z
" transform="scale(0.015625)"/>
       </defs>
       <use xlink:href="#DejaVuSans-32"/>
       <use xlink:href="#DejaVuSans-30" x="63.623047"/>
      </g>
     </g>
    </g>
    <g id="xtick_3">
     <g id="line2d_5">
      <path d="M 367.081945 455.437656 
L 367.081945 24.597656 
" clip-path="url(#p99c6517ce5)" style="fill: none; stroke: #b0b0b0; stroke-opacity: 0.3; stroke-width: 0.8; stroke-linecap: square"/>
     </g>
     <g id="line2d_6">
      <g>
       <use xlink:href="#m144e5b798b" x="367.081945" y="455.437656" style="stroke: #000000; stroke-width: 0.8"/>
      </g>
     </g>
     <g id="text_3">
      <!-- 40 -->
      <g transform="translate(360.719445 470.036094) scale(0.1 -0.1)">
       <defs>
        <path id="DejaVuSans-34" d="M 2419 4116 
L 825 1625 
L 2419 1625 
L 2419 4116 
z
M 2253 4666 
L 3047 4666 
L 3047 1625 
L 3713 1625 
L 3713 1100 
L 3047 1100 
L 3047 0 
L 2419 0 
L 2419 1100 
L 313 1100 
L 313 1709 
L 2253 4666 
z
" transform="scale(0.015625)"/>
       </defs>
       <use xlink:href="#DejaVuSans-34"/>
       <use xlink:href="#DejaVuSans-30" x="63.623047"/>
      </g>
     </g>
    </g>
    <g id="xtick_4">
     <g id="line2d_7">
      <path d="M 523.482136 455.437656 
L 523.482136 24.597656 
" clip-path="url(#p99c6517ce5)" style="fill: none; stroke: #b0b0b0; stroke-opacity: 0.3; stroke-width: 0.8; stroke-linecap: square"/>
     </g>
     <g id="line2d_8">
      <g>
       <use xlink:href="#m144e5b798b" x="523.482136" y="455.437656" style="stroke: #000000; stroke-width: 0.8"/>
      </g>
     </g>
     <g id="text_4">
      <!-- 60 -->
      <g transform="translate(517.119636 470.036094) scale(0.1 -0.1)">
       <defs>
        <path id="DejaVuSans-36" d="M 2113 2584 
Q 1688 2584 1439 2293 
Q 1191 2003 1191 1497 
Q 1191 994 1439 701 
Q 1688 409 2113 409 
Q 2538 409 2786 701 
Q 3034 994 3034 1497 
Q 3034 2003 2786 2293 
Q 2538 2584 2113 2584 
z
M 3366 4563 
L 3366 3988 
Q 3128 4100 2886 4159 
Q 2644 4219 2406 4219 
Q 1781 4219 1451 3797 
Q 1122 3375 1075 2522 
Q 1259 2794 1537 2939 
Q 1816 3084 2150 3084 
Q 2853 3084 3261 2657 
Q 3669 2231 3669 1497 
Q 3669 778 3244 343 
Q 2819 -91 2113 -91 
Q 1303 -91 875 529 
Q 447 1150 447 2328 
Q 447 3434 972 4092 
Q 1497 4750 2381 4750 
Q 2619 4750 2861 4703 
Q 3103 4656 3366 4563 
z
" transform="scale(0.015625)"/>
       </defs>
       <use xlink:href="#DejaVuSans-36"/>
       <use xlink:href="#DejaVuSans-30" x="63.623047"/>
      </g>
     </g>
    </g>
    <g id="xtick_5">
     <g id="line2d_9">
      <path d="M 679.882327 455.437656 
L 679.882327 24.597656 
" clip-path="url(#p99c6517ce5)" style="fill: none; stroke: #b0b0b0; stroke-opacity: 0.3; stroke-width: 0.8; stroke-linecap: square"/>
     </g>
     <g id="line2d_10">
      <g>
       <use xlink:href="#m144e5b798b" x="679.882327" y="455.437656" style="stroke: #000000; stroke-width: 0.8"/>
      </g>
     </g>
     <g id="text_5">
      <!-- 80 -->
      <g transform="translate(673.519827 470.036094) scale(0.1 -0.1)">
       <defs>
        <path id="DejaVuSans-38" d="M 2034 2216 
Q 1584 2216 1326 1975 
Q 1069 1734 1069 1313 
Q 1069 891 1326 650 
Q 1584 409 2034 409 
Q 2484 409 2743 651 
Q 3003 894 3003 1313 
Q 3003 1734 2745 1975 
Q 2488 2216 2034 2216 
z
M 1403 2484 
Q 997 2584 770 2862 
Q 544 3141 544 3541 
Q 544 4100 942 4425 
Q 1341 4750 2034 4750 
Q 2731 4750 3128 4425 
Q 3525 4100 3525 3541 
Q 3525 3141 3298 2862 
Q 3072 2584 2669 2484 
Q 3125 2378 3379 2068 
Q 3634 1759 3634 1313 
Q 3634 634 3220 271 
Q 2806 -91 2034 -91 
Q 1263 -91 848 271 
Q 434 634 434 1313 
Q 434 1759 690 2068 
Q 947 2378 1403 2484 
z
M 1172 3481 
Q 1172 3119 1398 2916 
Q 1625 2713 2034 2713 
Q 2441 2713 2670 2916 
Q 2900 3119 2900 3481 
Q 2900 3844 2670 4047 
Q 2441 4250 2034 4250 
Q 1625 4250 1398 4047 
Q 1172 3844 1172 3481 
z
" transform="scale(0.015625)"/>
       </defs>
       <use xlink:href="#DejaVuSans-38"/>
       <use xlink:href="#DejaVuSans-30" x="63.623047"/>
      </g>
     </g>
    </g>
    <g id="xtick_6">
     <g id="line2d_11">
      <path d="M 836.282518 455.437656 
L 836.282518 24.597656 
" clip-path="url(#p99c6517ce5)" style="fill: none; stroke: #b0b0b0; stroke-opacity: 0.3; stroke-width: 0.8; stroke-linecap: square"/>
     </g>
     <g id="line2d_12">
      <g>
       <use xlink:href="#m144e5b798b" x="836.282518" y="455.437656" style="stroke: #000000; stroke-width: 0.8"/>
      </g>
     </g>
     <g id="text_6">
      <!-- 100 -->
      <g transform="translate(826.738768 470.036094) scale(0.1 -0.1)">
       <defs>
        <path id="DejaVuSans-31" d="M 794 531 
L 1825 531 
L 1825 4091 
L 703 3866 
L 703 4441 
L 1819 4666 
L 2450 4666 
L 2450 531 
L 3481 531 
L 3481 0 
L 794 0 
L 794 531 
z
" transform="scale(0.015625)"/>
       </defs>
       <use xlink:href="#DejaVuSans-31"/>
       <use xlink:href="#DejaVuSans-30" x="63.623047"/>
       <use xlink:href="#DejaVuSans-30" x="127.246094"/>
      </g>
     </g>
    </g>
    <g id="text_7">
     <!-- Time [s] -->
     <g transform="translate(497.015457 485.99375) scale(0.13 -0.13)">
      <defs>
       <path id="DejaVuSans-54" d="M -19 4666 
L 3928 4666 
L 3928 4134 
L 2272 4134 
L 2272 0 
L 1638 0 
L 1638 4134 
L -19 4134 
L -19 4666 
z
" transform="scale(0.015625)"/>
       <path id="DejaVuSans-69" d="M 603 3500 
L 1178 3500 
L 1178 0 
L 603 0 
L 603 3500 
z
M 603 4863 
L 1178 4863 
L 1178 4134 
L 603 4134 
L 603 4863 
z
" transform="scale(0.015625)"/>
       <path id="DejaVuSans-6d" d="M 3328 2828 
Q 3544 3216 3844 3400 
Q 4144 3584 4550 3584 
Q 5097 3584 5394 3201 
Q 5691 2819 5691 2113 
L 5691 0 
L 5113 0 
L 5113 2094 
Q 5113 2597 4934 2840 
Q 4756 3084 4391 3084 
Q 3944 3084 3684 2787 
Q 3425 2491 3425 1978 
L 3425 0 
L 2847 0 
L 2847 2094 
Q 2847 2600 2669 2842 
Q 2491 3084 2119 3084 
Q 1678 3084 1418 2786 
Q 1159 2488 1159 1978 
L 1159 0 
L 581 0 
L 581 3500 
L 1159 3500 
L 1159 2956 
Q 1356 3278 1631 3431 
Q 1906 3584 2284 3584 
Q 2666 3584 2933 3390 
Q 3200 3197 3328 2828 
z
" transform="scale(0.015625)"/>
       <path id="DejaVuSans-65" d="M 3597 1894 
L 3597 1613 
L 953 1613 
Q 991 1019 1311 708 
Q 1631 397 2203 397 
Q 2534 397 2845 478 
Q 3156 559 3463 722 
L 3463 178 
Q 3153 47 2828 -22 
Q 2503 -91 2169 -91 
Q 1331 -91 842 396 
Q 353 884 353 1716 
Q 353 2575 817 3079 
Q 1281 3584 2069 3584 
Q 2775 3584 3186 3129 
Q 3597 2675 3597 1894 
z
M 3022 2063 
Q 3016 2534 2758 2815 
Q 2500 3097 2075 3097 
Q 1594 3097 1305 2825 
Q 1016 2553 972 2059 
L 3022 2063 
z
" transform="scale(0.015625)"/>
       <path id="DejaVuSans-20" transform="scale(0.015625)"/>
       <path id="DejaVuSans-5b" d="M 550 4863 
L 1875 4863 
L 1875 4416 
L 1125 4416 
L 1125 -397 
L 1875 -397 
L 1875 -844 
L 550 -844 
L 550 4863 
z
" transform="scale(0.015625)"/>
       <path id="DejaVuSans-73" d="M 2834 3397 
L 2834 2853 
Q 2591 2978 2328 3040 
Q 2066 3103 1784 3103 
Q 1356 3103 1142 2972 
Q 928 2841 928 2578 
Q 928 2378 1081 2264 
Q 1234 2150 1697 2047 
L 1894 2003 
Q 2506 1872 2764 1633 
Q 3022 1394 3022 966 
Q 3022 478 2636 193 
Q 2250 -91 1575 -91 
Q 1294 -91 989 -36 
Q 684 19 347 128 
L 347 722 
Q 666 556 975 473 
Q 1284 391 1588 391 
Q 1994 391 2212 530 
Q 2431 669 2431 922 
Q 2431 1156 2273 1281 
Q 2116 1406 1581 1522 
L 1381 1569 
Q 847 1681 609 1914 
Q 372 2147 372 2553 
Q 372 3047 722 3315 
Q 1072 3584 1716 3584 
Q 2034 3584 2315 3537 
Q 2597 3491 2834 3397 
z
" transform="scale(0.015625)"/>
       <path id="DejaVuSans-5d" d="M 1947 4863 
L 1947 -844 
L 622 -844 
L 622 -397 
L 1369 -397 
L 1369 4416 
L 622 4416 
L 622 4863 
L 1947 4863 
z
" transform="scale(0.015625)"/>
      </defs>
      <use xlink:href="#DejaVuSans-54"/>
      <use xlink:href="#DejaVuSans-69" x="57.958984"/>
      <use xlink:href="#DejaVuSans-6d" x="85.742188"/>
      <use xlink:href="#DejaVuSans-65" x="183.154297"/>
      <use xlink:href="#DejaVuSans-20" x="244.677734"/>
      <use xlink:href="#DejaVuSans-5b" x="276.464844"/>
      <use xlink:href="#DejaVuSans-73" x="315.478516"/>
      <use xlink:href="#DejaVuSans-5d" x="367.578125"/>
     </g>
    </g>
   </g>
   <g id="matplotlib.axis_2">
    <g id="ytick_1">
     <g id="line2d_13">
      <path d="M 54.281563 453.059949 
L 992.604509 453.059949 
" clip-path="url(#p99c6517ce5)" style="fill: none; stroke: #b0b0b0; stroke-opacity: 0.3; stroke-width: 0.8; stroke-linecap: square"/>
     </g>
     <g id="line2d_14">
      <defs>
       <path id="mf5f3f24e15" d="M 0 0 
L -3.5 0 
" style="stroke: #000000; stroke-width: 0.8"/>
      </defs>
      <g>
       <use xlink:href="#mf5f3f24e15" x="54.281563" y="453.059949" style="stroke: #000000; stroke-width: 0.8"/>
      </g>
     </g>
     <g id="text_8">
      <!-- $\mathdefault{10^{-5}}$ -->
      <g transform="translate(23.781563 456.859167) scale(0.1 -0.1)">
       <defs>
        <path id="DejaVuSans-2212" d="M 678 2272 
L 4684 2272 
L 4684 1741 
L 678 1741 
L 678 2272 
z
" transform="scale(0.015625)"/>
        <path id="DejaVuSans-35" d="M 691 4666 
L 3169 4666 
L 3169 4134 
L 1269 4134 
L 1269 2991 
Q 1406 3038 1543 3061 
Q 1681 3084 1819 3084 
Q 2600 3084 3056 2656 
Q 3513 2228 3513 1497 
Q 3513 744 3044 326 
Q 2575 -91 1722 -91 
Q 1428 -91 1123 -41 
Q 819 9 494 109 
L 494 744 
Q 775 591 1075 516 
Q 1375 441 1709 441 
Q 2250 441 2565 725 
Q 2881 1009 2881 1497 
Q 2881 1984 2565 2268 
Q 2250 2553 1709 2553 
Q 1456 2553 1204 2497 
Q 953 2441 691 2322 
L 691 4666 
z
" transform="scale(0.015625)"/>
       </defs>
       <use xlink:href="#DejaVuSans-31" transform="translate(0 0.684375)"/>
       <use xlink:href="#DejaVuSans-30" transform="translate(63.623047 0.684375)"/>
       <use xlink:href="#DejaVuSans-2212" transform="translate(128.203125 38.965625) scale(0.7)"/>
       <use xlink:href="#DejaVuSans-35" transform="translate(186.855469 38.965625) scale(0.7)"/>
      </g>
     </g>
    </g>
    <g id="ytick_2">
     <g id="line2d_15">
      <path d="M 54.281563 403.073799 
L 992.604509 403.073799 
" clip-path="url(#p99c6517ce5)" style="fill: none; stroke: #b0b0b0; stroke-opacity: 0.3; stroke-width: 0.8; stroke-linecap: square"/>
     </g>
     <g id="line2d_16">
      <g>
       <use xlink:href="#mf5f3f24e15" x="54.281563" y="403.073799" style="stroke: #000000; stroke-width: 0.8"/>
      </g>
     </g>
     <g id="text_9">
      <!-- $\mathdefault{10^{-4}}$ -->
      <g transform="translate(23.781563 406.873017) scale(0.1 -0.1)">
       <use xlink:href="#DejaVuSans-31" transform="translate(0 0.684375)"/>
       <use xlink:href="#DejaVuSans-30" transform="translate(63.623047 0.684375)"/>
       <use xlink:href="#DejaVuSans-2212" transform="translate(128.203125 38.965625) scale(0.7)"/>
       <use xlink:href="#DejaVuSans-34" transform="translate(186.855469 38.965625) scale(0.7)"/>
      </g>
     </g>
    </g>
    <g id="ytick_3">
     <g id="line2d_17">
      <path d="M 54.281563 353.087649 
L 992.604509 353.087649 
" clip-path="url(#p99c6517ce5)" style="fill: none; stroke: #b0b0b0; stroke-opacity: 0.3; stroke-width: 0.8; stroke-linecap: square"/>
     </g>
     <g id="line2d_18">
      <g>
       <use xlink:href="#mf5f3f24e15" x="54.281563" y="353.087649" style="stroke: #000000; stroke-width: 0.8"/>
      </g>
     </g>
     <g id="text_10">
      <!-- $\mathdefault{10^{-3}}$ -->
      <g transform="translate(23.781563 356.886868) scale(0.1 -0.1)">
       <defs>
        <path id="DejaVuSans-33" d="M 2597 2516 
Q 3050 2419 3304 2112 
Q 3559 1806 3559 1356 
Q 3559 666 3084 287 
Q 2609 -91 1734 -91 
Q 1441 -91 1130 -33 
Q 819 25 488 141 
L 488 750 
Q 750 597 1062 519 
Q 1375 441 1716 441 
Q 2309 441 2620 675 
Q 2931 909 2931 1356 
Q 2931 1769 2642 2001 
Q 2353 2234 1838 2234 
L 1294 2234 
L 1294 2753 
L 1863 2753 
Q 2328 2753 2575 2939 
Q 2822 3125 2822 3475 
Q 2822 3834 2567 4026 
Q 2313 4219 1838 4219 
Q 1578 4219 1281 4162 
Q 984 4106 628 3988 
L 628 4550 
Q 988 4650 1302 4700 
Q 1616 4750 1894 4750 
Q 2613 4750 3031 4423 
Q 3450 4097 3450 3541 
Q 3450 3153 3228 2886 
Q 3006 2619 2597 2516 
z
" transform="scale(0.015625)"/>
       </defs>
       <use xlink:href="#DejaVuSans-31" transform="translate(0 0.765625)"/>
       <use xlink:href="#DejaVuSans-30" transform="translate(63.623047 0.765625)"/>
       <use xlink:href="#DejaVuSans-2212" transform="translate(128.203125 39.046875) scale(0.7)"/>
       <use xlink:href="#DejaVuSans-33" transform="translate(186.855469 39.046875) scale(0.7)"/>
      </g>
     </g>
    </g>
    <g id="ytick_4">
     <g id="line2d_19">
      <path d="M 54.281563 303.101499 
L 992.604509 303.101499 
" clip-path="url(#p99c6517ce5)" style="fill: none; stroke: #b0b0b0; stroke-opacity: 0.3; stroke-width: 0.8; stroke-linecap: square"/>
     </g>
     <g id="line2d_20">
      <g>
       <use xlink:href="#mf5f3f24e15" x="54.281563" y="303.101499" style="stroke: #000000; stroke-width: 0.8"/>
      </g>
     </g>
     <g id="text_11">
      <!-- $\mathdefault{10^{-2}}$ -->
      <g transform="translate(23.781563 306.900718) scale(0.1 -0.1)">
       <use xlink:href="#DejaVuSans-31" transform="translate(0 0.765625)"/>
       <use xlink:href="#DejaVuSans-30" transform="translate(63.623047 0.765625)"/>
       <use xlink:href="#DejaVuSans-2212" transform="translate(128.203125 39.046875) scale(0.7)"/>
       <use xlink:href="#DejaVuSans-32" transform="translate(186.855469 39.046875) scale(0.7)"/>
      </g>
     </g>
    </g>
    <g id="ytick_5">
     <g id="line2d_21">
      <path d="M 54.281563 253.115349 
L 992.604509 253.115349 
" clip-path="url(#p99c6517ce5)" style="fill: none; stroke: #b0b0b0; stroke-opacity: 0.3; stroke-width: 0.8; stroke-linecap: square"/>
     </g>
     <g id="line2d_22">
      <g>
       <use xlink:href="#mf5f3f24e15" x="54.281563" y="253.115349" style="stroke: #000000; stroke-width: 0.8"/>
      </g>
     </g>
     <g id="text_12">
      <!-- $\mathdefault{10^{-1}}$ -->
      <g transform="translate(23.781563 256.914568) scale(0.1 -0.1)">
       <use xlink:href="#DejaVuSans-31" transform="translate(0 0.684375)"/>
       <use xlink:href="#DejaVuSans-30" transform="translate(63.623047 0.684375)"/>
       <use xlink:href="#DejaVuSans-2212" transform="translate(128.203125 38.965625) scale(0.7)"/>
       <use xlink:href="#DejaVuSans-31" transform="translate(186.855469 38.965625) scale(0.7)"/>
      </g>
     </g>
    </g>
    <g id="ytick_6">
     <g id="line2d_23">
      <path d="M 54.281563 203.129199 
L 992.604509 203.129199 
" clip-path="url(#p99c6517ce5)" style="fill: none; stroke: #b0b0b0; stroke-opacity: 0.3; stroke-width: 0.8; stroke-linecap: square"/>
     </g>
     <g id="line2d_24">
      <g>
       <use xlink:href="#mf5f3f24e15" x="54.281563" y="203.129199" style="stroke: #000000; stroke-width: 0.8"/>
      </g>
     </g>
     <g id="text_13">
      <!-- $\mathdefault{10^{0}}$ -->
      <g transform="translate(29.681563 206.928418) scale(0.1 -0.1)">
       <use xlink:href="#DejaVuSans-31" transform="translate(0 0.765625)"/>
       <use xlink:href="#DejaVuSans-30" transform="translate(63.623047 0.765625)"/>
       <use xlink:href="#DejaVuSans-30" transform="translate(128.203125 39.046875) scale(0.7)"/>
      </g>
     </g>
    </g>
    <g id="ytick_7">
     <g id="line2d_25">
      <path d="M 54.281563 153.143049 
L 992.604509 153.143049 
" clip-path="url(#p99c6517ce5)" style="fill: none; stroke: #b0b0b0; stroke-opacity: 0.3; stroke-width: 0.8; stroke-linecap: square"/>
     </g>
     <g id="line2d_26">
      <g>
       <use xlink:href="#mf5f3f24e15" x="54.281563" y="153.143049" style="stroke: #000000; stroke-width: 0.8"/>
      </g>
     </g>
     <g id="text_14">
      <!-- $\mathdefault{10^{1}}$ -->
      <g transform="translate(29.681563 156.942268) scale(0.1 -0.1)">
       <use xlink:href="#DejaVuSans-31" transform="translate(0 0.684375)"/>
       <use xlink:href="#DejaVuSans-30" transform="translate(63.623047 0.684375)"/>
       <use xlink:href="#DejaVuSans-31" transform="translate(128.203125 38.965625) scale(0.7)"/>
      </g>
     </g>
    </g>
    <g id="ytick_8">
     <g id="line2d_27">
      <path d="M 54.281563 103.156899 
L 992.604509 103.156899 
" clip-path="url(#p99c6517ce5)" style="fill: none; stroke: #b0b0b0; stroke-opacity: 0.3; stroke-width: 0.8; stroke-linecap: square"/>
     </g>
     <g id="line2d_28">
      <g>
       <use xlink:href="#mf5f3f24e15" x="54.281563" y="103.156899" style="stroke: #000000; stroke-width: 0.8"/>
      </g>
     </g>
     <g id="text_15">
      <!-- $\mathdefault{10^{2}}$ -->
      <g transform="translate(29.681563 106.956118) scale(0.1 -0.1)">
       <use xlink:href="#DejaVuSans-31" transform="translate(0 0.765625)"/>
       <use xlink:href="#DejaVuSans-30" transform="translate(63.623047 0.765625)"/>
       <use xlink:href="#DejaVuSans-32" transform="translate(128.203125 39.046875) scale(0.7)"/>
      </g>
     </g>
    </g>
    <g id="ytick_9">
     <g id="line2d_29">
      <path d="M 54.281563 53.170749 
L 992.604509 53.170749 
" clip-path="url(#p99c6517ce5)" style="fill: none; stroke: #b0b0b0; stroke-opacity: 0.3; stroke-width: 0.8; stroke-linecap: square"/>
     </g>
     <g id="line2d_30">
      <g>
       <use xlink:href="#mf5f3f24e15" x="54.281563" y="53.170749" style="stroke: #000000; stroke-width: 0.8"/>
      </g>
     </g>
     <g id="text_16">
      <!-- $\mathdefault{10^{3}}$ -->
      <g transform="translate(29.681563 56.969968) scale(0.1 -0.1)">
       <use xlink:href="#DejaVuSans-31" transform="translate(0 0.765625)"/>
       <use xlink:href="#DejaVuSans-30" transform="translate(63.623047 0.765625)"/>
       <use xlink:href="#DejaVuSans-33" transform="translate(128.203125 39.046875) scale(0.7)"/>
      </g>
     </g>
    </g>
    <g id="ytick_10">
     <g id="line2d_31">
      <defs>
       <path id="m90fbb044b7" d="M 0 0 
L -2 0 
" style="stroke: #000000; stroke-width: 0.6"/>
      </defs>
      <g>
       <use xlink:href="#m90fbb044b7" x="54.281563" y="455.347189" style="stroke: #000000; stroke-width: 0.6"/>
      </g>
     </g>
    </g>
    <g id="ytick_11">
     <g id="line2d_32">
      <g>
       <use xlink:href="#m90fbb044b7" x="54.281563" y="438.012618" style="stroke: #000000; stroke-width: 0.6"/>
      </g>
     </g>
    </g>
    <g id="ytick_12">
     <g id="line2d_33">
      <g>
       <use xlink:href="#m90fbb044b7" x="54.281563" y="429.210494" style="stroke: #000000; stroke-width: 0.6"/>
      </g>
     </g>
    </g>
    <g id="ytick_13">
     <g id="line2d_34">
      <g>
       <use xlink:href="#m90fbb044b7" x="54.281563" y="422.965288" style="stroke: #000000; stroke-width: 0.6"/>
      </g>
     </g>
    </g>
    <g id="ytick_14">
     <g id="line2d_35">
      <g>
       <use xlink:href="#m90fbb044b7" x="54.281563" y="418.121129" style="stroke: #000000; stroke-width: 0.6"/>
      </g>
     </g>
    </g>
    <g id="ytick_15">
     <g id="line2d_36">
      <g>
       <use xlink:href="#m90fbb044b7" x="54.281563" y="414.163164" style="stroke: #000000; stroke-width: 0.6"/>
      </g>
     </g>
    </g>
    <g id="ytick_16">
     <g id="line2d_37">
      <g>
       <use xlink:href="#m90fbb044b7" x="54.281563" y="410.816751" style="stroke: #000000; stroke-width: 0.6"/>
      </g>
     </g>
    </g>
    <g id="ytick_17">
     <g id="line2d_38">
      <g>
       <use xlink:href="#m90fbb044b7" x="54.281563" y="407.917957" style="stroke: #000000; stroke-width: 0.6"/>
      </g>
     </g>
    </g>
    <g id="ytick_18">
     <g id="line2d_39">
      <g>
       <use xlink:href="#m90fbb044b7" x="54.281563" y="405.361039" style="stroke: #000000; stroke-width: 0.6"/>
      </g>
     </g>
    </g>
    <g id="ytick_19">
     <g id="line2d_40">
      <g>
       <use xlink:href="#m90fbb044b7" x="54.281563" y="388.026468" style="stroke: #000000; stroke-width: 0.6"/>
      </g>
     </g>
    </g>
    <g id="ytick_20">
     <g id="line2d_41">
      <g>
       <use xlink:href="#m90fbb044b7" x="54.281563" y="379.224344" style="stroke: #000000; stroke-width: 0.6"/>
      </g>
     </g>
    </g>
    <g id="ytick_21">
     <g id="line2d_42">
      <g>
       <use xlink:href="#m90fbb044b7" x="54.281563" y="372.979138" style="stroke: #000000; stroke-width: 0.6"/>
      </g>
     </g>
    </g>
    <g id="ytick_22">
     <g id="line2d_43">
      <g>
       <use xlink:href="#m90fbb044b7" x="54.281563" y="368.134979" style="stroke: #000000; stroke-width: 0.6"/>
      </g>
     </g>
    </g>
    <g id="ytick_23">
     <g id="line2d_44">
      <g>
       <use xlink:href="#m90fbb044b7" x="54.281563" y="364.177014" style="stroke: #000000; stroke-width: 0.6"/>
      </g>
     </g>
    </g>
    <g id="ytick_24">
     <g id="line2d_45">
      <g>
       <use xlink:href="#m90fbb044b7" x="54.281563" y="360.830601" style="stroke: #000000; stroke-width: 0.6"/>
      </g>
     </g>
    </g>
    <g id="ytick_25">
     <g id="line2d_46">
      <g>
       <use xlink:href="#m90fbb044b7" x="54.281563" y="357.931807" style="stroke: #000000; stroke-width: 0.6"/>
      </g>
     </g>
    </g>
    <g id="ytick_26">
     <g id="line2d_47">
      <g>
       <use xlink:href="#m90fbb044b7" x="54.281563" y="355.37489" style="stroke: #000000; stroke-width: 0.6"/>
      </g>
     </g>
    </g>
    <g id="ytick_27">
     <g id="line2d_48">
      <g>
       <use xlink:href="#m90fbb044b7" x="54.281563" y="338.040318" style="stroke: #000000; stroke-width: 0.6"/>
      </g>
     </g>
    </g>
    <g id="ytick_28">
     <g id="line2d_49">
      <g>
       <use xlink:href="#m90fbb044b7" x="54.281563" y="329.238194" style="stroke: #000000; stroke-width: 0.6"/>
      </g>
     </g>
    </g>
    <g id="ytick_29">
     <g id="line2d_50">
      <g>
       <use xlink:href="#m90fbb044b7" x="54.281563" y="322.992988" style="stroke: #000000; stroke-width: 0.6"/>
      </g>
     </g>
    </g>
    <g id="ytick_30">
     <g id="line2d_51">
      <g>
       <use xlink:href="#m90fbb044b7" x="54.281563" y="318.148829" style="stroke: #000000; stroke-width: 0.6"/>
      </g>
     </g>
    </g>
    <g id="ytick_31">
     <g id="line2d_52">
      <g>
       <use xlink:href="#m90fbb044b7" x="54.281563" y="314.190864" style="stroke: #000000; stroke-width: 0.6"/>
      </g>
     </g>
    </g>
    <g id="ytick_32">
     <g id="line2d_53">
      <g>
       <use xlink:href="#m90fbb044b7" x="54.281563" y="310.844451" style="stroke: #000000; stroke-width: 0.6"/>
      </g>
     </g>
    </g>
    <g id="ytick_33">
     <g id="line2d_54">
      <g>
       <use xlink:href="#m90fbb044b7" x="54.281563" y="307.945657" style="stroke: #000000; stroke-width: 0.6"/>
      </g>
     </g>
    </g>
    <g id="ytick_34">
     <g id="line2d_55">
      <g>
       <use xlink:href="#m90fbb044b7" x="54.281563" y="305.38874" style="stroke: #000000; stroke-width: 0.6"/>
      </g>
     </g>
    </g>
    <g id="ytick_35">
     <g id="line2d_56">
      <g>
       <use xlink:href="#m90fbb044b7" x="54.281563" y="288.054168" style="stroke: #000000; stroke-width: 0.6"/>
      </g>
     </g>
    </g>
    <g id="ytick_36">
     <g id="line2d_57">
      <g>
       <use xlink:href="#m90fbb044b7" x="54.281563" y="279.252044" style="stroke: #000000; stroke-width: 0.6"/>
      </g>
     </g>
    </g>
    <g id="ytick_37">
     <g id="line2d_58">
      <g>
       <use xlink:href="#m90fbb044b7" x="54.281563" y="273.006838" style="stroke: #000000; stroke-width: 0.6"/>
      </g>
     </g>
    </g>
    <g id="ytick_38">
     <g id="line2d_59">
      <g>
       <use xlink:href="#m90fbb044b7" x="54.281563" y="268.162679" style="stroke: #000000; stroke-width: 0.6"/>
      </g>
     </g>
    </g>
    <g id="ytick_39">
     <g id="line2d_60">
      <g>
       <use xlink:href="#m90fbb044b7" x="54.281563" y="264.204714" style="stroke: #000000; stroke-width: 0.6"/>
      </g>
     </g>
    </g>
    <g id="ytick_40">
     <g id="line2d_61">
      <g>
       <use xlink:href="#m90fbb044b7" x="54.281563" y="260.858302" style="stroke: #000000; stroke-width: 0.6"/>
      </g>
     </g>
    </g>
    <g id="ytick_41">
     <g id="line2d_62">
      <g>
       <use xlink:href="#m90fbb044b7" x="54.281563" y="257.959507" style="stroke: #000000; stroke-width: 0.6"/>
      </g>
     </g>
    </g>
    <g id="ytick_42">
     <g id="line2d_63">
      <g>
       <use xlink:href="#m90fbb044b7" x="54.281563" y="255.40259" style="stroke: #000000; stroke-width: 0.6"/>
      </g>
     </g>
    </g>
    <g id="ytick_43">
     <g id="line2d_64">
      <g>
       <use xlink:href="#m90fbb044b7" x="54.281563" y="238.068018" style="stroke: #000000; stroke-width: 0.6"/>
      </g>
     </g>
    </g>
    <g id="ytick_44">
     <g id="line2d_65">
      <g>
       <use xlink:href="#m90fbb044b7" x="54.281563" y="229.265894" style="stroke: #000000; stroke-width: 0.6"/>
      </g>
     </g>
    </g>
    <g id="ytick_45">
     <g id="line2d_66">
      <g>
       <use xlink:href="#m90fbb044b7" x="54.281563" y="223.020688" style="stroke: #000000; stroke-width: 0.6"/>
      </g>
     </g>
    </g>
    <g id="ytick_46">
     <g id="line2d_67">
      <g>
       <use xlink:href="#m90fbb044b7" x="54.281563" y="218.176529" style="stroke: #000000; stroke-width: 0.6"/>
      </g>
     </g>
    </g>
    <g id="ytick_47">
     <g id="line2d_68">
      <g>
       <use xlink:href="#m90fbb044b7" x="54.281563" y="214.218564" style="stroke: #000000; stroke-width: 0.6"/>
      </g>
     </g>
    </g>
    <g id="ytick_48">
     <g id="line2d_69">
      <g>
       <use xlink:href="#m90fbb044b7" x="54.281563" y="210.872152" style="stroke: #000000; stroke-width: 0.6"/>
      </g>
     </g>
    </g>
    <g id="ytick_49">
     <g id="line2d_70">
      <g>
       <use xlink:href="#m90fbb044b7" x="54.281563" y="207.973357" style="stroke: #000000; stroke-width: 0.6"/>
      </g>
     </g>
    </g>
    <g id="ytick_50">
     <g id="line2d_71">
      <g>
       <use xlink:href="#m90fbb044b7" x="54.281563" y="205.41644" style="stroke: #000000; stroke-width: 0.6"/>
      </g>
     </g>
    </g>
    <g id="ytick_51">
     <g id="line2d_72">
      <g>
       <use xlink:href="#m90fbb044b7" x="54.281563" y="188.081868" style="stroke: #000000; stroke-width: 0.6"/>
      </g>
     </g>
    </g>
    <g id="ytick_52">
     <g id="line2d_73">
      <g>
       <use xlink:href="#m90fbb044b7" x="54.281563" y="179.279744" style="stroke: #000000; stroke-width: 0.6"/>
      </g>
     </g>
    </g>
    <g id="ytick_53">
     <g id="line2d_74">
      <g>
       <use xlink:href="#m90fbb044b7" x="54.281563" y="173.034538" style="stroke: #000000; stroke-width: 0.6"/>
      </g>
     </g>
    </g>
    <g id="ytick_54">
     <g id="line2d_75">
      <g>
       <use xlink:href="#m90fbb044b7" x="54.281563" y="168.19038" style="stroke: #000000; stroke-width: 0.6"/>
      </g>
     </g>
    </g>
    <g id="ytick_55">
     <g id="line2d_76">
      <g>
       <use xlink:href="#m90fbb044b7" x="54.281563" y="164.232414" style="stroke: #000000; stroke-width: 0.6"/>
      </g>
     </g>
    </g>
    <g id="ytick_56">
     <g id="line2d_77">
      <g>
       <use xlink:href="#m90fbb044b7" x="54.281563" y="160.886002" style="stroke: #000000; stroke-width: 0.6"/>
      </g>
     </g>
    </g>
    <g id="ytick_57">
     <g id="line2d_78">
      <g>
       <use xlink:href="#m90fbb044b7" x="54.281563" y="157.987208" style="stroke: #000000; stroke-width: 0.6"/>
      </g>
     </g>
    </g>
    <g id="ytick_58">
     <g id="line2d_79">
      <g>
       <use xlink:href="#m90fbb044b7" x="54.281563" y="155.43029" style="stroke: #000000; stroke-width: 0.6"/>
      </g>
     </g>
    </g>
    <g id="ytick_59">
     <g id="line2d_80">
      <g>
       <use xlink:href="#m90fbb044b7" x="54.281563" y="138.095719" style="stroke: #000000; stroke-width: 0.6"/>
      </g>
     </g>
    </g>
    <g id="ytick_60">
     <g id="line2d_81">
      <g>
       <use xlink:href="#m90fbb044b7" x="54.281563" y="129.293594" style="stroke: #000000; stroke-width: 0.6"/>
      </g>
     </g>
    </g>
    <g id="ytick_61">
     <g id="line2d_82">
      <g>
       <use xlink:href="#m90fbb044b7" x="54.281563" y="123.048388" style="stroke: #000000; stroke-width: 0.6"/>
      </g>
     </g>
    </g>
    <g id="ytick_62">
     <g id="line2d_83">
      <g>
       <use xlink:href="#m90fbb044b7" x="54.281563" y="118.20423" style="stroke: #000000; stroke-width: 0.6"/>
      </g>
     </g>
    </g>
    <g id="ytick_63">
     <g id="line2d_84">
      <g>
       <use xlink:href="#m90fbb044b7" x="54.281563" y="114.246264" style="stroke: #000000; stroke-width: 0.6"/>
      </g>
     </g>
    </g>
    <g id="ytick_64">
     <g id="line2d_85">
      <g>
       <use xlink:href="#m90fbb044b7" x="54.281563" y="110.899852" style="stroke: #000000; stroke-width: 0.6"/>
      </g>
     </g>
    </g>
    <g id="ytick_65">
     <g id="line2d_86">
      <g>
       <use xlink:href="#m90fbb044b7" x="54.281563" y="108.001058" style="stroke: #000000; stroke-width: 0.6"/>
      </g>
     </g>
    </g>
    <g id="ytick_66">
     <g id="line2d_87">
      <g>
       <use xlink:href="#m90fbb044b7" x="54.281563" y="105.44414" style="stroke: #000000; stroke-width: 0.6"/>
      </g>
     </g>
    </g>
    <g id="ytick_67">
     <g id="line2d_88">
      <g>
       <use xlink:href="#m90fbb044b7" x="54.281563" y="88.109569" style="stroke: #000000; stroke-width: 0.6"/>
      </g>
     </g>
    </g>
    <g id="ytick_68">
     <g id="line2d_89">
      <g>
       <use xlink:href="#m90fbb044b7" x="54.281563" y="79.307445" style="stroke: #000000; stroke-width: 0.6"/>
      </g>
     </g>
    </g>
    <g id="ytick_69">
     <g id="line2d_90">
      <g>
       <use xlink:href="#m90fbb044b7" x="54.281563" y="73.062238" style="stroke: #000000; stroke-width: 0.6"/>
      </g>
     </g>
    </g>
    <g id="ytick_70">
     <g id="line2d_91">
      <g>
       <use xlink:href="#m90fbb044b7" x="54.281563" y="68.21808" style="stroke: #000000; stroke-width: 0.6"/>
      </g>
     </g>
    </g>
    <g id="ytick_71">
     <g id="line2d_92">
      <g>
       <use xlink:href="#m90fbb044b7" x="54.281563" y="64.260114" style="stroke: #000000; stroke-width: 0.6"/>
      </g>
     </g>
    </g>
    <g id="ytick_72">
     <g id="line2d_93">
      <g>
       <use xlink:href="#m90fbb044b7" x="54.281563" y="60.913702" style="stroke: #000000; stroke-width: 0.6"/>
      </g>
     </g>
    </g>
    <g id="ytick_73">
     <g id="line2d_94">
      <g>
       <use xlink:href="#m90fbb044b7" x="54.281563" y="58.014908" style="stroke: #000000; stroke-width: 0.6"/>
      </g>
     </g>
    </g>
    <g id="ytick_74">
     <g id="line2d_95">
      <g>
       <use xlink:href="#m90fbb044b7" x="54.281563" y="55.45799" style="stroke: #000000; stroke-width: 0.6"/>
      </g>
     </g>
    </g>
    <g id="ytick_75">
     <g id="line2d_96">
      <g>
       <use xlink:href="#m90fbb044b7" x="54.281563" y="38.123419" style="stroke: #000000; stroke-width: 0.6"/>
      </g>
     </g>
    </g>
    <g id="ytick_76">
     <g id="line2d_97">
      <g>
       <use xlink:href="#m90fbb044b7" x="54.281563" y="29.321295" style="stroke: #000000; stroke-width: 0.6"/>
      </g>
     </g>
    </g>
    <g id="text_17">
     <!-- Position Error [m] -->
     <g transform="translate(17.077969 296.696641) rotate(-90) scale(0.13 -0.13)">
      <defs>
       <path id="DejaVuSans-50" d="M 1259 4147 
L 1259 2394 
L 2053 2394 
Q 2494 2394 2734 2622 
Q 2975 2850 2975 3272 
Q 2975 3691 2734 3919 
Q 2494 4147 2053 4147 
L 1259 4147 
z
M 628 4666 
L 2053 4666 
Q 2838 4666 3239 4311 
Q 3641 3956 3641 3272 
Q 3641 2581 3239 2228 
Q 2838 1875 2053 1875 
L 1259 1875 
L 1259 0 
L 628 0 
L 628 4666 
z
" transform="scale(0.015625)"/>
       <path id="DejaVuSans-6f" d="M 1959 3097 
Q 1497 3097 1228 2736 
Q 959 2375 959 1747 
Q 959 1119 1226 758 
Q 1494 397 1959 397 
Q 2419 397 2687 759 
Q 2956 1122 2956 1747 
Q 2956 2369 2687 2733 
Q 2419 3097 1959 3097 
z
M 1959 3584 
Q 2709 3584 3137 3096 
Q 3566 2609 3566 1747 
Q 3566 888 3137 398 
Q 2709 -91 1959 -91 
Q 1206 -91 779 398 
Q 353 888 353 1747 
Q 353 2609 779 3096 
Q 1206 3584 1959 3584 
z
" transform="scale(0.015625)"/>
       <path id="DejaVuSans-74" d="M 1172 4494 
L 1172 3500 
L 2356 3500 
L 2356 3053 
L 1172 3053 
L 1172 1153 
Q 1172 725 1289 603 
Q 1406 481 1766 481 
L 2356 481 
L 2356 0 
L 1766 0 
Q 1100 0 847 248 
Q 594 497 594 1153 
L 594 3053 
L 172 3053 
L 172 3500 
L 594 3500 
L 594 4494 
L 1172 4494 
z
" transform="scale(0.015625)"/>
       <path id="DejaVuSans-6e" d="M 3513 2113 
L 3513 0 
L 2938 0 
L 2938 2094 
Q 2938 2591 2744 2837 
Q 2550 3084 2163 3084 
Q 1697 3084 1428 2787 
Q 1159 2491 1159 1978 
L 1159 0 
L 581 0 
L 581 3500 
L 1159 3500 
L 1159 2956 
Q 1366 3272 1645 3428 
Q 1925 3584 2291 3584 
Q 2894 3584 3203 3211 
Q 3513 2838 3513 2113 
z
" transform="scale(0.015625)"/>
       <path id="DejaVuSans-45" d="M 628 4666 
L 3578 4666 
L 3578 4134 
L 1259 4134 
L 1259 2753 
L 3481 2753 
L 3481 2222 
L 1259 2222 
L 1259 531 
L 3634 531 
L 3634 0 
L 628 0 
L 628 4666 
z
" transform="scale(0.015625)"/>
       <path id="DejaVuSans-72" d="M 2631 2963 
Q 2534 3019 2420 3045 
Q 2306 3072 2169 3072 
Q 1681 3072 1420 2755 
Q 1159 2438 1159 1844 
L 1159 0 
L 581 0 
L 581 3500 
L 1159 3500 
L 1159 2956 
Q 1341 3275 1631 3429 
Q 1922 3584 2338 3584 
Q 2397 3584 2469 3576 
Q 2541 3569 2628 3553 
L 2631 2963 
z
" transform="scale(0.015625)"/>
      </defs>
      <use xlink:href="#DejaVuSans-50"/>
      <use xlink:href="#DejaVuSans-6f" x="56.677734"/>
      <use xlink:href="#DejaVuSans-73" x="117.859375"/>
      <use xlink:href="#DejaVuSans-69" x="169.958984"/>
      <use xlink:href="#DejaVuSans-74" x="197.742188"/>
      <use xlink:href="#DejaVuSans-69" x="236.951172"/>
      <use xlink:href="#DejaVuSans-6f" x="264.734375"/>
      <use xlink:href="#DejaVuSans-6e" x="325.916016"/>
      <use xlink:href="#DejaVuSans-20" x="389.294922"/>
      <use xlink:href="#DejaVuSans-45" x="421.082031"/>
      <use xlink:href="#DejaVuSans-72" x="484.265625"/>
      <use xlink:href="#DejaVuSans-72" x="523.628906"/>
      <use xlink:href="#DejaVuSans-6f" x="562.492188"/>
      <use xlink:href="#DejaVuSans-72" x="623.673828"/>
      <use xlink:href="#DejaVuSans-20" x="664.787109"/>
      <use xlink:href="#DejaVuSans-5b" x="696.574219"/>
      <use xlink:href="#DejaVuSans-6d" x="735.587891"/>
      <use xlink:href="#DejaVuSans-5d" x="833"/>
     </g>
    </g>
   </g>
   <g id="line2d_98">
    <path d="M 54.359667 496.897344 
L 54.437963 412.04563 
L 54.750763 369.814446 
L 55.141764 344.946009 
L 55.689164 324.259657 
L 56.314765 308.660987 
L 57.096766 294.769251 
L 57.956967 283.333788 
L 58.973568 272.832755 
L 60.06837 263.797981 
L 61.319571 255.355948 
L 62.648973 247.887616 
L 64.134775 240.826211 
L 65.698776 234.45401 
L 67.419179 228.377706 
L 69.217781 222.820381 
L 71.172783 217.491753 
L 73.284186 212.387272 
L 75.551988 207.49897 
L 77.897991 202.960247 
L 80.400394 198.589517 
L 83.137398 194.262937 
L 86.030801 190.112717 
L 89.080605 186.127542 
L 92.365009 182.207783 
L 95.805813 178.447675 
L 99.481218 174.759158 
L 103.391222 171.150023 
L 107.535828 167.624078 
L 111.993233 164.125378 
L 116.763439 160.667725 
L 121.846445 157.261124 
L 127.242252 153.913546 
L 133.029059 150.586982 
L 139.206866 147.29481 
L 145.853874 144.008857 
L 152.891883 140.779069 
L 160.477292 137.545621 
L 168.610102 134.324747 
L 177.290313 131.12947 
L 186.596124 127.943774 
L 196.527536 124.780565 
L 207.162749 121.627485 
L 218.579963 118.476043 
L 230.857378 115.320768 
L 243.994994 112.176602 
L 258.071011 109.038197 
L 273.16363 105.902395 
L 283.642443 103.913294 
L 298.969661 101.199978 
L 315.391681 98.521587 
L 333.221303 95.841647 
L 352.771327 93.130812 
L 374.354553 90.365656 
L 398.283783 87.527636 
L 414.940403 85.513305 
L 468.663869 79.03587 
L 491.811097 76.601993 
L 517.382528 74.140056 
L 545.769163 71.634078 
L 577.440202 69.065845 
L 612.786645 66.427215 
L 715.932571 59.141216 
L 757.613222 56.531323 
L 804.064078 53.851249 
L 868.813757 50.335654 
L 936.61324 46.878799 
L 992.604509 44.181293 
L 992.604509 44.181293 
" clip-path="url(#p99c6517ce5)" style="fill: none; stroke-dasharray: 7.4,3.2; stroke-dashoffset: 0; stroke: #ff0000; stroke-width: 2"/>
   </g>
   <g id="line2d_99">
    <path d="M 54.359667 496.897344 
L 54.437963 299.18396 
L 54.672563 269.074032 
L 55.063563 251.466862 
L 55.532764 240.376642 
L 56.158365 231.09693 
L 56.862166 223.927554 
L 57.722367 217.513223 
L 58.660768 212.16989 
L 59.755569 207.246873 
L 60.928571 202.976478 
L 62.257972 198.975426 
L 63.743774 195.233439 
L 65.307776 191.887014 
L 67.028178 188.718527 
L 68.90498 185.719442 
L 70.938183 182.879067 
L 73.205986 180.095762 
L 75.630189 177.468894 
L 78.288992 174.911982 
L 81.182395 172.434034 
L 84.388599 169.982865 
L 87.907604 167.577237 
L 91.739408 165.229366 
L 95.962213 162.905835 
L 100.576019 160.622683 
L 105.659025 158.357512 
L 111.289432 156.096779 
L 117.46724 153.860315 
L 124.270648 151.637757 
L 131.777857 149.423518 
L 140.067067 147.215397 
L 149.216478 145.01353 
L 159.304291 142.819583 
L 170.408704 140.636151 
L 182.686119 138.453055 
L 196.214736 136.277264 
L 211.150954 134.104053 
L 227.651174 131.931925 
L 245.871797 129.761628 
L 250.798403 129.314306 
L 297.171059 129.209127 
L 317.659484 128.824068 
L 339.555511 128.187131 
L 364.032141 127.247223 
L 393.122576 125.899003 
L 405.399991 125.397325 
L 427.999819 125.509722 
L 468.351068 128.742048 
L 546.629364 135.084741 
L 566.335788 136.397471 
L 582.679608 137.267562 
L 597.224826 137.822392 
L 610.831642 138.120908 
L 630.381666 138.273817 
L 646.647286 138.382837 
L 659.315702 140.633036 
L 670.732915 142.882345 
L 681.055328 145.138209 
L 690.361139 147.394513 
L 698.80675 149.667236 
L 706.392159 151.93324 
L 713.273767 154.215807 
L 719.529775 156.521877 
L 725.160182 158.829694 
L 730.243188 161.146882 
L 734.856994 163.487799 
L 739.079799 165.876152 
L 742.911604 168.296233 
L 746.352408 170.724976 
L 749.558612 173.2606 
L 752.452015 175.832428 
L 755.110819 178.495719 
L 757.535021 181.242392 
L 759.724624 184.057081 
L 761.757827 187.036256 
L 763.634629 190.192432 
L 765.355031 193.535892 
L 766.919033 197.071227 
L 768.326635 200.791219 
L 769.656036 204.929698 
L 770.907238 209.557674 
L 772.158439 215.07414 
L 774.739042 226.992807 
L 775.130043 227.621838 
L 775.364643 227.652359 
L 775.599244 227.416221 
L 775.912044 226.717758 
L 776.381244 225.113913 
L 776.928645 221.357476 
L 992.604509 218.500514 
L 992.604509 218.500514 
" clip-path="url(#p99c6517ce5)" style="fill: none; stroke: #008000; stroke-width: 2; stroke-linecap: square"/>
   </g>
   <g id="line2d_100">
    <path d="M 54.359438 496.897344 
L 54.437963 275.736636 
L 54.750763 252.337246 
L 55.219964 237.336962 
L 55.767364 227.519315 
L 56.392965 220.015402 
L 57.174966 213.192779 
L 58.113367 207.101972 
L 59.129968 202.029098 
L 60.22477 197.589083 
L 61.475971 193.465696 
L 62.570773 190.373236 
L 63.978374 186.927894 
L 65.698776 183.38305 
L 67.575579 180.073841 
L 69.139581 177.663881 
L 71.563784 174.393617 
L 74.691787 170.80048 
L 77.663391 167.826916 
L 81.104195 164.853981 
L 86.109001 161.137644 
L 89.080605 159.208992 
L 92.521409 157.160363 
L 97.291615 154.593353 
L 103.469423 151.68809 
L 109.33443 149.236713 
L 115.825038 146.827657 
L 122.628446 144.548944 
L 136.000662 140.679416 
L 143.820672 138.701213 
L 159.929892 135.125919 
L 167.828101 133.566376 
L 190.584329 129.595435 
L 200.750341 128.031721 
L 223.662969 124.871624 
L 245.089796 122.293236 
L 250.798403 121.765327 
L 273.24183 121.764104 
L 273.39823 122.273361 
L 294.355856 121.806633 
L 340.884913 120.318154 
L 403.601389 117.68016 
L 403.757789 117.089264 
L 427.061418 117.087323 
L 427.217818 117.323945 
L 472.495673 117.33022 
L 510.89192 117.336906 
L 533.882748 117.33018 
L 622.561657 117.315905 
L 622.718057 116.525218 
L 643.206482 116.527776 
L 646.021685 116.528726 
L 646.178085 116.377428 
L 675.972322 117.161132 
L 690.83034 117.411748 
L 721.797578 117.57667 
L 744.241005 117.391686 
L 765.589631 116.988598 
L 776.381244 116.713575 
L 776.537645 116.518699 
L 808.834284 116.523775 
L 823.926903 116.525929 
L 848.716333 116.535919 
L 992.604509 116.533058 
L 992.604509 116.533058 
" clip-path="url(#p99c6517ce5)" style="fill: none; stroke-dasharray: 12.8,3.2,2,3.2; stroke-dashoffset: 0; stroke: #0000ff; stroke-width: 2"/>
   </g>
   <g id="line2d_101">
    <path d="M 54.359453 496.897344 
L 54.437963 284.096203 
L 54.750763 260.246748 
L 55.141764 247.088322 
L 55.689164 236.397294 
L 56.314765 228.414463 
L 57.096766 221.349963 
L 57.956967 215.561799 
L 58.973568 210.260598 
L 60.06837 205.707836 
L 61.319571 201.458474 
L 62.648973 197.702451 
L 64.134775 194.154096 
L 65.776977 190.807684 
L 67.575579 187.651979 
L 69.530581 184.67352 
L 71.641984 181.858382 
L 73.987987 179.106766 
L 76.49039 176.511595 
L 79.227393 173.988677 
L 82.277197 171.484753 
L 85.561601 169.076572 
L 89.158805 166.713484 
L 93.14701 164.363059 
L 97.526215 162.045264 
L 102.296421 159.773731 
L 107.535828 157.525417 
L 113.322635 155.286045 
L 119.735042 153.04774 
L 126.773051 150.830641 
L 134.51486 148.62787 
L 143.038671 146.436052 
L 152.500882 144.236972 
L 162.901495 142.051948 
L 174.396909 139.868104 
L 187.065325 137.691384 
L 201.063142 135.515657 
L 216.546761 133.338569 
L 233.594382 131.169872 
L 249.703601 129.30228 
L 249.860001 130.120976 
L 273.16363 130.120976 
L 273.32003 131.185968 
L 291.462452 131.073217 
L 310.152275 130.732734 
L 329.936899 130.147157 
L 351.832926 129.272109 
L 377.482557 128.017066 
L 403.523189 126.57423 
L 403.679589 126.979901 
L 426.983218 126.979901 
L 427.139618 127.69294 
L 469.91507 131.377083 
L 518.86833 135.565502 
L 539.434955 137.091701 
L 555.778775 138.086775 
L 570.089393 138.738334 
L 583.227009 139.116853 
L 595.895424 139.259724 
L 608.407439 139.177965 
L 621.232255 138.8695 
L 622.483457 138.827824 
L 622.639857 139.041775 
L 645.943485 139.041775 
L 646.099885 138.742885 
L 659.159301 141.045548 
L 671.123916 143.378204 
L 682.071929 145.737364 
L 692.081542 148.118776 
L 701.309153 150.538785 
L 709.911163 153.020966 
L 718.043973 155.596567 
L 725.942183 158.331135 
L 733.996793 161.358411 
L 744.475606 165.560633 
L 752.999416 168.899996 
L 757.456821 170.413999 
L 761.054026 171.405508 
L 764.18203 172.037101 
L 766.997233 172.384073 
L 769.734236 172.498825 
L 772.47124 172.386951 
L 775.286443 172.042754 
L 776.303044 171.865079 
L 776.459445 172.462497 
L 992.604509 172.462497 
L 992.604509 172.462497 
" clip-path="url(#p99c6517ce5)" style="fill: none; stroke-dasharray: 2,3.3; stroke-dashoffset: 0; stroke: #ffa500; stroke-width: 2"/>
   </g>
   <g id="patch_3">
    <path d="M 54.281563 455.437656 
L 54.281563 24.597656 
" style="fill: none; stroke: #000000; stroke-width: 0.8; stroke-linejoin: miter; stroke-linecap: square"/>
   </g>
   <g id="patch_4">
    <path d="M 992.604509 455.437656 
L 992.604509 24.597656 
" style="fill: none; stroke: #000000; stroke-width: 0.8; stroke-linejoin: miter; stroke-linecap: square"/>
   </g>
   <g id="patch_5">
    <path d="M 54.281563 455.437656 
L 992.604509 455.437656 
" style="fill: none; stroke: #000000; stroke-width: 0.8; stroke-linejoin: miter; stroke-linecap: square"/>
   </g>
   <g id="patch_6">
    <path d="M 54.281563 24.597656 
L 992.604509 24.597656 
" style="fill: none; stroke: #000000; stroke-width: 0.8; stroke-linejoin: miter; stroke-linecap: square"/>
   </g>
   <g id="text_18">
    <!-- Chapter 6 Comparison: Position Error vs Time -->
    <g transform="translate(330.143426 18.597656) scale(0.15 -0.15)">
     <defs>
      <path id="DejaVuSans-Bold-43" d="M 4288 256 
Q 3956 84 3597 -3 
Q 3238 -91 2847 -91 
Q 1681 -91 1000 561 
Q 319 1213 319 2328 
Q 319 3447 1000 4098 
Q 1681 4750 2847 4750 
Q 3238 4750 3597 4662 
Q 3956 4575 4288 4403 
L 4288 3438 
Q 3953 3666 3628 3772 
Q 3303 3878 2944 3878 
Q 2300 3878 1931 3465 
Q 1563 3053 1563 2328 
Q 1563 1606 1931 1193 
Q 2300 781 2944 781 
Q 3303 781 3628 887 
Q 3953 994 4288 1222 
L 4288 256 
z
" transform="scale(0.015625)"/>
      <path id="DejaVuSans-Bold-68" d="M 4056 2131 
L 4056 0 
L 2931 0 
L 2931 347 
L 2931 1625 
Q 2931 2084 2911 2256 
Q 2891 2428 2841 2509 
Q 2775 2619 2662 2680 
Q 2550 2741 2406 2741 
Q 2056 2741 1856 2470 
Q 1656 2200 1656 1722 
L 1656 0 
L 538 0 
L 538 4863 
L 1656 4863 
L 1656 2988 
Q 1909 3294 2193 3439 
Q 2478 3584 2822 3584 
Q 3428 3584 3742 3212 
Q 4056 2841 4056 2131 
z
" transform="scale(0.015625)"/>
      <path id="DejaVuSans-Bold-61" d="M 2106 1575 
Q 1756 1575 1579 1456 
Q 1403 1338 1403 1106 
Q 1403 894 1545 773 
Q 1688 653 1941 653 
Q 2256 653 2472 879 
Q 2688 1106 2688 1447 
L 2688 1575 
L 2106 1575 
z
M 3816 1997 
L 3816 0 
L 2688 0 
L 2688 519 
Q 2463 200 2181 54 
Q 1900 -91 1497 -91 
Q 953 -91 614 226 
Q 275 544 275 1050 
Q 275 1666 698 1953 
Q 1122 2241 2028 2241 
L 2688 2241 
L 2688 2328 
Q 2688 2594 2478 2717 
Q 2269 2841 1825 2841 
Q 1466 2841 1156 2769 
Q 847 2697 581 2553 
L 581 3406 
Q 941 3494 1303 3539 
Q 1666 3584 2028 3584 
Q 2975 3584 3395 3211 
Q 3816 2838 3816 1997 
z
" transform="scale(0.015625)"/>
      <path id="DejaVuSans-Bold-70" d="M 1656 506 
L 1656 -1331 
L 538 -1331 
L 538 3500 
L 1656 3500 
L 1656 2988 
Q 1888 3294 2169 3439 
Q 2450 3584 2816 3584 
Q 3463 3584 3878 3070 
Q 4294 2556 4294 1747 
Q 4294 938 3878 423 
Q 3463 -91 2816 -91 
Q 2450 -91 2169 54 
Q 1888 200 1656 506 
z
M 2400 2772 
Q 2041 2772 1848 2508 
Q 1656 2244 1656 1747 
Q 1656 1250 1848 986 
Q 2041 722 2400 722 
Q 2759 722 2948 984 
Q 3138 1247 3138 1747 
Q 3138 2247 2948 2509 
Q 2759 2772 2400 2772 
z
" transform="scale(0.015625)"/>
      <path id="DejaVuSans-Bold-74" d="M 1759 4494 
L 1759 3500 
L 2913 3500 
L 2913 2700 
L 1759 2700 
L 1759 1216 
Q 1759 972 1856 886 
Q 1953 800 2241 800 
L 2816 800 
L 2816 0 
L 1856 0 
Q 1194 0 917 276 
Q 641 553 641 1216 
L 641 2700 
L 84 2700 
L 84 3500 
L 641 3500 
L 641 4494 
L 1759 4494 
z
" transform="scale(0.015625)"/>
      <path id="DejaVuSans-Bold-65" d="M 4031 1759 
L 4031 1441 
L 1416 1441 
Q 1456 1047 1700 850 
Q 1944 653 2381 653 
Q 2734 653 3104 758 
Q 3475 863 3866 1075 
L 3866 213 
Q 3469 63 3072 -14 
Q 2675 -91 2278 -91 
Q 1328 -91 801 392 
Q 275 875 275 1747 
Q 275 2603 792 3093 
Q 1309 3584 2216 3584 
Q 3041 3584 3536 3087 
Q 4031 2591 4031 1759 
z
M 2881 2131 
Q 2881 2450 2695 2645 
Q 2509 2841 2209 2841 
Q 1884 2841 1681 2658 
Q 1478 2475 1428 2131 
L 2881 2131 
z
" transform="scale(0.015625)"/>
      <path id="DejaVuSans-Bold-72" d="M 3138 2547 
Q 2991 2616 2845 2648 
Q 2700 2681 2553 2681 
Q 2122 2681 1889 2404 
Q 1656 2128 1656 1613 
L 1656 0 
L 538 0 
L 538 3500 
L 1656 3500 
L 1656 2925 
Q 1872 3269 2151 3426 
Q 2431 3584 2822 3584 
Q 2878 3584 2943 3579 
Q 3009 3575 3134 3559 
L 3138 2547 
z
" transform="scale(0.015625)"/>
      <path id="DejaVuSans-Bold-20" transform="scale(0.015625)"/>
      <path id="DejaVuSans-Bold-36" d="M 2316 2303 
Q 2000 2303 1842 2098 
Q 1684 1894 1684 1484 
Q 1684 1075 1842 870 
Q 2000 666 2316 666 
Q 2634 666 2792 870 
Q 2950 1075 2950 1484 
Q 2950 1894 2792 2098 
Q 2634 2303 2316 2303 
z
M 3803 4544 
L 3803 3681 
Q 3506 3822 3243 3889 
Q 2981 3956 2731 3956 
Q 2194 3956 1894 3657 
Q 1594 3359 1544 2772 
Q 1750 2925 1990 3001 
Q 2231 3078 2516 3078 
Q 3231 3078 3670 2659 
Q 4109 2241 4109 1563 
Q 4109 813 3618 361 
Q 3128 -91 2303 -91 
Q 1394 -91 895 523 
Q 397 1138 397 2266 
Q 397 3422 980 4083 
Q 1563 4744 2578 4744 
Q 2900 4744 3203 4694 
Q 3506 4644 3803 4544 
z
" transform="scale(0.015625)"/>
      <path id="DejaVuSans-Bold-6f" d="M 2203 2784 
Q 1831 2784 1636 2517 
Q 1441 2250 1441 1747 
Q 1441 1244 1636 976 
Q 1831 709 2203 709 
Q 2569 709 2762 976 
Q 2956 1244 2956 1747 
Q 2956 2250 2762 2517 
Q 2569 2784 2203 2784 
z
M 2203 3584 
Q 3106 3584 3614 3096 
Q 4122 2609 4122 1747 
Q 4122 884 3614 396 
Q 3106 -91 2203 -91 
Q 1297 -91 786 396 
Q 275 884 275 1747 
Q 275 2609 786 3096 
Q 1297 3584 2203 3584 
z
" transform="scale(0.015625)"/>
      <path id="DejaVuSans-Bold-6d" d="M 3781 2919 
Q 3994 3244 4286 3414 
Q 4578 3584 4928 3584 
Q 5531 3584 5847 3212 
Q 6163 2841 6163 2131 
L 6163 0 
L 5038 0 
L 5038 1825 
Q 5041 1866 5042 1909 
Q 5044 1953 5044 2034 
Q 5044 2406 4934 2573 
Q 4825 2741 4581 2741 
Q 4263 2741 4089 2478 
Q 3916 2216 3909 1719 
L 3909 0 
L 2784 0 
L 2784 1825 
Q 2784 2406 2684 2573 
Q 2584 2741 2328 2741 
Q 2006 2741 1831 2477 
Q 1656 2213 1656 1722 
L 1656 0 
L 531 0 
L 531 3500 
L 1656 3500 
L 1656 2988 
Q 1863 3284 2130 3434 
Q 2397 3584 2719 3584 
Q 3081 3584 3359 3409 
Q 3638 3234 3781 2919 
z
" transform="scale(0.015625)"/>
      <path id="DejaVuSans-Bold-69" d="M 538 3500 
L 1656 3500 
L 1656 0 
L 538 0 
L 538 3500 
z
M 538 4863 
L 1656 4863 
L 1656 3950 
L 538 3950 
L 538 4863 
z
" transform="scale(0.015625)"/>
      <path id="DejaVuSans-Bold-73" d="M 3272 3391 
L 3272 2541 
Q 2913 2691 2578 2766 
Q 2244 2841 1947 2841 
Q 1628 2841 1473 2761 
Q 1319 2681 1319 2516 
Q 1319 2381 1436 2309 
Q 1553 2238 1856 2203 
L 2053 2175 
Q 2913 2066 3209 1816 
Q 3506 1566 3506 1031 
Q 3506 472 3093 190 
Q 2681 -91 1863 -91 
Q 1516 -91 1145 -36 
Q 775 19 384 128 
L 384 978 
Q 719 816 1070 734 
Q 1422 653 1784 653 
Q 2113 653 2278 743 
Q 2444 834 2444 1013 
Q 2444 1163 2330 1236 
Q 2216 1309 1875 1350 
L 1678 1375 
Q 931 1469 631 1722 
Q 331 1975 331 2491 
Q 331 3047 712 3315 
Q 1094 3584 1881 3584 
Q 2191 3584 2531 3537 
Q 2872 3491 3272 3391 
z
" transform="scale(0.015625)"/>
      <path id="DejaVuSans-Bold-6e" d="M 4056 2131 
L 4056 0 
L 2931 0 
L 2931 347 
L 2931 1631 
Q 2931 2084 2911 2256 
Q 2891 2428 2841 2509 
Q 2775 2619 2662 2680 
Q 2550 2741 2406 2741 
Q 2056 2741 1856 2470 
Q 1656 2200 1656 1722 
L 1656 0 
L 538 0 
L 538 3500 
L 1656 3500 
L 1656 2988 
Q 1909 3294 2193 3439 
Q 2478 3584 2822 3584 
Q 3428 3584 3742 3212 
Q 4056 2841 4056 2131 
z
" transform="scale(0.015625)"/>
      <path id="DejaVuSans-Bold-3a" d="M 716 3500 
L 1844 3500 
L 1844 2291 
L 716 2291 
L 716 3500 
z
M 716 1209 
L 1844 1209 
L 1844 0 
L 716 0 
L 716 1209 
z
" transform="scale(0.015625)"/>
      <path id="DejaVuSans-Bold-50" d="M 588 4666 
L 2584 4666 
Q 3475 4666 3951 4270 
Q 4428 3875 4428 3144 
Q 4428 2409 3951 2014 
Q 3475 1619 2584 1619 
L 1791 1619 
L 1791 0 
L 588 0 
L 588 4666 
z
M 1791 3794 
L 1791 2491 
L 2456 2491 
Q 2806 2491 2997 2661 
Q 3188 2831 3188 3144 
Q 3188 3456 2997 3625 
Q 2806 3794 2456 3794 
L 1791 3794 
z
" transform="scale(0.015625)"/>
      <path id="DejaVuSans-Bold-45" d="M 588 4666 
L 3834 4666 
L 3834 3756 
L 1791 3756 
L 1791 2888 
L 3713 2888 
L 3713 1978 
L 1791 1978 
L 1791 909 
L 3903 909 
L 3903 0 
L 588 0 
L 588 4666 
z
" transform="scale(0.015625)"/>
      <path id="DejaVuSans-Bold-76" d="M 97 3500 
L 1216 3500 
L 2088 1081 
L 2956 3500 
L 4078 3500 
L 2700 0 
L 1472 0 
L 97 3500 
z
" transform="scale(0.015625)"/>
      <path id="DejaVuSans-Bold-54" d="M 31 4666 
L 4331 4666 
L 4331 3756 
L 2784 3756 
L 2784 0 
L 1581 0 
L 1581 3756 
L 31 3756 
L 31 4666 
z
" transform="scale(0.015625)"/>
     </defs>
     <use xlink:href="#DejaVuSans-Bold-43"/>
     <use xlink:href="#DejaVuSans-Bold-68" x="73.388672"/>
     <use xlink:href="#DejaVuSans-Bold-61" x="144.580078"/>
     <use xlink:href="#DejaVuSans-Bold-70" x="212.060547"/>
     <use xlink:href="#DejaVuSans-Bold-74" x="283.642578"/>
     <use xlink:href="#DejaVuSans-Bold-65" x="331.445312"/>
     <use xlink:href="#DejaVuSans-Bold-72" x="399.267578"/>
     <use xlink:href="#DejaVuSans-Bold-20" x="448.583984"/>
     <use xlink:href="#DejaVuSans-Bold-36" x="483.398438"/>
     <use xlink:href="#DejaVuSans-Bold-20" x="552.978516"/>
     <use xlink:href="#DejaVuSans-Bold-43" x="587.792969"/>
     <use xlink:href="#DejaVuSans-Bold-6f" x="661.181641"/>
     <use xlink:href="#DejaVuSans-Bold-6d" x="729.882812"/>
     <use xlink:href="#DejaVuSans-Bold-70" x="834.082031"/>
     <use xlink:href="#DejaVuSans-Bold-61" x="905.664062"/>
     <use xlink:href="#DejaVuSans-Bold-72" x="973.144531"/>
     <use xlink:href="#DejaVuSans-Bold-69" x="1022.460938"/>
     <use xlink:href="#DejaVuSans-Bold-73" x="1056.738281"/>
     <use xlink:href="#DejaVuSans-Bold-6f" x="1116.259766"/>
     <use xlink:href="#DejaVuSans-Bold-6e" x="1184.960938"/>
     <use xlink:href="#DejaVuSans-Bold-3a" x="1256.152344"/>
     <use xlink:href="#DejaVuSans-Bold-20" x="1296.142578"/>
     <use xlink:href="#DejaVuSans-Bold-50" x="1330.957031"/>
     <use xlink:href="#DejaVuSans-Bold-6f" x="1404.248047"/>
     <use xlink:href="#DejaVuSans-Bold-73" x="1472.949219"/>
     <use xlink:href="#DejaVuSans-Bold-69" x="1532.470703"/>
     <use xlink:href="#DejaVuSans-Bold-74" x="1566.748047"/>
     <use xlink:href="#DejaVuSans-Bold-69" x="1614.550781"/>
     <use xlink:href="#DejaVuSans-Bold-6f" x="1648.828125"/>
     <use xlink:href="#DejaVuSans-Bold-6e" x="1717.529297"/>
     <use xlink:href="#DejaVuSans-Bold-20" x="1788.720703"/>
     <use xlink:href="#DejaVuSans-Bold-45" x="1823.535156"/>
     <use xlink:href="#DejaVuSans-Bold-72" x="1891.845703"/>
     <use xlink:href="#DejaVuSans-Bold-72" x="1941.162109"/>
     <use xlink:href="#DejaVuSans-Bold-6f" x="1990.478516"/>
     <use xlink:href="#DejaVuSans-Bold-72" x="2059.179688"/>
     <use xlink:href="#DejaVuSans-Bold-20" x="2108.496094"/>
     <use xlink:href="#DejaVuSans-Bold-76" x="2143.310547"/>
     <use xlink:href="#DejaVuSans-Bold-73" x="2208.496094"/>
     <use xlink:href="#DejaVuSans-Bold-20" x="2268.017578"/>
     <use xlink:href="#DejaVuSans-Bold-54" x="2302.832031"/>
     <use xlink:href="#DejaVuSans-Bold-69" x="2371.044922"/>
     <use xlink:href="#DejaVuSans-Bold-6d" x="2405.322266"/>
     <use xlink:href="#DejaVuSans-Bold-65" x="2509.521484"/>
    </g>
   </g>
   <g id="legend_1">
    <g id="patch_7">
     <path d="M 61.981563 97.981406 
L 168.205469 97.981406 
Q 170.405469 97.981406 170.405469 95.781406 
L 170.405469 32.297656 
Q 170.405469 30.097656 168.205469 30.097656 
L 61.981563 30.097656 
Q 59.781563 30.097656 59.781563 32.297656 
L 59.781563 95.781406 
Q 59.781563 97.981406 61.981563 97.981406 
z
" style="fill: #ffffff; opacity: 0.8; stroke: #cccccc; stroke-linejoin: miter"/>
    </g>
    <g id="line2d_102">
     <path d="M 64.181563 39.005937 
L 75.181563 39.005937 
L 86.181563 39.005937 
" style="fill: none; stroke-dasharray: 7.4,3.2; stroke-dashoffset: 0; stroke: #ff0000; stroke-width: 2"/>
    </g>
    <g id="text_19">
     <!-- IMU Only -->
     <g transform="translate(94.981563 42.855937) scale(0.11 -0.11)">
      <defs>
       <path id="DejaVuSans-49" d="M 628 4666 
L 1259 4666 
L 1259 0 
L 628 0 
L 628 4666 
z
" transform="scale(0.015625)"/>
       <path id="DejaVuSans-4d" d="M 628 4666 
L 1569 4666 
L 2759 1491 
L 3956 4666 
L 4897 4666 
L 4897 0 
L 4281 0 
L 4281 4097 
L 3078 897 
L 2444 897 
L 1241 4097 
L 1241 0 
L 628 0 
L 628 4666 
z
" transform="scale(0.015625)"/>
       <path id="DejaVuSans-55" d="M 556 4666 
L 1191 4666 
L 1191 1831 
Q 1191 1081 1462 751 
Q 1734 422 2344 422 
Q 2950 422 3222 751 
Q 3494 1081 3494 1831 
L 3494 4666 
L 4128 4666 
L 4128 1753 
Q 4128 841 3676 375 
Q 3225 -91 2344 -91 
Q 1459 -91 1007 375 
Q 556 841 556 1753 
L 556 4666 
z
" transform="scale(0.015625)"/>
       <path id="DejaVuSans-4f" d="M 2522 4238 
Q 1834 4238 1429 3725 
Q 1025 3213 1025 2328 
Q 1025 1447 1429 934 
Q 1834 422 2522 422 
Q 3209 422 3611 934 
Q 4013 1447 4013 2328 
Q 4013 3213 3611 3725 
Q 3209 4238 2522 4238 
z
M 2522 4750 
Q 3503 4750 4090 4092 
Q 4678 3434 4678 2328 
Q 4678 1225 4090 567 
Q 3503 -91 2522 -91 
Q 1538 -91 948 565 
Q 359 1222 359 2328 
Q 359 3434 948 4092 
Q 1538 4750 2522 4750 
z
" transform="scale(0.015625)"/>
       <path id="DejaVuSans-6c" d="M 603 4863 
L 1178 4863 
L 1178 0 
L 603 0 
L 603 4863 
z
" transform="scale(0.015625)"/>
       <path id="DejaVuSans-79" d="M 2059 -325 
Q 1816 -950 1584 -1140 
Q 1353 -1331 966 -1331 
L 506 -1331 
L 506 -850 
L 844 -850 
Q 1081 -850 1212 -737 
Q 1344 -625 1503 -206 
L 1606 56 
L 191 3500 
L 800 3500 
L 1894 763 
L 2988 3500 
L 3597 3500 
L 2059 -325 
z
" transform="scale(0.015625)"/>
      </defs>
      <use xlink:href="#DejaVuSans-49"/>
      <use xlink:href="#DejaVuSans-4d" x="29.492188"/>
      <use xlink:href="#DejaVuSans-55" x="115.771484"/>
      <use xlink:href="#DejaVuSans-20" x="188.964844"/>
      <use xlink:href="#DejaVuSans-4f" x="220.751953"/>
      <use xlink:href="#DejaVuSans-6e" x="299.462891"/>
      <use xlink:href="#DejaVuSans-6c" x="362.841797"/>
      <use xlink:href="#DejaVuSans-79" x="390.625"/>
     </g>
    </g>
    <g id="line2d_103">
     <path d="M 64.181563 55.151875 
L 75.181563 55.151875 
L 86.181563 55.151875 
" style="fill: none; stroke: #008000; stroke-width: 2; stroke-linecap: square"/>
    </g>
    <g id="text_20">
     <!-- IMU + ZUPT -->
     <g transform="translate(94.981563 59.001875) scale(0.11 -0.11)">
      <defs>
       <path id="DejaVuSans-2b" d="M 2944 4013 
L 2944 2272 
L 4684 2272 
L 4684 1741 
L 2944 1741 
L 2944 0 
L 2419 0 
L 2419 1741 
L 678 1741 
L 678 2272 
L 2419 2272 
L 2419 4013 
L 2944 4013 
z
" transform="scale(0.015625)"/>
       <path id="DejaVuSans-5a" d="M 359 4666 
L 4025 4666 
L 4025 4184 
L 1075 531 
L 4097 531 
L 4097 0 
L 288 0 
L 288 481 
L 3238 4134 
L 359 4134 
L 359 4666 
z
" transform="scale(0.015625)"/>
      </defs>
      <use xlink:href="#DejaVuSans-49"/>
      <use xlink:href="#DejaVuSans-4d" x="29.492188"/>
      <use xlink:href="#DejaVuSans-55" x="115.771484"/>
      <use xlink:href="#DejaVuSans-20" x="188.964844"/>
      <use xlink:href="#DejaVuSans-2b" x="220.751953"/>
      <use xlink:href="#DejaVuSans-20" x="304.541016"/>
      <use xlink:href="#DejaVuSans-5a" x="336.328125"/>
      <use xlink:href="#DejaVuSans-55" x="404.833984"/>
      <use xlink:href="#DejaVuSans-50" x="478.027344"/>
      <use xlink:href="#DejaVuSans-54" x="538.330078"/>
     </g>
    </g>
    <g id="line2d_104">
     <path d="M 64.181563 71.297812 
L 75.181563 71.297812 
L 86.181563 71.297812 
" style="fill: none; stroke-dasharray: 12.8,3.2,2,3.2; stroke-dashoffset: 0; stroke: #0000ff; stroke-width: 2"/>
    </g>
    <g id="text_21">
     <!-- Wheel Odom -->
     <g transform="translate(94.981563 75.147812) scale(0.11 -0.11)">
      <defs>
       <path id="DejaVuSans-57" d="M 213 4666 
L 850 4666 
L 1831 722 
L 2809 4666 
L 3519 4666 
L 4500 722 
L 5478 4666 
L 6119 4666 
L 4947 0 
L 4153 0 
L 3169 4050 
L 2175 0 
L 1381 0 
L 213 4666 
z
" transform="scale(0.015625)"/>
       <path id="DejaVuSans-68" d="M 3513 2113 
L 3513 0 
L 2938 0 
L 2938 2094 
Q 2938 2591 2744 2837 
Q 2550 3084 2163 3084 
Q 1697 3084 1428 2787 
Q 1159 2491 1159 1978 
L 1159 0 
L 581 0 
L 581 4863 
L 1159 4863 
L 1159 2956 
Q 1366 3272 1645 3428 
Q 1925 3584 2291 3584 
Q 2894 3584 3203 3211 
Q 3513 2838 3513 2113 
z
" transform="scale(0.015625)"/>
       <path id="DejaVuSans-64" d="M 2906 2969 
L 2906 4863 
L 3481 4863 
L 3481 0 
L 2906 0 
L 2906 525 
Q 2725 213 2448 61 
Q 2172 -91 1784 -91 
Q 1150 -91 751 415 
Q 353 922 353 1747 
Q 353 2572 751 3078 
Q 1150 3584 1784 3584 
Q 2172 3584 2448 3432 
Q 2725 3281 2906 2969 
z
M 947 1747 
Q 947 1113 1208 752 
Q 1469 391 1925 391 
Q 2381 391 2643 752 
Q 2906 1113 2906 1747 
Q 2906 2381 2643 2742 
Q 2381 3103 1925 3103 
Q 1469 3103 1208 2742 
Q 947 2381 947 1747 
z
" transform="scale(0.015625)"/>
      </defs>
      <use xlink:href="#DejaVuSans-57"/>
      <use xlink:href="#DejaVuSans-68" x="98.876953"/>
      <use xlink:href="#DejaVuSans-65" x="162.255859"/>
      <use xlink:href="#DejaVuSans-65" x="223.779297"/>
      <use xlink:href="#DejaVuSans-6c" x="285.302734"/>
      <use xlink:href="#DejaVuSans-20" x="313.085938"/>
      <use xlink:href="#DejaVuSans-4f" x="344.873047"/>
      <use xlink:href="#DejaVuSans-64" x="423.583984"/>
      <use xlink:href="#DejaVuSans-6f" x="487.060547"/>
      <use xlink:href="#DejaVuSans-6d" x="548.242188"/>
     </g>
    </g>
    <g id="line2d_105">
     <path d="M 64.181563 87.44375 
L 75.181563 87.44375 
L 86.181563 87.44375 
" style="fill: none; stroke-dasharray: 2,3.3; stroke-dashoffset: 0; stroke: #ffa500; stroke-width: 2"/>
    </g>
    <g id="text_22">
     <!-- PDR (Mag) -->
     <g transform="translate(94.981563 91.29375) scale(0.11 -0.11)">
      <defs>
       <path id="DejaVuSans-44" d="M 1259 4147 
L 1259 519 
L 2022 519 
Q 2988 519 3436 956 
Q 3884 1394 3884 2338 
Q 3884 3275 3436 3711 
Q 2988 4147 2022 4147 
L 1259 4147 
z
M 628 4666 
L 1925 4666 
Q 3281 4666 3915 4102 
Q 4550 3538 4550 2338 
Q 4550 1131 3912 565 
Q 3275 0 1925 0 
L 628 0 
L 628 4666 
z
" transform="scale(0.015625)"/>
       <path id="DejaVuSans-52" d="M 2841 2188 
Q 3044 2119 3236 1894 
Q 3428 1669 3622 1275 
L 4263 0 
L 3584 0 
L 2988 1197 
Q 2756 1666 2539 1819 
Q 2322 1972 1947 1972 
L 1259 1972 
L 1259 0 
L 628 0 
L 628 4666 
L 2053 4666 
Q 2853 4666 3247 4331 
Q 3641 3997 3641 3322 
Q 3641 2881 3436 2590 
Q 3231 2300 2841 2188 
z
M 1259 4147 
L 1259 2491 
L 2053 2491 
Q 2509 2491 2742 2702 
Q 2975 2913 2975 3322 
Q 2975 3731 2742 3939 
Q 2509 4147 2053 4147 
L 1259 4147 
z
" transform="scale(0.015625)"/>
       <path id="DejaVuSans-28" d="M 1984 4856 
Q 1566 4138 1362 3434 
Q 1159 2731 1159 2009 
Q 1159 1288 1364 580 
Q 1569 -128 1984 -844 
L 1484 -844 
Q 1016 -109 783 600 
Q 550 1309 550 2009 
Q 550 2706 781 3412 
Q 1013 4119 1484 4856 
L 1984 4856 
z
" transform="scale(0.015625)"/>
       <path id="DejaVuSans-61" d="M 2194 1759 
Q 1497 1759 1228 1600 
Q 959 1441 959 1056 
Q 959 750 1161 570 
Q 1363 391 1709 391 
Q 2188 391 2477 730 
Q 2766 1069 2766 1631 
L 2766 1759 
L 2194 1759 
z
M 3341 1997 
L 3341 0 
L 2766 0 
L 2766 531 
Q 2569 213 2275 61 
Q 1981 -91 1556 -91 
Q 1019 -91 701 211 
Q 384 513 384 1019 
Q 384 1609 779 1909 
Q 1175 2209 1959 2209 
L 2766 2209 
L 2766 2266 
Q 2766 2663 2505 2880 
Q 2244 3097 1772 3097 
Q 1472 3097 1187 3025 
Q 903 2953 641 2809 
L 641 3341 
Q 956 3463 1253 3523 
Q 1550 3584 1831 3584 
Q 2591 3584 2966 3190 
Q 3341 2797 3341 1997 
z
" transform="scale(0.015625)"/>
       <path id="DejaVuSans-67" d="M 2906 1791 
Q 2906 2416 2648 2759 
Q 2391 3103 1925 3103 
Q 1463 3103 1205 2759 
Q 947 2416 947 1791 
Q 947 1169 1205 825 
Q 1463 481 1925 481 
Q 2391 481 2648 825 
Q 2906 1169 2906 1791 
z
M 3481 434 
Q 3481 -459 3084 -895 
Q 2688 -1331 1869 -1331 
Q 1566 -1331 1297 -1286 
Q 1028 -1241 775 -1147 
L 775 -588 
Q 1028 -725 1275 -790 
Q 1522 -856 1778 -856 
Q 2344 -856 2625 -561 
Q 2906 -266 2906 331 
L 2906 616 
Q 2728 306 2450 153 
Q 2172 0 1784 0 
Q 1141 0 747 490 
Q 353 981 353 1791 
Q 353 2603 747 3093 
Q 1141 3584 1784 3584 
Q 2172 3584 2450 3431 
Q 2728 3278 2906 2969 
L 2906 3500 
L 3481 3500 
L 3481 434 
z
" transform="scale(0.015625)"/>
       <path id="DejaVuSans-29" d="M 513 4856 
L 1013 4856 
Q 1481 4119 1714 3412 
Q 1947 2706 1947 2009 
Q 1947 1309 1714 600 
Q 1481 -109 1013 -844 
L 513 -844 
Q 928 -128 1133 580 
Q 1338 1288 1338 2009 
Q 1338 2731 1133 3434 
Q 928 4138 513 4856 
z
" transform="scale(0.015625)"/>
      </defs>
      <use xlink:href="#DejaVuSans-50"/>
      <use xlink:href="#DejaVuSans-44" x="60.302734"/>
      <use xlink:href="#DejaVuSans-52" x="137.304688"/>
      <use xlink:href="#DejaVuSans-20" x="206.787109"/>
      <use xlink:href="#DejaVuSans-28" x="238.574219"/>
      <use xlink:href="#DejaVuSans-4d" x="277.587891"/>
      <use xlink:href="#DejaVuSans-61" x="363.867188"/>
      <use xlink:href="#DejaVuSans-67" x="425.146484"/>
      <use xlink:href="#DejaVuSans-29" x="488.623047"/>
     </g>
    </g>
   </g>
  </g>
 </g>
 <defs>
  <clipPath id="p99c6517ce5">
   <rect x="54.281563" y="24.597656" width="938.322946" height="430.84"/>
  </clipPath>
 </defs>
</svg>
