<?xml version="1.0" encoding="utf-8" standalone="no"?>
<!DOCTYPE svg PUBLIC "-//W3C//DTD SVG 1.1//EN"
  "http://www.w3.org/Graphics/SVG/1.1/DTD/svg11.dtd">
<svg xmlns:xlink="http://www.w3.org/1999/xlink" width="855.560937pt" height="710.889688pt" viewBox="0 0 855.560937 710.889688" xmlns="http://www.w3.org/2000/svg" version="1.1">
 <metadata>
  <rdf:RDF xmlns:dc="http://purl.org/dc/elements/1.1/" xmlns:cc="http://creativecommons.org/ns#" xmlns:rdf="http://www.w3.org/1999/02/22-rdf-syntax-ns#">
   <cc:Work>
    <dc:type rdf:resource="http://purl.org/dc/dcmitype/StillImage"/>
    <dc:date>2025-12-13T19:04:20.809384</dc:date>
    <dc:format>image/svg+xml</dc:format>
    <dc:creator>
     <cc:Agent>
      <dc:title>Matplotlib v3.10.7, https://matplotlib.org/</dc:title>
     </cc:Agent>
    </dc:creator>
   </cc:Work>
  </rdf:RDF>
 </metadata>
 <defs>
  <style type="text/css">*{stroke-linejoin: round; stroke-linecap: butt}</style>
 </defs>
 <g id="figure_1">
  <g id="patch_1">
   <path d="M 0 710.889688 
L 855.560937 710.889688 
L 855.560937 0 
L 0 0 
z
" style="fill: #ffffff"/>
  </g>
  <g id="axes_1">
   <g id="patch_2">
    <path d="M 57.280938 230.157813 
L 848.360937 230.157813 
L 848.360937 23.837812 
L 57.280938 23.837812 
z
" style="fill: #ffffff"/>
   </g>
   <g id="matplotlib.axis_1">
    <g id="xtick_1">
     <g id="line2d_1">
      <path d="M 93.239119 230.157813 
L 93.239119 23.837812 
" clip-path="url(#p347a62c173)" style="fill: none; stroke: #b0b0b0; stroke-opacity: 0.3; stroke-width: 0.8; stroke-linecap: square"/>
     </g>
     <g id="line2d_2">
      <defs>
       <path id="m831313474c" d="M 0 0 
L 0 3.5 
" style="stroke: #000000; stroke-width: 0.8"/>
      </defs>
      <g>
       <use xlink:href="#m831313474c" x="93.239119" y="230.157813" style="stroke: #000000; stroke-width: 0.8"/>
      </g>
     </g>
    </g>
    <g id="xtick_2">
     <g id="line2d_3">
      <path d="M 237.086231 230.157813 
L 237.086231 23.837812 
" clip-path="url(#p347a62c173)" style="fill: none; stroke: #b0b0b0; stroke-opacity: 0.3; stroke-width: 0.8; stroke-linecap: square"/>
     </g>
     <g id="line2d_4">
      <g>
       <use xlink:href="#m831313474c" x="237.086231" y="230.157813" style="stroke: #000000; stroke-width: 0.8"/>
      </g>
     </g>
    </g>
    <g id="xtick_3">
     <g id="line2d_5">
      <path d="M 380.933343 230.157813 
L 380.933343 23.837812 
" clip-path="url(#p347a62c173)" style="fill: none; stroke: #b0b0b0; stroke-opacity: 0.3; stroke-width: 0.8; stroke-linecap: square"/>
     </g>
     <g id="line2d_6">
      <g>
       <use xlink:href="#m831313474c" x="380.933343" y="230.157813" style="stroke: #000000; stroke-width: 0.8"/>
      </g>
     </g>
    </g>
    <g id="xtick_4">
     <g id="line2d_7">
      <path d="M 524.780455 230.157813 
L 524.780455 23.837812 
" clip-path="url(#p347a62c173)" style="fill: none; stroke: #b0b0b0; stroke-opacity: 0.3; stroke-width: 0.8; stroke-linecap: square"/>
     </g>
     <g id="line2d_8">
      <g>
       <use xlink:href="#m831313474c" x="524.780455" y="230.157813" style="stroke: #000000; stroke-width: 0.8"/>
      </g>
     </g>
    </g>
    <g id="xtick_5">
     <g id="line2d_9">
      <path d="M 668.627567 230.157813 
L 668.627567 23.837812 
" clip-path="url(#p347a62c173)" style="fill: none; stroke: #b0b0b0; stroke-opacity: 0.3; stroke-width: 0.8; stroke-linecap: square"/>
     </g>
     <g id="line2d_10">
      <g>
       <use xlink:href="#m831313474c" x="668.627567" y="230.157813" style="stroke: #000000; stroke-width: 0.8"/>
      </g>
     </g>
    </g>
    <g id="xtick_6">
     <g id="line2d_11">
      <path d="M 812.474679 230.157813 
L 812.474679 23.837812 
" clip-path="url(#p347a62c173)" style="fill: none; stroke: #b0b0b0; stroke-opacity: 0.3; stroke-width: 0.8; stroke-linecap: square"/>
     </g>
     <g id="line2d_12">
      <g>
       <use xlink:href="#m831313474c" x="812.474679" y="230.157813" style="stroke: #000000; stroke-width: 0.8"/>
      </g>
     </g>
    </g>
   </g>
   <g id="matplotlib.axis_2">
    <g id="ytick_1">
     <g id="line2d_13">
      <path d="M 57.280938 205.162528 
L 848.360937 205.162528 
" clip-path="url(#p347a62c173)" style="fill: none; stroke: #b0b0b0; stroke-opacity: 0.3; stroke-width: 0.8; stroke-linecap: square"/>
     </g>
     <g id="line2d_14">
      <defs>
       <path id="m855e18741d" d="M 0 0 
L -3.5 0 
" style="stroke: #000000; stroke-width: 0.8"/>
      </defs>
      <g>
       <use xlink:href="#m855e18741d" x="57.280938" y="205.162528" style="stroke: #000000; stroke-width: 0.8"/>
      </g>
     </g>
     <g id="text_1">
      <!-- −150 -->
      <g transform="translate(22.81375 208.961747) scale(0.1 -0.1)">
       <defs>
        <path id="DejaVuSans-2212" d="M 678 2272 
L 4684 2272 
L 4684 1741 
L 678 1741 
L 678 2272 
z
" transform="scale(0.015625)"/>
        <path id="DejaVuSans-31" d="M 794 531 
L 1825 531 
L 1825 4091 
L 703 3866 
L 703 4441 
L 1819 4666 
L 2450 4666 
L 2450 531 
L 3481 531 
L 3481 0 
L 794 0 
L 794 531 
z
" transform="scale(0.015625)"/>
        <path id="DejaVuSans-35" d="M 691 4666 
L 3169 4666 
L 3169 4134 
L 1269 4134 
L 1269 2991 
Q 1406 3038 1543 3061 
Q 1681 3084 1819 3084 
Q 2600 3084 3056 2656 
Q 3513 2228 3513 1497 
Q 3513 744 3044 326 
Q 2575 -91 1722 -91 
Q 1428 -91 1123 -41 
Q 819 9 494 109 
L 494 744 
Q 775 591 1075 516 
Q 1375 441 1709 441 
Q 2250 441 2565 725 
Q 2881 1009 2881 1497 
Q 2881 1984 2565 2268 
Q 2250 2553 1709 2553 
Q 1456 2553 1204 2497 
Q 953 2441 691 2322 
L 691 4666 
z
" transform="scale(0.015625)"/>
        <path id="DejaVuSans-30" d="M 2034 4250 
Q 1547 4250 1301 3770 
Q 1056 3291 1056 2328 
Q 1056 1369 1301 889 
Q 1547 409 2034 409 
Q 2525 409 2770 889 
Q 3016 1369 3016 2328 
Q 3016 3291 2770 3770 
Q 2525 4250 2034 4250 
z
M 2034 4750 
Q 2819 4750 3233 4129 
Q 3647 3509 3647 2328 
Q 3647 1150 3233 529 
Q 2819 -91 2034 -91 
Q 1250 -91 836 529 
Q 422 1150 422 2328 
Q 422 3509 836 4129 
Q 1250 4750 2034 4750 
z
" transform="scale(0.015625)"/>
       </defs>
       <use xlink:href="#DejaVuSans-2212"/>
       <use xlink:href="#DejaVuSans-31" transform="translate(83.789062 0)"/>
       <use xlink:href="#DejaVuSans-35" transform="translate(147.412109 0)"/>
       <use xlink:href="#DejaVuSans-30" transform="translate(211.035156 0)"/>
      </g>
     </g>
    </g>
    <g id="ytick_2">
     <g id="line2d_15">
      <path d="M 57.280938 179.108745 
L 848.360937 179.108745 
" clip-path="url(#p347a62c173)" style="fill: none; stroke: #b0b0b0; stroke-opacity: 0.3; stroke-width: 0.8; stroke-linecap: square"/>
     </g>
     <g id="line2d_16">
      <g>
       <use xlink:href="#m855e18741d" x="57.280938" y="179.108745" style="stroke: #000000; stroke-width: 0.8"/>
      </g>
     </g>
     <g id="text_2">
      <!-- −100 -->
      <g transform="translate(22.81375 182.907963) scale(0.1 -0.1)">
       <use xlink:href="#DejaVuSans-2212"/>
       <use xlink:href="#DejaVuSans-31" transform="translate(83.789062 0)"/>
       <use xlink:href="#DejaVuSans-30" transform="translate(147.412109 0)"/>
       <use xlink:href="#DejaVuSans-30" transform="translate(211.035156 0)"/>
      </g>
     </g>
    </g>
    <g id="ytick_3">
     <g id="line2d_17">
      <path d="M 57.280938 153.054961 
L 848.360937 153.054961 
" clip-path="url(#p347a62c173)" style="fill: none; stroke: #b0b0b0; stroke-opacity: 0.3; stroke-width: 0.8; stroke-linecap: square"/>
     </g>
     <g id="line2d_18">
      <g>
       <use xlink:href="#m855e18741d" x="57.280938" y="153.054961" style="stroke: #000000; stroke-width: 0.8"/>
      </g>
     </g>
     <g id="text_3">
      <!-- −50 -->
      <g transform="translate(29.17625 156.85418) scale(0.1 -0.1)">
       <use xlink:href="#DejaVuSans-2212"/>
       <use xlink:href="#DejaVuSans-35" transform="translate(83.789062 0)"/>
       <use xlink:href="#DejaVuSans-30" transform="translate(147.412109 0)"/>
      </g>
     </g>
    </g>
    <g id="ytick_4">
     <g id="line2d_19">
      <path d="M 57.280938 127.001178 
L 848.360937 127.001178 
" clip-path="url(#p347a62c173)" style="fill: none; stroke: #b0b0b0; stroke-opacity: 0.3; stroke-width: 0.8; stroke-linecap: square"/>
     </g>
     <g id="line2d_20">
      <g>
       <use xlink:href="#m855e18741d" x="57.280938" y="127.001178" style="stroke: #000000; stroke-width: 0.8"/>
      </g>
     </g>
     <g id="text_4">
      <!-- 0 -->
      <g transform="translate(43.918438 130.800397) scale(0.1 -0.1)">
       <use xlink:href="#DejaVuSans-30"/>
      </g>
     </g>
    </g>
    <g id="ytick_5">
     <g id="line2d_21">
      <path d="M 57.280938 100.947395 
L 848.360937 100.947395 
" clip-path="url(#p347a62c173)" style="fill: none; stroke: #b0b0b0; stroke-opacity: 0.3; stroke-width: 0.8; stroke-linecap: square"/>
     </g>
     <g id="line2d_22">
      <g>
       <use xlink:href="#m855e18741d" x="57.280938" y="100.947395" style="stroke: #000000; stroke-width: 0.8"/>
      </g>
     </g>
     <g id="text_5">
      <!-- 50 -->
      <g transform="translate(37.555938 104.746613) scale(0.1 -0.1)">
       <use xlink:href="#DejaVuSans-35"/>
       <use xlink:href="#DejaVuSans-30" transform="translate(63.623047 0)"/>
      </g>
     </g>
    </g>
    <g id="ytick_6">
     <g id="line2d_23">
      <path d="M 57.280938 74.893611 
L 848.360937 74.893611 
" clip-path="url(#p347a62c173)" style="fill: none; stroke: #b0b0b0; stroke-opacity: 0.3; stroke-width: 0.8; stroke-linecap: square"/>
     </g>
     <g id="line2d_24">
      <g>
       <use xlink:href="#m855e18741d" x="57.280938" y="74.893611" style="stroke: #000000; stroke-width: 0.8"/>
      </g>
     </g>
     <g id="text_6">
      <!-- 100 -->
      <g transform="translate(31.193438 78.69283) scale(0.1 -0.1)">
       <use xlink:href="#DejaVuSans-31"/>
       <use xlink:href="#DejaVuSans-30" transform="translate(63.623047 0)"/>
       <use xlink:href="#DejaVuSans-30" transform="translate(127.246094 0)"/>
      </g>
     </g>
    </g>
    <g id="ytick_7">
     <g id="line2d_25">
      <path d="M 57.280938 48.839828 
L 848.360937 48.839828 
" clip-path="url(#p347a62c173)" style="fill: none; stroke: #b0b0b0; stroke-opacity: 0.3; stroke-width: 0.8; stroke-linecap: square"/>
     </g>
     <g id="line2d_26">
      <g>
       <use xlink:href="#m855e18741d" x="57.280938" y="48.839828" style="stroke: #000000; stroke-width: 0.8"/>
      </g>
     </g>
     <g id="text_7">
      <!-- 150 -->
      <g transform="translate(31.193438 52.639047) scale(0.1 -0.1)">
       <use xlink:href="#DejaVuSans-31"/>
       <use xlink:href="#DejaVuSans-35" transform="translate(63.623047 0)"/>
       <use xlink:href="#DejaVuSans-30" transform="translate(127.246094 0)"/>
      </g>
     </g>
    </g>
    <g id="text_8">
     <!-- Roll [deg] -->
     <g transform="translate(16.318125 155.800625) rotate(-90) scale(0.12 -0.12)">
      <defs>
       <path id="DejaVuSans-52" d="M 2841 2188 
Q 3044 2119 3236 1894 
Q 3428 1669 3622 1275 
L 4263 0 
L 3584 0 
L 2988 1197 
Q 2756 1666 2539 1819 
Q 2322 1972 1947 1972 
L 1259 1972 
L 1259 0 
L 628 0 
L 628 4666 
L 2053 4666 
Q 2853 4666 3247 4331 
Q 3641 3997 3641 3322 
Q 3641 2881 3436 2590 
Q 3231 2300 2841 2188 
z
M 1259 4147 
L 1259 2491 
L 2053 2491 
Q 2509 2491 2742 2702 
Q 2975 2913 2975 3322 
Q 2975 3731 2742 3939 
Q 2509 4147 2053 4147 
L 1259 4147 
z
" transform="scale(0.015625)"/>
       <path id="DejaVuSans-6f" d="M 1959 3097 
Q 1497 3097 1228 2736 
Q 959 2375 959 1747 
Q 959 1119 1226 758 
Q 1494 397 1959 397 
Q 2419 397 2687 759 
Q 2956 1122 2956 1747 
Q 2956 2369 2687 2733 
Q 2419 3097 1959 3097 
z
M 1959 3584 
Q 2709 3584 3137 3096 
Q 3566 2609 3566 1747 
Q 3566 888 3137 398 
Q 2709 -91 1959 -91 
Q 1206 -91 779 398 
Q 353 888 353 1747 
Q 353 2609 779 3096 
Q 1206 3584 1959 3584 
z
" transform="scale(0.015625)"/>
       <path id="DejaVuSans-6c" d="M 603 4863 
L 1178 4863 
L 1178 0 
L 603 0 
L 603 4863 
z
" transform="scale(0.015625)"/>
       <path id="DejaVuSans-20" transform="scale(0.015625)"/>
       <path id="DejaVuSans-5b" d="M 550 4863 
L 1875 4863 
L 1875 4416 
L 1125 4416 
L 1125 -397 
L 1875 -397 
L 1875 -844 
L 550 -844 
L 550 4863 
z
" transform="scale(0.015625)"/>
       <path id="DejaVuSans-64" d="M 2906 2969 
L 2906 4863 
L 3481 4863 
L 3481 0 
L 2906 0 
L 2906 525 
Q 2725 213 2448 61 
Q 2172 -91 1784 -91 
Q 1150 -91 751 415 
Q 353 922 353 1747 
Q 353 2572 751 3078 
Q 1150 3584 1784 3584 
Q 2172 3584 2448 3432 
Q 2725 3281 2906 2969 
z
M 947 1747 
Q 947 1113 1208 752 
Q 1469 391 1925 391 
Q 2381 391 2643 752 
Q 2906 1113 2906 1747 
Q 2906 2381 2643 2742 
Q 2381 3103 1925 3103 
Q 1469 3103 1208 2742 
Q 947 2381 947 1747 
z
" transform="scale(0.015625)"/>
       <path id="DejaVuSans-65" d="M 3597 1894 
L 3597 1613 
L 953 1613 
Q 991 1019 1311 708 
Q 1631 397 2203 397 
Q 2534 397 2845 478 
Q 3156 559 3463 722 
L 3463 178 
Q 3153 47 2828 -22 
Q 2503 -91 2169 -91 
Q 1331 -91 842 396 
Q 353 884 353 1716 
Q 353 2575 817 3079 
Q 1281 3584 2069 3584 
Q 2775 3584 3186 3129 
Q 3597 2675 3597 1894 
z
M 3022 2063 
Q 3016 2534 2758 2815 
Q 2500 3097 2075 3097 
Q 1594 3097 1305 2825 
Q 1016 2553 972 2059 
L 3022 2063 
z
" transform="scale(0.015625)"/>
       <path id="DejaVuSans-67" d="M 2906 1791 
Q 2906 2416 2648 2759 
Q 2391 3103 1925 3103 
Q 1463 3103 1205 2759 
Q 947 2416 947 1791 
Q 947 1169 1205 825 
Q 1463 481 1925 481 
Q 2391 481 2648 825 
Q 2906 1169 2906 1791 
z
M 3481 434 
Q 3481 -459 3084 -895 
Q 2688 -1331 1869 -1331 
Q 1566 -1331 1297 -1286 
Q 1028 -1241 775 -1147 
L 775 -588 
Q 1028 -725 1275 -790 
Q 1522 -856 1778 -856 
Q 2344 -856 2625 -561 
Q 2906 -266 2906 331 
L 2906 616 
Q 2728 306 2450 153 
Q 2172 0 1784 0 
Q 1141 0 747 490 
Q 353 981 353 1791 
Q 353 2603 747 3093 
Q 1141 3584 1784 3584 
Q 2172 3584 2450 3431 
Q 2728 3278 2906 2969 
L 2906 3500 
L 3481 3500 
L 3481 434 
z
" transform="scale(0.015625)"/>
       <path id="DejaVuSans-5d" d="M 1947 4863 
L 1947 -844 
L 622 -844 
L 622 -397 
L 1369 -397 
L 1369 4416 
L 622 4416 
L 622 4863 
L 1947 4863 
z
" transform="scale(0.015625)"/>
      </defs>
      <use xlink:href="#DejaVuSans-52"/>
      <use xlink:href="#DejaVuSans-6f" transform="translate(64.982422 0)"/>
      <use xlink:href="#DejaVuSans-6c" transform="translate(126.164062 0)"/>
      <use xlink:href="#DejaVuSans-6c" transform="translate(153.947266 0)"/>
      <use xlink:href="#DejaVuSans-20" transform="translate(181.730469 0)"/>
      <use xlink:href="#DejaVuSans-5b" transform="translate(213.517578 0)"/>
      <use xlink:href="#DejaVuSans-64" transform="translate(252.53125 0)"/>
      <use xlink:href="#DejaVuSans-65" transform="translate(316.007812 0)"/>
      <use xlink:href="#DejaVuSans-67" transform="translate(377.53125 0)"/>
      <use xlink:href="#DejaVuSans-5d" transform="translate(441.007812 0)"/>
     </g>
    </g>
   </g>
   <g id="line2d_27">
    <path d="M 93.239119 127.001178 
L 812.402756 127.001178 
L 812.402756 127.001178 
" clip-path="url(#p347a62c173)" style="fill: none; stroke: #000000; stroke-width: 2; stroke-linecap: square"/>
   </g>
   <g id="line2d_28">
    <path d="M 93.239119 127.001178 
L 103.524188 113.453708 
L 106.041512 109.769302 
L 108.127295 106.555314 
L 111.220008 101.404445 
L 113.377715 97.519031 
L 122.368159 81.160898 
L 125.60472 76.157694 
L 130.207827 70.075111 
L 133.875928 65.23501 
L 136.393253 61.411019 
L 140.133278 54.833664 
L 145.02408 44.450575 
L 148.764105 34.524351 
L 149.123722 33.433915 
L 149.195646 220.768145 
L 149.267569 220.549575 
L 150.921811 214.660592 
L 152.647977 207.189281 
L 154.086448 199.573729 
L 155.309148 192.293431 
L 156.459925 184.659287 
L 157.826473 175.584144 
L 159.480714 166.15463 
L 161.782268 156.052868 
L 163.148816 151.476247 
L 165.522293 145.445296 
L 167.392306 141.737042 
L 168.830777 139.193307 
L 170.197324 137.144611 
L 171.276178 135.681137 
L 172.211184 134.489857 
L 173.577731 132.881993 
L 178.252763 128.446304 
L 182.496252 125.205945 
L 183.431259 124.553912 
L 185.157424 123.412427 
L 187.818595 121.898991 
L 189.185143 121.314801 
L 191.774391 120.280763 
L 199.901753 117.872854 
L 200.764836 117.572245 
L 201.124453 117.417773 
L 201.196377 120.610512 
L 201.2683 141.279249 
L 201.340224 141.184008 
L 203.138313 138.734012 
L 206.374873 133.75838 
L 209.467586 128.641926 
L 210.834133 126.375943 
L 212.272604 123.921838 
L 214.646082 119.915471 
L 222.198055 106.502862 
L 223.996144 103.117601 
L 227.808093 95.439514 
L 236.223149 76.048105 
L 239.531632 67.691467 
L 247.802841 47.990992 
L 250.895554 41.39161 
L 255.06712 33.304421 
L 255.139044 220.75552 
L 255.210967 220.621208 
L 257.440598 216.585575 
L 260.892928 210.668124 
L 267.79759 200.268563 
L 269.451831 198.168594 
L 271.393768 195.925981 
L 272.544544 194.789763 
L 273.048009 194.339386 
L 273.119933 220.259861 
L 273.26378 59.765431 
L 274.846098 58.916241 
L 276.50034 57.730694 
L 278.801894 55.44209 
L 280.240365 53.715337 
L 281.463065 52.15546 
L 283.045384 49.97612 
L 286.569638 45.008878 
L 288.367727 42.521466 
L 290.813128 39.303632 
L 292.323522 37.404453 
L 295.775853 33.215994 
L 295.847777 220.721319 
L 295.9197 220.634347 
L 297.286248 219.096738 
L 310.592106 204.392087 
L 315.12329 198.790547 
L 316.849455 196.393023 
L 318.216002 194.254352 
L 318.863314 193.237545 
L 320.229862 190.969431 
L 322.747186 185.807321 
L 324.113734 182.152724 
L 324.976817 179.268172 
L 326.127594 174.426964 
L 327.0626 168.933447 
L 327.781835 163.598372 
L 328.572995 156.000977 
L 329.723771 142.304934 
L 331.018395 126.808391 
L 331.737631 119.937613 
L 332.52879 114.054867 
L 333.463796 108.721159 
L 334.398803 104.766953 
L 335.76535 100.457018 
L 337.347668 96.680225 
L 338.786139 93.926119 
L 341.303464 90.139197 
L 348.208125 81.576312 
L 351.300838 77.032376 
L 352.811233 74.551769 
L 355.256634 70.166218 
L 358.2055 64.421694 
L 359.284353 62.257668 
L 364.822467 51.279999 
L 367.483638 46.439424 
L 371.439434 39.891338 
L 376.042541 33.2191 
L 376.114465 220.710573 
L 376.186389 220.616764 
L 379.279101 216.496562 
L 384.09798 210.273566 
L 386.183763 207.569565 
L 393.519966 197.407159 
L 399.417697 188.218132 
L 409.558919 171.936003 
L 412.004319 168.473358 
L 414.162026 165.676517 
L 415.816268 163.632151 
L 420.347452 157.466613 
L 422.864776 153.179934 
L 423.799783 151.272423 
L 426.748648 144.295401 
L 429.40982 136.346465 
L 430.776368 131.61593 
L 431.855221 127.387962 
L 433.725233 119.23413 
L 436.098711 107.126545 
L 441.708748 77.780987 
L 443.291066 71.282647 
L 445.520697 63.80578 
L 447.390709 58.707641 
L 448.613409 55.794003 
L 450.914963 51.083192 
L 454.007676 45.890503 
L 456.093459 42.900869 
L 457.388083 41.238328 
L 458.610784 39.746191 
L 461.200032 36.786521 
L 462.350809 35.510549 
L 463.141968 34.672857 
L 464.580439 33.274659 
L 464.652362 220.779631 
L 464.724286 220.707753 
L 468.536234 217.153609 
L 473.930501 212.704211 
L 480.763239 207.774493 
L 484.143646 206.043385 
L 486.660971 205.045651 
L 488.818677 204.333708 
L 488.890601 215.848605 
L 489.034448 52.51386 
L 490.68869 50.545199 
L 495.219874 44.27735 
L 502.412229 33.287003 
L 502.484153 220.762152 
L 502.556076 220.641077 
L 510.971133 207.069143 
L 517.80387 194.341404 
L 520.321195 188.888665 
L 526.794315 172.168151 
L 534.921677 148.193794 
L 538.302084 139.018805 
L 541.035179 132.357233 
L 543.69635 126.337232 
L 547.364452 118.928838 
L 550.601012 112.991102 
L 553.19026 108.59757 
L 555.779508 104.58428 
L 557.577597 102.036704 
L 559.519533 99.433846 
L 560.67031 98.024977 
L 560.814157 152.389358 
L 561.89301 152.619954 
L 563.043787 152.648376 
L 564.050717 152.529188 
L 565.201494 152.169542 
L 567.646895 150.796908 
L 570.020372 148.729951 
L 572.537696 146.09052 
L 579.226587 138.371464 
L 580.593135 136.822542 
L 581.959682 135.293725 
L 586.922408 129.978586 
L 593.827069 123.209793 
L 594.977846 122.084828 
L 595.912852 121.225416 
L 597.710941 119.541677 
L 599.221336 118.085478 
L 610.513334 108.113589 
L 613.246429 106.527796 
L 613.749894 106.39379 
L 614.037588 106.386427 
L 614.972594 106.490185 
L 615.619906 106.939514 
L 616.195295 107.679302 
L 616.842607 109.500737 
L 617.274148 111.498271 
L 617.849537 116.377468 
L 618.281078 123.08495 
L 618.784543 136.706745 
L 619.647626 162.45759 
L 620.151091 170.058786 
L 620.654555 174.183866 
L 621.086097 176.290366 
L 621.589562 177.652841 
L 622.021103 178.404275 
L 622.380721 178.816864 
L 622.884186 179.096993 
L 623.243803 179.282659 
L 623.603421 179.39905 
L 624.538427 179.251327 
L 625.257663 179.014652 
L 626.336516 178.566044 
L 630.65193 175.684247 
L 632.090401 174.505111 
L 633.241178 173.477526 
L 636.333891 170.194868 
L 637.916209 168.22082 
L 640.217763 165.061122 
L 644.029711 159.060091 
L 650.790525 147.657861 
L 652.804385 144.404789 
L 655.177862 140.759227 
L 661.435212 131.947613 
L 666.397937 125.573943 
L 667.189096 124.554708 
L 671.216815 119.425013 
L 675.747999 113.34865 
L 680.566878 106.153701 
L 685.601526 97.469817 
L 695.886595 77.92189 
L 698.044302 74.355642 
L 701.208938 69.833031 
L 708.041676 60.654882 
L 712.069395 53.567935 
L 713.507866 50.587846 
L 716.456732 43.845213 
L 718.542515 38.549974 
L 720.484451 33.244135 
L 720.556375 220.631786 
L 720.628298 220.439348 
L 726.094488 203.50076 
L 731.057214 185.061915 
L 732.639532 179.155498 
L 735.588398 168.671229 
L 737.45841 162.812684 
L 741.558053 152.128876 
L 743.212295 148.64065 
L 745.873466 143.878288 
L 749.829262 138.174993 
L 750.908115 136.826089 
L 752.202739 135.258304 
L 756.590076 130.619319 
L 763.278967 124.758045 
L 776.512901 114.357731 
L 776.656748 139.817197 
L 776.728672 139.748893 
L 778.454837 137.875522 
L 780.684467 135.107527 
L 783.345639 131.441418 
L 790.897612 120.11402 
L 800.894987 103.939187 
L 803.268464 99.707615 
L 806.21733 94.170593 
L 808.231189 90.157407 
L 810.029278 86.448755 
L 812.402756 81.305947 
L 812.402756 81.305947 
" clip-path="url(#p347a62c173)" style="fill: none; stroke-dasharray: 7.4,3.2; stroke-dashoffset: 0; stroke: #ff0000; stroke-width: 2"/>
   </g>
   <g id="patch_3">
    <path d="M 57.280938 230.157813 
L 57.280938 23.837813 
" style="fill: none; stroke: #000000; stroke-width: 0.8; stroke-linejoin: miter; stroke-linecap: square"/>
   </g>
   <g id="patch_4">
    <path d="M 848.360937 230.157813 
L 848.360937 23.837813 
" style="fill: none; stroke: #000000; stroke-width: 0.8; stroke-linejoin: miter; stroke-linecap: square"/>
   </g>
   <g id="patch_5">
    <path d="M 57.280938 230.157813 
L 848.360937 230.157813 
" style="fill: none; stroke: #000000; stroke-width: 0.8; stroke-linejoin: miter; stroke-linecap: square"/>
   </g>
   <g id="patch_6">
    <path d="M 57.280938 23.837812 
L 848.360937 23.837812 
" style="fill: none; stroke: #000000; stroke-width: 0.8; stroke-linejoin: miter; stroke-linecap: square"/>
   </g>
   <g id="text_9">
    <!-- IMU Strapdown: Attitude Evolution -->
    <g transform="translate(332.204375 17.837812) scale(0.14 -0.14)">
     <defs>
      <path id="DejaVuSans-49" d="M 628 4666 
L 1259 4666 
L 1259 0 
L 628 0 
L 628 4666 
z
" transform="scale(0.015625)"/>
      <path id="DejaVuSans-4d" d="M 628 4666 
L 1569 4666 
L 2759 1491 
L 3956 4666 
L 4897 4666 
L 4897 0 
L 4281 0 
L 4281 4097 
L 3078 897 
L 2444 897 
L 1241 4097 
L 1241 0 
L 628 0 
L 628 4666 
z
" transform="scale(0.015625)"/>
      <path id="DejaVuSans-55" d="M 556 4666 
L 1191 4666 
L 1191 1831 
Q 1191 1081 1462 751 
Q 1734 422 2344 422 
Q 2950 422 3222 751 
Q 3494 1081 3494 1831 
L 3494 4666 
L 4128 4666 
L 4128 1753 
Q 4128 841 3676 375 
Q 3225 -91 2344 -91 
Q 1459 -91 1007 375 
Q 556 841 556 1753 
L 556 4666 
z
" transform="scale(0.015625)"/>
      <path id="DejaVuSans-53" d="M 3425 4513 
L 3425 3897 
Q 3066 4069 2747 4153 
Q 2428 4238 2131 4238 
Q 1616 4238 1336 4038 
Q 1056 3838 1056 3469 
Q 1056 3159 1242 3001 
Q 1428 2844 1947 2747 
L 2328 2669 
Q 3034 2534 3370 2195 
Q 3706 1856 3706 1288 
Q 3706 609 3251 259 
Q 2797 -91 1919 -91 
Q 1588 -91 1214 -16 
Q 841 59 441 206 
L 441 856 
Q 825 641 1194 531 
Q 1563 422 1919 422 
Q 2459 422 2753 634 
Q 3047 847 3047 1241 
Q 3047 1584 2836 1778 
Q 2625 1972 2144 2069 
L 1759 2144 
Q 1053 2284 737 2584 
Q 422 2884 422 3419 
Q 422 4038 858 4394 
Q 1294 4750 2059 4750 
Q 2388 4750 2728 4690 
Q 3069 4631 3425 4513 
z
" transform="scale(0.015625)"/>
      <path id="DejaVuSans-74" d="M 1172 4494 
L 1172 3500 
L 2356 3500 
L 2356 3053 
L 1172 3053 
L 1172 1153 
Q 1172 725 1289 603 
Q 1406 481 1766 481 
L 2356 481 
L 2356 0 
L 1766 0 
Q 1100 0 847 248 
Q 594 497 594 1153 
L 594 3053 
L 172 3053 
L 172 3500 
L 594 3500 
L 594 4494 
L 1172 4494 
z
" transform="scale(0.015625)"/>
      <path id="DejaVuSans-72" d="M 2631 2963 
Q 2534 3019 2420 3045 
Q 2306 3072 2169 3072 
Q 1681 3072 1420 2755 
Q 1159 2438 1159 1844 
L 1159 0 
L 581 0 
L 581 3500 
L 1159 3500 
L 1159 2956 
Q 1341 3275 1631 3429 
Q 1922 3584 2338 3584 
Q 2397 3584 2469 3576 
Q 2541 3569 2628 3553 
L 2631 2963 
z
" transform="scale(0.015625)"/>
      <path id="DejaVuSans-61" d="M 2194 1759 
Q 1497 1759 1228 1600 
Q 959 1441 959 1056 
Q 959 750 1161 570 
Q 1363 391 1709 391 
Q 2188 391 2477 730 
Q 2766 1069 2766 1631 
L 2766 1759 
L 2194 1759 
z
M 3341 1997 
L 3341 0 
L 2766 0 
L 2766 531 
Q 2569 213 2275 61 
Q 1981 -91 1556 -91 
Q 1019 -91 701 211 
Q 384 513 384 1019 
Q 384 1609 779 1909 
Q 1175 2209 1959 2209 
L 2766 2209 
L 2766 2266 
Q 2766 2663 2505 2880 
Q 2244 3097 1772 3097 
Q 1472 3097 1187 3025 
Q 903 2953 641 2809 
L 641 3341 
Q 956 3463 1253 3523 
Q 1550 3584 1831 3584 
Q 2591 3584 2966 3190 
Q 3341 2797 3341 1997 
z
" transform="scale(0.015625)"/>
      <path id="DejaVuSans-70" d="M 1159 525 
L 1159 -1331 
L 581 -1331 
L 581 3500 
L 1159 3500 
L 1159 2969 
Q 1341 3281 1617 3432 
Q 1894 3584 2278 3584 
Q 2916 3584 3314 3078 
Q 3713 2572 3713 1747 
Q 3713 922 3314 415 
Q 2916 -91 2278 -91 
Q 1894 -91 1617 61 
Q 1341 213 1159 525 
z
M 3116 1747 
Q 3116 2381 2855 2742 
Q 2594 3103 2138 3103 
Q 1681 3103 1420 2742 
Q 1159 2381 1159 1747 
Q 1159 1113 1420 752 
Q 1681 391 2138 391 
Q 2594 391 2855 752 
Q 3116 1113 3116 1747 
z
" transform="scale(0.015625)"/>
      <path id="DejaVuSans-77" d="M 269 3500 
L 844 3500 
L 1563 769 
L 2278 3500 
L 2956 3500 
L 3675 769 
L 4391 3500 
L 4966 3500 
L 4050 0 
L 3372 0 
L 2619 2869 
L 1863 0 
L 1184 0 
L 269 3500 
z
" transform="scale(0.015625)"/>
      <path id="DejaVuSans-6e" d="M 3513 2113 
L 3513 0 
L 2938 0 
L 2938 2094 
Q 2938 2591 2744 2837 
Q 2550 3084 2163 3084 
Q 1697 3084 1428 2787 
Q 1159 2491 1159 1978 
L 1159 0 
L 581 0 
L 581 3500 
L 1159 3500 
L 1159 2956 
Q 1366 3272 1645 3428 
Q 1925 3584 2291 3584 
Q 2894 3584 3203 3211 
Q 3513 2838 3513 2113 
z
" transform="scale(0.015625)"/>
      <path id="DejaVuSans-3a" d="M 750 794 
L 1409 794 
L 1409 0 
L 750 0 
L 750 794 
z
M 750 3309 
L 1409 3309 
L 1409 2516 
L 750 2516 
L 750 3309 
z
" transform="scale(0.015625)"/>
      <path id="DejaVuSans-41" d="M 2188 4044 
L 1331 1722 
L 3047 1722 
L 2188 4044 
z
M 1831 4666 
L 2547 4666 
L 4325 0 
L 3669 0 
L 3244 1197 
L 1141 1197 
L 716 0 
L 50 0 
L 1831 4666 
z
" transform="scale(0.015625)"/>
      <path id="DejaVuSans-69" d="M 603 3500 
L 1178 3500 
L 1178 0 
L 603 0 
L 603 3500 
z
M 603 4863 
L 1178 4863 
L 1178 4134 
L 603 4134 
L 603 4863 
z
" transform="scale(0.015625)"/>
      <path id="DejaVuSans-75" d="M 544 1381 
L 544 3500 
L 1119 3500 
L 1119 1403 
Q 1119 906 1312 657 
Q 1506 409 1894 409 
Q 2359 409 2629 706 
Q 2900 1003 2900 1516 
L 2900 3500 
L 3475 3500 
L 3475 0 
L 2900 0 
L 2900 538 
Q 2691 219 2414 64 
Q 2138 -91 1772 -91 
Q 1169 -91 856 284 
Q 544 659 544 1381 
z
M 1991 3584 
L 1991 3584 
z
" transform="scale(0.015625)"/>
      <path id="DejaVuSans-45" d="M 628 4666 
L 3578 4666 
L 3578 4134 
L 1259 4134 
L 1259 2753 
L 3481 2753 
L 3481 2222 
L 1259 2222 
L 1259 531 
L 3634 531 
L 3634 0 
L 628 0 
L 628 4666 
z
" transform="scale(0.015625)"/>
      <path id="DejaVuSans-76" d="M 191 3500 
L 800 3500 
L 1894 563 
L 2988 3500 
L 3597 3500 
L 2284 0 
L 1503 0 
L 191 3500 
z
" transform="scale(0.015625)"/>
     </defs>
     <use xlink:href="#DejaVuSans-49"/>
     <use xlink:href="#DejaVuSans-4d" transform="translate(29.492188 0)"/>
     <use xlink:href="#DejaVuSans-55" transform="translate(115.771484 0)"/>
     <use xlink:href="#DejaVuSans-20" transform="translate(188.964844 0)"/>
     <use xlink:href="#DejaVuSans-53" transform="translate(220.751953 0)"/>
     <use xlink:href="#DejaVuSans-74" transform="translate(284.228516 0)"/>
     <use xlink:href="#DejaVuSans-72" transform="translate(323.4375 0)"/>
     <use xlink:href="#DejaVuSans-61" transform="translate(364.550781 0)"/>
     <use xlink:href="#DejaVuSans-70" transform="translate(425.830078 0)"/>
     <use xlink:href="#DejaVuSans-64" transform="translate(489.306641 0)"/>
     <use xlink:href="#DejaVuSans-6f" transform="translate(552.783203 0)"/>
     <use xlink:href="#DejaVuSans-77" transform="translate(613.964844 0)"/>
     <use xlink:href="#DejaVuSans-6e" transform="translate(695.751953 0)"/>
     <use xlink:href="#DejaVuSans-3a" transform="translate(759.130859 0)"/>
     <use xlink:href="#DejaVuSans-20" transform="translate(792.822266 0)"/>
     <use xlink:href="#DejaVuSans-41" transform="translate(824.609375 0)"/>
     <use xlink:href="#DejaVuSans-74" transform="translate(891.267578 0)"/>
     <use xlink:href="#DejaVuSans-74" transform="translate(930.476562 0)"/>
     <use xlink:href="#DejaVuSans-69" transform="translate(969.685547 0)"/>
     <use xlink:href="#DejaVuSans-74" transform="translate(997.46875 0)"/>
     <use xlink:href="#DejaVuSans-75" transform="translate(1036.677734 0)"/>
     <use xlink:href="#DejaVuSans-64" transform="translate(1100.056641 0)"/>
     <use xlink:href="#DejaVuSans-65" transform="translate(1163.533203 0)"/>
     <use xlink:href="#DejaVuSans-20" transform="translate(1225.056641 0)"/>
     <use xlink:href="#DejaVuSans-45" transform="translate(1256.84375 0)"/>
     <use xlink:href="#DejaVuSans-76" transform="translate(1320.027344 0)"/>
     <use xlink:href="#DejaVuSans-6f" transform="translate(1379.207031 0)"/>
     <use xlink:href="#DejaVuSans-6c" transform="translate(1440.388672 0)"/>
     <use xlink:href="#DejaVuSans-75" transform="translate(1468.171875 0)"/>
     <use xlink:href="#DejaVuSans-74" transform="translate(1531.550781 0)"/>
     <use xlink:href="#DejaVuSans-69" transform="translate(1570.759766 0)"/>
     <use xlink:href="#DejaVuSans-6f" transform="translate(1598.542969 0)"/>
     <use xlink:href="#DejaVuSans-6e" transform="translate(1659.724609 0)"/>
    </g>
   </g>
   <g id="legend_1">
    <g id="patch_7">
     <path d="M 758.84375 61.194062 
L 841.360937 61.194062 
Q 843.360937 61.194062 843.360937 59.194062 
L 843.360937 30.837812 
Q 843.360937 28.837812 841.360937 28.837812 
L 758.84375 28.837812 
Q 756.84375 28.837812 756.84375 30.837812 
L 756.84375 59.194062 
Q 756.84375 61.194062 758.84375 61.194062 
z
" style="fill: #ffffff; opacity: 0.8; stroke: #cccccc; stroke-linejoin: miter"/>
    </g>
    <g id="line2d_29">
     <path d="M 760.84375 36.93625 
L 770.84375 36.93625 
L 780.84375 36.93625 
" style="fill: none; stroke: #000000; stroke-width: 2; stroke-linecap: square"/>
    </g>
    <g id="text_10">
     <!-- True -->
     <g transform="translate(788.84375 40.43625) scale(0.1 -0.1)">
      <defs>
       <path id="DejaVuSans-54" d="M -19 4666 
L 3928 4666 
L 3928 4134 
L 2272 4134 
L 2272 0 
L 1638 0 
L 1638 4134 
L -19 4134 
L -19 4666 
z
" transform="scale(0.015625)"/>
      </defs>
      <use xlink:href="#DejaVuSans-54"/>
      <use xlink:href="#DejaVuSans-72" transform="translate(46.333984 0)"/>
      <use xlink:href="#DejaVuSans-75" transform="translate(87.447266 0)"/>
      <use xlink:href="#DejaVuSans-65" transform="translate(150.826172 0)"/>
     </g>
    </g>
    <g id="line2d_30">
     <path d="M 760.84375 51.614375 
L 770.84375 51.614375 
L 780.84375 51.614375 
" style="fill: none; stroke-dasharray: 7.4,3.2; stroke-dashoffset: 0; stroke: #ff0000; stroke-width: 2"/>
    </g>
    <g id="text_11">
     <!-- Estimated -->
     <g transform="translate(788.84375 55.114375) scale(0.1 -0.1)">
      <defs>
       <path id="DejaVuSans-73" d="M 2834 3397 
L 2834 2853 
Q 2591 2978 2328 3040 
Q 2066 3103 1784 3103 
Q 1356 3103 1142 2972 
Q 928 2841 928 2578 
Q 928 2378 1081 2264 
Q 1234 2150 1697 2047 
L 1894 2003 
Q 2506 1872 2764 1633 
Q 3022 1394 3022 966 
Q 3022 478 2636 193 
Q 2250 -91 1575 -91 
Q 1294 -91 989 -36 
Q 684 19 347 128 
L 347 722 
Q 666 556 975 473 
Q 1284 391 1588 391 
Q 1994 391 2212 530 
Q 2431 669 2431 922 
Q 2431 1156 2273 1281 
Q 2116 1406 1581 1522 
L 1381 1569 
Q 847 1681 609 1914 
Q 372 2147 372 2553 
Q 372 3047 722 3315 
Q 1072 3584 1716 3584 
Q 2034 3584 2315 3537 
Q 2597 3491 2834 3397 
z
" transform="scale(0.015625)"/>
       <path id="DejaVuSans-6d" d="M 3328 2828 
Q 3544 3216 3844 3400 
Q 4144 3584 4550 3584 
Q 5097 3584 5394 3201 
Q 5691 2819 5691 2113 
L 5691 0 
L 5113 0 
L 5113 2094 
Q 5113 2597 4934 2840 
Q 4756 3084 4391 3084 
Q 3944 3084 3684 2787 
Q 3425 2491 3425 1978 
L 3425 0 
L 2847 0 
L 2847 2094 
Q 2847 2600 2669 2842 
Q 2491 3084 2119 3084 
Q 1678 3084 1418 2786 
Q 1159 2488 1159 1978 
L 1159 0 
L 581 0 
L 581 3500 
L 1159 3500 
L 1159 2956 
Q 1356 3278 1631 3431 
Q 1906 3584 2284 3584 
Q 2666 3584 2933 3390 
Q 3200 3197 3328 2828 
z
" transform="scale(0.015625)"/>
      </defs>
      <use xlink:href="#DejaVuSans-45"/>
      <use xlink:href="#DejaVuSans-73" transform="translate(63.183594 0)"/>
      <use xlink:href="#DejaVuSans-74" transform="translate(115.283203 0)"/>
      <use xlink:href="#DejaVuSans-69" transform="translate(154.492188 0)"/>
      <use xlink:href="#DejaVuSans-6d" transform="translate(182.275391 0)"/>
      <use xlink:href="#DejaVuSans-61" transform="translate(279.6875 0)"/>
      <use xlink:href="#DejaVuSans-74" transform="translate(340.966797 0)"/>
      <use xlink:href="#DejaVuSans-65" transform="translate(380.175781 0)"/>
      <use xlink:href="#DejaVuSans-64" transform="translate(441.699219 0)"/>
     </g>
    </g>
   </g>
  </g>
  <g id="axes_2">
   <g id="patch_8">
    <path d="M 57.280938 450.777813 
L 848.360937 450.777813 
L 848.360937 244.457813 
L 57.280938 244.457813 
z
" style="fill: #ffffff"/>
   </g>
   <g id="matplotlib.axis_3">
    <g id="xtick_7">
     <g id="line2d_31">
      <path d="M 93.239119 450.777813 
L 93.239119 244.457813 
" clip-path="url(#p4323c4da44)" style="fill: none; stroke: #b0b0b0; stroke-opacity: 0.3; stroke-width: 0.8; stroke-linecap: square"/>
     </g>
     <g id="line2d_32">
      <g>
       <use xlink:href="#m831313474c" x="93.239119" y="450.777813" style="stroke: #000000; stroke-width: 0.8"/>
      </g>
     </g>
    </g>
    <g id="xtick_8">
     <g id="line2d_33">
      <path d="M 237.086231 450.777813 
L 237.086231 244.457813 
" clip-path="url(#p4323c4da44)" style="fill: none; stroke: #b0b0b0; stroke-opacity: 0.3; stroke-width: 0.8; stroke-linecap: square"/>
     </g>
     <g id="line2d_34">
      <g>
       <use xlink:href="#m831313474c" x="237.086231" y="450.777813" style="stroke: #000000; stroke-width: 0.8"/>
      </g>
     </g>
    </g>
    <g id="xtick_9">
     <g id="line2d_35">
      <path d="M 380.933343 450.777813 
L 380.933343 244.457813 
" clip-path="url(#p4323c4da44)" style="fill: none; stroke: #b0b0b0; stroke-opacity: 0.3; stroke-width: 0.8; stroke-linecap: square"/>
     </g>
     <g id="line2d_36">
      <g>
       <use xlink:href="#m831313474c" x="380.933343" y="450.777813" style="stroke: #000000; stroke-width: 0.8"/>
      </g>
     </g>
    </g>
    <g id="xtick_10">
     <g id="line2d_37">
      <path d="M 524.780455 450.777813 
L 524.780455 244.457813 
" clip-path="url(#p4323c4da44)" style="fill: none; stroke: #b0b0b0; stroke-opacity: 0.3; stroke-width: 0.8; stroke-linecap: square"/>
     </g>
     <g id="line2d_38">
      <g>
       <use xlink:href="#m831313474c" x="524.780455" y="450.777813" style="stroke: #000000; stroke-width: 0.8"/>
      </g>
     </g>
    </g>
    <g id="xtick_11">
     <g id="line2d_39">
      <path d="M 668.627567 450.777813 
L 668.627567 244.457813 
" clip-path="url(#p4323c4da44)" style="fill: none; stroke: #b0b0b0; stroke-opacity: 0.3; stroke-width: 0.8; stroke-linecap: square"/>
     </g>
     <g id="line2d_40">
      <g>
       <use xlink:href="#m831313474c" x="668.627567" y="450.777813" style="stroke: #000000; stroke-width: 0.8"/>
      </g>
     </g>
    </g>
    <g id="xtick_12">
     <g id="line2d_41">
      <path d="M 812.474679 450.777813 
L 812.474679 244.457813 
" clip-path="url(#p4323c4da44)" style="fill: none; stroke: #b0b0b0; stroke-opacity: 0.3; stroke-width: 0.8; stroke-linecap: square"/>
     </g>
     <g id="line2d_42">
      <g>
       <use xlink:href="#m831313474c" x="812.474679" y="450.777813" style="stroke: #000000; stroke-width: 0.8"/>
      </g>
     </g>
    </g>
   </g>
   <g id="matplotlib.axis_4">
    <g id="ytick_8">
     <g id="line2d_43">
      <path d="M 57.280938 428.096433 
L 848.360937 428.096433 
" clip-path="url(#p4323c4da44)" style="fill: none; stroke: #b0b0b0; stroke-opacity: 0.3; stroke-width: 0.8; stroke-linecap: square"/>
     </g>
     <g id="line2d_44">
      <g>
       <use xlink:href="#m855e18741d" x="57.280938" y="428.096433" style="stroke: #000000; stroke-width: 0.8"/>
      </g>
     </g>
     <g id="text_12">
      <!-- −75 -->
      <g transform="translate(29.17625 431.895652) scale(0.1 -0.1)">
       <defs>
        <path id="DejaVuSans-37" d="M 525 4666 
L 3525 4666 
L 3525 4397 
L 1831 0 
L 1172 0 
L 2766 4134 
L 525 4134 
L 525 4666 
z
" transform="scale(0.015625)"/>
       </defs>
       <use xlink:href="#DejaVuSans-2212"/>
       <use xlink:href="#DejaVuSans-37" transform="translate(83.789062 0)"/>
       <use xlink:href="#DejaVuSans-35" transform="translate(147.412109 0)"/>
      </g>
     </g>
    </g>
    <g id="ytick_9">
     <g id="line2d_45">
      <path d="M 57.280938 400.229554 
L 848.360937 400.229554 
" clip-path="url(#p4323c4da44)" style="fill: none; stroke: #b0b0b0; stroke-opacity: 0.3; stroke-width: 0.8; stroke-linecap: square"/>
     </g>
     <g id="line2d_46">
      <g>
       <use xlink:href="#m855e18741d" x="57.280938" y="400.229554" style="stroke: #000000; stroke-width: 0.8"/>
      </g>
     </g>
     <g id="text_13">
      <!-- −50 -->
      <g transform="translate(29.17625 404.028773) scale(0.1 -0.1)">
       <use xlink:href="#DejaVuSans-2212"/>
       <use xlink:href="#DejaVuSans-35" transform="translate(83.789062 0)"/>
       <use xlink:href="#DejaVuSans-30" transform="translate(147.412109 0)"/>
      </g>
     </g>
    </g>
    <g id="ytick_10">
     <g id="line2d_47">
      <path d="M 57.280938 372.362674 
L 848.360937 372.362674 
" clip-path="url(#p4323c4da44)" style="fill: none; stroke: #b0b0b0; stroke-opacity: 0.3; stroke-width: 0.8; stroke-linecap: square"/>
     </g>
     <g id="line2d_48">
      <g>
       <use xlink:href="#m855e18741d" x="57.280938" y="372.362674" style="stroke: #000000; stroke-width: 0.8"/>
      </g>
     </g>
     <g id="text_14">
      <!-- −25 -->
      <g transform="translate(29.17625 376.161893) scale(0.1 -0.1)">
       <defs>
        <path id="DejaVuSans-32" d="M 1228 531 
L 3431 531 
L 3431 0 
L 469 0 
L 469 531 
Q 828 903 1448 1529 
Q 2069 2156 2228 2338 
Q 2531 2678 2651 2914 
Q 2772 3150 2772 3378 
Q 2772 3750 2511 3984 
Q 2250 4219 1831 4219 
Q 1534 4219 1204 4116 
Q 875 4013 500 3803 
L 500 4441 
Q 881 4594 1212 4672 
Q 1544 4750 1819 4750 
Q 2544 4750 2975 4387 
Q 3406 4025 3406 3419 
Q 3406 3131 3298 2873 
Q 3191 2616 2906 2266 
Q 2828 2175 2409 1742 
Q 1991 1309 1228 531 
z
" transform="scale(0.015625)"/>
       </defs>
       <use xlink:href="#DejaVuSans-2212"/>
       <use xlink:href="#DejaVuSans-32" transform="translate(83.789062 0)"/>
       <use xlink:href="#DejaVuSans-35" transform="translate(147.412109 0)"/>
      </g>
     </g>
    </g>
    <g id="ytick_11">
     <g id="line2d_49">
      <path d="M 57.280938 344.495795 
L 848.360937 344.495795 
" clip-path="url(#p4323c4da44)" style="fill: none; stroke: #b0b0b0; stroke-opacity: 0.3; stroke-width: 0.8; stroke-linecap: square"/>
     </g>
     <g id="line2d_50">
      <g>
       <use xlink:href="#m855e18741d" x="57.280938" y="344.495795" style="stroke: #000000; stroke-width: 0.8"/>
      </g>
     </g>
     <g id="text_15">
      <!-- 0 -->
      <g transform="translate(43.918438 348.295013) scale(0.1 -0.1)">
       <use xlink:href="#DejaVuSans-30"/>
      </g>
     </g>
    </g>
    <g id="ytick_12">
     <g id="line2d_51">
      <path d="M 57.280938 316.628915 
L 848.360937 316.628915 
" clip-path="url(#p4323c4da44)" style="fill: none; stroke: #b0b0b0; stroke-opacity: 0.3; stroke-width: 0.8; stroke-linecap: square"/>
     </g>
     <g id="line2d_52">
      <g>
       <use xlink:href="#m855e18741d" x="57.280938" y="316.628915" style="stroke: #000000; stroke-width: 0.8"/>
      </g>
     </g>
     <g id="text_16">
      <!-- 25 -->
      <g transform="translate(37.555938 320.428134) scale(0.1 -0.1)">
       <use xlink:href="#DejaVuSans-32"/>
       <use xlink:href="#DejaVuSans-35" transform="translate(63.623047 0)"/>
      </g>
     </g>
    </g>
    <g id="ytick_13">
     <g id="line2d_53">
      <path d="M 57.280938 288.762036 
L 848.360937 288.762036 
" clip-path="url(#p4323c4da44)" style="fill: none; stroke: #b0b0b0; stroke-opacity: 0.3; stroke-width: 0.8; stroke-linecap: square"/>
     </g>
     <g id="line2d_54">
      <g>
       <use xlink:href="#m855e18741d" x="57.280938" y="288.762036" style="stroke: #000000; stroke-width: 0.8"/>
      </g>
     </g>
     <g id="text_17">
      <!-- 50 -->
      <g transform="translate(37.555938 292.561254) scale(0.1 -0.1)">
       <use xlink:href="#DejaVuSans-35"/>
       <use xlink:href="#DejaVuSans-30" transform="translate(63.623047 0)"/>
      </g>
     </g>
    </g>
    <g id="ytick_14">
     <g id="line2d_55">
      <path d="M 57.280938 260.895156 
L 848.360937 260.895156 
" clip-path="url(#p4323c4da44)" style="fill: none; stroke: #b0b0b0; stroke-opacity: 0.3; stroke-width: 0.8; stroke-linecap: square"/>
     </g>
     <g id="line2d_56">
      <g>
       <use xlink:href="#m855e18741d" x="57.280938" y="260.895156" style="stroke: #000000; stroke-width: 0.8"/>
      </g>
     </g>
     <g id="text_18">
      <!-- 75 -->
      <g transform="translate(37.555938 264.694375) scale(0.1 -0.1)">
       <use xlink:href="#DejaVuSans-37"/>
       <use xlink:href="#DejaVuSans-35" transform="translate(63.623047 0)"/>
      </g>
     </g>
    </g>
    <g id="text_19">
     <!-- Pitch [deg] -->
     <g transform="translate(22.680625 380.12) rotate(-90) scale(0.12 -0.12)">
      <defs>
       <path id="DejaVuSans-50" d="M 1259 4147 
L 1259 2394 
L 2053 2394 
Q 2494 2394 2734 2622 
Q 2975 2850 2975 3272 
Q 2975 3691 2734 3919 
Q 2494 4147 2053 4147 
L 1259 4147 
z
M 628 4666 
L 2053 4666 
Q 2838 4666 3239 4311 
Q 3641 3956 3641 3272 
Q 3641 2581 3239 2228 
Q 2838 1875 2053 1875 
L 1259 1875 
L 1259 0 
L 628 0 
L 628 4666 
z
" transform="scale(0.015625)"/>
       <path id="DejaVuSans-63" d="M 3122 3366 
L 3122 2828 
Q 2878 2963 2633 3030 
Q 2388 3097 2138 3097 
Q 1578 3097 1268 2742 
Q 959 2388 959 1747 
Q 959 1106 1268 751 
Q 1578 397 2138 397 
Q 2388 397 2633 464 
Q 2878 531 3122 666 
L 3122 134 
Q 2881 22 2623 -34 
Q 2366 -91 2075 -91 
Q 1284 -91 818 406 
Q 353 903 353 1747 
Q 353 2603 823 3093 
Q 1294 3584 2113 3584 
Q 2378 3584 2631 3529 
Q 2884 3475 3122 3366 
z
" transform="scale(0.015625)"/>
       <path id="DejaVuSans-68" d="M 3513 2113 
L 3513 0 
L 2938 0 
L 2938 2094 
Q 2938 2591 2744 2837 
Q 2550 3084 2163 3084 
Q 1697 3084 1428 2787 
Q 1159 2491 1159 1978 
L 1159 0 
L 581 0 
L 581 4863 
L 1159 4863 
L 1159 2956 
Q 1366 3272 1645 3428 
Q 1925 3584 2291 3584 
Q 2894 3584 3203 3211 
Q 3513 2838 3513 2113 
z
" transform="scale(0.015625)"/>
      </defs>
      <use xlink:href="#DejaVuSans-50"/>
      <use xlink:href="#DejaVuSans-69" transform="translate(58.052734 0)"/>
      <use xlink:href="#DejaVuSans-74" transform="translate(85.835938 0)"/>
      <use xlink:href="#DejaVuSans-63" transform="translate(125.044922 0)"/>
      <use xlink:href="#DejaVuSans-68" transform="translate(180.025391 0)"/>
      <use xlink:href="#DejaVuSans-20" transform="translate(243.404297 0)"/>
      <use xlink:href="#DejaVuSans-5b" transform="translate(275.191406 0)"/>
      <use xlink:href="#DejaVuSans-64" transform="translate(314.205078 0)"/>
      <use xlink:href="#DejaVuSans-65" transform="translate(377.681641 0)"/>
      <use xlink:href="#DejaVuSans-67" transform="translate(439.205078 0)"/>
      <use xlink:href="#DejaVuSans-5d" transform="translate(502.681641 0)"/>
     </g>
    </g>
   </g>
   <g id="line2d_57">
    <path d="M 93.239119 344.495795 
L 812.402756 344.495795 
L 812.402756 344.495795 
" clip-path="url(#p4323c4da44)" style="fill: none; stroke: #000000; stroke-width: 2; stroke-linecap: square"/>
   </g>
   <g id="line2d_58">
    <path d="M 93.239119 344.495795 
L 94.749514 347.531084 
L 96.619526 351.292056 
L 97.410686 352.948781 
L 100.071857 358.204988 
L 101.006863 359.983683 
L 101.726099 361.326626 
L 104.1715 365.80632 
L 106.185359 369.213709 
L 107.911525 371.768852 
L 109.421919 373.74972 
L 109.781537 374.140239 
L 111.148085 375.549786 
L 111.795397 376.103993 
L 112.155015 376.389789 
L 112.802327 376.75095 
L 114.096951 377.342677 
L 114.960033 377.446085 
L 116.254657 377.226453 
L 117.333511 376.653855 
L 118.628135 375.48594 
L 118.915829 375.115652 
L 120.785841 372.212622 
L 122.655854 367.858805 
L 123.734707 364.764496 
L 125.101255 360.105423 
L 126.611649 354.102394 
L 127.906273 348.432008 
L 129.128974 342.459212 
L 133.588234 318.624297 
L 135.602094 308.274631 
L 137.615953 298.917993 
L 139.414042 291.577421 
L 141.78752 283.293867 
L 143.513685 278.007553 
L 145.815239 271.878863 
L 149.195646 264.492019 
L 152.791824 258.367895 
L 154.230295 256.758052 
L 154.94953 256.253531 
L 155.524919 255.902884 
L 156.100307 255.691319 
L 156.819543 255.673655 
L 157.323008 255.792144 
L 159.264944 257.182244 
L 160.703415 258.892573 
L 164.155746 264.643173 
L 165.378446 266.903259 
L 166.888841 269.735324 
L 169.621936 275.15176 
L 170.556942 277.097418 
L 173.002343 282.144892 
L 174.15312 284.483906 
L 176.670444 289.779959 
L 177.461603 291.351805 
L 183.8628 303.848031 
L 187.530901 309.922353 
L 189.113219 312.230303 
L 191.199003 314.926616 
L 192.997091 316.809804 
L 193.860174 317.622033 
L 194.291715 317.970102 
L 194.723257 318.315076 
L 195.226722 318.692531 
L 196.233651 319.297497 
L 197.744046 320.123374 
L 198.391358 320.420145 
L 199.973676 321.08003 
L 201.05253 321.594393 
L 201.124453 321.625856 
L 201.196377 372.013226 
L 201.2683 344.543738 
L 201.340224 344.822853 
L 203.066389 351.185683 
L 205.367943 358.429571 
L 207.309879 363.524998 
L 210.186821 369.921433 
L 214.286464 377.430405 
L 215.796859 379.879216 
L 220.256119 386.685572 
L 226.010004 394.379215 
L 229.462334 398.083903 
L 232.4112 400.563911 
L 234.712754 401.848574 
L 235.216219 402.044853 
L 235.64776 402.147701 
L 238.093161 402.478936 
L 240.538562 402.000947 
L 241.11395 401.770432 
L 242.983963 400.780941 
L 244.710128 399.447393 
L 245.35744 398.830356 
L 246.220523 397.96253 
L 246.652064 397.502431 
L 249.744777 393.548859 
L 250.392089 392.558537 
L 252.693643 388.943236 
L 255.210967 384.210729 
L 257.08098 380.280144 
L 260.821005 371.118293 
L 262.906788 365.127429 
L 265.927577 355.061123 
L 268.876443 343.106841 
L 271.753385 328.930068 
L 273.048009 321.794276 
L 273.119933 404.326886 
L 273.191856 323.050637 
L 273.26378 323.303307 
L 276.356493 333.4376 
L 278.226505 339.051078 
L 279.233435 341.650041 
L 281.534989 346.023047 
L 282.613842 347.325591 
L 283.692696 348.090938 
L 284.555778 348.382872 
L 285.562708 348.466527 
L 286.857332 347.965297 
L 287.864262 347.309849 
L 289.878121 345.247641 
L 291.748134 342.648642 
L 293.474299 339.735322 
L 295.056617 336.837375 
L 296.207394 334.62805 
L 297.358171 332.267836 
L 299.012413 328.731497 
L 302.105126 321.791798 
L 304.478603 316.086482 
L 312.605965 295.851095 
L 313.325201 293.973458 
L 314.691748 290.421221 
L 316.417914 285.925357 
L 317.640614 282.701368 
L 326.559135 258.658319 
L 328.2853 255.014699 
L 329.076459 254.036129 
L 329.508001 253.848635 
L 329.795695 253.881685 
L 330.155313 254.064327 
L 330.658778 254.660391 
L 331.234166 255.76165 
L 332.025325 257.908721 
L 333.104179 261.526463 
L 334.974191 269.589075 
L 336.628433 277.928685 
L 338.066904 285.980908 
L 340.080763 298.252695 
L 343.389247 319.593198 
L 345.25926 331.172262 
L 347.057348 341.484061 
L 349.430826 353.258154 
L 351.156991 360.268119 
L 352.091997 363.566287 
L 352.95508 366.268694 
L 354.033933 369.256076 
L 355.112787 371.77352 
L 356.047793 373.574318 
L 357.41434 375.611308 
L 357.989729 376.30546 
L 360.219359 377.932223 
L 361.370136 378.136785 
L 362.880531 377.799873 
L 363.455919 377.583343 
L 363.743613 377.475888 
L 366.332861 375.363427 
L 367.771333 373.67765 
L 368.346721 372.939183 
L 369.353651 371.464712 
L 369.929039 370.631329 
L 371.727128 367.728171 
L 372.590211 366.226103 
L 374.460223 362.864313 
L 383.954133 343.453302 
L 389.492246 333.135442 
L 392.944577 327.806721 
L 393.951507 326.470646 
L 395.461902 324.745359 
L 396.03729 324.145322 
L 396.612678 323.591826 
L 397.691532 322.751736 
L 399.058079 322.00291 
L 400.784245 321.56605 
L 402.654257 321.865846 
L 403.445416 322.199714 
L 404.668117 323.104419 
L 405.243505 323.738107 
L 407.473135 326.911538 
L 409.199301 330.597988 
L 410.99739 335.618608 
L 412.507784 340.713701 
L 414.377797 348.280318 
L 415.600497 353.892675 
L 417.542433 363.663333 
L 422.145541 387.957766 
L 424.447095 398.922548 
L 425.957489 405.212902 
L 427.324037 410.25074 
L 429.337896 416.486725 
L 432.142915 423.161393 
L 433.941004 426.0945 
L 435.019857 427.378214 
L 435.739093 428.09143 
L 437.249488 428.960433 
L 437.681029 429.030565 
L 438.256417 429.019753 
L 439.1195 428.81598 
L 440.557971 428.080297 
L 441.277207 427.474587 
L 442.140289 426.631376 
L 443.075296 425.510844 
L 444.226073 423.971934 
L 446.096085 421.187192 
L 446.59955 420.385151 
L 452.209587 410.22361 
L 468.104693 378.490086 
L 468.680082 377.444247 
L 471.125482 373.279955 
L 472.204336 371.618225 
L 475.944361 366.804779 
L 477.598603 365.327251 
L 478.317838 364.847148 
L 478.96515 364.556053 
L 480.259774 364.122555 
L 481.410551 364.156921 
L 483.496334 364.726914 
L 485.078652 365.668661 
L 488.818677 368.832232 
L 488.890601 303.450305 
L 488.962524 352.918911 
L 489.034448 352.627672 
L 490.400996 346.887631 
L 492.486779 339.066315 
L 494.14102 333.643636 
L 496.15488 327.851058 
L 498.744128 321.559896 
L 500.61414 317.553592 
L 504.138395 310.573131 
L 504.85763 309.254169 
L 506.008407 307.176917 
L 506.727643 305.865783 
L 507.662649 304.198111 
L 509.892279 300.25533 
L 511.402674 297.774614 
L 517.731947 287.936141 
L 518.523106 286.865136 
L 519.026571 286.206895 
L 521.184277 283.586517 
L 521.975437 282.671252 
L 523.557755 281.084199 
L 524.348914 280.342503 
L 524.924302 279.902721 
L 525.643538 279.442776 
L 526.362774 279.001984 
L 528.952022 278.000801 
L 529.743181 277.88732 
L 530.102798 277.848032 
L 531.037805 277.914615 
L 531.900887 278.21476 
L 532.835894 278.559 
L 535.209371 280.12432 
L 537.079383 281.939274 
L 538.589778 283.824696 
L 539.524784 285.159938 
L 540.819408 287.230765 
L 541.898262 289.064187 
L 543.336733 291.748934 
L 545.925981 297.303909 
L 548.227535 302.988315 
L 551.464095 312.449057 
L 552.758719 316.883653 
L 555.779508 328.785787 
L 558.65645 342.587372 
L 560.238768 351.346923 
L 560.67031 353.894114 
L 560.742233 285.01962 
L 560.814157 380.051189 
L 560.88608 379.814439 
L 563.331481 371.749014 
L 566.064576 362.879129 
L 568.15036 357.110364 
L 568.941519 355.320178 
L 570.020372 353.215103 
L 571.243072 351.337671 
L 571.818461 350.645062 
L 572.250002 350.211237 
L 572.825391 349.692525 
L 573.61655 349.172465 
L 574.911174 348.777356 
L 577.06888 349.226096 
L 579.154664 350.593042 
L 581.31237 352.712096 
L 582.031606 353.607148 
L 583.038536 354.98196 
L 588.001261 363.093252 
L 589.871273 366.674623 
L 594.04284 375.428517 
L 594.833999 377.121817 
L 598.574024 385.64296 
L 600.875578 391.039745 
L 601.594813 392.749468 
L 603.177131 396.670358 
L 605.478685 402.47343 
L 612.742964 422.756765 
L 614.325282 427.625153 
L 615.763754 432.324452 
L 618.424925 440.80626 
L 618.784543 441.323795 
L 619.000314 441.385345 
L 619.216084 441.202055 
L 619.431855 440.875358 
L 619.863396 439.749296 
L 620.510708 437.453728 
L 622.236874 429.813072 
L 624.106886 420.480715 
L 626.264593 408.240603 
L 629.501153 388.287148 
L 633.025407 366.605702 
L 635.398884 354.053123 
L 637.196973 345.976631 
L 638.419674 341.336108 
L 640.433533 335.042526 
L 641.440463 332.535671 
L 642.231622 330.849903 
L 643.81394 328.098678 
L 645.036641 326.612748 
L 647.194348 325.142869 
L 647.697812 325.030955 
L 648.129354 324.97988 
L 648.704742 324.957252 
L 650.502831 325.341567 
L 651.725532 325.918824 
L 652.804385 326.752923 
L 653.595544 327.425752 
L 653.955162 327.729639 
L 654.674397 328.517919 
L 655.681327 329.73529 
L 656.904028 331.414202 
L 659.493276 335.522427 
L 663.233301 342.300153 
L 664.02446 343.794447 
L 665.031389 345.689115 
L 666.469861 348.636994 
L 675.460305 366.635594 
L 681.286113 376.296147 
L 684.306902 379.905298 
L 686.824227 381.680975 
L 687.68731 381.96787 
L 689.701169 381.957523 
L 690.276558 381.796113 
L 691.858876 380.787765 
L 693.585041 378.787058 
L 695.670824 374.979989 
L 697.325066 370.862782 
L 698.61969 367.048159 
L 699.842391 362.811298 
L 702.215868 353.097948 
L 704.013957 344.678723 
L 707.034746 329.063508 
L 709.695918 315.342369 
L 712.069395 304.382731 
L 713.364019 299.173313 
L 715.234032 292.606759 
L 716.384808 289.050164 
L 718.974056 282.410119 
L 720.05291 280.031195 
L 722.642158 275.254099 
L 725.447176 271.393806 
L 726.7418 270.052778 
L 729.546819 268.221566 
L 731.129137 267.947201 
L 731.560679 267.959931 
L 732.136067 267.98195 
L 734.078003 268.729096 
L 734.869162 269.260695 
L 735.372627 269.654217 
L 736.019939 270.193751 
L 739.47227 274.462406 
L 742.061518 278.527747 
L 744.147301 282.39686 
L 753.281593 301.279277 
L 754.935834 304.786652 
L 757.740853 310.691816 
L 759.89856 315.147196 
L 763.782432 322.480425 
L 765.436674 325.173637 
L 767.162839 327.62958 
L 769.392469 330.099842 
L 771.83787 331.745162 
L 772.772876 332.082308 
L 773.276341 332.15354 
L 774.211347 332.259909 
L 775.793666 332.201577 
L 776.512901 332.084507 
L 776.584825 374.23168 
L 776.656748 332.732605 
L 776.728672 333.010091 
L 779.605614 342.774721 
L 782.482556 350.723678 
L 784.999881 356.507783 
L 790.753765 367.323863 
L 791.544924 368.602696 
L 798.953051 380.193154 
L 799.528439 381.01564 
L 802.764999 385.582119 
L 805.2104 388.612341 
L 807.511954 391.232537 
L 808.159266 391.919164 
L 809.381966 393.165154 
L 812.258909 395.36655 
L 812.402756 395.449796 
L 812.402756 395.449796 
" clip-path="url(#p4323c4da44)" style="fill: none; stroke-dasharray: 7.4,3.2; stroke-dashoffset: 0; stroke: #ff0000; stroke-width: 2"/>
   </g>
   <g id="patch_9">
    <path d="M 57.280938 450.777812 
L 57.280938 244.457813 
" style="fill: none; stroke: #000000; stroke-width: 0.8; stroke-linejoin: miter; stroke-linecap: square"/>
   </g>
   <g id="patch_10">
    <path d="M 848.360937 450.777812 
L 848.360937 244.457813 
" style="fill: none; stroke: #000000; stroke-width: 0.8; stroke-linejoin: miter; stroke-linecap: square"/>
   </g>
   <g id="patch_11">
    <path d="M 57.280938 450.777813 
L 848.360937 450.777813 
" style="fill: none; stroke: #000000; stroke-width: 0.8; stroke-linejoin: miter; stroke-linecap: square"/>
   </g>
   <g id="patch_12">
    <path d="M 57.280938 244.457813 
L 848.360937 244.457813 
" style="fill: none; stroke: #000000; stroke-width: 0.8; stroke-linejoin: miter; stroke-linecap: square"/>
   </g>
   <g id="legend_2">
    <g id="patch_13">
     <path d="M 758.84375 281.814063 
L 841.360937 281.814063 
Q 843.360937 281.814063 843.360937 279.814063 
L 843.360937 251.457813 
Q 843.360937 249.457813 841.360937 249.457813 
L 758.84375 249.457813 
Q 756.84375 249.457813 756.84375 251.457813 
L 756.84375 279.814063 
Q 756.84375 281.814063 758.84375 281.814063 
z
" style="fill: #ffffff; opacity: 0.8; stroke: #cccccc; stroke-linejoin: miter"/>
    </g>
    <g id="line2d_59">
     <path d="M 760.84375 257.55625 
L 770.84375 257.55625 
L 780.84375 257.55625 
" style="fill: none; stroke: #000000; stroke-width: 2; stroke-linecap: square"/>
    </g>
    <g id="text_20">
     <!-- True -->
     <g transform="translate(788.84375 261.05625) scale(0.1 -0.1)">
      <use xlink:href="#DejaVuSans-54"/>
      <use xlink:href="#DejaVuSans-72" transform="translate(46.333984 0)"/>
      <use xlink:href="#DejaVuSans-75" transform="translate(87.447266 0)"/>
      <use xlink:href="#DejaVuSans-65" transform="translate(150.826172 0)"/>
     </g>
    </g>
    <g id="line2d_60">
     <path d="M 760.84375 272.234375 
L 770.84375 272.234375 
L 780.84375 272.234375 
" style="fill: none; stroke-dasharray: 7.4,3.2; stroke-dashoffset: 0; stroke: #ff0000; stroke-width: 2"/>
    </g>
    <g id="text_21">
     <!-- Estimated -->
     <g transform="translate(788.84375 275.734375) scale(0.1 -0.1)">
      <use xlink:href="#DejaVuSans-45"/>
      <use xlink:href="#DejaVuSans-73" transform="translate(63.183594 0)"/>
      <use xlink:href="#DejaVuSans-74" transform="translate(115.283203 0)"/>
      <use xlink:href="#DejaVuSans-69" transform="translate(154.492188 0)"/>
      <use xlink:href="#DejaVuSans-6d" transform="translate(182.275391 0)"/>
      <use xlink:href="#DejaVuSans-61" transform="translate(279.6875 0)"/>
      <use xlink:href="#DejaVuSans-74" transform="translate(340.966797 0)"/>
      <use xlink:href="#DejaVuSans-65" transform="translate(380.175781 0)"/>
      <use xlink:href="#DejaVuSans-64" transform="translate(441.699219 0)"/>
     </g>
    </g>
   </g>
  </g>
  <g id="axes_3">
   <g id="patch_14">
    <path d="M 57.280938 671.397812 
L 848.360937 671.397812 
L 848.360937 465.077812 
L 57.280938 465.077812 
z
" style="fill: #ffffff"/>
   </g>
   <g id="matplotlib.axis_5">
    <g id="xtick_13">
     <g id="line2d_61">
      <path d="M 93.239119 671.397812 
L 93.239119 465.077812 
" clip-path="url(#pc5ac988b94)" style="fill: none; stroke: #b0b0b0; stroke-opacity: 0.3; stroke-width: 0.8; stroke-linecap: square"/>
     </g>
     <g id="line2d_62">
      <g>
       <use xlink:href="#m831313474c" x="93.239119" y="671.397812" style="stroke: #000000; stroke-width: 0.8"/>
      </g>
     </g>
     <g id="text_22">
      <!-- 0 -->
      <g transform="translate(90.057869 685.99625) scale(0.1 -0.1)">
       <use xlink:href="#DejaVuSans-30"/>
      </g>
     </g>
    </g>
    <g id="xtick_14">
     <g id="line2d_63">
      <path d="M 237.086231 671.397812 
L 237.086231 465.077812 
" clip-path="url(#pc5ac988b94)" style="fill: none; stroke: #b0b0b0; stroke-opacity: 0.3; stroke-width: 0.8; stroke-linecap: square"/>
     </g>
     <g id="line2d_64">
      <g>
       <use xlink:href="#m831313474c" x="237.086231" y="671.397812" style="stroke: #000000; stroke-width: 0.8"/>
      </g>
     </g>
     <g id="text_23">
      <!-- 20 -->
      <g transform="translate(230.723731 685.99625) scale(0.1 -0.1)">
       <use xlink:href="#DejaVuSans-32"/>
       <use xlink:href="#DejaVuSans-30" transform="translate(63.623047 0)"/>
      </g>
     </g>
    </g>
    <g id="xtick_15">
     <g id="line2d_65">
      <path d="M 380.933343 671.397812 
L 380.933343 465.077812 
" clip-path="url(#pc5ac988b94)" style="fill: none; stroke: #b0b0b0; stroke-opacity: 0.3; stroke-width: 0.8; stroke-linecap: square"/>
     </g>
     <g id="line2d_66">
      <g>
       <use xlink:href="#m831313474c" x="380.933343" y="671.397812" style="stroke: #000000; stroke-width: 0.8"/>
      </g>
     </g>
     <g id="text_24">
      <!-- 40 -->
      <g transform="translate(374.570843 685.99625) scale(0.1 -0.1)">
       <defs>
        <path id="DejaVuSans-34" d="M 2419 4116 
L 825 1625 
L 2419 1625 
L 2419 4116 
z
M 2253 4666 
L 3047 4666 
L 3047 1625 
L 3713 1625 
L 3713 1100 
L 3047 1100 
L 3047 0 
L 2419 0 
L 2419 1100 
L 313 1100 
L 313 1709 
L 2253 4666 
z
" transform="scale(0.015625)"/>
       </defs>
       <use xlink:href="#DejaVuSans-34"/>
       <use xlink:href="#DejaVuSans-30" transform="translate(63.623047 0)"/>
      </g>
     </g>
    </g>
    <g id="xtick_16">
     <g id="line2d_67">
      <path d="M 524.780455 671.397812 
L 524.780455 465.077812 
" clip-path="url(#pc5ac988b94)" style="fill: none; stroke: #b0b0b0; stroke-opacity: 0.3; stroke-width: 0.8; stroke-linecap: square"/>
     </g>
     <g id="line2d_68">
      <g>
       <use xlink:href="#m831313474c" x="524.780455" y="671.397812" style="stroke: #000000; stroke-width: 0.8"/>
      </g>
     </g>
     <g id="text_25">
      <!-- 60 -->
      <g transform="translate(518.417955 685.99625) scale(0.1 -0.1)">
       <defs>
        <path id="DejaVuSans-36" d="M 2113 2584 
Q 1688 2584 1439 2293 
Q 1191 2003 1191 1497 
Q 1191 994 1439 701 
Q 1688 409 2113 409 
Q 2538 409 2786 701 
Q 3034 994 3034 1497 
Q 3034 2003 2786 2293 
Q 2538 2584 2113 2584 
z
M 3366 4563 
L 3366 3988 
Q 3128 4100 2886 4159 
Q 2644 4219 2406 4219 
Q 1781 4219 1451 3797 
Q 1122 3375 1075 2522 
Q 1259 2794 1537 2939 
Q 1816 3084 2150 3084 
Q 2853 3084 3261 2657 
Q 3669 2231 3669 1497 
Q 3669 778 3244 343 
Q 2819 -91 2113 -91 
Q 1303 -91 875 529 
Q 447 1150 447 2328 
Q 447 3434 972 4092 
Q 1497 4750 2381 4750 
Q 2619 4750 2861 4703 
Q 3103 4656 3366 4563 
z
" transform="scale(0.015625)"/>
       </defs>
       <use xlink:href="#DejaVuSans-36"/>
       <use xlink:href="#DejaVuSans-30" transform="translate(63.623047 0)"/>
      </g>
     </g>
    </g>
    <g id="xtick_17">
     <g id="line2d_69">
      <path d="M 668.627567 671.397812 
L 668.627567 465.077812 
" clip-path="url(#pc5ac988b94)" style="fill: none; stroke: #b0b0b0; stroke-opacity: 0.3; stroke-width: 0.8; stroke-linecap: square"/>
     </g>
     <g id="line2d_70">
      <g>
       <use xlink:href="#m831313474c" x="668.627567" y="671.397812" style="stroke: #000000; stroke-width: 0.8"/>
      </g>
     </g>
     <g id="text_26">
      <!-- 80 -->
      <g transform="translate(662.265067 685.99625) scale(0.1 -0.1)">
       <defs>
        <path id="DejaVuSans-38" d="M 2034 2216 
Q 1584 2216 1326 1975 
Q 1069 1734 1069 1313 
Q 1069 891 1326 650 
Q 1584 409 2034 409 
Q 2484 409 2743 651 
Q 3003 894 3003 1313 
Q 3003 1734 2745 1975 
Q 2488 2216 2034 2216 
z
M 1403 2484 
Q 997 2584 770 2862 
Q 544 3141 544 3541 
Q 544 4100 942 4425 
Q 1341 4750 2034 4750 
Q 2731 4750 3128 4425 
Q 3525 4100 3525 3541 
Q 3525 3141 3298 2862 
Q 3072 2584 2669 2484 
Q 3125 2378 3379 2068 
Q 3634 1759 3634 1313 
Q 3634 634 3220 271 
Q 2806 -91 2034 -91 
Q 1263 -91 848 271 
Q 434 634 434 1313 
Q 434 1759 690 2068 
Q 947 2378 1403 2484 
z
M 1172 3481 
Q 1172 3119 1398 2916 
Q 1625 2713 2034 2713 
Q 2441 2713 2670 2916 
Q 2900 3119 2900 3481 
Q 2900 3844 2670 4047 
Q 2441 4250 2034 4250 
Q 1625 4250 1398 4047 
Q 1172 3844 1172 3481 
z
" transform="scale(0.015625)"/>
       </defs>
       <use xlink:href="#DejaVuSans-38"/>
       <use xlink:href="#DejaVuSans-30" transform="translate(63.623047 0)"/>
      </g>
     </g>
    </g>
    <g id="xtick_18">
     <g id="line2d_71">
      <path d="M 812.474679 671.397812 
L 812.474679 465.077812 
" clip-path="url(#pc5ac988b94)" style="fill: none; stroke: #b0b0b0; stroke-opacity: 0.3; stroke-width: 0.8; stroke-linecap: square"/>
     </g>
     <g id="line2d_72">
      <g>
       <use xlink:href="#m831313474c" x="812.474679" y="671.397812" style="stroke: #000000; stroke-width: 0.8"/>
      </g>
     </g>
     <g id="text_27">
      <!-- 100 -->
      <g transform="translate(802.930929 685.99625) scale(0.1 -0.1)">
       <use xlink:href="#DejaVuSans-31"/>
       <use xlink:href="#DejaVuSans-30" transform="translate(63.623047 0)"/>
       <use xlink:href="#DejaVuSans-30" transform="translate(127.246094 0)"/>
      </g>
     </g>
    </g>
    <g id="text_28">
     <!-- Time [s] -->
     <g transform="translate(428.42625 701.194063) scale(0.12 -0.12)">
      <use xlink:href="#DejaVuSans-54"/>
      <use xlink:href="#DejaVuSans-69" transform="translate(57.958984 0)"/>
      <use xlink:href="#DejaVuSans-6d" transform="translate(85.742188 0)"/>
      <use xlink:href="#DejaVuSans-65" transform="translate(183.154297 0)"/>
      <use xlink:href="#DejaVuSans-20" transform="translate(244.677734 0)"/>
      <use xlink:href="#DejaVuSans-5b" transform="translate(276.464844 0)"/>
      <use xlink:href="#DejaVuSans-73" transform="translate(315.478516 0)"/>
      <use xlink:href="#DejaVuSans-5d" transform="translate(367.578125 0)"/>
     </g>
    </g>
   </g>
   <g id="matplotlib.axis_6">
    <g id="ytick_15">
     <g id="line2d_73">
      <path d="M 57.280938 646.389328 
L 848.360937 646.389328 
" clip-path="url(#pc5ac988b94)" style="fill: none; stroke: #b0b0b0; stroke-opacity: 0.3; stroke-width: 0.8; stroke-linecap: square"/>
     </g>
     <g id="line2d_74">
      <g>
       <use xlink:href="#m855e18741d" x="57.280938" y="646.389328" style="stroke: #000000; stroke-width: 0.8"/>
      </g>
     </g>
     <g id="text_29">
      <!-- −150 -->
      <g transform="translate(22.81375 650.188546) scale(0.1 -0.1)">
       <use xlink:href="#DejaVuSans-2212"/>
       <use xlink:href="#DejaVuSans-31" transform="translate(83.789062 0)"/>
       <use xlink:href="#DejaVuSans-35" transform="translate(147.412109 0)"/>
       <use xlink:href="#DejaVuSans-30" transform="translate(211.035156 0)"/>
      </g>
     </g>
    </g>
    <g id="ytick_16">
     <g id="line2d_75">
      <path d="M 57.280938 620.338823 
L 848.360937 620.338823 
" clip-path="url(#pc5ac988b94)" style="fill: none; stroke: #b0b0b0; stroke-opacity: 0.3; stroke-width: 0.8; stroke-linecap: square"/>
     </g>
     <g id="line2d_76">
      <g>
       <use xlink:href="#m855e18741d" x="57.280938" y="620.338823" style="stroke: #000000; stroke-width: 0.8"/>
      </g>
     </g>
     <g id="text_30">
      <!-- −100 -->
      <g transform="translate(22.81375 624.138041) scale(0.1 -0.1)">
       <use xlink:href="#DejaVuSans-2212"/>
       <use xlink:href="#DejaVuSans-31" transform="translate(83.789062 0)"/>
       <use xlink:href="#DejaVuSans-30" transform="translate(147.412109 0)"/>
       <use xlink:href="#DejaVuSans-30" transform="translate(211.035156 0)"/>
      </g>
     </g>
    </g>
    <g id="ytick_17">
     <g id="line2d_77">
      <path d="M 57.280938 594.288318 
L 848.360937 594.288318 
" clip-path="url(#pc5ac988b94)" style="fill: none; stroke: #b0b0b0; stroke-opacity: 0.3; stroke-width: 0.8; stroke-linecap: square"/>
     </g>
     <g id="line2d_78">
      <g>
       <use xlink:href="#m855e18741d" x="57.280938" y="594.288318" style="stroke: #000000; stroke-width: 0.8"/>
      </g>
     </g>
     <g id="text_31">
      <!-- −50 -->
      <g transform="translate(29.17625 598.087536) scale(0.1 -0.1)">
       <use xlink:href="#DejaVuSans-2212"/>
       <use xlink:href="#DejaVuSans-35" transform="translate(83.789062 0)"/>
       <use xlink:href="#DejaVuSans-30" transform="translate(147.412109 0)"/>
      </g>
     </g>
    </g>
    <g id="ytick_18">
     <g id="line2d_79">
      <path d="M 57.280938 568.237813 
L 848.360937 568.237813 
" clip-path="url(#pc5ac988b94)" style="fill: none; stroke: #b0b0b0; stroke-opacity: 0.3; stroke-width: 0.8; stroke-linecap: square"/>
     </g>
     <g id="line2d_80">
      <g>
       <use xlink:href="#m855e18741d" x="57.280938" y="568.237813" style="stroke: #000000; stroke-width: 0.8"/>
      </g>
     </g>
     <g id="text_32">
      <!-- 0 -->
      <g transform="translate(43.918438 572.037031) scale(0.1 -0.1)">
       <use xlink:href="#DejaVuSans-30"/>
      </g>
     </g>
    </g>
    <g id="ytick_19">
     <g id="line2d_81">
      <path d="M 57.280938 542.187307 
L 848.360937 542.187307 
" clip-path="url(#pc5ac988b94)" style="fill: none; stroke: #b0b0b0; stroke-opacity: 0.3; stroke-width: 0.8; stroke-linecap: square"/>
     </g>
     <g id="line2d_82">
      <g>
       <use xlink:href="#m855e18741d" x="57.280938" y="542.187307" style="stroke: #000000; stroke-width: 0.8"/>
      </g>
     </g>
     <g id="text_33">
      <!-- 50 -->
      <g transform="translate(37.555938 545.986526) scale(0.1 -0.1)">
       <use xlink:href="#DejaVuSans-35"/>
       <use xlink:href="#DejaVuSans-30" transform="translate(63.623047 0)"/>
      </g>
     </g>
    </g>
    <g id="ytick_20">
     <g id="line2d_83">
      <path d="M 57.280938 516.136802 
L 848.360937 516.136802 
" clip-path="url(#pc5ac988b94)" style="fill: none; stroke: #b0b0b0; stroke-opacity: 0.3; stroke-width: 0.8; stroke-linecap: square"/>
     </g>
     <g id="line2d_84">
      <g>
       <use xlink:href="#m855e18741d" x="57.280938" y="516.136802" style="stroke: #000000; stroke-width: 0.8"/>
      </g>
     </g>
     <g id="text_34">
      <!-- 100 -->
      <g transform="translate(31.193438 519.936021) scale(0.1 -0.1)">
       <use xlink:href="#DejaVuSans-31"/>
       <use xlink:href="#DejaVuSans-30" transform="translate(63.623047 0)"/>
       <use xlink:href="#DejaVuSans-30" transform="translate(127.246094 0)"/>
      </g>
     </g>
    </g>
    <g id="ytick_21">
     <g id="line2d_85">
      <path d="M 57.280938 490.086297 
L 848.360937 490.086297 
" clip-path="url(#pc5ac988b94)" style="fill: none; stroke: #b0b0b0; stroke-opacity: 0.3; stroke-width: 0.8; stroke-linecap: square"/>
     </g>
     <g id="line2d_86">
      <g>
       <use xlink:href="#m855e18741d" x="57.280938" y="490.086297" style="stroke: #000000; stroke-width: 0.8"/>
      </g>
     </g>
     <g id="text_35">
      <!-- 150 -->
      <g transform="translate(31.193438 493.885516) scale(0.1 -0.1)">
       <use xlink:href="#DejaVuSans-31"/>
       <use xlink:href="#DejaVuSans-35" transform="translate(63.623047 0)"/>
       <use xlink:href="#DejaVuSans-30" transform="translate(127.246094 0)"/>
      </g>
     </g>
    </g>
    <g id="text_36">
     <!-- Yaw [deg] -->
     <g transform="translate(16.318125 597.56) rotate(-90) scale(0.12 -0.12)">
      <defs>
       <path id="DejaVuSans-59" d="M -13 4666 
L 666 4666 
L 1959 2747 
L 3244 4666 
L 3922 4666 
L 2272 2222 
L 2272 0 
L 1638 0 
L 1638 2222 
L -13 4666 
z
" transform="scale(0.015625)"/>
      </defs>
      <use xlink:href="#DejaVuSans-59"/>
      <use xlink:href="#DejaVuSans-61" transform="translate(47.333984 0)"/>
      <use xlink:href="#DejaVuSans-77" transform="translate(108.613281 0)"/>
      <use xlink:href="#DejaVuSans-20" transform="translate(190.400391 0)"/>
      <use xlink:href="#DejaVuSans-5b" transform="translate(222.1875 0)"/>
      <use xlink:href="#DejaVuSans-64" transform="translate(261.201172 0)"/>
      <use xlink:href="#DejaVuSans-65" transform="translate(324.677734 0)"/>
      <use xlink:href="#DejaVuSans-67" transform="translate(386.201172 0)"/>
      <use xlink:href="#DejaVuSans-5d" transform="translate(449.677734 0)"/>
     </g>
    </g>
   </g>
   <g id="line2d_87">
    <path d="M 93.239119 540.556493 
L 96.547603 540.669323 
L 99.712239 540.99518 
L 102.733029 541.523681 
L 105.609971 542.253422 
L 108.199219 543.133781 
L 110.64462 544.200248 
L 112.87425 545.415023 
L 114.960033 546.807267 
L 116.901969 548.374139 
L 118.700058 550.105776 
L 120.426223 552.070797 
L 122.152389 554.383433 
L 123.806631 556.973102 
L 125.532796 560.105627 
L 127.330885 563.853587 
L 129.344744 568.592583 
L 132.29361 576.19344 
L 135.817864 585.139304 
L 137.903648 589.817445 
L 139.77366 593.481514 
L 141.571749 596.533131 
L 143.369838 599.164945 
L 145.23985 601.518464 
L 147.25371 603.690457 
L 149.411417 605.682771 
L 151.784894 607.563526 
L 154.446065 609.382535 
L 157.610702 611.265021 
L 161.710345 613.424743 
L 173.937349 619.690776 
L 177.030062 621.629753 
L 179.61931 623.513785 
L 181.920864 625.466337 
L 184.006647 627.533418 
L 185.948583 629.780815 
L 187.746672 632.202307 
L 189.472837 634.891676 
L 191.199003 637.9863 
L 192.997091 641.670243 
L 195.010951 646.33173 
L 197.672123 653.119958 
L 201.124453 662.019631 
L 201.196377 474.632552 
L 201.2683 474.808543 
L 203.426007 479.784143 
L 205.29602 483.548876 
L 207.094108 486.665588 
L 208.820274 489.221655 
L 210.546439 491.397841 
L 212.344528 493.316347 
L 214.21454 494.992906 
L 216.2284 496.495943 
L 218.386107 497.819499 
L 220.687661 498.963346 
L 223.133061 499.930181 
L 225.794233 500.742281 
L 228.671175 501.38495 
L 231.763888 501.842763 
L 235.000448 502.092617 
L 238.308932 502.121977 
L 241.545492 501.931423 
L 244.710128 501.523755 
L 247.658994 500.924311 
L 250.392089 500.149042 
L 252.909414 499.212078 
L 255.282891 498.091492 
L 257.440598 496.829228 
L 259.454457 495.395838 
L 261.32447 493.797357 
L 263.122559 491.968454 
L 264.848724 489.893328 
L 266.502966 487.562925 
L 268.157207 484.853809 
L 269.883373 481.588368 
L 271.681462 477.705117 
L 273.048009 474.455994 
L 273.119933 661.842518 
L 273.191856 661.66486 
L 276.140722 654.064003 
L 279.664976 645.118139 
L 281.75076 640.439998 
L 283.620772 636.775929 
L 285.418861 633.724312 
L 287.21695 631.092498 
L 289.086962 628.738979 
L 291.100822 626.566986 
L 293.258529 624.574672 
L 295.632006 622.693917 
L 298.293177 620.874908 
L 301.457814 618.992422 
L 305.557457 616.8327 
L 317.784461 610.566667 
L 320.877174 608.62769 
L 323.466422 606.743659 
L 325.767976 604.791106 
L 327.853759 602.724026 
L 329.795695 600.476628 
L 331.593784 598.055136 
L 333.319949 595.365767 
L 335.046115 592.271144 
L 336.844203 588.5872 
L 338.858063 583.925714 
L 341.519235 577.137485 
L 345.690801 566.498837 
L 347.70466 561.993421 
L 349.502749 558.482596 
L 351.228915 555.573706 
L 352.95508 553.084461 
L 354.753169 550.885611 
L 356.551258 549.031543 
L 358.42127 547.411144 
L 360.43513 545.958198 
L 362.592837 544.678711 
L 364.89439 543.573385 
L 367.411715 542.616116 
L 370.14481 541.822541 
L 373.021752 541.218738 
L 376.114465 540.797334 
L 379.351025 540.582192 
L 382.659509 540.587085 
L 385.896069 540.812108 
L 388.988782 541.243843 
L 391.937647 541.876919 
L 394.670742 542.689062 
L 397.188067 543.666976 
L 399.489621 544.795271 
L 401.647327 546.101023 
L 403.661187 547.583815 
L 405.531199 549.237674 
L 407.329288 551.130142 
L 409.055454 553.277001 
L 410.709695 555.68623 
L 412.363937 558.482596 
L 414.090103 561.843449 
L 415.960115 565.989364 
L 418.261669 571.685181 
L 424.375171 587.147022 
L 426.317107 591.287404 
L 428.18712 594.755802 
L 429.985208 597.633171 
L 431.855221 600.20459 
L 433.797157 602.490994 
L 435.811017 604.524516 
L 438.040647 606.457893 
L 440.486048 608.282893 
L 443.291066 610.096451 
L 446.671473 612.01133 
L 451.490352 614.459545 
L 459.905408 618.713655 
L 463.357738 620.738121 
L 466.162757 622.641136 
L 468.536234 624.513317 
L 470.693941 626.495434 
L 472.707801 628.655375 
L 474.577813 630.995163 
L 476.375902 633.611336 
L 478.102067 636.515187 
L 479.900156 639.991044 
L 481.770169 644.102262 
L 483.999799 649.572047 
L 488.818677 662.019631 
L 488.890601 474.632552 
L 488.962524 474.808543 
L 491.120231 479.784143 
L 492.990244 483.548876 
L 494.788332 486.665588 
L 496.514498 489.221655 
L 498.240663 491.397841 
L 500.038752 493.316347 
L 501.908764 494.992906 
L 503.922624 496.495943 
L 506.080331 497.819499 
L 508.381885 498.963346 
L 510.827285 499.930181 
L 513.488457 500.742281 
L 516.365399 501.38495 
L 519.458112 501.842763 
L 522.694672 502.092617 
L 526.003156 502.121977 
L 529.239716 501.931423 
L 532.404352 501.523755 
L 535.353218 500.924311 
L 538.086313 500.149042 
L 540.603638 499.212078 
L 542.977115 498.091492 
L 545.134822 496.829228 
L 547.148681 495.395838 
L 549.018694 493.797357 
L 550.816783 491.968454 
L 552.542948 489.893328 
L 554.19719 487.562925 
L 555.851431 484.853809 
L 557.577597 481.588368 
L 559.375686 477.705117 
L 560.67031 474.632552 
L 560.742233 662.019631 
L 560.814157 661.842518 
L 563.691099 654.441933 
L 567.287277 645.28969 
L 569.37306 640.591159 
L 571.243072 636.907415 
L 573.041161 633.837962 
L 574.83925 631.190413 
L 576.709263 628.823065 
L 578.723122 626.638923 
L 580.880829 624.636327 
L 583.254306 622.746924 
L 585.915478 620.920821 
L 589.008191 619.072958 
L 593.03591 616.941395 
L 605.766379 610.397473 
L 608.787169 608.48107 
L 611.304493 606.630139 
L 613.534123 604.724972 
L 615.619906 602.646781 
L 617.561842 600.386479 
L 619.359931 597.950587 
L 621.086097 595.245198 
L 622.812262 592.132888 
L 624.610351 588.430079 
L 626.624211 583.749996 
L 629.357306 576.760076 
L 633.313101 566.669965 
L 635.398884 561.993421 
L 637.196973 558.482596 
L 638.923139 555.573706 
L 640.649304 553.084461 
L 642.447393 550.885611 
L 644.245482 549.031543 
L 646.115494 547.411144 
L 648.129354 545.958198 
L 650.28706 544.678711 
L 652.588614 543.573385 
L 655.105939 542.616116 
L 657.839034 541.822541 
L 660.715976 541.218738 
L 663.808689 540.797334 
L 667.045249 540.582192 
L 670.353733 540.587085 
L 673.590293 540.812108 
L 676.683006 541.243843 
L 679.631871 541.876919 
L 682.364966 542.689062 
L 684.882291 543.666976 
L 687.183845 544.795271 
L 689.341551 546.101023 
L 691.355411 547.583815 
L 693.225423 549.237674 
L 695.023512 551.130142 
L 696.749678 553.277001 
L 698.403919 555.68623 
L 700.058161 558.482596 
L 701.784327 561.843449 
L 703.654339 565.989364 
L 705.955893 571.685181 
L 712.069395 587.147022 
L 714.011331 591.287404 
L 715.881344 594.755802 
L 717.679432 597.633171 
L 719.549445 600.20459 
L 721.491381 602.490994 
L 723.50524 604.524516 
L 725.734871 606.457893 
L 728.180272 608.282893 
L 730.98529 610.096451 
L 734.365697 612.01133 
L 739.184576 614.459545 
L 747.599632 618.713655 
L 751.051962 620.738121 
L 753.856981 622.641136 
L 756.230458 624.513317 
L 758.388165 626.495434 
L 760.402025 628.655375 
L 762.272037 630.995163 
L 764.070126 633.611336 
L 765.796291 636.515187 
L 767.59438 639.991044 
L 769.464393 644.102262 
L 771.694023 649.572047 
L 776.512901 662.019631 
L 776.584825 474.632552 
L 776.656748 474.808543 
L 778.814455 479.784143 
L 780.684467 483.548876 
L 782.482556 486.665588 
L 784.208722 489.221655 
L 785.934887 491.397841 
L 787.732976 493.316347 
L 789.602988 494.992906 
L 791.616848 496.495943 
L 793.774555 497.819499 
L 796.076108 498.963346 
L 798.521509 499.930181 
L 801.182681 500.742281 
L 804.059623 501.38495 
L 807.152336 501.842763 
L 810.388896 502.092617 
L 812.402756 502.137261 
L 812.402756 502.137261 
" clip-path="url(#pc5ac988b94)" style="fill: none; stroke: #000000; stroke-width: 2; stroke-linecap: square"/>
   </g>
   <g id="line2d_88">
    <path d="M 93.239119 568.237813 
L 94.893361 567.83893 
L 97.051068 567.63384 
L 101.15071 568.085715 
L 104.674965 569.372842 
L 106.832671 570.498854 
L 110.141155 573.057618 
L 112.514632 575.388017 
L 114.312721 577.414353 
L 116.182734 579.653257 
L 117.11774 580.806088 
L 121.145459 585.62859 
L 123.518936 588.104376 
L 125.029331 589.393865 
L 126.755496 590.550695 
L 129.920133 591.705159 
L 130.783216 591.785435 
L 132.005916 591.792074 
L 135.3144 590.750298 
L 136.752871 589.982384 
L 138.407112 588.893688 
L 139.77366 587.87978 
L 142.147137 585.82459 
L 143.513685 584.500843 
L 143.945226 584.045171 
L 144.880233 583.012698 
L 146.462551 580.971632 
L 147.109863 580.005028 
L 147.685251 579.178683 
L 148.764105 577.345406 
L 151.425276 570.998334 
L 152.144512 568.760778 
L 154.014524 561.432026 
L 155.596842 553.754677 
L 158.258014 539.517252 
L 159.912256 532.616959 
L 160.919186 529.250949 
L 163.292663 523.672209 
L 163.796128 522.840196 
L 165.234599 521.126923 
L 167.104611 519.617663 
L 168.111541 519.05119 
L 169.765783 518.508565 
L 170.269248 518.384341 
L 171.707719 518.269258 
L 172.426954 518.300537 
L 173.290037 518.432051 
L 176.310826 519.504346 
L 176.886215 519.794658 
L 177.965068 520.386907 
L 181.489323 522.903572 
L 185.013577 526.468558 
L 187.027436 529.087814 
L 188.681678 531.663124 
L 190.551691 535.064481 
L 192.421703 538.962113 
L 194.79518 544.615179 
L 196.880964 550.105808 
L 200.908683 560.913016 
L 201.124453 561.4513 
L 201.196377 504.72201 
L 201.340224 631.086689 
L 203.641778 634.452332 
L 206.015255 637.583677 
L 211.193751 643.392494 
L 215.149547 646.919143 
L 220.184196 651.132078 
L 223.636526 654.248732 
L 225.362692 655.93815 
L 227.232704 657.891839 
L 228.383481 659.214589 
L 230.685035 661.994729 
L 230.756958 474.5298 
L 230.828882 474.647339 
L 231.332347 475.276229 
L 234.42506 479.52974 
L 236.726614 483.045186 
L 244.566281 495.052409 
L 246.436294 497.6521 
L 249.672854 501.78774 
L 252.405949 504.836054 
L 254.635579 507.062537 
L 258.30368 510.441328 
L 261.54024 513.266427 
L 264.201412 515.626861 
L 268.804519 519.719282 
L 271.106073 521.967685 
L 273.048009 523.97634 
L 273.119933 656.978359 
L 273.191856 601.648207 
L 276.859958 611.385606 
L 280.9596 622.124211 
L 283.692696 628.724134 
L 286.857332 635.316548 
L 288.080033 637.543148 
L 290.669281 641.67679 
L 292.68314 644.440184 
L 295.056617 647.15532 
L 298.580872 650.366863 
L 300.666655 651.92308 
L 303.615521 653.67978 
L 306.060921 654.801065 
L 308.65017 655.705784 
L 312.030577 656.399356 
L 316.274066 656.410958 
L 318.144079 655.959318 
L 320.661403 654.815404 
L 322.747186 652.9913 
L 324.04181 651.086189 
L 324.545275 650.112459 
L 326.199517 645.336373 
L 326.990676 641.636283 
L 327.781835 636.71767 
L 328.429147 631.414222 
L 329.364154 621.71504 
L 331.162243 602.315034 
L 331.953402 596.084274 
L 332.672637 591.927652 
L 333.391873 588.672331 
L 334.183032 586.066216 
L 335.189962 583.711312 
L 336.124968 582.169357 
L 337.851133 580.303275 
L 339.145757 579.465212 
L 341.01577 578.877885 
L 342.454241 578.861248 
L 343.676941 579.070381 
L 346.266189 580.132683 
L 347.70466 581.101096 
L 349.574673 582.69321 
L 351.660456 584.907985 
L 354.105857 588.04631 
L 362.592837 600.577602 
L 366.117091 605.091846 
L 367.843256 606.944964 
L 370.288657 609.208095 
L 371.870975 610.380025 
L 375.179459 612.17804 
L 377.84063 613.083173 
L 379.710643 613.448098 
L 382.515662 613.620428 
L 384.817215 613.361209 
L 386.183763 612.989383 
L 389.132629 611.929735 
L 391.506106 610.714264 
L 394.670742 608.581311 
L 396.972296 606.629087 
L 398.914232 604.736084 
L 400.568474 603.036611 
L 408.336218 594.829157 
L 412.076243 591.763109 
L 413.730485 590.856612 
L 415.312803 590.300933 
L 416.967045 590.102176 
L 418.261669 590.189099 
L 419.268599 590.48588 
L 420.778993 591.142354 
L 422.001694 591.978118 
L 423.008624 592.85086 
L 425.16633 595.432421 
L 426.964419 598.16769 
L 428.043272 600.148852 
L 429.194049 602.426375 
L 430.200979 604.792971 
L 430.992138 606.76223 
L 432.64638 611.63788 
L 433.941004 616.052143 
L 434.588316 618.50211 
L 435.667169 622.829463 
L 439.910659 641.056697 
L 442.068366 648.731499 
L 443.506837 652.757919 
L 444.657614 655.324532 
L 446.455703 658.633942 
L 448.038021 660.858063 
L 448.397639 661.235753 
L 449.116874 661.980722 
L 449.188798 474.485651 
L 449.260721 474.552295 
L 450.699193 475.77668 
L 451.130734 476.031647 
L 451.921893 476.505449 
L 452.641129 476.83568 
L 454.870759 477.667761 
L 456.740771 477.856884 
L 457.460007 477.858958 
L 458.179242 477.81723 
L 460.121178 477.567209 
L 461.200032 477.312075 
L 461.847344 477.124462 
L 463.861203 476.327529 
L 467.02584 474.482869 
L 467.097763 662.002493 
L 467.169687 661.944748 
L 470.909712 658.788574 
L 471.772795 657.872672 
L 475.297049 653.314619 
L 476.951291 650.673659 
L 478.461685 647.977843 
L 480.044003 644.73552 
L 481.410551 641.671551 
L 482.777099 638.352166 
L 486.948665 627.37337 
L 488.818677 622.481431 
L 488.890601 489.899111 
L 488.962524 550.133746 
L 490.68869 548.112216 
L 493.134091 545.470811 
L 496.15488 542.666238 
L 497.665275 541.457714 
L 501.836841 538.667465 
L 512.121909 532.578731 
L 513.704228 531.406758 
L 515.358469 530.106883 
L 519.673883 525.808411 
L 520.82466 524.323188 
L 523.270061 520.782929 
L 524.636608 518.610446 
L 528.160862 512.401158 
L 533.051664 502.741945 
L 536.432071 496.50393 
L 537.726695 494.366441 
L 539.165166 492.136988 
L 542.833268 487.170517 
L 543.984045 485.826823 
L 545.494439 484.113368 
L 549.234464 480.3903 
L 552.614871 477.364277 
L 554.41296 475.821696 
L 555.995279 474.480464 
L 556.067202 661.968764 
L 556.139126 661.906436 
L 560.310692 658.504884 
L 560.67031 658.218404 
L 560.742233 533.691778 
L 560.814157 580.438861 
L 567.503048 561.857451 
L 570.883455 553.785055 
L 573.904244 547.436168 
L 576.709263 542.249576 
L 582.103529 534.279471 
L 583.254306 532.833665 
L 584.189313 531.730053 
L 587.56972 528.229151 
L 590.087044 525.947269 
L 592.100904 524.297065 
L 593.323604 523.398767 
L 598.645947 519.793721 
L 601.594813 518.153585 
L 605.047144 516.411209 
L 605.766379 516.038851 
L 607.20485 515.314524 
L 608.787169 514.500168 
L 611.520264 512.892957 
L 613.534123 511.149127 
L 614.828747 509.442339 
L 615.619906 507.848018 
L 616.339142 505.863206 
L 616.842607 503.627248 
L 617.274148 501.050951 
L 617.849537 495.392856 
L 618.281078 488.140164 
L 618.712619 476.262142 
L 618.784543 661.405011 
L 618.856467 658.862067 
L 619.719549 633.04302 
L 620.223014 625.368336 
L 620.870326 619.926024 
L 621.301867 617.821688 
L 621.949179 615.566907 
L 623.099956 613.119063 
L 624.250733 611.454427 
L 624.898045 610.76652 
L 626.768058 608.935195 
L 627.774987 608.012443 
L 628.494223 607.375978 
L 630.8677 605.284298 
L 633.672719 602.535202 
L 638.851215 596.407539 
L 641.36854 592.918111 
L 647.913583 583.656553 
L 652.732461 577.582618 
L 654.386703 575.837845 
L 657.479416 572.997075 
L 660.644053 570.696015 
L 661.866753 570.003493 
L 664.24023 568.893974 
L 666.469861 568.156187 
L 669.850268 567.571254 
L 674.381452 568.061446 
L 676.035694 568.561156 
L 677.330318 569.113168 
L 678.840712 569.89231 
L 681.286113 571.45998 
L 684.091132 573.787279 
L 686.752303 576.497674 
L 694.807742 585.962176 
L 698.260072 589.053856 
L 701.352785 590.494667 
L 702.431639 590.70499 
L 704.517422 590.567424 
L 705.380504 590.341691 
L 706.531281 589.826576 
L 707.178593 589.437124 
L 708.113599 588.768553 
L 708.904759 588.139025 
L 710.271306 586.866657 
L 712.141319 584.731859 
L 713.651713 582.820101 
L 717.175968 577.747806 
L 718.758286 575.174806 
L 720.196757 572.701755 
L 721.635228 570.093968 
L 722.929852 567.608825 
L 725.159482 562.954946 
L 727.101418 558.370513 
L 728.252195 555.306665 
L 734.149927 539.719695 
L 737.386487 532.715412 
L 738.105722 531.432404 
L 739.903811 528.598181 
L 741.126512 527.019774 
L 743.643836 524.674976 
L 745.585772 523.471762 
L 747.024243 522.966943 
L 748.750409 522.574139 
L 751.339657 522.595138 
L 752.058892 522.699142 
L 753.42544 523.091255 
L 755.870841 523.998631 
L 756.805847 524.526854 
L 758.100471 525.38566 
L 759.754713 526.761074 
L 762.200114 529.323866 
L 764.213973 531.980811 
L 765.868215 534.670938 
L 767.882075 538.493114 
L 770.543246 544.454207 
L 773.85173 552.819653 
L 776.512901 559.580165 
L 776.584825 500.979777 
L 776.728672 629.925083 
L 778.526761 632.731465 
L 781.116009 636.375036 
L 782.842174 638.473497 
L 784.927957 640.663814 
L 786.582199 642.209453 
L 787.517205 643.019567 
L 788.596059 643.878208 
L 792.192236 646.493566 
L 794.709561 648.243372 
L 800.103828 652.104074 
L 804.850782 656.153578 
L 807.799648 659.129873 
L 809.813508 661.444277 
L 810.245049 661.964982 
L 810.316973 474.492445 
L 810.388896 474.574633 
L 812.402756 477.13411 
L 812.402756 477.13411 
" clip-path="url(#pc5ac988b94)" style="fill: none; stroke-dasharray: 7.4,3.2; stroke-dashoffset: 0; stroke: #ff0000; stroke-width: 2"/>
   </g>
   <g id="patch_15">
    <path d="M 57.280938 671.397812 
L 57.280938 465.077812 
" style="fill: none; stroke: #000000; stroke-width: 0.8; stroke-linejoin: miter; stroke-linecap: square"/>
   </g>
   <g id="patch_16">
    <path d="M 848.360937 671.397812 
L 848.360937 465.077812 
" style="fill: none; stroke: #000000; stroke-width: 0.8; stroke-linejoin: miter; stroke-linecap: square"/>
   </g>
   <g id="patch_17">
    <path d="M 57.280938 671.397812 
L 848.360937 671.397812 
" style="fill: none; stroke: #000000; stroke-width: 0.8; stroke-linejoin: miter; stroke-linecap: square"/>
   </g>
   <g id="patch_18">
    <path d="M 57.280938 465.077812 
L 848.360937 465.077812 
" style="fill: none; stroke: #000000; stroke-width: 0.8; stroke-linejoin: miter; stroke-linecap: square"/>
   </g>
   <g id="legend_3">
    <g id="patch_19">
     <path d="M 64.280938 502.434063 
L 146.798125 502.434063 
Q 148.798125 502.434063 148.798125 500.434063 
L 148.798125 472.077813 
Q 148.798125 470.077813 146.798125 470.077813 
L 64.280938 470.077813 
Q 62.280938 470.077813 62.280938 472.077813 
L 62.280938 500.434063 
Q 62.280938 502.434063 64.280938 502.434063 
z
" style="fill: #ffffff; opacity: 0.8; stroke: #cccccc; stroke-linejoin: miter"/>
    </g>
    <g id="line2d_89">
     <path d="M 66.280938 478.17625 
L 76.280938 478.17625 
L 86.280938 478.17625 
" style="fill: none; stroke: #000000; stroke-width: 2; stroke-linecap: square"/>
    </g>
    <g id="text_37">
     <!-- True -->
     <g transform="translate(94.280938 481.67625) scale(0.1 -0.1)">
      <use xlink:href="#DejaVuSans-54"/>
      <use xlink:href="#DejaVuSans-72" transform="translate(46.333984 0)"/>
      <use xlink:href="#DejaVuSans-75" transform="translate(87.447266 0)"/>
      <use xlink:href="#DejaVuSans-65" transform="translate(150.826172 0)"/>
     </g>
    </g>
    <g id="line2d_90">
     <path d="M 66.280938 492.854375 
L 76.280938 492.854375 
L 86.280938 492.854375 
" style="fill: none; stroke-dasharray: 7.4,3.2; stroke-dashoffset: 0; stroke: #ff0000; stroke-width: 2"/>
    </g>
    <g id="text_38">
     <!-- Estimated -->
     <g transform="translate(94.280938 496.354375) scale(0.1 -0.1)">
      <use xlink:href="#DejaVuSans-45"/>
      <use xlink:href="#DejaVuSans-73" transform="translate(63.183594 0)"/>
      <use xlink:href="#DejaVuSans-74" transform="translate(115.283203 0)"/>
      <use xlink:href="#DejaVuSans-69" transform="translate(154.492188 0)"/>
      <use xlink:href="#DejaVuSans-6d" transform="translate(182.275391 0)"/>
      <use xlink:href="#DejaVuSans-61" transform="translate(279.6875 0)"/>
      <use xlink:href="#DejaVuSans-74" transform="translate(340.966797 0)"/>
      <use xlink:href="#DejaVuSans-65" transform="translate(380.175781 0)"/>
      <use xlink:href="#DejaVuSans-64" transform="translate(441.699219 0)"/>
     </g>
    </g>
   </g>
  </g>
 </g>
 <defs>
  <clipPath id="p347a62c173">
   <rect x="57.280938" y="23.837812" width="791.08" height="206.32"/>
  </clipPath>
  <clipPath id="p4323c4da44">
   <rect x="57.280938" y="244.457813" width="791.08" height="206.32"/>
  </clipPath>
  <clipPath id="pc5ac988b94">
   <rect x="57.280938" y="465.077813" width="791.08" height="206.32"/>
  </clipPath>
 </defs>
</svg>
