<?xml version="1.0" encoding="utf-8" standalone="no"?>
<!DOCTYPE svg PUBLIC "-//W3C//DTD SVG 1.1//EN"
  "http://www.w3.org/Graphics/SVG/1.1/DTD/svg11.dtd">
<svg xmlns:xlink="http://www.w3.org/1999/xlink" width="855.46125pt" height="422.889687pt" viewBox="0 0 855.46125 422.889687" xmlns="http://www.w3.org/2000/svg" version="1.1">
 <metadata>
  <rdf:RDF xmlns:dc="http://purl.org/dc/elements/1.1/" xmlns:cc="http://creativecommons.org/ns#" xmlns:rdf="http://www.w3.org/1999/02/22-rdf-syntax-ns#">
   <cc:Work>
    <dc:type rdf:resource="http://purl.org/dc/dcmitype/StillImage"/>
    <dc:date>2025-12-25T11:20:13.994160</dc:date>
    <dc:format>image/svg+xml</dc:format>
    <dc:creator>
     <cc:Agent>
      <dc:title>Matplotlib v3.10.7, https://matplotlib.org/</dc:title>
     </cc:Agent>
    </dc:creator>
   </cc:Work>
  </rdf:RDF>
 </metadata>
 <defs>
  <style type="text/css">*{stroke-linejoin: round; stroke-linecap: butt}</style>
 </defs>
 <g id="figure_1">
  <g id="patch_1">
   <path d="M 0 422.889687 
L 855.46125 422.889687 
L 855.46125 0 
L 0 0 
z
" style="fill: #ffffff"/>
  </g>
  <g id="axes_1">
   <g id="patch_2">
    <path d="M 48.90125 383.397812 
L 848.26125 383.397812 
L 848.26125 23.837812 
L 48.90125 23.837812 
z
" style="fill: #ffffff"/>
   </g>
   <g id="matplotlib.axis_1">
    <g id="xtick_1">
     <g id="line2d_1">
      <path d="M 48.90125 383.397812 
L 48.90125 23.837812 
" clip-path="url(#pb90d0e470c)" style="fill: none; stroke: #b0b0b0; stroke-opacity: 0.3; stroke-width: 0.8; stroke-linecap: square"/>
     </g>
     <g id="line2d_2">
      <defs>
       <path id="m69ea08530d" d="M 0 0 
L 0 3.5 
" style="stroke: #000000; stroke-width: 0.8"/>
      </defs>
      <g>
       <use xlink:href="#m69ea08530d" x="48.90125" y="383.397812" style="stroke: #000000; stroke-width: 0.8"/>
      </g>
     </g>
     <g id="text_1">
      <!-- 0 -->
      <g transform="translate(45.72 397.99625) scale(0.1 -0.1)">
       <defs>
        <path id="DejaVuSans-30" d="M 2034 4250 
Q 1547 4250 1301 3770 
Q 1056 3291 1056 2328 
Q 1056 1369 1301 889 
Q 1547 409 2034 409 
Q 2525 409 2770 889 
Q 3016 1369 3016 2328 
Q 3016 3291 2770 3770 
Q 2525 4250 2034 4250 
z
M 2034 4750 
Q 2819 4750 3233 4129 
Q 3647 3509 3647 2328 
Q 3647 1150 3233 529 
Q 2819 -91 2034 -91 
Q 1250 -91 836 529 
Q 422 1150 422 2328 
Q 422 3509 836 4129 
Q 1250 4750 2034 4750 
z
" transform="scale(0.015625)"/>
       </defs>
       <use xlink:href="#DejaVuSans-30"/>
      </g>
     </g>
    </g>
    <g id="xtick_2">
     <g id="line2d_3">
      <path d="M 182.13902 383.397812 
L 182.13902 23.837812 
" clip-path="url(#pb90d0e470c)" style="fill: none; stroke: #b0b0b0; stroke-opacity: 0.3; stroke-width: 0.8; stroke-linecap: square"/>
     </g>
     <g id="line2d_4">
      <g>
       <use xlink:href="#m69ea08530d" x="182.13902" y="383.397812" style="stroke: #000000; stroke-width: 0.8"/>
      </g>
     </g>
     <g id="text_2">
      <!-- 20 -->
      <g transform="translate(175.77652 397.99625) scale(0.1 -0.1)">
       <defs>
        <path id="DejaVuSans-32" d="M 1228 531 
L 3431 531 
L 3431 0 
L 469 0 
L 469 531 
Q 828 903 1448 1529 
Q 2069 2156 2228 2338 
Q 2531 2678 2651 2914 
Q 2772 3150 2772 3378 
Q 2772 3750 2511 3984 
Q 2250 4219 1831 4219 
Q 1534 4219 1204 4116 
Q 875 4013 500 3803 
L 500 4441 
Q 881 4594 1212 4672 
Q 1544 4750 1819 4750 
Q 2544 4750 2975 4387 
Q 3406 4025 3406 3419 
Q 3406 3131 3298 2873 
Q 3191 2616 2906 2266 
Q 2828 2175 2409 1742 
Q 1991 1309 1228 531 
z
" transform="scale(0.015625)"/>
       </defs>
       <use xlink:href="#DejaVuSans-32"/>
       <use xlink:href="#DejaVuSans-30" transform="translate(63.623047 0)"/>
      </g>
     </g>
    </g>
    <g id="xtick_3">
     <g id="line2d_5">
      <path d="M 315.37679 383.397812 
L 315.37679 23.837812 
" clip-path="url(#pb90d0e470c)" style="fill: none; stroke: #b0b0b0; stroke-opacity: 0.3; stroke-width: 0.8; stroke-linecap: square"/>
     </g>
     <g id="line2d_6">
      <g>
       <use xlink:href="#m69ea08530d" x="315.37679" y="383.397812" style="stroke: #000000; stroke-width: 0.8"/>
      </g>
     </g>
     <g id="text_3">
      <!-- 40 -->
      <g transform="translate(309.01429 397.99625) scale(0.1 -0.1)">
       <defs>
        <path id="DejaVuSans-34" d="M 2419 4116 
L 825 1625 
L 2419 1625 
L 2419 4116 
z
M 2253 4666 
L 3047 4666 
L 3047 1625 
L 3713 1625 
L 3713 1100 
L 3047 1100 
L 3047 0 
L 2419 0 
L 2419 1100 
L 313 1100 
L 313 1709 
L 2253 4666 
z
" transform="scale(0.015625)"/>
       </defs>
       <use xlink:href="#DejaVuSans-34"/>
       <use xlink:href="#DejaVuSans-30" transform="translate(63.623047 0)"/>
      </g>
     </g>
    </g>
    <g id="xtick_4">
     <g id="line2d_7">
      <path d="M 448.614559 383.397812 
L 448.614559 23.837812 
" clip-path="url(#pb90d0e470c)" style="fill: none; stroke: #b0b0b0; stroke-opacity: 0.3; stroke-width: 0.8; stroke-linecap: square"/>
     </g>
     <g id="line2d_8">
      <g>
       <use xlink:href="#m69ea08530d" x="448.614559" y="383.397812" style="stroke: #000000; stroke-width: 0.8"/>
      </g>
     </g>
     <g id="text_4">
      <!-- 60 -->
      <g transform="translate(442.252059 397.99625) scale(0.1 -0.1)">
       <defs>
        <path id="DejaVuSans-36" d="M 2113 2584 
Q 1688 2584 1439 2293 
Q 1191 2003 1191 1497 
Q 1191 994 1439 701 
Q 1688 409 2113 409 
Q 2538 409 2786 701 
Q 3034 994 3034 1497 
Q 3034 2003 2786 2293 
Q 2538 2584 2113 2584 
z
M 3366 4563 
L 3366 3988 
Q 3128 4100 2886 4159 
Q 2644 4219 2406 4219 
Q 1781 4219 1451 3797 
Q 1122 3375 1075 2522 
Q 1259 2794 1537 2939 
Q 1816 3084 2150 3084 
Q 2853 3084 3261 2657 
Q 3669 2231 3669 1497 
Q 3669 778 3244 343 
Q 2819 -91 2113 -91 
Q 1303 -91 875 529 
Q 447 1150 447 2328 
Q 447 3434 972 4092 
Q 1497 4750 2381 4750 
Q 2619 4750 2861 4703 
Q 3103 4656 3366 4563 
z
" transform="scale(0.015625)"/>
       </defs>
       <use xlink:href="#DejaVuSans-36"/>
       <use xlink:href="#DejaVuSans-30" transform="translate(63.623047 0)"/>
      </g>
     </g>
    </g>
    <g id="xtick_5">
     <g id="line2d_9">
      <path d="M 581.852329 383.397812 
L 581.852329 23.837812 
" clip-path="url(#pb90d0e470c)" style="fill: none; stroke: #b0b0b0; stroke-opacity: 0.3; stroke-width: 0.8; stroke-linecap: square"/>
     </g>
     <g id="line2d_10">
      <g>
       <use xlink:href="#m69ea08530d" x="581.852329" y="383.397812" style="stroke: #000000; stroke-width: 0.8"/>
      </g>
     </g>
     <g id="text_5">
      <!-- 80 -->
      <g transform="translate(575.489829 397.99625) scale(0.1 -0.1)">
       <defs>
        <path id="DejaVuSans-38" d="M 2034 2216 
Q 1584 2216 1326 1975 
Q 1069 1734 1069 1313 
Q 1069 891 1326 650 
Q 1584 409 2034 409 
Q 2484 409 2743 651 
Q 3003 894 3003 1313 
Q 3003 1734 2745 1975 
Q 2488 2216 2034 2216 
z
M 1403 2484 
Q 997 2584 770 2862 
Q 544 3141 544 3541 
Q 544 4100 942 4425 
Q 1341 4750 2034 4750 
Q 2731 4750 3128 4425 
Q 3525 4100 3525 3541 
Q 3525 3141 3298 2862 
Q 3072 2584 2669 2484 
Q 3125 2378 3379 2068 
Q 3634 1759 3634 1313 
Q 3634 634 3220 271 
Q 2806 -91 2034 -91 
Q 1263 -91 848 271 
Q 434 634 434 1313 
Q 434 1759 690 2068 
Q 947 2378 1403 2484 
z
M 1172 3481 
Q 1172 3119 1398 2916 
Q 1625 2713 2034 2713 
Q 2441 2713 2670 2916 
Q 2900 3119 2900 3481 
Q 2900 3844 2670 4047 
Q 2441 4250 2034 4250 
Q 1625 4250 1398 4047 
Q 1172 3844 1172 3481 
z
" transform="scale(0.015625)"/>
       </defs>
       <use xlink:href="#DejaVuSans-38"/>
       <use xlink:href="#DejaVuSans-30" transform="translate(63.623047 0)"/>
      </g>
     </g>
    </g>
    <g id="xtick_6">
     <g id="line2d_11">
      <path d="M 715.090099 383.397812 
L 715.090099 23.837812 
" clip-path="url(#pb90d0e470c)" style="fill: none; stroke: #b0b0b0; stroke-opacity: 0.3; stroke-width: 0.8; stroke-linecap: square"/>
     </g>
     <g id="line2d_12">
      <g>
       <use xlink:href="#m69ea08530d" x="715.090099" y="383.397812" style="stroke: #000000; stroke-width: 0.8"/>
      </g>
     </g>
     <g id="text_6">
      <!-- 100 -->
      <g transform="translate(705.546349 397.99625) scale(0.1 -0.1)">
       <defs>
        <path id="DejaVuSans-31" d="M 794 531 
L 1825 531 
L 1825 4091 
L 703 3866 
L 703 4441 
L 1819 4666 
L 2450 4666 
L 2450 531 
L 3481 531 
L 3481 0 
L 794 0 
L 794 531 
z
" transform="scale(0.015625)"/>
       </defs>
       <use xlink:href="#DejaVuSans-31"/>
       <use xlink:href="#DejaVuSans-30" transform="translate(63.623047 0)"/>
       <use xlink:href="#DejaVuSans-30" transform="translate(127.246094 0)"/>
      </g>
     </g>
    </g>
    <g id="text_7">
     <!-- Time [s] -->
     <g transform="translate(424.186563 413.194062) scale(0.12 -0.12)">
      <defs>
       <path id="DejaVuSans-54" d="M -19 4666 
L 3928 4666 
L 3928 4134 
L 2272 4134 
L 2272 0 
L 1638 0 
L 1638 4134 
L -19 4134 
L -19 4666 
z
" transform="scale(0.015625)"/>
       <path id="DejaVuSans-69" d="M 603 3500 
L 1178 3500 
L 1178 0 
L 603 0 
L 603 3500 
z
M 603 4863 
L 1178 4863 
L 1178 4134 
L 603 4134 
L 603 4863 
z
" transform="scale(0.015625)"/>
       <path id="DejaVuSans-6d" d="M 3328 2828 
Q 3544 3216 3844 3400 
Q 4144 3584 4550 3584 
Q 5097 3584 5394 3201 
Q 5691 2819 5691 2113 
L 5691 0 
L 5113 0 
L 5113 2094 
Q 5113 2597 4934 2840 
Q 4756 3084 4391 3084 
Q 3944 3084 3684 2787 
Q 3425 2491 3425 1978 
L 3425 0 
L 2847 0 
L 2847 2094 
Q 2847 2600 2669 2842 
Q 2491 3084 2119 3084 
Q 1678 3084 1418 2786 
Q 1159 2488 1159 1978 
L 1159 0 
L 581 0 
L 581 3500 
L 1159 3500 
L 1159 2956 
Q 1356 3278 1631 3431 
Q 1906 3584 2284 3584 
Q 2666 3584 2933 3390 
Q 3200 3197 3328 2828 
z
" transform="scale(0.015625)"/>
       <path id="DejaVuSans-65" d="M 3597 1894 
L 3597 1613 
L 953 1613 
Q 991 1019 1311 708 
Q 1631 397 2203 397 
Q 2534 397 2845 478 
Q 3156 559 3463 722 
L 3463 178 
Q 3153 47 2828 -22 
Q 2503 -91 2169 -91 
Q 1331 -91 842 396 
Q 353 884 353 1716 
Q 353 2575 817 3079 
Q 1281 3584 2069 3584 
Q 2775 3584 3186 3129 
Q 3597 2675 3597 1894 
z
M 3022 2063 
Q 3016 2534 2758 2815 
Q 2500 3097 2075 3097 
Q 1594 3097 1305 2825 
Q 1016 2553 972 2059 
L 3022 2063 
z
" transform="scale(0.015625)"/>
       <path id="DejaVuSans-20" transform="scale(0.015625)"/>
       <path id="DejaVuSans-5b" d="M 550 4863 
L 1875 4863 
L 1875 4416 
L 1125 4416 
L 1125 -397 
L 1875 -397 
L 1875 -844 
L 550 -844 
L 550 4863 
z
" transform="scale(0.015625)"/>
       <path id="DejaVuSans-73" d="M 2834 3397 
L 2834 2853 
Q 2591 2978 2328 3040 
Q 2066 3103 1784 3103 
Q 1356 3103 1142 2972 
Q 928 2841 928 2578 
Q 928 2378 1081 2264 
Q 1234 2150 1697 2047 
L 1894 2003 
Q 2506 1872 2764 1633 
Q 3022 1394 3022 966 
Q 3022 478 2636 193 
Q 2250 -91 1575 -91 
Q 1294 -91 989 -36 
Q 684 19 347 128 
L 347 722 
Q 666 556 975 473 
Q 1284 391 1588 391 
Q 1994 391 2212 530 
Q 2431 669 2431 922 
Q 2431 1156 2273 1281 
Q 2116 1406 1581 1522 
L 1381 1569 
Q 847 1681 609 1914 
Q 372 2147 372 2553 
Q 372 3047 722 3315 
Q 1072 3584 1716 3584 
Q 2034 3584 2315 3537 
Q 2597 3491 2834 3397 
z
" transform="scale(0.015625)"/>
       <path id="DejaVuSans-5d" d="M 1947 4863 
L 1947 -844 
L 622 -844 
L 622 -397 
L 1369 -397 
L 1369 4416 
L 622 4416 
L 622 4863 
L 1947 4863 
z
" transform="scale(0.015625)"/>
      </defs>
      <use xlink:href="#DejaVuSans-54"/>
      <use xlink:href="#DejaVuSans-69" transform="translate(57.958984 0)"/>
      <use xlink:href="#DejaVuSans-6d" transform="translate(85.742188 0)"/>
      <use xlink:href="#DejaVuSans-65" transform="translate(183.154297 0)"/>
      <use xlink:href="#DejaVuSans-20" transform="translate(244.677734 0)"/>
      <use xlink:href="#DejaVuSans-5b" transform="translate(276.464844 0)"/>
      <use xlink:href="#DejaVuSans-73" transform="translate(315.478516 0)"/>
      <use xlink:href="#DejaVuSans-5d" transform="translate(367.578125 0)"/>
     </g>
    </g>
   </g>
   <g id="matplotlib.axis_2">
    <g id="ytick_1">
     <g id="line2d_13">
      <path d="M 48.90125 367.054176 
L 848.26125 367.054176 
" clip-path="url(#pb90d0e470c)" style="fill: none; stroke: #b0b0b0; stroke-opacity: 0.3; stroke-width: 0.8; stroke-linecap: square"/>
     </g>
     <g id="line2d_14">
      <defs>
       <path id="mde8ab2aa15" d="M 0 0 
L -3.5 0 
" style="stroke: #000000; stroke-width: 0.8"/>
      </defs>
      <g>
       <use xlink:href="#mde8ab2aa15" x="48.90125" y="367.054176" style="stroke: #000000; stroke-width: 0.8"/>
      </g>
     </g>
     <g id="text_8">
      <!-- 0 -->
      <g transform="translate(35.53875 370.853395) scale(0.1 -0.1)">
       <use xlink:href="#DejaVuSans-30"/>
      </g>
     </g>
    </g>
    <g id="ytick_2">
     <g id="line2d_15">
      <path d="M 48.90125 325.198004 
L 848.26125 325.198004 
" clip-path="url(#pb90d0e470c)" style="fill: none; stroke: #b0b0b0; stroke-opacity: 0.3; stroke-width: 0.8; stroke-linecap: square"/>
     </g>
     <g id="line2d_16">
      <g>
       <use xlink:href="#mde8ab2aa15" x="48.90125" y="325.198004" style="stroke: #000000; stroke-width: 0.8"/>
      </g>
     </g>
     <g id="text_9">
      <!-- 20 -->
      <g transform="translate(29.17625 328.997223) scale(0.1 -0.1)">
       <use xlink:href="#DejaVuSans-32"/>
       <use xlink:href="#DejaVuSans-30" transform="translate(63.623047 0)"/>
      </g>
     </g>
    </g>
    <g id="ytick_3">
     <g id="line2d_17">
      <path d="M 48.90125 283.341833 
L 848.26125 283.341833 
" clip-path="url(#pb90d0e470c)" style="fill: none; stroke: #b0b0b0; stroke-opacity: 0.3; stroke-width: 0.8; stroke-linecap: square"/>
     </g>
     <g id="line2d_18">
      <g>
       <use xlink:href="#mde8ab2aa15" x="48.90125" y="283.341833" style="stroke: #000000; stroke-width: 0.8"/>
      </g>
     </g>
     <g id="text_10">
      <!-- 40 -->
      <g transform="translate(29.17625 287.141051) scale(0.1 -0.1)">
       <use xlink:href="#DejaVuSans-34"/>
       <use xlink:href="#DejaVuSans-30" transform="translate(63.623047 0)"/>
      </g>
     </g>
    </g>
    <g id="ytick_4">
     <g id="line2d_19">
      <path d="M 48.90125 241.485661 
L 848.26125 241.485661 
" clip-path="url(#pb90d0e470c)" style="fill: none; stroke: #b0b0b0; stroke-opacity: 0.3; stroke-width: 0.8; stroke-linecap: square"/>
     </g>
     <g id="line2d_20">
      <g>
       <use xlink:href="#mde8ab2aa15" x="48.90125" y="241.485661" style="stroke: #000000; stroke-width: 0.8"/>
      </g>
     </g>
     <g id="text_11">
      <!-- 60 -->
      <g transform="translate(29.17625 245.28488) scale(0.1 -0.1)">
       <use xlink:href="#DejaVuSans-36"/>
       <use xlink:href="#DejaVuSans-30" transform="translate(63.623047 0)"/>
      </g>
     </g>
    </g>
    <g id="ytick_5">
     <g id="line2d_21">
      <path d="M 48.90125 199.629489 
L 848.26125 199.629489 
" clip-path="url(#pb90d0e470c)" style="fill: none; stroke: #b0b0b0; stroke-opacity: 0.3; stroke-width: 0.8; stroke-linecap: square"/>
     </g>
     <g id="line2d_22">
      <g>
       <use xlink:href="#mde8ab2aa15" x="48.90125" y="199.629489" style="stroke: #000000; stroke-width: 0.8"/>
      </g>
     </g>
     <g id="text_12">
      <!-- 80 -->
      <g transform="translate(29.17625 203.428708) scale(0.1 -0.1)">
       <use xlink:href="#DejaVuSans-38"/>
       <use xlink:href="#DejaVuSans-30" transform="translate(63.623047 0)"/>
      </g>
     </g>
    </g>
    <g id="ytick_6">
     <g id="line2d_23">
      <path d="M 48.90125 157.773317 
L 848.26125 157.773317 
" clip-path="url(#pb90d0e470c)" style="fill: none; stroke: #b0b0b0; stroke-opacity: 0.3; stroke-width: 0.8; stroke-linecap: square"/>
     </g>
     <g id="line2d_24">
      <g>
       <use xlink:href="#mde8ab2aa15" x="48.90125" y="157.773317" style="stroke: #000000; stroke-width: 0.8"/>
      </g>
     </g>
     <g id="text_13">
      <!-- 100 -->
      <g transform="translate(22.81375 161.572536) scale(0.1 -0.1)">
       <use xlink:href="#DejaVuSans-31"/>
       <use xlink:href="#DejaVuSans-30" transform="translate(63.623047 0)"/>
       <use xlink:href="#DejaVuSans-30" transform="translate(127.246094 0)"/>
      </g>
     </g>
    </g>
    <g id="ytick_7">
     <g id="line2d_25">
      <path d="M 48.90125 115.917146 
L 848.26125 115.917146 
" clip-path="url(#pb90d0e470c)" style="fill: none; stroke: #b0b0b0; stroke-opacity: 0.3; stroke-width: 0.8; stroke-linecap: square"/>
     </g>
     <g id="line2d_26">
      <g>
       <use xlink:href="#mde8ab2aa15" x="48.90125" y="115.917146" style="stroke: #000000; stroke-width: 0.8"/>
      </g>
     </g>
     <g id="text_14">
      <!-- 120 -->
      <g transform="translate(22.81375 119.716364) scale(0.1 -0.1)">
       <use xlink:href="#DejaVuSans-31"/>
       <use xlink:href="#DejaVuSans-32" transform="translate(63.623047 0)"/>
       <use xlink:href="#DejaVuSans-30" transform="translate(127.246094 0)"/>
      </g>
     </g>
    </g>
    <g id="ytick_8">
     <g id="line2d_27">
      <path d="M 48.90125 74.060974 
L 848.26125 74.060974 
" clip-path="url(#pb90d0e470c)" style="fill: none; stroke: #b0b0b0; stroke-opacity: 0.3; stroke-width: 0.8; stroke-linecap: square"/>
     </g>
     <g id="line2d_28">
      <g>
       <use xlink:href="#mde8ab2aa15" x="48.90125" y="74.060974" style="stroke: #000000; stroke-width: 0.8"/>
      </g>
     </g>
     <g id="text_15">
      <!-- 140 -->
      <g transform="translate(22.81375 77.860193) scale(0.1 -0.1)">
       <use xlink:href="#DejaVuSans-31"/>
       <use xlink:href="#DejaVuSans-34" transform="translate(63.623047 0)"/>
       <use xlink:href="#DejaVuSans-30" transform="translate(127.246094 0)"/>
      </g>
     </g>
    </g>
    <g id="ytick_9">
     <g id="line2d_29">
      <path d="M 48.90125 32.204802 
L 848.26125 32.204802 
" clip-path="url(#pb90d0e470c)" style="fill: none; stroke: #b0b0b0; stroke-opacity: 0.3; stroke-width: 0.8; stroke-linecap: square"/>
     </g>
     <g id="line2d_30">
      <g>
       <use xlink:href="#mde8ab2aa15" x="48.90125" y="32.204802" style="stroke: #000000; stroke-width: 0.8"/>
      </g>
     </g>
     <g id="text_16">
      <!-- 160 -->
      <g transform="translate(22.81375 36.004021) scale(0.1 -0.1)">
       <use xlink:href="#DejaVuSans-31"/>
       <use xlink:href="#DejaVuSans-36" transform="translate(63.623047 0)"/>
       <use xlink:href="#DejaVuSans-30" transform="translate(127.246094 0)"/>
      </g>
     </g>
    </g>
    <g id="text_17">
     <!-- Position Error [m] -->
     <g transform="translate(16.318125 255.936875) rotate(-90) scale(0.12 -0.12)">
      <defs>
       <path id="DejaVuSans-50" d="M 1259 4147 
L 1259 2394 
L 2053 2394 
Q 2494 2394 2734 2622 
Q 2975 2850 2975 3272 
Q 2975 3691 2734 3919 
Q 2494 4147 2053 4147 
L 1259 4147 
z
M 628 4666 
L 2053 4666 
Q 2838 4666 3239 4311 
Q 3641 3956 3641 3272 
Q 3641 2581 3239 2228 
Q 2838 1875 2053 1875 
L 1259 1875 
L 1259 0 
L 628 0 
L 628 4666 
z
" transform="scale(0.015625)"/>
       <path id="DejaVuSans-6f" d="M 1959 3097 
Q 1497 3097 1228 2736 
Q 959 2375 959 1747 
Q 959 1119 1226 758 
Q 1494 397 1959 397 
Q 2419 397 2687 759 
Q 2956 1122 2956 1747 
Q 2956 2369 2687 2733 
Q 2419 3097 1959 3097 
z
M 1959 3584 
Q 2709 3584 3137 3096 
Q 3566 2609 3566 1747 
Q 3566 888 3137 398 
Q 2709 -91 1959 -91 
Q 1206 -91 779 398 
Q 353 888 353 1747 
Q 353 2609 779 3096 
Q 1206 3584 1959 3584 
z
" transform="scale(0.015625)"/>
       <path id="DejaVuSans-74" d="M 1172 4494 
L 1172 3500 
L 2356 3500 
L 2356 3053 
L 1172 3053 
L 1172 1153 
Q 1172 725 1289 603 
Q 1406 481 1766 481 
L 2356 481 
L 2356 0 
L 1766 0 
Q 1100 0 847 248 
Q 594 497 594 1153 
L 594 3053 
L 172 3053 
L 172 3500 
L 594 3500 
L 594 4494 
L 1172 4494 
z
" transform="scale(0.015625)"/>
       <path id="DejaVuSans-6e" d="M 3513 2113 
L 3513 0 
L 2938 0 
L 2938 2094 
Q 2938 2591 2744 2837 
Q 2550 3084 2163 3084 
Q 1697 3084 1428 2787 
Q 1159 2491 1159 1978 
L 1159 0 
L 581 0 
L 581 3500 
L 1159 3500 
L 1159 2956 
Q 1366 3272 1645 3428 
Q 1925 3584 2291 3584 
Q 2894 3584 3203 3211 
Q 3513 2838 3513 2113 
z
" transform="scale(0.015625)"/>
       <path id="DejaVuSans-45" d="M 628 4666 
L 3578 4666 
L 3578 4134 
L 1259 4134 
L 1259 2753 
L 3481 2753 
L 3481 2222 
L 1259 2222 
L 1259 531 
L 3634 531 
L 3634 0 
L 628 0 
L 628 4666 
z
" transform="scale(0.015625)"/>
       <path id="DejaVuSans-72" d="M 2631 2963 
Q 2534 3019 2420 3045 
Q 2306 3072 2169 3072 
Q 1681 3072 1420 2755 
Q 1159 2438 1159 1844 
L 1159 0 
L 581 0 
L 581 3500 
L 1159 3500 
L 1159 2956 
Q 1341 3275 1631 3429 
Q 1922 3584 2338 3584 
Q 2397 3584 2469 3576 
Q 2541 3569 2628 3553 
L 2631 2963 
z
" transform="scale(0.015625)"/>
      </defs>
      <use xlink:href="#DejaVuSans-50"/>
      <use xlink:href="#DejaVuSans-6f" transform="translate(56.677734 0)"/>
      <use xlink:href="#DejaVuSans-73" transform="translate(117.859375 0)"/>
      <use xlink:href="#DejaVuSans-69" transform="translate(169.958984 0)"/>
      <use xlink:href="#DejaVuSans-74" transform="translate(197.742188 0)"/>
      <use xlink:href="#DejaVuSans-69" transform="translate(236.951172 0)"/>
      <use xlink:href="#DejaVuSans-6f" transform="translate(264.734375 0)"/>
      <use xlink:href="#DejaVuSans-6e" transform="translate(325.916016 0)"/>
      <use xlink:href="#DejaVuSans-20" transform="translate(389.294922 0)"/>
      <use xlink:href="#DejaVuSans-45" transform="translate(421.082031 0)"/>
      <use xlink:href="#DejaVuSans-72" transform="translate(484.265625 0)"/>
      <use xlink:href="#DejaVuSans-72" transform="translate(523.628906 0)"/>
      <use xlink:href="#DejaVuSans-6f" transform="translate(562.492188 0)"/>
      <use xlink:href="#DejaVuSans-72" transform="translate(623.673828 0)"/>
      <use xlink:href="#DejaVuSans-20" transform="translate(664.787109 0)"/>
      <use xlink:href="#DejaVuSans-5b" transform="translate(696.574219 0)"/>
      <use xlink:href="#DejaVuSans-6d" transform="translate(735.587891 0)"/>
      <use xlink:href="#DejaVuSans-5d" transform="translate(833 0)"/>
     </g>
    </g>
   </g>
   <g id="line2d_31">
    <path d="M 48.90125 367.054176 
L 51.366149 365.970101 
L 51.432768 365.152945 
L 51.499387 365.182244 
L 54.697093 366.588612 
L 54.763712 363.603306 
L 54.830331 363.632605 
L 58.028037 365.038973 
L 58.094656 362.053667 
L 58.161275 362.082966 
L 61.358981 363.489334 
L 61.4256 360.504028 
L 61.492219 360.533327 
L 64.689926 361.939694 
L 64.756545 358.954389 
L 64.823163 358.983688 
L 68.02087 360.390055 
L 68.087489 357.404749 
L 68.154108 357.434049 
L 71.351814 358.840416 
L 71.418433 355.85511 
L 71.485052 355.88441 
L 74.682758 357.290777 
L 74.749377 354.305471 
L 74.815996 354.33477 
L 78.013703 355.741138 
L 78.080322 352.755832 
L 78.14694 352.785131 
L 81.344647 354.191498 
L 81.411266 351.206193 
L 81.477885 351.235492 
L 84.675591 352.641859 
L 84.74221 349.656553 
L 84.808829 349.685853 
L 88.006535 351.09222 
L 88.073154 348.106914 
L 88.139773 348.136213 
L 91.33748 349.54258 
L 91.404099 346.557274 
L 91.470717 346.586574 
L 94.668424 347.992941 
L 94.735043 345.007635 
L 94.801662 345.036934 
L 97.999368 346.443301 
L 98.065987 343.457995 
L 98.132606 343.487294 
L 101.330312 344.893661 
L 101.396931 341.908355 
L 101.46355 341.937655 
L 104.661257 343.344021 
L 104.727876 340.358716 
L 104.794494 340.388015 
L 107.992201 341.794381 
L 108.05882 338.809076 
L 108.125439 338.838375 
L 111.323145 340.244741 
L 111.389764 337.259436 
L 111.456383 337.288735 
L 114.654089 338.695101 
L 114.720708 335.709796 
L 114.787327 335.739095 
L 117.985034 337.145461 
L 118.051653 334.160156 
L 118.118271 334.189455 
L 121.315978 335.595821 
L 121.382597 332.610516 
L 121.449216 332.639815 
L 124.646922 334.046181 
L 124.713541 331.060876 
L 124.78016 331.090175 
L 127.977866 332.496541 
L 128.044485 329.511236 
L 128.111104 329.540535 
L 131.308811 330.946901 
L 131.37543 327.961596 
L 131.442048 327.990895 
L 134.639755 329.397261 
L 134.706374 326.411956 
L 134.772993 326.441255 
L 137.970699 327.847622 
L 138.037318 324.862316 
L 138.103937 324.891615 
L 141.301643 326.297982 
L 141.368262 323.312676 
L 141.434881 323.341975 
L 144.632588 324.748341 
L 144.699206 321.763036 
L 144.765825 321.792335 
L 147.963532 323.198701 
L 148.030151 320.213396 
L 148.09677 320.242695 
L 151.294476 321.649061 
L 151.361095 318.663756 
L 151.427714 318.693055 
L 154.62542 320.099421 
L 154.692039 317.114116 
L 154.758658 317.143415 
L 157.956365 318.549781 
L 158.022983 315.564476 
L 158.089602 315.593775 
L 161.287309 317.000141 
L 161.353928 314.014836 
L 161.420547 314.044135 
L 164.618253 315.450501 
L 164.684872 312.465196 
L 164.751491 312.494495 
L 167.949197 313.900861 
L 168.015816 310.915555 
L 168.082435 310.944855 
L 171.280142 312.351221 
L 171.34676 309.365915 
L 171.413379 309.395215 
L 174.611086 310.801581 
L 174.677705 307.816275 
L 174.744324 307.845575 
L 177.94203 309.251941 
L 178.008649 306.266635 
L 178.075268 306.295934 
L 181.272974 307.7023 
L 181.339593 304.716995 
L 181.406212 304.746294 
L 184.603919 306.15266 
L 184.670537 303.167355 
L 184.737156 303.196654 
L 187.934863 304.60302 
L 188.001482 301.617715 
L 188.068101 301.647014 
L 191.265807 303.05338 
L 191.332426 300.068075 
L 191.399045 300.097374 
L 194.596751 301.50374 
L 194.66337 298.518435 
L 194.729989 298.547734 
L 197.927696 299.9541 
L 197.994314 296.968795 
L 198.060933 296.998094 
L 201.25864 298.40446 
L 201.325259 295.419155 
L 201.391878 295.448454 
L 204.589584 296.85482 
L 204.656203 293.869515 
L 204.722822 293.898815 
L 207.920528 295.305181 
L 207.987147 292.319875 
L 208.053766 292.349175 
L 211.251473 293.755541 
L 211.318091 290.770235 
L 211.38471 290.799534 
L 214.582417 292.2059 
L 214.649036 289.220595 
L 214.715655 289.249894 
L 217.913361 290.65626 
L 217.97998 287.670954 
L 218.046599 287.700254 
L 221.244305 289.106619 
L 221.310924 286.121314 
L 221.377543 286.150613 
L 224.575249 287.556979 
L 224.641868 284.571673 
L 224.708487 284.600972 
L 227.906194 286.007338 
L 227.972813 283.022032 
L 228.039432 283.051332 
L 231.237138 284.457697 
L 231.303757 281.472392 
L 231.370376 281.501691 
L 234.568082 282.908057 
L 234.634701 279.922751 
L 234.70132 279.95205 
L 239.231404 281.944402 
L 239.364642 279.15573 
L 244.560915 279.128176 
L 244.694153 278.735204 
L 247.891859 278.730626 
L 248.025097 278.248457 
L 251.222803 278.26787 
L 251.356041 277.735912 
L 254.553748 277.779049 
L 254.686985 277.198484 
L 257.884692 277.265062 
L 258.01793 276.63656 
L 261.215636 276.726281 
L 261.348874 276.050363 
L 264.54658 276.162917 
L 264.679818 275.440415 
L 267.877525 275.575479 
L 268.010762 274.807667 
L 271.208469 274.96491 
L 271.341707 274.152391 
L 274.539413 274.331474 
L 274.672651 273.474796 
L 277.870357 273.675368 
L 278.003595 272.775741 
L 281.201302 272.997448 
L 281.267921 272.050382 
L 281.334539 272.055649 
L 284.532246 272.298129 
L 284.598865 271.309412 
L 284.665484 271.315101 
L 287.86319 271.577991 
L 287.929809 270.548411 
L 287.996428 270.554514 
L 291.194134 270.837445 
L 291.260753 269.767937 
L 291.327372 269.774447 
L 294.525079 270.077049 
L 294.591698 268.967814 
L 294.658316 268.974724 
L 297.856023 269.296622 
L 297.922642 268.148894 
L 297.989261 268.156194 
L 301.186967 268.497013 
L 301.253586 267.311873 
L 301.320205 267.319557 
L 304.517911 267.678925 
L 304.58453 266.456963 
L 304.651149 266.465022 
L 307.848856 266.842565 
L 307.915475 265.58418 
L 307.982093 265.592607 
L 311.1798 265.987949 
L 311.246419 264.694247 
L 311.313038 264.703035 
L 314.510744 265.115805 
L 314.577363 263.788302 
L 314.643982 263.797441 
L 317.841688 264.227277 
L 317.908307 262.866639 
L 317.974926 262.876123 
L 321.172633 263.322661 
L 321.239252 261.929084 
L 321.30587 261.938905 
L 324.503577 262.401783 
L 324.570196 260.976388 
L 324.636815 260.98654 
L 327.834521 261.465402 
L 327.90114 260.008867 
L 327.967759 260.019341 
L 331.165465 260.513837 
L 331.232084 259.026597 
L 331.298703 259.037387 
L 334.363172 259.526244 
L 334.49641 257.955562 
L 337.827354 256.598785 
L 337.893973 258.848869 
L 337.960592 258.821903 
L 341.158298 257.526106 
L 341.224917 259.77186 
L 341.291536 259.745045 
L 344.489242 258.456428 
L 344.555861 260.676309 
L 344.62248 260.649653 
L 347.820187 259.368558 
L 347.886805 261.561909 
L 347.953424 261.53542 
L 351.151131 260.262202 
L 351.21775 262.428149 
L 351.284369 262.401833 
L 354.482075 261.136857 
L 354.548694 263.274305 
L 354.615313 263.248171 
L 357.813019 261.991812 
L 357.879638 264.100159 
L 357.946257 264.074216 
L 361.143964 262.826858 
L 361.210582 264.904743 
L 361.277201 264.878999 
L 364.474908 263.641041 
L 364.541527 265.68803 
L 364.608146 265.662492 
L 367.805852 264.434338 
L 367.872471 266.449015 
L 367.93909 266.423694 
L 371.136796 265.205759 
L 371.203415 267.187307 
L 371.270034 267.16221 
L 374.467741 265.954921 
L 374.534359 267.902775 
L 374.600978 267.877913 
L 377.798685 266.681699 
L 377.865304 268.594931 
L 377.931923 268.570312 
L 381.129629 267.385613 
L 381.196248 269.263319 
L 381.262867 269.238952 
L 384.460573 268.066213 
L 384.527192 269.907015 
L 384.593811 269.88291 
L 387.791518 268.722585 
L 387.858136 270.525857 
L 387.924755 270.502025 
L 391.122462 269.354571 
L 391.189081 271.119372 
L 391.2557 271.095821 
L 394.453406 269.961701 
L 394.520025 271.687027 
L 394.586644 271.663767 
L 397.78435 270.543448 
L 397.850969 272.227981 
L 397.917588 272.205023 
L 401.115295 271.098976 
L 401.181913 272.741689 
L 401.248532 272.719043 
L 404.446239 271.627741 
L 404.512858 273.228333 
L 404.579477 273.206008 
L 407.777183 272.129922 
L 407.843802 273.687277 
L 407.910421 273.665283 
L 411.108127 272.604884 
L 411.174746 274.118049 
L 411.241365 274.096395 
L 414.439071 273.052151 
L 414.50569 274.520138 
L 414.572309 274.498835 
L 417.770016 273.471211 
L 417.836635 274.893139 
L 417.903254 274.872196 
L 421.10096 273.861655 
L 421.167579 275.237414 
L 421.234198 275.216841 
L 424.431904 274.223832 
L 424.498523 275.552335 
L 424.565142 275.532141 
L 427.762848 274.557109 
L 427.829467 275.837293 
L 427.896086 275.817487 
L 431.093793 274.86087 
L 431.160412 276.092312 
L 431.22703 276.072904 
L 434.424737 275.135125 
L 434.491356 276.317271 
L 434.557975 276.298268 
L 437.755681 275.37974 
L 437.8223 276.511381 
L 437.888919 276.492792 
L 441.086625 275.593916 
L 441.153244 276.674748 
L 441.219863 276.656581 
L 444.41757 275.777741 
L 444.484189 276.807541 
L 444.550807 276.789803 
L 447.748514 275.931367 
L 447.815133 276.909512 
L 447.881752 276.892211 
L 451.079458 276.054528 
L 451.146077 276.979882 
L 451.212696 276.963024 
L 454.410402 276.146427 
L 454.477021 277.01863 
L 454.54364 277.002223 
L 457.741347 276.207025 
L 457.807966 277.02583 
L 457.874584 277.009878 
L 461.072291 276.236371 
L 461.13891 277.00206 
L 461.205529 276.986569 
L 464.403235 276.23502 
L 464.469854 276.946964 
L 464.536473 276.93194 
L 467.734179 276.202594 
L 467.800798 276.860414 
L 467.867417 276.84586 
L 471.065124 276.138941 
L 471.131743 276.742971 
L 471.198361 276.728893 
L 474.396068 276.044596 
L 474.462687 276.594763 
L 474.529306 276.581163 
L 477.727012 275.919662 
L 477.793631 276.415687 
L 477.86025 276.402568 
L 481.057956 275.76401 
L 481.124575 276.205806 
L 481.191194 276.193171 
L 484.388901 275.57768 
L 484.45552 275.965122 
L 484.522138 275.952972 
L 487.719845 275.360645 
L 487.853083 275.682353 
L 491.050789 275.113264 
L 491.184027 275.381596 
L 494.381733 274.835792 
L 494.514971 275.050709 
L 497.712678 274.528212 
L 497.845915 274.690211 
L 501.043622 274.191019 
L 501.17686 274.300659 
L 508.105224 273.401743 
L 517.698343 272.07779 
L 517.831581 271.932563 
L 521.029287 271.571873 
L 521.162525 271.377996 
L 524.693326 271.003647 
L 524.893183 270.717229 
L 527.691176 269.516171 
L 527.824414 266.377499 
L 531.02212 265.003363 
L 531.155358 261.936544 
L 534.353064 260.561025 
L 534.486302 257.49342 
L 537.684009 256.116656 
L 537.817246 253.048347 
L 541.014953 251.670458 
L 541.148191 248.601574 
L 544.345897 247.222661 
L 544.479135 244.153269 
L 547.676841 242.773423 
L 547.810079 239.703602 
L 551.007786 238.322902 
L 551.141023 235.252692 
L 554.33873 233.871208 
L 554.471968 230.80068 
L 557.669674 229.418473 
L 557.802912 226.347667 
L 561.000618 224.964793 
L 561.133856 221.89374 
L 564.331563 220.510247 
L 564.4648 217.438983 
L 567.662507 216.054914 
L 567.795745 212.983454 
L 570.993451 211.59885 
L 571.126689 208.527229 
L 574.324395 207.142127 
L 574.457633 204.070364 
L 577.65534 202.684795 
L 577.788577 199.612906 
L 580.986284 198.2269 
L 581.119522 195.154898 
L 584.317228 193.768484 
L 584.450466 190.6964 
L 587.648172 189.3096 
L 587.78141 186.237435 
L 590.979116 184.850272 
L 591.112354 181.778037 
L 594.310061 180.390531 
L 594.443299 177.318239 
L 597.641005 175.93041 
L 597.774243 172.858072 
L 600.971949 171.469936 
L 601.105187 168.397555 
L 604.302893 167.009129 
L 604.436131 163.936712 
L 607.633838 162.54801 
L 607.767075 159.475564 
L 610.964782 158.0866 
L 611.09802 155.01413 
L 614.295726 153.624918 
L 614.428964 150.55243 
L 617.693289 149.134032 
L 617.826527 146.07505 
L 619.958331 145.165165 
L 620.091569 144.628554 
L 624.288559 144.628554 
L 624.421797 144.127683 
L 627.619503 144.127683 
L 627.752741 143.557513 
L 630.950447 143.557513 
L 631.083685 142.948321 
L 634.281392 142.948321 
L 634.414629 142.300447 
L 637.612336 142.300447 
L 637.745574 141.614143 
L 640.94328 141.614143 
L 641.076518 140.889679 
L 644.274224 140.889679 
L 644.407462 140.127931 
L 647.605169 140.127931 
L 647.738406 139.328622 
L 650.936113 139.328622 
L 651.069351 138.492343 
L 654.267057 138.492343 
L 654.400295 137.619673 
L 657.598001 137.619673 
L 657.731239 136.711001 
L 660.928946 136.711001 
L 661.062183 135.767762 
L 664.25989 135.767762 
L 664.393128 134.789096 
L 667.590834 134.789096 
L 667.724072 133.775055 
L 670.921778 133.775055 
L 671.055016 132.726273 
L 674.252723 132.726273 
L 674.38596 131.64359 
L 677.583667 131.64359 
L 677.716905 130.527362 
L 680.914611 130.527362 
L 681.047849 129.377901 
L 684.245555 129.377901 
L 684.378793 128.195739 
L 687.5765 128.195739 
L 687.709737 126.98136 
L 690.907444 126.98136 
L 691.040682 125.735357 
L 694.238388 125.735357 
L 694.371626 124.458894 
L 697.569332 124.458894 
L 697.70257 123.151977 
L 700.900277 123.151977 
L 701.033514 121.815521 
L 704.231221 121.815521 
L 704.364459 120.449585 
L 707.562165 120.449585 
L 707.695403 119.054599 
L 710.893109 119.054599 
L 711.026347 117.631283 
L 714.224054 117.631283 
L 714.357291 116.180088 
L 717.554998 116.180088 
L 717.688236 114.70166 
L 720.885942 114.70166 
L 721.01918 113.196196 
L 724.216886 113.196196 
L 724.350124 111.664262 
L 727.547831 111.664262 
L 727.681068 110.106113 
L 730.878775 110.106113 
L 731.012013 108.522194 
L 734.209719 108.522194 
L 734.342957 106.91274 
L 737.540663 106.91274 
L 737.673901 105.278862 
L 740.871608 105.278862 
L 741.004845 103.62118 
L 744.202552 103.62118 
L 744.33579 101.939659 
L 747.533496 101.939659 
L 747.666734 100.234541 
L 750.86444 100.234541 
L 750.997678 98.506109 
L 754.195385 98.506109 
L 754.328622 96.755274 
L 757.526329 96.755274 
L 757.659567 94.982406 
L 760.857273 94.982406 
L 760.990511 93.187433 
L 764.188217 93.187433 
L 764.321455 91.371276 
L 767.519161 91.371276 
L 767.652399 89.53447 
L 770.850106 89.53447 
L 770.983344 87.677173 
L 774.18105 87.677173 
L 774.314288 85.799824 
L 777.511994 85.799824 
L 777.645232 83.90294 
L 780.842938 83.90294 
L 780.976176 81.986618 
L 784.173883 81.986618 
L 784.30712 80.05151 
L 787.504827 80.05151 
L 787.638065 78.098248 
L 790.835771 78.098248 
L 790.969009 76.126954 
L 794.166715 76.126954 
L 794.299953 74.137869 
L 797.49766 74.137869 
L 797.630897 72.131278 
L 800.828604 72.131278 
L 800.961842 70.107634 
L 804.159548 70.107634 
L 804.292786 68.067524 
L 807.490492 68.067524 
L 807.62373 66.010995 
L 810.821437 66.010995 
L 810.954674 63.938756 
L 814.152381 63.938756 
L 814.285619 61.850713 
L 817.483325 61.850713 
L 817.616563 59.747277 
L 820.814269 59.747277 
L 820.947507 57.629254 
L 824.145214 57.629254 
L 824.278451 55.496648 
L 827.476158 55.496648 
L 827.609396 53.349423 
L 830.807102 53.349423 
L 830.94034 51.188249 
L 834.138046 51.188249 
L 834.271284 49.013474 
L 837.468991 49.013474 
L 837.602228 46.825062 
L 840.799935 46.825062 
L 840.933173 44.623436 
L 844.130879 44.623436 
L 844.264117 42.408899 
L 847.461823 42.408899 
L 847.595061 40.181449 
L 848.26125 40.181449 
L 848.26125 40.181449 
" clip-path="url(#pb90d0e470c)" style="fill: none; stroke: #ff0000; stroke-width: 2; stroke-linecap: square"/>
   </g>
   <g id="line2d_32">
    <path d="M 48.90125 367.054176 
L 51.366149 365.970101 
L 51.432768 365.152681 
L 51.499387 365.181969 
L 54.697093 366.586151 
L 54.763712 363.600681 
L 54.830331 363.629807 
L 58.028037 365.022056 
L 58.094656 362.045486 
L 58.161275 362.074599 
L 61.358981 363.46843 
L 61.4256 360.486426 
L 61.492219 360.515484 
L 64.689926 361.907052 
L 64.756545 358.982563 
L 64.823163 359.011789 
L 68.02087 360.413874 
L 68.087489 357.430623 
L 68.154108 357.459846 
L 71.351814 358.861921 
L 71.418433 355.890764 
L 71.485052 355.92002 
L 74.682758 357.32401 
L 74.749377 354.352848 
L 74.815996 354.382128 
L 78.013703 355.787462 
L 78.080322 352.804813 
L 78.14694 352.834098 
L 81.344647 354.239726 
L 81.411266 351.255594 
L 81.477885 351.284881 
L 84.675591 352.690629 
L 84.74221 349.707418 
L 84.808829 349.736696 
L 88.006535 351.141935 
L 88.073154 348.166358 
L 88.139773 348.195646 
L 91.33748 349.601422 
L 91.404099 346.624245 
L 91.470717 346.65354 
L 94.668424 348.059649 
L 94.735043 345.07695 
L 94.801662 345.106247 
L 97.999368 346.512472 
L 98.065987 343.547476 
L 98.132606 343.576775 
L 101.330312 344.983142 
L 101.396931 341.998071 
L 101.46355 342.027371 
L 104.661257 343.433738 
L 104.727876 340.45039 
L 104.794494 340.479689 
L 107.992201 341.886044 
L 108.05882 338.903844 
L 108.125439 338.933142 
L 111.323145 340.339445 
L 111.389764 337.358844 
L 111.456383 337.388143 
L 114.654089 338.794499 
L 114.720708 335.809213 
L 114.787327 335.838512 
L 117.985034 337.244865 
L 118.051653 334.261688 
L 118.118271 334.290987 
L 121.315978 335.697354 
L 121.382597 332.728858 
L 121.449216 332.758157 
L 124.646922 334.164469 
L 124.713541 331.182445 
L 124.78016 331.211744 
L 127.977866 332.618094 
L 128.044485 329.633283 
L 128.111104 329.662582 
L 131.308811 331.068917 
L 131.37543 328.08907 
L 131.442048 328.11837 
L 134.639755 329.524734 
L 134.706374 326.539437 
L 134.772993 326.568736 
L 137.970699 327.9751 
L 138.037318 324.990966 
L 138.103937 325.020266 
L 141.301643 326.426633 
L 141.368262 323.441542 
L 141.434881 323.470841 
L 144.632588 324.877208 
L 144.699206 321.891941 
L 144.765825 321.921241 
L 147.963532 323.327607 
L 148.030151 320.343574 
L 148.09677 320.372873 
L 151.294476 321.77924 
L 151.361095 318.794101 
L 151.427714 318.8234 
L 154.62542 320.229767 
L 154.692039 317.256219 
L 154.758658 317.285517 
L 157.956365 318.69185 
L 158.022983 315.706752 
L 158.089602 315.73605 
L 161.287309 317.142374 
L 161.353928 314.164044 
L 161.420547 314.193344 
L 164.618253 315.599699 
L 164.684872 312.615286 
L 164.751491 312.644585 
L 167.949197 314.050947 
L 168.015816 311.067648 
L 168.082435 311.096948 
L 171.280142 312.503314 
L 171.34676 309.536657 
L 171.413379 309.565956 
L 174.611086 310.97229 
L 174.677705 307.987539 
L 174.744324 308.016838 
L 177.94203 309.42318 
L 178.008649 306.437889 
L 178.075268 306.467187 
L 181.272974 307.873529 
L 181.339593 304.888351 
L 181.406212 304.917649 
L 184.603919 306.323985 
L 184.670537 303.342938 
L 184.737156 303.372237 
L 187.934863 304.778541 
L 188.001482 301.870565 
L 188.068101 301.899865 
L 191.265807 303.306231 
L 191.332426 300.379393 
L 191.399045 300.408692 
L 194.596751 301.815014 
L 194.66337 299.217947 
L 194.729989 299.247233 
L 197.927696 300.652938 
L 197.994314 298.063996 
L 198.060933 298.093254 
L 201.25864 299.497596 
L 201.325259 296.574575 
L 201.391878 296.603844 
L 204.589584 298.008731 
L 204.656203 295.027743 
L 204.722822 295.057008 
L 207.920528 296.461675 
L 207.987147 293.77302 
L 208.053766 293.802252 
L 211.251473 295.205321 
L 211.318091 292.30946 
L 211.38471 292.338708 
L 214.582417 293.742558 
L 214.649036 290.75736 
L 214.715655 290.786605 
L 217.913361 292.190319 
L 217.97998 289.221661 
L 218.046599 289.250911 
L 221.244305 290.654878 
L 221.310924 287.691865 
L 221.377543 287.721121 
L 224.575249 289.125377 
L 224.641868 286.176061 
L 224.708487 286.205325 
L 227.906194 287.60994 
L 227.972813 284.777018 
L 228.039432 284.806261 
L 231.237138 286.20987 
L 231.303757 283.262853 
L 231.370376 283.292104 
L 234.568082 284.696116 
L 234.634701 281.866342 
L 234.70132 281.89557 
L 239.231404 283.882951 
L 239.364642 281.335542 
L 244.560915 281.17136 
L 244.694153 280.171113 
L 247.891859 280.0801 
L 248.025097 280.967921 
L 251.222803 280.899908 
L 251.356041 281.112269 
L 254.553748 281.069458 
L 254.686985 281.191348 
L 264.54658 281.154432 
L 264.679818 280.943596 
L 267.877525 281.002054 
L 268.010762 280.842804 
L 274.539413 281.131051 
L 274.672651 280.858486 
L 277.870357 280.992581 
L 278.003595 280.612303 
L 281.201302 280.771256 
L 281.334539 280.544657 
L 284.532246 280.728679 
L 284.665484 280.354837 
L 287.86319 280.563645 
L 287.996428 280.268861 
L 291.194134 280.502558 
L 291.327372 279.894332 
L 294.525079 280.152073 
L 294.658316 279.610441 
L 297.856023 279.892341 
L 297.989261 279.307982 
L 301.186967 279.613825 
L 301.253586 278.982415 
L 301.320205 278.989506 
L 304.517911 279.319071 
L 304.58453 278.592941 
L 304.651149 278.600514 
L 307.848856 278.953358 
L 307.915475 278.383122 
L 307.982093 278.391187 
L 311.1798 278.76776 
L 311.246419 278.025533 
L 311.313038 278.034076 
L 314.510744 278.433701 
L 314.577363 277.459492 
L 314.643982 277.468487 
L 317.841688 277.889986 
L 317.908307 276.990173 
L 317.974926 276.999625 
L 321.172633 277.443236 
L 321.239252 276.592517 
L 321.30587 276.602429 
L 324.503577 277.06826 
L 324.570196 276.070583 
L 324.636815 276.080937 
L 327.834521 276.568165 
L 327.90114 275.757659 
L 327.967759 275.768471 
L 331.165465 276.277853 
L 331.232084 274.982927 
L 331.298703 274.994139 
L 334.363172 275.501245 
L 334.49641 274.242901 
L 337.827354 272.896826 
L 337.893973 275.616945 
L 337.960592 275.590133 
L 341.158298 274.301403 
L 341.224917 277.101574 
L 341.291536 277.074823 
L 344.489242 275.788924 
L 344.555861 278.407982 
L 344.62248 278.381346 
L 347.820187 277.100854 
L 347.886805 279.890813 
L 347.953424 279.864242 
L 351.151131 278.586821 
L 351.21775 281.280306 
L 351.284369 281.253834 
L 354.482075 279.981054 
L 354.548694 282.668869 
L 354.615313 282.642499 
L 357.813019 281.374525 
L 357.879638 284.173001 
L 357.946257 284.146696 
L 361.143964 282.881735 
L 361.210582 285.63532 
L 361.277201 285.609098 
L 364.474908 284.348034 
L 364.541527 286.882238 
L 364.608146 286.85617 
L 367.805852 285.602336 
L 367.872471 288.208225 
L 367.93909 288.182294 
L 371.136796 286.934877 
L 371.203415 289.626783 
L 371.270034 289.600963 
L 374.467741 288.358715 
L 374.534359 290.922886 
L 374.600978 290.897221 
L 377.798685 289.662274 
L 377.865304 292.104568 
L 377.931923 292.079097 
L 381.129629 290.853284 
L 381.196248 293.494491 
L 381.262867 293.469156 
L 384.460573 292.249668 
L 384.527192 294.867661 
L 384.593811 294.842473 
L 387.791518 293.62984 
L 387.858136 296.234517 
L 387.924755 296.209483 
L 391.122462 295.004072 
L 391.189081 297.539073 
L 391.2557 297.514223 
L 394.453406 296.317384 
L 394.520025 298.733622 
L 394.586644 298.708998 
L 397.78435 297.5228 
L 397.850969 300.063662 
L 397.917588 300.039227 
L 401.115295 298.861835 
L 401.181913 301.370495 
L 401.248532 301.346265 
L 404.446239 300.178445 
L 404.512858 302.696415 
L 404.579477 302.67239 
L 407.777183 301.514164 
L 407.843802 304.045338 
L 407.910421 304.021518 
L 411.108127 302.872819 
L 411.174746 305.201123 
L 411.241365 305.177589 
L 414.439071 304.042307 
L 414.50569 306.426998 
L 414.572309 306.403738 
L 417.770016 305.281199 
L 417.836635 307.673807 
L 417.903254 307.650822 
L 421.10096 306.541157 
L 421.167579 308.995553 
L 421.234198 308.972824 
L 424.431904 307.875056 
L 424.498523 310.261057 
L 424.565142 310.23862 
L 427.762848 309.154439 
L 427.829467 311.608024 
L 427.896086 311.585854 
L 431.093793 310.514075 
L 431.160412 312.673902 
L 431.22703 312.652131 
L 434.424737 311.598956 
L 434.491356 313.689794 
L 434.557975 313.668456 
L 437.755681 312.635522 
L 437.8223 314.758305 
L 437.888919 314.737398 
L 441.086625 313.724601 
L 441.153244 315.759327 
L 441.219863 315.738896 
L 444.41757 314.748295 
L 444.484189 316.973721 
L 444.550807 316.953697 
L 447.748514 315.982008 
L 447.815133 318.021887 
L 447.881752 318.002361 
L 451.079458 317.053874 
L 451.146077 318.877663 
L 451.212696 318.858727 
L 454.410402 317.937861 
L 454.477021 319.990956 
L 454.54364 319.972535 
L 457.741347 319.075574 
L 457.807966 320.962231 
L 457.874584 320.944406 
L 461.072291 320.07527 
L 461.13891 321.872972 
L 461.205529 321.855792 
L 464.403235 321.016778 
L 464.469854 322.672906 
L 464.536473 322.656439 
L 467.734179 321.850703 
L 467.800798 323.496984 
L 467.867417 323.481246 
L 471.065124 322.709651 
L 471.131743 324.226146 
L 471.198361 324.2112 
L 474.396068 323.476626 
L 474.462687 324.841598 
L 474.529306 324.827506 
L 477.727012 324.13298 
L 477.793631 325.505724 
L 477.86025 325.492498 
L 481.057956 324.838613 
L 481.124575 326.282859 
L 481.191194 326.270493 
L 484.388901 325.656873 
L 484.45552 327.091339 
L 484.522138 327.079854 
L 487.719845 326.507489 
L 487.786464 327.715422 
L 487.853083 327.704909 
L 491.050789 327.178187 
L 491.117408 328.336888 
L 491.184027 328.327377 
L 494.381733 327.847793 
L 494.448352 328.979148 
L 494.514971 328.970664 
L 497.712678 328.539436 
L 497.779297 329.329723 
L 497.845915 329.322363 
L 501.043622 328.944274 
L 501.110241 329.790837 
L 501.17686 329.784603 
L 504.374566 329.459729 
L 504.507804 330.024533 
L 507.70551 329.755934 
L 507.838748 330.143059 
L 511.036455 329.932179 
L 511.169692 330.195816 
L 514.367399 330.043384 
L 514.500637 330.439151 
L 517.698343 330.344911 
L 517.831581 329.716827 
L 521.029287 329.678981 
L 521.162525 330.462771 
L 524.693326 330.478605 
L 524.759945 331.332144 
L 524.826564 331.298732 
L 527.691176 330.041541 
L 527.757795 332.991885 
L 527.824414 332.962611 
L 531.02212 331.557391 
L 531.088739 334.525058 
L 531.155358 334.495794 
L 534.353064 333.091052 
L 534.419683 336.022235 
L 534.486302 335.992948 
L 537.684009 334.587166 
L 537.750627 337.558506 
L 537.817246 337.529212 
L 541.014953 336.123082 
L 541.081572 338.521279 
L 541.148191 338.492069 
L 544.345897 337.089777 
L 544.412516 340.058068 
L 544.479135 340.028875 
L 547.676841 338.627386 
L 547.74346 341.164987 
L 547.810079 341.135972 
L 551.007786 339.742518 
L 551.074404 342.613602 
L 551.141023 342.584694 
L 554.33873 341.196088 
L 554.405349 343.983705 
L 554.471968 343.954585 
L 557.669674 342.556295 
L 557.736293 345.50979 
L 557.802912 345.480712 
L 561.000618 344.084301 
L 561.067237 347.044408 
L 561.133856 347.015246 
L 564.331563 345.615041 
L 564.398181 348.428413 
L 564.4648 348.399138 
L 567.662507 346.993824 
L 567.729126 349.820923 
L 567.795745 349.79174 
L 570.993451 348.390511 
L 571.06007 351.371252 
L 571.126689 351.342076 
L 574.324395 349.941136 
L 574.391014 352.795527 
L 574.457633 352.766515 
L 577.65534 351.372679 
L 577.721958 354.34293 
L 577.788577 354.313954 
L 580.986284 352.921508 
L 581.052903 354.868744 
L 581.119522 354.84081 
L 584.317228 353.493218 
L 584.383847 356.309674 
L 584.450466 356.282217 
L 587.648172 354.954087 
L 587.714791 357.649574 
L 587.78141 357.623006 
L 590.979116 356.330971 
L 591.045735 359.049786 
L 591.112354 359.024238 
L 594.310061 357.771811 
L 594.37668 360.491786 
L 594.443299 360.467492 
L 597.641005 359.260766 
L 597.707624 361.767613 
L 597.774243 361.746024 
L 600.971949 360.637427 
L 601.038568 362.641039 
L 601.105187 362.625412 
L 604.036418 361.820333 
L 604.302893 361.73768 
L 604.369512 363.088344 
L 604.436131 363.082351 
L 606.701173 362.762995 
L 607.633838 362.573362 
L 607.767075 363.115991 
L 609.89888 363.177036 
L 610.964782 363.12315 
L 611.031401 362.342244 
L 611.09802 362.356427 
L 613.629537 362.779869 
L 614.295726 362.849181 
L 614.362345 361.359097 
L 614.428964 361.378813 
L 617.62667 362.209817 
L 617.693289 362.224295 
L 617.759908 360.26512 
L 617.826527 360.288173 
L 619.958331 360.985164 
L 620.091569 362.575134 
L 624.288559 362.575134 
L 624.421797 362.223305 
L 627.619503 362.223305 
L 627.752741 360.46916 
L 630.950447 360.46916 
L 631.083685 357.974362 
L 634.281392 357.974362 
L 634.414629 355.188399 
L 637.612336 355.188399 
L 637.745574 352.405188 
L 640.94328 352.405188 
L 641.076518 349.478712 
L 644.274224 349.478712 
L 644.407462 346.541914 
L 647.605169 346.541914 
L 647.738406 343.62966 
L 650.936113 343.62966 
L 651.069351 340.709871 
L 654.267057 340.709871 
L 654.400295 337.720973 
L 657.598001 337.720973 
L 657.731239 334.72003 
L 660.928946 334.72003 
L 661.062183 331.716691 
L 664.25989 331.716691 
L 664.393128 328.705305 
L 667.590834 328.705305 
L 667.724072 325.703756 
L 670.921778 325.703756 
L 671.055016 322.703542 
L 674.252723 322.703542 
L 674.38596 319.697149 
L 677.583667 319.697149 
L 677.716905 316.692317 
L 680.914611 316.692317 
L 681.047849 313.717433 
L 684.245555 313.717433 
L 684.378793 310.74868 
L 687.5765 310.74868 
L 687.709737 307.734413 
L 690.907444 307.734413 
L 691.040682 304.732663 
L 694.238388 304.732663 
L 694.371626 301.756737 
L 697.569332 301.756737 
L 697.70257 298.78759 
L 700.900277 298.78759 
L 701.033514 295.772985 
L 704.231221 295.772985 
L 704.364459 292.766127 
L 707.562165 292.766127 
L 707.695403 289.767439 
L 710.893109 289.767439 
L 711.026347 286.754518 
L 714.224054 286.754518 
L 714.357291 283.744645 
L 717.554998 283.744645 
L 717.688236 280.737898 
L 720.885942 280.737898 
L 721.01918 277.730141 
L 724.216886 277.730141 
L 724.350124 274.718008 
L 727.547831 274.718008 
L 727.681068 271.707208 
L 730.878775 271.707208 
L 731.012013 268.693176 
L 734.209719 268.693176 
L 734.342957 265.713253 
L 737.540663 265.713253 
L 737.673901 262.711461 
L 740.871608 262.711461 
L 741.004845 259.697367 
L 744.202552 259.697367 
L 744.33579 256.682763 
L 747.533496 256.682763 
L 747.666734 253.668397 
L 750.86444 253.668397 
L 750.997678 250.654225 
L 754.195385 250.654225 
L 754.328622 247.641484 
L 757.526329 247.641484 
L 757.659567 244.631134 
L 760.857273 244.631134 
L 760.990511 241.617753 
L 764.188217 241.617753 
L 764.321455 238.60435 
L 767.519161 238.60435 
L 767.652399 235.596457 
L 770.850106 235.596457 
L 770.983344 232.596615 
L 774.18105 232.596615 
L 774.314288 229.584666 
L 777.511994 229.584666 
L 777.645232 226.585099 
L 780.842938 226.585099 
L 780.976176 223.570942 
L 784.173883 223.570942 
L 784.30712 220.558768 
L 787.504827 220.558768 
L 787.638065 217.545377 
L 790.835771 217.545377 
L 790.969009 214.534061 
L 794.166715 214.534061 
L 794.299953 211.520266 
L 797.49766 211.520266 
L 797.630897 208.507621 
L 800.828604 208.507621 
L 800.961842 205.496064 
L 804.159548 205.496064 
L 804.292786 202.496184 
L 807.490492 202.496184 
L 807.62373 199.483483 
L 810.821437 199.483483 
L 810.954674 196.469928 
L 814.152381 196.469928 
L 814.285619 193.459764 
L 817.483325 193.459764 
L 817.616563 190.464713 
L 820.814269 190.464713 
L 820.947507 187.450201 
L 824.145214 187.450201 
L 824.278451 184.440486 
L 827.476158 184.440486 
L 827.609396 181.429627 
L 830.807102 181.429627 
L 830.94034 178.422894 
L 834.138046 178.422894 
L 834.271284 175.408304 
L 837.468991 175.408304 
L 837.602228 172.39393 
L 840.799935 172.39393 
L 840.933173 169.389493 
L 844.130879 169.389493 
L 844.264117 166.374889 
L 847.461823 166.374889 
L 847.595061 163.36089 
L 848.26125 163.36089 
L 848.26125 163.36089 
" clip-path="url(#pb90d0e470c)" style="fill: none; stroke: #0000ff; stroke-width: 2; stroke-linecap: square"/>
   </g>
   <g id="patch_3">
    <path d="M 48.90125 383.397812 
L 48.90125 23.837813 
" style="fill: none; stroke: #000000; stroke-width: 0.8; stroke-linejoin: miter; stroke-linecap: square"/>
   </g>
   <g id="patch_4">
    <path d="M 848.26125 383.397812 
L 848.26125 23.837813 
" style="fill: none; stroke: #000000; stroke-width: 0.8; stroke-linejoin: miter; stroke-linecap: square"/>
   </g>
   <g id="patch_5">
    <path d="M 48.90125 383.397812 
L 848.26125 383.397812 
" style="fill: none; stroke: #000000; stroke-width: 0.8; stroke-linejoin: miter; stroke-linecap: square"/>
   </g>
   <g id="patch_6">
    <path d="M 48.90125 23.837812 
L 848.26125 23.837812 
" style="fill: none; stroke: #000000; stroke-width: 0.8; stroke-linejoin: miter; stroke-linecap: square"/>
   </g>
   <g id="text_18">
    <!-- PDR Example: Position Error vs Time -->
    <g transform="translate(303.85625 17.837812) scale(0.14 -0.14)">
     <defs>
      <path id="DejaVuSans-Bold-50" d="M 588 4666 
L 2584 4666 
Q 3475 4666 3951 4270 
Q 4428 3875 4428 3144 
Q 4428 2409 3951 2014 
Q 3475 1619 2584 1619 
L 1791 1619 
L 1791 0 
L 588 0 
L 588 4666 
z
M 1791 3794 
L 1791 2491 
L 2456 2491 
Q 2806 2491 2997 2661 
Q 3188 2831 3188 3144 
Q 3188 3456 2997 3625 
Q 2806 3794 2456 3794 
L 1791 3794 
z
" transform="scale(0.015625)"/>
      <path id="DejaVuSans-Bold-44" d="M 1791 3756 
L 1791 909 
L 2222 909 
Q 2959 909 3348 1275 
Q 3738 1641 3738 2338 
Q 3738 3031 3350 3393 
Q 2963 3756 2222 3756 
L 1791 3756 
z
M 588 4666 
L 1856 4666 
Q 2919 4666 3439 4514 
Q 3959 4363 4331 4000 
Q 4659 3684 4818 3271 
Q 4978 2859 4978 2338 
Q 4978 1809 4818 1395 
Q 4659 981 4331 666 
Q 3956 303 3431 151 
Q 2906 0 1856 0 
L 588 0 
L 588 4666 
z
" transform="scale(0.015625)"/>
      <path id="DejaVuSans-Bold-52" d="M 2297 2597 
Q 2675 2597 2839 2737 
Q 3003 2878 3003 3200 
Q 3003 3519 2839 3656 
Q 2675 3794 2297 3794 
L 1791 3794 
L 1791 2597 
L 2297 2597 
z
M 1791 1766 
L 1791 0 
L 588 0 
L 588 4666 
L 2425 4666 
Q 3347 4666 3776 4356 
Q 4206 4047 4206 3378 
Q 4206 2916 3982 2619 
Q 3759 2322 3309 2181 
Q 3556 2125 3751 1926 
Q 3947 1728 4147 1325 
L 4800 0 
L 3519 0 
L 2950 1159 
Q 2778 1509 2601 1637 
Q 2425 1766 2131 1766 
L 1791 1766 
z
" transform="scale(0.015625)"/>
      <path id="DejaVuSans-Bold-20" transform="scale(0.015625)"/>
      <path id="DejaVuSans-Bold-45" d="M 588 4666 
L 3834 4666 
L 3834 3756 
L 1791 3756 
L 1791 2888 
L 3713 2888 
L 3713 1978 
L 1791 1978 
L 1791 909 
L 3903 909 
L 3903 0 
L 588 0 
L 588 4666 
z
" transform="scale(0.015625)"/>
      <path id="DejaVuSans-Bold-78" d="M 1422 1791 
L 159 3500 
L 1344 3500 
L 2059 2463 
L 2784 3500 
L 3969 3500 
L 2706 1797 
L 4031 0 
L 2847 0 
L 2059 1106 
L 1281 0 
L 97 0 
L 1422 1791 
z
" transform="scale(0.015625)"/>
      <path id="DejaVuSans-Bold-61" d="M 2106 1575 
Q 1756 1575 1579 1456 
Q 1403 1338 1403 1106 
Q 1403 894 1545 773 
Q 1688 653 1941 653 
Q 2256 653 2472 879 
Q 2688 1106 2688 1447 
L 2688 1575 
L 2106 1575 
z
M 3816 1997 
L 3816 0 
L 2688 0 
L 2688 519 
Q 2463 200 2181 54 
Q 1900 -91 1497 -91 
Q 953 -91 614 226 
Q 275 544 275 1050 
Q 275 1666 698 1953 
Q 1122 2241 2028 2241 
L 2688 2241 
L 2688 2328 
Q 2688 2594 2478 2717 
Q 2269 2841 1825 2841 
Q 1466 2841 1156 2769 
Q 847 2697 581 2553 
L 581 3406 
Q 941 3494 1303 3539 
Q 1666 3584 2028 3584 
Q 2975 3584 3395 3211 
Q 3816 2838 3816 1997 
z
" transform="scale(0.015625)"/>
      <path id="DejaVuSans-Bold-6d" d="M 3781 2919 
Q 3994 3244 4286 3414 
Q 4578 3584 4928 3584 
Q 5531 3584 5847 3212 
Q 6163 2841 6163 2131 
L 6163 0 
L 5038 0 
L 5038 1825 
Q 5041 1866 5042 1909 
Q 5044 1953 5044 2034 
Q 5044 2406 4934 2573 
Q 4825 2741 4581 2741 
Q 4263 2741 4089 2478 
Q 3916 2216 3909 1719 
L 3909 0 
L 2784 0 
L 2784 1825 
Q 2784 2406 2684 2573 
Q 2584 2741 2328 2741 
Q 2006 2741 1831 2477 
Q 1656 2213 1656 1722 
L 1656 0 
L 531 0 
L 531 3500 
L 1656 3500 
L 1656 2988 
Q 1863 3284 2130 3434 
Q 2397 3584 2719 3584 
Q 3081 3584 3359 3409 
Q 3638 3234 3781 2919 
z
" transform="scale(0.015625)"/>
      <path id="DejaVuSans-Bold-70" d="M 1656 506 
L 1656 -1331 
L 538 -1331 
L 538 3500 
L 1656 3500 
L 1656 2988 
Q 1888 3294 2169 3439 
Q 2450 3584 2816 3584 
Q 3463 3584 3878 3070 
Q 4294 2556 4294 1747 
Q 4294 938 3878 423 
Q 3463 -91 2816 -91 
Q 2450 -91 2169 54 
Q 1888 200 1656 506 
z
M 2400 2772 
Q 2041 2772 1848 2508 
Q 1656 2244 1656 1747 
Q 1656 1250 1848 986 
Q 2041 722 2400 722 
Q 2759 722 2948 984 
Q 3138 1247 3138 1747 
Q 3138 2247 2948 2509 
Q 2759 2772 2400 2772 
z
" transform="scale(0.015625)"/>
      <path id="DejaVuSans-Bold-6c" d="M 538 4863 
L 1656 4863 
L 1656 0 
L 538 0 
L 538 4863 
z
" transform="scale(0.015625)"/>
      <path id="DejaVuSans-Bold-65" d="M 4031 1759 
L 4031 1441 
L 1416 1441 
Q 1456 1047 1700 850 
Q 1944 653 2381 653 
Q 2734 653 3104 758 
Q 3475 863 3866 1075 
L 3866 213 
Q 3469 63 3072 -14 
Q 2675 -91 2278 -91 
Q 1328 -91 801 392 
Q 275 875 275 1747 
Q 275 2603 792 3093 
Q 1309 3584 2216 3584 
Q 3041 3584 3536 3087 
Q 4031 2591 4031 1759 
z
M 2881 2131 
Q 2881 2450 2695 2645 
Q 2509 2841 2209 2841 
Q 1884 2841 1681 2658 
Q 1478 2475 1428 2131 
L 2881 2131 
z
" transform="scale(0.015625)"/>
      <path id="DejaVuSans-Bold-3a" d="M 716 3500 
L 1844 3500 
L 1844 2291 
L 716 2291 
L 716 3500 
z
M 716 1209 
L 1844 1209 
L 1844 0 
L 716 0 
L 716 1209 
z
" transform="scale(0.015625)"/>
      <path id="DejaVuSans-Bold-6f" d="M 2203 2784 
Q 1831 2784 1636 2517 
Q 1441 2250 1441 1747 
Q 1441 1244 1636 976 
Q 1831 709 2203 709 
Q 2569 709 2762 976 
Q 2956 1244 2956 1747 
Q 2956 2250 2762 2517 
Q 2569 2784 2203 2784 
z
M 2203 3584 
Q 3106 3584 3614 3096 
Q 4122 2609 4122 1747 
Q 4122 884 3614 396 
Q 3106 -91 2203 -91 
Q 1297 -91 786 396 
Q 275 884 275 1747 
Q 275 2609 786 3096 
Q 1297 3584 2203 3584 
z
" transform="scale(0.015625)"/>
      <path id="DejaVuSans-Bold-73" d="M 3272 3391 
L 3272 2541 
Q 2913 2691 2578 2766 
Q 2244 2841 1947 2841 
Q 1628 2841 1473 2761 
Q 1319 2681 1319 2516 
Q 1319 2381 1436 2309 
Q 1553 2238 1856 2203 
L 2053 2175 
Q 2913 2066 3209 1816 
Q 3506 1566 3506 1031 
Q 3506 472 3093 190 
Q 2681 -91 1863 -91 
Q 1516 -91 1145 -36 
Q 775 19 384 128 
L 384 978 
Q 719 816 1070 734 
Q 1422 653 1784 653 
Q 2113 653 2278 743 
Q 2444 834 2444 1013 
Q 2444 1163 2330 1236 
Q 2216 1309 1875 1350 
L 1678 1375 
Q 931 1469 631 1722 
Q 331 1975 331 2491 
Q 331 3047 712 3315 
Q 1094 3584 1881 3584 
Q 2191 3584 2531 3537 
Q 2872 3491 3272 3391 
z
" transform="scale(0.015625)"/>
      <path id="DejaVuSans-Bold-69" d="M 538 3500 
L 1656 3500 
L 1656 0 
L 538 0 
L 538 3500 
z
M 538 4863 
L 1656 4863 
L 1656 3950 
L 538 3950 
L 538 4863 
z
" transform="scale(0.015625)"/>
      <path id="DejaVuSans-Bold-74" d="M 1759 4494 
L 1759 3500 
L 2913 3500 
L 2913 2700 
L 1759 2700 
L 1759 1216 
Q 1759 972 1856 886 
Q 1953 800 2241 800 
L 2816 800 
L 2816 0 
L 1856 0 
Q 1194 0 917 276 
Q 641 553 641 1216 
L 641 2700 
L 84 2700 
L 84 3500 
L 641 3500 
L 641 4494 
L 1759 4494 
z
" transform="scale(0.015625)"/>
      <path id="DejaVuSans-Bold-6e" d="M 4056 2131 
L 4056 0 
L 2931 0 
L 2931 347 
L 2931 1631 
Q 2931 2084 2911 2256 
Q 2891 2428 2841 2509 
Q 2775 2619 2662 2680 
Q 2550 2741 2406 2741 
Q 2056 2741 1856 2470 
Q 1656 2200 1656 1722 
L 1656 0 
L 538 0 
L 538 3500 
L 1656 3500 
L 1656 2988 
Q 1909 3294 2193 3439 
Q 2478 3584 2822 3584 
Q 3428 3584 3742 3212 
Q 4056 2841 4056 2131 
z
" transform="scale(0.015625)"/>
      <path id="DejaVuSans-Bold-72" d="M 3138 2547 
Q 2991 2616 2845 2648 
Q 2700 2681 2553 2681 
Q 2122 2681 1889 2404 
Q 1656 2128 1656 1613 
L 1656 0 
L 538 0 
L 538 3500 
L 1656 3500 
L 1656 2925 
Q 1872 3269 2151 3426 
Q 2431 3584 2822 3584 
Q 2878 3584 2943 3579 
Q 3009 3575 3134 3559 
L 3138 2547 
z
" transform="scale(0.015625)"/>
      <path id="DejaVuSans-Bold-76" d="M 97 3500 
L 1216 3500 
L 2088 1081 
L 2956 3500 
L 4078 3500 
L 2700 0 
L 1472 0 
L 97 3500 
z
" transform="scale(0.015625)"/>
      <path id="DejaVuSans-Bold-54" d="M 31 4666 
L 4331 4666 
L 4331 3756 
L 2784 3756 
L 2784 0 
L 1581 0 
L 1581 3756 
L 31 3756 
L 31 4666 
z
" transform="scale(0.015625)"/>
     </defs>
     <use xlink:href="#DejaVuSans-Bold-50"/>
     <use xlink:href="#DejaVuSans-Bold-44" transform="translate(73.291016 0)"/>
     <use xlink:href="#DejaVuSans-Bold-52" transform="translate(156.298828 0)"/>
     <use xlink:href="#DejaVuSans-Bold-20" transform="translate(233.300781 0)"/>
     <use xlink:href="#DejaVuSans-Bold-45" transform="translate(268.115234 0)"/>
     <use xlink:href="#DejaVuSans-Bold-78" transform="translate(336.425781 0)"/>
     <use xlink:href="#DejaVuSans-Bold-61" transform="translate(400.927734 0)"/>
     <use xlink:href="#DejaVuSans-Bold-6d" transform="translate(468.408203 0)"/>
     <use xlink:href="#DejaVuSans-Bold-70" transform="translate(572.607422 0)"/>
     <use xlink:href="#DejaVuSans-Bold-6c" transform="translate(644.189453 0)"/>
     <use xlink:href="#DejaVuSans-Bold-65" transform="translate(678.466797 0)"/>
     <use xlink:href="#DejaVuSans-Bold-3a" transform="translate(746.289062 0)"/>
     <use xlink:href="#DejaVuSans-Bold-20" transform="translate(786.279297 0)"/>
     <use xlink:href="#DejaVuSans-Bold-50" transform="translate(821.09375 0)"/>
     <use xlink:href="#DejaVuSans-Bold-6f" transform="translate(894.384766 0)"/>
     <use xlink:href="#DejaVuSans-Bold-73" transform="translate(963.085938 0)"/>
     <use xlink:href="#DejaVuSans-Bold-69" transform="translate(1022.607422 0)"/>
     <use xlink:href="#DejaVuSans-Bold-74" transform="translate(1056.884766 0)"/>
     <use xlink:href="#DejaVuSans-Bold-69" transform="translate(1104.6875 0)"/>
     <use xlink:href="#DejaVuSans-Bold-6f" transform="translate(1138.964844 0)"/>
     <use xlink:href="#DejaVuSans-Bold-6e" transform="translate(1207.666016 0)"/>
     <use xlink:href="#DejaVuSans-Bold-20" transform="translate(1278.857422 0)"/>
     <use xlink:href="#DejaVuSans-Bold-45" transform="translate(1313.671875 0)"/>
     <use xlink:href="#DejaVuSans-Bold-72" transform="translate(1381.982422 0)"/>
     <use xlink:href="#DejaVuSans-Bold-72" transform="translate(1431.298828 0)"/>
     <use xlink:href="#DejaVuSans-Bold-6f" transform="translate(1480.615234 0)"/>
     <use xlink:href="#DejaVuSans-Bold-72" transform="translate(1549.316406 0)"/>
     <use xlink:href="#DejaVuSans-Bold-20" transform="translate(1598.632812 0)"/>
     <use xlink:href="#DejaVuSans-Bold-76" transform="translate(1633.447266 0)"/>
     <use xlink:href="#DejaVuSans-Bold-73" transform="translate(1698.632812 0)"/>
     <use xlink:href="#DejaVuSans-Bold-20" transform="translate(1758.154297 0)"/>
     <use xlink:href="#DejaVuSans-Bold-54" transform="translate(1792.96875 0)"/>
     <use xlink:href="#DejaVuSans-Bold-69" transform="translate(1861.181641 0)"/>
     <use xlink:href="#DejaVuSans-Bold-6d" transform="translate(1895.458984 0)"/>
     <use xlink:href="#DejaVuSans-Bold-65" transform="translate(1999.658203 0)"/>
    </g>
   </g>
   <g id="legend_1">
    <g id="patch_7">
     <path d="M 56.60125 64.929687 
L 201.937031 64.929687 
Q 204.137031 64.929687 204.137031 62.729687 
L 204.137031 31.537812 
Q 204.137031 29.337812 201.937031 29.337812 
L 56.60125 29.337812 
Q 54.40125 29.337812 54.40125 31.537812 
L 54.40125 62.729687 
Q 54.40125 64.929687 56.60125 64.929687 
z
" style="fill: #ffffff; opacity: 0.8; stroke: #cccccc; stroke-linejoin: miter"/>
    </g>
    <g id="line2d_33">
     <path d="M 58.80125 38.246094 
L 69.80125 38.246094 
L 80.80125 38.246094 
" style="fill: none; stroke: #ff0000; stroke-width: 2; stroke-linecap: square"/>
    </g>
    <g id="text_19">
     <!-- PDR (Gyro Heading) -->
     <g transform="translate(89.60125 42.096094) scale(0.11 -0.11)">
      <defs>
       <path id="DejaVuSans-44" d="M 1259 4147 
L 1259 519 
L 2022 519 
Q 2988 519 3436 956 
Q 3884 1394 3884 2338 
Q 3884 3275 3436 3711 
Q 2988 4147 2022 4147 
L 1259 4147 
z
M 628 4666 
L 1925 4666 
Q 3281 4666 3915 4102 
Q 4550 3538 4550 2338 
Q 4550 1131 3912 565 
Q 3275 0 1925 0 
L 628 0 
L 628 4666 
z
" transform="scale(0.015625)"/>
       <path id="DejaVuSans-52" d="M 2841 2188 
Q 3044 2119 3236 1894 
Q 3428 1669 3622 1275 
L 4263 0 
L 3584 0 
L 2988 1197 
Q 2756 1666 2539 1819 
Q 2322 1972 1947 1972 
L 1259 1972 
L 1259 0 
L 628 0 
L 628 4666 
L 2053 4666 
Q 2853 4666 3247 4331 
Q 3641 3997 3641 3322 
Q 3641 2881 3436 2590 
Q 3231 2300 2841 2188 
z
M 1259 4147 
L 1259 2491 
L 2053 2491 
Q 2509 2491 2742 2702 
Q 2975 2913 2975 3322 
Q 2975 3731 2742 3939 
Q 2509 4147 2053 4147 
L 1259 4147 
z
" transform="scale(0.015625)"/>
       <path id="DejaVuSans-28" d="M 1984 4856 
Q 1566 4138 1362 3434 
Q 1159 2731 1159 2009 
Q 1159 1288 1364 580 
Q 1569 -128 1984 -844 
L 1484 -844 
Q 1016 -109 783 600 
Q 550 1309 550 2009 
Q 550 2706 781 3412 
Q 1013 4119 1484 4856 
L 1984 4856 
z
" transform="scale(0.015625)"/>
       <path id="DejaVuSans-47" d="M 3809 666 
L 3809 1919 
L 2778 1919 
L 2778 2438 
L 4434 2438 
L 4434 434 
Q 4069 175 3628 42 
Q 3188 -91 2688 -91 
Q 1594 -91 976 548 
Q 359 1188 359 2328 
Q 359 3472 976 4111 
Q 1594 4750 2688 4750 
Q 3144 4750 3555 4637 
Q 3966 4525 4313 4306 
L 4313 3634 
Q 3963 3931 3569 4081 
Q 3175 4231 2741 4231 
Q 1884 4231 1454 3753 
Q 1025 3275 1025 2328 
Q 1025 1384 1454 906 
Q 1884 428 2741 428 
Q 3075 428 3337 486 
Q 3600 544 3809 666 
z
" transform="scale(0.015625)"/>
       <path id="DejaVuSans-79" d="M 2059 -325 
Q 1816 -950 1584 -1140 
Q 1353 -1331 966 -1331 
L 506 -1331 
L 506 -850 
L 844 -850 
Q 1081 -850 1212 -737 
Q 1344 -625 1503 -206 
L 1606 56 
L 191 3500 
L 800 3500 
L 1894 763 
L 2988 3500 
L 3597 3500 
L 2059 -325 
z
" transform="scale(0.015625)"/>
       <path id="DejaVuSans-48" d="M 628 4666 
L 1259 4666 
L 1259 2753 
L 3553 2753 
L 3553 4666 
L 4184 4666 
L 4184 0 
L 3553 0 
L 3553 2222 
L 1259 2222 
L 1259 0 
L 628 0 
L 628 4666 
z
" transform="scale(0.015625)"/>
       <path id="DejaVuSans-61" d="M 2194 1759 
Q 1497 1759 1228 1600 
Q 959 1441 959 1056 
Q 959 750 1161 570 
Q 1363 391 1709 391 
Q 2188 391 2477 730 
Q 2766 1069 2766 1631 
L 2766 1759 
L 2194 1759 
z
M 3341 1997 
L 3341 0 
L 2766 0 
L 2766 531 
Q 2569 213 2275 61 
Q 1981 -91 1556 -91 
Q 1019 -91 701 211 
Q 384 513 384 1019 
Q 384 1609 779 1909 
Q 1175 2209 1959 2209 
L 2766 2209 
L 2766 2266 
Q 2766 2663 2505 2880 
Q 2244 3097 1772 3097 
Q 1472 3097 1187 3025 
Q 903 2953 641 2809 
L 641 3341 
Q 956 3463 1253 3523 
Q 1550 3584 1831 3584 
Q 2591 3584 2966 3190 
Q 3341 2797 3341 1997 
z
" transform="scale(0.015625)"/>
       <path id="DejaVuSans-64" d="M 2906 2969 
L 2906 4863 
L 3481 4863 
L 3481 0 
L 2906 0 
L 2906 525 
Q 2725 213 2448 61 
Q 2172 -91 1784 -91 
Q 1150 -91 751 415 
Q 353 922 353 1747 
Q 353 2572 751 3078 
Q 1150 3584 1784 3584 
Q 2172 3584 2448 3432 
Q 2725 3281 2906 2969 
z
M 947 1747 
Q 947 1113 1208 752 
Q 1469 391 1925 391 
Q 2381 391 2643 752 
Q 2906 1113 2906 1747 
Q 2906 2381 2643 2742 
Q 2381 3103 1925 3103 
Q 1469 3103 1208 2742 
Q 947 2381 947 1747 
z
" transform="scale(0.015625)"/>
       <path id="DejaVuSans-67" d="M 2906 1791 
Q 2906 2416 2648 2759 
Q 2391 3103 1925 3103 
Q 1463 3103 1205 2759 
Q 947 2416 947 1791 
Q 947 1169 1205 825 
Q 1463 481 1925 481 
Q 2391 481 2648 825 
Q 2906 1169 2906 1791 
z
M 3481 434 
Q 3481 -459 3084 -895 
Q 2688 -1331 1869 -1331 
Q 1566 -1331 1297 -1286 
Q 1028 -1241 775 -1147 
L 775 -588 
Q 1028 -725 1275 -790 
Q 1522 -856 1778 -856 
Q 2344 -856 2625 -561 
Q 2906 -266 2906 331 
L 2906 616 
Q 2728 306 2450 153 
Q 2172 0 1784 0 
Q 1141 0 747 490 
Q 353 981 353 1791 
Q 353 2603 747 3093 
Q 1141 3584 1784 3584 
Q 2172 3584 2450 3431 
Q 2728 3278 2906 2969 
L 2906 3500 
L 3481 3500 
L 3481 434 
z
" transform="scale(0.015625)"/>
       <path id="DejaVuSans-29" d="M 513 4856 
L 1013 4856 
Q 1481 4119 1714 3412 
Q 1947 2706 1947 2009 
Q 1947 1309 1714 600 
Q 1481 -109 1013 -844 
L 513 -844 
Q 928 -128 1133 580 
Q 1338 1288 1338 2009 
Q 1338 2731 1133 3434 
Q 928 4138 513 4856 
z
" transform="scale(0.015625)"/>
      </defs>
      <use xlink:href="#DejaVuSans-50"/>
      <use xlink:href="#DejaVuSans-44" transform="translate(60.302734 0)"/>
      <use xlink:href="#DejaVuSans-52" transform="translate(137.304688 0)"/>
      <use xlink:href="#DejaVuSans-20" transform="translate(206.787109 0)"/>
      <use xlink:href="#DejaVuSans-28" transform="translate(238.574219 0)"/>
      <use xlink:href="#DejaVuSans-47" transform="translate(277.587891 0)"/>
      <use xlink:href="#DejaVuSans-79" transform="translate(355.078125 0)"/>
      <use xlink:href="#DejaVuSans-72" transform="translate(414.257812 0)"/>
      <use xlink:href="#DejaVuSans-6f" transform="translate(453.121094 0)"/>
      <use xlink:href="#DejaVuSans-20" transform="translate(514.302734 0)"/>
      <use xlink:href="#DejaVuSans-48" transform="translate(546.089844 0)"/>
      <use xlink:href="#DejaVuSans-65" transform="translate(621.285156 0)"/>
      <use xlink:href="#DejaVuSans-61" transform="translate(682.808594 0)"/>
      <use xlink:href="#DejaVuSans-64" transform="translate(744.087891 0)"/>
      <use xlink:href="#DejaVuSans-69" transform="translate(807.564453 0)"/>
      <use xlink:href="#DejaVuSans-6e" transform="translate(835.347656 0)"/>
      <use xlink:href="#DejaVuSans-67" transform="translate(898.726562 0)"/>
      <use xlink:href="#DejaVuSans-29" transform="translate(962.203125 0)"/>
     </g>
    </g>
    <g id="line2d_34">
     <path d="M 58.80125 54.392031 
L 69.80125 54.392031 
L 80.80125 54.392031 
" style="fill: none; stroke: #0000ff; stroke-width: 2; stroke-linecap: square"/>
    </g>
    <g id="text_20">
     <!-- PDR (Mag Heading) -->
     <g transform="translate(89.60125 58.242031) scale(0.11 -0.11)">
      <defs>
       <path id="DejaVuSans-4d" d="M 628 4666 
L 1569 4666 
L 2759 1491 
L 3956 4666 
L 4897 4666 
L 4897 0 
L 4281 0 
L 4281 4097 
L 3078 897 
L 2444 897 
L 1241 4097 
L 1241 0 
L 628 0 
L 628 4666 
z
" transform="scale(0.015625)"/>
      </defs>
      <use xlink:href="#DejaVuSans-50"/>
      <use xlink:href="#DejaVuSans-44" transform="translate(60.302734 0)"/>
      <use xlink:href="#DejaVuSans-52" transform="translate(137.304688 0)"/>
      <use xlink:href="#DejaVuSans-20" transform="translate(206.787109 0)"/>
      <use xlink:href="#DejaVuSans-28" transform="translate(238.574219 0)"/>
      <use xlink:href="#DejaVuSans-4d" transform="translate(277.587891 0)"/>
      <use xlink:href="#DejaVuSans-61" transform="translate(363.867188 0)"/>
      <use xlink:href="#DejaVuSans-67" transform="translate(425.146484 0)"/>
      <use xlink:href="#DejaVuSans-20" transform="translate(488.623047 0)"/>
      <use xlink:href="#DejaVuSans-48" transform="translate(520.410156 0)"/>
      <use xlink:href="#DejaVuSans-65" transform="translate(595.605469 0)"/>
      <use xlink:href="#DejaVuSans-61" transform="translate(657.128906 0)"/>
      <use xlink:href="#DejaVuSans-64" transform="translate(718.408203 0)"/>
      <use xlink:href="#DejaVuSans-69" transform="translate(781.884766 0)"/>
      <use xlink:href="#DejaVuSans-6e" transform="translate(809.667969 0)"/>
      <use xlink:href="#DejaVuSans-67" transform="translate(873.046875 0)"/>
      <use xlink:href="#DejaVuSans-29" transform="translate(936.523438 0)"/>
     </g>
    </g>
   </g>
  </g>
 </g>
 <defs>
  <clipPath id="pb90d0e470c">
   <rect x="48.90125" y="23.837812" width="799.36" height="359.56"/>
  </clipPath>
 </defs>
</svg>
