<?xml version="1.0" encoding="utf-8" standalone="no"?>
<!DOCTYPE svg PUBLIC "-//W3C//DTD SVG 1.1//EN"
  "http://www.w3.org/Graphics/SVG/1.1/DTD/svg11.dtd">
<svg xmlns:xlink="http://www.w3.org/1999/xlink" width="855.55125pt" height="422.889687pt" viewBox="0 0 855.55125 422.889687" xmlns="http://www.w3.org/2000/svg" version="1.1">
 <metadata>
  <rdf:RDF xmlns:dc="http://purl.org/dc/elements/1.1/" xmlns:cc="http://creativecommons.org/ns#" xmlns:rdf="http://www.w3.org/1999/02/22-rdf-syntax-ns#">
   <cc:Work>
    <dc:type rdf:resource="http://purl.org/dc/dcmitype/StillImage"/>
    <dc:date>2026-01-09T17:25:00.840749</dc:date>
    <dc:format>image/svg+xml</dc:format>
    <dc:creator>
     <cc:Agent>
      <dc:title>Matplotlib v3.9.2, https://matplotlib.org/</dc:title>
     </cc:Agent>
    </dc:creator>
   </cc:Work>
  </rdf:RDF>
 </metadata>
 <defs>
  <style type="text/css">*{stroke-linejoin: round; stroke-linecap: butt}</style>
 </defs>
 <g id="figure_1">
  <g id="patch_1">
   <path d="M 0 422.889687 
L 855.55125 422.889687 
L 855.55125 0 
L 0 0 
z
" style="fill: #ffffff"/>
  </g>
  <g id="axes_1">
   <g id="patch_2">
    <path d="M 48.90125 383.397812 
L 848.35125 383.397812 
L 848.35125 23.837812 
L 48.90125 23.837812 
z
" style="fill: #ffffff"/>
   </g>
   <g id="matplotlib.axis_1">
    <g id="xtick_1">
     <g id="line2d_1">
      <path d="M 48.90125 383.397812 
L 48.90125 23.837812 
" clip-path="url(#p47aaedf0b2)" style="fill: none; stroke: #b0b0b0; stroke-opacity: 0.3; stroke-width: 0.8; stroke-linecap: square"/>
     </g>
     <g id="line2d_2">
      <defs>
       <path id="m97db74751d" d="M 0 0 
L 0 3.5 
" style="stroke: #000000; stroke-width: 0.8"/>
      </defs>
      <g>
       <use xlink:href="#m97db74751d" x="48.90125" y="383.397812" style="stroke: #000000; stroke-width: 0.8"/>
      </g>
     </g>
     <g id="text_1">
      <!-- 0 -->
      <g transform="translate(45.72 397.99625) scale(0.1 -0.1)">
       <defs>
        <path id="DejaVuSans-30" d="M 2034 4250 
Q 1547 4250 1301 3770 
Q 1056 3291 1056 2328 
Q 1056 1369 1301 889 
Q 1547 409 2034 409 
Q 2525 409 2770 889 
Q 3016 1369 3016 2328 
Q 3016 3291 2770 3770 
Q 2525 4250 2034 4250 
z
M 2034 4750 
Q 2819 4750 3233 4129 
Q 3647 3509 3647 2328 
Q 3647 1150 3233 529 
Q 2819 -91 2034 -91 
Q 1250 -91 836 529 
Q 422 1150 422 2328 
Q 422 3509 836 4129 
Q 1250 4750 2034 4750 
z
" transform="scale(0.015625)"/>
       </defs>
       <use xlink:href="#DejaVuSans-30"/>
      </g>
     </g>
    </g>
    <g id="xtick_2">
     <g id="line2d_3">
      <path d="M 182.154021 383.397812 
L 182.154021 23.837812 
" clip-path="url(#p47aaedf0b2)" style="fill: none; stroke: #b0b0b0; stroke-opacity: 0.3; stroke-width: 0.8; stroke-linecap: square"/>
     </g>
     <g id="line2d_4">
      <g>
       <use xlink:href="#m97db74751d" x="182.154021" y="383.397812" style="stroke: #000000; stroke-width: 0.8"/>
      </g>
     </g>
     <g id="text_2">
      <!-- 20 -->
      <g transform="translate(175.791521 397.99625) scale(0.1 -0.1)">
       <defs>
        <path id="DejaVuSans-32" d="M 1228 531 
L 3431 531 
L 3431 0 
L 469 0 
L 469 531 
Q 828 903 1448 1529 
Q 2069 2156 2228 2338 
Q 2531 2678 2651 2914 
Q 2772 3150 2772 3378 
Q 2772 3750 2511 3984 
Q 2250 4219 1831 4219 
Q 1534 4219 1204 4116 
Q 875 4013 500 3803 
L 500 4441 
Q 881 4594 1212 4672 
Q 1544 4750 1819 4750 
Q 2544 4750 2975 4387 
Q 3406 4025 3406 3419 
Q 3406 3131 3298 2873 
Q 3191 2616 2906 2266 
Q 2828 2175 2409 1742 
Q 1991 1309 1228 531 
z
" transform="scale(0.015625)"/>
       </defs>
       <use xlink:href="#DejaVuSans-32"/>
       <use xlink:href="#DejaVuSans-30" x="63.623047"/>
      </g>
     </g>
    </g>
    <g id="xtick_3">
     <g id="line2d_5">
      <path d="M 315.406792 383.397812 
L 315.406792 23.837812 
" clip-path="url(#p47aaedf0b2)" style="fill: none; stroke: #b0b0b0; stroke-opacity: 0.3; stroke-width: 0.8; stroke-linecap: square"/>
     </g>
     <g id="line2d_6">
      <g>
       <use xlink:href="#m97db74751d" x="315.406792" y="383.397812" style="stroke: #000000; stroke-width: 0.8"/>
      </g>
     </g>
     <g id="text_3">
      <!-- 40 -->
      <g transform="translate(309.044292 397.99625) scale(0.1 -0.1)">
       <defs>
        <path id="DejaVuSans-34" d="M 2419 4116 
L 825 1625 
L 2419 1625 
L 2419 4116 
z
M 2253 4666 
L 3047 4666 
L 3047 1625 
L 3713 1625 
L 3713 1100 
L 3047 1100 
L 3047 0 
L 2419 0 
L 2419 1100 
L 313 1100 
L 313 1709 
L 2253 4666 
z
" transform="scale(0.015625)"/>
       </defs>
       <use xlink:href="#DejaVuSans-34"/>
       <use xlink:href="#DejaVuSans-30" x="63.623047"/>
      </g>
     </g>
    </g>
    <g id="xtick_4">
     <g id="line2d_7">
      <path d="M 448.659563 383.397812 
L 448.659563 23.837812 
" clip-path="url(#p47aaedf0b2)" style="fill: none; stroke: #b0b0b0; stroke-opacity: 0.3; stroke-width: 0.8; stroke-linecap: square"/>
     </g>
     <g id="line2d_8">
      <g>
       <use xlink:href="#m97db74751d" x="448.659563" y="383.397812" style="stroke: #000000; stroke-width: 0.8"/>
      </g>
     </g>
     <g id="text_4">
      <!-- 60 -->
      <g transform="translate(442.297063 397.99625) scale(0.1 -0.1)">
       <defs>
        <path id="DejaVuSans-36" d="M 2113 2584 
Q 1688 2584 1439 2293 
Q 1191 2003 1191 1497 
Q 1191 994 1439 701 
Q 1688 409 2113 409 
Q 2538 409 2786 701 
Q 3034 994 3034 1497 
Q 3034 2003 2786 2293 
Q 2538 2584 2113 2584 
z
M 3366 4563 
L 3366 3988 
Q 3128 4100 2886 4159 
Q 2644 4219 2406 4219 
Q 1781 4219 1451 3797 
Q 1122 3375 1075 2522 
Q 1259 2794 1537 2939 
Q 1816 3084 2150 3084 
Q 2853 3084 3261 2657 
Q 3669 2231 3669 1497 
Q 3669 778 3244 343 
Q 2819 -91 2113 -91 
Q 1303 -91 875 529 
Q 447 1150 447 2328 
Q 447 3434 972 4092 
Q 1497 4750 2381 4750 
Q 2619 4750 2861 4703 
Q 3103 4656 3366 4563 
z
" transform="scale(0.015625)"/>
       </defs>
       <use xlink:href="#DejaVuSans-36"/>
       <use xlink:href="#DejaVuSans-30" x="63.623047"/>
      </g>
     </g>
    </g>
    <g id="xtick_5">
     <g id="line2d_9">
      <path d="M 581.912334 383.397812 
L 581.912334 23.837812 
" clip-path="url(#p47aaedf0b2)" style="fill: none; stroke: #b0b0b0; stroke-opacity: 0.3; stroke-width: 0.8; stroke-linecap: square"/>
     </g>
     <g id="line2d_10">
      <g>
       <use xlink:href="#m97db74751d" x="581.912334" y="383.397812" style="stroke: #000000; stroke-width: 0.8"/>
      </g>
     </g>
     <g id="text_5">
      <!-- 80 -->
      <g transform="translate(575.549834 397.99625) scale(0.1 -0.1)">
       <defs>
        <path id="DejaVuSans-38" d="M 2034 2216 
Q 1584 2216 1326 1975 
Q 1069 1734 1069 1313 
Q 1069 891 1326 650 
Q 1584 409 2034 409 
Q 2484 409 2743 651 
Q 3003 894 3003 1313 
Q 3003 1734 2745 1975 
Q 2488 2216 2034 2216 
z
M 1403 2484 
Q 997 2584 770 2862 
Q 544 3141 544 3541 
Q 544 4100 942 4425 
Q 1341 4750 2034 4750 
Q 2731 4750 3128 4425 
Q 3525 4100 3525 3541 
Q 3525 3141 3298 2862 
Q 3072 2584 2669 2484 
Q 3125 2378 3379 2068 
Q 3634 1759 3634 1313 
Q 3634 634 3220 271 
Q 2806 -91 2034 -91 
Q 1263 -91 848 271 
Q 434 634 434 1313 
Q 434 1759 690 2068 
Q 947 2378 1403 2484 
z
M 1172 3481 
Q 1172 3119 1398 2916 
Q 1625 2713 2034 2713 
Q 2441 2713 2670 2916 
Q 2900 3119 2900 3481 
Q 2900 3844 2670 4047 
Q 2441 4250 2034 4250 
Q 1625 4250 1398 4047 
Q 1172 3844 1172 3481 
z
" transform="scale(0.015625)"/>
       </defs>
       <use xlink:href="#DejaVuSans-38"/>
       <use xlink:href="#DejaVuSans-30" x="63.623047"/>
      </g>
     </g>
    </g>
    <g id="xtick_6">
     <g id="line2d_11">
      <path d="M 715.165105 383.397812 
L 715.165105 23.837812 
" clip-path="url(#p47aaedf0b2)" style="fill: none; stroke: #b0b0b0; stroke-opacity: 0.3; stroke-width: 0.8; stroke-linecap: square"/>
     </g>
     <g id="line2d_12">
      <g>
       <use xlink:href="#m97db74751d" x="715.165105" y="383.397812" style="stroke: #000000; stroke-width: 0.8"/>
      </g>
     </g>
     <g id="text_6">
      <!-- 100 -->
      <g transform="translate(705.621355 397.99625) scale(0.1 -0.1)">
       <defs>
        <path id="DejaVuSans-31" d="M 794 531 
L 1825 531 
L 1825 4091 
L 703 3866 
L 703 4441 
L 1819 4666 
L 2450 4666 
L 2450 531 
L 3481 531 
L 3481 0 
L 794 0 
L 794 531 
z
" transform="scale(0.015625)"/>
       </defs>
       <use xlink:href="#DejaVuSans-31"/>
       <use xlink:href="#DejaVuSans-30" x="63.623047"/>
       <use xlink:href="#DejaVuSans-30" x="127.246094"/>
      </g>
     </g>
    </g>
    <g id="text_7">
     <!-- Time [s] -->
     <g transform="translate(424.231563 413.194062) scale(0.12 -0.12)">
      <defs>
       <path id="DejaVuSans-54" d="M -19 4666 
L 3928 4666 
L 3928 4134 
L 2272 4134 
L 2272 0 
L 1638 0 
L 1638 4134 
L -19 4134 
L -19 4666 
z
" transform="scale(0.015625)"/>
       <path id="DejaVuSans-69" d="M 603 3500 
L 1178 3500 
L 1178 0 
L 603 0 
L 603 3500 
z
M 603 4863 
L 1178 4863 
L 1178 4134 
L 603 4134 
L 603 4863 
z
" transform="scale(0.015625)"/>
       <path id="DejaVuSans-6d" d="M 3328 2828 
Q 3544 3216 3844 3400 
Q 4144 3584 4550 3584 
Q 5097 3584 5394 3201 
Q 5691 2819 5691 2113 
L 5691 0 
L 5113 0 
L 5113 2094 
Q 5113 2597 4934 2840 
Q 4756 3084 4391 3084 
Q 3944 3084 3684 2787 
Q 3425 2491 3425 1978 
L 3425 0 
L 2847 0 
L 2847 2094 
Q 2847 2600 2669 2842 
Q 2491 3084 2119 3084 
Q 1678 3084 1418 2786 
Q 1159 2488 1159 1978 
L 1159 0 
L 581 0 
L 581 3500 
L 1159 3500 
L 1159 2956 
Q 1356 3278 1631 3431 
Q 1906 3584 2284 3584 
Q 2666 3584 2933 3390 
Q 3200 3197 3328 2828 
z
" transform="scale(0.015625)"/>
       <path id="DejaVuSans-65" d="M 3597 1894 
L 3597 1613 
L 953 1613 
Q 991 1019 1311 708 
Q 1631 397 2203 397 
Q 2534 397 2845 478 
Q 3156 559 3463 722 
L 3463 178 
Q 3153 47 2828 -22 
Q 2503 -91 2169 -91 
Q 1331 -91 842 396 
Q 353 884 353 1716 
Q 353 2575 817 3079 
Q 1281 3584 2069 3584 
Q 2775 3584 3186 3129 
Q 3597 2675 3597 1894 
z
M 3022 2063 
Q 3016 2534 2758 2815 
Q 2500 3097 2075 3097 
Q 1594 3097 1305 2825 
Q 1016 2553 972 2059 
L 3022 2063 
z
" transform="scale(0.015625)"/>
       <path id="DejaVuSans-20" transform="scale(0.015625)"/>
       <path id="DejaVuSans-5b" d="M 550 4863 
L 1875 4863 
L 1875 4416 
L 1125 4416 
L 1125 -397 
L 1875 -397 
L 1875 -844 
L 550 -844 
L 550 4863 
z
" transform="scale(0.015625)"/>
       <path id="DejaVuSans-73" d="M 2834 3397 
L 2834 2853 
Q 2591 2978 2328 3040 
Q 2066 3103 1784 3103 
Q 1356 3103 1142 2972 
Q 928 2841 928 2578 
Q 928 2378 1081 2264 
Q 1234 2150 1697 2047 
L 1894 2003 
Q 2506 1872 2764 1633 
Q 3022 1394 3022 966 
Q 3022 478 2636 193 
Q 2250 -91 1575 -91 
Q 1294 -91 989 -36 
Q 684 19 347 128 
L 347 722 
Q 666 556 975 473 
Q 1284 391 1588 391 
Q 1994 391 2212 530 
Q 2431 669 2431 922 
Q 2431 1156 2273 1281 
Q 2116 1406 1581 1522 
L 1381 1569 
Q 847 1681 609 1914 
Q 372 2147 372 2553 
Q 372 3047 722 3315 
Q 1072 3584 1716 3584 
Q 2034 3584 2315 3537 
Q 2597 3491 2834 3397 
z
" transform="scale(0.015625)"/>
       <path id="DejaVuSans-5d" d="M 1947 4863 
L 1947 -844 
L 622 -844 
L 622 -397 
L 1369 -397 
L 1369 4416 
L 622 4416 
L 622 4863 
L 1947 4863 
z
" transform="scale(0.015625)"/>
      </defs>
      <use xlink:href="#DejaVuSans-54"/>
      <use xlink:href="#DejaVuSans-69" x="57.958984"/>
      <use xlink:href="#DejaVuSans-6d" x="85.742188"/>
      <use xlink:href="#DejaVuSans-65" x="183.154297"/>
      <use xlink:href="#DejaVuSans-20" x="244.677734"/>
      <use xlink:href="#DejaVuSans-5b" x="276.464844"/>
      <use xlink:href="#DejaVuSans-73" x="315.478516"/>
      <use xlink:href="#DejaVuSans-5d" x="367.578125"/>
     </g>
    </g>
   </g>
   <g id="matplotlib.axis_2">
    <g id="ytick_1">
     <g id="line2d_13">
      <path d="M 48.90125 367.054176 
L 848.35125 367.054176 
" clip-path="url(#p47aaedf0b2)" style="fill: none; stroke: #b0b0b0; stroke-opacity: 0.3; stroke-width: 0.8; stroke-linecap: square"/>
     </g>
     <g id="line2d_14">
      <defs>
       <path id="m29836e22ce" d="M 0 0 
L -3.5 0 
" style="stroke: #000000; stroke-width: 0.8"/>
      </defs>
      <g>
       <use xlink:href="#m29836e22ce" x="48.90125" y="367.054176" style="stroke: #000000; stroke-width: 0.8"/>
      </g>
     </g>
     <g id="text_8">
      <!-- 0 -->
      <g transform="translate(35.53875 370.853395) scale(0.1 -0.1)">
       <use xlink:href="#DejaVuSans-30"/>
      </g>
     </g>
    </g>
    <g id="ytick_2">
     <g id="line2d_15">
      <path d="M 48.90125 323.237043 
L 848.35125 323.237043 
" clip-path="url(#p47aaedf0b2)" style="fill: none; stroke: #b0b0b0; stroke-opacity: 0.3; stroke-width: 0.8; stroke-linecap: square"/>
     </g>
     <g id="line2d_16">
      <g>
       <use xlink:href="#m29836e22ce" x="48.90125" y="323.237043" style="stroke: #000000; stroke-width: 0.8"/>
      </g>
     </g>
     <g id="text_9">
      <!-- 25 -->
      <g transform="translate(29.17625 327.036261) scale(0.1 -0.1)">
       <defs>
        <path id="DejaVuSans-35" d="M 691 4666 
L 3169 4666 
L 3169 4134 
L 1269 4134 
L 1269 2991 
Q 1406 3038 1543 3061 
Q 1681 3084 1819 3084 
Q 2600 3084 3056 2656 
Q 3513 2228 3513 1497 
Q 3513 744 3044 326 
Q 2575 -91 1722 -91 
Q 1428 -91 1123 -41 
Q 819 9 494 109 
L 494 744 
Q 775 591 1075 516 
Q 1375 441 1709 441 
Q 2250 441 2565 725 
Q 2881 1009 2881 1497 
Q 2881 1984 2565 2268 
Q 2250 2553 1709 2553 
Q 1456 2553 1204 2497 
Q 953 2441 691 2322 
L 691 4666 
z
" transform="scale(0.015625)"/>
       </defs>
       <use xlink:href="#DejaVuSans-32"/>
       <use xlink:href="#DejaVuSans-35" x="63.623047"/>
      </g>
     </g>
    </g>
    <g id="ytick_3">
     <g id="line2d_17">
      <path d="M 48.90125 279.419909 
L 848.35125 279.419909 
" clip-path="url(#p47aaedf0b2)" style="fill: none; stroke: #b0b0b0; stroke-opacity: 0.3; stroke-width: 0.8; stroke-linecap: square"/>
     </g>
     <g id="line2d_18">
      <g>
       <use xlink:href="#m29836e22ce" x="48.90125" y="279.419909" style="stroke: #000000; stroke-width: 0.8"/>
      </g>
     </g>
     <g id="text_10">
      <!-- 50 -->
      <g transform="translate(29.17625 283.219128) scale(0.1 -0.1)">
       <use xlink:href="#DejaVuSans-35"/>
       <use xlink:href="#DejaVuSans-30" x="63.623047"/>
      </g>
     </g>
    </g>
    <g id="ytick_4">
     <g id="line2d_19">
      <path d="M 48.90125 235.602776 
L 848.35125 235.602776 
" clip-path="url(#p47aaedf0b2)" style="fill: none; stroke: #b0b0b0; stroke-opacity: 0.3; stroke-width: 0.8; stroke-linecap: square"/>
     </g>
     <g id="line2d_20">
      <g>
       <use xlink:href="#m29836e22ce" x="48.90125" y="235.602776" style="stroke: #000000; stroke-width: 0.8"/>
      </g>
     </g>
     <g id="text_11">
      <!-- 75 -->
      <g transform="translate(29.17625 239.401995) scale(0.1 -0.1)">
       <defs>
        <path id="DejaVuSans-37" d="M 525 4666 
L 3525 4666 
L 3525 4397 
L 1831 0 
L 1172 0 
L 2766 4134 
L 525 4134 
L 525 4666 
z
" transform="scale(0.015625)"/>
       </defs>
       <use xlink:href="#DejaVuSans-37"/>
       <use xlink:href="#DejaVuSans-35" x="63.623047"/>
      </g>
     </g>
    </g>
    <g id="ytick_5">
     <g id="line2d_21">
      <path d="M 48.90125 191.785642 
L 848.35125 191.785642 
" clip-path="url(#p47aaedf0b2)" style="fill: none; stroke: #b0b0b0; stroke-opacity: 0.3; stroke-width: 0.8; stroke-linecap: square"/>
     </g>
     <g id="line2d_22">
      <g>
       <use xlink:href="#m29836e22ce" x="48.90125" y="191.785642" style="stroke: #000000; stroke-width: 0.8"/>
      </g>
     </g>
     <g id="text_12">
      <!-- 100 -->
      <g transform="translate(22.81375 195.584861) scale(0.1 -0.1)">
       <use xlink:href="#DejaVuSans-31"/>
       <use xlink:href="#DejaVuSans-30" x="63.623047"/>
       <use xlink:href="#DejaVuSans-30" x="127.246094"/>
      </g>
     </g>
    </g>
    <g id="ytick_6">
     <g id="line2d_23">
      <path d="M 48.90125 147.968509 
L 848.35125 147.968509 
" clip-path="url(#p47aaedf0b2)" style="fill: none; stroke: #b0b0b0; stroke-opacity: 0.3; stroke-width: 0.8; stroke-linecap: square"/>
     </g>
     <g id="line2d_24">
      <g>
       <use xlink:href="#m29836e22ce" x="48.90125" y="147.968509" style="stroke: #000000; stroke-width: 0.8"/>
      </g>
     </g>
     <g id="text_13">
      <!-- 125 -->
      <g transform="translate(22.81375 151.767728) scale(0.1 -0.1)">
       <use xlink:href="#DejaVuSans-31"/>
       <use xlink:href="#DejaVuSans-32" x="63.623047"/>
       <use xlink:href="#DejaVuSans-35" x="127.246094"/>
      </g>
     </g>
    </g>
    <g id="ytick_7">
     <g id="line2d_25">
      <path d="M 48.90125 104.151376 
L 848.35125 104.151376 
" clip-path="url(#p47aaedf0b2)" style="fill: none; stroke: #b0b0b0; stroke-opacity: 0.3; stroke-width: 0.8; stroke-linecap: square"/>
     </g>
     <g id="line2d_26">
      <g>
       <use xlink:href="#m29836e22ce" x="48.90125" y="104.151376" style="stroke: #000000; stroke-width: 0.8"/>
      </g>
     </g>
     <g id="text_14">
      <!-- 150 -->
      <g transform="translate(22.81375 107.950594) scale(0.1 -0.1)">
       <use xlink:href="#DejaVuSans-31"/>
       <use xlink:href="#DejaVuSans-35" x="63.623047"/>
       <use xlink:href="#DejaVuSans-30" x="127.246094"/>
      </g>
     </g>
    </g>
    <g id="ytick_8">
     <g id="line2d_27">
      <path d="M 48.90125 60.334242 
L 848.35125 60.334242 
" clip-path="url(#p47aaedf0b2)" style="fill: none; stroke: #b0b0b0; stroke-opacity: 0.3; stroke-width: 0.8; stroke-linecap: square"/>
     </g>
     <g id="line2d_28">
      <g>
       <use xlink:href="#m29836e22ce" x="48.90125" y="60.334242" style="stroke: #000000; stroke-width: 0.8"/>
      </g>
     </g>
     <g id="text_15">
      <!-- 175 -->
      <g transform="translate(22.81375 64.133461) scale(0.1 -0.1)">
       <use xlink:href="#DejaVuSans-31"/>
       <use xlink:href="#DejaVuSans-37" x="63.623047"/>
       <use xlink:href="#DejaVuSans-35" x="127.246094"/>
      </g>
     </g>
    </g>
    <g id="text_16">
     <!-- Position Error [m] -->
     <g transform="translate(16.318125 255.936875) rotate(-90) scale(0.12 -0.12)">
      <defs>
       <path id="DejaVuSans-50" d="M 1259 4147 
L 1259 2394 
L 2053 2394 
Q 2494 2394 2734 2622 
Q 2975 2850 2975 3272 
Q 2975 3691 2734 3919 
Q 2494 4147 2053 4147 
L 1259 4147 
z
M 628 4666 
L 2053 4666 
Q 2838 4666 3239 4311 
Q 3641 3956 3641 3272 
Q 3641 2581 3239 2228 
Q 2838 1875 2053 1875 
L 1259 1875 
L 1259 0 
L 628 0 
L 628 4666 
z
" transform="scale(0.015625)"/>
       <path id="DejaVuSans-6f" d="M 1959 3097 
Q 1497 3097 1228 2736 
Q 959 2375 959 1747 
Q 959 1119 1226 758 
Q 1494 397 1959 397 
Q 2419 397 2687 759 
Q 2956 1122 2956 1747 
Q 2956 2369 2687 2733 
Q 2419 3097 1959 3097 
z
M 1959 3584 
Q 2709 3584 3137 3096 
Q 3566 2609 3566 1747 
Q 3566 888 3137 398 
Q 2709 -91 1959 -91 
Q 1206 -91 779 398 
Q 353 888 353 1747 
Q 353 2609 779 3096 
Q 1206 3584 1959 3584 
z
" transform="scale(0.015625)"/>
       <path id="DejaVuSans-74" d="M 1172 4494 
L 1172 3500 
L 2356 3500 
L 2356 3053 
L 1172 3053 
L 1172 1153 
Q 1172 725 1289 603 
Q 1406 481 1766 481 
L 2356 481 
L 2356 0 
L 1766 0 
Q 1100 0 847 248 
Q 594 497 594 1153 
L 594 3053 
L 172 3053 
L 172 3500 
L 594 3500 
L 594 4494 
L 1172 4494 
z
" transform="scale(0.015625)"/>
       <path id="DejaVuSans-6e" d="M 3513 2113 
L 3513 0 
L 2938 0 
L 2938 2094 
Q 2938 2591 2744 2837 
Q 2550 3084 2163 3084 
Q 1697 3084 1428 2787 
Q 1159 2491 1159 1978 
L 1159 0 
L 581 0 
L 581 3500 
L 1159 3500 
L 1159 2956 
Q 1366 3272 1645 3428 
Q 1925 3584 2291 3584 
Q 2894 3584 3203 3211 
Q 3513 2838 3513 2113 
z
" transform="scale(0.015625)"/>
       <path id="DejaVuSans-45" d="M 628 4666 
L 3578 4666 
L 3578 4134 
L 1259 4134 
L 1259 2753 
L 3481 2753 
L 3481 2222 
L 1259 2222 
L 1259 531 
L 3634 531 
L 3634 0 
L 628 0 
L 628 4666 
z
" transform="scale(0.015625)"/>
       <path id="DejaVuSans-72" d="M 2631 2963 
Q 2534 3019 2420 3045 
Q 2306 3072 2169 3072 
Q 1681 3072 1420 2755 
Q 1159 2438 1159 1844 
L 1159 0 
L 581 0 
L 581 3500 
L 1159 3500 
L 1159 2956 
Q 1341 3275 1631 3429 
Q 1922 3584 2338 3584 
Q 2397 3584 2469 3576 
Q 2541 3569 2628 3553 
L 2631 2963 
z
" transform="scale(0.015625)"/>
      </defs>
      <use xlink:href="#DejaVuSans-50"/>
      <use xlink:href="#DejaVuSans-6f" x="56.677734"/>
      <use xlink:href="#DejaVuSans-73" x="117.859375"/>
      <use xlink:href="#DejaVuSans-69" x="169.958984"/>
      <use xlink:href="#DejaVuSans-74" x="197.742188"/>
      <use xlink:href="#DejaVuSans-69" x="236.951172"/>
      <use xlink:href="#DejaVuSans-6f" x="264.734375"/>
      <use xlink:href="#DejaVuSans-6e" x="325.916016"/>
      <use xlink:href="#DejaVuSans-20" x="389.294922"/>
      <use xlink:href="#DejaVuSans-45" x="421.082031"/>
      <use xlink:href="#DejaVuSans-72" x="484.265625"/>
      <use xlink:href="#DejaVuSans-72" x="523.628906"/>
      <use xlink:href="#DejaVuSans-6f" x="562.492188"/>
      <use xlink:href="#DejaVuSans-72" x="623.673828"/>
      <use xlink:href="#DejaVuSans-20" x="664.787109"/>
      <use xlink:href="#DejaVuSans-5b" x="696.574219"/>
      <use xlink:href="#DejaVuSans-6d" x="735.587891"/>
      <use xlink:href="#DejaVuSans-5d" x="833"/>
     </g>
    </g>
   </g>
   <g id="line2d_29">
    <path d="M 48.90125 367.054176 
L 51.366426 366.146285 
L 51.433053 364.962344 
L 51.499679 364.986882 
L 54.697746 366.164686 
L 54.764372 363.164963 
L 54.830998 363.189501 
L 58.029065 364.367305 
L 58.095691 361.367582 
L 58.162318 361.39212 
L 61.360384 362.569924 
L 61.42701 359.570201 
L 61.493637 359.594739 
L 64.691703 360.772543 
L 64.75833 357.77282 
L 64.824956 357.797358 
L 68.023023 358.975162 
L 68.089649 355.975439 
L 68.156275 355.999977 
L 71.354342 357.177781 
L 71.420968 354.178058 
L 71.487595 354.202596 
L 74.685661 355.3804 
L 74.752288 352.380677 
L 74.818914 352.405215 
L 78.01698 353.583019 
L 78.083607 350.583296 
L 78.150233 350.607834 
L 81.3483 351.785638 
L 81.414926 348.785915 
L 81.481553 348.810452 
L 84.679619 349.988257 
L 84.746245 346.988534 
L 84.812872 347.013071 
L 88.010938 348.190875 
L 88.077565 345.191152 
L 88.144191 345.21569 
L 91.342258 346.393494 
L 91.408884 343.393771 
L 91.47551 343.418309 
L 94.673577 344.596113 
L 94.740203 341.59639 
L 94.80683 341.620927 
L 98.004896 342.798732 
L 98.071523 339.799008 
L 98.138149 339.823546 
L 101.336215 341.00135 
L 101.402842 338.001627 
L 101.469468 338.026165 
L 104.667535 339.203969 
L 104.734161 336.204246 
L 104.800787 336.228783 
L 107.998854 337.406587 
L 108.06548 334.406864 
L 108.132107 334.431402 
L 111.330173 335.609205 
L 111.3968 332.609482 
L 111.463426 332.63402 
L 114.661493 333.811824 
L 114.728119 330.812101 
L 114.794745 330.836638 
L 117.992812 332.014442 
L 118.059438 329.014719 
L 118.126065 329.039256 
L 121.324131 330.21706 
L 121.390757 327.217337 
L 121.457384 327.241875 
L 124.65545 328.419678 
L 124.722077 325.419955 
L 124.788703 325.444493 
L 127.98677 326.622296 
L 128.053396 323.622573 
L 128.120022 323.647111 
L 131.318089 324.824914 
L 131.384715 321.825191 
L 131.451342 321.849729 
L 134.649408 323.027532 
L 134.716035 320.027809 
L 134.782661 320.052347 
L 137.980727 321.23015 
L 138.047354 318.230427 
L 138.11398 318.254965 
L 141.312047 319.432768 
L 141.378673 316.433045 
L 141.4453 316.457583 
L 144.643366 317.635386 
L 144.709992 314.635663 
L 144.776619 314.6602 
L 147.974685 315.838003 
L 148.041312 312.838281 
L 148.107938 312.862818 
L 151.306005 314.040621 
L 151.372631 311.040898 
L 151.439257 311.065436 
L 154.637324 312.243238 
L 154.70395 309.243516 
L 154.770577 309.268053 
L 157.968643 310.445856 
L 158.03527 307.446133 
L 158.101896 307.47067 
L 161.299962 308.648473 
L 161.366589 305.64875 
L 161.433215 305.673288 
L 164.631282 306.85109 
L 164.697908 303.851367 
L 164.764534 303.875905 
L 167.962601 305.053707 
L 168.029227 302.053984 
L 168.095854 302.078522 
L 171.29392 303.256324 
L 171.360547 300.256601 
L 171.427173 300.281139 
L 174.625239 301.458941 
L 174.691866 298.459218 
L 174.758492 298.483756 
L 177.956559 299.661557 
L 178.023185 296.661835 
L 178.089812 296.686372 
L 181.287878 297.864174 
L 181.354504 294.864451 
L 181.421131 294.888989 
L 184.619197 296.06679 
L 184.685824 293.067068 
L 184.75245 293.091606 
L 187.950517 294.269407 
L 188.017143 291.269685 
L 188.083769 291.294223 
L 191.281836 292.472024 
L 191.348462 289.472302 
L 191.415089 289.496839 
L 194.613155 290.67464 
L 194.679782 287.674919 
L 194.746408 287.699456 
L 197.944474 288.877257 
L 198.011101 285.877535 
L 198.077727 285.902072 
L 201.275794 287.079873 
L 201.34242 284.08015 
L 201.409046 284.104688 
L 204.607113 285.282488 
L 204.673739 282.282766 
L 204.740366 282.307303 
L 207.938432 283.485103 
L 208.005059 280.485381 
L 208.071685 280.509918 
L 211.269752 281.687718 
L 211.336378 278.687996 
L 211.403004 278.712533 
L 214.601071 279.890333 
L 214.667697 276.890611 
L 214.734324 276.915148 
L 217.93239 278.092947 
L 217.999016 275.093225 
L 218.065643 275.117762 
L 221.263709 276.295562 
L 221.330336 273.295839 
L 221.396962 273.320377 
L 224.595029 274.498176 
L 224.661655 271.498453 
L 224.728281 271.52299 
L 227.926348 272.700789 
L 227.992974 269.701067 
L 228.059601 269.725604 
L 231.257667 270.903403 
L 231.324294 267.90368 
L 231.39092 267.928217 
L 234.588986 269.106016 
L 234.655613 266.106293 
L 234.722239 266.13083 
L 239.252833 267.799378 
L 239.386086 264.910936 
L 244.582944 264.898545 
L 244.716197 264.472808 
L 247.914264 264.479159 
L 248.047516 263.978598 
L 251.245583 264.005057 
L 251.378836 263.454888 
L 254.576902 263.501256 
L 254.710155 262.902217 
L 257.908221 262.968279 
L 258.041474 262.320457 
L 261.239541 262.405984 
L 261.372793 261.710025 
L 264.57086 261.814775 
L 264.704113 261.072364 
L 267.902179 261.19609 
L 268.035432 260.407257 
L 271.233499 260.549697 
L 271.366751 259.71554 
L 274.564818 259.876425 
L 274.698071 258.997595 
L 277.896137 259.176649 
L 278.02939 258.253889 
L 281.227456 258.450827 
L 281.294083 257.480752 
L 281.360709 257.485351 
L 284.558776 257.699885 
L 284.625402 256.687307 
L 284.692028 256.692265 
L 287.890095 256.924101 
L 287.956721 255.869847 
L 288.023348 255.875158 
L 291.221414 256.123998 
L 291.288041 255.028976 
L 291.354667 255.034633 
L 294.552733 255.300174 
L 294.61936 254.164614 
L 294.685986 254.170611 
L 297.884053 254.452547 
L 297.950679 253.27775 
L 298.017306 253.284081 
L 301.215372 253.582107 
L 301.281998 252.368718 
L 301.348625 252.375375 
L 304.546691 252.689182 
L 304.613318 251.43844 
L 304.679944 251.445418 
L 307.878011 251.774699 
L 307.944637 250.487104 
L 308.011263 250.494396 
L 311.20933 250.838843 
L 311.275956 249.515341 
L 311.342583 249.52294 
L 314.540649 249.882247 
L 314.607276 248.523751 
L 314.673902 248.531652 
L 317.871968 248.905513 
L 317.938595 247.512965 
L 318.005221 247.521161 
L 321.203288 247.909273 
L 321.269914 246.483238 
L 321.33654 246.491723 
L 324.534607 246.893785 
L 324.601233 245.435227 
L 324.66786 245.443993 
L 327.865926 245.859709 
L 327.932553 244.369303 
L 327.999179 244.378347 
L 331.197245 244.80742 
L 331.263872 243.286294 
L 331.330498 243.295607 
L 334.395312 243.719519 
L 334.528565 242.126612 
L 337.859884 240.996397 
L 337.92651 243.247897 
L 337.993137 243.225426 
L 341.191203 242.145908 
L 341.25783 244.385715 
L 341.324456 244.363367 
L 344.522523 243.289673 
L 344.589149 245.504739 
L 344.655775 245.482519 
L 347.853842 244.41492 
L 347.920468 246.604773 
L 347.987095 246.582687 
L 351.185161 245.521464 
L 351.251788 247.685273 
L 351.318414 247.663328 
L 354.51648 246.608769 
L 354.583107 248.745561 
L 354.649733 248.723763 
L 357.8478 247.676167 
L 357.914426 249.78517 
L 357.981052 249.763524 
L 361.179119 248.723201 
L 361.245745 250.803527 
L 361.312372 250.782042 
L 364.510438 249.749307 
L 364.577065 251.799923 
L 364.643691 251.778604 
L 367.841758 250.753787 
L 367.908384 252.773776 
L 367.97501 252.752631 
L 371.173077 251.736066 
L 371.239703 253.724245 
L 371.30633 253.703281 
L 374.504396 252.695316 
L 374.571022 254.650854 
L 374.637649 254.630078 
L 377.835715 253.631067 
L 377.902342 255.553014 
L 377.968968 255.532434 
L 381.167035 254.542741 
L 381.233661 256.43037 
L 381.300287 256.409994 
L 384.498354 255.429988 
L 384.56498 257.281851 
L 384.631607 257.261688 
L 387.829673 256.291749 
L 387.8963 258.107234 
L 387.962926 258.08729 
L 391.160992 257.127804 
L 391.227619 258.906171 
L 391.294245 258.886456 
L 394.492312 257.937813 
L 394.558938 259.67776 
L 394.625565 259.658281 
L 397.823631 258.720879 
L 397.890257 260.422055 
L 397.956884 260.402821 
L 401.15495 259.47706 
L 401.221577 261.137849 
L 401.288203 261.118869 
L 404.48627 260.205156 
L 404.552896 261.824719 
L 404.619522 261.806001 
L 407.817589 260.904746 
L 407.884215 262.482451 
L 407.950842 262.464003 
L 411.148908 261.575619 
L 411.215535 263.110263 
L 411.282161 263.092095 
L 414.480227 262.216995 
L 414.546854 263.707188 
L 414.61348 263.689309 
L 417.811547 262.82791 
L 417.878173 264.272837 
L 417.944799 264.255255 
L 421.142866 263.407973 
L 421.209492 264.806563 
L 421.276119 264.789286 
L 424.474185 263.956536 
L 424.540812 265.307887 
L 424.607438 265.290925 
L 427.805505 264.473117 
L 427.872131 265.776927 
L 427.938757 265.760287 
L 431.136824 264.957828 
L 431.20345 266.213372 
L 431.270077 266.197063 
L 434.468143 265.410351 
L 434.534769 266.616036 
L 434.601396 266.600066 
L 437.799462 265.829497 
L 437.866089 266.985052 
L 437.932715 266.96943 
L 441.130782 266.215388 
L 441.197408 267.31989 
L 441.264034 267.304623 
L 444.462101 266.567485 
L 444.528727 267.620013 
L 444.595354 267.605108 
L 447.79342 266.885239 
L 447.860047 267.885092 
L 447.926673 267.870558 
L 451.124739 267.168312 
L 451.191366 268.114454 
L 451.257992 268.100297 
L 454.456059 267.416016 
L 454.522685 268.308932 
L 454.589312 268.295159 
L 457.787378 267.629166 
L 457.854004 268.467004 
L 457.920631 268.453621 
L 461.118697 267.806227 
L 461.185324 268.588604 
L 461.25195 268.575618 
L 464.450017 267.947114 
L 464.516643 268.673613 
L 464.583269 268.661028 
L 467.781336 268.05169 
L 467.847962 268.72185 
L 467.914589 268.709672 
L 471.112655 268.119754 
L 471.179282 268.734027 
L 471.245908 268.722261 
L 474.443974 268.151994 
L 474.510601 268.710471 
L 474.577227 268.699122 
L 477.775294 268.148717 
L 477.84192 268.6506 
L 477.908546 268.639671 
L 481.106613 268.109317 
L 481.173239 268.554809 
L 481.239866 268.544303 
L 484.437932 268.034166 
L 484.571185 268.41344 
L 487.769252 267.923665 
L 487.902504 268.247054 
L 491.100571 267.777759 
L 491.233824 268.044844 
L 494.43189 267.596128 
L 494.565143 267.806924 
L 497.763209 267.378859 
L 497.896462 267.533878 
L 501.494287 267.194108 
L 514.020047 265.810914 
L 517.751125 265.345303 
L 517.884378 265.171549 
L 521.082444 264.888168 
L 521.215697 264.661176 
L 524.746895 264.370089 
L 524.880148 264.075989 
L 527.745083 263.042348 
L 527.878336 259.930569 
L 531.076402 258.775872 
L 531.209655 255.706962 
L 534.407721 254.551459 
L 534.540974 251.482052 
L 537.739041 250.325814 
L 537.872293 247.255988 
L 541.07036 246.099076 
L 541.203613 243.028843 
L 544.401679 241.871313 
L 544.534932 238.800755 
L 547.732998 237.642657 
L 547.866251 234.571825 
L 551.064318 233.413201 
L 551.197571 230.342129 
L 554.395637 229.183016 
L 554.52889 226.111723 
L 557.726956 224.952157 
L 557.860209 221.88067 
L 561.058276 220.720681 
L 561.191528 217.649039 
L 564.389595 216.488656 
L 564.522848 213.41686 
L 567.720914 212.256108 
L 567.854167 209.184185 
L 571.052233 208.023086 
L 571.185486 204.951059 
L 574.383553 203.789635 
L 574.516805 200.717504 
L 577.714872 199.555773 
L 577.848125 196.483544 
L 581.046191 195.321524 
L 581.179444 192.249217 
L 584.377511 191.086924 
L 584.510763 188.014556 
L 587.70883 186.852004 
L 587.842083 183.779569 
L 591.040149 182.616772 
L 591.173402 179.544281 
L 594.371468 178.381252 
L 594.504721 175.308706 
L 597.702788 174.145457 
L 597.83604 171.072863 
L 601.034107 169.909405 
L 601.16736 166.83677 
L 604.365426 165.673114 
L 604.498679 162.600449 
L 607.696745 161.436603 
L 607.829998 158.363908 
L 611.028065 157.199882 
L 611.161318 154.127164 
L 614.359384 152.962966 
L 614.492637 149.890228 
L 617.75733 148.701605 
L 617.890582 145.636911 
L 620.022627 144.874441 
L 620.15588 144.365688 
L 624.353342 144.365688 
L 624.486595 143.861044 
L 627.684661 143.861044 
L 627.817914 143.300014 
L 631.01598 143.300014 
L 631.149233 142.700213 
L 634.3473 142.700213 
L 634.480552 142.061494 
L 637.678619 142.061494 
L 637.811872 141.384225 
L 641.009938 141.384225 
L 641.143191 140.668696 
L 644.341258 140.668696 
L 644.47451 139.915214 
L 647.672577 139.915214 
L 647.80583 139.125035 
L 651.003896 139.125035 
L 651.137149 138.297745 
L 654.335215 138.297745 
L 654.468468 137.433662 
L 657.666535 137.433662 
L 657.799787 136.533406 
L 660.997854 136.533406 
L 661.131107 135.597313 
L 664.329173 135.597313 
L 664.462426 134.625929 
L 667.660492 134.625929 
L 667.793745 133.619349 
L 670.991812 133.619349 
L 671.125064 132.57786 
L 674.323131 132.57786 
L 674.456384 131.502297 
L 677.65445 131.502297 
L 677.787703 130.393021 
L 680.98577 130.393021 
L 681.119022 129.250799 
L 684.317089 129.250799 
L 684.450342 128.075485 
L 687.648408 128.075485 
L 687.781661 126.867902 
L 690.979727 126.867902 
L 691.11298 125.6287 
L 694.311047 125.6287 
L 694.444299 124.358311 
L 697.642366 124.358311 
L 697.775619 123.057441 
L 700.973685 123.057441 
L 701.106938 121.726649 
L 704.305004 121.726649 
L 704.438257 120.365774 
L 707.636324 120.365774 
L 707.769577 118.975783 
L 710.967643 118.975783 
L 711.100896 117.557017 
L 714.298962 117.557017 
L 714.432215 116.110363 
L 717.630282 116.110363 
L 717.763534 114.635867 
L 720.961601 114.635867 
L 721.094854 113.134146 
L 724.29292 113.134146 
L 724.426173 111.605751 
L 727.624239 111.605751 
L 727.757492 110.050944 
L 730.955559 110.050944 
L 731.088811 108.469829 
L 734.286878 108.469829 
L 734.420131 106.863562 
L 737.618197 106.863562 
L 737.75145 105.23232 
L 740.949517 105.23232 
L 741.082769 103.576614 
L 744.280836 103.576614 
L 744.414089 101.896669 
L 747.612155 101.896669 
L 747.745408 100.193898 
L 750.943474 100.193898 
L 751.076727 98.468132 
L 754.274794 98.468132 
L 754.408046 96.719932 
L 757.606113 96.719932 
L 757.739366 94.949377 
L 760.937432 94.949377 
L 761.070685 93.157193 
L 764.268751 93.157193 
L 764.402004 91.343503 
L 767.600071 91.343503 
L 767.733324 89.508885 
L 770.93139 89.508885 
L 771.064643 87.653529 
L 774.262709 87.653529 
L 774.395962 85.778367 
L 777.594029 85.778367 
L 777.727281 83.883514 
L 780.925348 83.883514 
L 781.058601 81.969382 
L 784.256667 81.969382 
L 784.38992 80.036378 
L 787.587986 80.036378 
L 787.721239 78.084927 
L 790.919306 78.084927 
L 791.052558 76.115371 
L 794.250625 76.115371 
L 794.383878 74.128327 
L 797.581944 74.128327 
L 797.715197 72.123774 
L 800.913264 72.123774 
L 801.046516 70.102294 
L 804.244583 70.102294 
L 804.377836 68.063778 
L 807.575902 68.063778 
L 807.709155 66.008636 
L 810.907221 66.008636 
L 811.040474 63.937376 
L 814.238541 63.937376 
L 814.371793 61.850552 
L 817.56986 61.850552 
L 817.703113 59.748006 
L 820.901179 59.748006 
L 821.034432 57.630357 
L 824.232498 57.630357 
L 824.365751 55.497985 
L 827.563818 55.497985 
L 827.69707 53.351115 
L 830.895137 53.351115 
L 831.02839 51.190283 
L 834.226456 51.190283 
L 834.359709 49.015285 
L 837.557776 49.015285 
L 837.691028 46.826492 
L 840.889095 46.826492 
L 841.022348 44.624638 
L 844.220414 44.624638 
L 844.353667 42.40936 
L 847.551733 42.40936 
L 847.684986 40.181449 
L 848.35125 40.181449 
L 848.35125 40.181449 
" clip-path="url(#p47aaedf0b2)" style="fill: none; stroke: #ff0000; stroke-width: 2; stroke-linecap: square"/>
   </g>
   <g id="line2d_30">
    <path d="M 48.90125 367.054176 
L 51.366426 366.146285 
L 51.433053 364.961497 
L 51.499679 364.986002 
L 54.697746 366.160137 
L 54.764372 363.167432 
L 54.830998 363.191968 
L 58.029065 364.369686 
L 58.095691 361.372253 
L 58.162318 361.396788 
L 61.360384 362.57441 
L 61.42701 359.575505 
L 61.493637 359.60003 
L 64.691703 360.777111 
L 64.75833 357.777579 
L 64.824956 357.802094 
L 68.023023 358.978642 
L 68.089649 355.980363 
L 68.156275 356.004881 
L 71.354342 357.181647 
L 71.420968 354.183081 
L 71.487595 354.207585 
L 74.685661 355.383628 
L 74.752288 352.388433 
L 74.818914 352.412946 
L 78.01698 353.589461 
L 78.083607 350.595368 
L 78.150233 350.619889 
L 81.3483 351.796848 
L 81.414926 348.801598 
L 81.481553 348.826125 
L 84.679619 350.00338 
L 84.746245 347.003903 
L 84.812872 347.02843 
L 88.010938 348.205689 
L 88.077565 345.205964 
L 88.144191 345.230489 
L 91.342258 346.407663 
L 91.408884 343.432982 
L 91.47551 343.457516 
L 94.673577 344.63516 
L 94.740203 341.636675 
L 94.80683 341.66121 
L 98.004896 342.838905 
L 98.071523 339.850075 
L 98.138149 339.874612 
L 101.336215 341.052407 
L 101.402842 338.060928 
L 101.469468 338.085464 
L 104.667535 339.263175 
L 104.734161 336.264867 
L 104.800787 336.289403 
L 107.998854 337.46715 
L 108.06548 334.471211 
L 108.132107 334.495749 
L 111.330173 335.673536 
L 111.3968 332.681816 
L 111.463426 332.706353 
L 114.661493 333.884157 
L 114.728119 330.885941 
L 114.794745 330.910478 
L 117.992812 332.088281 
L 118.059438 329.088561 
L 118.126065 329.113098 
L 121.324131 330.290901 
L 121.390757 327.292716 
L 121.457384 327.317253 
L 124.65545 328.495047 
L 124.722077 325.495544 
L 124.788703 325.520081 
L 127.98677 326.697869 
L 128.053396 323.698187 
L 128.120022 323.722725 
L 131.318089 324.900514 
L 131.384715 321.931019 
L 131.451342 321.955556 
L 134.649408 323.133348 
L 134.716035 320.13472 
L 134.782661 320.159257 
L 137.980727 321.337057 
L 138.047354 318.337557 
L 138.11398 318.362094 
L 141.312047 319.539896 
L 141.378673 316.543228 
L 141.4453 316.567765 
L 144.643366 317.745554 
L 144.709992 314.745933 
L 144.776619 314.77047 
L 147.974685 315.948255 
L 148.041312 312.949247 
L 148.107938 312.973784 
L 151.306005 314.151576 
L 151.372631 311.156095 
L 151.439257 311.180633 
L 154.637324 312.358435 
L 154.70395 309.361472 
L 154.770577 309.386009 
L 157.968643 310.563804 
L 158.03527 307.565559 
L 158.101896 307.590096 
L 161.299962 308.76788 
L 161.366589 305.769627 
L 161.433215 305.794164 
L 164.631282 306.971957 
L 164.697908 303.973374 
L 164.764534 303.997911 
L 167.962601 305.17571 
L 168.029227 302.176941 
L 168.095854 302.201479 
L 171.29392 303.379272 
L 171.360547 300.384749 
L 171.427173 300.409287 
L 174.625239 301.587089 
L 174.691866 298.592686 
L 174.758492 298.617223 
L 177.956559 299.795027 
L 178.023185 296.801353 
L 178.089812 296.82589 
L 181.287878 298.003693 
L 181.354504 295.00498 
L 181.421131 295.029517 
L 184.619197 296.207322 
L 184.685824 293.226601 
L 184.75245 293.251138 
L 187.950517 294.428934 
L 188.017143 291.522304 
L 188.083769 291.546841 
L 191.281836 292.724623 
L 191.348462 289.736003 
L 191.415089 289.760541 
L 194.613155 290.938341 
L 194.679782 287.938618 
L 194.746408 287.963156 
L 197.944474 289.140956 
L 198.011101 286.244511 
L 198.077727 286.269047 
L 201.275794 287.446755 
L 201.34242 285.105085 
L 201.409046 285.129606 
L 204.607113 286.306626 
L 204.673739 283.328484 
L 204.740366 283.353008 
L 207.938432 284.530186 
L 208.005059 282.319573 
L 208.071685 282.34407 
L 211.269752 283.519917 
L 211.336378 280.577083 
L 211.403004 280.601589 
L 214.601071 281.777827 
L 214.667697 278.873221 
L 214.734324 278.897736 
L 217.93239 280.074422 
L 217.999016 277.191931 
L 218.065643 277.216454 
L 221.263709 278.393551 
L 221.330336 275.657388 
L 221.396962 275.68192 
L 224.595029 276.859456 
L 224.661655 274.071791 
L 224.728281 274.096315 
L 227.926348 275.273444 
L 227.992974 272.374887 
L 228.059601 272.399402 
L 231.257667 273.576134 
L 231.324294 270.742691 
L 231.39092 270.767193 
L 234.588986 271.943298 
L 234.655613 268.943539 
L 234.722239 268.968041 
L 239.252833 270.634113 
L 239.386086 267.784307 
L 247.914264 267.699735 
L 248.047516 267.890289 
L 251.245583 267.855516 
L 251.378836 268.023174 
L 257.908221 268.001304 
L 258.041474 268.180178 
L 261.239541 268.209409 
L 261.372793 268.055 
L 264.57086 268.105581 
L 264.704113 267.819469 
L 267.902179 267.891241 
L 268.035432 267.269984 
L 271.233499 267.362252 
L 271.366751 267.065595 
L 274.564818 267.178866 
L 274.698071 266.796511 
L 277.896137 266.930609 
L 278.02939 266.642125 
L 281.227456 266.797118 
L 281.360709 266.599793 
L 284.558776 266.775734 
L 284.692028 266.097031 
L 287.890095 266.293013 
L 288.023348 265.786654 
L 291.221414 266.002982 
L 291.354667 265.164467 
L 294.552733 265.400149 
L 294.685986 264.848175 
L 297.884053 265.103879 
L 298.017306 264.636778 
L 301.215372 264.912594 
L 301.281998 264.162857 
L 301.348625 264.169141 
L 304.546691 264.464332 
L 304.679944 263.977468 
L 307.878011 264.292547 
L 307.944637 263.353185 
L 308.011263 263.360267 
L 311.20933 263.693918 
L 311.275956 262.895577 
L 311.342583 262.903051 
L 314.540649 263.255614 
L 314.607276 262.37199 
L 314.673902 262.379848 
L 317.871968 262.750934 
L 317.938595 261.758777 
L 318.005221 261.767008 
L 321.203288 262.156105 
L 321.269914 261.140658 
L 321.33654 261.149258 
L 324.534607 261.556141 
L 324.601233 260.581793 
L 324.66786 260.590762 
L 327.865926 261.015449 
L 327.932553 259.895429 
L 327.999179 259.904752 
L 331.197245 260.346546 
L 331.263872 259.203436 
L 331.330498 259.213107 
L 334.395312 259.652877 
L 334.528565 258.251154 
L 337.859884 257.129856 
L 337.92651 259.835196 
L 337.993137 259.812863 
L 341.191203 258.739775 
L 341.25783 261.568174 
L 341.324456 261.54589 
L 344.522523 260.47509 
L 344.589149 263.189227 
L 344.655775 263.167019 
L 347.853842 262.099849 
L 347.920468 264.81703 
L 347.987095 264.794901 
L 351.185161 263.731406 
L 351.251788 266.44142 
L 351.318414 266.419371 
L 354.51648 265.359705 
L 354.583107 267.930376 
L 354.649733 267.908438 
L 357.8478 266.854026 
L 357.914426 269.532241 
L 357.981052 269.510396 
L 361.179119 268.460323 
L 361.245745 271.167472 
L 361.312372 271.145713 
L 364.510438 270.099749 
L 364.577065 272.787965 
L 364.643691 272.7663 
L 367.841758 271.724752 
L 367.908384 274.368044 
L 367.97501 274.346486 
L 371.173077 273.309963 
L 371.239703 275.943651 
L 371.30633 275.922204 
L 374.504396 274.890929 
L 374.571022 277.539521 
L 374.637649 277.518184 
L 377.835715 276.492103 
L 377.902342 278.904456 
L 377.968968 278.883284 
L 381.167035 277.864966 
L 381.233661 280.364114 
L 381.300287 280.343092 
L 384.498354 279.331904 
L 384.56498 281.822055 
L 384.631607 281.80119 
L 387.829673 280.797406 
L 387.8963 283.476401 
L 387.962926 283.455647 
L 391.160992 282.457095 
L 391.227619 284.771759 
L 391.294245 284.751208 
L 394.492312 283.762222 
L 394.558938 286.264328 
L 394.625565 286.243943 
L 397.823631 285.26279 
L 397.890257 287.776477 
L 397.956884 287.75626 
L 401.15495 286.782988 
L 401.221577 289.146134 
L 401.288203 289.126126 
L 404.48627 288.162713 
L 404.552896 290.633058 
L 404.619522 290.613237 
L 407.817589 289.658659 
L 407.884215 292.093306 
L 407.950842 292.073688 
L 411.148908 291.128628 
L 411.215535 293.299292 
L 411.282161 293.279944 
L 414.480227 292.34766 
L 414.546854 294.653317 
L 414.61348 294.634216 
L 417.811547 293.713562 
L 417.878173 296.235504 
L 417.944799 296.216593 
L 421.142866 295.304858 
L 421.209492 297.666572 
L 421.276119 297.647906 
L 424.474185 296.747698 
L 424.540812 299.211455 
L 424.607438 299.193009 
L 427.805505 298.303103 
L 427.872131 300.456039 
L 427.938757 300.437908 
L 431.136824 299.562897 
L 431.20345 301.627159 
L 431.270077 301.609376 
L 434.468143 300.750709 
L 434.534769 302.907686 
L 434.601396 302.890235 
L 437.799462 302.047212 
L 437.866089 304.108714 
L 437.932715 304.091631 
L 441.130782 303.265891 
L 441.197408 305.306198 
L 441.264034 305.289497 
L 444.462101 304.48177 
L 444.528727 306.376283 
L 444.595354 306.360012 
L 447.79342 305.572546 
L 447.860047 307.598331 
L 447.926673 307.582467 
L 451.124739 306.814149 
L 451.191366 308.88218 
L 451.257992 308.866722 
L 454.456059 308.117468 
L 454.522685 309.966349 
L 454.589312 309.951369 
L 457.787378 309.22466 
L 457.854004 311.086136 
L 457.920631 311.071644 
L 461.118697 310.367905 
L 461.185324 312.044837 
L 461.25195 312.030893 
L 464.450017 311.352999 
L 464.516643 312.927545 
L 464.583269 312.914187 
L 467.781336 312.263927 
L 467.847962 313.832086 
L 467.914589 313.81933 
L 471.112655 313.197427 
L 471.179282 314.848441 
L 471.245908 314.83628 
L 474.443974 314.242425 
L 474.510601 315.86431 
L 474.577227 315.852766 
L 477.775294 315.288026 
L 477.84192 316.680886 
L 477.908546 316.670031 
L 481.106613 316.137792 
L 481.173239 317.527848 
L 481.239866 317.517697 
L 484.437932 317.01871 
L 484.504559 318.092986 
L 484.571185 318.083616 
L 487.769252 317.621627 
L 487.835878 318.678268 
L 487.902504 318.669696 
L 491.100571 318.245493 
L 491.167197 319.484318 
L 491.233824 319.476523 
L 494.43189 319.089106 
L 494.498516 319.870355 
L 494.565143 319.863429 
L 497.763209 319.51727 
L 497.829836 320.311695 
L 497.896462 320.305647 
L 501.094529 320.001202 
L 501.227781 320.626748 
L 504.425848 320.365496 
L 504.559101 321.235205 
L 507.757167 321.016152 
L 507.89042 321.510062 
L 515.619081 321.235296 
L 517.751125 321.177439 
L 517.884378 320.449575 
L 521.082444 320.41134 
L 521.215697 320.582269 
L 524.746895 320.588415 
L 524.880148 320.079936 
L 527.745083 319.026288 
L 527.811709 321.790734 
L 527.878336 321.766204 
L 531.076402 320.588751 
L 531.143028 323.587 
L 531.209655 323.562471 
L 534.407721 322.38506 
L 534.474348 325.350878 
L 534.540974 325.326356 
L 537.739041 324.149291 
L 537.805667 327.130712 
L 537.872293 327.106183 
L 541.07036 325.928792 
L 541.136986 328.925949 
L 541.203613 328.901418 
L 544.401679 327.723914 
L 544.468306 330.721184 
L 544.534932 330.696651 
L 547.732998 329.519052 
L 547.799625 332.493012 
L 547.866251 332.468475 
L 551.064318 331.290702 
L 551.130944 334.150801 
L 551.197571 334.126268 
L 554.395637 332.948674 
L 554.462263 335.942635 
L 554.52889 335.9181 
L 557.726956 334.740389 
L 557.793583 337.511094 
L 557.860209 337.486564 
L 561.058276 336.309113 
L 561.124902 339.30554 
L 561.191528 339.281012 
L 564.389595 338.103676 
L 564.456221 341.068153 
L 564.522848 341.043639 
L 567.720914 339.866942 
L 567.787541 342.833619 
L 567.854167 342.809089 
L 571.052233 341.631635 
L 571.11886 344.616351 
L 571.185486 344.59183 
L 574.383553 343.414765 
L 574.450179 346.400047 
L 574.516805 346.375515 
L 577.714872 345.197959 
L 577.781498 348.184612 
L 577.848125 348.160088 
L 581.046191 346.982915 
L 581.112818 349.932149 
L 581.179444 349.907611 
L 584.377511 348.729809 
L 584.444137 351.729478 
L 584.510763 351.704941 
L 587.70883 350.527141 
L 587.775456 353.525122 
L 587.842083 353.500585 
L 591.040149 352.322789 
L 591.106775 355.321324 
L 591.173402 355.296788 
L 594.371468 354.119039 
L 594.438095 357.106322 
L 594.504721 357.081787 
L 597.702788 355.904099 
L 597.769414 358.903575 
L 597.83604 358.879041 
L 601.034107 357.701391 
L 601.100733 360.679671 
L 601.16736 360.655145 
L 604.365426 359.477828 
L 604.432053 362.460346 
L 604.498679 362.435818 
L 607.696745 361.258382 
L 607.763372 364.247728 
L 607.829998 364.223276 
L 611.028065 363.048369 
L 611.094691 366.002409 
L 611.161318 365.979042 
L 614.359384 364.827623 
L 614.492637 366.175618 
L 616.158296 366.604279 
L 617.024439 366.602818 
L 617.75733 366.451026 
L 617.823956 364.45253 
L 617.890582 364.47667 
L 620.022627 365.229942 
L 620.15588 363.805822 
L 624.353342 363.805822 
L 624.486595 361.133232 
L 627.684661 361.133232 
L 627.817914 358.178458 
L 631.01598 358.178458 
L 631.149233 355.193445 
L 634.3473 355.193445 
L 634.480552 352.209657 
L 637.678619 352.209657 
L 637.811872 349.18961 
L 641.009938 349.18961 
L 641.143191 346.180471 
L 644.341258 346.180471 
L 644.47451 343.22058 
L 647.672577 343.22058 
L 647.80583 340.19847 
L 651.003896 340.19847 
L 651.137149 337.187691 
L 654.335215 337.187691 
L 654.468468 334.173836 
L 657.666535 334.173836 
L 657.799787 331.149697 
L 660.997854 331.149697 
L 661.131107 328.130207 
L 664.329173 328.130207 
L 664.462426 325.106393 
L 667.660492 325.106393 
L 667.793745 322.084082 
L 670.991812 322.084082 
L 671.125064 319.061025 
L 674.323131 319.061025 
L 674.456384 316.049298 
L 677.65445 316.049298 
L 677.787703 313.025038 
L 680.98577 313.025038 
L 681.119022 310.002566 
L 684.317089 310.002566 
L 684.450342 306.980754 
L 687.648408 306.980754 
L 687.781661 303.962893 
L 690.979727 303.962893 
L 691.11298 300.939477 
L 694.311047 300.939477 
L 694.444299 297.918462 
L 697.642366 297.918462 
L 697.775619 294.894288 
L 700.973685 294.894288 
L 701.106938 291.871306 
L 704.305004 291.871306 
L 704.438257 288.854671 
L 707.636324 288.854671 
L 707.769577 285.849899 
L 710.967643 285.849899 
L 711.100896 282.827461 
L 714.298962 282.827461 
L 714.432215 279.80582 
L 717.630282 279.80582 
L 717.763534 276.785896 
L 720.961601 276.785896 
L 721.094854 273.763817 
L 724.29292 273.763817 
L 724.426173 270.74129 
L 727.624239 270.74129 
L 727.757492 267.72222 
L 730.955559 267.72222 
L 731.088811 264.70726 
L 734.286878 264.70726 
L 734.420131 261.69105 
L 737.618197 261.69105 
L 737.75145 258.667723 
L 740.949517 258.667723 
L 741.082769 255.651338 
L 744.280836 255.651338 
L 744.414089 252.628689 
L 747.612155 252.628689 
L 747.745408 249.608468 
L 750.943474 249.608468 
L 751.076727 246.586992 
L 754.274794 246.586992 
L 754.408046 243.565009 
L 757.606113 243.565009 
L 757.739366 240.54127 
L 760.937432 240.54127 
L 761.070685 237.524068 
L 764.268751 237.524068 
L 764.402004 234.499808 
L 767.600071 234.499808 
L 767.733324 231.475824 
L 770.93139 231.475824 
L 771.064643 228.453459 
L 774.262709 228.453459 
L 774.395962 225.435911 
L 777.594029 225.435911 
L 777.727281 222.414546 
L 780.925348 222.414546 
L 781.058601 219.395044 
L 784.256667 219.395044 
L 784.38992 216.384942 
L 787.587986 216.384942 
L 787.721239 213.366049 
L 790.919306 213.366049 
L 791.052558 210.343987 
L 794.250625 210.343987 
L 794.383878 207.321277 
L 797.581944 207.321277 
L 797.715197 204.300424 
L 800.913264 204.300424 
L 801.046516 201.276245 
L 804.244583 201.276245 
L 804.377836 198.256393 
L 807.575902 198.256393 
L 807.709155 195.24274 
L 810.907221 195.24274 
L 811.040474 192.218804 
L 814.238541 192.218804 
L 814.371793 189.207823 
L 817.56986 189.207823 
L 817.703113 186.185425 
L 820.901179 186.185425 
L 821.034432 183.161291 
L 824.232498 183.161291 
L 824.365751 180.137358 
L 827.563818 180.137358 
L 827.69707 177.125081 
L 830.895137 177.125081 
L 831.02839 174.117297 
L 834.226456 174.117297 
L 834.359709 171.094033 
L 837.557776 171.094033 
L 837.691028 168.070998 
L 840.889095 168.070998 
L 841.022348 165.048203 
L 844.220414 165.048203 
L 844.353667 162.038302 
L 847.551733 162.038302 
L 847.684986 159.014048 
L 848.35125 159.014048 
L 848.35125 159.014048 
" clip-path="url(#p47aaedf0b2)" style="fill: none; stroke: #0000ff; stroke-width: 2; stroke-linecap: square"/>
   </g>
   <g id="patch_3">
    <path d="M 48.90125 383.397812 
L 48.90125 23.837812 
" style="fill: none; stroke: #000000; stroke-width: 0.8; stroke-linejoin: miter; stroke-linecap: square"/>
   </g>
   <g id="patch_4">
    <path d="M 848.35125 383.397812 
L 848.35125 23.837812 
" style="fill: none; stroke: #000000; stroke-width: 0.8; stroke-linejoin: miter; stroke-linecap: square"/>
   </g>
   <g id="patch_5">
    <path d="M 48.90125 383.397812 
L 848.35125 383.397812 
" style="fill: none; stroke: #000000; stroke-width: 0.8; stroke-linejoin: miter; stroke-linecap: square"/>
   </g>
   <g id="patch_6">
    <path d="M 48.90125 23.837812 
L 848.35125 23.837812 
" style="fill: none; stroke: #000000; stroke-width: 0.8; stroke-linejoin: miter; stroke-linecap: square"/>
   </g>
   <g id="text_17">
    <!-- PDR Example: Position Error vs Time -->
    <g transform="translate(303.90125 17.837812) scale(0.14 -0.14)">
     <defs>
      <path id="DejaVuSans-Bold-50" d="M 588 4666 
L 2584 4666 
Q 3475 4666 3951 4270 
Q 4428 3875 4428 3144 
Q 4428 2409 3951 2014 
Q 3475 1619 2584 1619 
L 1791 1619 
L 1791 0 
L 588 0 
L 588 4666 
z
M 1791 3794 
L 1791 2491 
L 2456 2491 
Q 2806 2491 2997 2661 
Q 3188 2831 3188 3144 
Q 3188 3456 2997 3625 
Q 2806 3794 2456 3794 
L 1791 3794 
z
" transform="scale(0.015625)"/>
      <path id="DejaVuSans-Bold-44" d="M 1791 3756 
L 1791 909 
L 2222 909 
Q 2959 909 3348 1275 
Q 3738 1641 3738 2338 
Q 3738 3031 3350 3393 
Q 2963 3756 2222 3756 
L 1791 3756 
z
M 588 4666 
L 1856 4666 
Q 2919 4666 3439 4514 
Q 3959 4363 4331 4000 
Q 4659 3684 4818 3271 
Q 4978 2859 4978 2338 
Q 4978 1809 4818 1395 
Q 4659 981 4331 666 
Q 3956 303 3431 151 
Q 2906 0 1856 0 
L 588 0 
L 588 4666 
z
" transform="scale(0.015625)"/>
      <path id="DejaVuSans-Bold-52" d="M 2297 2597 
Q 2675 2597 2839 2737 
Q 3003 2878 3003 3200 
Q 3003 3519 2839 3656 
Q 2675 3794 2297 3794 
L 1791 3794 
L 1791 2597 
L 2297 2597 
z
M 1791 1766 
L 1791 0 
L 588 0 
L 588 4666 
L 2425 4666 
Q 3347 4666 3776 4356 
Q 4206 4047 4206 3378 
Q 4206 2916 3982 2619 
Q 3759 2322 3309 2181 
Q 3556 2125 3751 1926 
Q 3947 1728 4147 1325 
L 4800 0 
L 3519 0 
L 2950 1159 
Q 2778 1509 2601 1637 
Q 2425 1766 2131 1766 
L 1791 1766 
z
" transform="scale(0.015625)"/>
      <path id="DejaVuSans-Bold-20" transform="scale(0.015625)"/>
      <path id="DejaVuSans-Bold-45" d="M 588 4666 
L 3834 4666 
L 3834 3756 
L 1791 3756 
L 1791 2888 
L 3713 2888 
L 3713 1978 
L 1791 1978 
L 1791 909 
L 3903 909 
L 3903 0 
L 588 0 
L 588 4666 
z
" transform="scale(0.015625)"/>
      <path id="DejaVuSans-Bold-78" d="M 1422 1791 
L 159 3500 
L 1344 3500 
L 2059 2463 
L 2784 3500 
L 3969 3500 
L 2706 1797 
L 4031 0 
L 2847 0 
L 2059 1106 
L 1281 0 
L 97 0 
L 1422 1791 
z
" transform="scale(0.015625)"/>
      <path id="DejaVuSans-Bold-61" d="M 2106 1575 
Q 1756 1575 1579 1456 
Q 1403 1338 1403 1106 
Q 1403 894 1545 773 
Q 1688 653 1941 653 
Q 2256 653 2472 879 
Q 2688 1106 2688 1447 
L 2688 1575 
L 2106 1575 
z
M 3816 1997 
L 3816 0 
L 2688 0 
L 2688 519 
Q 2463 200 2181 54 
Q 1900 -91 1497 -91 
Q 953 -91 614 226 
Q 275 544 275 1050 
Q 275 1666 698 1953 
Q 1122 2241 2028 2241 
L 2688 2241 
L 2688 2328 
Q 2688 2594 2478 2717 
Q 2269 2841 1825 2841 
Q 1466 2841 1156 2769 
Q 847 2697 581 2553 
L 581 3406 
Q 941 3494 1303 3539 
Q 1666 3584 2028 3584 
Q 2975 3584 3395 3211 
Q 3816 2838 3816 1997 
z
" transform="scale(0.015625)"/>
      <path id="DejaVuSans-Bold-6d" d="M 3781 2919 
Q 3994 3244 4286 3414 
Q 4578 3584 4928 3584 
Q 5531 3584 5847 3212 
Q 6163 2841 6163 2131 
L 6163 0 
L 5038 0 
L 5038 1825 
Q 5041 1866 5042 1909 
Q 5044 1953 5044 2034 
Q 5044 2406 4934 2573 
Q 4825 2741 4581 2741 
Q 4263 2741 4089 2478 
Q 3916 2216 3909 1719 
L 3909 0 
L 2784 0 
L 2784 1825 
Q 2784 2406 2684 2573 
Q 2584 2741 2328 2741 
Q 2006 2741 1831 2477 
Q 1656 2213 1656 1722 
L 1656 0 
L 531 0 
L 531 3500 
L 1656 3500 
L 1656 2988 
Q 1863 3284 2130 3434 
Q 2397 3584 2719 3584 
Q 3081 3584 3359 3409 
Q 3638 3234 3781 2919 
z
" transform="scale(0.015625)"/>
      <path id="DejaVuSans-Bold-70" d="M 1656 506 
L 1656 -1331 
L 538 -1331 
L 538 3500 
L 1656 3500 
L 1656 2988 
Q 1888 3294 2169 3439 
Q 2450 3584 2816 3584 
Q 3463 3584 3878 3070 
Q 4294 2556 4294 1747 
Q 4294 938 3878 423 
Q 3463 -91 2816 -91 
Q 2450 -91 2169 54 
Q 1888 200 1656 506 
z
M 2400 2772 
Q 2041 2772 1848 2508 
Q 1656 2244 1656 1747 
Q 1656 1250 1848 986 
Q 2041 722 2400 722 
Q 2759 722 2948 984 
Q 3138 1247 3138 1747 
Q 3138 2247 2948 2509 
Q 2759 2772 2400 2772 
z
" transform="scale(0.015625)"/>
      <path id="DejaVuSans-Bold-6c" d="M 538 4863 
L 1656 4863 
L 1656 0 
L 538 0 
L 538 4863 
z
" transform="scale(0.015625)"/>
      <path id="DejaVuSans-Bold-65" d="M 4031 1759 
L 4031 1441 
L 1416 1441 
Q 1456 1047 1700 850 
Q 1944 653 2381 653 
Q 2734 653 3104 758 
Q 3475 863 3866 1075 
L 3866 213 
Q 3469 63 3072 -14 
Q 2675 -91 2278 -91 
Q 1328 -91 801 392 
Q 275 875 275 1747 
Q 275 2603 792 3093 
Q 1309 3584 2216 3584 
Q 3041 3584 3536 3087 
Q 4031 2591 4031 1759 
z
M 2881 2131 
Q 2881 2450 2695 2645 
Q 2509 2841 2209 2841 
Q 1884 2841 1681 2658 
Q 1478 2475 1428 2131 
L 2881 2131 
z
" transform="scale(0.015625)"/>
      <path id="DejaVuSans-Bold-3a" d="M 716 3500 
L 1844 3500 
L 1844 2291 
L 716 2291 
L 716 3500 
z
M 716 1209 
L 1844 1209 
L 1844 0 
L 716 0 
L 716 1209 
z
" transform="scale(0.015625)"/>
      <path id="DejaVuSans-Bold-6f" d="M 2203 2784 
Q 1831 2784 1636 2517 
Q 1441 2250 1441 1747 
Q 1441 1244 1636 976 
Q 1831 709 2203 709 
Q 2569 709 2762 976 
Q 2956 1244 2956 1747 
Q 2956 2250 2762 2517 
Q 2569 2784 2203 2784 
z
M 2203 3584 
Q 3106 3584 3614 3096 
Q 4122 2609 4122 1747 
Q 4122 884 3614 396 
Q 3106 -91 2203 -91 
Q 1297 -91 786 396 
Q 275 884 275 1747 
Q 275 2609 786 3096 
Q 1297 3584 2203 3584 
z
" transform="scale(0.015625)"/>
      <path id="DejaVuSans-Bold-73" d="M 3272 3391 
L 3272 2541 
Q 2913 2691 2578 2766 
Q 2244 2841 1947 2841 
Q 1628 2841 1473 2761 
Q 1319 2681 1319 2516 
Q 1319 2381 1436 2309 
Q 1553 2238 1856 2203 
L 2053 2175 
Q 2913 2066 3209 1816 
Q 3506 1566 3506 1031 
Q 3506 472 3093 190 
Q 2681 -91 1863 -91 
Q 1516 -91 1145 -36 
Q 775 19 384 128 
L 384 978 
Q 719 816 1070 734 
Q 1422 653 1784 653 
Q 2113 653 2278 743 
Q 2444 834 2444 1013 
Q 2444 1163 2330 1236 
Q 2216 1309 1875 1350 
L 1678 1375 
Q 931 1469 631 1722 
Q 331 1975 331 2491 
Q 331 3047 712 3315 
Q 1094 3584 1881 3584 
Q 2191 3584 2531 3537 
Q 2872 3491 3272 3391 
z
" transform="scale(0.015625)"/>
      <path id="DejaVuSans-Bold-69" d="M 538 3500 
L 1656 3500 
L 1656 0 
L 538 0 
L 538 3500 
z
M 538 4863 
L 1656 4863 
L 1656 3950 
L 538 3950 
L 538 4863 
z
" transform="scale(0.015625)"/>
      <path id="DejaVuSans-Bold-74" d="M 1759 4494 
L 1759 3500 
L 2913 3500 
L 2913 2700 
L 1759 2700 
L 1759 1216 
Q 1759 972 1856 886 
Q 1953 800 2241 800 
L 2816 800 
L 2816 0 
L 1856 0 
Q 1194 0 917 276 
Q 641 553 641 1216 
L 641 2700 
L 84 2700 
L 84 3500 
L 641 3500 
L 641 4494 
L 1759 4494 
z
" transform="scale(0.015625)"/>
      <path id="DejaVuSans-Bold-6e" d="M 4056 2131 
L 4056 0 
L 2931 0 
L 2931 347 
L 2931 1631 
Q 2931 2084 2911 2256 
Q 2891 2428 2841 2509 
Q 2775 2619 2662 2680 
Q 2550 2741 2406 2741 
Q 2056 2741 1856 2470 
Q 1656 2200 1656 1722 
L 1656 0 
L 538 0 
L 538 3500 
L 1656 3500 
L 1656 2988 
Q 1909 3294 2193 3439 
Q 2478 3584 2822 3584 
Q 3428 3584 3742 3212 
Q 4056 2841 4056 2131 
z
" transform="scale(0.015625)"/>
      <path id="DejaVuSans-Bold-72" d="M 3138 2547 
Q 2991 2616 2845 2648 
Q 2700 2681 2553 2681 
Q 2122 2681 1889 2404 
Q 1656 2128 1656 1613 
L 1656 0 
L 538 0 
L 538 3500 
L 1656 3500 
L 1656 2925 
Q 1872 3269 2151 3426 
Q 2431 3584 2822 3584 
Q 2878 3584 2943 3579 
Q 3009 3575 3134 3559 
L 3138 2547 
z
" transform="scale(0.015625)"/>
      <path id="DejaVuSans-Bold-76" d="M 97 3500 
L 1216 3500 
L 2088 1081 
L 2956 3500 
L 4078 3500 
L 2700 0 
L 1472 0 
L 97 3500 
z
" transform="scale(0.015625)"/>
      <path id="DejaVuSans-Bold-54" d="M 31 4666 
L 4331 4666 
L 4331 3756 
L 2784 3756 
L 2784 0 
L 1581 0 
L 1581 3756 
L 31 3756 
L 31 4666 
z
" transform="scale(0.015625)"/>
     </defs>
     <use xlink:href="#DejaVuSans-Bold-50"/>
     <use xlink:href="#DejaVuSans-Bold-44" x="73.291016"/>
     <use xlink:href="#DejaVuSans-Bold-52" x="156.298828"/>
     <use xlink:href="#DejaVuSans-Bold-20" x="233.300781"/>
     <use xlink:href="#DejaVuSans-Bold-45" x="268.115234"/>
     <use xlink:href="#DejaVuSans-Bold-78" x="336.425781"/>
     <use xlink:href="#DejaVuSans-Bold-61" x="400.927734"/>
     <use xlink:href="#DejaVuSans-Bold-6d" x="468.408203"/>
     <use xlink:href="#DejaVuSans-Bold-70" x="572.607422"/>
     <use xlink:href="#DejaVuSans-Bold-6c" x="644.189453"/>
     <use xlink:href="#DejaVuSans-Bold-65" x="678.466797"/>
     <use xlink:href="#DejaVuSans-Bold-3a" x="746.289062"/>
     <use xlink:href="#DejaVuSans-Bold-20" x="786.279297"/>
     <use xlink:href="#DejaVuSans-Bold-50" x="821.09375"/>
     <use xlink:href="#DejaVuSans-Bold-6f" x="894.384766"/>
     <use xlink:href="#DejaVuSans-Bold-73" x="963.085938"/>
     <use xlink:href="#DejaVuSans-Bold-69" x="1022.607422"/>
     <use xlink:href="#DejaVuSans-Bold-74" x="1056.884766"/>
     <use xlink:href="#DejaVuSans-Bold-69" x="1104.6875"/>
     <use xlink:href="#DejaVuSans-Bold-6f" x="1138.964844"/>
     <use xlink:href="#DejaVuSans-Bold-6e" x="1207.666016"/>
     <use xlink:href="#DejaVuSans-Bold-20" x="1278.857422"/>
     <use xlink:href="#DejaVuSans-Bold-45" x="1313.671875"/>
     <use xlink:href="#DejaVuSans-Bold-72" x="1381.982422"/>
     <use xlink:href="#DejaVuSans-Bold-72" x="1431.298828"/>
     <use xlink:href="#DejaVuSans-Bold-6f" x="1480.615234"/>
     <use xlink:href="#DejaVuSans-Bold-72" x="1549.316406"/>
     <use xlink:href="#DejaVuSans-Bold-20" x="1598.632812"/>
     <use xlink:href="#DejaVuSans-Bold-76" x="1633.447266"/>
     <use xlink:href="#DejaVuSans-Bold-73" x="1698.632812"/>
     <use xlink:href="#DejaVuSans-Bold-20" x="1758.154297"/>
     <use xlink:href="#DejaVuSans-Bold-54" x="1792.96875"/>
     <use xlink:href="#DejaVuSans-Bold-69" x="1861.181641"/>
     <use xlink:href="#DejaVuSans-Bold-6d" x="1895.458984"/>
     <use xlink:href="#DejaVuSans-Bold-65" x="1999.658203"/>
    </g>
   </g>
   <g id="legend_1">
    <g id="patch_7">
     <path d="M 56.60125 64.929687 
L 201.937031 64.929687 
Q 204.137031 64.929687 204.137031 62.729687 
L 204.137031 31.537812 
Q 204.137031 29.337812 201.937031 29.337812 
L 56.60125 29.337812 
Q 54.40125 29.337812 54.40125 31.537812 
L 54.40125 62.729687 
Q 54.40125 64.929687 56.60125 64.929687 
z
" style="fill: #ffffff; opacity: 0.8; stroke: #cccccc; stroke-linejoin: miter"/>
    </g>
    <g id="line2d_31">
     <path d="M 58.80125 38.246094 
L 69.80125 38.246094 
L 80.80125 38.246094 
" style="fill: none; stroke: #ff0000; stroke-width: 2; stroke-linecap: square"/>
    </g>
    <g id="text_18">
     <!-- PDR (Gyro Heading) -->
     <g transform="translate(89.60125 42.096094) scale(0.11 -0.11)">
      <defs>
       <path id="DejaVuSans-44" d="M 1259 4147 
L 1259 519 
L 2022 519 
Q 2988 519 3436 956 
Q 3884 1394 3884 2338 
Q 3884 3275 3436 3711 
Q 2988 4147 2022 4147 
L 1259 4147 
z
M 628 4666 
L 1925 4666 
Q 3281 4666 3915 4102 
Q 4550 3538 4550 2338 
Q 4550 1131 3912 565 
Q 3275 0 1925 0 
L 628 0 
L 628 4666 
z
" transform="scale(0.015625)"/>
       <path id="DejaVuSans-52" d="M 2841 2188 
Q 3044 2119 3236 1894 
Q 3428 1669 3622 1275 
L 4263 0 
L 3584 0 
L 2988 1197 
Q 2756 1666 2539 1819 
Q 2322 1972 1947 1972 
L 1259 1972 
L 1259 0 
L 628 0 
L 628 4666 
L 2053 4666 
Q 2853 4666 3247 4331 
Q 3641 3997 3641 3322 
Q 3641 2881 3436 2590 
Q 3231 2300 2841 2188 
z
M 1259 4147 
L 1259 2491 
L 2053 2491 
Q 2509 2491 2742 2702 
Q 2975 2913 2975 3322 
Q 2975 3731 2742 3939 
Q 2509 4147 2053 4147 
L 1259 4147 
z
" transform="scale(0.015625)"/>
       <path id="DejaVuSans-28" d="M 1984 4856 
Q 1566 4138 1362 3434 
Q 1159 2731 1159 2009 
Q 1159 1288 1364 580 
Q 1569 -128 1984 -844 
L 1484 -844 
Q 1016 -109 783 600 
Q 550 1309 550 2009 
Q 550 2706 781 3412 
Q 1013 4119 1484 4856 
L 1984 4856 
z
" transform="scale(0.015625)"/>
       <path id="DejaVuSans-47" d="M 3809 666 
L 3809 1919 
L 2778 1919 
L 2778 2438 
L 4434 2438 
L 4434 434 
Q 4069 175 3628 42 
Q 3188 -91 2688 -91 
Q 1594 -91 976 548 
Q 359 1188 359 2328 
Q 359 3472 976 4111 
Q 1594 4750 2688 4750 
Q 3144 4750 3555 4637 
Q 3966 4525 4313 4306 
L 4313 3634 
Q 3963 3931 3569 4081 
Q 3175 4231 2741 4231 
Q 1884 4231 1454 3753 
Q 1025 3275 1025 2328 
Q 1025 1384 1454 906 
Q 1884 428 2741 428 
Q 3075 428 3337 486 
Q 3600 544 3809 666 
z
" transform="scale(0.015625)"/>
       <path id="DejaVuSans-79" d="M 2059 -325 
Q 1816 -950 1584 -1140 
Q 1353 -1331 966 -1331 
L 506 -1331 
L 506 -850 
L 844 -850 
Q 1081 -850 1212 -737 
Q 1344 -625 1503 -206 
L 1606 56 
L 191 3500 
L 800 3500 
L 1894 763 
L 2988 3500 
L 3597 3500 
L 2059 -325 
z
" transform="scale(0.015625)"/>
       <path id="DejaVuSans-48" d="M 628 4666 
L 1259 4666 
L 1259 2753 
L 3553 2753 
L 3553 4666 
L 4184 4666 
L 4184 0 
L 3553 0 
L 3553 2222 
L 1259 2222 
L 1259 0 
L 628 0 
L 628 4666 
z
" transform="scale(0.015625)"/>
       <path id="DejaVuSans-61" d="M 2194 1759 
Q 1497 1759 1228 1600 
Q 959 1441 959 1056 
Q 959 750 1161 570 
Q 1363 391 1709 391 
Q 2188 391 2477 730 
Q 2766 1069 2766 1631 
L 2766 1759 
L 2194 1759 
z
M 3341 1997 
L 3341 0 
L 2766 0 
L 2766 531 
Q 2569 213 2275 61 
Q 1981 -91 1556 -91 
Q 1019 -91 701 211 
Q 384 513 384 1019 
Q 384 1609 779 1909 
Q 1175 2209 1959 2209 
L 2766 2209 
L 2766 2266 
Q 2766 2663 2505 2880 
Q 2244 3097 1772 3097 
Q 1472 3097 1187 3025 
Q 903 2953 641 2809 
L 641 3341 
Q 956 3463 1253 3523 
Q 1550 3584 1831 3584 
Q 2591 3584 2966 3190 
Q 3341 2797 3341 1997 
z
" transform="scale(0.015625)"/>
       <path id="DejaVuSans-64" d="M 2906 2969 
L 2906 4863 
L 3481 4863 
L 3481 0 
L 2906 0 
L 2906 525 
Q 2725 213 2448 61 
Q 2172 -91 1784 -91 
Q 1150 -91 751 415 
Q 353 922 353 1747 
Q 353 2572 751 3078 
Q 1150 3584 1784 3584 
Q 2172 3584 2448 3432 
Q 2725 3281 2906 2969 
z
M 947 1747 
Q 947 1113 1208 752 
Q 1469 391 1925 391 
Q 2381 391 2643 752 
Q 2906 1113 2906 1747 
Q 2906 2381 2643 2742 
Q 2381 3103 1925 3103 
Q 1469 3103 1208 2742 
Q 947 2381 947 1747 
z
" transform="scale(0.015625)"/>
       <path id="DejaVuSans-67" d="M 2906 1791 
Q 2906 2416 2648 2759 
Q 2391 3103 1925 3103 
Q 1463 3103 1205 2759 
Q 947 2416 947 1791 
Q 947 1169 1205 825 
Q 1463 481 1925 481 
Q 2391 481 2648 825 
Q 2906 1169 2906 1791 
z
M 3481 434 
Q 3481 -459 3084 -895 
Q 2688 -1331 1869 -1331 
Q 1566 -1331 1297 -1286 
Q 1028 -1241 775 -1147 
L 775 -588 
Q 1028 -725 1275 -790 
Q 1522 -856 1778 -856 
Q 2344 -856 2625 -561 
Q 2906 -266 2906 331 
L 2906 616 
Q 2728 306 2450 153 
Q 2172 0 1784 0 
Q 1141 0 747 490 
Q 353 981 353 1791 
Q 353 2603 747 3093 
Q 1141 3584 1784 3584 
Q 2172 3584 2450 3431 
Q 2728 3278 2906 2969 
L 2906 3500 
L 3481 3500 
L 3481 434 
z
" transform="scale(0.015625)"/>
       <path id="DejaVuSans-29" d="M 513 4856 
L 1013 4856 
Q 1481 4119 1714 3412 
Q 1947 2706 1947 2009 
Q 1947 1309 1714 600 
Q 1481 -109 1013 -844 
L 513 -844 
Q 928 -128 1133 580 
Q 1338 1288 1338 2009 
Q 1338 2731 1133 3434 
Q 928 4138 513 4856 
z
" transform="scale(0.015625)"/>
      </defs>
      <use xlink:href="#DejaVuSans-50"/>
      <use xlink:href="#DejaVuSans-44" x="60.302734"/>
      <use xlink:href="#DejaVuSans-52" x="137.304688"/>
      <use xlink:href="#DejaVuSans-20" x="206.787109"/>
      <use xlink:href="#DejaVuSans-28" x="238.574219"/>
      <use xlink:href="#DejaVuSans-47" x="277.587891"/>
      <use xlink:href="#DejaVuSans-79" x="355.078125"/>
      <use xlink:href="#DejaVuSans-72" x="414.257812"/>
      <use xlink:href="#DejaVuSans-6f" x="453.121094"/>
      <use xlink:href="#DejaVuSans-20" x="514.302734"/>
      <use xlink:href="#DejaVuSans-48" x="546.089844"/>
      <use xlink:href="#DejaVuSans-65" x="621.285156"/>
      <use xlink:href="#DejaVuSans-61" x="682.808594"/>
      <use xlink:href="#DejaVuSans-64" x="744.087891"/>
      <use xlink:href="#DejaVuSans-69" x="807.564453"/>
      <use xlink:href="#DejaVuSans-6e" x="835.347656"/>
      <use xlink:href="#DejaVuSans-67" x="898.726562"/>
      <use xlink:href="#DejaVuSans-29" x="962.203125"/>
     </g>
    </g>
    <g id="line2d_32">
     <path d="M 58.80125 54.392031 
L 69.80125 54.392031 
L 80.80125 54.392031 
" style="fill: none; stroke: #0000ff; stroke-width: 2; stroke-linecap: square"/>
    </g>
    <g id="text_19">
     <!-- PDR (Mag Heading) -->
     <g transform="translate(89.60125 58.242031) scale(0.11 -0.11)">
      <defs>
       <path id="DejaVuSans-4d" d="M 628 4666 
L 1569 4666 
L 2759 1491 
L 3956 4666 
L 4897 4666 
L 4897 0 
L 4281 0 
L 4281 4097 
L 3078 897 
L 2444 897 
L 1241 4097 
L 1241 0 
L 628 0 
L 628 4666 
z
" transform="scale(0.015625)"/>
      </defs>
      <use xlink:href="#DejaVuSans-50"/>
      <use xlink:href="#DejaVuSans-44" x="60.302734"/>
      <use xlink:href="#DejaVuSans-52" x="137.304688"/>
      <use xlink:href="#DejaVuSans-20" x="206.787109"/>
      <use xlink:href="#DejaVuSans-28" x="238.574219"/>
      <use xlink:href="#DejaVuSans-4d" x="277.587891"/>
      <use xlink:href="#DejaVuSans-61" x="363.867188"/>
      <use xlink:href="#DejaVuSans-67" x="425.146484"/>
      <use xlink:href="#DejaVuSans-20" x="488.623047"/>
      <use xlink:href="#DejaVuSans-48" x="520.410156"/>
      <use xlink:href="#DejaVuSans-65" x="595.605469"/>
      <use xlink:href="#DejaVuSans-61" x="657.128906"/>
      <use xlink:href="#DejaVuSans-64" x="718.408203"/>
      <use xlink:href="#DejaVuSans-69" x="781.884766"/>
      <use xlink:href="#DejaVuSans-6e" x="809.667969"/>
      <use xlink:href="#DejaVuSans-67" x="873.046875"/>
      <use xlink:href="#DejaVuSans-29" x="936.523438"/>
     </g>
    </g>
   </g>
  </g>
 </g>
 <defs>
  <clipPath id="p47aaedf0b2">
   <rect x="48.90125" y="23.837812" width="799.45" height="359.56"/>
  </clipPath>
 </defs>
</svg>
