<?xml version="1.0" encoding="utf-8" standalone="no"?>
<!DOCTYPE svg PUBLIC "-//W3C//DTD SVG 1.1//EN"
  "http://www.w3.org/Graphics/SVG/1.1/DTD/svg11.dtd">
<svg xmlns:xlink="http://www.w3.org/1999/xlink" width="855.42625pt" height="422.889687pt" viewBox="0 0 855.42625 422.889687" xmlns="http://www.w3.org/2000/svg" version="1.1">
 <metadata>
  <rdf:RDF xmlns:dc="http://purl.org/dc/elements/1.1/" xmlns:cc="http://creativecommons.org/ns#" xmlns:rdf="http://www.w3.org/1999/02/22-rdf-syntax-ns#">
   <cc:Work>
    <dc:type rdf:resource="http://purl.org/dc/dcmitype/StillImage"/>
    <dc:format>image/svg+xml</dc:format>
    <dc:creator>
     <cc:Agent>
      <dc:title>Matplotlib v3.10.7, https://matplotlib.org/</dc:title>
     </cc:Agent>
    </dc:creator>
   </cc:Work>
  </rdf:RDF>
 </metadata>
 <defs>
  <style type="text/css">*{stroke-linejoin: round; stroke-linecap: butt}</style>
 </defs>
 <g id="figure_1">
  <g id="patch_1">
   <path d="M 0 422.889687 
L 855.42625 422.889687 
L 855.42625 0 
L 0 0 
z
" style="fill: #ffffff"/>
  </g>
  <g id="axes_1">
   <g id="patch_2">
    <path d="M 36.17625 383.397812 
L 848.22625 383.397812 
L 848.22625 23.837812 
L 36.17625 23.837812 
z
" style="fill: #ffffff"/>
   </g>
   <g id="matplotlib.axis_1">
    <g id="xtick_1">
     <g id="line2d_1">
      <path d="M 36.17625 383.397812 
L 36.17625 23.837812 
" clip-path="url(#pa295a460fb)" style="fill: none; stroke: #b0b0b0; stroke-opacity: 0.3; stroke-width: 0.8; stroke-linecap: square"/>
     </g>
     <g id="line2d_2">
      <defs>
       <path id="m011ff4090e" d="M 0 0 
L 0 3.5 
" style="stroke: #000000; stroke-width: 0.8"/>
      </defs>
      <g>
       <use xlink:href="#m011ff4090e" x="36.17625" y="383.397812" style="stroke: #000000; stroke-width: 0.8"/>
      </g>
     </g>
     <g id="text_1">
      <!-- 0 -->
      <g transform="translate(32.995 397.99625) scale(0.1 -0.1)">
       <defs>
        <path id="DejaVuSans-30" d="M 2034 4250 
Q 1547 4250 1301 3770 
Q 1056 3291 1056 2328 
Q 1056 1369 1301 889 
Q 1547 409 2034 409 
Q 2525 409 2770 889 
Q 3016 1369 3016 2328 
Q 3016 3291 2770 3770 
Q 2525 4250 2034 4250 
z
M 2034 4750 
Q 2819 4750 3233 4129 
Q 3647 3509 3647 2328 
Q 3647 1150 3233 529 
Q 2819 -91 2034 -91 
Q 1250 -91 836 529 
Q 422 1150 422 2328 
Q 422 3509 836 4129 
Q 1250 4750 2034 4750 
z
" transform="scale(0.015625)"/>
       </defs>
       <use xlink:href="#DejaVuSans-30"/>
      </g>
     </g>
    </g>
    <g id="xtick_2">
     <g id="line2d_3">
      <path d="M 171.529196 383.397812 
L 171.529196 23.837812 
" clip-path="url(#pa295a460fb)" style="fill: none; stroke: #b0b0b0; stroke-opacity: 0.3; stroke-width: 0.8; stroke-linecap: square"/>
     </g>
     <g id="line2d_4">
      <g>
       <use xlink:href="#m011ff4090e" x="171.529196" y="383.397812" style="stroke: #000000; stroke-width: 0.8"/>
      </g>
     </g>
     <g id="text_2">
      <!-- 20 -->
      <g transform="translate(165.166696 397.99625) scale(0.1 -0.1)">
       <defs>
        <path id="DejaVuSans-32" d="M 1228 531 
L 3431 531 
L 3431 0 
L 469 0 
L 469 531 
Q 828 903 1448 1529 
Q 2069 2156 2228 2338 
Q 2531 2678 2651 2914 
Q 2772 3150 2772 3378 
Q 2772 3750 2511 3984 
Q 2250 4219 1831 4219 
Q 1534 4219 1204 4116 
Q 875 4013 500 3803 
L 500 4441 
Q 881 4594 1212 4672 
Q 1544 4750 1819 4750 
Q 2544 4750 2975 4387 
Q 3406 4025 3406 3419 
Q 3406 3131 3298 2873 
Q 3191 2616 2906 2266 
Q 2828 2175 2409 1742 
Q 1991 1309 1228 531 
z
" transform="scale(0.015625)"/>
       </defs>
       <use xlink:href="#DejaVuSans-32"/>
       <use xlink:href="#DejaVuSans-30" transform="translate(63.623047 0)"/>
      </g>
     </g>
    </g>
    <g id="xtick_3">
     <g id="line2d_5">
      <path d="M 306.882142 383.397812 
L 306.882142 23.837812 
" clip-path="url(#pa295a460fb)" style="fill: none; stroke: #b0b0b0; stroke-opacity: 0.3; stroke-width: 0.8; stroke-linecap: square"/>
     </g>
     <g id="line2d_6">
      <g>
       <use xlink:href="#m011ff4090e" x="306.882142" y="383.397812" style="stroke: #000000; stroke-width: 0.8"/>
      </g>
     </g>
     <g id="text_3">
      <!-- 40 -->
      <g transform="translate(300.519642 397.99625) scale(0.1 -0.1)">
       <defs>
        <path id="DejaVuSans-34" d="M 2419 4116 
L 825 1625 
L 2419 1625 
L 2419 4116 
z
M 2253 4666 
L 3047 4666 
L 3047 1625 
L 3713 1625 
L 3713 1100 
L 3047 1100 
L 3047 0 
L 2419 0 
L 2419 1100 
L 313 1100 
L 313 1709 
L 2253 4666 
z
" transform="scale(0.015625)"/>
       </defs>
       <use xlink:href="#DejaVuSans-34"/>
       <use xlink:href="#DejaVuSans-30" transform="translate(63.623047 0)"/>
      </g>
     </g>
    </g>
    <g id="xtick_4">
     <g id="line2d_7">
      <path d="M 442.235088 383.397812 
L 442.235088 23.837812 
" clip-path="url(#pa295a460fb)" style="fill: none; stroke: #b0b0b0; stroke-opacity: 0.3; stroke-width: 0.8; stroke-linecap: square"/>
     </g>
     <g id="line2d_8">
      <g>
       <use xlink:href="#m011ff4090e" x="442.235088" y="383.397812" style="stroke: #000000; stroke-width: 0.8"/>
      </g>
     </g>
     <g id="text_4">
      <!-- 60 -->
      <g transform="translate(435.872588 397.99625) scale(0.1 -0.1)">
       <defs>
        <path id="DejaVuSans-36" d="M 2113 2584 
Q 1688 2584 1439 2293 
Q 1191 2003 1191 1497 
Q 1191 994 1439 701 
Q 1688 409 2113 409 
Q 2538 409 2786 701 
Q 3034 994 3034 1497 
Q 3034 2003 2786 2293 
Q 2538 2584 2113 2584 
z
M 3366 4563 
L 3366 3988 
Q 3128 4100 2886 4159 
Q 2644 4219 2406 4219 
Q 1781 4219 1451 3797 
Q 1122 3375 1075 2522 
Q 1259 2794 1537 2939 
Q 1816 3084 2150 3084 
Q 2853 3084 3261 2657 
Q 3669 2231 3669 1497 
Q 3669 778 3244 343 
Q 2819 -91 2113 -91 
Q 1303 -91 875 529 
Q 447 1150 447 2328 
Q 447 3434 972 4092 
Q 1497 4750 2381 4750 
Q 2619 4750 2861 4703 
Q 3103 4656 3366 4563 
z
" transform="scale(0.015625)"/>
       </defs>
       <use xlink:href="#DejaVuSans-36"/>
       <use xlink:href="#DejaVuSans-30" transform="translate(63.623047 0)"/>
      </g>
     </g>
    </g>
    <g id="xtick_5">
     <g id="line2d_9">
      <path d="M 577.588034 383.397812 
L 577.588034 23.837812 
" clip-path="url(#pa295a460fb)" style="fill: none; stroke: #b0b0b0; stroke-opacity: 0.3; stroke-width: 0.8; stroke-linecap: square"/>
     </g>
     <g id="line2d_10">
      <g>
       <use xlink:href="#m011ff4090e" x="577.588034" y="383.397812" style="stroke: #000000; stroke-width: 0.8"/>
      </g>
     </g>
     <g id="text_5">
      <!-- 80 -->
      <g transform="translate(571.225534 397.99625) scale(0.1 -0.1)">
       <defs>
        <path id="DejaVuSans-38" d="M 2034 2216 
Q 1584 2216 1326 1975 
Q 1069 1734 1069 1313 
Q 1069 891 1326 650 
Q 1584 409 2034 409 
Q 2484 409 2743 651 
Q 3003 894 3003 1313 
Q 3003 1734 2745 1975 
Q 2488 2216 2034 2216 
z
M 1403 2484 
Q 997 2584 770 2862 
Q 544 3141 544 3541 
Q 544 4100 942 4425 
Q 1341 4750 2034 4750 
Q 2731 4750 3128 4425 
Q 3525 4100 3525 3541 
Q 3525 3141 3298 2862 
Q 3072 2584 2669 2484 
Q 3125 2378 3379 2068 
Q 3634 1759 3634 1313 
Q 3634 634 3220 271 
Q 2806 -91 2034 -91 
Q 1263 -91 848 271 
Q 434 634 434 1313 
Q 434 1759 690 2068 
Q 947 2378 1403 2484 
z
M 1172 3481 
Q 1172 3119 1398 2916 
Q 1625 2713 2034 2713 
Q 2441 2713 2670 2916 
Q 2900 3119 2900 3481 
Q 2900 3844 2670 4047 
Q 2441 4250 2034 4250 
Q 1625 4250 1398 4047 
Q 1172 3844 1172 3481 
z
" transform="scale(0.015625)"/>
       </defs>
       <use xlink:href="#DejaVuSans-38"/>
       <use xlink:href="#DejaVuSans-30" transform="translate(63.623047 0)"/>
      </g>
     </g>
    </g>
    <g id="xtick_6">
     <g id="line2d_11">
      <path d="M 712.94098 383.397812 
L 712.94098 23.837812 
" clip-path="url(#pa295a460fb)" style="fill: none; stroke: #b0b0b0; stroke-opacity: 0.3; stroke-width: 0.8; stroke-linecap: square"/>
     </g>
     <g id="line2d_12">
      <g>
       <use xlink:href="#m011ff4090e" x="712.94098" y="383.397812" style="stroke: #000000; stroke-width: 0.8"/>
      </g>
     </g>
     <g id="text_6">
      <!-- 100 -->
      <g transform="translate(703.39723 397.99625) scale(0.1 -0.1)">
       <defs>
        <path id="DejaVuSans-31" d="M 794 531 
L 1825 531 
L 1825 4091 
L 703 3866 
L 703 4441 
L 1819 4666 
L 2450 4666 
L 2450 531 
L 3481 531 
L 3481 0 
L 794 0 
L 794 531 
z
" transform="scale(0.015625)"/>
       </defs>
       <use xlink:href="#DejaVuSans-31"/>
       <use xlink:href="#DejaVuSans-30" transform="translate(63.623047 0)"/>
       <use xlink:href="#DejaVuSans-30" transform="translate(127.246094 0)"/>
      </g>
     </g>
    </g>
    <g id="text_7">
     <!-- Time [s] -->
     <g transform="translate(417.806563 413.194062) scale(0.12 -0.12)">
      <defs>
       <path id="DejaVuSans-54" d="M -19 4666 
L 3928 4666 
L 3928 4134 
L 2272 4134 
L 2272 0 
L 1638 0 
L 1638 4134 
L -19 4134 
L -19 4666 
z
" transform="scale(0.015625)"/>
       <path id="DejaVuSans-69" d="M 603 3500 
L 1178 3500 
L 1178 0 
L 603 0 
L 603 3500 
z
M 603 4863 
L 1178 4863 
L 1178 4134 
L 603 4134 
L 603 4863 
z
" transform="scale(0.015625)"/>
       <path id="DejaVuSans-6d" d="M 3328 2828 
Q 3544 3216 3844 3400 
Q 4144 3584 4550 3584 
Q 5097 3584 5394 3201 
Q 5691 2819 5691 2113 
L 5691 0 
L 5113 0 
L 5113 2094 
Q 5113 2597 4934 2840 
Q 4756 3084 4391 3084 
Q 3944 3084 3684 2787 
Q 3425 2491 3425 1978 
L 3425 0 
L 2847 0 
L 2847 2094 
Q 2847 2600 2669 2842 
Q 2491 3084 2119 3084 
Q 1678 3084 1418 2786 
Q 1159 2488 1159 1978 
L 1159 0 
L 581 0 
L 581 3500 
L 1159 3500 
L 1159 2956 
Q 1356 3278 1631 3431 
Q 1906 3584 2284 3584 
Q 2666 3584 2933 3390 
Q 3200 3197 3328 2828 
z
" transform="scale(0.015625)"/>
       <path id="DejaVuSans-65" d="M 3597 1894 
L 3597 1613 
L 953 1613 
Q 991 1019 1311 708 
Q 1631 397 2203 397 
Q 2534 397 2845 478 
Q 3156 559 3463 722 
L 3463 178 
Q 3153 47 2828 -22 
Q 2503 -91 2169 -91 
Q 1331 -91 842 396 
Q 353 884 353 1716 
Q 353 2575 817 3079 
Q 1281 3584 2069 3584 
Q 2775 3584 3186 3129 
Q 3597 2675 3597 1894 
z
M 3022 2063 
Q 3016 2534 2758 2815 
Q 2500 3097 2075 3097 
Q 1594 3097 1305 2825 
Q 1016 2553 972 2059 
L 3022 2063 
z
" transform="scale(0.015625)"/>
       <path id="DejaVuSans-20" transform="scale(0.015625)"/>
       <path id="DejaVuSans-5b" d="M 550 4863 
L 1875 4863 
L 1875 4416 
L 1125 4416 
L 1125 -397 
L 1875 -397 
L 1875 -844 
L 550 -844 
L 550 4863 
z
" transform="scale(0.015625)"/>
       <path id="DejaVuSans-73" d="M 2834 3397 
L 2834 2853 
Q 2591 2978 2328 3040 
Q 2066 3103 1784 3103 
Q 1356 3103 1142 2972 
Q 928 2841 928 2578 
Q 928 2378 1081 2264 
Q 1234 2150 1697 2047 
L 1894 2003 
Q 2506 1872 2764 1633 
Q 3022 1394 3022 966 
Q 3022 478 2636 193 
Q 2250 -91 1575 -91 
Q 1294 -91 989 -36 
Q 684 19 347 128 
L 347 722 
Q 666 556 975 473 
Q 1284 391 1588 391 
Q 1994 391 2212 530 
Q 2431 669 2431 922 
Q 2431 1156 2273 1281 
Q 2116 1406 1581 1522 
L 1381 1569 
Q 847 1681 609 1914 
Q 372 2147 372 2553 
Q 372 3047 722 3315 
Q 1072 3584 1716 3584 
Q 2034 3584 2315 3537 
Q 2597 3491 2834 3397 
z
" transform="scale(0.015625)"/>
       <path id="DejaVuSans-5d" d="M 1947 4863 
L 1947 -844 
L 622 -844 
L 622 -397 
L 1369 -397 
L 1369 4416 
L 622 4416 
L 622 4863 
L 1947 4863 
z
" transform="scale(0.015625)"/>
      </defs>
      <use xlink:href="#DejaVuSans-54"/>
      <use xlink:href="#DejaVuSans-69" transform="translate(57.958984 0)"/>
      <use xlink:href="#DejaVuSans-6d" transform="translate(85.742188 0)"/>
      <use xlink:href="#DejaVuSans-65" transform="translate(183.154297 0)"/>
      <use xlink:href="#DejaVuSans-20" transform="translate(244.677734 0)"/>
      <use xlink:href="#DejaVuSans-5b" transform="translate(276.464844 0)"/>
      <use xlink:href="#DejaVuSans-73" transform="translate(315.478516 0)"/>
      <use xlink:href="#DejaVuSans-5d" transform="translate(367.578125 0)"/>
     </g>
    </g>
   </g>
   <g id="matplotlib.axis_2">
    <g id="ytick_1">
     <g id="line2d_13">
      <path d="M 36.17625 367.666774 
L 848.22625 367.666774 
" clip-path="url(#pa295a460fb)" style="fill: none; stroke: #b0b0b0; stroke-opacity: 0.3; stroke-width: 0.8; stroke-linecap: square"/>
     </g>
     <g id="line2d_14">
      <defs>
       <path id="m871f7f9eac" d="M 0 0 
L -3.5 0 
" style="stroke: #000000; stroke-width: 0.8"/>
      </defs>
      <g>
       <use xlink:href="#m871f7f9eac" x="36.17625" y="367.666774" style="stroke: #000000; stroke-width: 0.8"/>
      </g>
     </g>
     <g id="text_8">
      <!-- 0 -->
      <g transform="translate(22.81375 371.465992) scale(0.1 -0.1)">
       <use xlink:href="#DejaVuSans-30"/>
      </g>
     </g>
    </g>
    <g id="ytick_2">
     <g id="line2d_15">
      <path d="M 36.17625 308.118256 
L 848.22625 308.118256 
" clip-path="url(#pa295a460fb)" style="fill: none; stroke: #b0b0b0; stroke-opacity: 0.3; stroke-width: 0.8; stroke-linecap: square"/>
     </g>
     <g id="line2d_16">
      <g>
       <use xlink:href="#m871f7f9eac" x="36.17625" y="308.118256" style="stroke: #000000; stroke-width: 0.8"/>
      </g>
     </g>
     <g id="text_9">
      <!-- 1 -->
      <g transform="translate(22.81375 311.917475) scale(0.1 -0.1)">
       <use xlink:href="#DejaVuSans-31"/>
      </g>
     </g>
    </g>
    <g id="ytick_3">
     <g id="line2d_17">
      <path d="M 36.17625 248.569738 
L 848.22625 248.569738 
" clip-path="url(#pa295a460fb)" style="fill: none; stroke: #b0b0b0; stroke-opacity: 0.3; stroke-width: 0.8; stroke-linecap: square"/>
     </g>
     <g id="line2d_18">
      <g>
       <use xlink:href="#m871f7f9eac" x="36.17625" y="248.569738" style="stroke: #000000; stroke-width: 0.8"/>
      </g>
     </g>
     <g id="text_10">
      <!-- 2 -->
      <g transform="translate(22.81375 252.368957) scale(0.1 -0.1)">
       <use xlink:href="#DejaVuSans-32"/>
      </g>
     </g>
    </g>
    <g id="ytick_4">
     <g id="line2d_19">
      <path d="M 36.17625 189.02122 
L 848.22625 189.02122 
" clip-path="url(#pa295a460fb)" style="fill: none; stroke: #b0b0b0; stroke-opacity: 0.3; stroke-width: 0.8; stroke-linecap: square"/>
     </g>
     <g id="line2d_20">
      <g>
       <use xlink:href="#m871f7f9eac" x="36.17625" y="189.02122" style="stroke: #000000; stroke-width: 0.8"/>
      </g>
     </g>
     <g id="text_11">
      <!-- 3 -->
      <g transform="translate(22.81375 192.820439) scale(0.1 -0.1)">
       <defs>
        <path id="DejaVuSans-33" d="M 2597 2516 
Q 3050 2419 3304 2112 
Q 3559 1806 3559 1356 
Q 3559 666 3084 287 
Q 2609 -91 1734 -91 
Q 1441 -91 1130 -33 
Q 819 25 488 141 
L 488 750 
Q 750 597 1062 519 
Q 1375 441 1716 441 
Q 2309 441 2620 675 
Q 2931 909 2931 1356 
Q 2931 1769 2642 2001 
Q 2353 2234 1838 2234 
L 1294 2234 
L 1294 2753 
L 1863 2753 
Q 2328 2753 2575 2939 
Q 2822 3125 2822 3475 
Q 2822 3834 2567 4026 
Q 2313 4219 1838 4219 
Q 1578 4219 1281 4162 
Q 984 4106 628 3988 
L 628 4550 
Q 988 4650 1302 4700 
Q 1616 4750 1894 4750 
Q 2613 4750 3031 4423 
Q 3450 4097 3450 3541 
Q 3450 3153 3228 2886 
Q 3006 2619 2597 2516 
z
" transform="scale(0.015625)"/>
       </defs>
       <use xlink:href="#DejaVuSans-33"/>
      </g>
     </g>
    </g>
    <g id="ytick_5">
     <g id="line2d_21">
      <path d="M 36.17625 129.472703 
L 848.22625 129.472703 
" clip-path="url(#pa295a460fb)" style="fill: none; stroke: #b0b0b0; stroke-opacity: 0.3; stroke-width: 0.8; stroke-linecap: square"/>
     </g>
     <g id="line2d_22">
      <g>
       <use xlink:href="#m871f7f9eac" x="36.17625" y="129.472703" style="stroke: #000000; stroke-width: 0.8"/>
      </g>
     </g>
     <g id="text_12">
      <!-- 4 -->
      <g transform="translate(22.81375 133.271921) scale(0.1 -0.1)">
       <use xlink:href="#DejaVuSans-34"/>
      </g>
     </g>
    </g>
    <g id="ytick_6">
     <g id="line2d_23">
      <path d="M 36.17625 69.924185 
L 848.22625 69.924185 
" clip-path="url(#pa295a460fb)" style="fill: none; stroke: #b0b0b0; stroke-opacity: 0.3; stroke-width: 0.8; stroke-linecap: square"/>
     </g>
     <g id="line2d_24">
      <g>
       <use xlink:href="#m871f7f9eac" x="36.17625" y="69.924185" style="stroke: #000000; stroke-width: 0.8"/>
      </g>
     </g>
     <g id="text_13">
      <!-- 5 -->
      <g transform="translate(22.81375 73.723404) scale(0.1 -0.1)">
       <defs>
        <path id="DejaVuSans-35" d="M 691 4666 
L 3169 4666 
L 3169 4134 
L 1269 4134 
L 1269 2991 
Q 1406 3038 1543 3061 
Q 1681 3084 1819 3084 
Q 2600 3084 3056 2656 
Q 3513 2228 3513 1497 
Q 3513 744 3044 326 
Q 2575 -91 1722 -91 
Q 1428 -91 1123 -41 
Q 819 9 494 109 
L 494 744 
Q 775 591 1075 516 
Q 1375 441 1709 441 
Q 2250 441 2565 725 
Q 2881 1009 2881 1497 
Q 2881 1984 2565 2268 
Q 2250 2553 1709 2553 
Q 1456 2553 1204 2497 
Q 953 2441 691 2322 
L 691 4666 
z
" transform="scale(0.015625)"/>
       </defs>
       <use xlink:href="#DejaVuSans-35"/>
      </g>
     </g>
    </g>
    <g id="text_14">
     <!-- Position Error [m] -->
     <g transform="translate(16.318125 255.936875) rotate(-90) scale(0.12 -0.12)">
      <defs>
       <path id="DejaVuSans-50" d="M 1259 4147 
L 1259 2394 
L 2053 2394 
Q 2494 2394 2734 2622 
Q 2975 2850 2975 3272 
Q 2975 3691 2734 3919 
Q 2494 4147 2053 4147 
L 1259 4147 
z
M 628 4666 
L 2053 4666 
Q 2838 4666 3239 4311 
Q 3641 3956 3641 3272 
Q 3641 2581 3239 2228 
Q 2838 1875 2053 1875 
L 1259 1875 
L 1259 0 
L 628 0 
L 628 4666 
z
" transform="scale(0.015625)"/>
       <path id="DejaVuSans-6f" d="M 1959 3097 
Q 1497 3097 1228 2736 
Q 959 2375 959 1747 
Q 959 1119 1226 758 
Q 1494 397 1959 397 
Q 2419 397 2687 759 
Q 2956 1122 2956 1747 
Q 2956 2369 2687 2733 
Q 2419 3097 1959 3097 
z
M 1959 3584 
Q 2709 3584 3137 3096 
Q 3566 2609 3566 1747 
Q 3566 888 3137 398 
Q 2709 -91 1959 -91 
Q 1206 -91 779 398 
Q 353 888 353 1747 
Q 353 2609 779 3096 
Q 1206 3584 1959 3584 
z
" transform="scale(0.015625)"/>
       <path id="DejaVuSans-74" d="M 1172 4494 
L 1172 3500 
L 2356 3500 
L 2356 3053 
L 1172 3053 
L 1172 1153 
Q 1172 725 1289 603 
Q 1406 481 1766 481 
L 2356 481 
L 2356 0 
L 1766 0 
Q 1100 0 847 248 
Q 594 497 594 1153 
L 594 3053 
L 172 3053 
L 172 3500 
L 594 3500 
L 594 4494 
L 1172 4494 
z
" transform="scale(0.015625)"/>
       <path id="DejaVuSans-6e" d="M 3513 2113 
L 3513 0 
L 2938 0 
L 2938 2094 
Q 2938 2591 2744 2837 
Q 2550 3084 2163 3084 
Q 1697 3084 1428 2787 
Q 1159 2491 1159 1978 
L 1159 0 
L 581 0 
L 581 3500 
L 1159 3500 
L 1159 2956 
Q 1366 3272 1645 3428 
Q 1925 3584 2291 3584 
Q 2894 3584 3203 3211 
Q 3513 2838 3513 2113 
z
" transform="scale(0.015625)"/>
       <path id="DejaVuSans-45" d="M 628 4666 
L 3578 4666 
L 3578 4134 
L 1259 4134 
L 1259 2753 
L 3481 2753 
L 3481 2222 
L 1259 2222 
L 1259 531 
L 3634 531 
L 3634 0 
L 628 0 
L 628 4666 
z
" transform="scale(0.015625)"/>
       <path id="DejaVuSans-72" d="M 2631 2963 
Q 2534 3019 2420 3045 
Q 2306 3072 2169 3072 
Q 1681 3072 1420 2755 
Q 1159 2438 1159 1844 
L 1159 0 
L 581 0 
L 581 3500 
L 1159 3500 
L 1159 2956 
Q 1341 3275 1631 3429 
Q 1922 3584 2338 3584 
Q 2397 3584 2469 3576 
Q 2541 3569 2628 3553 
L 2631 2963 
z
" transform="scale(0.015625)"/>
      </defs>
      <use xlink:href="#DejaVuSans-50"/>
      <use xlink:href="#DejaVuSans-6f" transform="translate(56.677734 0)"/>
      <use xlink:href="#DejaVuSans-73" transform="translate(117.859375 0)"/>
      <use xlink:href="#DejaVuSans-69" transform="translate(169.958984 0)"/>
      <use xlink:href="#DejaVuSans-74" transform="translate(197.742188 0)"/>
      <use xlink:href="#DejaVuSans-69" transform="translate(236.951172 0)"/>
      <use xlink:href="#DejaVuSans-6f" transform="translate(264.734375 0)"/>
      <use xlink:href="#DejaVuSans-6e" transform="translate(325.916016 0)"/>
      <use xlink:href="#DejaVuSans-20" transform="translate(389.294922 0)"/>
      <use xlink:href="#DejaVuSans-45" transform="translate(421.082031 0)"/>
      <use xlink:href="#DejaVuSans-72" transform="translate(484.265625 0)"/>
      <use xlink:href="#DejaVuSans-72" transform="translate(523.628906 0)"/>
      <use xlink:href="#DejaVuSans-6f" transform="translate(562.492188 0)"/>
      <use xlink:href="#DejaVuSans-72" transform="translate(623.673828 0)"/>
      <use xlink:href="#DejaVuSans-20" transform="translate(664.787109 0)"/>
      <use xlink:href="#DejaVuSans-5b" transform="translate(696.574219 0)"/>
      <use xlink:href="#DejaVuSans-6d" transform="translate(735.587891 0)"/>
      <use xlink:href="#DejaVuSans-5d" transform="translate(833 0)"/>
     </g>
    </g>
   </g>
   <g id="line2d_25">
    <path d="M 36.17625 248.569738 
L 38.68028 217.723606 
L 38.747956 261.412567 
L 38.815632 260.578887 
L 42.064103 220.562284 
L 42.13178 264.251244 
L 42.199456 263.417565 
L 45.447927 223.400961 
L 45.515603 267.089919 
L 45.58328 266.25624 
L 48.83175 226.239637 
L 48.899427 269.928586 
L 48.967103 269.094907 
L 52.215574 229.078305 
L 52.283251 272.767254 
L 52.350927 271.933575 
L 55.599398 231.916976 
L 55.667074 275.605917 
L 55.734751 274.772238 
L 58.983221 234.755642 
L 59.050898 278.444578 
L 59.118574 277.610899 
L 62.367045 237.594308 
L 62.434722 281.283222 
L 62.502398 280.449543 
L 65.750869 240.432961 
L 65.818545 284.12185 
L 65.886222 283.288172 
L 69.134692 243.271603 
L 69.202369 286.960454 
L 69.270045 286.126776 
L 72.518516 246.110229 
L 72.586192 289.799028 
L 72.653869 288.965352 
L 75.90234 248.948836 
L 75.970016 292.637582 
L 76.037693 291.803907 
L 79.286163 251.78743 
L 79.35384 295.47613 
L 79.421516 294.642456 
L 82.669987 254.626025 
L 82.737663 298.314691 
L 82.80534 297.481019 
L 86.053811 257.464632 
L 86.121487 301.153202 
L 86.189164 300.319532 
L 89.437634 260.303209 
L 89.505311 303.991608 
L 89.572987 303.157942 
L 92.821458 263.141722 
L 92.889134 306.829925 
L 92.956811 305.996264 
L 96.205282 265.980185 
L 96.272958 309.668163 
L 96.340635 308.834509 
L 99.589105 268.81861 
L 99.656782 312.50629 
L 99.724458 311.672645 
L 102.972929 271.656981 
L 103.040605 315.344265 
L 103.108282 314.510632 
L 106.356753 274.49528 
L 106.424429 318.181968 
L 106.492105 317.348353 
L 109.740576 277.333444 
L 109.808253 321.019377 
L 109.875929 320.185787 
L 113.1244 280.171477 
L 113.192076 323.856587 
L 113.259753 323.02303 
L 116.508223 283.009451 
L 116.5759 326.693397 
L 116.643576 325.859884 
L 119.892047 285.847275 
L 119.959724 329.529757 
L 120.0274 328.696305 
L 123.275871 288.684953 
L 123.343547 332.3655 
L 123.411224 331.532131 
L 126.659694 291.522439 
L 126.727371 335.200568 
L 126.795047 334.367314 
L 130.043518 294.359762 
L 130.111195 338.03473 
L 130.178871 337.201638 
L 133.427342 297.196885 
L 133.495018 340.867455 
L 133.562695 340.034601 
L 136.811165 300.03368 
L 136.878842 343.698749 
L 136.946518 342.866235 
L 140.194989 302.870307 
L 140.262666 346.527245 
L 140.330342 345.695264 
L 143.578813 305.706457 
L 143.646489 349.351862 
L 143.714166 348.52074 
L 146.962636 308.542133 
L 147.030313 352.17104 
L 147.097989 351.34135 
L 150.34646 311.377427 
L 150.414136 354.980817 
L 150.481813 354.153734 
L 153.730284 314.212195 
L 153.79796 357.772204 
L 153.865637 356.950509 
L 157.114107 317.046147 
L 157.181784 360.522908 
L 157.24946 359.714556 
L 160.497931 319.879029 
L 160.565607 363.157025 
L 160.633284 362.393452 
L 162.731255 336.863503 
L 163.881755 322.710555 
L 163.949431 365.263265 
L 164.017108 364.748884 
L 164.558519 358.697192 
L 167.265578 325.540885 
L 167.400931 365.347995 
L 167.468608 365.482476 
L 167.603961 364.886462 
L 168.010019 360.597964 
L 170.649402 328.369488 
L 170.784755 363.372163 
L 171.055461 365.336429 
L 171.123137 365.289313 
L 171.326167 363.838195 
L 172.138284 354.408396 
L 174.033226 331.195276 
L 174.168579 360.763571 
L 174.642314 365.147427 
L 174.70999 365.216005 
L 174.845343 364.585426 
L 175.251402 360.364649 
L 177.417049 334.018489 
L 177.552402 358.020504 
L 178.229167 364.916582 
L 178.296843 365.086059 
L 178.36452 364.993449 
L 178.567549 363.550143 
L 179.31199 355.021096 
L 180.800873 336.837704 
L 180.936226 355.231843 
L 181.81602 364.65431 
L 181.951373 364.922167 
L 182.086726 364.268103 
L 182.492785 360.119173 
L 184.184697 339.651812 
L 184.320049 352.422458 
L 185.402873 364.367448 
L 185.538226 364.800006 
L 185.673579 364.333407 
L 186.011961 361.134583 
L 187.56852 342.459023 
L 187.703873 349.602345 
L 188.989726 364.063519 
L 189.125079 364.635081 
L 189.192756 364.604082 
L 189.328108 363.934744 
L 189.734167 359.860817 
L 190.952344 345.257025 
L 191.02002 345.951627 
L 192.576579 363.747495 
L 192.779609 364.493485 
L 192.914962 363.99354 
L 193.253344 360.85681 
L 194.336167 348.042092 
L 194.403844 343.119675 
L 194.47152 343.945418 
L 196.163432 363.420203 
L 196.366462 364.341895 
L 196.434138 364.274324 
L 196.637168 363.061269 
L 197.178579 357.262716 
L 197.719991 350.80733 
L 197.787668 340.284225 
L 197.855344 341.110907 
L 199.750285 363.078333 
L 199.953315 364.147135 
L 200.020991 364.16259 
L 200.156344 363.637839 
L 200.494727 360.564621 
L 201.103815 353.539208 
L 201.171491 337.44698 
L 201.239168 338.274369 
L 203.337138 362.7294 
L 203.607844 364.012542 
L 203.743197 363.644145 
L 204.013903 361.460462 
L 204.487638 356.215823 
L 204.555315 334.608747 
L 204.622991 335.436693 
L 206.923991 362.377003 
L 207.194697 363.831717 
L 207.262374 363.811354 
L 207.397727 363.268184 
L 207.736109 360.258559 
L 207.871462 358.788398 
L 207.939139 331.770352 
L 208.006815 332.598762 
L 210.510845 362.068092 
L 210.78155 363.84021 
L 210.849227 363.94749 
L 210.916903 363.87597 
L 211.119933 362.761593 
L 211.255286 361.563321 
L 211.322962 328.538525 
L 211.390639 329.368658 
L 214.368404 364.687568 
L 214.503756 364.940296 
L 214.639109 364.249532 
L 214.706786 326.026879 
L 214.774462 326.85841 
L 216.940109 352.189759 
L 217.481521 356.696625 
L 217.752227 357.829494 
L 217.88758 357.971238 
L 218.022933 357.805361 
L 218.09061 324.782992 
L 218.158286 325.593447 
L 219.714845 342.997092 
L 220.39161 348.687972 
L 220.797668 350.732336 
L 221.068374 351.252385 
L 221.203727 351.227534 
L 221.406757 350.834267 
L 221.474433 324.843658 
L 221.54211 325.610981 
L 222.760286 338.168451 
L 223.437051 343.208839 
L 223.84311 345.000146 
L 224.113816 345.521232 
L 224.316845 345.52601 
L 224.519874 345.198297 
L 224.79058 344.270571 
L 224.858257 326.210239 
L 224.925933 326.913774 
L 225.94108 336.312419 
L 226.685522 341.408285 
L 227.159257 343.37166 
L 227.497639 343.980133 
L 227.700669 343.997805 
L 227.903698 343.752477 
L 228.174404 343.031051 
L 228.24208 324.050127 
L 228.309757 324.75059 
L 229.527933 336.226989 
L 230.272375 341.423926 
L 230.74611 343.469769 
L 231.084492 344.140454 
L 231.287522 344.194154 
L 231.490551 343.982383 
L 231.558228 343.853767 
L 231.625904 321.727377 
L 231.693581 322.444184 
L 233.04711 335.571905 
L 233.791551 341.04288 
L 234.332963 343.566164 
L 234.671345 344.299692 
L 234.874375 344.389967 
L 234.942051 344.360418 
L 235.009728 319.349359 
L 235.077404 320.080068 
L 236.566287 334.887818 
L 237.378404 341.041246 
L 237.919816 343.657859 
L 238.258198 344.454759 
L 238.325875 344.527161 
L 238.393551 316.925275 
L 238.461228 317.66788 
L 240.017787 333.565416 
L 240.897581 340.602326 
L 241.438993 343.492923 
L 241.709699 344.349796 
L 241.777375 314.461362 
L 241.845052 315.214194 
L 243.536963 332.817546 
L 244.484434 340.58653 
L 245.025846 343.568382 
L 245.093522 343.835874 
L 245.161199 311.961064 
L 245.228875 312.722702 
L 247.05614 332.04572 
L 248.003611 340.09145 
L 248.477346 343.002303 
L 248.545022 309.428227 
L 248.612699 310.19747 
L 250.575317 331.250124 
L 251.590464 340.052762 
L 251.86117 341.87818 
L 251.928846 306.868102 
L 251.996523 307.643956 
L 254.094493 330.434206 
L 255.10964 339.500464 
L 255.244993 340.502177 
L 255.31267 304.287091 
L 255.380346 305.068754 
L 257.61367 329.604396 
L 258.628817 338.917196 
L 258.696493 301.682535 
L 258.76417 302.469264 
L 261.132846 328.752965 
L 262.012641 337.14483 
L 262.080317 299.060736 
L 262.147993 299.851941 
L 264.719699 328.586413 
L 265.396464 335.223361 
L 265.464141 296.421499 
L 265.531817 297.216649 
L 268.238876 327.713167 
L 268.780288 333.173399 
L 268.847964 293.767107 
L 268.915641 294.565753 
L 271.758053 326.824288 
L 272.164111 331.01733 
L 272.231788 291.098336 
L 272.299464 291.90008 
L 275.344906 326.639121 
L 275.547935 328.771233 
L 275.615612 288.417371 
L 275.683288 289.221877 
L 278.864082 325.727938 
L 278.931759 326.451219 
L 278.999435 285.725751 
L 279.067112 286.532731 
L 282.315582 324.069726 
L 282.383259 283.026178 
L 282.450935 283.835396 
L 285.699406 321.639364 
L 285.767083 280.320759 
L 285.834759 281.13202 
L 289.08323 319.169919 
L 289.150906 277.606566 
L 289.218583 278.419666 
L 292.467053 316.661027 
L 292.53473 274.884217 
L 292.602406 275.698976 
L 295.850877 314.117972 
L 295.918554 272.154316 
L 295.98623 272.970572 
L 299.234701 311.545239 
L 299.302377 269.41965 
L 299.370054 270.23728 
L 302.618524 308.950301 
L 302.686201 266.679577 
L 302.753877 267.498407 
L 304.987201 293.199933 
L 306.002348 303.235253 
L 306.070024 266.820549 
L 306.137701 267.568041 
L 307.626583 282.747674 
L 308.64173 291.10846 
L 309.386172 295.743947 
L 309.453848 269.113803 
L 309.521525 269.733721 
L 310.604348 278.563202 
L 311.416466 283.547614 
L 312.025554 286.157052 
L 312.499289 287.438319 
L 312.769995 287.860319 
L 312.837672 273.426387 
L 312.905348 273.867825 
L 313.649789 278.004714 
L 314.258878 280.314175 
L 314.732613 281.378287 
L 315.070995 281.728604 
L 315.341701 281.758944 
L 315.612407 281.566729 
L 315.95079 281.016156 
L 316.153819 280.522997 
L 316.221495 279.474487 
L 316.289172 279.693136 
L 316.762907 280.853487 
L 317.168966 281.318629 
L 317.439672 281.352034 
L 317.710378 281.163485 
L 318.04876 280.628835 
L 318.590172 279.326627 
L 319.266937 277.032571 
L 319.537643 275.918691 
L 319.672996 281.299389 
L 320.146731 281.828672 
L 320.55279 281.968077 
L 320.891172 281.861383 
L 321.297231 281.467036 
L 321.770966 280.645073 
L 322.312378 279.242226 
L 322.921466 277.101169 
L 323.056819 281.143337 
L 323.598231 281.935547 
L 324.00429 282.192341 
L 324.342672 282.183047 
L 324.681055 281.970756 
L 325.087113 281.450262 
L 325.560849 280.483482 
L 326.169937 278.6918 
L 326.30529 278.213019 
L 326.440643 280.897344 
L 326.982055 281.907713 
L 327.45579 282.372776 
L 327.861849 282.454735 
L 328.200231 282.29891 
L 328.60629 281.844629 
L 329.080025 280.952202 
L 329.689114 279.250316 
L 329.824467 280.565136 
L 330.433555 281.909812 
L 330.90729 282.512131 
L 331.313349 282.712153 
L 331.651731 282.654074 
L 332.05779 282.315286 
L 332.531525 281.553707 
L 333.072937 280.21335 
L 333.140614 279.932818 
L 333.817378 281.732419 
L 334.35879 282.609327 
L 334.764849 282.927803 
L 335.103231 282.968156 
L 335.441614 282.803534 
L 335.847673 282.337193 
L 336.321408 281.428846 
L 336.456761 281.098783 
L 336.524437 279.396064 
L 336.592114 279.635655 
L 337.268879 281.623029 
L 337.81029 282.655906 
L 338.284026 283.137304 
L 338.690084 283.23049 
L 339.028467 283.081958 
L 339.434526 282.633906 
L 339.840585 281.895988 
L 339.908261 278.771514 
L 339.975937 279.036108 
L 340.720379 281.466757 
L 341.329467 282.767665 
L 341.803202 283.33066 
L 342.209261 283.493594 
L 342.547643 283.402484 
L 342.953702 283.021883 
L 343.224408 282.605523 
L 343.292085 278.063917 
L 343.359761 278.3529 
L 344.171879 281.266875 
L 344.780967 282.741616 
L 345.322379 283.510856 
L 345.728438 283.743879 
L 346.06682 283.710595 
L 346.405202 283.4707 
L 346.608232 283.228261 
L 346.675908 277.279979 
L 346.743585 277.592711 
L 347.555702 280.807516 
L 348.232467 282.676008 
L 348.773879 283.603507 
L 349.179938 283.95646 
L 349.51832 284.02291 
L 349.856703 283.881774 
L 349.992055 283.767378 
L 350.059732 276.420357 
L 350.127408 276.756152 
L 351.007203 280.511405 
L 351.683967 282.569525 
L 352.293056 283.754167 
L 352.766791 284.21952 
L 353.105173 284.303018 
L 353.375879 284.219821 
L 353.443556 275.481713 
L 353.511232 275.839837 
L 354.391026 279.905779 
L 355.135467 282.416429 
L 355.744556 283.777974 
L 356.218291 284.383774 
L 356.62435 284.579683 
L 356.759703 284.578143 
L 356.827379 274.458668 
L 356.895056 274.838329 
L 357.842526 279.495102 
L 358.586968 282.208513 
L 359.196056 283.745687 
L 359.737468 284.565417 
L 360.143526 284.832407 
L 360.211203 273.361982 
L 360.278879 273.762401 
L 361.294026 279.041725 
L 362.106144 282.175953 
L 362.782909 283.960028 
L 363.324321 284.808983 
L 363.52735 284.990768 
L 363.595027 272.197933 
L 363.662703 272.618336 
L 364.67785 278.226297 
L 365.557644 281.900069 
L 366.234409 283.877451 
L 366.775821 284.886872 
L 366.911174 285.056981 
L 366.97885 270.968596 
L 367.046527 271.408205 
L 368.12935 277.680404 
L 369.009144 281.582887 
L 369.753586 283.925987 
L 370.294997 285.030408 
L 370.362674 269.675457 
L 370.43035 270.133492 
L 371.58085 277.096663 
L 372.460645 281.223761 
L 373.205086 283.775643 
L 373.678821 284.909993 
L 373.746498 268.316592 
L 373.814174 268.792258 
L 374.964674 276.092007 
L 375.912145 280.81817 
L 376.724262 283.78153 
L 377.062645 284.690872 
L 377.130321 266.898005 
L 377.197998 267.390533 
L 378.416174 275.413549 
L 379.431321 280.675565 
L 380.243439 283.773343 
L 380.446468 284.377861 
L 380.514145 265.424675 
L 380.581821 265.933323 
L 381.867674 274.70161 
L 382.882821 280.206989 
L 383.694939 283.525496 
L 383.830292 283.975046 
L 383.897968 263.899245 
L 383.965645 264.423289 
L 385.251498 273.527791 
L 386.334322 279.700651 
L 387.214116 283.484099 
L 387.281792 262.318963 
L 387.349469 262.857676 
L 388.702998 272.732222 
L 389.785822 279.151244 
L 390.597939 282.900339 
L 390.665616 260.692256 
L 390.733292 261.244963 
L 392.154498 271.907469 
L 393.304998 278.932951 
L 393.981763 282.233151 
L 394.049439 259.014408 
L 394.117116 259.58042 
L 395.605998 271.046639 
L 396.756498 278.321955 
L 397.365587 281.475927 
L 397.433263 257.291083 
L 397.50094 257.869756 
L 399.057498 270.154455 
L 400.275675 278.064974 
L 400.74941 280.635229 
L 400.817087 255.524653 
L 400.884763 256.115368 
L 402.441322 268.731609 
L 403.659499 276.986917 
L 404.133234 279.7138 
L 404.20091 253.717507 
L 404.268587 254.319674 
L 405.892822 267.768367 
L 407.178675 276.688073 
L 407.517058 278.714638 
L 407.584734 251.873447 
L 407.652411 252.48651 
L 409.344322 266.77958 
L 410.630175 275.948835 
L 410.900881 277.642759 
L 410.968558 249.990274 
L 411.036234 250.613682 
L 412.795822 265.761456 
L 414.149352 275.619066 
L 414.284705 276.49567 
L 414.352381 248.071698 
L 414.420058 248.704935 
L 416.247323 264.717024 
L 417.600852 274.823246 
L 417.668529 275.278574 
L 417.736205 246.118033 
L 417.803881 246.760601 
L 419.698823 263.645485 
L 421.052352 273.992436 
L 421.120029 244.133504 
L 421.187705 244.784944 
L 423.150323 262.550672 
L 424.436176 272.643376 
L 424.503852 242.121348 
L 424.571529 242.781232 
L 426.601823 261.43539 
L 427.819999 271.236333 
L 427.887676 240.076485 
L 427.955352 240.744373 
L 430.053323 260.292709 
L 431.203823 269.765517 
L 431.2715 238.003036 
L 431.339176 238.678525 
L 433.504823 259.126557 
L 434.587647 268.2371 
L 434.655323 235.907253 
L 434.723 236.589986 
L 436.956323 257.943552 
L 437.97147 266.660063 
L 438.039147 233.784292 
L 438.106823 234.4739 
L 440.407823 256.73714 
L 441.355294 265.028993 
L 441.422971 231.638993 
L 441.490647 232.335147 
L 443.859324 255.512389 
L 444.739118 263.351057 
L 444.806794 229.473023 
L 444.874471 230.175411 
L 447.310824 254.27065 
L 448.122941 261.629288 
L 448.190618 227.284815 
L 448.258294 227.993131 
L 450.762324 253.009395 
L 451.506765 259.862517 
L 451.574442 225.072197 
L 451.642118 225.786136 
L 454.213824 251.725345 
L 454.890589 258.048784 
L 454.958265 222.840431 
L 455.025942 223.559724 
L 457.665324 250.424346 
L 458.274412 256.195734 
L 458.342089 220.592304 
L 458.409765 221.316707 
L 461.116824 249.109318 
L 461.658236 254.307769 
L 461.725912 218.321931 
L 461.793589 219.05118 
L 464.636001 248.437041 
L 465.04206 252.378067 
L 465.109736 216.032685 
L 465.177413 216.766543 
L 468.087501 247.088506 
L 468.425883 250.411743 
L 468.49356 213.723762 
L 468.561236 214.461996 
L 471.539001 245.720155 
L 471.809707 248.408492 
L 471.877383 211.397223 
L 471.94506 212.139619 
L 474.990501 244.334149 
L 475.193531 246.371671 
L 475.261207 209.057225 
L 475.328884 209.803597 
L 478.509678 243.622213 
L 478.577354 244.307264 
L 478.645031 206.702594 
L 478.712707 207.452756 
L 481.961178 242.214386 
L 482.028854 204.332827 
L 482.096531 205.0866 
L 485.345002 240.092992 
L 485.412678 201.950675 
L 485.480355 202.707898 
L 488.728825 237.94715 
L 488.796502 199.557045 
L 488.864178 200.317567 
L 492.112649 235.769044 
L 492.180325 197.459291 
L 492.248002 198.214712 
L 493.939914 215.823542 
L 495.15809 226.442214 
L 495.496473 228.990323 
L 495.564149 199.865542 
L 495.631825 200.480794 
L 496.850002 210.458042 
L 497.797473 216.54494 
L 498.60959 220.388983 
L 498.880296 221.363331 
L 498.947973 204.539364 
L 499.015649 204.954078 
L 499.827767 209.259248 
L 500.504532 211.838255 
L 501.045943 213.197404 
L 501.519679 213.854659 
L 501.858061 214.015111 
L 502.196443 213.916731 
L 502.26412 213.866021 
L 502.331796 211.085501 
L 502.399473 211.252525 
L 502.873208 212.13974 
L 503.279267 212.502417 
L 503.617649 212.521491 
L 503.956032 212.282937 
L 504.36209 211.658789 
L 504.835826 210.472016 
L 505.444914 208.242701 
L 505.647943 207.33 
L 505.71562 218.894262 
L 505.783296 218.785384 
L 506.257032 217.735004 
L 506.798444 215.930481 
L 507.542885 212.547219 
L 508.761061 205.93677 
L 509.031767 204.316829 
L 509.099444 221.340361 
L 509.16712 221.127681 
L 510.046914 217.967314 
L 511.062061 213.452334 
L 512.212561 207.306848 
L 512.415591 206.117518 
L 512.483267 222.508614 
L 512.550944 222.310489 
L 513.430738 219.332016 
L 514.445885 215.008864 
L 515.596385 209.056358 
L 515.799414 207.898396 
L 515.867091 223.628348 
L 515.934767 223.445078 
L 516.746885 220.893898 
L 517.694356 217.129822 
L 518.777179 211.865773 
L 519.183238 209.646486 
L 519.250915 224.701709 
L 519.318591 224.533581 
L 520.130709 222.15819 
L 521.010503 218.866897 
L 522.02565 214.20345 
L 522.567062 211.363684 
L 522.634738 225.728387 
L 522.702415 225.575682 
L 523.446856 223.587903 
L 524.32665 220.534738 
L 525.341797 216.122567 
L 525.950885 213.049641 
L 526.018562 226.703339 
L 526.086238 226.566334 
L 526.763003 224.935457 
L 527.575121 222.369877 
L 528.522591 218.581916 
L 529.334709 214.699629 
L 529.402386 227.633076 
L 529.470062 227.512029 
L 530.146827 226.037102 
L 530.958944 223.648777 
L 531.838739 220.336749 
L 532.718533 216.31947 
L 532.786209 228.514378 
L 532.853886 228.40954 
L 533.462974 227.246625 
L 534.207415 225.300205 
L 535.087209 222.285947 
L 536.102356 217.906044 
L 536.170033 229.343116 
L 536.237709 229.25473 
L 536.846798 228.237289 
L 537.523562 226.646448 
L 538.33568 224.120268 
L 539.283151 220.366858 
L 539.48618 219.455304 
L 539.553856 230.113572 
L 539.621533 230.041869 
L 540.162945 229.288647 
L 540.839709 227.904567 
L 541.584151 225.830638 
L 542.463945 222.668376 
L 542.870004 220.961612 
L 542.93768 230.834325 
L 543.005357 230.779513 
L 543.546768 230.159724 
L 544.155857 229.081594 
L 544.832621 227.421835 
L 545.644739 224.812031 
L 546.253827 222.432609 
L 546.321504 231.506093 
L 546.38918 231.468366 
L 546.862916 231.062039 
L 547.404327 230.295237 
L 548.081092 228.891237 
L 548.825533 226.792074 
L 549.637651 223.868635 
L 549.705327 232.120795 
L 549.773004 232.100334 
L 550.246739 231.813869 
L 550.788151 231.181341 
L 551.397239 230.086229 
L 552.074004 228.404643 
L 552.886122 225.765158 
L 553.021475 225.261658 
L 553.089151 232.674705 
L 553.156828 232.671671 
L 553.630563 232.506373 
L 554.104298 232.089851 
L 554.64571 231.30922 
L 555.322475 229.884929 
L 556.066916 227.760068 
L 556.405298 226.607594 
L 556.540651 233.19371 
L 557.014387 233.150728 
L 557.488122 232.854904 
L 558.029534 232.209406 
L 558.638622 231.097004 
L 559.383063 229.19636 
L 559.789122 227.916689 
L 559.924475 233.662668 
L 560.39821 233.743033 
L 560.871945 233.56924 
L 561.345681 233.142274 
L 561.887093 232.347446 
L 562.563857 230.902292 
L 563.172946 229.184808 
L 563.308299 234.07387 
L 563.782034 234.278472 
L 564.255769 234.227926 
L 564.729504 233.92252 
L 565.270916 233.263708 
L 565.880004 232.133517 
L 566.556769 230.406821 
L 566.692122 234.429117 
L 567.233534 234.784927 
L 567.707269 234.822089 
L 568.181005 234.603076 
L 568.65474 234.12915 
L 569.196152 233.278907 
L 569.872916 231.762562 
L 569.940593 231.583764 
L 570.075946 234.72581 
L 570.617358 235.225116 
L 571.091093 235.387425 
L 571.564828 235.292412 
L 572.038564 234.940631 
L 572.579975 234.226856 
L 573.189064 233.032899 
L 573.324417 232.712348 
L 573.459769 234.971312 
L 574.068858 235.671601 
L 574.542593 235.923086 
L 575.016328 235.91631 
L 575.490064 235.651311 
L 576.031475 235.034319 
L 576.640564 233.945413 
L 576.70824 233.799008 
L 576.843593 235.168641 
L 577.452681 236.031469 
L 577.994093 236.44255 
L 578.467828 236.524771 
L 578.941564 236.34745 
L 579.415299 235.911634 
L 579.956711 235.100375 
L 580.092064 234.845996 
L 580.295093 235.434911 
L 580.971858 236.496568 
L 581.51327 236.968679 
L 581.987005 237.10341 
L 582.393064 237.011379 
L 582.866799 236.662476 
L 583.408211 235.94789 
L 583.475887 235.835113 
L 583.543564 235.216281 
L 583.61124 235.373891 
L 584.288005 236.668317 
L 584.76174 237.212485 
L 585.100123 237.28334 
L 585.438505 237.075271 
L 585.844564 236.45978 
L 586.318299 235.24618 
L 586.859711 233.227624 
L 586.927388 242.344505 
L 586.995064 242.309173 
L 587.333446 241.962475 
L 587.739505 241.175858 
L 588.213241 239.758822 
L 588.822329 237.180164 
L 589.56677 232.954953 
L 590.243535 228.193199 
L 590.311211 250.679354 
L 590.378888 250.364476 
L 591.055652 246.659025 
L 591.935447 240.465347 
L 593.01827 231.070647 
L 593.627358 225.09691 
L 593.695035 258.70531 
L 593.762711 258.132435 
L 594.913211 247.361941 
L 596.808153 228.90827 
L 596.875829 270.588902 
L 596.943506 270.017178 
L 598.567741 257.267849 
L 599.785917 249.350027 
L 600.868741 243.728665 
L 601.816212 239.973527 
L 602.628329 237.642316 
L 603.305094 236.332782 
L 603.846506 235.701735 
L 604.320241 235.454011 
L 604.997006 235.435462 
L 848.22625 235.435462 
L 848.22625 235.435462 
" clip-path="url(#pa295a460fb)" style="fill: none; stroke: #ff0000; stroke-width: 2; stroke-linecap: square"/>
   </g>
   <g id="line2d_26">
    <path d="M 36.17625 248.569738 
L 38.68028 217.723606 
L 38.747956 260.99459 
L 38.815632 260.161864 
L 42.064103 220.178328 
L 42.13178 263.726145 
L 42.199456 262.894112 
L 45.447927 222.934223 
L 45.515603 266.59313 
L 45.58328 265.760875 
L 48.83175 225.792981 
L 48.899427 269.24637 
L 48.967103 268.412695 
L 52.215574 228.39621 
L 52.283251 272.020663 
L 52.350927 271.187198 
L 55.599398 231.177784 
L 55.667074 274.866768 
L 55.734751 274.033182 
L 58.983221 234.01971 
L 59.050898 277.708189 
L 59.118574 276.874539 
L 62.367045 236.858906 
L 62.434722 280.520841 
L 62.502398 279.687193 
L 65.750869 239.671615 
L 65.818545 283.350594 
L 65.886222 282.516919 
L 69.134692 242.500448 
L 69.202369 286.121692 
L 69.270045 285.288299 
L 72.518516 245.280841 
L 72.586192 288.969795 
L 72.653869 288.136225 
L 75.90234 248.123089 
L 75.970016 291.809761 
L 76.037693 290.97618 
L 79.286163 250.962641 
L 79.35384 294.490694 
L 79.421516 293.657407 
L 82.669987 253.652865 
L 82.737663 297.248694 
L 82.80534 296.415078 
L 86.053811 256.400398 
L 86.121487 300.009695 
L 86.189164 299.176622 
L 89.437634 259.178154 
L 89.505311 302.818345 
L 89.572987 301.985635 
L 92.821458 261.997588 
L 92.889134 305.685153 
L 92.956811 304.851961 
L 96.205282 264.84946 
L 96.272958 308.444331 
L 96.340635 307.612012 
L 99.589105 267.634072 
L 99.656782 311.024973 
L 99.724458 310.191778 
L 102.972929 270.18868 
L 103.040605 313.87769 
L 103.108282 313.044195 
L 106.356753 273.032612 
L 106.424429 316.716995 
L 106.492105 315.883499 
L 109.740576 275.87178 
L 109.808253 319.554184 
L 109.875929 318.720724 
L 113.1244 278.709807 
L 113.192076 322.372612 
L 113.259753 321.539473 
L 116.508223 281.536516 
L 116.5759 324.871642 
L 116.643576 324.040138 
L 119.892047 284.076967 
L 119.959724 327.703722 
L 120.0274 326.870048 
L 123.275871 286.85358 
L 123.343547 330.541558 
L 123.411224 329.7079 
L 126.659694 289.69178 
L 126.727371 333.035128 
L 126.795047 332.205733 
L 130.043518 292.283544 
L 130.111195 335.97126 
L 130.178871 335.138831 
L 133.427342 295.148456 
L 133.495018 338.742094 
L 133.562695 337.909042 
L 136.811165 297.904914 
L 136.878842 341.560936 
L 136.946518 340.728526 
L 140.194989 300.735687 
L 140.262666 344.34016 
L 140.330342 343.507387 
L 143.578813 303.506597 
L 143.646489 347.096329 
L 143.714166 346.266522 
L 146.962636 306.312196 
L 147.030313 349.916807 
L 147.097989 349.088404 
L 150.34646 309.148562 
L 150.414136 352.185901 
L 150.481813 351.370743 
L 153.730284 311.598929 
L 153.79796 355.214552 
L 153.865637 354.390303 
L 157.114107 314.479527 
L 157.181784 358.147256 
L 157.24946 357.317189 
L 160.497931 317.333359 
L 160.565607 360.786908 
L 160.633284 359.972218 
L 163.881755 320.087047 
L 163.949431 363.470947 
L 164.017108 362.692274 
L 166.65649 330.418079 
L 167.265578 322.920956 
L 167.333255 362.748333 
L 167.400931 362.436966 
L 167.739314 359.666732 
L 168.686784 348.918556 
L 170.649402 325.079072 
L 170.784755 363.381418 
L 170.852431 363.402428 
L 170.987784 362.976836 
L 171.25849 360.862529 
L 172.070608 351.771853 
L 174.033226 327.946381 
L 174.168579 362.712787 
L 174.439284 364.02543 
L 174.574637 363.671985 
L 174.845343 361.49938 
L 175.725137 351.437441 
L 177.417049 330.828813 
L 177.552402 361.550592 
L 178.026137 367.054176 
L 178.093814 366.863591 
L 178.838255 357.901735 
L 180.800873 333.736363 
L 180.936226 346.670236 
L 181.206932 346.967906 
L 181.409961 346.840589 
L 181.680667 346.213577 
L 182.019049 344.761475 
L 182.560461 341.20934 
L 183.372579 334.054045 
L 184.184697 325.716788 
L 184.320049 341.949878 
L 184.658432 342.619521 
L 184.861461 342.693807 
L 185.064491 342.518342 
L 185.335197 341.905751 
L 185.741255 340.242121 
L 186.282667 336.878318 
L 187.094785 330.137316 
L 187.56852 325.600859 
L 187.703873 340.533758 
L 188.109932 341.758781 
L 188.380638 342.059991 
L 188.583667 342.0023 
L 188.854373 341.550311 
L 189.192756 340.416065 
L 189.666491 337.905609 
L 190.343256 332.905502 
L 190.952344 327.447975 
L 191.087697 339.055571 
L 191.561432 340.935606 
L 191.899814 341.552825 
L 192.102844 341.608213 
L 192.305873 341.424265 
L 192.576579 340.816123 
L 192.982638 339.187115 
L 193.52405 335.900261 
L 194.336167 329.287783 
L 194.47152 341.463298 
L 195.012932 344.47058 
L 195.418991 345.643464 
L 195.62202 345.820193 
L 195.82505 345.711583 
L 196.095756 345.131599 
L 196.434138 343.763539 
L 196.907873 340.858395 
L 197.652315 334.684758 
L 197.719991 334.05561 
L 197.855344 338.604038 
L 198.464432 342.337726 
L 198.870491 343.818827 
L 199.141197 344.258056 
L 199.344226 344.278826 
L 199.547256 344.033439 
L 199.817962 343.307388 
L 200.224021 341.449439 
L 200.765432 337.825812 
L 201.103815 335.068947 
L 201.171491 319.292801 
L 201.239168 319.540065 
L 201.78058 321.026316 
L 202.186638 321.535675 
L 202.457344 321.575815 
L 202.72805 321.375141 
L 203.066433 320.790717 
L 203.472491 319.619136 
L 204.013903 317.320981 
L 204.487638 314.699482 
L 204.622991 320.347815 
L 205.164403 322.2701 
L 205.570462 323.107035 
L 205.908844 323.382953 
L 206.17955 323.321913 
L 206.450256 323.011233 
L 206.788639 322.28003 
L 207.262374 320.650679 
L 207.871462 317.625101 
L 207.939139 290.194358 
L 208.006815 290.251792 
L 208.412874 290.408145 
L 208.751256 290.291269 
L 209.157315 289.855928 
L 209.63105 288.94833 
L 210.172462 287.40248 
L 211.255286 283.463113 
L 211.390639 314.258948 
L 211.93205 315.025123 
L 212.338109 315.294573 
L 212.744168 315.297015 
L 213.150227 315.032409 
L 213.623962 314.392353 
L 214.165374 313.241847 
L 214.639109 311.89193 
L 214.842139 314.462613 
L 215.924962 320.785095 
L 216.73708 324.391719 
L 217.346168 326.259636 
L 217.819904 327.135525 
L 218.022933 327.345461 
L 218.09061 299.603824 
L 218.158286 300.157414 
L 220.120904 315.294779 
L 221.33908 323.081618 
L 221.406757 323.45601 
L 221.474433 290.743472 
L 221.54211 291.431252 
L 224.79058 324.263646 
L 224.858257 284.317863 
L 224.925933 285.099668 
L 228.174404 321.594989 
L 228.24208 281.614787 
L 228.309757 282.413026 
L 231.422875 317.860471 
L 231.558228 319.301123 
L 231.625904 277.291828 
L 231.693581 278.073364 
L 234.535992 309.573626 
L 234.942051 313.718791 
L 235.009728 269.963608 
L 235.077404 270.655623 
L 236.972346 288.909835 
L 238.325875 300.005232 
L 238.393551 276.732214 
L 238.461228 277.480426 
L 240.762228 301.688899 
L 241.709699 310.540083 
L 241.777375 274.434675 
L 241.845052 275.189851 
L 244.281405 301.116047 
L 245.093522 308.887491 
L 245.161199 270.902292 
L 245.228875 271.653772 
L 247.665228 297.459897 
L 248.477346 305.220738 
L 248.545022 269.552296 
L 248.612699 270.316915 
L 251.252081 298.873954 
L 251.86117 304.914829 
L 251.928846 266.758051 
L 251.996523 267.524946 
L 254.703581 296.950197 
L 255.244993 302.381154 
L 255.31267 264.659351 
L 255.380346 265.433487 
L 258.290435 297.420057 
L 258.628817 300.884369 
L 258.696493 261.500592 
L 258.76417 262.273789 
L 261.674258 294.257964 
L 262.012641 297.733388 
L 262.080317 258.814856 
L 262.147993 259.590735 
L 265.193435 293.200763 
L 265.396464 295.304812 
L 265.464141 256.875637 
L 265.531817 257.659036 
L 268.780288 293.953392 
L 268.847964 254.807594 
L 268.915641 255.597396 
L 272.164111 292.386714 
L 272.231788 251.315596 
L 272.299464 252.10141 
L 275.547935 288.658114 
L 275.615612 248.469142 
L 275.683288 249.256031 
L 278.931759 285.928353 
L 278.999435 246.026038 
L 279.067112 246.81656 
L 282.315582 283.773158 
L 282.383259 242.735987 
L 282.450935 243.524316 
L 285.699406 280.367527 
L 285.767083 240.502208 
L 285.834759 241.295186 
L 289.08323 278.480827 
L 289.150906 237.321181 
L 289.218583 238.112759 
L 292.467053 275.233812 
L 292.53473 234.803064 
L 292.602406 235.597445 
L 295.850877 272.930117 
L 295.918554 232.258203 
L 295.98623 233.055126 
L 299.234701 270.57867 
L 299.302377 229.098489 
L 299.370054 229.894135 
L 302.618524 267.356024 
L 302.686201 227.208365 
L 302.753877 228.009802 
L 306.002348 267.502324 
L 306.070024 223.819364 
L 306.137701 224.652893 
L 309.386172 263.488411 
L 309.453848 223.221463 
L 309.521525 224.016933 
L 311.484142 245.773945 
L 312.769995 257.883295 
L 312.837672 226.655382 
L 312.905348 227.353956 
L 314.258878 240.190449 
L 315.341701 248.483079 
L 316.153819 253.215446 
L 316.221495 229.089486 
L 316.289172 229.620282 
L 317.304319 236.614489 
L 318.116437 240.764064 
L 319.063907 244.482391 
L 319.537643 245.963826 
L 319.605319 227.259397 
L 319.672996 227.68386 
L 320.958849 235.009198 
L 322.041672 239.974154 
L 322.921466 243.098847 
L 322.989143 225.845121 
L 323.056819 226.282076 
L 324.342672 233.866468 
L 325.425496 239.081524 
L 326.30529 242.429396 
L 326.372966 223.177525 
L 326.440643 223.622692 
L 327.794172 231.756168 
L 328.944672 237.384745 
L 329.689114 240.316883 
L 329.75679 218.33525 
L 329.824467 218.7808 
L 331.177996 226.948885 
L 332.328496 232.655626 
L 333.072937 235.667076 
L 333.140614 212.416726 
L 333.20829 212.858748 
L 334.629496 221.350267 
L 335.779996 226.998556 
L 336.456761 229.74763 
L 336.524437 213.128262 
L 336.592114 213.587263 
L 338.01332 222.453771 
L 339.231496 228.741834 
L 339.840585 231.37411 
L 339.908261 209.871231 
L 339.975937 210.335521 
L 341.46482 219.727678 
L 342.682996 226.102147 
L 343.224408 228.508893 
L 343.292085 208.611598 
L 343.359761 209.087114 
L 344.848644 218.749665 
L 346.134497 225.710134 
L 346.608232 227.908877 
L 346.675908 206.100243 
L 346.743585 206.582968 
L 348.300144 216.837859 
L 349.585997 223.925197 
L 349.992055 225.868982 
L 350.059732 202.912959 
L 350.127408 203.400515 
L 351.683967 213.791855 
L 353.037497 221.377671 
L 353.375879 223.035754 
L 353.443556 202.348013 
L 353.511232 202.848149 
L 355.135467 213.9805 
L 356.488997 221.802685 
L 356.759703 223.186925 
L 356.827379 198.970809 
L 356.895056 199.474721 
L 358.519291 210.723171 
L 359.872821 218.686285 
L 360.143526 220.104291 
L 360.211203 194.527779 
L 360.278879 195.031754 
L 361.970791 206.737967 
L 363.391997 215.057911 
L 363.52735 215.768793 
L 363.595027 193.649594 
L 363.662703 194.164595 
L 365.354615 206.172332 
L 366.775821 214.784786 
L 366.911174 215.525356 
L 366.97885 191.057637 
L 367.046527 191.578436 
L 368.806115 204.206656 
L 370.294997 213.313491 
L 370.362674 191.103324 
L 370.43035 191.637411 
L 372.189939 204.639034 
L 373.678821 214.102806 
L 373.746498 192.231513 
L 373.814174 192.781807 
L 375.641439 206.716005 
L 377.062645 216.121266 
L 377.130321 190.030572 
L 377.197998 190.587381 
L 379.092939 205.213034 
L 380.446468 214.332594 
L 380.514145 189.382326 
L 380.581821 189.950269 
L 382.476763 204.920834 
L 383.830292 214.327909 
L 383.897968 190.253048 
L 383.965645 190.836416 
L 385.928263 206.792093 
L 387.214116 216.061206 
L 387.281792 190.092724 
L 387.349469 190.688591 
L 389.379763 207.574077 
L 390.597939 216.61974 
L 390.665616 191.574093 
L 390.733292 192.187205 
L 392.831263 210.185376 
L 393.981763 219.069281 
L 394.049439 188.825581 
L 394.117116 189.442466 
L 396.282763 208.138537 
L 397.365587 216.584969 
L 397.433263 186.743119 
L 397.50094 187.366005 
L 399.734263 206.846582 
L 400.74941 214.882649 
L 400.817087 183.177166 
L 400.884763 183.800587 
L 403.118087 203.324318 
L 404.133234 211.401912 
L 404.20091 180.819734 
L 404.268587 181.447965 
L 406.569587 201.727381 
L 407.517058 209.356026 
L 407.584734 178.75625 
L 407.652411 179.390164 
L 409.953411 199.900253 
L 410.900881 207.648782 
L 410.968558 175.896209 
L 411.036234 176.532961 
L 413.404911 197.742305 
L 414.284705 204.990134 
L 414.352381 173.51454 
L 414.420058 174.15568 
L 416.856411 196.130662 
L 417.668529 202.891166 
L 417.736205 172.295506 
L 417.803881 172.944675 
L 420.240234 195.254612 
L 421.052352 202.149288 
L 421.120029 170.103753 
L 421.187705 170.757714 
L 423.691735 193.869455 
L 424.436176 200.259086 
L 424.503852 167.348172 
L 424.571529 168.004926 
L 427.143235 191.846697 
L 427.819999 197.694777 
L 427.887676 164.181809 
L 427.955352 164.839869 
L 430.527058 188.757762 
L 431.203823 194.636923 
L 431.2715 161.410169 
L 431.339176 162.070834 
L 433.978559 186.718806 
L 434.587647 192.042866 
L 434.655323 160.946377 
L 434.723 161.616663 
L 437.430059 187.307376 
L 437.97147 192.136226 
L 438.039147 157.961722 
L 438.106823 158.633695 
L 440.881559 185.033103 
L 441.355294 189.276028 
L 441.422971 154.728976 
L 441.490647 155.401746 
L 444.265382 181.858619 
L 444.739118 186.117635 
L 444.806794 155.793654 
L 444.874471 156.479732 
L 447.784559 184.8168 
L 448.122941 187.937636 
L 448.190618 153.374684 
L 448.258294 154.06407 
L 451.168383 182.580975 
L 451.506765 185.72849 
L 451.574442 150.655971 
L 451.642118 151.347614 
L 454.619883 180.629617 
L 454.890589 183.160386 
L 454.958265 148.004015 
L 455.025942 148.698077 
L 458.071383 178.758601 
L 458.274412 180.666824 
L 458.342089 144.586475 
L 458.409765 145.280349 
L 461.455207 175.351909 
L 461.658236 177.262705 
L 461.725912 142.273619 
L 461.793589 142.970883 
L 464.906707 173.876527 
L 465.04206 175.159496 
L 465.109736 140.577186 
L 465.177413 141.279615 
L 468.358207 173.121239 
L 468.425883 173.769502 
L 468.49356 137.835098 
L 468.561236 138.539431 
L 471.809707 171.153316 
L 471.877383 133.940762 
L 471.94506 134.643131 
L 475.193531 167.170262 
L 475.261207 132.079358 
L 475.328884 132.786197 
L 478.577354 165.57418 
L 478.645031 131.158134 
L 478.712707 131.871951 
L 481.961178 165.05569 
L 482.028854 126.4486 
L 482.096531 127.157372 
L 485.345002 160.084102 
L 485.412678 122.552756 
L 485.480355 123.259574 
L 488.728825 156.097778 
L 488.796502 120.585881 
L 488.864178 121.296636 
L 492.112649 154.352593 
L 492.180325 119.946074 
L 492.248002 120.652035 
L 493.804561 135.662801 
L 495.022737 145.403813 
L 495.496473 148.616899 
L 495.564149 125.411324 
L 495.631825 125.946226 
L 496.714649 133.616876 
L 497.66212 138.822506 
L 498.406561 141.822221 
L 498.880296 143.201515 
L 498.947973 130.41917 
L 499.015649 130.721161 
L 499.76009 133.505268 
L 500.369179 135.02676 
L 500.842914 135.725347 
L 501.248973 135.981609 
L 501.587355 135.952369 
L 501.925737 135.70249 
L 502.26412 135.232988 
L 502.331796 134.195989 
L 502.399473 134.226162 
L 502.737855 134.244867 
L 503.076237 134.043386 
L 503.482296 133.512171 
L 503.956032 132.497422 
L 504.56512 130.580357 
L 505.241885 127.670182 
L 505.647943 125.547011 
L 505.71562 142.354878 
L 505.783296 142.102018 
L 506.460061 139.12197 
L 507.339855 134.10381 
L 509.031767 122.928941 
L 509.099444 143.381946 
L 509.16712 143.027619 
L 510.656002 134.613402 
L 512.347914 123.726614 
L 512.415591 123.264259 
L 512.483267 142.371836 
L 512.550944 142.029348 
L 514.039826 133.868607 
L 515.731738 123.25147 
L 515.799414 122.79946 
L 515.867091 136.951339 
L 515.934767 136.625179 
L 517.355973 129.204928 
L 518.980209 119.480959 
L 519.183238 118.179271 
L 519.250915 138.859131 
L 519.318591 138.540552 
L 520.739797 131.269707 
L 522.296356 122.118329 
L 522.567062 120.409542 
L 522.634738 127.500054 
L 522.702415 127.200029 
L 524.055944 120.684572 
L 525.612503 112.050012 
L 525.950885 110.02235 
L 526.018562 128.194229 
L 526.086238 127.903201 
L 527.439768 121.561306 
L 528.92865 113.502329 
L 529.334709 111.120729 
L 529.402386 124.459649 
L 529.470062 124.181879 
L 530.823591 118.106011 
L 532.312474 110.338147 
L 532.718533 108.035044 
L 532.786209 130.521954 
L 532.853886 130.24584 
L 534.139739 124.515655 
L 535.628621 116.792408 
L 536.102356 114.106025 
L 536.170033 123.493167 
L 536.237709 123.232121 
L 537.523562 117.795129 
L 538.944768 110.781399 
L 539.48618 107.84887 
L 539.553856 127.148654 
L 539.621533 126.893134 
L 540.907386 121.551627 
L 542.328592 114.623371 
L 542.870004 111.718234 
L 542.93768 112.769279 
L 543.005357 112.528797 
L 544.223533 107.78052 
L 545.577063 101.609867 
L 546.253827 98.190447 
L 546.321504 137.394579 
L 546.38918 137.101451 
L 547.74271 130.698499 
L 549.231592 122.535957 
L 549.637651 120.120607 
L 549.705327 140.186812 
L 549.773004 139.900326 
L 551.058857 133.958232 
L 552.547739 125.960989 
L 553.021475 123.182615 
L 553.089151 144.3265 
L 553.156828 144.044801 
L 554.442681 138.182212 
L 555.863886 130.637286 
L 556.405298 127.489538 
L 556.472975 157.77657 
L 556.540651 157.478966 
L 557.826504 151.291295 
L 559.315387 142.941514 
L 559.789122 140.038951 
L 559.924475 116.869162 
L 561.345681 109.911088 
L 562.969916 100.772273 
L 563.172946 99.546825 
L 563.240622 109.296957 
L 563.308299 109.006716 
L 564.729504 102.379286 
L 566.286063 94.017464 
L 567.030505 90.389598 
L 568.45171 83.881525 
L 569.940593 76.090248 
L 570.008269 82.504733 
L 570.075946 82.243512 
L 571.429475 76.566579 
L 572.986034 69.01896 
L 573.324417 67.241292 
L 573.459769 63.587312 
L 574.813299 58.172776 
L 576.369858 50.97377 
L 576.70824 49.277476 
L 576.775917 62.284983 
L 576.843593 62.044565 
L 578.197123 56.805431 
L 579.686005 50.129694 
L 580.092064 48.150486 
L 580.15974 64.64293 
L 580.227417 64.408364 
L 581.580946 59.280921 
L 583.069829 52.716268 
L 583.475887 50.765241 
L 583.543564 62.932045 
L 583.61124 62.706352 
L 584.76174 58.501213 
L 585.573858 54.551727 
L 586.521329 48.676905 
L 586.859711 46.270676 
L 586.927388 70.636026 
L 586.995064 70.212793 
L 588.010211 63.084648 
L 589.228388 52.785538 
L 590.243535 42.977256 
L 590.311211 76.115488 
L 590.378888 75.469998 
L 591.935447 59.475194 
L 593.627358 40.181449 
L 593.695035 81.454771 
L 593.762711 80.663669 
L 596.808153 46.22086 
L 596.875829 91.80602 
L 596.943506 91.151855 
L 598.229359 79.852448 
L 599.379859 71.58595 
L 600.462682 65.390631 
L 601.410153 61.209386 
L 602.222271 58.529347 
L 602.966712 56.794349 
L 603.5758 55.882746 
L 604.117212 55.45368 
L 604.590947 55.367176 
L 848.22625 55.367176 
L 848.22625 55.367176 
" clip-path="url(#pa295a460fb)" style="fill: none; stroke: #0000ff; stroke-width: 2; stroke-linecap: square"/>
   </g>
   <g id="patch_3">
    <path d="M 36.17625 383.397812 
L 36.17625 23.837812 
" style="fill: none; stroke: #000000; stroke-width: 0.8; stroke-linejoin: miter; stroke-linecap: square"/>
   </g>
   <g id="patch_4">
    <path d="M 848.22625 383.397812 
L 848.22625 23.837812 
" style="fill: none; stroke: #000000; stroke-width: 0.8; stroke-linejoin: miter; stroke-linecap: square"/>
   </g>
   <g id="patch_5">
    <path d="M 36.17625 383.397812 
L 848.22625 383.397812 
" style="fill: none; stroke: #000000; stroke-width: 0.8; stroke-linejoin: miter; stroke-linecap: square"/>
   </g>
   <g id="patch_6">
    <path d="M 36.17625 23.837812 
L 848.22625 23.837812 
" style="fill: none; stroke: #000000; stroke-width: 0.8; stroke-linejoin: miter; stroke-linecap: square"/>
   </g>
   <g id="text_15">
    <!-- PDR Example: Position Error vs Time -->
    <g transform="translate(297.47625 17.837812) scale(0.14 -0.14)">
     <defs>
      <path id="DejaVuSans-Bold-50" d="M 588 4666 
L 2584 4666 
Q 3475 4666 3951 4270 
Q 4428 3875 4428 3144 
Q 4428 2409 3951 2014 
Q 3475 1619 2584 1619 
L 1791 1619 
L 1791 0 
L 588 0 
L 588 4666 
z
M 1791 3794 
L 1791 2491 
L 2456 2491 
Q 2806 2491 2997 2661 
Q 3188 2831 3188 3144 
Q 3188 3456 2997 3625 
Q 2806 3794 2456 3794 
L 1791 3794 
z
" transform="scale(0.015625)"/>
      <path id="DejaVuSans-Bold-44" d="M 1791 3756 
L 1791 909 
L 2222 909 
Q 2959 909 3348 1275 
Q 3738 1641 3738 2338 
Q 3738 3031 3350 3393 
Q 2963 3756 2222 3756 
L 1791 3756 
z
M 588 4666 
L 1856 4666 
Q 2919 4666 3439 4514 
Q 3959 4363 4331 4000 
Q 4659 3684 4818 3271 
Q 4978 2859 4978 2338 
Q 4978 1809 4818 1395 
Q 4659 981 4331 666 
Q 3956 303 3431 151 
Q 2906 0 1856 0 
L 588 0 
L 588 4666 
z
" transform="scale(0.015625)"/>
      <path id="DejaVuSans-Bold-52" d="M 2297 2597 
Q 2675 2597 2839 2737 
Q 3003 2878 3003 3200 
Q 3003 3519 2839 3656 
Q 2675 3794 2297 3794 
L 1791 3794 
L 1791 2597 
L 2297 2597 
z
M 1791 1766 
L 1791 0 
L 588 0 
L 588 4666 
L 2425 4666 
Q 3347 4666 3776 4356 
Q 4206 4047 4206 3378 
Q 4206 2916 3982 2619 
Q 3759 2322 3309 2181 
Q 3556 2125 3751 1926 
Q 3947 1728 4147 1325 
L 4800 0 
L 3519 0 
L 2950 1159 
Q 2778 1509 2601 1637 
Q 2425 1766 2131 1766 
L 1791 1766 
z
" transform="scale(0.015625)"/>
      <path id="DejaVuSans-Bold-20" transform="scale(0.015625)"/>
      <path id="DejaVuSans-Bold-45" d="M 588 4666 
L 3834 4666 
L 3834 3756 
L 1791 3756 
L 1791 2888 
L 3713 2888 
L 3713 1978 
L 1791 1978 
L 1791 909 
L 3903 909 
L 3903 0 
L 588 0 
L 588 4666 
z
" transform="scale(0.015625)"/>
      <path id="DejaVuSans-Bold-78" d="M 1422 1791 
L 159 3500 
L 1344 3500 
L 2059 2463 
L 2784 3500 
L 3969 3500 
L 2706 1797 
L 4031 0 
L 2847 0 
L 2059 1106 
L 1281 0 
L 97 0 
L 1422 1791 
z
" transform="scale(0.015625)"/>
      <path id="DejaVuSans-Bold-61" d="M 2106 1575 
Q 1756 1575 1579 1456 
Q 1403 1338 1403 1106 
Q 1403 894 1545 773 
Q 1688 653 1941 653 
Q 2256 653 2472 879 
Q 2688 1106 2688 1447 
L 2688 1575 
L 2106 1575 
z
M 3816 1997 
L 3816 0 
L 2688 0 
L 2688 519 
Q 2463 200 2181 54 
Q 1900 -91 1497 -91 
Q 953 -91 614 226 
Q 275 544 275 1050 
Q 275 1666 698 1953 
Q 1122 2241 2028 2241 
L 2688 2241 
L 2688 2328 
Q 2688 2594 2478 2717 
Q 2269 2841 1825 2841 
Q 1466 2841 1156 2769 
Q 847 2697 581 2553 
L 581 3406 
Q 941 3494 1303 3539 
Q 1666 3584 2028 3584 
Q 2975 3584 3395 3211 
Q 3816 2838 3816 1997 
z
" transform="scale(0.015625)"/>
      <path id="DejaVuSans-Bold-6d" d="M 3781 2919 
Q 3994 3244 4286 3414 
Q 4578 3584 4928 3584 
Q 5531 3584 5847 3212 
Q 6163 2841 6163 2131 
L 6163 0 
L 5038 0 
L 5038 1825 
Q 5041 1866 5042 1909 
Q 5044 1953 5044 2034 
Q 5044 2406 4934 2573 
Q 4825 2741 4581 2741 
Q 4263 2741 4089 2478 
Q 3916 2216 3909 1719 
L 3909 0 
L 2784 0 
L 2784 1825 
Q 2784 2406 2684 2573 
Q 2584 2741 2328 2741 
Q 2006 2741 1831 2477 
Q 1656 2213 1656 1722 
L 1656 0 
L 531 0 
L 531 3500 
L 1656 3500 
L 1656 2988 
Q 1863 3284 2130 3434 
Q 2397 3584 2719 3584 
Q 3081 3584 3359 3409 
Q 3638 3234 3781 2919 
z
" transform="scale(0.015625)"/>
      <path id="DejaVuSans-Bold-70" d="M 1656 506 
L 1656 -1331 
L 538 -1331 
L 538 3500 
L 1656 3500 
L 1656 2988 
Q 1888 3294 2169 3439 
Q 2450 3584 2816 3584 
Q 3463 3584 3878 3070 
Q 4294 2556 4294 1747 
Q 4294 938 3878 423 
Q 3463 -91 2816 -91 
Q 2450 -91 2169 54 
Q 1888 200 1656 506 
z
M 2400 2772 
Q 2041 2772 1848 2508 
Q 1656 2244 1656 1747 
Q 1656 1250 1848 986 
Q 2041 722 2400 722 
Q 2759 722 2948 984 
Q 3138 1247 3138 1747 
Q 3138 2247 2948 2509 
Q 2759 2772 2400 2772 
z
" transform="scale(0.015625)"/>
      <path id="DejaVuSans-Bold-6c" d="M 538 4863 
L 1656 4863 
L 1656 0 
L 538 0 
L 538 4863 
z
" transform="scale(0.015625)"/>
      <path id="DejaVuSans-Bold-65" d="M 4031 1759 
L 4031 1441 
L 1416 1441 
Q 1456 1047 1700 850 
Q 1944 653 2381 653 
Q 2734 653 3104 758 
Q 3475 863 3866 1075 
L 3866 213 
Q 3469 63 3072 -14 
Q 2675 -91 2278 -91 
Q 1328 -91 801 392 
Q 275 875 275 1747 
Q 275 2603 792 3093 
Q 1309 3584 2216 3584 
Q 3041 3584 3536 3087 
Q 4031 2591 4031 1759 
z
M 2881 2131 
Q 2881 2450 2695 2645 
Q 2509 2841 2209 2841 
Q 1884 2841 1681 2658 
Q 1478 2475 1428 2131 
L 2881 2131 
z
" transform="scale(0.015625)"/>
      <path id="DejaVuSans-Bold-3a" d="M 716 3500 
L 1844 3500 
L 1844 2291 
L 716 2291 
L 716 3500 
z
M 716 1209 
L 1844 1209 
L 1844 0 
L 716 0 
L 716 1209 
z
" transform="scale(0.015625)"/>
      <path id="DejaVuSans-Bold-6f" d="M 2203 2784 
Q 1831 2784 1636 2517 
Q 1441 2250 1441 1747 
Q 1441 1244 1636 976 
Q 1831 709 2203 709 
Q 2569 709 2762 976 
Q 2956 1244 2956 1747 
Q 2956 2250 2762 2517 
Q 2569 2784 2203 2784 
z
M 2203 3584 
Q 3106 3584 3614 3096 
Q 4122 2609 4122 1747 
Q 4122 884 3614 396 
Q 3106 -91 2203 -91 
Q 1297 -91 786 396 
Q 275 884 275 1747 
Q 275 2609 786 3096 
Q 1297 3584 2203 3584 
z
" transform="scale(0.015625)"/>
      <path id="DejaVuSans-Bold-73" d="M 3272 3391 
L 3272 2541 
Q 2913 2691 2578 2766 
Q 2244 2841 1947 2841 
Q 1628 2841 1473 2761 
Q 1319 2681 1319 2516 
Q 1319 2381 1436 2309 
Q 1553 2238 1856 2203 
L 2053 2175 
Q 2913 2066 3209 1816 
Q 3506 1566 3506 1031 
Q 3506 472 3093 190 
Q 2681 -91 1863 -91 
Q 1516 -91 1145 -36 
Q 775 19 384 128 
L 384 978 
Q 719 816 1070 734 
Q 1422 653 1784 653 
Q 2113 653 2278 743 
Q 2444 834 2444 1013 
Q 2444 1163 2330 1236 
Q 2216 1309 1875 1350 
L 1678 1375 
Q 931 1469 631 1722 
Q 331 1975 331 2491 
Q 331 3047 712 3315 
Q 1094 3584 1881 3584 
Q 2191 3584 2531 3537 
Q 2872 3491 3272 3391 
z
" transform="scale(0.015625)"/>
      <path id="DejaVuSans-Bold-69" d="M 538 3500 
L 1656 3500 
L 1656 0 
L 538 0 
L 538 3500 
z
M 538 4863 
L 1656 4863 
L 1656 3950 
L 538 3950 
L 538 4863 
z
" transform="scale(0.015625)"/>
      <path id="DejaVuSans-Bold-74" d="M 1759 4494 
L 1759 3500 
L 2913 3500 
L 2913 2700 
L 1759 2700 
L 1759 1216 
Q 1759 972 1856 886 
Q 1953 800 2241 800 
L 2816 800 
L 2816 0 
L 1856 0 
Q 1194 0 917 276 
Q 641 553 641 1216 
L 641 2700 
L 84 2700 
L 84 3500 
L 641 3500 
L 641 4494 
L 1759 4494 
z
" transform="scale(0.015625)"/>
      <path id="DejaVuSans-Bold-6e" d="M 4056 2131 
L 4056 0 
L 2931 0 
L 2931 347 
L 2931 1631 
Q 2931 2084 2911 2256 
Q 2891 2428 2841 2509 
Q 2775 2619 2662 2680 
Q 2550 2741 2406 2741 
Q 2056 2741 1856 2470 
Q 1656 2200 1656 1722 
L 1656 0 
L 538 0 
L 538 3500 
L 1656 3500 
L 1656 2988 
Q 1909 3294 2193 3439 
Q 2478 3584 2822 3584 
Q 3428 3584 3742 3212 
Q 4056 2841 4056 2131 
z
" transform="scale(0.015625)"/>
      <path id="DejaVuSans-Bold-72" d="M 3138 2547 
Q 2991 2616 2845 2648 
Q 2700 2681 2553 2681 
Q 2122 2681 1889 2404 
Q 1656 2128 1656 1613 
L 1656 0 
L 538 0 
L 538 3500 
L 1656 3500 
L 1656 2925 
Q 1872 3269 2151 3426 
Q 2431 3584 2822 3584 
Q 2878 3584 2943 3579 
Q 3009 3575 3134 3559 
L 3138 2547 
z
" transform="scale(0.015625)"/>
      <path id="DejaVuSans-Bold-76" d="M 97 3500 
L 1216 3500 
L 2088 1081 
L 2956 3500 
L 4078 3500 
L 2700 0 
L 1472 0 
L 97 3500 
z
" transform="scale(0.015625)"/>
      <path id="DejaVuSans-Bold-54" d="M 31 4666 
L 4331 4666 
L 4331 3756 
L 2784 3756 
L 2784 0 
L 1581 0 
L 1581 3756 
L 31 3756 
L 31 4666 
z
" transform="scale(0.015625)"/>
     </defs>
     <use xlink:href="#DejaVuSans-Bold-50"/>
     <use xlink:href="#DejaVuSans-Bold-44" transform="translate(73.291016 0)"/>
     <use xlink:href="#DejaVuSans-Bold-52" transform="translate(156.298828 0)"/>
     <use xlink:href="#DejaVuSans-Bold-20" transform="translate(233.300781 0)"/>
     <use xlink:href="#DejaVuSans-Bold-45" transform="translate(268.115234 0)"/>
     <use xlink:href="#DejaVuSans-Bold-78" transform="translate(336.425781 0)"/>
     <use xlink:href="#DejaVuSans-Bold-61" transform="translate(400.927734 0)"/>
     <use xlink:href="#DejaVuSans-Bold-6d" transform="translate(468.408203 0)"/>
     <use xlink:href="#DejaVuSans-Bold-70" transform="translate(572.607422 0)"/>
     <use xlink:href="#DejaVuSans-Bold-6c" transform="translate(644.189453 0)"/>
     <use xlink:href="#DejaVuSans-Bold-65" transform="translate(678.466797 0)"/>
     <use xlink:href="#DejaVuSans-Bold-3a" transform="translate(746.289062 0)"/>
     <use xlink:href="#DejaVuSans-Bold-20" transform="translate(786.279297 0)"/>
     <use xlink:href="#DejaVuSans-Bold-50" transform="translate(821.09375 0)"/>
     <use xlink:href="#DejaVuSans-Bold-6f" transform="translate(894.384766 0)"/>
     <use xlink:href="#DejaVuSans-Bold-73" transform="translate(963.085938 0)"/>
     <use xlink:href="#DejaVuSans-Bold-69" transform="translate(1022.607422 0)"/>
     <use xlink:href="#DejaVuSans-Bold-74" transform="translate(1056.884766 0)"/>
     <use xlink:href="#DejaVuSans-Bold-69" transform="translate(1104.6875 0)"/>
     <use xlink:href="#DejaVuSans-Bold-6f" transform="translate(1138.964844 0)"/>
     <use xlink:href="#DejaVuSans-Bold-6e" transform="translate(1207.666016 0)"/>
     <use xlink:href="#DejaVuSans-Bold-20" transform="translate(1278.857422 0)"/>
     <use xlink:href="#DejaVuSans-Bold-45" transform="translate(1313.671875 0)"/>
     <use xlink:href="#DejaVuSans-Bold-72" transform="translate(1381.982422 0)"/>
     <use xlink:href="#DejaVuSans-Bold-72" transform="translate(1431.298828 0)"/>
     <use xlink:href="#DejaVuSans-Bold-6f" transform="translate(1480.615234 0)"/>
     <use xlink:href="#DejaVuSans-Bold-72" transform="translate(1549.316406 0)"/>
     <use xlink:href="#DejaVuSans-Bold-20" transform="translate(1598.632812 0)"/>
     <use xlink:href="#DejaVuSans-Bold-76" transform="translate(1633.447266 0)"/>
     <use xlink:href="#DejaVuSans-Bold-73" transform="translate(1698.632812 0)"/>
     <use xlink:href="#DejaVuSans-Bold-20" transform="translate(1758.154297 0)"/>
     <use xlink:href="#DejaVuSans-Bold-54" transform="translate(1792.96875 0)"/>
     <use xlink:href="#DejaVuSans-Bold-69" transform="translate(1861.181641 0)"/>
     <use xlink:href="#DejaVuSans-Bold-6d" transform="translate(1895.458984 0)"/>
     <use xlink:href="#DejaVuSans-Bold-65" transform="translate(1999.658203 0)"/>
    </g>
   </g>
   <g id="legend_1">
    <g id="patch_7">
     <path d="M 43.87625 64.929687 
L 189.212031 64.929687 
Q 191.412031 64.929687 191.412031 62.729687 
L 191.412031 31.537812 
Q 191.412031 29.337812 189.212031 29.337812 
L 43.87625 29.337812 
Q 41.67625 29.337812 41.67625 31.537812 
L 41.67625 62.729687 
Q 41.67625 64.929687 43.87625 64.929687 
z
" style="fill: #ffffff; opacity: 0.8; stroke: #cccccc; stroke-linejoin: miter"/>
    </g>
    <g id="line2d_27">
     <path d="M 46.07625 38.246094 
L 57.07625 38.246094 
L 68.07625 38.246094 
" style="fill: none; stroke: #ff0000; stroke-width: 2; stroke-linecap: square"/>
    </g>
    <g id="text_16">
     <!-- PDR (Gyro Heading) -->
     <g transform="translate(76.87625 42.096094) scale(0.11 -0.11)">
      <defs>
       <path id="DejaVuSans-44" d="M 1259 4147 
L 1259 519 
L 2022 519 
Q 2988 519 3436 956 
Q 3884 1394 3884 2338 
Q 3884 3275 3436 3711 
Q 2988 4147 2022 4147 
L 1259 4147 
z
M 628 4666 
L 1925 4666 
Q 3281 4666 3915 4102 
Q 4550 3538 4550 2338 
Q 4550 1131 3912 565 
Q 3275 0 1925 0 
L 628 0 
L 628 4666 
z
" transform="scale(0.015625)"/>
       <path id="DejaVuSans-52" d="M 2841 2188 
Q 3044 2119 3236 1894 
Q 3428 1669 3622 1275 
L 4263 0 
L 3584 0 
L 2988 1197 
Q 2756 1666 2539 1819 
Q 2322 1972 1947 1972 
L 1259 1972 
L 1259 0 
L 628 0 
L 628 4666 
L 2053 4666 
Q 2853 4666 3247 4331 
Q 3641 3997 3641 3322 
Q 3641 2881 3436 2590 
Q 3231 2300 2841 2188 
z
M 1259 4147 
L 1259 2491 
L 2053 2491 
Q 2509 2491 2742 2702 
Q 2975 2913 2975 3322 
Q 2975 3731 2742 3939 
Q 2509 4147 2053 4147 
L 1259 4147 
z
" transform="scale(0.015625)"/>
       <path id="DejaVuSans-28" d="M 1984 4856 
Q 1566 4138 1362 3434 
Q 1159 2731 1159 2009 
Q 1159 1288 1364 580 
Q 1569 -128 1984 -844 
L 1484 -844 
Q 1016 -109 783 600 
Q 550 1309 550 2009 
Q 550 2706 781 3412 
Q 1013 4119 1484 4856 
L 1984 4856 
z
" transform="scale(0.015625)"/>
       <path id="DejaVuSans-47" d="M 3809 666 
L 3809 1919 
L 2778 1919 
L 2778 2438 
L 4434 2438 
L 4434 434 
Q 4069 175 3628 42 
Q 3188 -91 2688 -91 
Q 1594 -91 976 548 
Q 359 1188 359 2328 
Q 359 3472 976 4111 
Q 1594 4750 2688 4750 
Q 3144 4750 3555 4637 
Q 3966 4525 4313 4306 
L 4313 3634 
Q 3963 3931 3569 4081 
Q 3175 4231 2741 4231 
Q 1884 4231 1454 3753 
Q 1025 3275 1025 2328 
Q 1025 1384 1454 906 
Q 1884 428 2741 428 
Q 3075 428 3337 486 
Q 3600 544 3809 666 
z
" transform="scale(0.015625)"/>
       <path id="DejaVuSans-79" d="M 2059 -325 
Q 1816 -950 1584 -1140 
Q 1353 -1331 966 -1331 
L 506 -1331 
L 506 -850 
L 844 -850 
Q 1081 -850 1212 -737 
Q 1344 -625 1503 -206 
L 1606 56 
L 191 3500 
L 800 3500 
L 1894 763 
L 2988 3500 
L 3597 3500 
L 2059 -325 
z
" transform="scale(0.015625)"/>
       <path id="DejaVuSans-48" d="M 628 4666 
L 1259 4666 
L 1259 2753 
L 3553 2753 
L 3553 4666 
L 4184 4666 
L 4184 0 
L 3553 0 
L 3553 2222 
L 1259 2222 
L 1259 0 
L 628 0 
L 628 4666 
z
" transform="scale(0.015625)"/>
       <path id="DejaVuSans-61" d="M 2194 1759 
Q 1497 1759 1228 1600 
Q 959 1441 959 1056 
Q 959 750 1161 570 
Q 1363 391 1709 391 
Q 2188 391 2477 730 
Q 2766 1069 2766 1631 
L 2766 1759 
L 2194 1759 
z
M 3341 1997 
L 3341 0 
L 2766 0 
L 2766 531 
Q 2569 213 2275 61 
Q 1981 -91 1556 -91 
Q 1019 -91 701 211 
Q 384 513 384 1019 
Q 384 1609 779 1909 
Q 1175 2209 1959 2209 
L 2766 2209 
L 2766 2266 
Q 2766 2663 2505 2880 
Q 2244 3097 1772 3097 
Q 1472 3097 1187 3025 
Q 903 2953 641 2809 
L 641 3341 
Q 956 3463 1253 3523 
Q 1550 3584 1831 3584 
Q 2591 3584 2966 3190 
Q 3341 2797 3341 1997 
z
" transform="scale(0.015625)"/>
       <path id="DejaVuSans-64" d="M 2906 2969 
L 2906 4863 
L 3481 4863 
L 3481 0 
L 2906 0 
L 2906 525 
Q 2725 213 2448 61 
Q 2172 -91 1784 -91 
Q 1150 -91 751 415 
Q 353 922 353 1747 
Q 353 2572 751 3078 
Q 1150 3584 1784 3584 
Q 2172 3584 2448 3432 
Q 2725 3281 2906 2969 
z
M 947 1747 
Q 947 1113 1208 752 
Q 1469 391 1925 391 
Q 2381 391 2643 752 
Q 2906 1113 2906 1747 
Q 2906 2381 2643 2742 
Q 2381 3103 1925 3103 
Q 1469 3103 1208 2742 
Q 947 2381 947 1747 
z
" transform="scale(0.015625)"/>
       <path id="DejaVuSans-67" d="M 2906 1791 
Q 2906 2416 2648 2759 
Q 2391 3103 1925 3103 
Q 1463 3103 1205 2759 
Q 947 2416 947 1791 
Q 947 1169 1205 825 
Q 1463 481 1925 481 
Q 2391 481 2648 825 
Q 2906 1169 2906 1791 
z
M 3481 434 
Q 3481 -459 3084 -895 
Q 2688 -1331 1869 -1331 
Q 1566 -1331 1297 -1286 
Q 1028 -1241 775 -1147 
L 775 -588 
Q 1028 -725 1275 -790 
Q 1522 -856 1778 -856 
Q 2344 -856 2625 -561 
Q 2906 -266 2906 331 
L 2906 616 
Q 2728 306 2450 153 
Q 2172 0 1784 0 
Q 1141 0 747 490 
Q 353 981 353 1791 
Q 353 2603 747 3093 
Q 1141 3584 1784 3584 
Q 2172 3584 2450 3431 
Q 2728 3278 2906 2969 
L 2906 3500 
L 3481 3500 
L 3481 434 
z
" transform="scale(0.015625)"/>
       <path id="DejaVuSans-29" d="M 513 4856 
L 1013 4856 
Q 1481 4119 1714 3412 
Q 1947 2706 1947 2009 
Q 1947 1309 1714 600 
Q 1481 -109 1013 -844 
L 513 -844 
Q 928 -128 1133 580 
Q 1338 1288 1338 2009 
Q 1338 2731 1133 3434 
Q 928 4138 513 4856 
z
" transform="scale(0.015625)"/>
      </defs>
      <use xlink:href="#DejaVuSans-50"/>
      <use xlink:href="#DejaVuSans-44" transform="translate(60.302734 0)"/>
      <use xlink:href="#DejaVuSans-52" transform="translate(137.304688 0)"/>
      <use xlink:href="#DejaVuSans-20" transform="translate(206.787109 0)"/>
      <use xlink:href="#DejaVuSans-28" transform="translate(238.574219 0)"/>
      <use xlink:href="#DejaVuSans-47" transform="translate(277.587891 0)"/>
      <use xlink:href="#DejaVuSans-79" transform="translate(355.078125 0)"/>
      <use xlink:href="#DejaVuSans-72" transform="translate(414.257812 0)"/>
      <use xlink:href="#DejaVuSans-6f" transform="translate(453.121094 0)"/>
      <use xlink:href="#DejaVuSans-20" transform="translate(514.302734 0)"/>
      <use xlink:href="#DejaVuSans-48" transform="translate(546.089844 0)"/>
      <use xlink:href="#DejaVuSans-65" transform="translate(621.285156 0)"/>
      <use xlink:href="#DejaVuSans-61" transform="translate(682.808594 0)"/>
      <use xlink:href="#DejaVuSans-64" transform="translate(744.087891 0)"/>
      <use xlink:href="#DejaVuSans-69" transform="translate(807.564453 0)"/>
      <use xlink:href="#DejaVuSans-6e" transform="translate(835.347656 0)"/>
      <use xlink:href="#DejaVuSans-67" transform="translate(898.726562 0)"/>
      <use xlink:href="#DejaVuSans-29" transform="translate(962.203125 0)"/>
     </g>
    </g>
    <g id="line2d_28">
     <path d="M 46.07625 54.392031 
L 57.07625 54.392031 
L 68.07625 54.392031 
" style="fill: none; stroke: #0000ff; stroke-width: 2; stroke-linecap: square"/>
    </g>
    <g id="text_17">
     <!-- PDR (Mag Heading) -->
     <g transform="translate(76.87625 58.242031) scale(0.11 -0.11)">
      <defs>
       <path id="DejaVuSans-4d" d="M 628 4666 
L 1569 4666 
L 2759 1491 
L 3956 4666 
L 4897 4666 
L 4897 0 
L 4281 0 
L 4281 4097 
L 3078 897 
L 2444 897 
L 1241 4097 
L 1241 0 
L 628 0 
L 628 4666 
z
" transform="scale(0.015625)"/>
      </defs>
      <use xlink:href="#DejaVuSans-50"/>
      <use xlink:href="#DejaVuSans-44" transform="translate(60.302734 0)"/>
      <use xlink:href="#DejaVuSans-52" transform="translate(137.304688 0)"/>
      <use xlink:href="#DejaVuSans-20" transform="translate(206.787109 0)"/>
      <use xlink:href="#DejaVuSans-28" transform="translate(238.574219 0)"/>
      <use xlink:href="#DejaVuSans-4d" transform="translate(277.587891 0)"/>
      <use xlink:href="#DejaVuSans-61" transform="translate(363.867188 0)"/>
      <use xlink:href="#DejaVuSans-67" transform="translate(425.146484 0)"/>
      <use xlink:href="#DejaVuSans-20" transform="translate(488.623047 0)"/>
      <use xlink:href="#DejaVuSans-48" transform="translate(520.410156 0)"/>
      <use xlink:href="#DejaVuSans-65" transform="translate(595.605469 0)"/>
      <use xlink:href="#DejaVuSans-61" transform="translate(657.128906 0)"/>
      <use xlink:href="#DejaVuSans-64" transform="translate(718.408203 0)"/>
      <use xlink:href="#DejaVuSans-69" transform="translate(781.884766 0)"/>
      <use xlink:href="#DejaVuSans-6e" transform="translate(809.667969 0)"/>
      <use xlink:href="#DejaVuSans-67" transform="translate(873.046875 0)"/>
      <use xlink:href="#DejaVuSans-29" transform="translate(936.523438 0)"/>
     </g>
    </g>
   </g>
  </g>
 </g>
 <defs>
  <clipPath id="pa295a460fb">
   <rect x="36.17625" y="23.837812" width="812.05" height="359.56"/>
  </clipPath>
 </defs>
</svg>
